<?xml version="1.0" encoding="UTF-8" standalone="no"?>
<!DOCTYPE svg PUBLIC "-//W3C//DTD SVG 1.1//EN" "http://www.w3.org/Graphics/SVG/1.1/DTD/svg11.dtd">
<svg xmlns="http://www.w3.org/2000/svg" version="1.1" viewBox="0.00 0.00 1448.00 1448.00">
<g stroke-width="2.00" fill="none" stroke-linecap="butt">
<path stroke="#fd7611" vector-effect="non-scaling-stroke" d="
  M 802.04 278.55
  Q 803.00 278.43 803.92 278.13
  Q 804.38 277.98 804.64 277.58
  Q 806.54 274.58 805.98 270.14
  C 805.80 268.72 804.83 267.29 803.26 267.29
  Q 793.80 267.30 784.13 267.16
  C 781.72 267.12 779.29 266.99 777.13 265.79
  Q 773.43 263.72 769.40 262.68
  Q 768.04 262.33 766.96 261.33
  C 765.28 259.79 761.01 259.69 759.27 261.20
  Q 757.89 262.41 756.28 263.33
  A 1.83 1.79 -7.4 0 0 755.43 264.41
  Q 754.63 267.24 755.14 270.03
  A 1.51 1.50 -1.3 0 0 756.41 271.24
  C 762.08 272.04 768.31 276.26 772.69 279.74
  C 774.43 281.13 776.19 281.42 778.35 281.45
  Q 784.59 281.54 790.36 281.28
  C 794.46 281.09 798.01 279.06 802.04 278.55"
/>
<path stroke="#fd7611" vector-effect="non-scaling-stroke" d="
  M 564.35 517.98
  Q 564.12 523.73 564.29 530.25
  Q 564.39 534.11 565.87 536.90
  C 567.01 539.03 567.03 540.96 567.21 543.27
  Q 567.28 544.24 568.24 544.39
  Q 572.75 545.09 574.58 542.28
  Q 574.94 541.73 575.58 541.67
  Q 577.14 541.53 578.01 540.52
  A 1.32 1.32 0.0 0 0 578.32 539.48
  Q 577.79 535.56 581.37 534.63
  Q 582.45 534.35 583.51 533.90
  Q 588.05 531.95 592.42 529.95
  C 594.87 528.82 597.75 528.49 600.47 527.99
  Q 603.42 527.44 606.68 528.01
  C 610.47 528.66 614.15 528.88 617.81 530.25
  Q 628.98 534.44 640.17 536.43
  C 642.01 536.75 643.55 537.89 645.39 538.47
  C 649.55 539.77 653.64 541.74 657.75 543.27
  C 660.72 544.39 665.92 545.44 668.70 543.39
  Q 674.22 539.32 675.50 533.00
  Q 677.15 524.86 674.25 517.01
  Q 671.19 508.71 667.31 501.81
  C 666.21 499.87 666.05 497.99 665.38 495.94
  Q 662.72 487.81 659.28 478.49
  Q 656.96 472.21 654.71 468.72
  Q 651.30 463.44 647.35 460.41
  Q 642.74 456.87 634.96 455.18"
/>
<path stroke="#fa9b28" vector-effect="non-scaling-stroke" d="
  M 634.96 455.18
  Q 638.69 451.08 637.81 444.34
  C 637.55 442.36 637.67 440.41 635.18 439.92
  C 631.76 439.25 628.39 439.45 625.29 441.67
  C 620.75 444.92 615.73 447.45 611.12 450.65
  Q 604.17 455.48 596.71 460.84
  C 589.19 466.24 580.93 470.08 572.80 473.50
  C 565.58 476.54 559.66 485.88 557.77 492.94
  C 556.03 499.42 553.49 511.25 558.47 516.93
  Q 558.82 517.32 559.33 517.38
  L 564.35 517.98"
/>
<path stroke="#fcbe34" vector-effect="non-scaling-stroke" d="
  M 634.96 455.18
  L 633.31 460.02
  Q 633.14 460.50 632.64 460.59
  C 626.10 461.72 620.84 464.59 615.07 467.60
  A 2.36 2.35 76.7 0 0 613.79 469.68
  L 613.67 480.40
  Q 613.66 481.19 613.01 481.64
  Q 610.72 483.21 608.86 485.41
  C 606.12 488.64 602.07 489.84 598.23 491.17
  C 590.79 493.75 582.99 502.02 577.19 507.88
  C 576.33 508.75 574.76 509.23 574.17 509.91
  Q 569.56 515.18 564.35 517.98"
/>
<path stroke="#fd7611" vector-effect="non-scaling-stroke" d="
  M 818.75 766.60
  Q 813.63 764.94 808.86 764.98
  Q 803.78 765.02 800.36 767.57
  Q 791.61 774.08 793.64 785.68
  Q 795.02 793.59 796.60 801.02
  C 796.96 802.70 797.82 804.30 797.38 806.02
  C 796.02 811.28 791.24 814.16 786.93 817.02
  Q 786.56 817.27 786.11 817.27
  L 767.90 817.36
  Q 767.14 817.36 766.76 818.03
  Q 763.14 824.52 760.84 831.16
  Q 758.88 836.79 759.61 843.11
  Q 760.05 846.88 762.83 850.17
  A 2.19 2.17 -67.0 0 1 763.35 851.47
  Q 763.53 854.51 763.74 857.39
  Q 764.03 861.40 767.91 864.87
  Q 768.36 865.27 768.95 865.29
  C 771.65 865.41 773.88 866.52 776.57 866.69
  Q 783.36 867.12 787.64 866.54
  Q 790.75 866.11 793.63 863.07
  C 795.02 861.60 794.77 860.13 794.76 858.32
  Q 794.76 857.81 795.04 857.39
  L 795.68 856.45
  A 1.85 1.84 -27.7 0 0 795.99 855.46
  C 796.05 852.28 797.45 852.26 799.21 850.26
  A 1.44 1.42 -70.9 0 1 800.18 849.78
  L 800.73 849.75
  Q 801.32 849.71 801.67 849.23
  Q 802.19 848.49 803.17 848.49
  Q 810.86 848.48 818.65 848.49
  Q 819.28 848.49 819.76 848.92
  L 821.91 850.84
  A 1.31 1.30 66.3 0 0 822.75 851.17
  Q 829.44 851.32 836.44 851.30
  C 841.96 851.27 847.10 849.53 852.53 848.81
  Q 861.57 847.60 869.98 845.04
  C 877.36 842.80 884.49 841.93 891.98 840.47
  C 893.37 840.20 894.97 841.22 896.07 841.98
  Q 897.48 842.95 899.11 843.73
  Q 903.48 845.81 907.44 848.32"
/>
<path stroke="#fa9b28" vector-effect="non-scaling-stroke" d="
  M 907.44 848.32
  Q 901.97 852.80 896.33 855.77
  Q 891.95 858.08 890.27 859.58
  C 887.44 862.11 883.93 866.39 883.77 870.54
  C 883.57 875.61 883.13 883.16 885.20 887.30
  Q 885.45 887.79 885.99 887.85
  Q 890.03 888.31 894.04 887.96
  C 896.07 887.78 897.79 886.61 899.13 885.16
  Q 901.43 882.66 903.94 880.45
  C 905.21 879.33 905.50 877.80 907.03 876.79
  Q 910.27 874.68 912.83 871.36
  C 915.00 868.54 918.55 866.50 922.17 867.27
  Q 928.92 868.69 936.69 868.11
  Q 938.99 867.94 941.11 866.79
  Q 941.56 866.55 941.60 866.03
  Q 942.37 857.38 941.46 851.42
  Q 940.61 845.95 935.62 841.71
  Q 935.26 841.40 934.78 841.36
  L 933.45 841.23"
/>
<path stroke="#fd7611" vector-effect="non-scaling-stroke" d="
  M 933.45 841.23
  Q 933.19 840.48 934.06 840.08
  A 0.85 0.84 -8.0 0 0 934.55 839.44
  L 934.70 838.42
  Q 934.84 837.54 935.52 836.98
  C 939.38 833.81 941.13 830.43 943.06 826.04
  Q 944.49 822.78 944.61 819.57
  C 945.02 809.00 944.53 799.52 938.53 790.71
  Q 937.67 789.45 930.56 781.45
  Q 926.52 776.90 922.85 772.08
  Q 921.41 770.19 920.17 768.73
  Q 918.82 767.14 917.66 765.39
  Q 914.60 760.78 910.25 757.72"
/>
<path stroke="#fa9b28" vector-effect="non-scaling-stroke" d="
  M 910.25 757.72
  Q 917.05 752.20 923.27 746.03
  C 924.67 744.64 925.94 743.73 926.12 741.62
  Q 926.63 735.68 926.08 728.92
  C 925.82 725.73 922.05 724.40 919.49 723.43
  C 914.72 721.62 907.30 723.14 902.76 724.91
  C 894.18 728.25 884.90 730.45 875.89 732.50
  Q 871.06 733.60 866.13 734.08
  C 860.15 734.66 854.36 737.60 848.33 739.02
  C 839.40 741.11 831.91 745.19 826.88 753.06
  Q 823.94 757.65 820.77 761.22
  Q 819.02 763.21 818.75 766.60"
/>
<path stroke="#fcbe34" vector-effect="non-scaling-stroke" d="
  M 910.25 757.72
  Q 909.77 759.05 906.99 761.73
  Q 904.13 764.50 903.81 770.50
  Q 903.49 776.44 904.70 782.25
  Q 906.11 789.04 903.26 795.74"
/>
<path stroke="#fa9b28" vector-effect="non-scaling-stroke" d="
  M 903.26 795.74
  Q 900.94 796.77 899.08 797.66
  Q 896.55 798.88 894.44 798.96
  Q 892.06 799.05 889.83 798.98
  A 3.18 3.16 -1.9 0 1 886.78 796.14
  C 886.49 793.41 885.36 791.01 885.31 788.31
  Q 885.20 781.80 883.55 774.56
  Q 882.83 771.42 879.74 772.32
  Q 873.25 774.21 866.19 773.29
  A 0.69 0.68 -1.1 0 1 865.59 772.72
  C 865.04 769.23 865.40 763.97 868.64 761.83
  Q 870.79 760.41 872.20 757.54
  A 0.38 0.37 89.3 0 0 871.69 757.04
  C 871.07 757.38 870.37 757.73 869.65 757.74
  C 865.70 757.78 851.61 758.66 849.21 762.10
  C 848.41 763.25 847.92 764.23 846.64 764.96
  Q 840.30 768.59 834.18 772.21
  C 832.54 773.18 831.19 774.42 829.66 775.59"
/>
<path stroke="#fcbe34" vector-effect="non-scaling-stroke" d="
  M 829.66 775.59
  Q 824.61 776.90 819.91 776.27
  A 1.69 1.69 0.0 0 1 818.45 774.53
  L 818.75 766.60"
/>
<path stroke="#fcbe34" vector-effect="non-scaling-stroke" d="
  M 933.45 841.23
  Q 931.49 841.27 929.50 841.28
  C 925.39 841.32 921.28 842.40 917.10 842.83
  Q 914.51 843.10 912.05 844.64
  Q 909.17 846.44 907.44 848.32"
/>
<path stroke="#fd7611" vector-effect="non-scaling-stroke" d="
  M 903.26 795.74
  Q 903.57 798.12 901.84 802.31
  Q 900.68 805.12 899.21 806.78
  Q 898.85 807.18 898.30 807.24
  Q 895.07 807.60 891.48 807.49
  C 889.63 807.44 888.16 805.66 887.81 804.00
  A 1.60 1.51 -76.6 0 0 887.33 803.17
  C 885.56 801.60 884.11 800.23 883.26 797.96
  Q 881.69 793.75 877.61 790.79
  Q 877.23 790.51 876.75 790.49
  C 874.71 790.42 872.52 790.17 870.67 791.17
  Q 869.36 791.88 867.87 792.04
  Q 867.29 792.10 866.87 792.52
  L 856.74 802.62
  Q 856.30 803.06 855.68 803.11
  Q 854.63 803.19 854.06 803.99
  Q 853.69 804.50 853.07 804.55
  Q 851.23 804.68 849.40 804.60
  A 1.43 1.34 -28.2 0 1 848.77 804.43
  Q 848.51 804.28 848.50 803.98
  Q 848.48 803.25 847.75 803.24
  L 845.35 803.21
  Q 844.86 803.21 844.52 802.85
  L 841.81 799.97
  Q 841.27 799.40 841.35 798.63
  Q 841.40 798.03 840.75 797.82
  A 1.03 1.02 -80.8 0 1 840.04 796.83
  Q 840.05 795.38 839.10 794.40
  Q 838.75 794.04 838.68 793.55
  C 838.44 791.72 838.70 790.12 837.96 788.32
  Q 836.69 785.29 835.18 782.02
  Q 833.31 777.97 829.66 775.59"
/>
<path stroke="#fd7611" vector-effect="non-scaling-stroke" d="
  M 647.66 964.56
  Q 648.76 965.33 646.99 967.12
  Q 646.65 967.46 646.59 967.94
  Q 645.88 973.96 647.10 979.48
  C 648.06 983.79 644.82 989.81 643.30 993.87
  A 4.49 4.48 10.0 0 1 639.14 996.78
  Q 633.55 996.81 628.11 997.00
  C 623.26 997.17 612.96 1000.31 610.10 1005.80
  Q 607.29 1011.21 608.19 1018.11
  Q 608.35 1019.30 606.86 1019.61"
/>
<path stroke="#fa9b28" vector-effect="non-scaling-stroke" d="
  M 606.86 1019.61
  Q 601.03 1015.96 595.45 1011.87
  Q 592.34 1009.60 589.70 1008.62
  Q 586.50 1007.43 583.08 1006.94
  Q 574.51 1005.69 566.01 1005.27
  Q 559.62 1004.95 554.27 1003.08
  Q 552.11 1002.33 549.54 1000.88
  Q 547.33 999.63 544.90 998.38
  C 541.33 996.55 538.05 996.80 534.29 996.97
  A 1.13 1.12 88.2 0 0 533.22 998.12
  Q 533.33 1004.11 531.04 1008.45
  C 529.98 1010.45 530.13 1013.11 532.02 1014.69
  Q 539.25 1020.74 547.85 1023.21
  Q 551.50 1024.26 555.01 1025.31
  C 561.27 1027.18 567.11 1030.47 573.52 1031.71
  C 584.42 1033.82 593.50 1038.12 594.77 1050.38
  Q 595.41 1056.52 596.16 1062.60
  Q 597.90 1076.76 611.19 1080.31
  C 615.98 1081.59 621.67 1082.98 626.00 1080.06
  Q 633.41 1075.04 641.02 1073.76
  C 646.01 1072.92 651.16 1074.95 655.83 1076.55
  C 658.43 1077.45 660.70 1079.59 662.60 1081.53
  C 667.23 1086.23 673.61 1088.59 680.53 1089.19
  Q 690.48 1090.04 699.64 1090.36
  C 711.26 1090.77 723.23 1093.77 734.61 1089.20
  C 736.58 1088.41 738.31 1086.81 739.73 1085.28
  A 2.69 2.69 0.0 0 1 743.72 1085.33
  C 744.44 1086.14 745.59 1087.19 746.73 1087.30
  Q 751.01 1087.71 755.27 1087.34
  Q 755.71 1087.30 756.06 1087.01
  Q 760.02 1083.74 761.89 1081.13
  Q 764.43 1077.59 767.20 1072.38
  C 770.00 1067.09 774.55 1061.24 780.47 1059.24
  Q 786.27 1057.27 789.65 1054.98
  Q 796.50 1050.31 801.57 1042.77
  C 803.18 1040.36 805.23 1038.38 807.90 1037.17
  Q 815.12 1033.89 822.08 1031.72
  Q 829.16 1029.52 830.43 1023.12
  Q 831.55 1017.47 832.42 1012.06
  C 833.58 1004.86 836.32 997.61 840.25 991.57
  Q 845.27 983.85 850.46 975.70
  C 855.37 967.99 858.06 958.52 856.65 949.16
  C 856.26 946.56 854.96 944.62 853.82 942.35
  Q 853.58 941.88 853.05 941.82
  C 849.78 941.46 845.68 941.18 843.95 944.28
  Q 840.01 951.33 837.66 959.44
  Q 837.24 960.87 836.41 962.18
  Q 831.33 970.20 825.47 978.00
  Q 824.05 979.88 822.18 981.19
  A 2.03 2.03 0.0 0 1 819.08 980.13
  Q 817.72 975.76 816.71 971.02
  Q 816.45 969.77 815.06 968.73"
/>
<path stroke="#fd7611" vector-effect="non-scaling-stroke" d="
  M 815.06 968.73
  L 813.97 967.90
  Q 813.56 967.59 813.49 967.08
  Q 812.75 960.77 810.90 955.27
  Q 810.05 952.73 806.96 951.46
  C 803.73 950.13 800.07 948.99 797.05 947.16
  A 2.11 2.09 -88.6 0 1 796.24 946.30
  Q 793.94 941.68 793.41 937.79
  Q 793.27 936.72 793.71 935.67
  Q 795.25 931.99 796.64 928.33
  C 797.66 925.64 799.95 923.44 800.22 920.53
  Q 800.69 915.33 800.38 909.74
  Q 800.26 907.46 798.93 905.28
  Q 797.19 902.43 795.28 901.12
  Q 791.29 898.39 784.79 896.88
  C 774.80 894.56 764.44 893.43 753.98 892.61
  Q 747.54 892.11 739.00 893.54
  Q 733.19 894.50 727.80 899.16
  C 724.96 901.61 723.99 905.19 722.43 908.48
  A 0.54 0.54 0.0 0 1 721.55 908.62
  Q 721.46 908.52 721.32 907.97"
/>
<path stroke="#fa9b28" vector-effect="non-scaling-stroke" d="
  M 721.32 907.97
  Q 721.30 904.03 721.09 900.06
  C 720.95 897.44 719.75 895.87 718.63 893.71
  Q 717.37 891.29 715.79 889.23
  C 712.88 885.45 710.09 881.66 707.83 877.45
  C 703.49 869.35 698.89 861.94 696.34 852.82
  Q 695.06 848.21 693.71 843.91
  C 692.63 840.43 692.78 836.80 692.72 833.30
  A 0.52 0.52 0.0 0 0 692.19 832.79
  L 687.27 832.89
  Q 686.64 832.90 686.18 833.33
  Q 677.96 840.93 676.33 843.33
  C 675.07 845.18 673.42 847.05 673.21 849.25
  Q 672.05 861.44 676.78 869.87
  C 679.28 874.33 682.54 875.21 687.10 875.82
  Q 689.90 876.20 691.10 878.66
  Q 691.34 879.15 691.20 879.67
  Q 690.42 882.70 689.92 885.70
  Q 689.70 886.99 688.95 888.21
  C 685.79 893.31 681.13 896.85 676.86 901.07
  Q 673.89 904.01 669.99 907.48
  Q 663.78 913.00 658.18 920.75
  Q 657.78 921.30 657.14 921.54
  C 653.00 923.11 648.46 923.47 644.84 926.15
  C 634.28 933.96 629.42 944.61 629.17 957.53
  Q 629.11 960.87 631.19 963.25
  Q 633.21 965.55 637.22 965.77
  Q 643.27 966.11 647.66 964.56"
/>
<path stroke="#fcbe34" vector-effect="non-scaling-stroke" d="
  M 721.32 907.97
  L 720.62 917.07"
/>
<path stroke="#fa9b28" vector-effect="non-scaling-stroke" d="
  M 720.62 917.07
  Q 719.76 921.37 717.78 924.27
  Q 712.89 931.42 706.54 937.28
  Q 705.00 938.70 705.72 942.84"
/>
<path stroke="#fcbe34" vector-effect="non-scaling-stroke" d="
  M 705.72 942.84
  Q 705.25 943.97 705.79 945.26
  C 707.18 948.55 708.38 952.11 710.66 954.83
  C 713.83 958.64 716.37 963.19 720.16 966.56
  Q 725.47 971.26 730.95 975.87
  C 734.31 978.70 738.39 980.82 742.49 982.35
  Q 755.62 987.25 773.07 990.54
  Q 775.57 991.01 777.67 990.60
  C 784.50 989.30 790.10 985.62 792.52 978.91
  Q 795.50 970.63 803.71 967.75
  Q 806.50 966.77 810.96 967.29
  Q 811.45 967.34 811.85 967.64
  Q 813.14 968.63 815.06 968.73"
/>
<path stroke="#fcbe34" vector-effect="non-scaling-stroke" d="
  M 606.86 1019.61
  C 616.12 1027.23 623.28 1032.72 632.78 1037.69
  Q 637.08 1039.95 641.37 1040.51
  Q 650.33 1041.69 659.25 1042.84
  C 666.91 1043.83 674.89 1043.78 682.41 1042.59
  C 684.48 1042.27 686.52 1042.34 688.54 1041.77
  Q 695.94 1039.65 701.23 1035.28
  Q 702.89 1033.91 704.37 1030.83
  C 705.79 1027.85 708.95 1026.58 708.23 1022.67
  C 707.82 1020.48 707.23 1018.44 707.21 1016.17
  Q 707.16 1009.79 707.23 1003.25
  C 707.26 1001.00 708.34 999.03 707.27 996.82
  Q 703.50 989.04 700.17 980.34
  C 698.02 974.73 694.18 969.02 688.34 966.66
  Q 681.40 963.86 675.39 962.34
  C 672.26 961.55 669.21 962.51 666.00 962.57
  Q 656.72 962.75 647.66 964.56"
/>
<path stroke="#fd7611" vector-effect="non-scaling-stroke" d="
  M 705.72 942.84
  Q 710.28 940.21 715.75 940.37
  Q 717.96 940.44 720.11 940.59
  Q 722.67 940.76 724.52 940.08
  Q 727.00 939.16 729.56 938.43
  A 1.45 1.44 -18.1 0 0 730.52 936.54
  Q 729.04 932.53 726.67 930.62
  Q 724.98 929.26 723.71 927.12
  Q 721.09 922.73 720.62 917.07"
/>
<path stroke="#fa9b28" vector-effect="non-scaling-stroke" d="
  M 626.5096 453.1671
  A 1.45 0.69 -1.3 0 0 625.0443 452.5102
  A 1.45 0.69 -1.3 0 0 623.6104 453.2329
  A 1.45 0.69 -1.3 0 0 625.0757 453.8898
  A 1.45 0.69 -1.3 0 0 626.5096 453.1671"
/>
<path stroke="#fcbe34" vector-effect="non-scaling-stroke" d="
  M 837.09 755.87
  A 0.69 0.69 0.0 0 0 836.40 755.18
  A 0.69 0.69 0.0 0 0 835.71 755.87
  A 0.69 0.69 0.0 0 0 836.40 756.56
  A 0.69 0.69 0.0 0 0 837.09 755.87"
/>
<path stroke="#fa9b28" vector-effect="non-scaling-stroke" d="
  M 843.76 967.35
  A 7.54 7.48 -16.0 0 1 842.86 968.96
  Q 837.53 976.17 833.33 983.22
  Q 832.18 985.15 833.98 983.81
  Q 835.00 983.05 835.63 982.09
  Q 839.71 975.90 843.70 969.66
  Q 847.19 964.20 848.79 956.63
  A 1.18 1.12 74.4 0 1 849.08 956.08
  Q 849.57 955.56 849.49 954.84
  Q 849.39 953.95 848.77 954.59
  Q 847.21 956.21 846.98 957.23
  Q 845.86 962.23 843.76 967.35"
/>
</g>
<path fill="#fb5204" d="
  M 680.66 16.35
  C 684.77 13.93 692.65 16.85 691.49 22.71
  C 690.38 28.26 686.72 30.01 683.41 33.90
  C 680.06 37.85 669.17 33.97 665.42 32.00
  Q 664.97 31.75 664.82 31.26
  Q 663.59 27.21 666.10 24.97
  Q 668.94 22.42 673.12 21.30
  C 675.22 20.74 677.66 19.68 678.99 17.86
  Q 679.67 16.93 680.66 16.35
  Z"
/>
<path fill="#fb5204" d="
  M 561.49 90.21
  L 561.30 91.34
  A 0.64 0.64 0.0 0 1 560.67 91.87
  L 553.86 91.88
  A 1.11 1.09 80.8 0 1 552.82 91.12
  Q 550.91 85.14 551.61 78.30
  Q 551.67 77.76 552.21 77.76
  L 560.71 77.77
  Q 561.29 77.77 561.34 78.35
  Q 561.44 79.45 562.06 80.37
  C 563.04 81.82 562.83 84.13 562.75 85.81
  C 562.69 87.12 563.09 88.22 562.00 89.24
  Q 561.58 89.64 561.49 90.21
  Z"
/>
<path fill="#fb5204" d="
  M 725.47 254.65
  C 722.55 254.37 719.03 255.32 717.26 252.30
  Q 711.67 242.79 704.45 233.97
  C 702.72 231.86 702.32 229.50 702.78 226.95
  Q 702.89 226.35 703.50 226.33
  Q 712.24 225.93 719.77 226.42
  Q 720.32 226.46 720.75 226.81
  Q 726.85 231.76 732.49 237.61
  Q 739.32 244.70 749.92 250.68
  Q 752.75 252.28 755.88 253.33
  C 758.60 254.24 761.14 255.44 764.04 255.68
  Q 770.59 256.24 775.61 255.91
  Q 792.38 254.81 808.86 255.76
  C 813.69 256.04 818.44 255.98 823.27 256.00
  Q 823.82 256.00 824.22 256.40
  L 826.51 258.68
  Q 826.87 259.03 826.95 259.52
  Q 829.76 275.08 819.73 286.88
  C 818.09 288.81 815.76 290.55 813.32 291.28
  Q 807.96 292.87 802.66 295.15
  Q 799.32 296.59 795.86 296.89
  Q 784.26 297.87 775.85 296.26
  Q 770.59 295.25 766.37 291.97
  Q 757.40 285.00 744.20 273.56
  Q 738.69 268.79 733.80 262.93
  C 732.64 261.53 731.03 260.72 730.01 259.28
  Q 728.54 257.19 726.75 255.28
  Q 726.23 254.73 725.47 254.65
  Z
  M 741.81 256.03
  Q 741.26 256.22 741.08 256.76
  Q 740.97 257.09 741.30 257.21
  Q 741.44 257.26 741.58 257.31
  Q 742.16 257.50 742.23 256.89
  Q 742.27 256.50 742.11 256.16
  A 0.24 0.24 0.0 0 0 741.81 256.03
  Z
  M 802.04 278.55
  Q 803.00 278.43 803.92 278.13
  Q 804.38 277.98 804.64 277.58
  Q 806.54 274.58 805.98 270.14
  C 805.80 268.72 804.83 267.29 803.26 267.29
  Q 793.80 267.30 784.13 267.16
  C 781.72 267.12 779.29 266.99 777.13 265.79
  Q 773.43 263.72 769.40 262.68
  Q 768.04 262.33 766.96 261.33
  C 765.28 259.79 761.01 259.69 759.27 261.20
  Q 757.89 262.41 756.28 263.33
  A 1.83 1.79 -7.4 0 0 755.43 264.41
  Q 754.63 267.24 755.14 270.03
  A 1.51 1.50 -1.3 0 0 756.41 271.24
  C 762.08 272.04 768.31 276.26 772.69 279.74
  C 774.43 281.13 776.19 281.42 778.35 281.45
  Q 784.59 281.54 790.36 281.28
  C 794.46 281.09 798.01 279.06 802.04 278.55
  Z"
/>
<path fill="#fb5204" d="
  M 892.41 259.56
  Q 890.55 258.94 888.70 258.18
  C 885.85 257.03 886.13 252.62 886.74 250.20
  A 2.40 2.38 89.2 0 1 888.38 248.50
  C 895.11 246.52 904.49 248.30 911.12 250.10
  Q 912.04 250.35 912.04 251.30
  L 912.03 268.01
  Q 912.03 268.62 911.42 268.67
  Q 907.43 269.03 903.77 268.11
  Q 903.13 267.96 902.79 267.40
  Q 899.32 261.86 892.41 259.56
  Z"
/>
<path fill="#ff991d" d="
  M 802.04 278.55
  C 798.01 279.06 794.46 281.09 790.36 281.28
  Q 784.59 281.54 778.35 281.45
  C 776.19 281.42 774.43 281.13 772.69 279.74
  C 768.31 276.26 762.08 272.04 756.41 271.24
  A 1.51 1.50 -1.3 0 1 755.14 270.03
  Q 754.63 267.24 755.43 264.41
  A 1.83 1.79 -7.4 0 1 756.28 263.33
  Q 757.89 262.41 759.27 261.20
  C 761.01 259.69 765.28 259.79 766.96 261.33
  Q 768.04 262.33 769.40 262.68
  Q 773.43 263.72 777.13 265.79
  C 779.29 266.99 781.72 267.12 784.13 267.16
  Q 793.80 267.30 803.26 267.29
  C 804.83 267.29 805.80 268.72 805.98 270.14
  Q 806.54 274.58 804.64 277.58
  Q 804.38 277.98 803.92 278.13
  Q 803.00 278.43 802.04 278.55
  Z"
/>
<path fill="#fb5204" d="
  M 689.28 316.72
  L 688.02 316.76
  Q 687.25 316.78 687.25 316.01
  L 687.25 304.51
  Q 687.25 304.01 687.74 304.01
  L 694.58 304.01
  Q 695.25 304.01 695.66 304.53
  Q 696.74 305.87 698.14 307.01
  Q 698.51 307.31 698.51 307.79
  L 698.52 320.29
  Q 698.52 320.80 698.01 320.87
  Q 695.61 321.21 692.92 320.98
  Q 691.77 320.88 690.75 319.78
  Q 689.83 318.79 690.02 317.56
  Q 690.16 316.69 689.28 316.72
  Z"
/>
<path fill="#fb5204" d="
  M 547.85 401.48
  Q 547.70 401.49 547.55 401.50
  A 0.27 0.27 0.0 0 1 547.25 401.23
  L 547.25 395.22
  Q 547.25 394.55 547.93 394.59
  Q 551.15 394.83 553.03 392.15
  A 0.94 0.94 0.0 0 1 553.80 391.75
  L 559.47 391.72
  Q 559.98 391.72 559.98 392.22
  L 559.98 403.50
  Q 559.98 404.47 559.01 404.46
  Q 558.59 404.45 558.61 404.87
  Q 558.67 405.78 557.75 405.78
  L 552.40 405.79
  Q 551.88 405.79 551.54 405.39
  L 549.64 403.12
  A 0.77 0.76 -10.3 0 0 549.29 402.88
  Q 548.57 402.66 548.42 401.93
  Q 548.32 401.47 547.85 401.48
  Z"
/>
<path fill="#fb5204" d="
  M 541.76 1065.51
  C 538.57 1063.12 535.63 1060.03 532.77 1057.81
  Q 529.25 1055.07 526.21 1052.55
  C 523.80 1050.55 523.54 1048.80 522.82 1045.92
  Q 522.45 1044.43 521.42 1043.22
  C 512.67 1032.99 507.32 1022.40 502.26 1009.72
  Q 496.86 996.20 496.38 980.00
  Q 496.13 971.48 497.70 963.56
  C 498.59 959.03 500.75 954.18 502.59 949.90
  C 504.33 945.86 509.39 941.82 511.50 937.39
  Q 514.83 930.43 515.65 925.56
  Q 517.01 917.49 518.06 909.77
  A 2.25 2.25 0.0 0 1 520.30 907.83
  L 525.96 907.83
  Q 526.58 907.84 527.07 908.22
  Q 532.91 912.82 534.97 918.26
  C 537.64 925.35 539.57 932.70 541.05 940.10
  Q 543.39 951.76 548.78 960.59
  C 552.14 966.09 556.95 969.14 563.44 967.50
  Q 568.41 966.24 573.43 965.40
  Q 588.62 962.86 598.04 951.78
  C 603.15 945.76 608.25 940.14 615.88 937.36
  C 624.97 934.05 632.66 929.85 638.78 922.38
  Q 643.42 916.72 647.86 912.37
  Q 653.08 907.26 656.87 902.69
  Q 661.99 896.51 666.90 890.18
  Q 668.54 888.07 666.37 886.56
  C 659.65 881.87 655.30 877.21 651.81 869.74
  Q 648.06 861.75 644.33 854.40
  Q 642.54 850.89 641.93 846.97
  Q 639.45 831.18 640.65 816.81
  C 641.13 811.00 644.21 803.58 649.43 800.56
  C 658.28 795.46 667.45 791.01 675.24 786.93
  C 679.42 784.75 683.12 784.69 687.55 784.42
  A 1.06 1.04 -66.4 0 0 688.17 784.17
  L 693.13 779.93
  Q 693.56 779.56 694.12 779.50
  Q 697.38 779.12 699.99 777.16
  C 706.22 772.46 711.55 768.20 716.19 761.51
  Q 724.86 749.05 728.81 734.15
  C 730.60 727.39 731.18 721.09 730.78 714.00
  Q 730.47 708.49 730.05 703.01
  Q 729.84 700.26 728.07 693.38
  Q 726.76 688.30 724.72 683.59
  C 721.32 675.69 719.41 667.57 715.72 659.99
  C 714.21 656.89 713.96 653.54 712.47 650.46
  Q 706.10 637.19 699.69 623.21
  C 695.56 614.21 691.03 605.64 684.82 597.77
  Q 679.88 591.50 675.48 585.62
  Q 670.37 578.79 660.64 574.71
  Q 650.00 570.26 636.59 568.42
  Q 631.25 567.69 625.59 568.72
  Q 618.99 569.92 613.86 571.49
  Q 603.91 574.52 591.05 579.36
  C 580.67 583.26 570.79 589.66 561.59 596.28
  C 558.40 598.57 553.53 598.47 549.73 598.56
  Q 548.38 598.59 547.61 599.68
  Q 547.31 600.11 546.82 600.29
  C 544.97 600.95 541.54 601.95 540.19 599.88
  Q 536.08 593.54 533.70 586.55
  Q 532.10 581.83 530.30 577.24
  C 524.89 563.46 523.46 547.52 524.76 532.82
  Q 525.24 527.49 526.75 522.69
  Q 529.20 514.90 532.51 507.24
  C 539.53 491.01 547.60 476.02 561.24 464.57
  Q 565.61 460.90 569.87 456.86
  Q 577.02 450.08 581.34 447.12
  Q 591.23 440.35 605.17 432.16
  C 612.00 428.15 619.80 426.51 626.67 422.88
  Q 635.12 418.42 644.56 413.45
  Q 655.39 407.74 666.60 405.88
  Q 678.34 403.93 690.34 402.92
  A 1.09 1.08 -3.5 0 1 691.52 403.96
  Q 691.73 411.32 690.38 418.90
  Q 689.28 425.08 689.27 425.16
  Q 687.64 436.30 687.66 446.09
  Q 687.67 450.88 687.84 456.26
  Q 688.01 461.22 688.63 466.26
  Q 690.78 483.71 694.92 503.34
  Q 697.45 515.30 702.37 524.84
  C 705.17 530.26 708.49 535.40 713.18 539.58
  Q 718.26 544.10 723.57 547.84
  Q 728.08 551.02 733.32 549.24
  Q 740.61 546.77 747.35 545.75
  C 751.44 545.14 753.31 547.35 755.37 550.29
  Q 757.25 553.00 755.58 557.29
  Q 755.36 557.87 754.80 558.11
  Q 753.18 558.82 751.94 560.04
  Q 751.58 560.39 751.53 560.90
  Q 750.64 569.67 747.84 577.34
  C 745.22 584.51 741.82 591.30 739.81 598.87
  Q 736.97 609.62 735.15 621.56
  Q 733.27 633.94 734.49 645.74
  Q 736.74 667.46 740.36 687.45
  Q 742.68 700.30 750.12 709.88
  Q 754.63 715.69 760.35 721.29
  Q 762.20 723.10 764.43 723.89
  Q 766.46 724.60 768.45 725.63
  Q 779.36 731.23 793.16 731.04
  Q 795.56 731.01 797.64 729.90
  Q 801.90 727.64 807.00 725.63
  Q 811.20 723.98 816.10 721.38
  Q 824.08 717.14 833.81 712.80
  Q 840.90 709.63 847.36 705.59
  Q 851.03 703.30 854.74 702.54
  Q 859.83 701.50 863.52 701.64
  Q 877.27 702.18 892.09 701.14
  C 897.79 700.74 902.99 700.69 908.46 700.46
  Q 912.80 700.28 915.02 700.41
  Q 931.58 701.35 945.50 711.21
  Q 952.66 716.28 958.85 721.53
  C 963.93 725.82 967.69 731.55 970.91 737.28
  Q 973.54 741.94 976.08 749.80
  Q 978.16 756.24 980.25 762.75
  Q 982.58 769.99 986.28 791.24
  C 986.82 794.37 986.99 799.03 987.00 802.77
  Q 987.06 821.21 986.95 838.65
  Q 986.85 855.47 983.68 867.98
  Q 981.03 878.42 979.00 888.47
  Q 978.18 892.54 976.10 897.66
  Q 974.79 900.86 970.49 904.95
  Q 967.26 908.02 964.75 914.74
  Q 963.61 917.79 957.71 928.20
  C 955.51 932.07 952.26 932.99 948.15 933.44
  C 945.26 933.76 944.89 932.10 944.00 929.93
  Q 940.37 921.06 936.40 911.83
  C 933.63 905.42 928.35 899.56 921.29 897.97
  Q 911.72 895.82 904.89 902.80
  Q 894.09 913.84 884.64 928.39
  C 881.46 933.29 878.72 938.82 878.32 944.69
  Q 877.17 961.59 872.44 981.99
  Q 870.35 991.00 867.14 997.03
  Q 863.67 1003.55 859.97 1010.52
  Q 856.28 1017.47 853.74 1025.80
  C 851.91 1031.80 850.90 1038.57 848.37 1044.42
  C 845.16 1051.87 841.84 1059.29 839.06 1067.03
  C 835.66 1076.54 829.23 1085.42 822.56 1093.50
  C 818.74 1098.13 813.93 1102.17 809.04 1105.79
  Q 795.90 1115.51 781.97 1126.26
  Q 776.43 1130.54 769.48 1133.33
  C 759.26 1137.42 748.96 1140.06 738.44 1140.30
  C 733.99 1140.40 729.26 1141.15 724.90 1140.51
  C 721.96 1140.08 718.99 1139.38 715.99 1139.30
  Q 713.89 1139.24 712.01 1139.09
  Q 699.28 1138.05 685.73 1137.18
  Q 679.86 1136.80 673.40 1134.78
  C 665.33 1132.26 656.93 1131.06 648.79 1129.10
  C 641.02 1127.23 633.78 1124.49 626.53 1120.82
  C 616.49 1115.74 606.57 1111.04 597.06 1105.07
  C 591.00 1101.27 585.22 1097.38 578.85 1094.16
  Q 564.39 1086.85 550.47 1076.28
  Q 544.89 1072.04 542.35 1066.26
  Q 542.16 1065.81 541.76 1065.51
  Z
  M 564.35 517.98
  Q 564.12 523.73 564.29 530.25
  Q 564.39 534.11 565.87 536.90
  C 567.01 539.03 567.03 540.96 567.21 543.27
  Q 567.28 544.24 568.24 544.39
  Q 572.75 545.09 574.58 542.28
  Q 574.94 541.73 575.58 541.67
  Q 577.14 541.53 578.01 540.52
  A 1.32 1.32 0.0 0 0 578.32 539.48
  Q 577.79 535.56 581.37 534.63
  Q 582.45 534.35 583.51 533.90
  Q 588.05 531.95 592.42 529.95
  C 594.87 528.82 597.75 528.49 600.47 527.99
  Q 603.42 527.44 606.68 528.01
  C 610.47 528.66 614.15 528.88 617.81 530.25
  Q 628.98 534.44 640.17 536.43
  C 642.01 536.75 643.55 537.89 645.39 538.47
  C 649.55 539.77 653.64 541.74 657.75 543.27
  C 660.72 544.39 665.92 545.44 668.70 543.39
  Q 674.22 539.32 675.50 533.00
  Q 677.15 524.86 674.25 517.01
  Q 671.19 508.71 667.31 501.81
  C 666.21 499.87 666.05 497.99 665.38 495.94
  Q 662.72 487.81 659.28 478.49
  Q 656.96 472.21 654.71 468.72
  Q 651.30 463.44 647.35 460.41
  Q 642.74 456.87 634.96 455.18
  Q 638.69 451.08 637.81 444.34
  C 637.55 442.36 637.67 440.41 635.18 439.92
  C 631.76 439.25 628.39 439.45 625.29 441.67
  C 620.75 444.92 615.73 447.45 611.12 450.65
  Q 604.17 455.48 596.71 460.84
  C 589.19 466.24 580.93 470.08 572.80 473.50
  C 565.58 476.54 559.66 485.88 557.77 492.94
  C 556.03 499.42 553.49 511.25 558.47 516.93
  Q 558.82 517.32 559.33 517.38
  L 564.35 517.98
  Z
  M 818.75 766.60
  Q 813.63 764.94 808.86 764.98
  Q 803.78 765.02 800.36 767.57
  Q 791.61 774.08 793.64 785.68
  Q 795.02 793.59 796.60 801.02
  C 796.96 802.70 797.82 804.30 797.38 806.02
  C 796.02 811.28 791.24 814.16 786.93 817.02
  Q 786.56 817.27 786.11 817.27
  L 767.90 817.36
  Q 767.14 817.36 766.76 818.03
  Q 763.14 824.52 760.84 831.16
  Q 758.88 836.79 759.61 843.11
  Q 760.05 846.88 762.83 850.17
  A 2.19 2.17 -67.0 0 1 763.35 851.47
  Q 763.53 854.51 763.74 857.39
  Q 764.03 861.40 767.91 864.87
  Q 768.36 865.27 768.95 865.29
  C 771.65 865.41 773.88 866.52 776.57 866.69
  Q 783.36 867.12 787.64 866.54
  Q 790.75 866.11 793.63 863.07
  C 795.02 861.60 794.77 860.13 794.76 858.32
  Q 794.76 857.81 795.04 857.39
  L 795.68 856.45
  A 1.85 1.84 -27.7 0 0 795.99 855.46
  C 796.05 852.28 797.45 852.26 799.21 850.26
  A 1.44 1.42 -70.9 0 1 800.18 849.78
  L 800.73 849.75
  Q 801.32 849.71 801.67 849.23
  Q 802.19 848.49 803.17 848.49
  Q 810.86 848.48 818.65 848.49
  Q 819.28 848.49 819.76 848.92
  L 821.91 850.84
  A 1.31 1.30 66.3 0 0 822.75 851.17
  Q 829.44 851.32 836.44 851.30
  C 841.96 851.27 847.10 849.53 852.53 848.81
  Q 861.57 847.60 869.98 845.04
  C 877.36 842.80 884.49 841.93 891.98 840.47
  C 893.37 840.20 894.97 841.22 896.07 841.98
  Q 897.48 842.95 899.11 843.73
  Q 903.48 845.81 907.44 848.32
  Q 901.97 852.80 896.33 855.77
  Q 891.95 858.08 890.27 859.58
  C 887.44 862.11 883.93 866.39 883.77 870.54
  C 883.57 875.61 883.13 883.16 885.20 887.30
  Q 885.45 887.79 885.99 887.85
  Q 890.03 888.31 894.04 887.96
  C 896.07 887.78 897.79 886.61 899.13 885.16
  Q 901.43 882.66 903.94 880.45
  C 905.21 879.33 905.50 877.80 907.03 876.79
  Q 910.27 874.68 912.83 871.36
  C 915.00 868.54 918.55 866.50 922.17 867.27
  Q 928.92 868.69 936.69 868.11
  Q 938.99 867.94 941.11 866.79
  Q 941.56 866.55 941.60 866.03
  Q 942.37 857.38 941.46 851.42
  Q 940.61 845.95 935.62 841.71
  Q 935.26 841.40 934.78 841.36
  L 933.45 841.23
  Q 933.19 840.48 934.06 840.08
  A 0.85 0.84 -8.0 0 0 934.55 839.44
  L 934.70 838.42
  Q 934.84 837.54 935.52 836.98
  C 939.38 833.81 941.13 830.43 943.06 826.04
  Q 944.49 822.78 944.61 819.57
  C 945.02 809.00 944.53 799.52 938.53 790.71
  Q 937.67 789.45 930.56 781.45
  Q 926.52 776.90 922.85 772.08
  Q 921.41 770.19 920.17 768.73
  Q 918.82 767.14 917.66 765.39
  Q 914.60 760.78 910.25 757.72
  Q 917.05 752.20 923.27 746.03
  C 924.67 744.64 925.94 743.73 926.12 741.62
  Q 926.63 735.68 926.08 728.92
  C 925.82 725.73 922.05 724.40 919.49 723.43
  C 914.72 721.62 907.30 723.14 902.76 724.91
  C 894.18 728.25 884.90 730.45 875.89 732.50
  Q 871.06 733.60 866.13 734.08
  C 860.15 734.66 854.36 737.60 848.33 739.02
  C 839.40 741.11 831.91 745.19 826.88 753.06
  Q 823.94 757.65 820.77 761.22
  Q 819.02 763.21 818.75 766.60
  Z
  M 647.66 964.56
  Q 648.76 965.33 646.99 967.12
  Q 646.65 967.46 646.59 967.94
  Q 645.88 973.96 647.10 979.48
  C 648.06 983.79 644.82 989.81 643.30 993.87
  A 4.49 4.48 10.0 0 1 639.14 996.78
  Q 633.55 996.81 628.11 997.00
  C 623.26 997.17 612.96 1000.31 610.10 1005.80
  Q 607.29 1011.21 608.19 1018.11
  Q 608.35 1019.30 606.86 1019.61
  Q 601.03 1015.96 595.45 1011.87
  Q 592.34 1009.60 589.70 1008.62
  Q 586.50 1007.43 583.08 1006.94
  Q 574.51 1005.69 566.01 1005.27
  Q 559.62 1004.95 554.27 1003.08
  Q 552.11 1002.33 549.54 1000.88
  Q 547.33 999.63 544.90 998.38
  C 541.33 996.55 538.05 996.80 534.29 996.97
  A 1.13 1.12 88.2 0 0 533.22 998.12
  Q 533.33 1004.11 531.04 1008.45
  C 529.98 1010.45 530.13 1013.11 532.02 1014.69
  Q 539.25 1020.74 547.85 1023.21
  Q 551.50 1024.26 555.01 1025.31
  C 561.27 1027.18 567.11 1030.47 573.52 1031.71
  C 584.42 1033.82 593.50 1038.12 594.77 1050.38
  Q 595.41 1056.52 596.16 1062.60
  Q 597.90 1076.76 611.19 1080.31
  C 615.98 1081.59 621.67 1082.98 626.00 1080.06
  Q 633.41 1075.04 641.02 1073.76
  C 646.01 1072.92 651.16 1074.95 655.83 1076.55
  C 658.43 1077.45 660.70 1079.59 662.60 1081.53
  C 667.23 1086.23 673.61 1088.59 680.53 1089.19
  Q 690.48 1090.04 699.64 1090.36
  C 711.26 1090.77 723.23 1093.77 734.61 1089.20
  C 736.58 1088.41 738.31 1086.81 739.73 1085.28
  A 2.69 2.69 0.0 0 1 743.72 1085.33
  C 744.44 1086.14 745.59 1087.19 746.73 1087.30
  Q 751.01 1087.71 755.27 1087.34
  Q 755.71 1087.30 756.06 1087.01
  Q 760.02 1083.74 761.89 1081.13
  Q 764.43 1077.59 767.20 1072.38
  C 770.00 1067.09 774.55 1061.24 780.47 1059.24
  Q 786.27 1057.27 789.65 1054.98
  Q 796.50 1050.31 801.57 1042.77
  C 803.18 1040.36 805.23 1038.38 807.90 1037.17
  Q 815.12 1033.89 822.08 1031.72
  Q 829.16 1029.52 830.43 1023.12
  Q 831.55 1017.47 832.42 1012.06
  C 833.58 1004.86 836.32 997.61 840.25 991.57
  Q 845.27 983.85 850.46 975.70
  C 855.37 967.99 858.06 958.52 856.65 949.16
  C 856.26 946.56 854.96 944.62 853.82 942.35
  Q 853.58 941.88 853.05 941.82
  C 849.78 941.46 845.68 941.18 843.95 944.28
  Q 840.01 951.33 837.66 959.44
  Q 837.24 960.87 836.41 962.18
  Q 831.33 970.20 825.47 978.00
  Q 824.05 979.88 822.18 981.19
  A 2.03 2.03 0.0 0 1 819.08 980.13
  Q 817.72 975.76 816.71 971.02
  Q 816.45 969.77 815.06 968.73
  L 813.97 967.90
  Q 813.56 967.59 813.49 967.08
  Q 812.75 960.77 810.90 955.27
  Q 810.05 952.73 806.96 951.46
  C 803.73 950.13 800.07 948.99 797.05 947.16
  A 2.11 2.09 -88.6 0 1 796.24 946.30
  Q 793.94 941.68 793.41 937.79
  Q 793.27 936.72 793.71 935.67
  Q 795.25 931.99 796.64 928.33
  C 797.66 925.64 799.95 923.44 800.22 920.53
  Q 800.69 915.33 800.38 909.74
  Q 800.26 907.46 798.93 905.28
  Q 797.19 902.43 795.28 901.12
  Q 791.29 898.39 784.79 896.88
  C 774.80 894.56 764.44 893.43 753.98 892.61
  Q 747.54 892.11 739.00 893.54
  Q 733.19 894.50 727.80 899.16
  C 724.96 901.61 723.99 905.19 722.43 908.48
  A 0.54 0.54 0.0 0 1 721.55 908.62
  Q 721.46 908.52 721.32 907.97
  Q 721.30 904.03 721.09 900.06
  C 720.95 897.44 719.75 895.87 718.63 893.71
  Q 717.37 891.29 715.79 889.23
  C 712.88 885.45 710.09 881.66 707.83 877.45
  C 703.49 869.35 698.89 861.94 696.34 852.82
  Q 695.06 848.21 693.71 843.91
  C 692.63 840.43 692.78 836.80 692.72 833.30
  A 0.52 0.52 0.0 0 0 692.19 832.79
  L 687.27 832.89
  Q 686.64 832.90 686.18 833.33
  Q 677.96 840.93 676.33 843.33
  C 675.07 845.18 673.42 847.05 673.21 849.25
  Q 672.05 861.44 676.78 869.87
  C 679.28 874.33 682.54 875.21 687.10 875.82
  Q 689.90 876.20 691.10 878.66
  Q 691.34 879.15 691.20 879.67
  Q 690.42 882.70 689.92 885.70
  Q 689.70 886.99 688.95 888.21
  C 685.79 893.31 681.13 896.85 676.86 901.07
  Q 673.89 904.01 669.99 907.48
  Q 663.78 913.00 658.18 920.75
  Q 657.78 921.30 657.14 921.54
  C 653.00 923.11 648.46 923.47 644.84 926.15
  C 634.28 933.96 629.42 944.61 629.17 957.53
  Q 629.11 960.87 631.19 963.25
  Q 633.21 965.55 637.22 965.77
  Q 643.27 966.11 647.66 964.56
  Z"
/>
<path fill="#f8e34b" d="
  M 634.96 455.18
  L 633.31 460.02
  Q 633.14 460.50 632.64 460.59
  C 626.10 461.72 620.84 464.59 615.07 467.60
  A 2.36 2.35 76.7 0 0 613.79 469.68
  L 613.67 480.40
  Q 613.66 481.19 613.01 481.64
  Q 610.72 483.21 608.86 485.41
  C 606.12 488.64 602.07 489.84 598.23 491.17
  C 590.79 493.75 582.99 502.02 577.19 507.88
  C 576.33 508.75 574.76 509.23 574.17 509.91
  Q 569.56 515.18 564.35 517.98
  L 559.33 517.38
  Q 558.82 517.32 558.47 516.93
  C 553.49 511.25 556.03 499.42 557.77 492.94
  C 559.66 485.88 565.58 476.54 572.80 473.50
  C 580.93 470.08 589.19 466.24 596.71 460.84
  Q 604.17 455.48 611.12 450.65
  C 615.73 447.45 620.75 444.92 625.29 441.67
  C 628.39 439.45 631.76 439.25 635.18 439.92
  C 637.67 440.41 637.55 442.36 637.81 444.34
  Q 638.69 451.08 634.96 455.18
  Z
  M 626.5096 453.1671
  A 1.45 0.69 -1.3 0 0 625.0443 452.5102
  A 1.45 0.69 -1.3 0 0 623.6104 453.2329
  A 1.45 0.69 -1.3 0 0 625.0757 453.8898
  A 1.45 0.69 -1.3 0 0 626.5096 453.1671
  Z"
/>
<ellipse fill="#fb5204" cx="0.00" cy="0.00" transform="translate(625.06,453.20) rotate(-1.3)" rx="1.45" ry="0.69"/>
<path fill="#ff991d" d="
  M 634.96 455.18
  Q 642.74 456.87 647.35 460.41
  Q 651.30 463.44 654.71 468.72
  Q 656.96 472.21 659.28 478.49
  Q 662.72 487.81 665.38 495.94
  C 666.05 497.99 666.21 499.87 667.31 501.81
  Q 671.19 508.71 674.25 517.01
  Q 677.15 524.86 675.50 533.00
  Q 674.22 539.32 668.70 543.39
  C 665.92 545.44 660.72 544.39 657.75 543.27
  C 653.64 541.74 649.55 539.77 645.39 538.47
  C 643.55 537.89 642.01 536.75 640.17 536.43
  Q 628.98 534.44 617.81 530.25
  C 614.15 528.88 610.47 528.66 606.68 528.01
  Q 603.42 527.44 600.47 527.99
  C 597.75 528.49 594.87 528.82 592.42 529.95
  Q 588.05 531.95 583.51 533.90
  Q 582.45 534.35 581.37 534.63
  Q 577.79 535.56 578.32 539.48
  A 1.32 1.32 0.0 0 1 578.01 540.52
  Q 577.14 541.53 575.58 541.67
  Q 574.94 541.73 574.58 542.28
  Q 572.75 545.09 568.24 544.39
  Q 567.28 544.24 567.21 543.27
  C 567.03 540.96 567.01 539.03 565.87 536.90
  Q 564.39 534.11 564.29 530.25
  Q 564.12 523.73 564.35 517.98
  Q 569.56 515.18 574.17 509.91
  C 574.76 509.23 576.33 508.75 577.19 507.88
  C 582.99 502.02 590.79 493.75 598.23 491.17
  C 602.07 489.84 606.12 488.64 608.86 485.41
  Q 610.72 483.21 613.01 481.64
  Q 613.66 481.19 613.67 480.40
  L 613.79 469.68
  A 2.36 2.35 76.7 0 1 615.07 467.60
  C 620.84 464.59 626.10 461.72 632.64 460.59
  Q 633.14 460.50 633.31 460.02
  L 634.96 455.18
  Z"
/>
<path fill="#fb5204" d="
  M 856.52 456.45
  C 858.43 464.49 856.34 472.90 850.87 479.21
  C 849.03 481.34 846.86 482.06 844.13 482.13
  Q 837.96 482.28 833.03 484.86
  C 828.82 487.06 823.51 490.08 821.40 494.65
  Q 817.72 502.61 815.59 511.30
  Q 815.47 511.77 814.99 511.81
  C 813.49 511.95 809.10 512.49 808.42 510.53
  Q 804.94 500.51 800.33 492.94
  Q 799.21 491.11 796.79 490.10
  C 793.66 488.79 790.68 489.33 787.54 489.13
  A 2.92 2.91 1.9 0 1 784.80 486.21
  L 784.81 480.57
  Q 784.81 480.08 785.13 479.72
  Q 788.64 475.85 791.29 474.82
  Q 796.82 472.68 800.96 470.12
  Q 811.40 463.68 821.63 461.37
  Q 826.34 460.31 831.03 458.69
  C 838.55 456.08 847.86 454.25 855.77 455.73
  Q 856.38 455.85 856.52 456.45
  Z"
/>
<path fill="#f8e34b" d="
  M 910.25 757.72
  Q 909.77 759.05 906.99 761.73
  Q 904.13 764.50 903.81 770.50
  Q 903.49 776.44 904.70 782.25
  Q 906.11 789.04 903.26 795.74
  Q 900.94 796.77 899.08 797.66
  Q 896.55 798.88 894.44 798.96
  Q 892.06 799.05 889.83 798.98
  A 3.18 3.16 -1.9 0 1 886.78 796.14
  C 886.49 793.41 885.36 791.01 885.31 788.31
  Q 885.20 781.80 883.55 774.56
  Q 882.83 771.42 879.74 772.32
  Q 873.25 774.21 866.19 773.29
  A 0.69 0.68 -1.1 0 1 865.59 772.72
  C 865.04 769.23 865.40 763.97 868.64 761.83
  Q 870.79 760.41 872.20 757.54
  A 0.38 0.37 89.3 0 0 871.69 757.04
  C 871.07 757.38 870.37 757.73 869.65 757.74
  C 865.70 757.78 851.61 758.66 849.21 762.10
  C 848.41 763.25 847.92 764.23 846.64 764.96
  Q 840.30 768.59 834.18 772.21
  C 832.54 773.18 831.19 774.42 829.66 775.59
  Q 824.61 776.90 819.91 776.27
  A 1.69 1.69 0.0 0 1 818.45 774.53
  L 818.75 766.60
  Q 819.02 763.21 820.77 761.22
  Q 823.94 757.65 826.88 753.06
  C 831.91 745.19 839.40 741.11 848.33 739.02
  C 854.36 737.60 860.15 734.66 866.13 734.08
  Q 871.06 733.60 875.89 732.50
  C 884.90 730.45 894.18 728.25 902.76 724.91
  C 907.30 723.14 914.72 721.62 919.49 723.43
  C 922.05 724.40 925.82 725.73 926.08 728.92
  Q 926.63 735.68 926.12 741.62
  C 925.94 743.73 924.67 744.64 923.27 746.03
  Q 917.05 752.20 910.25 757.72
  Z
  M 837.09 755.87
  A 0.69 0.69 0.0 0 0 836.40 755.18
  A 0.69 0.69 0.0 0 0 835.71 755.87
  A 0.69 0.69 0.0 0 0 836.40 756.56
  A 0.69 0.69 0.0 0 0 837.09 755.87
  Z"
/>
<circle fill="#ff991d" cx="836.40" cy="755.87" r="0.69"/>
<path fill="#fb5204" d="
  M 903.26 795.74
  Q 903.57 798.12 901.84 802.31
  Q 900.68 805.12 899.21 806.78
  Q 898.85 807.18 898.30 807.24
  Q 895.07 807.60 891.48 807.49
  C 889.63 807.44 888.16 805.66 887.81 804.00
  A 1.60 1.51 -76.6 0 0 887.33 803.17
  C 885.56 801.60 884.11 800.23 883.26 797.96
  Q 881.69 793.75 877.61 790.79
  Q 877.23 790.51 876.75 790.49
  C 874.71 790.42 872.52 790.17 870.67 791.17
  Q 869.36 791.88 867.87 792.04
  Q 867.29 792.10 866.87 792.52
  L 856.74 802.62
  Q 856.30 803.06 855.68 803.11
  Q 854.63 803.19 854.06 803.99
  Q 853.69 804.50 853.07 804.55
  Q 851.23 804.68 849.40 804.60
  A 1.43 1.34 -28.2 0 1 848.77 804.43
  Q 848.51 804.28 848.50 803.98
  Q 848.48 803.25 847.75 803.24
  L 845.35 803.21
  Q 844.86 803.21 844.52 802.85
  L 841.81 799.97
  Q 841.27 799.40 841.35 798.63
  Q 841.40 798.03 840.75 797.82
  A 1.03 1.02 -80.8 0 1 840.04 796.83
  Q 840.05 795.38 839.10 794.40
  Q 838.75 794.04 838.68 793.55
  C 838.44 791.72 838.70 790.12 837.96 788.32
  Q 836.69 785.29 835.18 782.02
  Q 833.31 777.97 829.66 775.59
  C 831.19 774.42 832.54 773.18 834.18 772.21
  Q 840.30 768.59 846.64 764.96
  C 847.92 764.23 848.41 763.25 849.21 762.10
  C 851.61 758.66 865.70 757.78 869.65 757.74
  C 870.37 757.73 871.07 757.38 871.69 757.04
  A 0.38 0.37 89.3 0 1 872.20 757.54
  Q 870.79 760.41 868.64 761.83
  C 865.40 763.97 865.04 769.23 865.59 772.72
  A 0.69 0.68 -1.1 0 0 866.19 773.29
  Q 873.25 774.21 879.74 772.32
  Q 882.83 771.42 883.55 774.56
  Q 885.20 781.80 885.31 788.31
  C 885.36 791.01 886.49 793.41 886.78 796.14
  A 3.18 3.16 -1.9 0 0 889.83 798.98
  Q 892.06 799.05 894.44 798.96
  Q 896.55 798.88 899.08 797.66
  Q 900.94 796.77 903.26 795.74
  Z"
/>
<path fill="#ff991d" d="
  M 910.25 757.72
  Q 914.60 760.78 917.66 765.39
  Q 918.82 767.14 920.17 768.73
  Q 921.41 770.19 922.85 772.08
  Q 926.52 776.90 930.56 781.45
  Q 937.67 789.45 938.53 790.71
  C 944.53 799.52 945.02 809.00 944.61 819.57
  Q 944.49 822.78 943.06 826.04
  C 941.13 830.43 939.38 833.81 935.52 836.98
  Q 934.84 837.54 934.70 838.42
  L 934.55 839.44
  A 0.85 0.84 -8.0 0 1 934.06 840.08
  Q 933.19 840.48 933.45 841.23
  Q 931.49 841.27 929.50 841.28
  C 925.39 841.32 921.28 842.40 917.10 842.83
  Q 914.51 843.10 912.05 844.64
  Q 909.17 846.44 907.44 848.32
  Q 903.48 845.81 899.11 843.73
  Q 897.48 842.95 896.07 841.98
  C 894.97 841.22 893.37 840.20 891.98 840.47
  C 884.49 841.93 877.36 842.80 869.98 845.04
  Q 861.57 847.60 852.53 848.81
  C 847.10 849.53 841.96 851.27 836.44 851.30
  Q 829.44 851.32 822.75 851.17
  A 1.31 1.30 66.3 0 1 821.91 850.84
  L 819.76 848.92
  Q 819.28 848.49 818.65 848.49
  Q 810.86 848.48 803.17 848.49
  Q 802.19 848.49 801.67 849.23
  Q 801.32 849.71 800.73 849.75
  L 800.18 849.78
  A 1.44 1.42 -70.9 0 0 799.21 850.26
  C 797.45 852.26 796.05 852.28 795.99 855.46
  A 1.85 1.84 -27.7 0 1 795.68 856.45
  L 795.04 857.39
  Q 794.76 857.81 794.76 858.32
  C 794.77 860.13 795.02 861.60 793.63 863.07
  Q 790.75 866.11 787.64 866.54
  Q 783.36 867.12 776.57 866.69
  C 773.88 866.52 771.65 865.41 768.95 865.29
  Q 768.36 865.27 767.91 864.87
  Q 764.03 861.40 763.74 857.39
  Q 763.53 854.51 763.35 851.47
  A 2.19 2.17 -67.0 0 0 762.83 850.17
  Q 760.05 846.88 759.61 843.11
  Q 758.88 836.79 760.84 831.16
  Q 763.14 824.52 766.76 818.03
  Q 767.14 817.36 767.90 817.36
  L 786.11 817.27
  Q 786.56 817.27 786.93 817.02
  C 791.24 814.16 796.02 811.28 797.38 806.02
  C 797.82 804.30 796.96 802.70 796.60 801.02
  Q 795.02 793.59 793.64 785.68
  Q 791.61 774.08 800.36 767.57
  Q 803.78 765.02 808.86 764.98
  Q 813.63 764.94 818.75 766.60
  L 818.45 774.53
  A 1.69 1.69 0.0 0 0 819.91 776.27
  Q 824.61 776.90 829.66 775.59
  Q 833.31 777.97 835.18 782.02
  Q 836.69 785.29 837.96 788.32
  C 838.70 790.12 838.44 791.72 838.68 793.55
  Q 838.75 794.04 839.10 794.40
  Q 840.05 795.38 840.04 796.83
  A 1.03 1.02 -80.8 0 0 840.75 797.82
  Q 841.40 798.03 841.35 798.63
  Q 841.27 799.40 841.81 799.97
  L 844.52 802.85
  Q 844.86 803.21 845.35 803.21
  L 847.75 803.24
  Q 848.48 803.25 848.50 803.98
  Q 848.51 804.28 848.77 804.43
  A 1.43 1.34 -28.2 0 0 849.40 804.60
  Q 851.23 804.68 853.07 804.55
  Q 853.69 804.50 854.06 803.99
  Q 854.63 803.19 855.68 803.11
  Q 856.30 803.06 856.74 802.62
  L 866.87 792.52
  Q 867.29 792.10 867.87 792.04
  Q 869.36 791.88 870.67 791.17
  C 872.52 790.17 874.71 790.42 876.75 790.49
  Q 877.23 790.51 877.61 790.79
  Q 881.69 793.75 883.26 797.96
  C 884.11 800.23 885.56 801.60 887.33 803.17
  A 1.60 1.51 -76.6 0 1 887.81 804.00
  C 888.16 805.66 889.63 807.44 891.48 807.49
  Q 895.07 807.60 898.30 807.24
  Q 898.85 807.18 899.21 806.78
  Q 900.68 805.12 901.84 802.31
  Q 903.57 798.12 903.26 795.74
  Q 906.11 789.04 904.70 782.25
  Q 903.49 776.44 903.81 770.50
  Q 904.13 764.50 906.99 761.73
  Q 909.77 759.05 910.25 757.72
  Z"
/>
<path fill="#f8e34b" d="
  M 721.32 907.97
  L 720.62 917.07
  Q 719.76 921.37 717.78 924.27
  Q 712.89 931.42 706.54 937.28
  Q 705.00 938.70 705.72 942.84
  Q 705.25 943.97 705.79 945.26
  C 707.18 948.55 708.38 952.11 710.66 954.83
  C 713.83 958.64 716.37 963.19 720.16 966.56
  Q 725.47 971.26 730.95 975.87
  C 734.31 978.70 738.39 980.82 742.49 982.35
  Q 755.62 987.25 773.07 990.54
  Q 775.57 991.01 777.67 990.60
  C 784.50 989.30 790.10 985.62 792.52 978.91
  Q 795.50 970.63 803.71 967.75
  Q 806.50 966.77 810.96 967.29
  Q 811.45 967.34 811.85 967.64
  Q 813.14 968.63 815.06 968.73
  Q 816.45 969.77 816.71 971.02
  Q 817.72 975.76 819.08 980.13
  A 2.03 2.03 0.0 0 0 822.18 981.19
  Q 824.05 979.88 825.47 978.00
  Q 831.33 970.20 836.41 962.18
  Q 837.24 960.87 837.66 959.44
  Q 840.01 951.33 843.95 944.28
  C 845.68 941.18 849.78 941.46 853.05 941.82
  Q 853.58 941.88 853.82 942.35
  C 854.96 944.62 856.26 946.56 856.65 949.16
  C 858.06 958.52 855.37 967.99 850.46 975.70
  Q 845.27 983.85 840.25 991.57
  C 836.32 997.61 833.58 1004.86 832.42 1012.06
  Q 831.55 1017.47 830.43 1023.12
  Q 829.16 1029.52 822.08 1031.72
  Q 815.12 1033.89 807.90 1037.17
  C 805.23 1038.38 803.18 1040.36 801.57 1042.77
  Q 796.50 1050.31 789.65 1054.98
  Q 786.27 1057.27 780.47 1059.24
  C 774.55 1061.24 770.00 1067.09 767.20 1072.38
  Q 764.43 1077.59 761.89 1081.13
  Q 760.02 1083.74 756.06 1087.01
  Q 755.71 1087.30 755.27 1087.34
  Q 751.01 1087.71 746.73 1087.30
  C 745.59 1087.19 744.44 1086.14 743.72 1085.33
  A 2.69 2.69 0.0 0 0 739.73 1085.28
  C 738.31 1086.81 736.58 1088.41 734.61 1089.20
  C 723.23 1093.77 711.26 1090.77 699.64 1090.36
  Q 690.48 1090.04 680.53 1089.19
  C 673.61 1088.59 667.23 1086.23 662.60 1081.53
  C 660.70 1079.59 658.43 1077.45 655.83 1076.55
  C 651.16 1074.95 646.01 1072.92 641.02 1073.76
  Q 633.41 1075.04 626.00 1080.06
  C 621.67 1082.98 615.98 1081.59 611.19 1080.31
  Q 597.90 1076.76 596.16 1062.60
  Q 595.41 1056.52 594.77 1050.38
  C 593.50 1038.12 584.42 1033.82 573.52 1031.71
  C 567.11 1030.47 561.27 1027.18 555.01 1025.31
  Q 551.50 1024.26 547.85 1023.21
  Q 539.25 1020.74 532.02 1014.69
  C 530.13 1013.11 529.98 1010.45 531.04 1008.45
  Q 533.33 1004.11 533.22 998.12
  A 1.13 1.12 88.2 0 1 534.29 996.97
  C 538.05 996.80 541.33 996.55 544.90 998.38
  Q 547.33 999.63 549.54 1000.88
  Q 552.11 1002.33 554.27 1003.08
  Q 559.62 1004.95 566.01 1005.27
  Q 574.51 1005.69 583.08 1006.94
  Q 586.50 1007.43 589.70 1008.62
  Q 592.34 1009.60 595.45 1011.87
  Q 601.03 1015.96 606.86 1019.61
  C 616.12 1027.23 623.28 1032.72 632.78 1037.69
  Q 637.08 1039.95 641.37 1040.51
  Q 650.33 1041.69 659.25 1042.84
  C 666.91 1043.83 674.89 1043.78 682.41 1042.59
  C 684.48 1042.27 686.52 1042.34 688.54 1041.77
  Q 695.94 1039.65 701.23 1035.28
  Q 702.89 1033.91 704.37 1030.83
  C 705.79 1027.85 708.95 1026.58 708.23 1022.67
  C 707.82 1020.48 707.23 1018.44 707.21 1016.17
  Q 707.16 1009.79 707.23 1003.25
  C 707.26 1001.00 708.34 999.03 707.27 996.82
  Q 703.50 989.04 700.17 980.34
  C 698.02 974.73 694.18 969.02 688.34 966.66
  Q 681.40 963.86 675.39 962.34
  C 672.26 961.55 669.21 962.51 666.00 962.57
  Q 656.72 962.75 647.66 964.56
  Q 643.27 966.11 637.22 965.77
  Q 633.21 965.55 631.19 963.25
  Q 629.11 960.87 629.17 957.53
  C 629.42 944.61 634.28 933.96 644.84 926.15
  C 648.46 923.47 653.00 923.11 657.14 921.54
  Q 657.78 921.30 658.18 920.75
  Q 663.78 913.00 669.99 907.48
  Q 673.89 904.01 676.86 901.07
  C 681.13 896.85 685.79 893.31 688.95 888.21
  Q 689.70 886.99 689.92 885.70
  Q 690.42 882.70 691.20 879.67
  Q 691.34 879.15 691.10 878.66
  Q 689.90 876.20 687.10 875.82
  C 682.54 875.21 679.28 874.33 676.78 869.87
  Q 672.05 861.44 673.21 849.25
  C 673.42 847.05 675.07 845.18 676.33 843.33
  Q 677.96 840.93 686.18 833.33
  Q 686.64 832.90 687.27 832.89
  L 692.19 832.79
  A 0.52 0.52 0.0 0 1 692.72 833.30
  C 692.78 836.80 692.63 840.43 693.71 843.91
  Q 695.06 848.21 696.34 852.82
  C 698.89 861.94 703.49 869.35 707.83 877.45
  C 710.09 881.66 712.88 885.45 715.79 889.23
  Q 717.37 891.29 718.63 893.71
  C 719.75 895.87 720.95 897.44 721.09 900.06
  Q 721.30 904.03 721.32 907.97
  Z
  M 843.76 967.35
  A 7.54 7.48 -16.0 0 1 842.86 968.96
  Q 837.53 976.17 833.33 983.22
  Q 832.18 985.15 833.98 983.81
  Q 835.00 983.05 835.63 982.09
  Q 839.71 975.90 843.70 969.66
  Q 847.19 964.20 848.79 956.63
  A 1.18 1.12 74.4 0 1 849.08 956.08
  Q 849.57 955.56 849.49 954.84
  Q 849.39 953.95 848.77 954.59
  Q 847.21 956.21 846.98 957.23
  Q 845.86 962.23 843.76 967.35
  Z"
/>
<path fill="#f8e34b" d="
  M 933.45 841.23
  L 934.78 841.36
  Q 935.26 841.40 935.62 841.71
  Q 940.61 845.95 941.46 851.42
  Q 942.37 857.38 941.60 866.03
  Q 941.56 866.55 941.11 866.79
  Q 938.99 867.94 936.69 868.11
  Q 928.92 868.69 922.17 867.27
  C 918.55 866.50 915.00 868.54 912.83 871.36
  Q 910.27 874.68 907.03 876.79
  C 905.50 877.80 905.21 879.33 903.94 880.45
  Q 901.43 882.66 899.13 885.16
  C 897.79 886.61 896.07 887.78 894.04 887.96
  Q 890.03 888.31 885.99 887.85
  Q 885.45 887.79 885.20 887.30
  C 883.13 883.16 883.57 875.61 883.77 870.54
  C 883.93 866.39 887.44 862.11 890.27 859.58
  Q 891.95 858.08 896.33 855.77
  Q 901.97 852.80 907.44 848.32
  Q 909.17 846.44 912.05 844.64
  Q 914.51 843.10 917.10 842.83
  C 921.28 842.40 925.39 841.32 929.50 841.28
  Q 931.49 841.27 933.45 841.23
  Z"
/>
<path fill="#ff991d" d="
  M 815.06 968.73
  Q 813.14 968.63 811.85 967.64
  Q 811.45 967.34 810.96 967.29
  Q 806.50 966.77 803.71 967.75
  Q 795.50 970.63 792.52 978.91
  C 790.10 985.62 784.50 989.30 777.67 990.60
  Q 775.57 991.01 773.07 990.54
  Q 755.62 987.25 742.49 982.35
  C 738.39 980.82 734.31 978.70 730.95 975.87
  Q 725.47 971.26 720.16 966.56
  C 716.37 963.19 713.83 958.64 710.66 954.83
  C 708.38 952.11 707.18 948.55 705.79 945.26
  Q 705.25 943.97 705.72 942.84
  Q 710.28 940.21 715.75 940.37
  Q 717.96 940.44 720.11 940.59
  Q 722.67 940.76 724.52 940.08
  Q 727.00 939.16 729.56 938.43
  A 1.45 1.44 -18.1 0 0 730.52 936.54
  Q 729.04 932.53 726.67 930.62
  Q 724.98 929.26 723.71 927.12
  Q 721.09 922.73 720.62 917.07
  L 721.32 907.97
  Q 721.46 908.52 721.55 908.62
  A 0.54 0.54 0.0 0 0 722.43 908.48
  C 723.99 905.19 724.96 901.61 727.80 899.16
  Q 733.19 894.50 739.00 893.54
  Q 747.54 892.11 753.98 892.61
  C 764.44 893.43 774.80 894.56 784.79 896.88
  Q 791.29 898.39 795.28 901.12
  Q 797.19 902.43 798.93 905.28
  Q 800.26 907.46 800.38 909.74
  Q 800.69 915.33 800.22 920.53
  C 799.95 923.44 797.66 925.64 796.64 928.33
  Q 795.25 931.99 793.71 935.67
  Q 793.27 936.72 793.41 937.79
  Q 793.94 941.68 796.24 946.30
  A 2.11 2.09 -88.6 0 0 797.05 947.16
  C 800.07 948.99 803.73 950.13 806.96 951.46
  Q 810.05 952.73 810.90 955.27
  Q 812.75 960.77 813.49 967.08
  Q 813.56 967.59 813.97 967.90
  L 815.06 968.73
  Z"
/>
<path fill="#fb5204" d="
  M 720.62 917.07
  Q 721.09 922.73 723.71 927.12
  Q 724.98 929.26 726.67 930.62
  Q 729.04 932.53 730.52 936.54
  A 1.45 1.44 -18.1 0 1 729.56 938.43
  Q 727.00 939.16 724.52 940.08
  Q 722.67 940.76 720.11 940.59
  Q 717.96 940.44 715.75 940.37
  Q 710.28 940.21 705.72 942.84
  Q 705.00 938.70 706.54 937.28
  Q 712.89 931.42 717.78 924.27
  Q 719.76 921.37 720.62 917.07
  Z"
/>
<path fill="#fb5204" d="
  M 843.76 967.35
  Q 845.86 962.23 846.98 957.23
  Q 847.21 956.21 848.77 954.59
  Q 849.39 953.95 849.49 954.84
  Q 849.57 955.56 849.08 956.08
  A 1.18 1.12 74.4 0 0 848.79 956.63
  Q 847.19 964.20 843.70 969.66
  Q 839.71 975.90 835.63 982.09
  Q 835.00 983.05 833.98 983.81
  Q 832.18 985.15 833.33 983.22
  Q 837.53 976.17 842.86 968.96
  A 7.54 7.48 -16.0 0 0 843.76 967.35
  Z"
/>
<path fill="#ff991d" d="
  M 606.86 1019.61
  Q 608.35 1019.30 608.19 1018.11
  Q 607.29 1011.21 610.10 1005.80
  C 612.96 1000.31 623.26 997.17 628.11 997.00
  Q 633.55 996.81 639.14 996.78
  A 4.49 4.48 10.0 0 0 643.30 993.87
  C 644.82 989.81 648.06 983.79 647.10 979.48
  Q 645.88 973.96 646.59 967.94
  Q 646.65 967.46 646.99 967.12
  Q 648.76 965.33 647.66 964.56
  Q 656.72 962.75 666.00 962.57
  C 669.21 962.51 672.26 961.55 675.39 962.34
  Q 681.40 963.86 688.34 966.66
  C 694.18 969.02 698.02 974.73 700.17 980.34
  Q 703.50 989.04 707.27 996.82
  C 708.34 999.03 707.26 1001.00 707.23 1003.25
  Q 707.16 1009.79 707.21 1016.17
  C 707.23 1018.44 707.82 1020.48 708.23 1022.67
  C 708.95 1026.58 705.79 1027.85 704.37 1030.83
  Q 702.89 1033.91 701.23 1035.28
  Q 695.94 1039.65 688.54 1041.77
  C 686.52 1042.34 684.48 1042.27 682.41 1042.59
  C 674.89 1043.78 666.91 1043.83 659.25 1042.84
  Q 650.33 1041.69 641.37 1040.51
  Q 637.08 1039.95 632.78 1037.69
  C 623.28 1032.72 616.12 1027.23 606.86 1019.61
  Z"
/>
</svg>
