<?xml version="1.0" encoding="UTF-8" standalone="no"?>
<!DOCTYPE svg PUBLIC "-//W3C//DTD SVG 1.1//EN" "http://www.w3.org/Graphics/SVG/1.1/DTD/svg11.dtd">
<svg xmlns="http://www.w3.org/2000/svg" version="1.1" viewBox="0.00 0.00 1448.00 1448.00">
<g stroke-width="2.00" fill="none" stroke-linecap="butt">
<path stroke="#fa9b28" vector-effect="non-scaling-stroke" d="
  M 599.00 628.68
  Q 599.72 631.25 596.34 632.20
  A 1.39 1.37 -4.3 0 0 595.35 633.34
  Q 595.01 636.00 595.48 638.44
  C 597.00 646.17 599.31 652.69 604.23 658.97
  Q 605.27 660.29 604.44 661.69
  Q 603.16 663.84 601.64 665.82
  C 599.22 668.95 590.44 666.99 587.02 666.80
  C 582.28 666.54 576.95 665.61 572.46 666.32
  C 562.17 667.93 554.09 674.45 546.59 681.35
  Q 542.53 685.09 541.87 688.82
  C 541.21 692.52 540.19 709.17 545.84 709.81
  Q 550.66 710.35 553.73 708.33
  C 562.86 702.32 571.82 696.71 581.65 693.68
  C 584.82 692.70 588.17 690.58 591.27 690.25
  Q 595.38 689.82 599.75 689.28
  Q 602.78 688.90 604.06 689.44
  C 611.86 692.71 619.86 692.23 627.57 689.08
  C 631.32 687.55 633.74 684.63 636.59 681.83
  Q 638.11 680.34 639.30 678.38
  Q 642.55 673.02 642.20 667.29
  C 642.10 665.75 642.19 663.04 641.15 661.85
  Q 636.96 657.07 632.22 653.24
  C 625.03 647.44 622.64 642.13 621.71 633.02
  Q 621.44 630.35 620.09 628.25
  Q 616.96 623.38 609.81 623.10"
/>
<path stroke="#fd7611" vector-effect="non-scaling-stroke" d="
  M 575.50 226.90
  Q 574.98 228.09 574.96 229.46
  A 1.08 1.08 0.0 0 1 573.65 230.51
  Q 569.97 229.72 569.93 233.35
  Q 569.87 237.98 571.65 242.73
  Q 571.80 243.13 572.22 243.20
  Q 576.63 243.98 579.77 242.01
  C 582.73 240.14 585.99 238.92 589.05 237.13
  Q 591.71 235.58 594.53 234.74
  Q 600.19 233.05 605.98 229.71
  A 0.88 0.87 -11.7 0 0 606.42 229.05
  Q 607.08 223.90 601.81 218.69"
/>
<path stroke="#fa9b28" vector-effect="non-scaling-stroke" d="
  M 601.81 218.69
  Q 600.45 217.04 595.54 217.91
  C 594.15 218.15 593.53 219.12 592.07 219.18
  Q 591.52 219.21 591.11 219.57
  Q 589.99 220.58 588.41 220.58
  Q 587.88 220.58 587.42 220.84
  C 584.93 222.23 580.21 221.88 577.24 221.89
  A 1.61 1.61 0.0 0 0 575.63 223.44
  L 575.50 226.90"
/>
<path stroke="#fcbe34" vector-effect="non-scaling-stroke" d="
  M 601.81 218.69
  Q 602.72 221.57 602.41 223.73
  Q 602.34 224.23 601.87 224.43
  C 598.21 225.96 594.80 227.03 595.28 231.87
  A 1.05 1.05 0.0 0 1 594.51 232.99
  C 592.38 233.57 590.70 234.77 588.42 234.78
  Q 583.70 234.79 579.39 234.68
  A 1.19 1.19 0.0 0 1 578.47 234.19
  L 576.54 231.55
  Q 576.23 231.14 576.15 230.64
  L 575.50 226.90"
/>
<path stroke="#fa9b28" vector-effect="non-scaling-stroke" d="
  M 658.55 235.37
  Q 659.84 239.02 667.33 237.03"
/>
<path stroke="#fd7611" vector-effect="non-scaling-stroke" d="
  M 667.33 237.03
  Q 672.81 239.48 677.68 244.10
  Q 678.03 244.43 678.51 244.51
  Q 682.97 245.22 685.22 244.30
  Q 688.68 242.87 688.73 238.10
  Q 688.83 229.09 685.19 223.40
  C 684.11 221.70 681.97 221.73 680.25 221.13
  Q 678.76 220.61 677.12 220.61
  Q 669.48 220.60 661.92 220.57
  C 659.46 220.56 654.00 221.63 653.43 224.49
  Q 651.85 232.41 658.55 235.37"
/>
<path stroke="#fcbe34" vector-effect="non-scaling-stroke" d="
  M 667.33 237.03
  Q 669.04 236.19 672.38 237.18
  Q 674.94 237.95 679.43 237.46
  Q 679.99 237.40 680.07 236.84
  Q 680.45 234.00 680.03 231.28
  Q 679.95 230.78 679.48 230.59
  Q 672.56 227.78 667.53 226.69
  Q 663.38 225.79 656.81 226.43
  A 1.03 1.03 0.0 0 0 655.88 227.36
  Q 655.67 229.66 656.16 231.84
  Q 656.28 232.35 656.59 232.76
  L 658.55 235.37"
/>
<path stroke="#fa9b28" vector-effect="non-scaling-stroke" d="
  M 888.61 453.62
  L 865.55 458.38
  Q 865.00 458.49 864.58 458.87
  Q 860.25 462.81 861.39 468.72
  A 0.58 0.57 85.4 0 0 861.92 469.18
  Q 868.76 469.50 876.86 470.42
  C 882.22 471.04 886.91 473.41 892.02 474.40
  Q 897.46 475.45 905.21 474.98
  C 906.74 474.88 907.68 473.76 907.74 472.25
  Q 908.08 464.41 907.45 456.74"
/>
<path stroke="#fd7611" vector-effect="non-scaling-stroke" d="
  M 907.45 456.74
  L 906.16 455.22
  Q 905.87 454.88 905.97 454.44
  Q 907.19 449.44 908.82 444.98
  C 910.51 440.36 911.08 435.66 910.70 430.69
  Q 909.80 419.09 901.01 412.24
  C 897.87 409.80 893.80 409.71 890.01 410.02
  Q 872.25 411.49 857.40 418.09
  C 852.50 420.26 847.31 421.72 842.34 423.76
  C 837.74 425.65 831.98 426.11 827.70 425.29
  Q 824.23 424.62 820.85 424.17
  Q 818.42 423.85 816.55 422.63
  C 811.95 419.65 806.66 416.14 801.66 414.88
  Q 796.10 413.48 790.17 412.37
  C 785.35 411.48 779.21 411.03 774.29 412.36
  Q 771.27 413.18 767.53 412.92
  Q 766.96 412.88 766.69 413.38
  Q 765.37 415.84 765.20 417.72
  Q 764.84 421.87 763.52 425.74
  Q 762.32 429.25 762.18 433.25
  Q 761.63 448.68 767.62 463.54
  C 769.85 469.08 773.56 471.40 778.10 474.42
  C 781.98 477.00 787.13 476.76 791.57 476.67
  Q 795.48 476.60 798.91 475.46
  Q 803.88 473.82 808.56 470.74
  Q 811.09 469.07 814.78 465.51
  C 817.39 463.00 820.24 459.55 823.42 457.80
  Q 824.88 457.00 826.18 456.03
  C 828.16 454.56 830.86 453.95 833.36 453.94
  Q 841.01 453.94 848.70 452.37
  Q 852.26 451.65 855.20 451.45
  C 861.33 451.06 866.29 448.88 871.64 446.20
  A 2.51 2.46 -51.9 0 1 873.24 445.99
  Q 882.13 447.76 888.61 453.62"
/>
<path stroke="#fcbe34" vector-effect="non-scaling-stroke" d="
  M 907.45 456.74
  Q 906.61 456.90 906.28 456.26
  C 905.40 454.56 904.30 453.94 902.30 453.96
  Q 894.80 454.04 888.61 453.62"
/>
<path stroke="#fa9b28" vector-effect="non-scaling-stroke" d="
  M 775.15 495.19
  C 775.92 502.79 776.19 511.42 780.72 517.90
  Q 781.52 519.05 783.02 519.18
  C 787.70 519.60 793.42 519.38 796.83 515.97
  Q 803.89 508.91 811.64 501.21
  C 815.27 497.60 814.88 491.85 814.43 487.04
  Q 814.37 486.39 813.72 486.43
  C 807.79 486.74 800.54 485.19 795.26 488.67
  Q 794.66 489.07 793.95 489.07
  Q 789.65 489.10 785.80 485.87
  C 783.96 484.32 785.01 481.60 781.87 481.01
  Q 779.76 480.61 777.25 480.78
  A 0.82 0.82 0.0 0 0 776.51 481.39
  Q 774.50 488.80 775.15 495.19"
/>
<path stroke="#fd7611" vector-effect="non-scaling-stroke" d="
  M 713.36 458.23
  C 709.35 456.15 705.81 454.27 701.10 455.52
  Q 700.58 455.65 700.46 456.17
  C 699.68 459.32 699.28 463.99 701.67 466.68
  Q 704.97 470.39 707.78 475.00
  A 3.27 3.23 80.3 0 0 709.83 476.47
  Q 712.33 477.04 714.70 476.51
  A 0.99 0.99 0.0 0 0 715.47 475.56
  Q 715.52 469.11 715.51 462.12
  C 715.50 460.52 714.82 458.98 713.36 458.23"
/>
<path stroke="#fa9b28" vector-effect="non-scaling-stroke" d="
  M 900.7700 467.3451
  A 1.39 0.68 -0.2 0 0 899.3776 466.6700
  A 1.39 0.68 -0.2 0 0 897.9900 467.3549
  A 1.39 0.68 -0.2 0 0 899.3824 468.0300
  A 1.39 0.68 -0.2 0 0 900.7700 467.3451"
/>
<path stroke="#fcbe34" vector-effect="non-scaling-stroke" d="
  M 803.51 493.87
  A 0.53 0.53 0.0 0 0 803.75 494.83
  Q 804.07 494.87 804.32 494.65
  A 0.49 0.49 0.0 0 0 804.34 493.91
  Q 803.96 493.56 803.51 493.87"
/>
<path stroke="#fd7611" vector-effect="non-scaling-stroke" d="
  M 695.26 820.56
  Q 696.36 820.10 696.93 819.37
  Q 699.99 815.44 703.24 811.99
  C 706.58 808.45 708.92 804.35 711.33 800.26
  Q 713.73 796.19 714.03 792.55
  C 714.46 787.32 714.70 781.02 712.69 776.22
  Q 711.16 772.55 709.09 769.65
  Q 707.01 766.75 705.04 763.68
  Q 701.84 758.69 697.94 753.29
  Q 693.92 747.73 691.97 741.10
  C 690.80 737.14 691.42 732.77 694.15 729.39
  Q 702.24 719.36 702.84 703.01
  Q 703.16 694.01 702.42 686.44
  C 702.09 683.05 700.53 680.00 699.95 676.64
  C 699.35 673.13 695.26 670.54 692.14 669.06
  C 689.80 667.95 688.63 666.50 686.69 665.03
  Q 686.28 664.72 685.76 664.68
  Q 678.27 664.19 676.02 664.87
  Q 673.43 665.66 671.30 665.94
  C 669.38 666.20 667.93 667.29 666.87 668.84
  C 665.97 670.16 665.46 671.50 663.98 672.34
  C 658.36 675.52 654.50 680.53 649.11 684.08
  Q 643.45 687.81 637.76 690.30
  C 632.36 692.67 627.46 695.70 622.35 698.66
  Q 614.18 703.39 607.69 709.98
  Q 603.33 714.42 601.05 718.61
  Q 597.86 724.47 597.05 728.90
  Q 594.29 743.98 605.37 754.62
  Q 608.03 757.17 612.11 758.79
  C 618.18 761.20 625.02 763.32 630.39 766.46
  C 637.73 770.76 643.31 776.64 649.60 783.36
  C 651.16 785.02 652.09 786.76 653.21 788.68
  Q 654.38 790.66 656.34 792.74
  Q 660.37 797.03 664.20 799.95
  Q 671.91 805.84 675.96 812.78
  C 677.94 816.17 681.31 818.41 683.08 821.75
  Q 683.73 822.97 684.74 823.94
  Q 685.06 824.25 685.51 824.31
  C 687.72 824.60 689.74 824.37 691.95 824.43
  C 693.79 824.48 694.18 822.78 694.55 821.38
  Q 694.70 820.79 695.26 820.56"
/>
<path stroke="#fa9b28" vector-effect="non-scaling-stroke" d="
  M 823.59 675.72
  Q 822.07 679.53 819.59 682.62
  C 815.76 687.38 816.96 697.56 818.62 702.70
  Q 818.86 703.45 819.51 703.72
  C 821.51 704.58 824.83 704.45 827.06 704.31
  C 839.16 703.51 832.69 680.81 831.15 674.38
  Q 830.88 673.29 829.79 673.04
  Q 825.08 672.00 823.59 675.72"
/>
<path stroke="#fa9b28" vector-effect="non-scaling-stroke" d="
  M 711.22 962.32
  Q 705.15 966.50 699.10 971.11
  Q 695.77 973.65 693.03 973.79
  Q 682.94 974.27 677.65 975.43
  Q 670.76 976.95 663.06 979.28
  C 655.49 981.57 648.58 984.39 642.68 988.66
  Q 633.72 995.15 622.10 1007.67
  C 620.06 1009.87 620.60 1012.94 620.86 1015.67
  A 0.85 0.84 90.0 0 0 621.61 1016.43
  Q 632.03 1017.48 640.81 1022.82
  Q 642.09 1023.59 642.95 1024.97
  C 645.89 1029.64 636.83 1034.98 633.73 1036.90
  C 629.99 1039.22 624.81 1035.62 623.00 1032.53
  Q 620.87 1028.89 619.04 1024.48
  C 617.98 1021.90 617.83 1019.20 617.31 1016.49
  C 616.33 1011.44 616.46 1006.20 614.54 1001.54
  Q 612.89 997.53 607.90 993.06
  C 603.29 988.92 596.70 988.72 591.57 991.63
  Q 580.90 997.70 568.95 1006.43
  Q 566.96 1007.88 565.01 1010.88
  Q 561.26 1016.65 563.84 1021.98
  Q 565.32 1025.01 568.76 1025.75
  C 575.71 1027.22 585.19 1028.37 589.93 1034.48
  Q 594.45 1040.28 596.54 1046.96
  C 598.81 1054.20 607.59 1059.14 614.16 1061.61
  Q 621.09 1064.20 621.19 1064.25
  Q 629.44 1068.00 636.88 1072.83
  C 640.83 1075.40 643.98 1076.65 648.67 1076.33
  Q 652.76 1076.05 656.51 1073.68
  Q 665.92 1067.75 673.16 1059.59
  Q 675.60 1056.84 676.93 1053.35
  C 679.31 1047.13 681.36 1041.20 684.69 1035.51
  C 686.66 1032.15 689.41 1029.33 691.72 1026.24
  C 693.09 1024.39 694.95 1023.21 696.99 1022.27
  A 0.92 0.91 -17.5 0 1 698.27 1022.93
  C 698.52 1024.35 698.60 1025.61 699.14 1026.95
  C 700.39 1030.04 702.09 1032.27 702.46 1035.82
  Q 703.59 1046.59 704.50 1058.16
  C 704.79 1061.91 706.09 1063.79 709.73 1065.33
  Q 712.26 1066.40 714.61 1067.58
  Q 726.26 1073.39 737.32 1067.92
  C 742.14 1065.53 747.25 1064.91 751.89 1062.51
  C 754.10 1061.37 755.19 1063.22 756.97 1063.99
  C 759.76 1065.19 763.16 1066.75 764.53 1069.57
  C 766.15 1072.92 766.59 1076.49 769.26 1079.32
  C 772.61 1082.88 776.05 1087.20 780.43 1089.19
  Q 782.82 1090.28 786.56 1090.35
  Q 796.10 1090.52 803.82 1090.23
  C 808.80 1090.04 814.03 1084.71 817.12 1081.27
  Q 820.61 1077.39 824.99 1071.96
  C 826.88 1069.62 827.90 1066.98 829.22 1064.31
  Q 830.68 1061.33 831.45 1058.11
  C 833.72 1048.72 836.08 1041.42 842.74 1033.92
  C 844.21 1032.25 846.44 1032.18 848.49 1031.95
  Q 865.75 1029.98 882.18 1026.17
  C 886.98 1025.06 891.87 1024.13 895.23 1021.30
  Q 901.56 1015.98 910.71 1005.56
  C 911.65 1004.48 911.82 1003.49 911.97 1002.11
  Q 912.68 995.81 911.84 988.12
  C 911.64 986.30 911.25 984.59 909.32 983.85
  Q 908.18 983.41 907.75 982.26
  Q 907.52 981.64 906.86 981.53
  Q 898.04 980.15 889.78 985.15
  C 887.21 986.70 885.87 989.55 883.43 991.43
  Q 879.86 994.19 875.70 996.14
  Q 872.48 997.65 874.33 994.61
  C 876.17 991.59 878.05 988.26 878.19 984.56
  C 878.30 981.64 877.23 976.05 873.54 975.82
  C 868.13 975.49 859.54 974.35 855.67 979.34
  Q 850.23 986.34 844.54 993.45
  C 842.65 995.82 840.94 999.10 839.78 1001.91
  Q 836.61 1009.53 833.57 1014.48
  Q 831.49 1017.87 826.36 1023.14
  Q 825.94 1023.57 825.35 1023.66
  Q 819.72 1024.49 814.38 1022.18
  Q 811.38 1020.88 809.69 1017.38
  C 808.06 1013.99 806.17 1010.77 806.09 1006.87
  Q 805.95 1000.77 803.70 994.93
  Q 802.29 991.25 801.42 986.32
  Q 799.83 977.24 798.25 970.81
  C 796.70 964.51 791.46 962.24 785.30 963.05
  Q 783.39 963.30 781.22 964.20
  Q 776.98 965.97 772.00 965.94"
/>
<path stroke="#fd7611" vector-effect="non-scaling-stroke" d="
  M 772.00 965.94
  Q 771.35 966.16 770.77 965.35
  Q 770.17 964.53 769.99 964.34
  Q 766.70 961.03 763.21 957.70
  Q 762.07 956.61 757.84 953.32
  C 752.89 949.47 748.60 943.94 744.44 939.25
  C 735.83 929.53 731.43 917.36 729.52 904.06
  Q 728.99 900.41 727.57 896.28
  C 726.63 893.57 724.63 892.36 722.19 891.14
  C 718.58 889.35 715.14 888.53 711.54 890.59
  C 708.76 892.17 706.33 894.25 705.52 897.53
  Q 703.61 905.23 703.03 911.18
  Q 702.80 913.56 703.11 915.86
  Q 704.65 927.15 706.22 939.51
  Q 707.13 946.62 709.23 952.81
  C 709.91 954.81 709.98 956.66 710.09 958.71
  Q 710.12 959.24 710.41 959.68
  Q 711.52 961.39 711.22 962.32"
/>
<path stroke="#fcbe34" vector-effect="non-scaling-stroke" d="
  M 772.00 965.94
  Q 769.13 970.96 769.17 976.95
  C 769.19 979.80 769.24 982.59 771.18 984.92
  Q 774.99 989.49 778.56 994.49
  C 780.31 996.93 781.02 999.60 781.90 1002.40
  Q 782.45 1004.16 784.27 1004.40
  Q 784.60 1004.45 784.68 1004.78
  Q 784.79 1005.25 784.31 1005.26
  Q 782.43 1005.33 780.81 1006.06
  C 779.03 1006.87 777.28 1006.20 775.47 1005.80
  Q 768.71 1004.29 762.24 1008.14
  Q 757.74 1010.82 753.35 1013.29
  C 748.76 1015.87 745.49 1019.41 742.10 1023.34
  C 739.54 1026.30 734.16 1025.75 731.86 1023.23
  C 729.02 1020.12 728.16 1015.15 728.12 1010.93
  Q 728.06 1004.41 727.39 997.36
  Q 726.62 989.39 726.69 981.32
  Q 726.71 978.41 725.35 975.83
  Q 722.92 971.22 719.66 966.40
  C 718.03 963.99 716.46 962.88 713.58 962.94
  Q 712.33 962.97 711.22 962.32"
/>
<path stroke="#fcbe34" vector-effect="non-scaling-stroke" d="
  M 835.21 1029.78
  L 837.02 1025.59
  A 0.11 0.11 0.0 0 0 836.97 1025.45
  L 836.94 1025.43
  A 2.23 1.64 -66.6 0 0 834.55 1026.83
  L 834.42 1027.12
  A 2.23 1.64 -66.6 0 0 835.04 1029.82
  L 835.07 1029.83
  A 0.11 0.11 0.0 0 0 835.21 1029.78"
/>
</g>
<path fill="#fb5204" d="
  M 706.21 144.41
  L 700.77 144.20
  Q 700.23 144.17 700.15 143.64
  Q 698.91 135.44 698.48 128.26
  Q 697.71 115.40 700.77 104.78
  C 701.62 101.85 703.14 97.87 705.37 95.82
  C 707.13 94.19 711.28 94.54 713.51 94.85
  Q 714.05 94.93 714.13 95.47
  Q 714.43 97.38 713.99 99.31
  Q 711.79 109.04 710.61 117.55
  C 709.98 122.09 710.13 126.84 711.24 131.35
  Q 712.36 135.90 713.55 140.28
  C 714.10 142.28 714.13 144.33 714.11 146.41
  A 0.71 0.71 0.0 0 1 713.40 147.12
  Q 711.02 147.13 708.35 146.78
  Q 706.78 146.58 706.79 145.03
  Q 706.80 144.44 706.21 144.41
  Z"
/>
<path fill="#fb5204" d="
  M 684.10 217.21
  Q 684.11 216.97 684.29 216.79
  Q 686.64 214.43 689.60 213.71
  C 694.44 212.53 698.69 209.16 702.10 205.71
  Q 702.43 205.38 702.89 205.31
  Q 707.13 204.66 711.99 205.04
  A 0.90 0.89 -88.6 0 1 712.81 205.91
  C 712.93 212.65 712.06 219.27 709.84 225.70
  C 707.29 233.10 705.81 240.64 706.47 248.40
  C 707.11 255.95 708.25 263.81 712.11 270.01
  Q 715.99 276.26 720.72 282.23
  Q 721.13 282.75 721.14 283.41
  L 721.17 289.25
  Q 721.18 289.91 720.52 289.90
  Q 717.49 289.85 714.54 289.88
  C 712.46 289.90 712.06 287.98 710.93 286.69
  Q 706.04 281.17 701.43 275.60
  C 699.53 273.30 698.07 270.70 696.51 268.17
  C 691.66 260.30 685.67 255.84 677.36 250.66
  Q 670.18 246.19 663.07 242.83
  Q 656.34 239.64 649.70 238.18
  Q 642.23 236.52 636.00 236.15
  C 628.60 235.71 619.53 238.67 612.90 242.63
  Q 607.99 245.57 603.07 248.18
  C 597.46 251.17 591.59 253.64 586.11 256.73
  C 584.79 257.47 583.38 257.46 581.93 257.37
  A 0.67 0.67 0.0 0 0 581.21 258.03
  L 581.16 262.30
  Q 581.15 263.00 580.45 263.00
  L 575.33 263.00
  Q 574.82 263.00 574.48 262.63
  Q 566.74 254.34 559.21 250.50
  Q 553.84 247.76 545.68 246.01
  C 543.51 245.55 542.10 244.40 540.51 242.99
  C 538.67 241.37 534.06 241.55 531.50 241.87
  Q 530.27 242.02 530.27 240.78
  L 530.27 235.72
  Q 530.27 234.60 531.38 234.72
  C 537.09 235.33 541.76 233.66 547.12 232.18
  Q 550.74 231.18 553.76 229.40
  Q 562.38 224.31 568.06 222.58
  Q 575.48 220.31 586.89 218.92
  Q 590.08 218.54 592.85 217.39
  C 595.28 216.38 597.40 215.24 600.08 214.89
  Q 613.08 213.17 626.63 210.85
  C 630.79 210.14 635.10 209.89 639.24 209.41
  Q 646.92 208.54 659.34 209.69
  C 666.63 210.36 673.06 214.03 680.25 215.34
  Q 682.34 215.72 683.69 217.35
  Q 684.08 217.82 684.10 217.21
  Z
  M 575.50 226.90
  Q 574.98 228.09 574.96 229.46
  A 1.08 1.08 0.0 0 1 573.65 230.51
  Q 569.97 229.72 569.93 233.35
  Q 569.87 237.98 571.65 242.73
  Q 571.80 243.13 572.22 243.20
  Q 576.63 243.98 579.77 242.01
  C 582.73 240.14 585.99 238.92 589.05 237.13
  Q 591.71 235.58 594.53 234.74
  Q 600.19 233.05 605.98 229.71
  A 0.88 0.87 -11.7 0 0 606.42 229.05
  Q 607.08 223.90 601.81 218.69
  Q 600.45 217.04 595.54 217.91
  C 594.15 218.15 593.53 219.12 592.07 219.18
  Q 591.52 219.21 591.11 219.57
  Q 589.99 220.58 588.41 220.58
  Q 587.88 220.58 587.42 220.84
  C 584.93 222.23 580.21 221.88 577.24 221.89
  A 1.61 1.61 0.0 0 0 575.63 223.44
  L 575.50 226.90
  Z
  M 658.55 235.37
  Q 659.84 239.02 667.33 237.03
  Q 672.81 239.48 677.68 244.10
  Q 678.03 244.43 678.51 244.51
  Q 682.97 245.22 685.22 244.30
  Q 688.68 242.87 688.73 238.10
  Q 688.83 229.09 685.19 223.40
  C 684.11 221.70 681.97 221.73 680.25 221.13
  Q 678.76 220.61 677.12 220.61
  Q 669.48 220.60 661.92 220.57
  C 659.46 220.56 654.00 221.63 653.43 224.49
  Q 651.85 232.41 658.55 235.37
  Z"
/>
<path fill="#f8e34b" d="
  M 601.81 218.69
  Q 602.72 221.57 602.41 223.73
  Q 602.34 224.23 601.87 224.43
  C 598.21 225.96 594.80 227.03 595.28 231.87
  A 1.05 1.05 0.0 0 1 594.51 232.99
  C 592.38 233.57 590.70 234.77 588.42 234.78
  Q 583.70 234.79 579.39 234.68
  A 1.19 1.19 0.0 0 1 578.47 234.19
  L 576.54 231.55
  Q 576.23 231.14 576.15 230.64
  L 575.50 226.90
  L 575.63 223.44
  A 1.61 1.61 0.0 0 1 577.24 221.89
  C 580.21 221.88 584.93 222.23 587.42 220.84
  Q 587.88 220.58 588.41 220.58
  Q 589.99 220.58 591.11 219.57
  Q 591.52 219.21 592.07 219.18
  C 593.53 219.12 594.15 218.15 595.54 217.91
  Q 600.45 217.04 601.81 218.69
  Z"
/>
<path fill="#ff991d" d="
  M 601.81 218.69
  Q 607.08 223.90 606.42 229.05
  A 0.88 0.87 -11.7 0 1 605.98 229.71
  Q 600.19 233.05 594.53 234.74
  Q 591.71 235.58 589.05 237.13
  C 585.99 238.92 582.73 240.14 579.77 242.01
  Q 576.63 243.98 572.22 243.20
  Q 571.80 243.13 571.65 242.73
  Q 569.87 237.98 569.93 233.35
  Q 569.97 229.72 573.65 230.51
  A 1.08 1.08 0.0 0 0 574.96 229.46
  Q 574.98 228.09 575.50 226.90
  L 576.15 230.64
  Q 576.23 231.14 576.54 231.55
  L 578.47 234.19
  A 1.19 1.19 0.0 0 0 579.39 234.68
  Q 583.70 234.79 588.42 234.78
  C 590.70 234.77 592.38 233.57 594.51 232.99
  A 1.05 1.05 0.0 0 0 595.28 231.87
  C 594.80 227.03 598.21 225.96 601.87 224.43
  Q 602.34 224.23 602.41 223.73
  Q 602.72 221.57 601.81 218.69
  Z"
/>
<path fill="#ff991d" d="
  M 667.33 237.03
  Q 669.04 236.19 672.38 237.18
  Q 674.94 237.95 679.43 237.46
  Q 679.99 237.40 680.07 236.84
  Q 680.45 234.00 680.03 231.28
  Q 679.95 230.78 679.48 230.59
  Q 672.56 227.78 667.53 226.69
  Q 663.38 225.79 656.81 226.43
  A 1.03 1.03 0.0 0 0 655.88 227.36
  Q 655.67 229.66 656.16 231.84
  Q 656.28 232.35 656.59 232.76
  L 658.55 235.37
  Q 651.85 232.41 653.43 224.49
  C 654.00 221.63 659.46 220.56 661.92 220.57
  Q 669.48 220.60 677.12 220.61
  Q 678.76 220.61 680.25 221.13
  C 681.97 221.73 684.11 221.70 685.19 223.40
  Q 688.83 229.09 688.73 238.10
  Q 688.68 242.87 685.22 244.30
  Q 682.97 245.22 678.51 244.51
  Q 678.03 244.43 677.68 244.10
  Q 672.81 239.48 667.33 237.03
  Z"
/>
<path fill="#f8e34b" d="
  M 667.33 237.03
  Q 659.84 239.02 658.55 235.37
  L 656.59 232.76
  Q 656.28 232.35 656.16 231.84
  Q 655.67 229.66 655.88 227.36
  A 1.03 1.03 0.0 0 1 656.81 226.43
  Q 663.38 225.79 667.53 226.69
  Q 672.56 227.78 679.48 230.59
  Q 679.95 230.78 680.03 231.28
  Q 680.45 234.00 680.07 236.84
  Q 679.99 237.40 679.43 237.46
  Q 674.94 237.95 672.38 237.18
  Q 669.04 236.19 667.33 237.03
  Z"
/>
<path fill="#fb5204" d="
  M 777.53 599.09
  Q 777.54 599.25 777.47 599.38
  Q 777.38 599.55 777.19 599.55
  L 771.25 599.51
  Q 770.71 599.51 770.72 598.97
  Q 770.72 598.14 769.87 598.11
  Q 769.21 598.09 769.22 597.43
  C 769.31 592.21 769.05 587.04 769.55 581.85
  C 770.00 577.13 769.59 572.40 770.28 567.84
  Q 771.60 559.03 771.50 553.11
  Q 771.30 542.03 767.53 523.57
  C 766.62 519.12 764.91 514.69 763.31 510.49
  Q 756.15 491.71 750.68 474.78
  Q 749.48 471.05 744.75 458.53
  C 743.38 454.90 742.13 450.83 741.49 447.03
  Q 740.79 442.93 739.72 439.20
  Q 738.52 435.03 738.40 431.50
  Q 738.01 419.51 739.10 412.78
  C 740.11 406.59 741.05 399.81 743.47 394.09
  C 747.70 384.11 749.60 374.57 745.88 363.97
  C 744.22 359.21 741.21 354.91 740.85 349.84
  C 740.61 346.48 741.33 340.19 745.39 339.39
  C 750.60 338.36 755.15 339.46 758.01 343.83
  C 770.34 362.69 786.95 377.56 805.15 390.44
  Q 806.65 391.51 808.44 392.21
  C 817.74 395.89 827.52 398.22 837.80 398.22
  Q 850.98 398.23 864.50 395.70
  C 871.78 394.34 879.36 392.84 886.79 390.63
  Q 895.92 387.92 907.52 388.90
  Q 910.50 389.15 913.15 389.94
  C 918.93 391.65 923.91 398.07 926.34 403.25
  Q 930.13 411.34 933.63 421.07
  Q 936.52 429.09 937.20 437.63
  C 938.01 447.68 937.38 457.18 936.17 466.94
  C 935.36 473.42 933.46 479.97 932.04 486.50
  Q 930.74 492.49 927.87 498.38
  C 923.36 507.68 912.19 509.47 903.16 506.74
  Q 896.86 504.84 896.76 504.81
  C 891.27 503.53 885.62 502.19 880.61 499.37
  C 876.38 496.98 871.69 495.23 866.72 494.93
  Q 856.23 494.30 845.82 493.98
  C 839.09 493.77 831.93 497.98 826.01 502.25
  C 818.06 507.99 811.87 513.42 806.76 521.63
  Q 799.25 533.69 791.37 545.60
  Q 782.81 558.52 778.50 575.00
  Q 778.00 576.93 778.15 581.68
  Q 778.21 583.61 778.85 588.53
  Q 779.37 592.49 779.07 597.43
  Q 779.03 597.97 778.53 598.14
  L 778.00 598.32
  Q 777.45 598.51 777.53 599.09
  Z
  M 888.61 453.62
  L 865.55 458.38
  Q 865.00 458.49 864.58 458.87
  Q 860.25 462.81 861.39 468.72
  A 0.58 0.57 85.4 0 0 861.92 469.18
  Q 868.76 469.50 876.86 470.42
  C 882.22 471.04 886.91 473.41 892.02 474.40
  Q 897.46 475.45 905.21 474.98
  C 906.74 474.88 907.68 473.76 907.74 472.25
  Q 908.08 464.41 907.45 456.74
  L 906.16 455.22
  Q 905.87 454.88 905.97 454.44
  Q 907.19 449.44 908.82 444.98
  C 910.51 440.36 911.08 435.66 910.70 430.69
  Q 909.80 419.09 901.01 412.24
  C 897.87 409.80 893.80 409.71 890.01 410.02
  Q 872.25 411.49 857.40 418.09
  C 852.50 420.26 847.31 421.72 842.34 423.76
  C 837.74 425.65 831.98 426.11 827.70 425.29
  Q 824.23 424.62 820.85 424.17
  Q 818.42 423.85 816.55 422.63
  C 811.95 419.65 806.66 416.14 801.66 414.88
  Q 796.10 413.48 790.17 412.37
  C 785.35 411.48 779.21 411.03 774.29 412.36
  Q 771.27 413.18 767.53 412.92
  Q 766.96 412.88 766.69 413.38
  Q 765.37 415.84 765.20 417.72
  Q 764.84 421.87 763.52 425.74
  Q 762.32 429.25 762.18 433.25
  Q 761.63 448.68 767.62 463.54
  C 769.85 469.08 773.56 471.40 778.10 474.42
  C 781.98 477.00 787.13 476.76 791.57 476.67
  Q 795.48 476.60 798.91 475.46
  Q 803.88 473.82 808.56 470.74
  Q 811.09 469.07 814.78 465.51
  C 817.39 463.00 820.24 459.55 823.42 457.80
  Q 824.88 457.00 826.18 456.03
  C 828.16 454.56 830.86 453.95 833.36 453.94
  Q 841.01 453.94 848.70 452.37
  Q 852.26 451.65 855.20 451.45
  C 861.33 451.06 866.29 448.88 871.64 446.20
  A 2.51 2.46 -51.9 0 1 873.24 445.99
  Q 882.13 447.76 888.61 453.62
  Z
  M 775.15 495.19
  C 775.92 502.79 776.19 511.42 780.72 517.90
  Q 781.52 519.05 783.02 519.18
  C 787.70 519.60 793.42 519.38 796.83 515.97
  Q 803.89 508.91 811.64 501.21
  C 815.27 497.60 814.88 491.85 814.43 487.04
  Q 814.37 486.39 813.72 486.43
  C 807.79 486.74 800.54 485.19 795.26 488.67
  Q 794.66 489.07 793.95 489.07
  Q 789.65 489.10 785.80 485.87
  C 783.96 484.32 785.01 481.60 781.87 481.01
  Q 779.76 480.61 777.25 480.78
  A 0.82 0.82 0.0 0 0 776.51 481.39
  Q 774.50 488.80 775.15 495.19
  Z"
/>
<path fill="#ff991d" d="
  M 907.45 456.74
  Q 906.61 456.90 906.28 456.26
  C 905.40 454.56 904.30 453.94 902.30 453.96
  Q 894.80 454.04 888.61 453.62
  Q 882.13 447.76 873.24 445.99
  A 2.51 2.46 -51.9 0 0 871.64 446.20
  C 866.29 448.88 861.33 451.06 855.20 451.45
  Q 852.26 451.65 848.70 452.37
  Q 841.01 453.94 833.36 453.94
  C 830.86 453.95 828.16 454.56 826.18 456.03
  Q 824.88 457.00 823.42 457.80
  C 820.24 459.55 817.39 463.00 814.78 465.51
  Q 811.09 469.07 808.56 470.74
  Q 803.88 473.82 798.91 475.46
  Q 795.48 476.60 791.57 476.67
  C 787.13 476.76 781.98 477.00 778.10 474.42
  C 773.56 471.40 769.85 469.08 767.62 463.54
  Q 761.63 448.68 762.18 433.25
  Q 762.32 429.25 763.52 425.74
  Q 764.84 421.87 765.20 417.72
  Q 765.37 415.84 766.69 413.38
  Q 766.96 412.88 767.53 412.92
  Q 771.27 413.18 774.29 412.36
  C 779.21 411.03 785.35 411.48 790.17 412.37
  Q 796.10 413.48 801.66 414.88
  C 806.66 416.14 811.95 419.65 816.55 422.63
  Q 818.42 423.85 820.85 424.17
  Q 824.23 424.62 827.70 425.29
  C 831.98 426.11 837.74 425.65 842.34 423.76
  C 847.31 421.72 852.50 420.26 857.40 418.09
  Q 872.25 411.49 890.01 410.02
  C 893.80 409.71 897.87 409.80 901.01 412.24
  Q 909.80 419.09 910.70 430.69
  C 911.08 435.66 910.51 440.36 908.82 444.98
  Q 907.19 449.44 905.97 454.44
  Q 905.87 454.88 906.16 455.22
  L 907.45 456.74
  Z"
/>
<path fill="#fb5204" d="
  M 649.64 469.73
  L 645.42 469.35
  Q 644.80 469.30 644.80 468.68
  L 644.82 463.47
  Q 644.82 462.97 645.20 462.64
  Q 647.20 460.92 648.64 458.87
  C 652.84 452.92 660.49 445.45 667.50 444.00
  C 679.56 441.50 693.04 441.54 704.28 447.06
  C 709.37 449.55 713.52 454.15 717.11 458.32
  C 719.85 461.49 721.67 466.20 723.02 470.24
  Q 724.68 475.25 724.03 481.33
  C 723.72 484.22 721.38 485.53 719.54 487.38
  Q 719.12 487.80 718.52 487.80
  L 705.55 487.78
  A 1.75 1.74 68.4 0 1 704.27 487.22
  Q 700.52 483.13 695.73 480.57
  C 691.17 478.12 687.43 474.54 683.16 471.59
  Q 673.26 464.75 659.87 465.17
  A 0.90 0.89 -1.9 0 0 659.00 466.09
  Q 659.12 469.51 657.27 473.18
  Q 657.00 473.71 656.41 473.67
  L 651.32 473.28
  Q 650.66 473.23 650.57 472.57
  L 650.29 470.36
  A 0.73 0.72 88.4 0 0 649.64 469.73
  Z
  M 713.36 458.23
  C 709.35 456.15 705.81 454.27 701.10 455.52
  Q 700.58 455.65 700.46 456.17
  C 699.68 459.32 699.28 463.99 701.67 466.68
  Q 704.97 470.39 707.78 475.00
  A 3.27 3.23 80.3 0 0 709.83 476.47
  Q 712.33 477.04 714.70 476.51
  A 0.99 0.99 0.0 0 0 715.47 475.56
  Q 715.52 469.11 715.51 462.12
  C 715.50 460.52 714.82 458.98 713.36 458.23
  Z"
/>
<path fill="#f8e34b" d="
  M 888.61 453.62
  Q 894.80 454.04 902.30 453.96
  C 904.30 453.94 905.40 454.56 906.28 456.26
  Q 906.61 456.90 907.45 456.74
  Q 908.08 464.41 907.74 472.25
  C 907.68 473.76 906.74 474.88 905.21 474.98
  Q 897.46 475.45 892.02 474.40
  C 886.91 473.41 882.22 471.04 876.86 470.42
  Q 868.76 469.50 861.92 469.18
  A 0.58 0.57 85.4 0 1 861.39 468.72
  Q 860.25 462.81 864.58 458.87
  Q 865.00 458.49 865.55 458.38
  L 888.61 453.62
  Z
  M 900.7700 467.3451
  A 1.39 0.68 -0.2 0 0 899.3776 466.6700
  A 1.39 0.68 -0.2 0 0 897.9900 467.3549
  A 1.39 0.68 -0.2 0 0 899.3824 468.0300
  A 1.39 0.68 -0.2 0 0 900.7700 467.3451
  Z"
/>
<path fill="#ff991d" d="
  M 713.36 458.23
  C 714.82 458.98 715.50 460.52 715.51 462.12
  Q 715.52 469.11 715.47 475.56
  A 0.99 0.99 0.0 0 1 714.70 476.51
  Q 712.33 477.04 709.83 476.47
  A 3.27 3.23 80.3 0 1 707.78 475.00
  Q 704.97 470.39 701.67 466.68
  C 699.28 463.99 699.68 459.32 700.46 456.17
  Q 700.58 455.65 701.10 455.52
  C 705.81 454.27 709.35 456.15 713.36 458.23
  Z"
/>
<path fill="#fb5204" d="
  M 555.84 480.87
  Q 555.68 481.80 555.20 482.59
  Q 554.89 483.11 554.28 483.19
  Q 551.42 483.57 549.23 483.05
  A 2.31 2.30 -3.1 0 1 547.59 481.58
  Q 545.81 476.60 549.83 473.28
  Q 553.01 470.66 556.41 469.97
  Q 564.35 468.36 571.73 467.01
  C 574.04 466.59 578.44 466.04 580.51 467.72
  Q 580.91 468.05 580.98 468.57
  Q 581.89 475.25 580.48 480.99
  Q 579.86 483.53 577.38 483.64
  Q 571.95 483.86 567.35 481.21
  Q 562.51 478.43 556.78 479.86
  A 1.26 1.24 -2.6 0 0 555.84 480.87
  Z"
/>
<ellipse fill="#fb5204" cx="0.00" cy="0.00" transform="translate(899.38,467.35) rotate(-0.2)" rx="1.39" ry="0.68"/>
<path fill="#f8e34b" d="
  M 775.15 495.19
  Q 774.50 488.80 776.51 481.39
  A 0.82 0.82 0.0 0 1 777.25 480.78
  Q 779.76 480.61 781.87 481.01
  C 785.01 481.60 783.96 484.32 785.80 485.87
  Q 789.65 489.10 793.95 489.07
  Q 794.66 489.07 795.26 488.67
  C 800.54 485.19 807.79 486.74 813.72 486.43
  Q 814.37 486.39 814.43 487.04
  C 814.88 491.85 815.27 497.60 811.64 501.21
  Q 803.89 508.91 796.83 515.97
  C 793.42 519.38 787.70 519.60 783.02 519.18
  Q 781.52 519.05 780.72 517.90
  C 776.19 511.42 775.92 502.79 775.15 495.19
  Z
  M 803.51 493.87
  A 0.53 0.53 0.0 0 0 803.75 494.83
  Q 804.07 494.87 804.32 494.65
  A 0.49 0.49 0.0 0 0 804.34 493.91
  Q 803.96 493.56 803.51 493.87
  Z"
/>
<path fill="#ff991d" d="
  M 803.51 493.87
  Q 803.96 493.56 804.34 493.91
  A 0.49 0.49 0.0 0 1 804.32 494.65
  Q 804.07 494.87 803.75 494.83
  A 0.53 0.53 0.0 0 1 803.51 493.87
  Z"
/>
<path fill="#fb5204" d="
  M 599.00 628.68
  Q 599.72 631.25 596.34 632.20
  A 1.39 1.37 -4.3 0 0 595.35 633.34
  Q 595.01 636.00 595.48 638.44
  C 597.00 646.17 599.31 652.69 604.23 658.97
  Q 605.27 660.29 604.44 661.69
  Q 603.16 663.84 601.64 665.82
  C 599.22 668.95 590.44 666.99 587.02 666.80
  C 582.28 666.54 576.95 665.61 572.46 666.32
  C 562.17 667.93 554.09 674.45 546.59 681.35
  Q 542.53 685.09 541.87 688.82
  C 541.21 692.52 540.19 709.17 545.84 709.81
  Q 550.66 710.35 553.73 708.33
  C 562.86 702.32 571.82 696.71 581.65 693.68
  C 584.82 692.70 588.17 690.58 591.27 690.25
  Q 595.38 689.82 599.75 689.28
  Q 602.78 688.90 604.06 689.44
  C 611.86 692.71 619.86 692.23 627.57 689.08
  C 631.32 687.55 633.74 684.63 636.59 681.83
  Q 638.11 680.34 639.30 678.38
  Q 642.55 673.02 642.20 667.29
  C 642.10 665.75 642.19 663.04 641.15 661.85
  Q 636.96 657.07 632.22 653.24
  C 625.03 647.44 622.64 642.13 621.71 633.02
  Q 621.44 630.35 620.09 628.25
  Q 616.96 623.38 609.81 623.10
  Q 614.27 621.67 619.45 618.95
  C 628.18 614.35 637.17 613.35 647.62 614.88
  Q 655.36 616.01 663.69 616.54
  C 670.21 616.96 677.24 616.09 683.08 612.13
  Q 690.53 607.07 694.80 603.25
  Q 701.26 597.46 706.60 593.89
  Q 709.47 591.98 713.27 592.12
  Q 714.73 592.17 715.00 593.61
  Q 715.76 597.61 716.20 601.27
  Q 716.75 605.76 717.90 609.13
  Q 720.33 616.22 725.34 622.49
  Q 726.00 623.30 726.94 623.74
  Q 732.27 626.18 738.50 627.72
  C 741.89 628.56 745.10 624.95 748.29 624.14
  Q 752.70 623.03 756.09 623.70
  C 761.04 624.67 765.33 633.53 766.47 637.85
  C 768.88 646.96 769.15 654.76 767.92 664.86
  C 766.31 678.03 765.69 688.92 767.52 701.47
  Q 768.57 708.70 771.13 715.04
  Q 774.01 722.18 780.23 723.07
  Q 782.86 723.45 785.00 722.56
  Q 788.33 721.17 791.83 721.20
  C 794.05 721.22 796.48 719.90 797.97 718.21
  Q 805.61 709.55 808.89 700.50
  C 812.73 689.91 815.08 678.08 815.55 666.54
  Q 815.87 658.68 816.43 651.76
  Q 816.85 646.52 817.66 640.36
  Q 818.41 634.69 818.70 628.99
  Q 819.09 621.34 824.10 616.56
  Q 827.08 613.72 833.23 611.51
  Q 838.72 609.55 843.50 612.59
  Q 843.94 612.87 844.07 613.37
  Q 844.63 615.46 844.09 617.72
  A 1.40 1.37 79.3 0 1 843.55 618.53
  C 841.05 620.40 837.47 622.96 837.12 626.30
  C 836.69 630.40 836.93 634.47 839.16 638.13
  Q 846.18 649.61 852.29 663.11
  Q 854.06 667.02 854.68 671.43
  Q 856.94 687.71 854.61 700.22
  C 853.08 708.38 845.30 717.03 839.39 722.33
  C 835.52 725.79 831.98 729.49 828.28 733.11
  Q 825.89 735.45 823.76 737.89
  Q 800.33 764.72 786.15 778.44
  Q 773.45 790.73 767.74 804.33
  Q 762.99 815.64 760.28 827.80
  Q 758.45 835.96 757.93 847.20
  C 757.25 861.75 756.72 876.17 757.85 890.33
  C 758.44 897.73 760.54 904.12 763.64 910.59
  Q 765.36 914.20 768.62 917.43
  Q 772.13 920.92 775.48 924.11
  Q 781.68 930.01 790.03 934.68
  Q 796.70 938.42 803.38 943.27
  Q 804.98 944.43 809.61 945.36
  A 1.56 1.54 -12.1 0 1 810.54 945.95
  Q 812.91 949.08 814.96 952.34
  Q 816.50 954.79 819.43 955.56
  C 821.53 956.11 823.17 955.10 825.20 954.97
  Q 831.34 954.58 837.40 955.34
  C 843.65 956.13 852.41 951.60 857.53 948.28
  Q 861.06 946.00 863.29 942.96
  Q 870.30 933.46 875.82 924.21
  Q 877.55 921.31 878.00 918.19
  C 878.61 914.00 878.61 909.90 880.56 906.05
  A 1.59 1.55 -87.4 0 1 881.33 905.33
  C 884.90 903.79 890.88 905.64 893.91 907.27
  Q 896.43 908.62 897.95 910.88
  Q 902.43 917.56 907.34 923.25
  Q 919.90 937.82 930.24 950.15
  C 935.84 956.82 940.71 966.13 941.40 975.09
  Q 941.71 979.04 941.92 982.99
  Q 942.45 992.83 938.33 1002.58
  Q 934.16 1012.44 928.37 1021.25
  Q 927.76 1022.18 925.84 1023.80
  Q 912.72 1034.88 900.77 1045.52
  Q 895.09 1050.58 888.73 1057.92
  Q 886.29 1060.75 882.84 1063.15
  Q 875.24 1068.43 868.63 1073.33
  Q 864.96 1076.05 853.18 1087.08
  C 849.42 1090.60 845.25 1093.74 841.03 1096.79
  C 835.99 1100.43 830.45 1103.22 824.94 1106.50
  Q 821.85 1108.34 814.42 1113.43
  Q 800.98 1122.62 785.85 1129.02
  Q 776.99 1132.77 768.33 1136.89
  Q 766.84 1137.60 765.19 1137.81
  Q 750.26 1139.79 735.38 1139.03
  Q 732.01 1138.86 728.65 1140.01
  C 724.77 1141.32 721.17 1143.59 716.98 1143.74
  Q 708.29 1144.07 699.55 1143.98
  Q 675.77 1143.74 655.90 1140.84
  Q 649.10 1139.85 642.81 1136.99
  Q 636.07 1133.94 629.64 1130.84
  Q 624.93 1128.58 620.66 1124.65
  Q 616.08 1120.45 607.37 1111.60
  C 606.30 1110.51 605.21 1110.13 604.14 1109.19
  Q 598.80 1104.52 594.22 1099.39
  Q 592.06 1096.97 589.34 1094.85
  Q 586.50 1092.63 584.02 1090.13
  C 577.14 1083.18 567.87 1073.52 560.81 1064.52
  Q 555.40 1057.62 553.82 1055.19
  C 548.95 1047.67 543.87 1041.11 537.75 1034.76
  C 532.42 1029.23 529.45 1023.18 528.51 1015.78
  Q 527.21 1005.69 527.29 997.75
  C 527.36 989.87 533.71 984.46 540.41 981.31
  Q 553.17 975.31 561.70 973.84
  Q 572.63 971.96 581.23 969.40
  Q 589.80 966.85 592.15 966.43
  Q 603.33 964.45 615.61 963.01
  Q 620.36 962.44 624.54 961.52
  C 628.41 960.66 632.56 959.86 636.08 957.96
  C 643.92 953.74 651.33 947.99 656.15 939.98
  Q 660.16 933.31 663.95 926.95
  Q 665.53 924.29 666.19 921.16
  C 667.17 916.51 667.73 912.42 666.20 907.80
  Q 663.79 900.48 659.74 893.37
  C 658.55 891.28 656.60 890.14 655.32 888.11
  Q 652.96 884.32 651.19 882.29
  Q 644.41 874.47 633.07 865.18
  C 624.84 858.43 614.95 854.35 605.35 849.88
  Q 597.07 846.03 590.43 839.96
  C 581.95 832.22 572.16 824.42 565.70 815.50
  C 561.50 809.70 557.97 802.30 553.37 796.46
  C 547.44 788.95 542.30 781.52 537.68 772.78
  Q 531.32 760.72 526.01 749.01
  Q 524.44 745.57 523.39 742.05
  Q 520.72 733.09 517.36 725.59
  Q 515.37 721.13 514.86 716.90
  Q 513.94 709.17 515.22 702.18
  Q 518.36 684.92 525.91 672.31
  C 527.63 669.43 530.39 666.96 533.18 665.06
  Q 546.32 656.07 560.01 649.51
  Q 569.44 644.99 576.86 641.07
  Q 585.32 636.60 595.13 631.05
  Q 597.11 629.94 599.00 628.68
  Z
  M 695.26 820.56
  Q 696.36 820.10 696.93 819.37
  Q 699.99 815.44 703.24 811.99
  C 706.58 808.45 708.92 804.35 711.33 800.26
  Q 713.73 796.19 714.03 792.55
  C 714.46 787.32 714.70 781.02 712.69 776.22
  Q 711.16 772.55 709.09 769.65
  Q 707.01 766.75 705.04 763.68
  Q 701.84 758.69 697.94 753.29
  Q 693.92 747.73 691.97 741.10
  C 690.80 737.14 691.42 732.77 694.15 729.39
  Q 702.24 719.36 702.84 703.01
  Q 703.16 694.01 702.42 686.44
  C 702.09 683.05 700.53 680.00 699.95 676.64
  C 699.35 673.13 695.26 670.54 692.14 669.06
  C 689.80 667.95 688.63 666.50 686.69 665.03
  Q 686.28 664.72 685.76 664.68
  Q 678.27 664.19 676.02 664.87
  Q 673.43 665.66 671.30 665.94
  C 669.38 666.20 667.93 667.29 666.87 668.84
  C 665.97 670.16 665.46 671.50 663.98 672.34
  C 658.36 675.52 654.50 680.53 649.11 684.08
  Q 643.45 687.81 637.76 690.30
  C 632.36 692.67 627.46 695.70 622.35 698.66
  Q 614.18 703.39 607.69 709.98
  Q 603.33 714.42 601.05 718.61
  Q 597.86 724.47 597.05 728.90
  Q 594.29 743.98 605.37 754.62
  Q 608.03 757.17 612.11 758.79
  C 618.18 761.20 625.02 763.32 630.39 766.46
  C 637.73 770.76 643.31 776.64 649.60 783.36
  C 651.16 785.02 652.09 786.76 653.21 788.68
  Q 654.38 790.66 656.34 792.74
  Q 660.37 797.03 664.20 799.95
  Q 671.91 805.84 675.96 812.78
  C 677.94 816.17 681.31 818.41 683.08 821.75
  Q 683.73 822.97 684.74 823.94
  Q 685.06 824.25 685.51 824.31
  C 687.72 824.60 689.74 824.37 691.95 824.43
  C 693.79 824.48 694.18 822.78 694.55 821.38
  Q 694.70 820.79 695.26 820.56
  Z
  M 823.59 675.72
  Q 822.07 679.53 819.59 682.62
  C 815.76 687.38 816.96 697.56 818.62 702.70
  Q 818.86 703.45 819.51 703.72
  C 821.51 704.58 824.83 704.45 827.06 704.31
  C 839.16 703.51 832.69 680.81 831.15 674.38
  Q 830.88 673.29 829.79 673.04
  Q 825.08 672.00 823.59 675.72
  Z
  M 711.22 962.32
  Q 705.15 966.50 699.10 971.11
  Q 695.77 973.65 693.03 973.79
  Q 682.94 974.27 677.65 975.43
  Q 670.76 976.95 663.06 979.28
  C 655.49 981.57 648.58 984.39 642.68 988.66
  Q 633.72 995.15 622.10 1007.67
  C 620.06 1009.87 620.60 1012.94 620.86 1015.67
  A 0.85 0.84 90.0 0 0 621.61 1016.43
  Q 632.03 1017.48 640.81 1022.82
  Q 642.09 1023.59 642.95 1024.97
  C 645.89 1029.64 636.83 1034.98 633.73 1036.90
  C 629.99 1039.22 624.81 1035.62 623.00 1032.53
  Q 620.87 1028.89 619.04 1024.48
  C 617.98 1021.90 617.83 1019.20 617.31 1016.49
  C 616.33 1011.44 616.46 1006.20 614.54 1001.54
  Q 612.89 997.53 607.90 993.06
  C 603.29 988.92 596.70 988.72 591.57 991.63
  Q 580.90 997.70 568.95 1006.43
  Q 566.96 1007.88 565.01 1010.88
  Q 561.26 1016.65 563.84 1021.98
  Q 565.32 1025.01 568.76 1025.75
  C 575.71 1027.22 585.19 1028.37 589.93 1034.48
  Q 594.45 1040.28 596.54 1046.96
  C 598.81 1054.20 607.59 1059.14 614.16 1061.61
  Q 621.09 1064.20 621.19 1064.25
  Q 629.44 1068.00 636.88 1072.83
  C 640.83 1075.40 643.98 1076.65 648.67 1076.33
  Q 652.76 1076.05 656.51 1073.68
  Q 665.92 1067.75 673.16 1059.59
  Q 675.60 1056.84 676.93 1053.35
  C 679.31 1047.13 681.36 1041.20 684.69 1035.51
  C 686.66 1032.15 689.41 1029.33 691.72 1026.24
  C 693.09 1024.39 694.95 1023.21 696.99 1022.27
  A 0.92 0.91 -17.5 0 1 698.27 1022.93
  C 698.52 1024.35 698.60 1025.61 699.14 1026.95
  C 700.39 1030.04 702.09 1032.27 702.46 1035.82
  Q 703.59 1046.59 704.50 1058.16
  C 704.79 1061.91 706.09 1063.79 709.73 1065.33
  Q 712.26 1066.40 714.61 1067.58
  Q 726.26 1073.39 737.32 1067.92
  C 742.14 1065.53 747.25 1064.91 751.89 1062.51
  C 754.10 1061.37 755.19 1063.22 756.97 1063.99
  C 759.76 1065.19 763.16 1066.75 764.53 1069.57
  C 766.15 1072.92 766.59 1076.49 769.26 1079.32
  C 772.61 1082.88 776.05 1087.20 780.43 1089.19
  Q 782.82 1090.28 786.56 1090.35
  Q 796.10 1090.52 803.82 1090.23
  C 808.80 1090.04 814.03 1084.71 817.12 1081.27
  Q 820.61 1077.39 824.99 1071.96
  C 826.88 1069.62 827.90 1066.98 829.22 1064.31
  Q 830.68 1061.33 831.45 1058.11
  C 833.72 1048.72 836.08 1041.42 842.74 1033.92
  C 844.21 1032.25 846.44 1032.18 848.49 1031.95
  Q 865.75 1029.98 882.18 1026.17
  C 886.98 1025.06 891.87 1024.13 895.23 1021.30
  Q 901.56 1015.98 910.71 1005.56
  C 911.65 1004.48 911.82 1003.49 911.97 1002.11
  Q 912.68 995.81 911.84 988.12
  C 911.64 986.30 911.25 984.59 909.32 983.85
  Q 908.18 983.41 907.75 982.26
  Q 907.52 981.64 906.86 981.53
  Q 898.04 980.15 889.78 985.15
  C 887.21 986.70 885.87 989.55 883.43 991.43
  Q 879.86 994.19 875.70 996.14
  Q 872.48 997.65 874.33 994.61
  C 876.17 991.59 878.05 988.26 878.19 984.56
  C 878.30 981.64 877.23 976.05 873.54 975.82
  C 868.13 975.49 859.54 974.35 855.67 979.34
  Q 850.23 986.34 844.54 993.45
  C 842.65 995.82 840.94 999.10 839.78 1001.91
  Q 836.61 1009.53 833.57 1014.48
  Q 831.49 1017.87 826.36 1023.14
  Q 825.94 1023.57 825.35 1023.66
  Q 819.72 1024.49 814.38 1022.18
  Q 811.38 1020.88 809.69 1017.38
  C 808.06 1013.99 806.17 1010.77 806.09 1006.87
  Q 805.95 1000.77 803.70 994.93
  Q 802.29 991.25 801.42 986.32
  Q 799.83 977.24 798.25 970.81
  C 796.70 964.51 791.46 962.24 785.30 963.05
  Q 783.39 963.30 781.22 964.20
  Q 776.98 965.97 772.00 965.94
  Q 771.35 966.16 770.77 965.35
  Q 770.17 964.53 769.99 964.34
  Q 766.70 961.03 763.21 957.70
  Q 762.07 956.61 757.84 953.32
  C 752.89 949.47 748.60 943.94 744.44 939.25
  C 735.83 929.53 731.43 917.36 729.52 904.06
  Q 728.99 900.41 727.57 896.28
  C 726.63 893.57 724.63 892.36 722.19 891.14
  C 718.58 889.35 715.14 888.53 711.54 890.59
  C 708.76 892.17 706.33 894.25 705.52 897.53
  Q 703.61 905.23 703.03 911.18
  Q 702.80 913.56 703.11 915.86
  Q 704.65 927.15 706.22 939.51
  Q 707.13 946.62 709.23 952.81
  C 709.91 954.81 709.98 956.66 710.09 958.71
  Q 710.12 959.24 710.41 959.68
  Q 711.52 961.39 711.22 962.32
  Z"
/>
<path fill="#f8e34b" d="
  M 609.81 623.10
  Q 616.96 623.38 620.09 628.25
  Q 621.44 630.35 621.71 633.02
  C 622.64 642.13 625.03 647.44 632.22 653.24
  Q 636.96 657.07 641.15 661.85
  C 642.19 663.04 642.10 665.75 642.20 667.29
  Q 642.55 673.02 639.30 678.38
  Q 638.11 680.34 636.59 681.83
  C 633.74 684.63 631.32 687.55 627.57 689.08
  C 619.86 692.23 611.86 692.71 604.06 689.44
  Q 602.78 688.90 599.75 689.28
  Q 595.38 689.82 591.27 690.25
  C 588.17 690.58 584.82 692.70 581.65 693.68
  C 571.82 696.71 562.86 702.32 553.73 708.33
  Q 550.66 710.35 545.84 709.81
  C 540.19 709.17 541.21 692.52 541.87 688.82
  Q 542.53 685.09 546.59 681.35
  C 554.09 674.45 562.17 667.93 572.46 666.32
  C 576.95 665.61 582.28 666.54 587.02 666.80
  C 590.44 666.99 599.22 668.95 601.64 665.82
  Q 603.16 663.84 604.44 661.69
  Q 605.27 660.29 604.23 658.97
  C 599.31 652.69 597.00 646.17 595.48 638.44
  Q 595.01 636.00 595.35 633.34
  A 1.39 1.37 -4.3 0 1 596.34 632.20
  Q 599.72 631.25 599.00 628.68
  Q 600.29 627.21 601.63 625.86
  Q 602.98 624.50 604.85 624.04
  Q 607.46 623.39 609.81 623.10
  Z"
/>
<path fill="#ff991d" d="
  M 694.55 821.38
  C 694.18 822.78 693.79 824.48 691.95 824.43
  C 689.74 824.37 687.72 824.60 685.51 824.31
  Q 685.06 824.25 684.74 823.94
  Q 683.73 822.97 683.08 821.75
  C 681.31 818.41 677.94 816.17 675.96 812.78
  Q 671.91 805.84 664.20 799.95
  Q 660.37 797.03 656.34 792.74
  Q 654.38 790.66 653.21 788.68
  C 652.09 786.76 651.16 785.02 649.60 783.36
  C 643.31 776.64 637.73 770.76 630.39 766.46
  C 625.02 763.32 618.18 761.20 612.11 758.79
  Q 608.03 757.17 605.37 754.62
  Q 594.29 743.98 597.05 728.90
  Q 597.86 724.47 601.05 718.61
  Q 603.33 714.42 607.69 709.98
  Q 614.18 703.39 622.35 698.66
  C 627.46 695.70 632.36 692.67 637.76 690.30
  Q 643.45 687.81 649.11 684.08
  C 654.50 680.53 658.36 675.52 663.98 672.34
  C 665.46 671.50 665.97 670.16 666.87 668.84
  C 667.93 667.29 669.38 666.20 671.30 665.94
  Q 673.43 665.66 676.02 664.87
  Q 678.27 664.19 685.76 664.68
  Q 686.28 664.72 686.69 665.03
  C 688.63 666.50 689.80 667.95 692.14 669.06
  C 695.26 670.54 699.35 673.13 699.95 676.64
  C 700.53 680.00 702.09 683.05 702.42 686.44
  Q 703.16 694.01 702.84 703.01
  Q 702.24 719.36 694.15 729.39
  C 691.42 732.77 690.80 737.14 691.97 741.10
  Q 693.92 747.73 697.94 753.29
  Q 701.84 758.69 705.04 763.68
  Q 707.01 766.75 709.09 769.65
  Q 711.16 772.55 712.69 776.22
  C 714.70 781.02 714.46 787.32 714.03 792.55
  Q 713.73 796.19 711.33 800.26
  C 708.92 804.35 706.58 808.45 703.24 811.99
  Q 699.99 815.44 696.93 819.37
  Q 696.36 820.10 695.26 820.56
  Q 694.70 820.79 694.55 821.38
  Z"
/>
<path fill="#f8e34b" d="
  M 823.59 675.72
  Q 825.08 672.00 829.79 673.04
  Q 830.88 673.29 831.15 674.38
  C 832.69 680.81 839.16 703.51 827.06 704.31
  C 824.83 704.45 821.51 704.58 819.51 703.72
  Q 818.86 703.45 818.62 702.70
  C 816.96 697.56 815.76 687.38 819.59 682.62
  Q 822.07 679.53 823.59 675.72
  Z"
/>
<path fill="#fb5204" d="
  M 893.95 852.94
  C 893.70 853.16 893.61 853.36 893.45 853.64
  Q 893.23 854.04 892.77 854.04
  L 887.27 854.05
  Q 886.61 854.05 886.65 853.39
  C 887.51 841.20 885.87 826.50 874.72 819.57
  Q 874.26 819.28 874.13 818.76
  Q 873.47 816.21 873.98 813.88
  Q 874.09 813.37 874.60 813.29
  Q 879.37 812.55 882.90 814.36
  Q 884.72 815.29 886.81 815.50
  C 891.76 815.98 896.94 816.63 901.82 817.82
  C 904.57 818.49 906.05 821.64 908.11 823.45
  C 910.73 825.74 911.55 829.33 910.85 832.67
  C 909.46 839.31 905.99 844.73 900.21 848.25
  Q 897.08 850.16 893.95 852.94
  Z"
/>
<path fill="#ff991d" d="
  M 772.00 965.94
  Q 769.13 970.96 769.17 976.95
  C 769.19 979.80 769.24 982.59 771.18 984.92
  Q 774.99 989.49 778.56 994.49
  C 780.31 996.93 781.02 999.60 781.90 1002.40
  Q 782.45 1004.16 784.27 1004.40
  Q 784.60 1004.45 784.68 1004.78
  Q 784.79 1005.25 784.31 1005.26
  Q 782.43 1005.33 780.81 1006.06
  C 779.03 1006.87 777.28 1006.20 775.47 1005.80
  Q 768.71 1004.29 762.24 1008.14
  Q 757.74 1010.82 753.35 1013.29
  C 748.76 1015.87 745.49 1019.41 742.10 1023.34
  C 739.54 1026.30 734.16 1025.75 731.86 1023.23
  C 729.02 1020.12 728.16 1015.15 728.12 1010.93
  Q 728.06 1004.41 727.39 997.36
  Q 726.62 989.39 726.69 981.32
  Q 726.71 978.41 725.35 975.83
  Q 722.92 971.22 719.66 966.40
  C 718.03 963.99 716.46 962.88 713.58 962.94
  Q 712.33 962.97 711.22 962.32
  Q 711.52 961.39 710.41 959.68
  Q 710.12 959.24 710.09 958.71
  C 709.98 956.66 709.91 954.81 709.23 952.81
  Q 707.13 946.62 706.22 939.51
  Q 704.65 927.15 703.11 915.86
  Q 702.80 913.56 703.03 911.18
  Q 703.61 905.23 705.52 897.53
  C 706.33 894.25 708.76 892.17 711.54 890.59
  C 715.14 888.53 718.58 889.35 722.19 891.14
  C 724.63 892.36 726.63 893.57 727.57 896.28
  Q 728.99 900.41 729.52 904.06
  C 731.43 917.36 735.83 929.53 744.44 939.25
  C 748.60 943.94 752.89 949.47 757.84 953.32
  Q 762.07 956.61 763.21 957.70
  Q 766.70 961.03 769.99 964.34
  Q 770.17 964.53 770.77 965.35
  Q 771.35 966.16 772.00 965.94
  Z"
/>
<path fill="#fb5204" d="
  M 503.57 933.97
  C 501.65 928.22 498.84 923.16 496.01 917.88
  Q 492.97 912.22 496.69 909.65
  Q 499.16 907.94 502.63 907.83
  C 507.35 907.68 523.57 906.73 524.38 913.47
  C 525.84 925.49 525.42 935.92 516.34 944.93
  C 513.61 947.62 509.22 949.99 505.32 948.39
  C 504.25 947.95 503.92 946.70 503.83 945.68
  Q 503.49 941.97 503.99 938.09
  Q 504.26 936.04 503.57 933.97
  Z
  M 509.42 920.77
  Q 509.31 921.00 509.11 921.15
  A 0.64 0.64 0.0 0 0 508.85 921.77
  Q 509.48 925.54 511.07 929.35
  Q 512.01 931.61 512.24 934.01
  Q 512.38 935.45 513.25 934.30
  Q 517.88 928.22 517.40 920.04
  C 517.16 915.83 513.87 916.64 511.16 915.25
  Q 510.60 914.96 510.60 915.59
  Q 510.57 918.35 509.42 920.77
  Z"
/>
<path fill="#f8e34b" d="
  M 711.22 962.32
  Q 712.33 962.97 713.58 962.94
  C 716.46 962.88 718.03 963.99 719.66 966.40
  Q 722.92 971.22 725.35 975.83
  Q 726.71 978.41 726.69 981.32
  Q 726.62 989.39 727.39 997.36
  Q 728.06 1004.41 728.12 1010.93
  C 728.16 1015.15 729.02 1020.12 731.86 1023.23
  C 734.16 1025.75 739.54 1026.30 742.10 1023.34
  C 745.49 1019.41 748.76 1015.87 753.35 1013.29
  Q 757.74 1010.82 762.24 1008.14
  Q 768.71 1004.29 775.47 1005.80
  C 777.28 1006.20 779.03 1006.87 780.81 1006.06
  Q 782.43 1005.33 784.31 1005.26
  Q 784.79 1005.25 784.68 1004.78
  Q 784.60 1004.45 784.27 1004.40
  Q 782.45 1004.16 781.90 1002.40
  C 781.02 999.60 780.31 996.93 778.56 994.49
  Q 774.99 989.49 771.18 984.92
  C 769.24 982.59 769.19 979.80 769.17 976.95
  Q 769.13 970.96 772.00 965.94
  Q 776.98 965.97 781.22 964.20
  Q 783.39 963.30 785.30 963.05
  C 791.46 962.24 796.70 964.51 798.25 970.81
  Q 799.83 977.24 801.42 986.32
  Q 802.29 991.25 803.70 994.93
  Q 805.95 1000.77 806.09 1006.87
  C 806.17 1010.77 808.06 1013.99 809.69 1017.38
  Q 811.38 1020.88 814.38 1022.18
  Q 819.72 1024.49 825.35 1023.66
  Q 825.94 1023.57 826.36 1023.14
  Q 831.49 1017.87 833.57 1014.48
  Q 836.61 1009.53 839.78 1001.91
  C 840.94 999.10 842.65 995.82 844.54 993.45
  Q 850.23 986.34 855.67 979.34
  C 859.54 974.35 868.13 975.49 873.54 975.82
  C 877.23 976.05 878.30 981.64 878.19 984.56
  C 878.05 988.26 876.17 991.59 874.33 994.61
  Q 872.48 997.65 875.70 996.14
  Q 879.86 994.19 883.43 991.43
  C 885.87 989.55 887.21 986.70 889.78 985.15
  Q 898.04 980.15 906.86 981.53
  Q 907.52 981.64 907.75 982.26
  Q 908.18 983.41 909.32 983.85
  C 911.25 984.59 911.64 986.30 911.84 988.12
  Q 912.68 995.81 911.97 1002.11
  C 911.82 1003.49 911.65 1004.48 910.71 1005.56
  Q 901.56 1015.98 895.23 1021.30
  C 891.87 1024.13 886.98 1025.06 882.18 1026.17
  Q 865.75 1029.98 848.49 1031.95
  C 846.44 1032.18 844.21 1032.25 842.74 1033.92
  C 836.08 1041.42 833.72 1048.72 831.45 1058.11
  Q 830.68 1061.33 829.22 1064.31
  C 827.90 1066.98 826.88 1069.62 824.99 1071.96
  Q 820.61 1077.39 817.12 1081.27
  C 814.03 1084.71 808.80 1090.04 803.82 1090.23
  Q 796.10 1090.52 786.56 1090.35
  Q 782.82 1090.28 780.43 1089.19
  C 776.05 1087.20 772.61 1082.88 769.26 1079.32
  C 766.59 1076.49 766.15 1072.92 764.53 1069.57
  C 763.16 1066.75 759.76 1065.19 756.97 1063.99
  C 755.19 1063.22 754.10 1061.37 751.89 1062.51
  C 747.25 1064.91 742.14 1065.53 737.32 1067.92
  Q 726.26 1073.39 714.61 1067.58
  Q 712.26 1066.40 709.73 1065.33
  C 706.09 1063.79 704.79 1061.91 704.50 1058.16
  Q 703.59 1046.59 702.46 1035.82
  C 702.09 1032.27 700.39 1030.04 699.14 1026.95
  C 698.60 1025.61 698.52 1024.35 698.27 1022.93
  A 0.92 0.91 -17.5 0 0 696.99 1022.27
  C 694.95 1023.21 693.09 1024.39 691.72 1026.24
  C 689.41 1029.33 686.66 1032.15 684.69 1035.51
  C 681.36 1041.20 679.31 1047.13 676.93 1053.35
  Q 675.60 1056.84 673.16 1059.59
  Q 665.92 1067.75 656.51 1073.68
  Q 652.76 1076.05 648.67 1076.33
  C 643.98 1076.65 640.83 1075.40 636.88 1072.83
  Q 629.44 1068.00 621.19 1064.25
  Q 621.09 1064.20 614.16 1061.61
  C 607.59 1059.14 598.81 1054.20 596.54 1046.96
  Q 594.45 1040.28 589.93 1034.48
  C 585.19 1028.37 575.71 1027.22 568.76 1025.75
  Q 565.32 1025.01 563.84 1021.98
  Q 561.26 1016.65 565.01 1010.88
  Q 566.96 1007.88 568.95 1006.43
  Q 580.90 997.70 591.57 991.63
  C 596.70 988.72 603.29 988.92 607.90 993.06
  Q 612.89 997.53 614.54 1001.54
  C 616.46 1006.20 616.33 1011.44 617.31 1016.49
  C 617.83 1019.20 617.98 1021.90 619.04 1024.48
  Q 620.87 1028.89 623.00 1032.53
  C 624.81 1035.62 629.99 1039.22 633.73 1036.90
  C 636.83 1034.98 645.89 1029.64 642.95 1024.97
  Q 642.09 1023.59 640.81 1022.82
  Q 632.03 1017.48 621.61 1016.43
  A 0.85 0.84 90.0 0 1 620.86 1015.67
  C 620.60 1012.94 620.06 1009.87 622.10 1007.67
  Q 633.72 995.15 642.68 988.66
  C 648.58 984.39 655.49 981.57 663.06 979.28
  Q 670.76 976.95 677.65 975.43
  Q 682.94 974.27 693.03 973.79
  Q 695.77 973.65 699.10 971.11
  Q 705.15 966.50 711.22 962.32
  Z
  M 835.21 1029.78
  L 837.02 1025.59
  A 0.11 0.11 0.0 0 0 836.97 1025.45
  L 836.94 1025.43
  A 2.23 1.64 -66.6 0 0 834.55 1026.83
  L 834.42 1027.12
  A 2.23 1.64 -66.6 0 0 835.04 1029.82
  L 835.07 1029.83
  A 0.11 0.11 0.0 0 0 835.21 1029.78
  Z"
/>
<path fill="#ff991d" d="
  M 835.21 1029.78
  A 0.11 0.11 0.0 0 1 835.07 1029.83
  L 835.04 1029.82
  A 2.23 1.64 -66.6 0 1 834.42 1027.12
  L 834.55 1026.83
  A 2.23 1.64 -66.6 0 1 836.94 1025.43
  L 836.97 1025.45
  A 0.11 0.11 0.0 0 1 837.02 1025.59
  L 835.21 1029.78
  Z"
/>
</svg>
