<?xml version="1.0" encoding="UTF-8" standalone="no"?>
<!DOCTYPE svg PUBLIC "-//W3C//DTD SVG 1.1//EN" "http://www.w3.org/Graphics/SVG/1.1/DTD/svg11.dtd">
<svg xmlns="http://www.w3.org/2000/svg" version="1.1" viewBox="0.00 0.00 1448.00 1448.00">
<g stroke-width="2.00" fill="none" stroke-linecap="butt">
<path stroke="#fa6a0f" vector-effect="non-scaling-stroke" d="
  M 674.86 391.90
  C 675.04 388.78 677.95 385.02 680.01 382.80
  Q 684.00 378.50 688.06 373.77
  Q 699.37 360.56 699.71 342.28
  Q 699.80 337.40 698.20 332.51
  Q 697.94 331.72 697.11 331.79
  Q 691.70 332.28 687.80 334.61
  C 680.13 339.19 673.30 345.80 666.96 352.47
  Q 664.18 355.40 661.29 357.92
  C 655.37 363.09 649.95 369.52 644.84 374.95
  Q 637.55 382.70 627.66 386.01
  Q 619.47 388.74 604.70 391.43
  C 598.20 392.62 594.31 398.69 593.50 404.79
  C 593.02 408.46 591.42 414.36 593.37 417.53
  Q 596.11 421.99 600.03 426.11
  Q 602.36 428.55 605.70 428.58
  Q 614.11 428.64 622.24 427.53
  Q 627.94 426.76 637.88 427.21
  C 642.26 427.41 646.83 427.06 651.18 426.50
  Q 658.69 425.53 664.67 420.36
  C 667.04 418.31 668.52 415.65 670.65 413.40
  C 672.86 411.07 674.15 407.05 674.27 404.11
  Q 674.52 397.60 674.86 391.90"
/>
<path stroke="#f78f26" vector-effect="non-scaling-stroke" d="
  M 606.99 354.08
  C 600.07 356.99 594.16 362.15 589.09 367.59
  C 585.62 371.31 585.36 379.99 585.43 385.40
  Q 585.44 385.99 586.03 385.99
  L 595.94 386.00
  Q 596.46 386.00 596.56 385.50
  C 597.14 382.72 596.12 380.03 599.92 379.09
  Q 607.30 377.26 614.61 376.21
  C 620.35 375.39 624.03 371.71 626.74 366.81
  C 628.62 363.43 627.97 358.40 627.68 354.63
  Q 627.52 352.48 625.42 352.28
  C 619.22 351.68 612.93 351.58 606.99 354.08"
/>
<path stroke="#f78f26" vector-effect="non-scaling-stroke" d="
  M 590.15 436.47
  A 2.09 2.07 35.6 0 1 589.81 434.47
  Q 591.66 429.35 590.79 423.75
  Q 590.66 422.88 589.79 422.78
  Q 583.52 422.05 578.59 427.32
  Q 576.92 429.10 576.82 431.75
  Q 576.51 439.40 577.90 444.79
  Q 579.02 449.14 581.62 455.48
  C 583.59 460.29 586.88 464.32 591.40 466.76
  Q 598.17 470.43 605.74 470.73
  Q 615.33 471.12 625.33 470.95
  C 630.64 470.86 635.39 469.04 637.30 464.11
  C 639.46 458.50 640.40 449.45 637.49 443.16
  C 634.30 436.24 632.63 433.56 624.25 434.13
  C 620.72 434.37 621.25 437.95 619.53 440.04
  Q 617.29 442.74 614.91 445.60
  C 613.71 447.05 611.72 448.26 609.85 448.25
  C 601.32 448.19 595.21 442.77 590.15 436.47"
/>
<path stroke="#f78f26" vector-effect="non-scaling-stroke" d="
  M 904.99 543.94
  C 904.00 539.65 902.82 534.55 897.56 534.30
  Q 893.68 534.12 890.25 534.49
  C 888.56 534.66 887.67 536.11 886.94 537.47
  C 883.34 544.19 886.58 549.78 887.97 556.53
  C 888.73 560.24 892.63 566.60 896.51 567.65
  Q 901.36 568.95 906.87 568.34
  A 1.09 1.07 5.3 0 0 907.78 567.60
  C 909.06 563.64 910.60 553.83 908.02 550.01
  C 906.67 548.02 905.55 546.38 904.99 543.94"
/>
<path stroke="#f78f26" vector-effect="non-scaling-stroke" d="
  M 827.34 722.79
  Q 824.67 725.22 824.50 729.49
  Q 824.12 738.83 824.58 746.87
  A 2.61 2.60 -0.9 0 0 827.13 749.33
  L 832.16 749.45
  Q 832.78 749.46 832.80 748.84
  L 832.90 745.77
  A 0.54 0.53 78.4 0 1 833.20 745.30
  Q 833.44 745.19 833.67 745.28
  Q 834.10 745.45 834.16 745.92
  C 834.44 748.28 836.78 750.29 839.04 750.86
  Q 846.90 752.83 853.92 755.82
  Q 857.29 757.26 860.83 757.70
  Q 879.53 760.02 895.70 757.78
  Q 901.97 756.90 906.67 752.04
  C 915.39 743.03 924.88 732.01 926.73 719.16
  C 927.99 710.35 929.06 699.61 923.13 692.08
  Q 922.75 691.60 922.15 691.52
  C 918.53 691.06 912.73 690.64 910.30 694.25
  C 907.78 698.02 906.01 702.59 902.53 705.52
  Q 899.78 707.84 896.29 709.27"
/>
<path stroke="#fa6a0f" vector-effect="non-scaling-stroke" d="
  M 896.29 709.27
  L 895.20 708.98
  Q 894.69 708.85 894.47 708.36
  Q 893.90 707.05 893.00 706.02
  Q 890.14 702.69 886.68 699.45
  C 879.45 692.66 885.99 681.44 890.90 675.52
  Q 897.21 667.90 901.51 661.46
  Q 908.11 651.57 907.79 634.85
  C 907.75 632.92 906.28 632.00 904.49 631.99
  C 900.33 631.95 897.03 631.97 893.21 633.82
  Q 889.01 635.86 884.98 637.73
  C 881.51 639.35 877.89 640.52 874.20 641.62
  Q 872.20 642.22 870.25 641.55
  C 866.33 640.21 862.66 638.64 859.62 635.55
  Q 856.00 631.88 852.95 628.84
  C 850.74 626.63 847.19 624.72 844.13 624.13
  C 836.65 622.69 829.02 621.20 821.48 620.75
  C 812.34 620.21 805.46 622.94 798.23 628.22
  Q 794.47 630.96 793.70 635.13
  C 792.05 644.11 793.27 652.84 800.96 658.87
  Q 810.37 666.26 821.58 671.98
  C 823.04 672.73 824.51 673.80 825.31 675.29
  Q 829.74 683.51 830.92 692.96
  C 831.36 696.46 830.38 700.15 829.90 703.73
  Q 829.58 706.13 828.36 710.08
  Q 826.48 716.19 827.34 722.79"
/>
<path stroke="#fcbe34" vector-effect="non-scaling-stroke" d="
  M 896.29 709.27
  Q 889.42 712.40 886.26 716.23
  Q 883.96 719.01 882.06 724.80
  Q 881.20 727.43 879.87 729.05
  C 876.64 732.99 871.31 734.42 866.24 733.92
  Q 858.51 733.15 852.76 730.52
  Q 850.68 729.56 847.11 726.61
  C 841.87 722.29 835.23 721.93 827.34 722.79"
/>
<path stroke="#f78f26" vector-effect="non-scaling-stroke" d="
  M 710.26 724.93
  A 0.69 0.68 -63.8 0 1 709.96 724.04
  Q 711.78 720.13 711.17 714.83
  Q 711.11 714.32 710.60 714.26
  Q 707.72 713.95 705.06 714.37
  Q 704.52 714.45 704.39 714.99
  C 703.55 718.55 700.71 718.27 697.87 718.38
  Q 697.28 718.40 697.24 718.99
  Q 696.53 729.23 697.59 735.11
  Q 698.44 739.83 703.06 745.63
  C 704.78 747.80 707.34 748.15 709.92 748.18
  Q 720.53 748.28 729.33 743.38
  C 731.82 742.00 731.13 735.79 730.95 733.24
  A 0.78 0.78 0.0 0 0 730.19 732.52
  C 728.66 732.49 727.19 732.56 725.84 731.72
  C 723.35 730.18 720.55 729.71 717.90 728.57
  Q 713.95 726.86 710.26 724.93"
/>
<path stroke="#f78f26" vector-effect="non-scaling-stroke" d="
  M 575.07 1031.78
  Q 575.33 1039.66 576.32 1046.98
  C 577.06 1052.46 579.90 1056.26 584.14 1059.60
  C 586.13 1061.17 587.59 1063.23 589.53 1064.83
  Q 595.79 1070.02 600.57 1075.77
  C 610.05 1087.17 624.20 1096.94 639.23 1098.77
  C 657.42 1100.99 674.88 1100.19 692.77 1097.44
  Q 697.51 1096.71 701.25 1095.01
  C 709.22 1091.40 716.97 1087.28 725.80 1085.34
  Q 732.49 1083.87 737.44 1083.57
  Q 743.95 1083.18 751.76 1083.06
  Q 763.62 1082.89 779.71 1079.09
  Q 789.14 1076.87 795.02 1071.16
  C 799.04 1067.26 798.09 1060.59 796.55 1055.67
  Q 795.07 1050.92 790.42 1050.62
  Q 785.81 1050.32 780.90 1050.83
  Q 778.17 1051.11 771.84 1052.99
  Q 763.62 1055.43 754.82 1055.74"
/>
<path stroke="#fa6a0f" vector-effect="non-scaling-stroke" d="
  M 754.82 1055.74
  Q 756.71 1053.92 759.43 1052.54
  Q 762.70 1050.88 764.23 1049.82
  C 766.67 1048.12 771.10 1045.82 772.66 1043.40
  Q 774.61 1040.37 777.52 1038.00"
/>
<path stroke="#f78f26" vector-effect="non-scaling-stroke" d="
  M 777.52 1038.00
  Q 787.21 1033.10 789.99 1032.26
  Q 800.84 1028.98 804.76 1027.24
  Q 813.45 1023.37 822.19 1019.65
  C 828.21 1017.09 833.15 1013.45 838.34 1009.56
  C 843.17 1005.94 846.57 1001.29 850.44 996.79
  Q 854.83 991.69 854.31 986.08
  Q 854.08 983.58 852.73 981.85
  Q 850.97 979.59 848.75 978.98
  Q 843.43 977.53 833.63 976.45"
/>
<path stroke="#fa6a0f" vector-effect="non-scaling-stroke" d="
  M 833.63 976.45
  Q 832.56 974.24 833.56 973.13
  Q 833.88 972.77 834.04 972.31
  Q 837.52 962.34 837.28 951.86
  C 837.16 946.67 837.02 942.70 832.97 939.88
  Q 830.41 938.09 827.98 936.31
  Q 823.33 932.91 817.39 930.48
  Q 812.51 928.48 806.07 927.85
  Q 792.38 926.49 779.21 926.03
  Q 776.82 925.94 774.59 925.43
  C 771.53 924.72 768.47 924.98 765.70 923.32
  Q 760.25 920.07 754.93 917.43
  C 752.41 916.17 749.78 914.03 748.55 911.60
  Q 743.07 900.80 742.48 888.00
  Q 742.06 878.69 742.42 861.23
  Q 742.45 859.80 743.47 846.83
  Q 744.09 838.97 743.52 830.00
  C 743.36 827.56 742.60 825.46 742.45 823.05
  Q 742.29 820.59 741.29 818.18
  Q 740.13 815.40 738.84 812.83
  Q 738.12 811.40 737.40 809.90
  Q 736.05 807.08 733.76 804.99
  A 1.61 1.55 67.9 0 0 732.86 804.59
  Q 721.46 803.48 711.09 808.42
  C 707.53 810.12 705.53 811.09 703.36 813.83
  C 700.23 817.77 697.31 822.11 693.69 825.64
  C 691.04 828.24 688.31 831.00 686.61 834.36
  C 683.07 841.32 679.31 847.86 673.39 852.90
  C 667.23 858.15 659.55 862.29 652.55 866.82
  C 646.77 870.55 641.15 874.98 634.87 878.16
  Q 623.56 883.90 612.60 889.67
  Q 607.59 892.31 599.02 894.71
  Q 593.49 896.25 588.94 898.59
  Q 579.20 903.59 570.79 908.32
  Q 566.67 910.63 562.52 914.62
  Q 557.07 919.85 556.97 927.73
  C 556.86 936.99 557.05 947.45 560.89 956.03
  Q 563.84 962.60 568.30 970.51
  C 571.82 976.74 574.93 984.49 576.86 991.94
  Q 577.77 995.41 579.12 998.61
  Q 579.91 1000.48 579.82 1002.33
  C 579.65 1005.54 575.94 1005.30 573.49 1005.49
  Q 572.79 1005.55 572.78 1006.26
  Q 572.57 1019.60 572.82 1023.83
  Q 573.02 1027.39 575.07 1031.78"
/>
<path stroke="#fcbe34" vector-effect="non-scaling-stroke" d="
  M 833.63 976.45
  Q 828.64 975.76 823.99 975.15
  C 815.22 974.01 807.11 973.97 798.07 975.30
  Q 787.51 976.87 776.96 978.47
  C 766.82 980.02 756.29 985.12 747.50 990.14
  Q 743.12 992.64 738.86 996.53
  Q 731.62 1003.13 723.27 1008.08
  Q 707.54 1017.40 691.43 1025.16
  Q 688.37 1026.64 684.25 1026.34
  Q 665.85 1025.01 652.67 1013.51
  Q 648.71 1010.06 644.93 1006.33
  C 640.88 1002.34 634.58 1000.64 628.78 1001.20
  C 617.10 1002.32 605.37 1005.78 594.74 1010.71
  Q 581.34 1016.93 575.07 1031.78"
/>
<path stroke="#fcbe34" vector-effect="non-scaling-stroke" d="
  M 777.52 1038.00
  Q 763.33 1038.02 749.70 1041.78
  Q 746.84 1042.57 745.77 1044.04
  C 743.93 1046.56 741.45 1049.31 742.62 1052.65
  Q 742.79 1053.14 743.26 1053.34
  Q 744.36 1053.82 746.24 1054.81
  Q 750.68 1057.18 754.82 1055.74"
/>
<path stroke="#f78f26" vector-effect="non-scaling-stroke" d="
  M 899.28 980.26
  C 904.61 973.67 907.06 965.65 906.44 957.11
  C 906.04 951.74 903.62 946.36 897.31 947.45
  Q 896.05 947.67 895.55 948.82
  C 894.11 952.07 892.21 956.57 889.24 958.66
  Q 882.07 963.67 874.92 970.40
  Q 869.83 975.21 871.14 982.40
  Q 871.66 985.24 874.18 986.37
  Q 879.92 988.95 885.28 988.32
  C 888.84 987.90 891.70 985.64 894.79 983.95
  Q 897.48 982.48 899.28 980.26"
/>
<path stroke="#fcbe34" vector-effect="non-scaling-stroke" d="
  M 589.79 449.00
  A 0.79 0.79 0.0 0 0 589.00 448.21
  A 0.79 0.79 0.0 0 0 588.21 449.00
  A 0.79 0.79 0.0 0 0 589.00 449.79
  A 0.79 0.79 0.0 0 0 589.79 449.00"
/>
<path stroke="#f78f26" vector-effect="non-scaling-stroke" d="
  M 557.80 705.03
  C 559.57 702.94 558.65 693.86 558.29 690.85
  A 0.80 0.80 0.0 0 0 557.67 690.17
  C 554.46 689.49 551.73 689.93 549.47 692.55
  C 543.82 699.10 543.78 707.87 544.63 716.28
  A 0.56 0.56 0.0 0 0 545.15 716.78
  Q 548.00 716.97 550.80 716.63
  C 554.68 716.15 557.99 714.42 561.80 713.88
  Q 562.51 713.78 562.63 713.08
  C 563.22 709.71 562.71 705.11 558.12 705.63
  A 0.37 0.36 -73.2 0 1 557.80 705.03"
/>
<path stroke="#fcbe34" vector-effect="non-scaling-stroke" d="
  M 706.3169 734.0486
  A 0.79 0.64 86.6 0 0 706.9089 733.2220
  A 0.79 0.64 86.6 0 0 706.2231 732.4714
  A 0.79 0.64 86.6 0 0 705.6311 733.2980
  A 0.79 0.64 86.6 0 0 706.3169 734.0486"
/>
<path stroke="#fcbe34" vector-effect="non-scaling-stroke" d="
  M 686.93 920.21
  C 675.69 927.58 661.88 927.66 648.68 927.74
  C 643.86 927.77 637.65 929.20 634.43 933.37
  Q 630.76 938.13 626.95 942.11
  Q 626.46 942.62 626.46 943.32
  L 626.45 951.60
  A 2.90 2.90 0.0 0 0 629.35 954.50
  L 634.33 954.50
  Q 634.92 954.50 634.95 953.90
  Q 635.05 951.45 634.86 948.84
  Q 634.72 946.78 635.91 945.39
  Q 637.68 943.34 639.24 943.23
  Q 648.23 942.62 666.33 944.89
  C 674.95 945.98 681.25 950.69 688.93 953.64
  Q 692.36 954.95 697.05 954.57
  C 699.93 954.33 701.55 952.12 703.82 950.67
  C 708.02 948.00 710.79 940.61 711.16 936.46
  Q 711.74 930.14 711.23 923.30
  C 710.96 919.73 709.69 916.55 707.82 913.55
  C 705.77 910.28 698.74 912.45 696.46 913.95
  Q 691.57 917.17 686.93 920.21"
/>
<path stroke="#fcbe34" vector-effect="non-scaling-stroke" d="
  M 897.90 965.21
  A 0.67 0.67 0.0 0 0 897.23 964.54
  A 0.67 0.67 0.0 0 0 896.56 965.21
  A 0.67 0.67 0.0 0 0 897.23 965.88
  A 0.67 0.67 0.0 0 0 897.90 965.21"
/>
</g>
<path fill="#f53a00" d="
  M 715.19 484.97
  L 718.78 485.09
  A 0.79 0.79 0.0 0 1 719.53 485.77
  L 719.79 487.81
  A 1.09 1.08 -68.1 0 0 720.01 488.33
  Q 722.51 491.72 726.94 498.18
  Q 732.04 505.62 737.94 512.35
  Q 743.07 518.22 749.12 523.21
  C 756.32 529.14 762.68 536.39 769.92 542.00
  Q 784.24 553.09 797.76 558.66
  Q 808.75 563.18 829.34 567.56
  C 837.92 569.38 845.33 568.21 852.33 563.73
  Q 860.67 558.40 867.26 551.83
  C 876.21 542.92 882.03 529.69 884.88 517.03
  C 885.85 512.75 888.33 508.97 893.24 508.94
  Q 897.53 508.92 901.77 508.22
  C 907.83 507.23 917.10 509.37 920.67 514.94
  C 925.05 521.77 928.30 528.97 931.41 536.64
  Q 934.10 543.29 936.92 548.81
  Q 943.36 561.42 949.02 573.03
  Q 952.65 580.47 955.03 591.17
  Q 959.52 611.40 964.11 628.97
  C 966.39 637.66 967.93 645.79 968.08 654.54
  Q 968.27 665.36 967.21 676.30
  C 966.42 684.46 965.83 692.62 965.21 700.80
  Q 964.84 705.80 963.96 710.23
  C 963.13 714.39 962.53 718.64 961.05 722.62
  Q 957.13 733.20 950.21 744.48
  C 945.51 752.14 938.69 758.64 933.01 765.33
  Q 931.24 767.41 929.68 770.01
  Q 925.73 776.59 922.42 783.51
  Q 917.95 792.83 912.47 799.58
  Q 902.26 812.13 889.02 824.84
  Q 882.36 831.23 873.42 838.06
  C 871.06 839.87 868.95 842.12 866.73 844.14
  C 857.30 852.75 849.19 863.74 845.34 875.90
  C 844.63 878.16 844.16 880.08 845.07 882.41
  Q 849.98 895.05 856.76 905.36
  C 859.18 909.05 862.62 911.96 865.61 915.34
  C 868.31 918.40 870.75 919.89 874.61 918.79
  C 878.49 917.68 883.20 917.15 886.28 914.46
  Q 900.10 902.43 901.03 882.90
  Q 901.18 879.86 902.47 877.32
  Q 902.73 876.81 903.29 876.72
  Q 905.79 876.31 908.00 876.77
  A 1.31 1.31 0.0 0 1 909.01 877.79
  Q 910.64 886.05 912.64 894.01
  C 915.14 903.96 915.56 914.49 917.61 924.40
  Q 918.89 930.55 918.91 936.29
  C 918.92 941.40 917.99 946.47 917.43 951.57
  C 916.43 960.70 915.66 970.09 913.85 978.95
  Q 911.41 990.93 908.24 1000.34
  Q 905.31 1009.02 898.98 1017.59
  Q 891.43 1027.81 881.82 1037.24
  Q 877.32 1041.65 872.38 1045.34
  C 867.91 1048.68 863.41 1052.18 859.57 1056.20
  Q 847.42 1068.93 839.24 1085.48
  Q 835.64 1092.75 831.68 1100.40
  C 822.99 1117.20 809.49 1131.11 792.16 1139.44
  Q 785.92 1142.44 779.85 1144.72
  Q 774.87 1146.59 766.92 1148.01
  Q 752.56 1150.57 738.53 1153.99
  Q 735.41 1154.75 723.75 1155.30
  Q 710.84 1155.91 690.40 1153.67
  C 684.97 1153.08 679.79 1151.07 674.48 1150.59
  C 667.57 1149.97 661.02 1149.41 654.34 1149.08
  Q 646.96 1148.71 638.86 1147.77
  Q 630.77 1146.83 616.44 1146.65
  C 610.61 1146.58 605.37 1143.56 600.34 1141.02
  Q 586.33 1133.93 574.57 1126.36
  Q 565.97 1120.81 558.36 1110.96
  Q 546.67 1095.82 537.94 1080.80
  Q 533.94 1073.91 531.02 1066.51
  C 527.90 1058.61 523.08 1051.68 520.09 1043.77
  Q 518.86 1040.50 517.83 1036.64
  Q 515.11 1026.50 513.05 1016.94
  Q 510.93 1007.15 508.87 998.76
  Q 506.53 989.25 506.21 982.86
  C 505.63 971.45 505.77 961.38 509.60 950.97
  C 515.11 935.98 522.69 923.83 531.75 908.61
  Q 536.06 901.37 538.49 895.19
  Q 541.42 887.72 544.82 880.25
  Q 548.17 872.90 549.18 867.22
  Q 550.34 860.74 549.47 853.26
  Q 547.76 838.51 544.80 825.00
  C 542.63 815.10 541.93 804.41 541.65 794.59
  Q 541.25 780.61 545.79 767.10
  C 546.64 764.57 548.31 761.01 551.39 760.65
  C 554.20 760.33 559.10 760.01 559.72 763.49
  C 560.91 770.26 562.16 777.32 566.19 782.88
  C 572.19 791.15 579.43 796.71 588.86 800.23
  Q 592.38 801.54 595.73 803.14
  Q 598.79 804.60 602.63 804.95
  Q 614.98 806.07 626.73 799.14
  Q 642.27 789.96 655.33 777.25
  C 662.85 769.94 669.89 758.77 671.34 748.28
  Q 672.51 739.86 672.31 737.94
  C 671.77 732.91 671.11 727.71 669.88 722.74
  Q 664.96 702.83 665.14 680.08
  Q 665.25 666.51 668.89 654.44
  Q 670.45 649.26 675.23 650.44
  Q 677.21 650.93 677.58 652.78
  Q 678.49 657.22 679.37 661.44
  C 683.17 679.59 696.37 692.84 713.95 697.47
  C 724.57 700.26 733.12 698.42 741.01 691.15
  Q 743.98 688.40 747.00 685.80
  C 750.87 682.46 753.12 678.07 754.60 673.56
  C 755.44 671.00 755.29 668.37 755.80 665.73
  C 756.38 662.73 755.04 657.85 754.15 655.20
  C 751.90 648.50 749.16 641.69 747.35 634.66
  Q 744.83 624.89 742.54 618.67
  Q 736.70 602.80 728.60 591.56
  C 720.19 579.89 712.16 568.40 703.82 556.81
  Q 697.88 548.53 693.44 543.79
  Q 685.98 535.82 675.92 528.40
  Q 669.81 523.90 660.68 519.37
  Q 648.53 513.34 635.42 505.76
  Q 631.44 503.45 625.73 501.30
  Q 621.98 499.89 617.14 498.57
  Q 598.59 493.51 579.60 488.40
  Q 572.33 486.45 565.67 481.36
  C 563.93 480.02 564.19 476.20 564.71 473.86
  Q 564.84 473.28 564.55 472.77
  C 563.21 470.40 561.54 468.15 560.18 465.84
  Q 550.37 449.14 548.10 428.82
  Q 547.13 420.20 547.72 409.28
  Q 547.98 404.41 548.73 400.72
  C 549.53 396.76 550.00 392.73 551.17 388.84
  Q 554.76 376.89 564.04 364.02
  Q 566.67 360.37 570.84 357.32
  Q 596.69 338.43 625.76 334.90
  Q 628.63 334.55 631.59 333.07
  Q 642.60 327.56 648.62 321.29
  C 653.53 316.17 658.30 308.70 660.30 301.62
  Q 662.22 294.82 663.52 287.49
  C 665.27 277.61 666.52 268.14 667.04 257.86
  Q 667.48 249.20 667.76 241.06
  Q 668.11 230.87 669.54 224.50
  Q 672.62 210.78 682.75 199.41
  Q 690.06 191.20 697.39 183.55
  Q 698.56 182.33 699.26 180.77
  A 1.31 1.28 -86.8 0 1 699.99 180.10
  Q 702.77 179.07 704.50 179.57
  Q 705.98 180.01 705.79 181.55
  Q 704.66 190.62 703.04 199.13
  Q 702.36 202.67 702.08 206.09
  C 701.81 209.33 701.28 212.69 701.53 215.97
  C 701.86 220.26 702.11 224.63 703.29 228.86
  Q 706.85 241.57 713.78 251.80
  C 724.03 266.92 736.00 280.82 747.00 295.44
  Q 749.65 298.96 752.80 305.21
  Q 755.06 309.68 755.63 314.24
  Q 757.32 327.61 755.35 340.92
  C 754.41 347.26 751.07 353.27 748.71 359.24
  C 745.04 368.55 739.87 376.94 733.96 385.44
  C 724.83 398.59 718.38 413.33 712.39 428.71
  Q 709.15 437.04 707.63 445.21
  Q 706.82 449.55 707.68 454.99
  Q 708.80 462.02 710.97 470.12
  C 712.22 474.78 713.02 479.69 714.34 484.31
  A 0.91 0.91 0.0 0 0 715.19 484.97
  Z
  M 674.86 391.90
  C 675.04 388.78 677.95 385.02 680.01 382.80
  Q 684.00 378.50 688.06 373.77
  Q 699.37 360.56 699.71 342.28
  Q 699.80 337.40 698.20 332.51
  Q 697.94 331.72 697.11 331.79
  Q 691.70 332.28 687.80 334.61
  C 680.13 339.19 673.30 345.80 666.96 352.47
  Q 664.18 355.40 661.29 357.92
  C 655.37 363.09 649.95 369.52 644.84 374.95
  Q 637.55 382.70 627.66 386.01
  Q 619.47 388.74 604.70 391.43
  C 598.20 392.62 594.31 398.69 593.50 404.79
  C 593.02 408.46 591.42 414.36 593.37 417.53
  Q 596.11 421.99 600.03 426.11
  Q 602.36 428.55 605.70 428.58
  Q 614.11 428.64 622.24 427.53
  Q 627.94 426.76 637.88 427.21
  C 642.26 427.41 646.83 427.06 651.18 426.50
  Q 658.69 425.53 664.67 420.36
  C 667.04 418.31 668.52 415.65 670.65 413.40
  C 672.86 411.07 674.15 407.05 674.27 404.11
  Q 674.52 397.60 674.86 391.90
  Z
  M 606.99 354.08
  C 600.07 356.99 594.16 362.15 589.09 367.59
  C 585.62 371.31 585.36 379.99 585.43 385.40
  Q 585.44 385.99 586.03 385.99
  L 595.94 386.00
  Q 596.46 386.00 596.56 385.50
  C 597.14 382.72 596.12 380.03 599.92 379.09
  Q 607.30 377.26 614.61 376.21
  C 620.35 375.39 624.03 371.71 626.74 366.81
  C 628.62 363.43 627.97 358.40 627.68 354.63
  Q 627.52 352.48 625.42 352.28
  C 619.22 351.68 612.93 351.58 606.99 354.08
  Z
  M 590.15 436.47
  A 2.09 2.07 35.6 0 1 589.81 434.47
  Q 591.66 429.35 590.79 423.75
  Q 590.66 422.88 589.79 422.78
  Q 583.52 422.05 578.59 427.32
  Q 576.92 429.10 576.82 431.75
  Q 576.51 439.40 577.90 444.79
  Q 579.02 449.14 581.62 455.48
  C 583.59 460.29 586.88 464.32 591.40 466.76
  Q 598.17 470.43 605.74 470.73
  Q 615.33 471.12 625.33 470.95
  C 630.64 470.86 635.39 469.04 637.30 464.11
  C 639.46 458.50 640.40 449.45 637.49 443.16
  C 634.30 436.24 632.63 433.56 624.25 434.13
  C 620.72 434.37 621.25 437.95 619.53 440.04
  Q 617.29 442.74 614.91 445.60
  C 613.71 447.05 611.72 448.26 609.85 448.25
  C 601.32 448.19 595.21 442.77 590.15 436.47
  Z
  M 904.99 543.94
  C 904.00 539.65 902.82 534.55 897.56 534.30
  Q 893.68 534.12 890.25 534.49
  C 888.56 534.66 887.67 536.11 886.94 537.47
  C 883.34 544.19 886.58 549.78 887.97 556.53
  C 888.73 560.24 892.63 566.60 896.51 567.65
  Q 901.36 568.95 906.87 568.34
  A 1.09 1.07 5.3 0 0 907.78 567.60
  C 909.06 563.64 910.60 553.83 908.02 550.01
  C 906.67 548.02 905.55 546.38 904.99 543.94
  Z
  M 827.34 722.79
  Q 824.67 725.22 824.50 729.49
  Q 824.12 738.83 824.58 746.87
  A 2.61 2.60 -0.9 0 0 827.13 749.33
  L 832.16 749.45
  Q 832.78 749.46 832.80 748.84
  L 832.90 745.77
  A 0.54 0.53 78.4 0 1 833.20 745.30
  Q 833.44 745.19 833.67 745.28
  Q 834.10 745.45 834.16 745.92
  C 834.44 748.28 836.78 750.29 839.04 750.86
  Q 846.90 752.83 853.92 755.82
  Q 857.29 757.26 860.83 757.70
  Q 879.53 760.02 895.70 757.78
  Q 901.97 756.90 906.67 752.04
  C 915.39 743.03 924.88 732.01 926.73 719.16
  C 927.99 710.35 929.06 699.61 923.13 692.08
  Q 922.75 691.60 922.15 691.52
  C 918.53 691.06 912.73 690.64 910.30 694.25
  C 907.78 698.02 906.01 702.59 902.53 705.52
  Q 899.78 707.84 896.29 709.27
  L 895.20 708.98
  Q 894.69 708.85 894.47 708.36
  Q 893.90 707.05 893.00 706.02
  Q 890.14 702.69 886.68 699.45
  C 879.45 692.66 885.99 681.44 890.90 675.52
  Q 897.21 667.90 901.51 661.46
  Q 908.11 651.57 907.79 634.85
  C 907.75 632.92 906.28 632.00 904.49 631.99
  C 900.33 631.95 897.03 631.97 893.21 633.82
  Q 889.01 635.86 884.98 637.73
  C 881.51 639.35 877.89 640.52 874.20 641.62
  Q 872.20 642.22 870.25 641.55
  C 866.33 640.21 862.66 638.64 859.62 635.55
  Q 856.00 631.88 852.95 628.84
  C 850.74 626.63 847.19 624.72 844.13 624.13
  C 836.65 622.69 829.02 621.20 821.48 620.75
  C 812.34 620.21 805.46 622.94 798.23 628.22
  Q 794.47 630.96 793.70 635.13
  C 792.05 644.11 793.27 652.84 800.96 658.87
  Q 810.37 666.26 821.58 671.98
  C 823.04 672.73 824.51 673.80 825.31 675.29
  Q 829.74 683.51 830.92 692.96
  C 831.36 696.46 830.38 700.15 829.90 703.73
  Q 829.58 706.13 828.36 710.08
  Q 826.48 716.19 827.34 722.79
  Z
  M 710.26 724.93
  A 0.69 0.68 -63.8 0 1 709.96 724.04
  Q 711.78 720.13 711.17 714.83
  Q 711.11 714.32 710.60 714.26
  Q 707.72 713.95 705.06 714.37
  Q 704.52 714.45 704.39 714.99
  C 703.55 718.55 700.71 718.27 697.87 718.38
  Q 697.28 718.40 697.24 718.99
  Q 696.53 729.23 697.59 735.11
  Q 698.44 739.83 703.06 745.63
  C 704.78 747.80 707.34 748.15 709.92 748.18
  Q 720.53 748.28 729.33 743.38
  C 731.82 742.00 731.13 735.79 730.95 733.24
  A 0.78 0.78 0.0 0 0 730.19 732.52
  C 728.66 732.49 727.19 732.56 725.84 731.72
  C 723.35 730.18 720.55 729.71 717.90 728.57
  Q 713.95 726.86 710.26 724.93
  Z
  M 575.07 1031.78
  Q 575.33 1039.66 576.32 1046.98
  C 577.06 1052.46 579.90 1056.26 584.14 1059.60
  C 586.13 1061.17 587.59 1063.23 589.53 1064.83
  Q 595.79 1070.02 600.57 1075.77
  C 610.05 1087.17 624.20 1096.94 639.23 1098.77
  C 657.42 1100.99 674.88 1100.19 692.77 1097.44
  Q 697.51 1096.71 701.25 1095.01
  C 709.22 1091.40 716.97 1087.28 725.80 1085.34
  Q 732.49 1083.87 737.44 1083.57
  Q 743.95 1083.18 751.76 1083.06
  Q 763.62 1082.89 779.71 1079.09
  Q 789.14 1076.87 795.02 1071.16
  C 799.04 1067.26 798.09 1060.59 796.55 1055.67
  Q 795.07 1050.92 790.42 1050.62
  Q 785.81 1050.32 780.90 1050.83
  Q 778.17 1051.11 771.84 1052.99
  Q 763.62 1055.43 754.82 1055.74
  Q 756.71 1053.92 759.43 1052.54
  Q 762.70 1050.88 764.23 1049.82
  C 766.67 1048.12 771.10 1045.82 772.66 1043.40
  Q 774.61 1040.37 777.52 1038.00
  Q 787.21 1033.10 789.99 1032.26
  Q 800.84 1028.98 804.76 1027.24
  Q 813.45 1023.37 822.19 1019.65
  C 828.21 1017.09 833.15 1013.45 838.34 1009.56
  C 843.17 1005.94 846.57 1001.29 850.44 996.79
  Q 854.83 991.69 854.31 986.08
  Q 854.08 983.58 852.73 981.85
  Q 850.97 979.59 848.75 978.98
  Q 843.43 977.53 833.63 976.45
  Q 832.56 974.24 833.56 973.13
  Q 833.88 972.77 834.04 972.31
  Q 837.52 962.34 837.28 951.86
  C 837.16 946.67 837.02 942.70 832.97 939.88
  Q 830.41 938.09 827.98 936.31
  Q 823.33 932.91 817.39 930.48
  Q 812.51 928.48 806.07 927.85
  Q 792.38 926.49 779.21 926.03
  Q 776.82 925.94 774.59 925.43
  C 771.53 924.72 768.47 924.98 765.70 923.32
  Q 760.25 920.07 754.93 917.43
  C 752.41 916.17 749.78 914.03 748.55 911.60
  Q 743.07 900.80 742.48 888.00
  Q 742.06 878.69 742.42 861.23
  Q 742.45 859.80 743.47 846.83
  Q 744.09 838.97 743.52 830.00
  C 743.36 827.56 742.60 825.46 742.45 823.05
  Q 742.29 820.59 741.29 818.18
  Q 740.13 815.40 738.84 812.83
  Q 738.12 811.40 737.40 809.90
  Q 736.05 807.08 733.76 804.99
  A 1.61 1.55 67.9 0 0 732.86 804.59
  Q 721.46 803.48 711.09 808.42
  C 707.53 810.12 705.53 811.09 703.36 813.83
  C 700.23 817.77 697.31 822.11 693.69 825.64
  C 691.04 828.24 688.31 831.00 686.61 834.36
  C 683.07 841.32 679.31 847.86 673.39 852.90
  C 667.23 858.15 659.55 862.29 652.55 866.82
  C 646.77 870.55 641.15 874.98 634.87 878.16
  Q 623.56 883.90 612.60 889.67
  Q 607.59 892.31 599.02 894.71
  Q 593.49 896.25 588.94 898.59
  Q 579.20 903.59 570.79 908.32
  Q 566.67 910.63 562.52 914.62
  Q 557.07 919.85 556.97 927.73
  C 556.86 936.99 557.05 947.45 560.89 956.03
  Q 563.84 962.60 568.30 970.51
  C 571.82 976.74 574.93 984.49 576.86 991.94
  Q 577.77 995.41 579.12 998.61
  Q 579.91 1000.48 579.82 1002.33
  C 579.65 1005.54 575.94 1005.30 573.49 1005.49
  Q 572.79 1005.55 572.78 1006.26
  Q 572.57 1019.60 572.82 1023.83
  Q 573.02 1027.39 575.07 1031.78
  Z
  M 899.28 980.26
  C 904.61 973.67 907.06 965.65 906.44 957.11
  C 906.04 951.74 903.62 946.36 897.31 947.45
  Q 896.05 947.67 895.55 948.82
  C 894.11 952.07 892.21 956.57 889.24 958.66
  Q 882.07 963.67 874.92 970.40
  Q 869.83 975.21 871.14 982.40
  Q 871.66 985.24 874.18 986.37
  Q 879.92 988.95 885.28 988.32
  C 888.84 987.90 891.70 985.64 894.79 983.95
  Q 897.48 982.48 899.28 980.26
  Z"
/>
<path fill="#f53a00" d="
  M 842.83 196.92
  L 842.74 195.99
  Q 842.68 195.43 843.23 195.31
  Q 844.10 195.10 844.29 194.28
  Q 844.42 193.74 844.97 193.74
  L 854.87 193.75
  Q 855.50 193.75 855.50 194.37
  L 855.50 201.11
  A 5.36 5.35 -89.9 0 1 850.14 206.47
  L 844.40 206.46
  A 3.04 3.04 0.0 0 1 841.37 203.40
  L 841.40 198.86
  Q 841.40 198.27 841.94 198.04
  L 842.26 197.90
  Q 842.91 197.62 842.83 196.92
  Z"
/>
<path fill="#ff991d" d="
  M 680.01 382.80
  C 677.95 385.02 675.04 388.78 674.86 391.90
  Q 674.52 397.60 674.27 404.11
  C 674.15 407.05 672.86 411.07 670.65 413.40
  C 668.52 415.65 667.04 418.31 664.67 420.36
  Q 658.69 425.53 651.18 426.50
  C 646.83 427.06 642.26 427.41 637.88 427.21
  Q 627.94 426.76 622.24 427.53
  Q 614.11 428.64 605.70 428.58
  Q 602.36 428.55 600.03 426.11
  Q 596.11 421.99 593.37 417.53
  C 591.42 414.36 593.02 408.46 593.50 404.79
  C 594.31 398.69 598.20 392.62 604.70 391.43
  Q 619.47 388.74 627.66 386.01
  Q 637.55 382.70 644.84 374.95
  C 649.95 369.52 655.37 363.09 661.29 357.92
  Q 664.18 355.40 666.96 352.47
  C 673.30 345.80 680.13 339.19 687.80 334.61
  Q 691.70 332.28 697.11 331.79
  Q 697.94 331.72 698.20 332.51
  Q 699.80 337.40 699.71 342.28
  Q 699.37 360.56 688.06 373.77
  Q 684.00 378.50 680.01 382.80
  Z"
/>
<path fill="#f8e34b" d="
  M 606.99 354.08
  C 612.93 351.58 619.22 351.68 625.42 352.28
  Q 627.52 352.48 627.68 354.63
  C 627.97 358.40 628.62 363.43 626.74 366.81
  C 624.03 371.71 620.35 375.39 614.61 376.21
  Q 607.30 377.26 599.92 379.09
  C 596.12 380.03 597.14 382.72 596.56 385.50
  Q 596.46 386.00 595.94 386.00
  L 586.03 385.99
  Q 585.44 385.99 585.43 385.40
  C 585.36 379.99 585.62 371.31 589.09 367.59
  C 594.16 362.15 600.07 356.99 606.99 354.08
  Z"
/>
<path fill="#f8e34b" d="
  M 590.15 436.47
  C 595.21 442.77 601.32 448.19 609.85 448.25
  C 611.72 448.26 613.71 447.05 614.91 445.60
  Q 617.29 442.74 619.53 440.04
  C 621.25 437.95 620.72 434.37 624.25 434.13
  C 632.63 433.56 634.30 436.24 637.49 443.16
  C 640.40 449.45 639.46 458.50 637.30 464.11
  C 635.39 469.04 630.64 470.86 625.33 470.95
  Q 615.33 471.12 605.74 470.73
  Q 598.17 470.43 591.40 466.76
  C 586.88 464.32 583.59 460.29 581.62 455.48
  Q 579.02 449.14 577.90 444.79
  Q 576.51 439.40 576.82 431.75
  Q 576.92 429.10 578.59 427.32
  Q 583.52 422.05 589.79 422.78
  Q 590.66 422.88 590.79 423.75
  Q 591.66 429.35 589.81 434.47
  A 2.09 2.07 35.6 0 0 590.15 436.47
  Z
  M 589.79 449.00
  A 0.79 0.79 0.0 0 0 589.00 448.21
  A 0.79 0.79 0.0 0 0 588.21 449.00
  A 0.79 0.79 0.0 0 0 589.00 449.79
  A 0.79 0.79 0.0 0 0 589.79 449.00
  Z"
/>
<circle fill="#ff991d" cx="589.00" cy="449.00" r="0.79"/>
<path fill="#f8e34b" d="
  M 904.99 543.94
  C 905.55 546.38 906.67 548.02 908.02 550.01
  C 910.60 553.83 909.06 563.64 907.78 567.60
  A 1.09 1.07 5.3 0 1 906.87 568.34
  Q 901.36 568.95 896.51 567.65
  C 892.63 566.60 888.73 560.24 887.97 556.53
  C 886.58 549.78 883.34 544.19 886.94 537.47
  C 887.67 536.11 888.56 534.66 890.25 534.49
  Q 893.68 534.12 897.56 534.30
  C 902.82 534.55 904.00 539.65 904.99 543.94
  Z"
/>
<path fill="#ff991d" d="
  M 896.29 709.27
  Q 889.42 712.40 886.26 716.23
  Q 883.96 719.01 882.06 724.80
  Q 881.20 727.43 879.87 729.05
  C 876.64 732.99 871.31 734.42 866.24 733.92
  Q 858.51 733.15 852.76 730.52
  Q 850.68 729.56 847.11 726.61
  C 841.87 722.29 835.23 721.93 827.34 722.79
  Q 826.48 716.19 828.36 710.08
  Q 829.58 706.13 829.90 703.73
  C 830.38 700.15 831.36 696.46 830.92 692.96
  Q 829.74 683.51 825.31 675.29
  C 824.51 673.80 823.04 672.73 821.58 671.98
  Q 810.37 666.26 800.96 658.87
  C 793.27 652.84 792.05 644.11 793.70 635.13
  Q 794.47 630.96 798.23 628.22
  C 805.46 622.94 812.34 620.21 821.48 620.75
  C 829.02 621.20 836.65 622.69 844.13 624.13
  C 847.19 624.72 850.74 626.63 852.95 628.84
  Q 856.00 631.88 859.62 635.55
  C 862.66 638.64 866.33 640.21 870.25 641.55
  Q 872.20 642.22 874.20 641.62
  C 877.89 640.52 881.51 639.35 884.98 637.73
  Q 889.01 635.86 893.21 633.82
  C 897.03 631.97 900.33 631.95 904.49 631.99
  C 906.28 632.00 907.75 632.92 907.79 634.85
  Q 908.11 651.57 901.51 661.46
  Q 897.21 667.90 890.90 675.52
  C 885.99 681.44 879.45 692.66 886.68 699.45
  Q 890.14 702.69 893.00 706.02
  Q 893.90 707.05 894.47 708.36
  Q 894.69 708.85 895.20 708.98
  L 896.29 709.27
  Z"
/>
<path fill="#f53a00" d="
  M 535.78 737.78
  Q 536.36 735.91 535.42 734.32
  Q 534.42 732.62 534.34 730.79
  Q 533.88 721.07 535.11 709.72
  C 537.08 691.54 544.81 675.96 559.05 664.46
  Q 565.20 659.51 572.03 655.52
  Q 575.03 653.77 578.79 654.87
  Q 579.27 655.01 579.48 655.47
  C 580.61 657.94 579.14 661.21 577.50 663.06
  C 574.11 666.90 571.50 670.38 570.89 675.83
  C 570.06 683.33 576.15 689.54 576.73 696.72
  C 577.53 706.56 578.13 718.18 573.84 727.02
  C 571.36 732.11 567.51 738.17 562.57 740.51
  C 553.67 744.72 541.95 745.83 531.47 745.29
  Q 530.37 745.23 530.38 744.13
  L 530.43 739.32
  Q 530.44 738.20 531.55 738.20
  L 535.20 738.21
  Q 535.64 738.21 535.78 737.78
  Z
  M 557.80 705.03
  C 559.57 702.94 558.65 693.86 558.29 690.85
  A 0.80 0.80 0.0 0 0 557.67 690.17
  C 554.46 689.49 551.73 689.93 549.47 692.55
  C 543.82 699.10 543.78 707.87 544.63 716.28
  A 0.56 0.56 0.0 0 0 545.15 716.78
  Q 548.00 716.97 550.80 716.63
  C 554.68 716.15 557.99 714.42 561.80 713.88
  Q 562.51 713.78 562.63 713.08
  C 563.22 709.71 562.71 705.11 558.12 705.63
  A 0.37 0.36 -73.2 0 1 557.80 705.03
  Z"
/>
<path fill="#f8e34b" d="
  M 557.80 705.03
  A 0.37 0.36 -73.2 0 0 558.12 705.63
  C 562.71 705.11 563.22 709.71 562.63 713.08
  Q 562.51 713.78 561.80 713.88
  C 557.99 714.42 554.68 716.15 550.80 716.63
  Q 548.00 716.97 545.15 716.78
  A 0.56 0.56 0.0 0 1 544.63 716.28
  C 543.78 707.87 543.82 699.10 549.47 692.55
  C 551.73 689.93 554.46 689.49 557.67 690.17
  A 0.80 0.80 0.0 0 1 558.29 690.85
  C 558.65 693.86 559.57 702.94 557.80 705.03
  Z"
/>
<path fill="#f8e34b" d="
  M 827.34 722.79
  C 835.23 721.93 841.87 722.29 847.11 726.61
  Q 850.68 729.56 852.76 730.52
  Q 858.51 733.15 866.24 733.92
  C 871.31 734.42 876.64 732.99 879.87 729.05
  Q 881.20 727.43 882.06 724.80
  Q 883.96 719.01 886.26 716.23
  Q 889.42 712.40 896.29 709.27
  Q 899.78 707.84 902.53 705.52
  C 906.01 702.59 907.78 698.02 910.30 694.25
  C 912.73 690.64 918.53 691.06 922.15 691.52
  Q 922.75 691.60 923.13 692.08
  C 929.06 699.61 927.99 710.35 926.73 719.16
  C 924.88 732.01 915.39 743.03 906.67 752.04
  Q 901.97 756.90 895.70 757.78
  Q 879.53 760.02 860.83 757.70
  Q 857.29 757.26 853.92 755.82
  Q 846.90 752.83 839.04 750.86
  C 836.78 750.29 834.44 748.28 834.16 745.92
  Q 834.10 745.45 833.67 745.28
  Q 833.44 745.19 833.20 745.30
  A 0.54 0.53 78.4 0 0 832.90 745.77
  L 832.80 748.84
  Q 832.78 749.46 832.16 749.45
  L 827.13 749.33
  A 2.61 2.60 -0.9 0 1 824.58 746.87
  Q 824.12 738.83 824.50 729.49
  Q 824.67 725.22 827.34 722.79
  Z"
/>
<path fill="#f8e34b" d="
  M 710.26 724.93
  Q 713.95 726.86 717.90 728.57
  C 720.55 729.71 723.35 730.18 725.84 731.72
  C 727.19 732.56 728.66 732.49 730.19 732.52
  A 0.78 0.78 0.0 0 1 730.95 733.24
  C 731.13 735.79 731.82 742.00 729.33 743.38
  Q 720.53 748.28 709.92 748.18
  C 707.34 748.15 704.78 747.80 703.06 745.63
  Q 698.44 739.83 697.59 735.11
  Q 696.53 729.23 697.24 718.99
  Q 697.28 718.40 697.87 718.38
  C 700.71 718.27 703.55 718.55 704.39 714.99
  Q 704.52 714.45 705.06 714.37
  Q 707.72 713.95 710.60 714.26
  Q 711.11 714.32 711.17 714.83
  Q 711.78 720.13 709.96 724.04
  A 0.69 0.68 -63.8 0 0 710.26 724.93
  Z
  M 706.3169 734.0486
  A 0.79 0.64 86.6 0 0 706.9089 733.2220
  A 0.79 0.64 86.6 0 0 706.2231 732.4714
  A 0.79 0.64 86.6 0 0 705.6311 733.2980
  A 0.79 0.64 86.6 0 0 706.3169 734.0486
  Z"
/>
<ellipse fill="#ff991d" cx="0.00" cy="0.00" transform="translate(706.27,733.26) rotate(86.6)" rx="0.79" ry="0.64"/>
<path fill="#ff991d" d="
  M 833.63 976.45
  Q 828.64 975.76 823.99 975.15
  C 815.22 974.01 807.11 973.97 798.07 975.30
  Q 787.51 976.87 776.96 978.47
  C 766.82 980.02 756.29 985.12 747.50 990.14
  Q 743.12 992.64 738.86 996.53
  Q 731.62 1003.13 723.27 1008.08
  Q 707.54 1017.40 691.43 1025.16
  Q 688.37 1026.64 684.25 1026.34
  Q 665.85 1025.01 652.67 1013.51
  Q 648.71 1010.06 644.93 1006.33
  C 640.88 1002.34 634.58 1000.64 628.78 1001.20
  C 617.10 1002.32 605.37 1005.78 594.74 1010.71
  Q 581.34 1016.93 575.07 1031.78
  Q 573.02 1027.39 572.82 1023.83
  Q 572.57 1019.60 572.78 1006.26
  Q 572.79 1005.55 573.49 1005.49
  C 575.94 1005.30 579.65 1005.54 579.82 1002.33
  Q 579.91 1000.48 579.12 998.61
  Q 577.77 995.41 576.86 991.94
  C 574.93 984.49 571.82 976.74 568.30 970.51
  Q 563.84 962.60 560.89 956.03
  C 557.05 947.45 556.86 936.99 556.97 927.73
  Q 557.07 919.85 562.52 914.62
  Q 566.67 910.63 570.79 908.32
  Q 579.20 903.59 588.94 898.59
  Q 593.49 896.25 599.02 894.71
  Q 607.59 892.31 612.60 889.67
  Q 623.56 883.90 634.87 878.16
  C 641.15 874.98 646.77 870.55 652.55 866.82
  C 659.55 862.29 667.23 858.15 673.39 852.90
  C 679.31 847.86 683.07 841.32 686.61 834.36
  C 688.31 831.00 691.04 828.24 693.69 825.64
  C 697.31 822.11 700.23 817.77 703.36 813.83
  C 705.53 811.09 707.53 810.12 711.09 808.42
  Q 721.46 803.48 732.86 804.59
  A 1.61 1.55 67.9 0 1 733.76 804.99
  Q 736.05 807.08 737.40 809.90
  Q 738.12 811.40 738.84 812.83
  Q 740.13 815.40 741.29 818.18
  Q 742.29 820.59 742.45 823.05
  C 742.60 825.46 743.36 827.56 743.52 830.00
  Q 744.09 838.97 743.47 846.83
  Q 742.45 859.80 742.42 861.23
  Q 742.06 878.69 742.48 888.00
  Q 743.07 900.80 748.55 911.60
  C 749.78 914.03 752.41 916.17 754.93 917.43
  Q 760.25 920.07 765.70 923.32
  C 768.47 924.98 771.53 924.72 774.59 925.43
  Q 776.82 925.94 779.21 926.03
  Q 792.38 926.49 806.07 927.85
  Q 812.51 928.48 817.39 930.48
  Q 823.33 932.91 827.98 936.31
  Q 830.41 938.09 832.97 939.88
  C 837.02 942.70 837.16 946.67 837.28 951.86
  Q 837.52 962.34 834.04 972.31
  Q 833.88 972.77 833.56 973.13
  Q 832.56 974.24 833.63 976.45
  Z
  M 686.93 920.21
  C 675.69 927.58 661.88 927.66 648.68 927.74
  C 643.86 927.77 637.65 929.20 634.43 933.37
  Q 630.76 938.13 626.95 942.11
  Q 626.46 942.62 626.46 943.32
  L 626.45 951.60
  A 2.90 2.90 0.0 0 0 629.35 954.50
  L 634.33 954.50
  Q 634.92 954.50 634.95 953.90
  Q 635.05 951.45 634.86 948.84
  Q 634.72 946.78 635.91 945.39
  Q 637.68 943.34 639.24 943.23
  Q 648.23 942.62 666.33 944.89
  C 674.95 945.98 681.25 950.69 688.93 953.64
  Q 692.36 954.95 697.05 954.57
  C 699.93 954.33 701.55 952.12 703.82 950.67
  C 708.02 948.00 710.79 940.61 711.16 936.46
  Q 711.74 930.14 711.23 923.30
  C 710.96 919.73 709.69 916.55 707.82 913.55
  C 705.77 910.28 698.74 912.45 696.46 913.95
  Q 691.57 917.17 686.93 920.21
  Z"
/>
<path fill="#f8e34b" d="
  M 648.68 927.74
  C 661.88 927.66 675.69 927.58 686.93 920.21
  Q 691.57 917.17 696.46 913.95
  C 698.74 912.45 705.77 910.28 707.82 913.55
  C 709.69 916.55 710.96 919.73 711.23 923.30
  Q 711.74 930.14 711.16 936.46
  C 710.79 940.61 708.02 948.00 703.82 950.67
  C 701.55 952.12 699.93 954.33 697.05 954.57
  Q 692.36 954.95 688.93 953.64
  C 681.25 950.69 674.95 945.98 666.33 944.89
  Q 648.23 942.62 639.24 943.23
  Q 637.68 943.34 635.91 945.39
  Q 634.72 946.78 634.86 948.84
  Q 635.05 951.45 634.95 953.90
  Q 634.92 954.50 634.33 954.50
  L 629.35 954.50
  A 2.90 2.90 0.0 0 1 626.45 951.60
  L 626.46 943.32
  Q 626.46 942.62 626.95 942.11
  Q 630.76 938.13 634.43 933.37
  C 637.65 929.20 643.86 927.77 648.68 927.74
  Z"
/>
<path fill="#f8e34b" d="
  M 906.44 957.11
  C 907.06 965.65 904.61 973.67 899.28 980.26
  Q 897.48 982.48 894.79 983.95
  C 891.70 985.64 888.84 987.90 885.28 988.32
  Q 879.92 988.95 874.18 986.37
  Q 871.66 985.24 871.14 982.40
  Q 869.83 975.21 874.92 970.40
  Q 882.07 963.67 889.24 958.66
  C 892.21 956.57 894.11 952.07 895.55 948.82
  Q 896.05 947.67 897.31 947.45
  C 903.62 946.36 906.04 951.74 906.44 957.11
  Z
  M 897.90 965.21
  A 0.67 0.67 0.0 0 0 897.23 964.54
  A 0.67 0.67 0.0 0 0 896.56 965.21
  A 0.67 0.67 0.0 0 0 897.23 965.88
  A 0.67 0.67 0.0 0 0 897.90 965.21
  Z"
/>
<circle fill="#ff991d" cx="897.23" cy="965.21" r="0.67"/>
<path fill="#f8e34b" d="
  M 833.63 976.45
  Q 843.43 977.53 848.75 978.98
  Q 850.97 979.59 852.73 981.85
  Q 854.08 983.58 854.31 986.08
  Q 854.83 991.69 850.44 996.79
  C 846.57 1001.29 843.17 1005.94 838.34 1009.56
  C 833.15 1013.45 828.21 1017.09 822.19 1019.65
  Q 813.45 1023.37 804.76 1027.24
  Q 800.84 1028.98 789.99 1032.26
  Q 787.21 1033.10 777.52 1038.00
  Q 763.33 1038.02 749.70 1041.78
  Q 746.84 1042.57 745.77 1044.04
  C 743.93 1046.56 741.45 1049.31 742.62 1052.65
  Q 742.79 1053.14 743.26 1053.34
  Q 744.36 1053.82 746.24 1054.81
  Q 750.68 1057.18 754.82 1055.74
  Q 763.62 1055.43 771.84 1052.99
  Q 778.17 1051.11 780.90 1050.83
  Q 785.81 1050.32 790.42 1050.62
  Q 795.07 1050.92 796.55 1055.67
  C 798.09 1060.59 799.04 1067.26 795.02 1071.16
  Q 789.14 1076.87 779.71 1079.09
  Q 763.62 1082.89 751.76 1083.06
  Q 743.95 1083.18 737.44 1083.57
  Q 732.49 1083.87 725.80 1085.34
  C 716.97 1087.28 709.22 1091.40 701.25 1095.01
  Q 697.51 1096.71 692.77 1097.44
  C 674.88 1100.19 657.42 1100.99 639.23 1098.77
  C 624.20 1096.94 610.05 1087.17 600.57 1075.77
  Q 595.79 1070.02 589.53 1064.83
  C 587.59 1063.23 586.13 1061.17 584.14 1059.60
  C 579.90 1056.26 577.06 1052.46 576.32 1046.98
  Q 575.33 1039.66 575.07 1031.78
  Q 581.34 1016.93 594.74 1010.71
  C 605.37 1005.78 617.10 1002.32 628.78 1001.20
  C 634.58 1000.64 640.88 1002.34 644.93 1006.33
  Q 648.71 1010.06 652.67 1013.51
  Q 665.85 1025.01 684.25 1026.34
  Q 688.37 1026.64 691.43 1025.16
  Q 707.54 1017.40 723.27 1008.08
  Q 731.62 1003.13 738.86 996.53
  Q 743.12 992.64 747.50 990.14
  C 756.29 985.12 766.82 980.02 776.96 978.47
  Q 787.51 976.87 798.07 975.30
  C 807.11 973.97 815.22 974.01 823.99 975.15
  Q 828.64 975.76 833.63 976.45
  Z"
/>
<path fill="#ff991d" d="
  M 777.52 1038.00
  Q 774.61 1040.37 772.66 1043.40
  C 771.10 1045.82 766.67 1048.12 764.23 1049.82
  Q 762.70 1050.88 759.43 1052.54
  Q 756.71 1053.92 754.82 1055.74
  Q 750.68 1057.18 746.24 1054.81
  Q 744.36 1053.82 743.26 1053.34
  Q 742.79 1053.14 742.62 1052.65
  C 741.45 1049.31 743.93 1046.56 745.77 1044.04
  Q 746.84 1042.57 749.70 1041.78
  Q 763.33 1038.02 777.52 1038.00
  Z"
/>
</svg>
