<?xml version="1.0" encoding="UTF-8" standalone="no"?>
<!DOCTYPE svg PUBLIC "-//W3C//DTD SVG 1.1//EN" "http://www.w3.org/Graphics/SVG/1.1/DTD/svg11.dtd">
<svg xmlns="http://www.w3.org/2000/svg" version="1.1" viewBox="0.00 0.00 1448.00 1448.00">
<g stroke-width="2.00" fill="none" stroke-linecap="butt">
<path stroke="#fa9b28" vector-effect="non-scaling-stroke" d="
  M 585.77 230.66
  L 577.89 230.58
  A 0.77 0.77 0.0 0 0 577.11 231.30
  L 576.61 239.25"
/>
<path stroke="#fd7611" vector-effect="non-scaling-stroke" d="
  M 576.61 239.25
  Q 570.92 250.47 574.48 262.14
  Q 574.62 262.58 574.98 262.86
  Q 577.55 264.86 580.40 264.10
  C 583.65 263.24 586.57 262.14 590.01 261.80
  C 600.81 260.71 610.01 256.37 619.21 250.80
  Q 625.50 247.00 628.80 246.27
  Q 637.89 244.23 645.88 241.75
  Q 648.49 240.93 656.65 239.19
  Q 663.31 237.77 669.39 234.70
  Q 669.79 234.50 674.63 232.69
  C 678.74 231.16 682.14 227.53 685.37 224.55
  C 688.28 221.85 687.61 214.25 687.26 210.57
  C 687.07 208.62 687.37 207.31 685.88 205.71
  C 682.37 201.95 677.33 198.08 671.72 199.62
  Q 659.77 202.88 649.92 208.32
  Q 643.15 212.07 638.14 214.08
  Q 621.05 220.97 602.76 223.81
  Q 595.41 224.96 590.47 230.00
  Q 590.09 230.39 589.56 230.50
  Q 587.72 230.90 585.77 230.66"
/>
<path stroke="#fcbe34" vector-effect="non-scaling-stroke" d="
  M 576.61 239.25
  Q 577.07 242.11 578.42 243.89
  Q 578.74 244.31 579.26 244.40
  C 581.62 244.82 583.98 244.99 585.94 243.21
  C 589.59 239.92 590.49 237.49 589.43 232.62
  Q 589.33 232.14 588.87 231.95
  L 585.77 230.66"
/>
<path stroke="#fa9b28" vector-effect="non-scaling-stroke" d="
  M 557.65 313.06
  Q 560.64 301.38 559.78 289.21
  Q 559.73 288.47 558.99 288.47
  C 556.57 288.49 553.69 287.95 551.97 290.23
  C 546.34 297.73 547.03 305.45 548.92 314.22
  Q 548.99 314.58 549.28 314.81
  C 550.95 316.09 553.71 315.80 555.60 315.28
  Q 557.20 314.84 557.65 313.06"
/>
<path stroke="#fa9b28" vector-effect="non-scaling-stroke" d="
  M 913.09 437.97
  C 914.99 435.02 916.06 431.76 916.26 428.20
  Q 916.65 421.16 916.15 413.55
  Q 916.11 412.95 915.51 412.88
  Q 912.20 412.50 909.11 413.09
  A 1.11 1.10 -84.0 0 0 908.29 413.76
  C 907.63 415.36 907.81 417.36 907.40 419.04
  Q 905.57 426.41 904.03 434.78
  Q 903.52 437.52 903.77 440.13
  Q 903.84 440.87 904.56 441.04
  Q 910.23 442.41 913.09 437.97"
/>
<path stroke="#fa9b28" vector-effect="non-scaling-stroke" d="
  M 782.32 507.73
  C 779.45 514.01 780.41 521.90 782.19 528.46
  Q 782.76 530.59 784.58 532.41
  Q 790.05 537.87 796.11 542.33
  C 801.45 546.26 814.42 545.86 818.10 539.28
  Q 823.78 529.10 834.31 526.59
  Q 844.59 524.14 855.76 521.31
  Q 858.36 520.64 864.19 517.65"
/>
<path stroke="#fd7611" vector-effect="non-scaling-stroke" d="
  M 864.19 517.65
  Q 873.61 514.84 878.35 508.02
  Q 881.38 503.67 884.38 495.67
  Q 887.25 488.03 888.76 481.76
  Q 891.32 471.16 890.66 459.29
  Q 890.63 458.72 890.31 458.26
  Q 889.64 457.27 889.28 456.09
  A 2.97 2.97 0.0 0 0 886.50 453.97
  Q 878.50 453.77 871.30 453.88
  C 864.42 453.98 857.83 455.62 851.40 457.72
  C 844.66 459.92 838.48 460.73 832.09 456.96
  C 826.47 453.64 819.37 450.30 813.06 451.37
  Q 806.52 452.48 797.75 455.22
  Q 795.30 455.99 793.53 457.54
  Q 790.94 459.80 789.44 462.44
  C 785.17 469.96 781.60 478.86 780.88 487.45
  Q 780.21 495.44 781.02 499.50
  Q 781.86 503.64 782.32 507.73"
/>
<path stroke="#fcbe34" vector-effect="non-scaling-stroke" d="
  M 864.19 517.65
  Q 864.70 516.51 866.62 514.86
  C 869.05 512.77 868.44 507.22 868.16 504.20
  Q 868.12 503.66 867.61 503.46
  C 862.85 501.54 852.46 498.74 847.67 502.21
  Q 843.22 505.45 837.15 507.57
  Q 826.98 511.13 815.75 513.42
  C 814.38 513.70 813.16 514.61 811.69 514.57
  Q 811.25 514.55 810.90 514.30
  Q 807.50 511.86 805.44 508.27
  Q 805.23 507.89 804.79 507.89
  L 782.32 507.73"
/>
<path stroke="#fa9b28" vector-effect="non-scaling-stroke" d="
  M 572.80 712.87
  C 572.95 710.83 573.83 708.95 573.92 706.86
  Q 574.18 700.95 573.94 695.30
  A 1.10 1.09 -76.7 0 0 573.37 694.37
  C 569.85 692.39 564.13 692.59 560.30 693.12
  Q 553.85 694.00 553.31 701.04
  Q 552.42 712.54 542.70 722.91
  Q 541.35 724.35 539.53 724.99
  Q 533.39 727.15 527.87 729.85
  Q 522.52 732.47 520.48 734.78
  Q 514.43 741.62 514.52 750.88
  C 514.56 755.62 516.59 760.89 520.22 763.82
  Q 528.20 770.29 536.65 777.01
  C 539.10 778.95 540.81 781.02 541.82 783.85
  Q 542.06 784.52 542.76 784.60
  Q 546.75 785.04 550.73 784.57
  Q 551.29 784.50 551.39 783.94
  C 551.74 781.78 551.61 779.12 549.67 777.75
  C 546.15 775.26 546.90 771.23 548.92 767.99
  Q 551.01 764.63 552.96 762.06
  Q 556.13 757.87 562.77 754.52
  C 573.27 749.23 586.64 744.03 586.96 729.88
  C 587.03 726.76 587.02 723.65 586.67 720.58
  A 0.80 0.80 0.0 0 0 586.22 719.95
  Q 581.22 717.69 576.50 715.95
  Q 574.63 715.27 573.12 713.73
  Q 572.77 713.37 572.80 712.87"
/>
<path stroke="#fa9b28" vector-effect="non-scaling-stroke" d="
  M 673.19 868.29
  Q 674.21 871.19 676.12 874.19
  C 678.98 878.69 687.16 878.30 685.75 885.44
  Q 685.54 886.54 686.65 886.57
  C 689.44 886.67 692.22 886.79 694.88 885.74
  Q 696.84 884.97 699.04 885.26
  Q 699.81 885.37 699.81 884.59
  C 699.82 878.86 699.25 872.05 701.20 866.71
  Q 701.81 865.03 704.21 862.04
  Q 709.42 855.56 709.97 846.16"
/>
<path stroke="#fd7611" vector-effect="non-scaling-stroke" d="
  M 709.97 846.16
  Q 717.40 841.13 724.18 834.65
  Q 726.79 832.16 728.39 829.80
  C 731.35 825.46 734.76 821.23 737.02 816.78
  Q 739.55 811.82 742.71 805.90
  Q 745.16 801.34 745.94 796.99
  Q 747.49 788.29 746.38 778.61
  Q 745.85 773.98 743.45 767.35
  C 740.91 760.33 738.23 752.75 732.85 747.88
  Q 730.12 745.42 727.58 742.69
  Q 722.04 736.74 713.57 732.27
  Q 711.12 730.98 708.33 731.00
  Q 699.38 731.08 691.02 731.02
  Q 687.53 730.99 684.47 732.86
  Q 683.04 733.72 681.62 734.42
  Q 671.61 739.32 661.28 744.26
  C 655.75 746.91 651.26 751.85 647.66 756.42
  Q 646.32 758.13 644.43 759.29
  C 636.18 764.40 626.32 766.78 618.02 772.34
  Q 613.28 775.52 608.53 778.90
  C 602.12 783.48 594.58 785.62 587.90 789.71
  Q 584.86 791.58 582.04 793.60
  Q 578.72 795.98 578.41 799.62
  Q 578.08 803.55 578.31 808.68
  C 578.48 812.60 580.24 816.15 582.45 819.20
  C 584.86 822.53 587.39 825.77 590.43 828.59
  Q 593.30 831.25 595.99 834.21
  Q 600.09 838.71 603.09 840.03
  Q 610.80 843.40 613.93 845.26
  Q 619.56 848.61 625.06 851.13
  Q 630.17 853.46 632.76 854.90
  Q 636.43 856.93 640.09 858.75
  Q 641.74 859.56 643.20 859.86
  Q 644.96 860.23 646.62 862.07
  Q 647.81 863.39 647.74 865.22
  Q 647.63 868.01 647.64 870.58
  A 0.53 0.53 0.0 0 0 648.14 871.11
  Q 650.65 871.24 652.83 870.74
  Q 656.54 869.89 660.22 869.00
  C 664.38 867.98 668.78 868.14 673.19 868.29"
/>
<path stroke="#fcbe34" vector-effect="non-scaling-stroke" d="
  M 709.97 846.16
  Q 709.77 843.38 709.87 838.50
  C 709.92 835.33 708.53 835.17 706.74 833.20
  A 1.09 1.07 -20.9 0 0 705.94 832.85
  L 698.30 832.89
  Q 697.74 832.89 697.52 833.42
  Q 696.15 836.71 693.83 839.94
  Q 691.93 842.59 689.07 843.92
  Q 685.25 845.68 681.31 847.92
  Q 674.90 851.56 673.39 856.43
  Q 672.19 860.33 673.19 868.29"
/>
<path stroke="#fa9b28" vector-effect="non-scaling-stroke" d="
  M 794.67 764.61
  C 787.77 766.83 788.63 775.14 789.34 781.02
  C 789.62 783.41 791.15 784.41 791.95 786.49
  A 1.47 1.46 -4.0 0 0 793.01 787.40
  C 796.33 788.13 801.63 788.76 804.16 786.08
  Q 811.39 778.40 815.24 769.15
  Q 816.04 767.23 816.89 765.47
  C 819.40 760.24 819.44 753.76 818.19 748.04
  Q 817.95 746.97 817.33 745.99
  Q 817.01 745.49 816.44 745.35
  Q 813.98 744.74 811.51 745.52
  A 1.31 1.29 -4.9 0 0 810.62 746.56
  C 810.30 748.67 809.93 750.51 808.36 752.11
  Q 803.22 757.33 797.50 761.71
  Q 796.34 762.60 795.51 763.95
  A 1.59 1.57 6.6 0 1 794.67 764.61"
/>
<path stroke="#fd7611" vector-effect="non-scaling-stroke" d="
  M 716.92 957.11
  Q 714.74 956.68 713.50 955.73
  Q 706.99 950.67 700.81 942.81
  Q 699.12 940.67 697.95 935.93
  C 696.84 931.38 698.94 926.43 700.73 922.39
  C 703.72 915.62 707.13 910.01 705.22 902.26
  Q 704.28 898.45 702.52 894.55
  A 5.05 5.04 -0.6 0 0 699.90 891.99
  Q 696.66 890.62 693.33 888.87
  Q 691.77 888.04 690.03 888.07
  C 687.37 888.11 684.37 887.53 681.93 888.64
  Q 680.23 889.41 678.62 890.55
  C 672.58 894.83 666.60 899.38 663.48 906.24
  Q 661.72 910.11 659.57 913.88
  Q 655.84 920.42 653.23 928.53
  C 650.16 938.05 652.63 950.43 655.96 959.74
  Q 657.84 964.99 660.05 970.66
  Q 662.16 976.10 661.80 983.41
  C 661.72 985.19 660.53 986.54 659.13 987.44
  Q 652.66 991.63 645.56 995.22
  Q 639.23 998.42 637.32 1005.19
  Q 637.18 1005.67 636.69 1005.73
  Q 635.88 1005.84 635.01 1005.65"
/>
<path stroke="#fa9b28" vector-effect="non-scaling-stroke" d="
  M 635.01 1005.65
  Q 631.93 1000.94 630.87 997.64
  C 627.24 986.31 627.80 973.65 627.71 961.34
  Q 627.70 960.75 627.28 960.33
  C 626.43 959.48 626.48 958.28 625.57 957.22
  Q 624.49 955.97 623.31 954.84
  Q 622.95 954.49 622.46 954.49
  L 612.35 954.49
  Q 611.74 954.49 611.26 954.86
  Q 606.30 958.63 604.75 965.65
  C 603.72 970.31 597.81 990.39 591.19 989.30
  Q 585.30 988.33 577.31 988.38
  C 573.38 988.41 569.95 992.11 569.74 995.94
  Q 569.26 1004.59 572.45 1012.08
  Q 573.97 1015.65 578.24 1020.62
  Q 586.03 1029.68 593.39 1037.92
  C 594.75 1039.44 596.54 1040.63 597.77 1042.41
  Q 605.17 1053.04 616.01 1060.62
  C 627.02 1068.32 642.14 1065.37 654.77 1064.88
  Q 660.17 1064.67 665.88 1064.68
  A 1.62 1.58 -64.6 0 0 666.91 1064.30
  Q 669.68 1061.97 672.56 1059.39
  C 673.97 1058.13 675.55 1057.72 677.02 1056.54
  Q 683.17 1051.60 688.41 1043.12
  Q 689.33 1041.62 690.83 1042.56
  Q 691.22 1042.81 691.27 1043.27
  C 691.35 1043.91 691.53 1044.30 692.05 1044.68
  C 694.67 1046.59 697.67 1047.92 699.80 1050.36
  C 702.03 1052.92 704.71 1054.88 706.95 1057.52
  C 712.77 1064.34 718.39 1071.03 726.30 1074.99
  Q 732.86 1078.27 742.73 1079.25
  Q 762.98 1081.24 780.43 1075.48
  Q 788.18 1072.92 796.56 1066.52
  C 802.06 1062.32 808.20 1058.24 814.64 1056.12
  C 825.79 1052.45 835.94 1047.23 846.53 1042.01
  C 850.98 1039.82 854.84 1037.37 858.29 1033.89
  Q 862.65 1029.49 866.08 1025.21
  Q 869.56 1020.87 873.33 1012.46
  C 877.46 1003.26 877.73 992.81 876.32 983.25
  Q 875.97 980.88 873.89 979.81
  C 866.97 976.25 857.57 974.77 852.78 982.69
  Q 849.81 987.61 846.07 992.24
  C 843.87 994.96 840.75 997.05 838.02 999.35
  A 1.66 1.66 0.0 0 1 835.52 998.92
  C 833.44 995.36 831.26 991.71 829.78 987.84
  Q 827.75 982.49 825.56 977.16
  Q 823.66 972.51 818.65 967.09
  Q 813.50 961.53 808.66 958.64
  Q 808.06 958.28 807.73 957.67
  Q 806.25 954.99 803.74 954.63
  Q 798.35 953.86 792.18 955.79
  C 790.08 956.44 789.20 958.13 788.69 960.08
  Q 785.74 971.32 786.35 982.69
  C 786.64 988.10 786.33 994.46 783.77 999.11
  Q 780.68 1004.71 772.71 1014.23
  Q 770.75 1016.57 768.26 1017.63
  Q 765.28 1018.90 762.25 1019.41
  Q 755.13 1020.62 750.53 1022.74
  C 743.26 1026.08 734.65 1026.96 727.16 1026.14
  Q 727.13 1026.14 727.11 1026.11
  L 726.92 1025.88
  Q 726.65 1025.57 726.24 1025.54
  C 723.79 1025.38 718.92 1025.50 716.86 1024.47
  Q 716.27 1024.17 715.59 1024.15
  Q 709.35 1023.93 702.39 1023.91"
/>
<path stroke="#fd7611" vector-effect="non-scaling-stroke" d="
  M 702.39 1023.91
  Q 704.99 1022.02 709.00 1021.98
  Q 713.11 1021.94 714.72 1021.67
  C 722.58 1020.38 731.03 1021.07 739.01 1020.94
  C 745.33 1020.83 751.11 1016.78 756.10 1013.29
  Q 757.88 1012.05 759.41 1010.49
  Q 760.70 1009.17 760.84 1007.29
  Q 761.35 1000.39 760.43 994.06
  C 760.18 992.32 758.92 990.29 757.77 988.98
  Q 756.10 987.06 752.89 982.88
  Q 749.57 978.54 742.07 973.32
  C 741.35 972.81 740.98 972.16 740.43 971.51
  Q 740.09 971.11 739.57 971.05
  Q 739.20 971.01 739.10 970.65
  Q 739.03 970.40 739.28 970.32
  Q 739.55 970.23 739.38 969.76"
/>
<path stroke="#fa9b28" vector-effect="non-scaling-stroke" d="
  M 739.38 969.76
  Q 743.00 965.93 746.18 962.43
  Q 747.67 960.79 748.33 956.62
  Q 748.41 956.07 748.96 956.02
  Q 755.43 955.42 761.79 953.32
  Q 764.96 952.27 768.05 949.71
  Q 776.28 942.88 781.05 935.88
  Q 783.15 932.80 785.38 929.77
  C 789.12 924.69 790.97 919.32 790.67 913.23
  Q 790.21 903.75 789.57 900.16
  Q 787.99 891.29 786.09 882.84
  C 785.24 879.02 784.02 875.15 782.13 871.76
  Q 780.70 869.21 777.51 866.58
  Q 773.00 862.88 767.21 864.20
  A 0.65 0.64 86.5 0 0 766.71 864.78
  Q 766.10 872.29 767.23 879.69
  C 767.73 883.01 767.71 886.28 766.68 889.49
  C 763.06 900.78 752.87 910.80 743.17 916.91
  C 739.31 919.34 734.82 921.02 730.70 922.90
  Q 721.77 926.98 716.85 935.31
  Q 715.70 937.27 715.58 938.44
  Q 714.65 948.02 716.92 957.11"
/>
<path stroke="#fcbe34" vector-effect="non-scaling-stroke" d="
  M 739.38 969.76
  Q 734.75 972.04 728.76 972.81
  Q 726.30 973.12 723.61 972.78
  Q 723.07 972.71 722.87 972.21
  L 716.92 957.11"
/>
<path stroke="#fcbe34" vector-effect="non-scaling-stroke" d="
  M 702.39 1023.91
  Q 698.53 1024.94 693.72 1025.21
  C 691.64 1025.33 690.74 1026.09 689.55 1027.63
  C 688.12 1029.49 688.99 1032.38 688.78 1034.62
  Q 688.74 1035.04 688.36 1035.20
  A 0.80 0.79 -18.7 0 1 687.28 1034.67
  C 686.81 1032.86 686.25 1030.74 684.99 1029.31
  Q 682.52 1026.52 679.58 1023.98
  A 1.17 1.16 62.6 0 0 678.70 1023.70
  Q 674.95 1024.12 672.03 1023.22
  Q 669.76 1022.52 667.11 1022.46
  Q 662.80 1022.36 658.23 1022.26
  C 656.34 1022.22 654.21 1021.52 652.75 1020.51
  Q 647.88 1017.12 643.07 1013.65
  Q 638.23 1010.15 635.01 1005.65"
/>
<path stroke="#fd7611" vector-effect="non-scaling-stroke" d="
  M 570.0736 493.6367
  A 3.09 3.09 0.0 0 0 567.0107 490.5199
  L 560.2109 490.4606
  A 3.09 3.09 0.0 0 0 557.0941 493.5235
  L 557.0464 498.9833
  A 3.09 3.09 0.0 0 0 560.1093 502.1001
  L 566.9091 502.1594
  A 3.09 3.09 0.0 0 0 570.0259 499.0965
  L 570.0736 493.6367"
/>
<path stroke="#fd7611" vector-effect="non-scaling-stroke" d="
  M 696.22 516.21
  C 697.63 518.66 698.68 520.53 698.04 523.55
  Q 696.78 529.42 697.36 535.19
  Q 697.40 535.63 697.84 535.73
  Q 701.49 536.51 703.91 535.00
  C 709.16 531.71 709.08 524.81 708.60 518.65
  Q 708.21 513.68 706.32 510.18
  C 704.65 507.08 701.10 502.04 697.33 501.79
  Q 693.50 501.54 689.59 502.18
  A 1.17 1.17 0.0 0 0 688.63 503.10
  C 688.08 505.76 688.82 508.52 691.12 510.16
  Q 693.90 512.16 696.22 516.21"
/>
<path stroke="#fcbe34" vector-effect="non-scaling-stroke" d="
  M 844.0312 514.9289
  A 0.35 0.35 0.0 0 0 843.5875 514.7096
  L 837.3927 516.8064
  A 0.35 0.35 0.0 0 0 837.1734 517.2501
  L 837.2888 517.5911
  A 0.35 0.35 0.0 0 0 837.7325 517.8104
  L 843.9273 515.7136
  A 0.35 0.35 0.0 0 0 844.1466 515.2699
  L 844.0312 514.9289"
/>
<path stroke="#fcbe34" vector-effect="non-scaling-stroke" d="
  M 832.8898 518.2847
  A 1.32 0.55 -1.1 0 0 831.5594 517.7601
  A 1.32 0.55 -1.1 0 0 830.2502 518.3353
  A 1.32 0.55 -1.1 0 0 831.5806 518.8599
  A 1.32 0.55 -1.1 0 0 832.8898 518.2847"
/>
</g>
<path fill="#fb5204" d="
  M 821.29 714.75
  Q 818.17 710.52 818.79 704.97
  Q 818.83 704.58 819.21 704.47
  Q 820.47 704.12 821.90 704.25
  Q 822.43 704.30 822.58 703.80
  L 823.11 702.10
  Q 823.27 701.59 823.80 701.53
  Q 826.60 701.25 829.39 701.49
  Q 830.13 701.56 830.02 702.29
  C 829.98 702.58 829.99 703.02 830.09 703.30
  Q 834.24 714.65 837.10 728.50
  Q 838.53 735.42 837.82 741.26
  C 836.08 755.52 833.73 770.00 826.94 782.83
  C 823.85 788.66 820.57 794.51 816.47 799.71
  Q 811.30 806.25 806.39 813.02
  Q 796.68 826.42 792.76 841.18
  C 790.05 851.39 786.96 861.99 789.03 872.64
  Q 790.73 881.37 792.90 888.50
  Q 794.49 893.70 798.15 901.27
  C 805.20 915.83 815.43 926.22 831.14 931.38
  Q 834.08 932.34 837.45 931.48
  Q 846.64 929.13 851.98 925.87
  C 860.08 920.93 867.57 916.17 877.29 914.51
  C 879.85 914.07 882.54 916.57 884.22 918.57
  Q 889.29 924.59 891.36 931.47
  Q 892.22 934.36 893.79 945.63
  C 894.95 953.95 895.63 960.56 896.86 970.69
  C 898.29 982.60 898.98 996.72 895.83 1008.25
  Q 892.57 1020.16 885.71 1029.88
  Q 879.60 1038.55 874.16 1046.77
  Q 873.94 1047.10 873.55 1047.20
  Q 871.64 1047.66 870.50 1049.12
  C 866.83 1053.82 862.10 1058.17 857.87 1062.37
  C 857.11 1063.11 856.73 1064.03 855.90 1064.79
  C 850.40 1069.78 845.55 1075.15 840.19 1080.20
  C 833.53 1086.49 826.37 1093.69 819.92 1098.89
  Q 808.73 1107.91 794.58 1115.04
  C 789.41 1117.65 784.06 1119.81 779.17 1123.16
  C 770.01 1129.43 760.65 1133.21 748.37 1136.41
  Q 747.10 1136.74 745.96 1137.43
  A 1.97 1.95 88.1 0 0 745.30 1138.14
  Q 744.50 1139.70 743.19 1140.77
  Q 742.79 1141.10 742.27 1141.10
  Q 722.48 1141.15 701.76 1141.12
  C 697.76 1141.11 694.00 1140.31 690.08 1140.23
  Q 672.48 1139.87 658.90 1136.54
  Q 640.28 1131.98 625.75 1126.72
  Q 614.92 1122.79 602.80 1115.90
  C 594.43 1111.13 588.53 1103.46 580.62 1098.05
  Q 571.00 1091.49 562.32 1085.35
  Q 554.15 1079.56 546.43 1070.84
  Q 536.73 1059.89 524.48 1043.78
  Q 521.00 1039.19 517.07 1034.63
  Q 512.93 1029.82 509.21 1023.51
  Q 499.30 1006.69 494.31 990.27
  Q 491.54 981.16 490.42 972.21
  Q 488.09 953.53 488.18 939.15
  Q 488.25 928.29 491.03 917.15
  Q 491.45 915.44 492.37 914.33
  C 493.95 912.42 499.05 913.06 500.02 915.80
  C 504.12 927.38 512.79 935.11 522.86 942.22
  Q 535.07 950.83 546.67 957.35
  Q 548.97 958.64 551.96 958.69
  C 555.17 958.75 558.61 956.66 561.65 955.48
  C 572.33 951.31 581.57 944.47 579.82 931.45
  Q 577.59 914.92 566.92 903.47
  Q 557.18 893.02 548.53 886.29
  Q 540.82 880.31 532.64 874.37
  Q 529.31 871.95 519.34 862.33
  Q 511.90 855.15 506.90 848.62
  Q 494.05 831.85 489.05 814.35
  Q 483.00 793.23 485.81 769.90
  Q 486.90 760.80 492.65 740.86
  Q 497.61 723.65 504.94 709.88
  Q 510.75 698.97 518.47 692.53
  Q 525.55 686.62 536.38 683.80
  C 549.00 680.52 562.13 678.70 574.40 680.66
  Q 577.68 681.18 582.14 683.24
  C 587.96 685.93 595.62 687.46 602.18 688.19
  Q 618.16 689.96 631.59 689.98
  Q 640.81 689.99 646.87 682.71
  C 651.79 676.81 655.62 671.90 663.28 669.17
  C 668.53 667.30 673.22 663.62 678.66 663.59
  Q 685.97 663.55 694.75 664.44
  C 698.36 664.81 702.02 664.71 705.60 664.83
  Q 706.12 664.85 706.56 665.10
  Q 707.00 665.34 707.47 665.18
  Q 717.65 661.70 725.98 658.14
  C 732.34 655.43 737.93 652.04 742.02 646.59
  Q 748.51 637.97 753.06 630.98
  Q 754.58 628.65 755.55 625.03
  Q 757.13 619.06 757.95 613.11
  C 759.34 603.00 761.61 592.49 761.66 583.02
  Q 761.73 570.41 758.18 555.86
  Q 756.68 549.71 753.66 544.13
  Q 751.26 539.70 749.33 534.91
  Q 744.91 523.93 738.68 510.09
  Q 734.39 500.59 728.23 482.50
  Q 724.54 471.69 723.16 457.46
  Q 722.43 449.89 722.61 443.89
  C 722.83 436.17 725.36 428.41 728.23 421.12
  Q 730.11 416.36 731.53 411.02
  Q 734.95 398.08 735.19 385.79
  Q 735.37 376.34 732.72 366.51
  Q 731.39 361.59 727.20 352.69
  Q 724.04 345.98 720.93 339.21
  C 719.44 335.99 717.36 332.61 715.26 329.76
  Q 709.54 322.03 703.43 311.86
  Q 698.98 304.46 690.45 298.56
  C 680.94 291.99 671.43 285.72 660.57 281.03
  C 657.84 279.85 654.91 279.90 652.45 278.45
  Q 651.08 277.65 649.30 277.28
  Q 645.49 276.51 641.47 274.80
  C 630.66 270.22 620.10 275.60 609.42 277.04
  C 599.06 278.44 591.31 283.01 584.52 291.47
  Q 576.59 301.35 572.17 312.96
  C 569.67 319.52 566.30 325.62 563.13 331.74
  Q 562.72 332.51 562.12 333.18
  Q 561.79 333.55 561.30 333.64
  Q 555.07 334.71 550.04 332.65
  Q 547.03 331.42 543.18 328.11
  C 540.75 326.02 541.95 322.61 542.49 320.01
  Q 542.59 319.49 542.37 319.01
  Q 539.38 312.51 536.32 305.54
  Q 533.60 299.35 533.15 294.71
  Q 532.52 288.29 533.04 281.13
  Q 535.24 250.55 557.63 229.73
  Q 562.55 225.15 568.69 221.81
  Q 575.18 218.28 581.43 215.20
  Q 593.09 209.45 604.22 202.96
  Q 606.21 201.80 610.79 200.72
  Q 614.06 199.95 617.12 199.01
  C 619.99 198.13 622.91 197.71 625.72 196.66
  Q 632.59 194.09 639.31 192.80
  C 653.75 190.03 669.13 181.73 679.38 172.92
  Q 682.10 170.57 687.79 163.06
  Q 693.58 155.41 699.64 147.35
  Q 702.03 144.17 703.44 137.69
  Q 704.63 132.21 705.76 126.80
  C 707.06 120.56 707.14 114.40 707.65 108.13
  C 707.90 105.14 707.45 102.57 707.14 99.67
  Q 706.95 97.78 706.44 96.12
  C 704.68 90.40 702.59 85.13 702.75 79.00
  A 1.21 1.20 86.3 0 1 703.76 77.84
  Q 705.61 77.54 707.59 77.62
  Q 709.14 77.69 709.93 79.20
  C 713.08 85.16 715.55 91.56 717.87 97.75
  Q 719.95 103.28 723.03 109.07
  Q 727.66 117.78 731.48 127.17
  Q 735.22 136.37 735.20 149.18
  Q 735.17 161.63 732.15 175.81
  Q 730.72 182.49 727.36 190.09
  C 722.41 201.30 717.69 212.85 714.52 224.43
  Q 710.54 238.99 712.18 252.37
  Q 714.44 270.93 721.52 296.45
  Q 723.26 302.74 725.91 308.29
  Q 728.76 314.28 731.60 319.89
  C 733.12 322.89 735.36 325.29 736.67 328.47
  C 739.82 336.13 744.52 342.89 748.55 349.99
  Q 760.47 370.99 768.38 383.05
  Q 773.15 390.33 779.74 396.37
  C 785.82 401.95 792.26 407.44 799.74 411.04
  C 805.94 414.02 811.96 416.59 818.29 419.75
  Q 825.79 423.50 833.95 426.50
  C 835.79 427.18 837.50 426.12 839.34 426.03
  Q 844.31 425.79 849.25 426.32
  Q 852.24 426.64 855.41 426.14
  Q 863.74 424.84 871.89 423.68
  Q 880.72 422.43 886.64 418.88
  C 890.91 416.31 894.00 409.21 896.25 404.60
  Q 897.67 401.71 897.89 398.45
  C 898.12 395.11 898.59 391.59 899.25 388.26
  Q 900.85 380.18 900.87 371.65
  Q 900.87 370.50 902.02 370.49
  L 905.94 370.46
  A 1.76 1.75 -12.9 0 1 907.52 371.44
  C 908.36 373.15 909.09 374.85 910.13 376.46
  Q 917.37 387.67 923.58 400.14
  C 926.48 405.98 929.30 411.61 929.87 418.27
  C 930.23 422.42 931.13 426.33 931.29 430.52
  Q 931.54 436.85 931.73 442.54
  C 931.88 446.73 931.27 451.12 930.34 455.35
  Q 926.66 472.02 916.21 488.78
  Q 912.80 494.24 906.49 500.59
  Q 896.49 510.65 887.93 518.59
  Q 883.71 522.52 878.39 526.41
  Q 869.15 533.17 860.62 539.69
  C 856.59 542.77 852.02 545.53 847.66 548.28
  Q 842.77 551.36 838.38 554.86
  C 834.37 558.07 830.47 560.92 826.70 564.52
  Q 819.56 571.35 815.22 576.27
  C 799.38 594.23 789.28 615.74 782.75 638.73
  C 781.66 642.53 781.13 646.45 780.11 650.34
  Q 773.94 673.72 772.67 698.01
  Q 772.51 701.08 773.06 703.98
  Q 773.76 707.72 774.47 711.32
  Q 776.54 721.88 782.68 730.75
  Q 783.01 731.23 783.59 731.19
  Q 788.44 730.90 792.40 731.95
  C 797.75 733.38 806.88 728.18 811.58 725.47
  Q 816.53 722.61 818.01 717.66
  Q 818.68 715.44 821.05 715.27
  Q 821.64 715.23 821.29 714.75
  Z
  M 585.77 230.66
  L 577.89 230.58
  A 0.77 0.77 0.0 0 0 577.11 231.30
  L 576.61 239.25
  Q 570.92 250.47 574.48 262.14
  Q 574.62 262.58 574.98 262.86
  Q 577.55 264.86 580.40 264.10
  C 583.65 263.24 586.57 262.14 590.01 261.80
  C 600.81 260.71 610.01 256.37 619.21 250.80
  Q 625.50 247.00 628.80 246.27
  Q 637.89 244.23 645.88 241.75
  Q 648.49 240.93 656.65 239.19
  Q 663.31 237.77 669.39 234.70
  Q 669.79 234.50 674.63 232.69
  C 678.74 231.16 682.14 227.53 685.37 224.55
  C 688.28 221.85 687.61 214.25 687.26 210.57
  C 687.07 208.62 687.37 207.31 685.88 205.71
  C 682.37 201.95 677.33 198.08 671.72 199.62
  Q 659.77 202.88 649.92 208.32
  Q 643.15 212.07 638.14 214.08
  Q 621.05 220.97 602.76 223.81
  Q 595.41 224.96 590.47 230.00
  Q 590.09 230.39 589.56 230.50
  Q 587.72 230.90 585.77 230.66
  Z
  M 557.65 313.06
  Q 560.64 301.38 559.78 289.21
  Q 559.73 288.47 558.99 288.47
  C 556.57 288.49 553.69 287.95 551.97 290.23
  C 546.34 297.73 547.03 305.45 548.92 314.22
  Q 548.99 314.58 549.28 314.81
  C 550.95 316.09 553.71 315.80 555.60 315.28
  Q 557.20 314.84 557.65 313.06
  Z
  M 913.09 437.97
  C 914.99 435.02 916.06 431.76 916.26 428.20
  Q 916.65 421.16 916.15 413.55
  Q 916.11 412.95 915.51 412.88
  Q 912.20 412.50 909.11 413.09
  A 1.11 1.10 -84.0 0 0 908.29 413.76
  C 907.63 415.36 907.81 417.36 907.40 419.04
  Q 905.57 426.41 904.03 434.78
  Q 903.52 437.52 903.77 440.13
  Q 903.84 440.87 904.56 441.04
  Q 910.23 442.41 913.09 437.97
  Z
  M 732.81 432.78
  Q 732.47 433.38 732.74 433.97
  A 0.42 0.42 0.0 0 0 733.54 433.87
  Q 733.67 433.24 733.31 432.75
  A 0.30 0.30 0.0 0 0 732.81 432.78
  Z
  M 782.32 507.73
  C 779.45 514.01 780.41 521.90 782.19 528.46
  Q 782.76 530.59 784.58 532.41
  Q 790.05 537.87 796.11 542.33
  C 801.45 546.26 814.42 545.86 818.10 539.28
  Q 823.78 529.10 834.31 526.59
  Q 844.59 524.14 855.76 521.31
  Q 858.36 520.64 864.19 517.65
  Q 873.61 514.84 878.35 508.02
  Q 881.38 503.67 884.38 495.67
  Q 887.25 488.03 888.76 481.76
  Q 891.32 471.16 890.66 459.29
  Q 890.63 458.72 890.31 458.26
  Q 889.64 457.27 889.28 456.09
  A 2.97 2.97 0.0 0 0 886.50 453.97
  Q 878.50 453.77 871.30 453.88
  C 864.42 453.98 857.83 455.62 851.40 457.72
  C 844.66 459.92 838.48 460.73 832.09 456.96
  C 826.47 453.64 819.37 450.30 813.06 451.37
  Q 806.52 452.48 797.75 455.22
  Q 795.30 455.99 793.53 457.54
  Q 790.94 459.80 789.44 462.44
  C 785.17 469.96 781.60 478.86 780.88 487.45
  Q 780.21 495.44 781.02 499.50
  Q 781.86 503.64 782.32 507.73
  Z
  M 572.80 712.87
  C 572.95 710.83 573.83 708.95 573.92 706.86
  Q 574.18 700.95 573.94 695.30
  A 1.10 1.09 -76.7 0 0 573.37 694.37
  C 569.85 692.39 564.13 692.59 560.30 693.12
  Q 553.85 694.00 553.31 701.04
  Q 552.42 712.54 542.70 722.91
  Q 541.35 724.35 539.53 724.99
  Q 533.39 727.15 527.87 729.85
  Q 522.52 732.47 520.48 734.78
  Q 514.43 741.62 514.52 750.88
  C 514.56 755.62 516.59 760.89 520.22 763.82
  Q 528.20 770.29 536.65 777.01
  C 539.10 778.95 540.81 781.02 541.82 783.85
  Q 542.06 784.52 542.76 784.60
  Q 546.75 785.04 550.73 784.57
  Q 551.29 784.50 551.39 783.94
  C 551.74 781.78 551.61 779.12 549.67 777.75
  C 546.15 775.26 546.90 771.23 548.92 767.99
  Q 551.01 764.63 552.96 762.06
  Q 556.13 757.87 562.77 754.52
  C 573.27 749.23 586.64 744.03 586.96 729.88
  C 587.03 726.76 587.02 723.65 586.67 720.58
  A 0.80 0.80 0.0 0 0 586.22 719.95
  Q 581.22 717.69 576.50 715.95
  Q 574.63 715.27 573.12 713.73
  Q 572.77 713.37 572.80 712.87
  Z
  M 673.19 868.29
  Q 674.21 871.19 676.12 874.19
  C 678.98 878.69 687.16 878.30 685.75 885.44
  Q 685.54 886.54 686.65 886.57
  C 689.44 886.67 692.22 886.79 694.88 885.74
  Q 696.84 884.97 699.04 885.26
  Q 699.81 885.37 699.81 884.59
  C 699.82 878.86 699.25 872.05 701.20 866.71
  Q 701.81 865.03 704.21 862.04
  Q 709.42 855.56 709.97 846.16
  Q 717.40 841.13 724.18 834.65
  Q 726.79 832.16 728.39 829.80
  C 731.35 825.46 734.76 821.23 737.02 816.78
  Q 739.55 811.82 742.71 805.90
  Q 745.16 801.34 745.94 796.99
  Q 747.49 788.29 746.38 778.61
  Q 745.85 773.98 743.45 767.35
  C 740.91 760.33 738.23 752.75 732.85 747.88
  Q 730.12 745.42 727.58 742.69
  Q 722.04 736.74 713.57 732.27
  Q 711.12 730.98 708.33 731.00
  Q 699.38 731.08 691.02 731.02
  Q 687.53 730.99 684.47 732.86
  Q 683.04 733.72 681.62 734.42
  Q 671.61 739.32 661.28 744.26
  C 655.75 746.91 651.26 751.85 647.66 756.42
  Q 646.32 758.13 644.43 759.29
  C 636.18 764.40 626.32 766.78 618.02 772.34
  Q 613.28 775.52 608.53 778.90
  C 602.12 783.48 594.58 785.62 587.90 789.71
  Q 584.86 791.58 582.04 793.60
  Q 578.72 795.98 578.41 799.62
  Q 578.08 803.55 578.31 808.68
  C 578.48 812.60 580.24 816.15 582.45 819.20
  C 584.86 822.53 587.39 825.77 590.43 828.59
  Q 593.30 831.25 595.99 834.21
  Q 600.09 838.71 603.09 840.03
  Q 610.80 843.40 613.93 845.26
  Q 619.56 848.61 625.06 851.13
  Q 630.17 853.46 632.76 854.90
  Q 636.43 856.93 640.09 858.75
  Q 641.74 859.56 643.20 859.86
  Q 644.96 860.23 646.62 862.07
  Q 647.81 863.39 647.74 865.22
  Q 647.63 868.01 647.64 870.58
  A 0.53 0.53 0.0 0 0 648.14 871.11
  Q 650.65 871.24 652.83 870.74
  Q 656.54 869.89 660.22 869.00
  C 664.38 867.98 668.78 868.14 673.19 868.29
  Z
  M 794.67 764.61
  C 787.77 766.83 788.63 775.14 789.34 781.02
  C 789.62 783.41 791.15 784.41 791.95 786.49
  A 1.47 1.46 -4.0 0 0 793.01 787.40
  C 796.33 788.13 801.63 788.76 804.16 786.08
  Q 811.39 778.40 815.24 769.15
  Q 816.04 767.23 816.89 765.47
  C 819.40 760.24 819.44 753.76 818.19 748.04
  Q 817.95 746.97 817.33 745.99
  Q 817.01 745.49 816.44 745.35
  Q 813.98 744.74 811.51 745.52
  A 1.31 1.29 -4.9 0 0 810.62 746.56
  C 810.30 748.67 809.93 750.51 808.36 752.11
  Q 803.22 757.33 797.50 761.71
  Q 796.34 762.60 795.51 763.95
  A 1.59 1.57 6.6 0 1 794.67 764.61
  Z
  M 716.92 957.11
  Q 714.74 956.68 713.50 955.73
  Q 706.99 950.67 700.81 942.81
  Q 699.12 940.67 697.95 935.93
  C 696.84 931.38 698.94 926.43 700.73 922.39
  C 703.72 915.62 707.13 910.01 705.22 902.26
  Q 704.28 898.45 702.52 894.55
  A 5.05 5.04 -0.6 0 0 699.90 891.99
  Q 696.66 890.62 693.33 888.87
  Q 691.77 888.04 690.03 888.07
  C 687.37 888.11 684.37 887.53 681.93 888.64
  Q 680.23 889.41 678.62 890.55
  C 672.58 894.83 666.60 899.38 663.48 906.24
  Q 661.72 910.11 659.57 913.88
  Q 655.84 920.42 653.23 928.53
  C 650.16 938.05 652.63 950.43 655.96 959.74
  Q 657.84 964.99 660.05 970.66
  Q 662.16 976.10 661.80 983.41
  C 661.72 985.19 660.53 986.54 659.13 987.44
  Q 652.66 991.63 645.56 995.22
  Q 639.23 998.42 637.32 1005.19
  Q 637.18 1005.67 636.69 1005.73
  Q 635.88 1005.84 635.01 1005.65
  Q 631.93 1000.94 630.87 997.64
  C 627.24 986.31 627.80 973.65 627.71 961.34
  Q 627.70 960.75 627.28 960.33
  C 626.43 959.48 626.48 958.28 625.57 957.22
  Q 624.49 955.97 623.31 954.84
  Q 622.95 954.49 622.46 954.49
  L 612.35 954.49
  Q 611.74 954.49 611.26 954.86
  Q 606.30 958.63 604.75 965.65
  C 603.72 970.31 597.81 990.39 591.19 989.30
  Q 585.30 988.33 577.31 988.38
  C 573.38 988.41 569.95 992.11 569.74 995.94
  Q 569.26 1004.59 572.45 1012.08
  Q 573.97 1015.65 578.24 1020.62
  Q 586.03 1029.68 593.39 1037.92
  C 594.75 1039.44 596.54 1040.63 597.77 1042.41
  Q 605.17 1053.04 616.01 1060.62
  C 627.02 1068.32 642.14 1065.37 654.77 1064.88
  Q 660.17 1064.67 665.88 1064.68
  A 1.62 1.58 -64.6 0 0 666.91 1064.30
  Q 669.68 1061.97 672.56 1059.39
  C 673.97 1058.13 675.55 1057.72 677.02 1056.54
  Q 683.17 1051.60 688.41 1043.12
  Q 689.33 1041.62 690.83 1042.56
  Q 691.22 1042.81 691.27 1043.27
  C 691.35 1043.91 691.53 1044.30 692.05 1044.68
  C 694.67 1046.59 697.67 1047.92 699.80 1050.36
  C 702.03 1052.92 704.71 1054.88 706.95 1057.52
  C 712.77 1064.34 718.39 1071.03 726.30 1074.99
  Q 732.86 1078.27 742.73 1079.25
  Q 762.98 1081.24 780.43 1075.48
  Q 788.18 1072.92 796.56 1066.52
  C 802.06 1062.32 808.20 1058.24 814.64 1056.12
  C 825.79 1052.45 835.94 1047.23 846.53 1042.01
  C 850.98 1039.82 854.84 1037.37 858.29 1033.89
  Q 862.65 1029.49 866.08 1025.21
  Q 869.56 1020.87 873.33 1012.46
  C 877.46 1003.26 877.73 992.81 876.32 983.25
  Q 875.97 980.88 873.89 979.81
  C 866.97 976.25 857.57 974.77 852.78 982.69
  Q 849.81 987.61 846.07 992.24
  C 843.87 994.96 840.75 997.05 838.02 999.35
  A 1.66 1.66 0.0 0 1 835.52 998.92
  C 833.44 995.36 831.26 991.71 829.78 987.84
  Q 827.75 982.49 825.56 977.16
  Q 823.66 972.51 818.65 967.09
  Q 813.50 961.53 808.66 958.64
  Q 808.06 958.28 807.73 957.67
  Q 806.25 954.99 803.74 954.63
  Q 798.35 953.86 792.18 955.79
  C 790.08 956.44 789.20 958.13 788.69 960.08
  Q 785.74 971.32 786.35 982.69
  C 786.64 988.10 786.33 994.46 783.77 999.11
  Q 780.68 1004.71 772.71 1014.23
  Q 770.75 1016.57 768.26 1017.63
  Q 765.28 1018.90 762.25 1019.41
  Q 755.13 1020.62 750.53 1022.74
  C 743.26 1026.08 734.65 1026.96 727.16 1026.14
  Q 727.13 1026.14 727.11 1026.11
  L 726.92 1025.88
  Q 726.65 1025.57 726.24 1025.54
  C 723.79 1025.38 718.92 1025.50 716.86 1024.47
  Q 716.27 1024.17 715.59 1024.15
  Q 709.35 1023.93 702.39 1023.91
  Q 704.99 1022.02 709.00 1021.98
  Q 713.11 1021.94 714.72 1021.67
  C 722.58 1020.38 731.03 1021.07 739.01 1020.94
  C 745.33 1020.83 751.11 1016.78 756.10 1013.29
  Q 757.88 1012.05 759.41 1010.49
  Q 760.70 1009.17 760.84 1007.29
  Q 761.35 1000.39 760.43 994.06
  C 760.18 992.32 758.92 990.29 757.77 988.98
  Q 756.10 987.06 752.89 982.88
  Q 749.57 978.54 742.07 973.32
  C 741.35 972.81 740.98 972.16 740.43 971.51
  Q 740.09 971.11 739.57 971.05
  Q 739.20 971.01 739.10 970.65
  Q 739.03 970.40 739.28 970.32
  Q 739.55 970.23 739.38 969.76
  Q 743.00 965.93 746.18 962.43
  Q 747.67 960.79 748.33 956.62
  Q 748.41 956.07 748.96 956.02
  Q 755.43 955.42 761.79 953.32
  Q 764.96 952.27 768.05 949.71
  Q 776.28 942.88 781.05 935.88
  Q 783.15 932.80 785.38 929.77
  C 789.12 924.69 790.97 919.32 790.67 913.23
  Q 790.21 903.75 789.57 900.16
  Q 787.99 891.29 786.09 882.84
  C 785.24 879.02 784.02 875.15 782.13 871.76
  Q 780.70 869.21 777.51 866.58
  Q 773.00 862.88 767.21 864.20
  A 0.65 0.64 86.5 0 0 766.71 864.78
  Q 766.10 872.29 767.23 879.69
  C 767.73 883.01 767.71 886.28 766.68 889.49
  C 763.06 900.78 752.87 910.80 743.17 916.91
  C 739.31 919.34 734.82 921.02 730.70 922.90
  Q 721.77 926.98 716.85 935.31
  Q 715.70 937.27 715.58 938.44
  Q 714.65 948.02 716.92 957.11
  Z"
/>
<path fill="#ff991d" d="
  M 576.61 239.25
  Q 577.07 242.11 578.42 243.89
  Q 578.74 244.31 579.26 244.40
  C 581.62 244.82 583.98 244.99 585.94 243.21
  C 589.59 239.92 590.49 237.49 589.43 232.62
  Q 589.33 232.14 588.87 231.95
  L 585.77 230.66
  Q 587.72 230.90 589.56 230.50
  Q 590.09 230.39 590.47 230.00
  Q 595.41 224.96 602.76 223.81
  Q 621.05 220.97 638.14 214.08
  Q 643.15 212.07 649.92 208.32
  Q 659.77 202.88 671.72 199.62
  C 677.33 198.08 682.37 201.95 685.88 205.71
  C 687.37 207.31 687.07 208.62 687.26 210.57
  C 687.61 214.25 688.28 221.85 685.37 224.55
  C 682.14 227.53 678.74 231.16 674.63 232.69
  Q 669.79 234.50 669.39 234.70
  Q 663.31 237.77 656.65 239.19
  Q 648.49 240.93 645.88 241.75
  Q 637.89 244.23 628.80 246.27
  Q 625.50 247.00 619.21 250.80
  C 610.01 256.37 600.81 260.71 590.01 261.80
  C 586.57 262.14 583.65 263.24 580.40 264.10
  Q 577.55 264.86 574.98 262.86
  Q 574.62 262.58 574.48 262.14
  Q 570.92 250.47 576.61 239.25
  Z"
/>
<path fill="#f8e34b" d="
  M 585.77 230.66
  L 588.87 231.95
  Q 589.33 232.14 589.43 232.62
  C 590.49 237.49 589.59 239.92 585.94 243.21
  C 583.98 244.99 581.62 244.82 579.26 244.40
  Q 578.74 244.31 578.42 243.89
  Q 577.07 242.11 576.61 239.25
  L 577.11 231.30
  A 0.77 0.77 0.0 0 1 577.89 230.58
  L 585.77 230.66
  Z"
/>
<path fill="#f8e34b" d="
  M 557.65 313.06
  Q 557.20 314.84 555.60 315.28
  C 553.71 315.80 550.95 316.09 549.28 314.81
  Q 548.99 314.58 548.92 314.22
  C 547.03 305.45 546.34 297.73 551.97 290.23
  C 553.69 287.95 556.57 288.49 558.99 288.47
  Q 559.73 288.47 559.78 289.21
  Q 560.64 301.38 557.65 313.06
  Z"
/>
<path fill="#fb5204" d="
  M 860.11 319.06
  Q 853.57 322.04 846.31 326.54
  Q 843.76 328.13 841.63 330.26
  Q 840.30 331.57 838.44 332.03
  Q 835.98 332.62 833.71 332.20
  Q 833.18 332.10 833.07 331.58
  C 831.23 322.39 835.83 317.85 842.48 313.17
  Q 844.86 311.50 847.81 310.92
  Q 858.18 308.90 867.81 309.65
  Q 868.38 309.69 868.43 310.26
  Q 868.69 312.79 868.20 315.09
  A 1.38 1.36 -4.1 0 1 867.33 316.08
  Q 863.71 317.42 860.11 319.06
  Z"
/>
<path fill="#f8e34b" d="
  M 916.26 428.20
  C 916.06 431.76 914.99 435.02 913.09 437.97
  Q 910.23 442.41 904.56 441.04
  Q 903.84 440.87 903.77 440.13
  Q 903.52 437.52 904.03 434.78
  Q 905.57 426.41 907.40 419.04
  C 907.81 417.36 907.63 415.36 908.29 413.76
  A 1.11 1.10 -84.0 0 1 909.11 413.09
  Q 912.20 412.50 915.51 412.88
  Q 916.11 412.95 916.15 413.55
  Q 916.65 421.16 916.26 428.20
  Z"
/>
<path fill="#ff991d" d="
  M 864.19 517.65
  Q 864.70 516.51 866.62 514.86
  C 869.05 512.77 868.44 507.22 868.16 504.20
  Q 868.12 503.66 867.61 503.46
  C 862.85 501.54 852.46 498.74 847.67 502.21
  Q 843.22 505.45 837.15 507.57
  Q 826.98 511.13 815.75 513.42
  C 814.38 513.70 813.16 514.61 811.69 514.57
  Q 811.25 514.55 810.90 514.30
  Q 807.50 511.86 805.44 508.27
  Q 805.23 507.89 804.79 507.89
  L 782.32 507.73
  Q 781.86 503.64 781.02 499.50
  Q 780.21 495.44 780.88 487.45
  C 781.60 478.86 785.17 469.96 789.44 462.44
  Q 790.94 459.80 793.53 457.54
  Q 795.30 455.99 797.75 455.22
  Q 806.52 452.48 813.06 451.37
  C 819.37 450.30 826.47 453.64 832.09 456.96
  C 838.48 460.73 844.66 459.92 851.40 457.72
  C 857.83 455.62 864.42 453.98 871.30 453.88
  Q 878.50 453.77 886.50 453.97
  A 2.97 2.97 0.0 0 1 889.28 456.09
  Q 889.64 457.27 890.31 458.26
  Q 890.63 458.72 890.66 459.29
  Q 891.32 471.16 888.76 481.76
  Q 887.25 488.03 884.38 495.67
  Q 881.38 503.67 878.35 508.02
  Q 873.61 514.84 864.19 517.65
  Z"
/>
<path fill="#fb5204" d="
  M 573.58 500.55
  Q 570.04 507.85 561.57 505.95
  Q 558.25 505.21 554.76 504.65
  C 550.18 503.92 546.84 496.96 545.93 493.08
  C 544.77 488.12 547.84 483.23 550.46 479.06
  Q 554.96 471.88 563.20 473.87
  C 570.14 475.54 578.01 478.84 576.87 487.59
  Q 575.78 496.00 573.58 500.55
  Z
  M 570.0736 493.6367
  A 3.09 3.09 0.0 0 0 567.0107 490.5199
  L 560.2109 490.4606
  A 3.09 3.09 0.0 0 0 557.0941 493.5235
  L 557.0464 498.9833
  A 3.09 3.09 0.0 0 0 560.1093 502.1001
  L 566.9091 502.1594
  A 3.09 3.09 0.0 0 0 570.0259 499.0965
  L 570.0736 493.6367
  Z"
/>
<path fill="#fb5204" d="
  M 686.88 541.54
  C 683.28 533.54 679.26 526.05 674.09 518.82
  Q 672.46 516.54 670.15 515.20
  C 667.83 513.86 665.69 511.71 663.18 510.90
  Q 657.22 508.96 651.43 512.95
  C 648.73 514.80 648.76 517.70 649.09 520.60
  Q 649.22 521.77 648.04 521.76
  L 643.21 521.75
  Q 642.33 521.75 642.12 520.89
  Q 641.71 519.16 640.15 517.87
  A 2.26 2.24 -78.2 0 1 639.39 516.70
  Q 638.44 513.15 640.20 510.59
  Q 644.42 504.40 648.25 496.58
  Q 651.64 489.67 657.25 485.66
  Q 660.11 483.61 663.84 483.09
  Q 679.63 480.89 692.31 483.04
  Q 695.86 483.64 699.95 485.50
  C 707.04 488.71 713.09 496.33 715.89 503.03
  C 719.97 512.76 722.34 523.51 715.77 532.53
  C 712.82 536.58 708.10 543.23 702.75 544.08
  Q 697.11 544.97 691.42 544.49
  Q 688.08 544.21 686.88 541.54
  Z
  M 696.22 516.21
  C 697.63 518.66 698.68 520.53 698.04 523.55
  Q 696.78 529.42 697.36 535.19
  Q 697.40 535.63 697.84 535.73
  Q 701.49 536.51 703.91 535.00
  C 709.16 531.71 709.08 524.81 708.60 518.65
  Q 708.21 513.68 706.32 510.18
  C 704.65 507.08 701.10 502.04 697.33 501.79
  Q 693.50 501.54 689.59 502.18
  A 1.17 1.17 0.0 0 0 688.63 503.10
  C 688.08 505.76 688.82 508.52 691.12 510.16
  Q 693.90 512.16 696.22 516.21
  Z"
/>
<rect fill="#ff991d" x="-6.49" y="-5.82" transform="translate(563.56,496.31) rotate(0.5)" width="12.98" height="11.64" rx="3.09"/>
<path fill="#f8e34b" d="
  M 864.19 517.65
  Q 858.36 520.64 855.76 521.31
  Q 844.59 524.14 834.31 526.59
  Q 823.78 529.10 818.10 539.28
  C 814.42 545.86 801.45 546.26 796.11 542.33
  Q 790.05 537.87 784.58 532.41
  Q 782.76 530.59 782.19 528.46
  C 780.41 521.90 779.45 514.01 782.32 507.73
  L 804.79 507.89
  Q 805.23 507.89 805.44 508.27
  Q 807.50 511.86 810.90 514.30
  Q 811.25 514.55 811.69 514.57
  C 813.16 514.61 814.38 513.70 815.75 513.42
  Q 826.98 511.13 837.15 507.57
  Q 843.22 505.45 847.67 502.21
  C 852.46 498.74 862.85 501.54 867.61 503.46
  Q 868.12 503.66 868.16 504.20
  C 868.44 507.22 869.05 512.77 866.62 514.86
  Q 864.70 516.51 864.19 517.65
  Z
  M 844.0312 514.9289
  A 0.35 0.35 0.0 0 0 843.5875 514.7096
  L 837.3927 516.8064
  A 0.35 0.35 0.0 0 0 837.1734 517.2501
  L 837.2888 517.5911
  A 0.35 0.35 0.0 0 0 837.7325 517.8104
  L 843.9273 515.7136
  A 0.35 0.35 0.0 0 0 844.1466 515.2699
  L 844.0312 514.9289
  Z
  M 832.8898 518.2847
  A 1.32 0.55 -1.1 0 0 831.5594 517.7601
  A 1.32 0.55 -1.1 0 0 830.2502 518.3353
  A 1.32 0.55 -1.1 0 0 831.5806 518.8599
  A 1.32 0.55 -1.1 0 0 832.8898 518.2847
  Z"
/>
<path fill="#ff991d" d="
  M 696.22 516.21
  Q 693.90 512.16 691.12 510.16
  C 688.82 508.52 688.08 505.76 688.63 503.10
  A 1.17 1.17 0.0 0 1 689.59 502.18
  Q 693.50 501.54 697.33 501.79
  C 701.10 502.04 704.65 507.08 706.32 510.18
  Q 708.21 513.68 708.60 518.65
  C 709.08 524.81 709.16 531.71 703.91 535.00
  Q 701.49 536.51 697.84 535.73
  Q 697.40 535.63 697.36 535.19
  Q 696.78 529.42 698.04 523.55
  C 698.68 520.53 697.63 518.66 696.22 516.21
  Z"
/>
<rect fill="#ff991d" x="-3.62" y="-0.53" transform="translate(840.66,516.26) rotate(-18.7)" width="7.24" height="1.06" rx="0.35"/>
<ellipse fill="#ff991d" cx="0.00" cy="0.00" transform="translate(831.57,518.31) rotate(-1.1)" rx="1.32" ry="0.55"/>
<path fill="#f8e34b" d="
  M 573.12 713.73
  Q 574.63 715.27 576.50 715.95
  Q 581.22 717.69 586.22 719.95
  A 0.80 0.80 0.0 0 1 586.67 720.58
  C 587.02 723.65 587.03 726.76 586.96 729.88
  C 586.64 744.03 573.27 749.23 562.77 754.52
  Q 556.13 757.87 552.96 762.06
  Q 551.01 764.63 548.92 767.99
  C 546.90 771.23 546.15 775.26 549.67 777.75
  C 551.61 779.12 551.74 781.78 551.39 783.94
  Q 551.29 784.50 550.73 784.57
  Q 546.75 785.04 542.76 784.60
  Q 542.06 784.52 541.82 783.85
  C 540.81 781.02 539.10 778.95 536.65 777.01
  Q 528.20 770.29 520.22 763.82
  C 516.59 760.89 514.56 755.62 514.52 750.88
  Q 514.43 741.62 520.48 734.78
  Q 522.52 732.47 527.87 729.85
  Q 533.39 727.15 539.53 724.99
  Q 541.35 724.35 542.70 722.91
  Q 552.42 712.54 553.31 701.04
  Q 553.85 694.00 560.30 693.12
  C 564.13 692.59 569.85 692.39 573.37 694.37
  A 1.10 1.09 -76.7 0 1 573.94 695.30
  Q 574.18 700.95 573.92 706.86
  C 573.83 708.95 572.95 710.83 572.80 712.87
  Q 572.77 713.37 573.12 713.73
  Z"
/>
<path fill="#ff991d" d="
  M 709.97 846.16
  Q 709.77 843.38 709.87 838.50
  C 709.92 835.33 708.53 835.17 706.74 833.20
  A 1.09 1.07 -20.9 0 0 705.94 832.85
  L 698.30 832.89
  Q 697.74 832.89 697.52 833.42
  Q 696.15 836.71 693.83 839.94
  Q 691.93 842.59 689.07 843.92
  Q 685.25 845.68 681.31 847.92
  Q 674.90 851.56 673.39 856.43
  Q 672.19 860.33 673.19 868.29
  C 668.78 868.14 664.38 867.98 660.22 869.00
  Q 656.54 869.89 652.83 870.74
  Q 650.65 871.24 648.14 871.11
  A 0.53 0.53 0.0 0 1 647.64 870.58
  Q 647.63 868.01 647.74 865.22
  Q 647.81 863.39 646.62 862.07
  Q 644.96 860.23 643.20 859.86
  Q 641.74 859.56 640.09 858.75
  Q 636.43 856.93 632.76 854.90
  Q 630.17 853.46 625.06 851.13
  Q 619.56 848.61 613.93 845.26
  Q 610.80 843.40 603.09 840.03
  Q 600.09 838.71 595.99 834.21
  Q 593.30 831.25 590.43 828.59
  C 587.39 825.77 584.86 822.53 582.45 819.20
  C 580.24 816.15 578.48 812.60 578.31 808.68
  Q 578.08 803.55 578.41 799.62
  Q 578.72 795.98 582.04 793.60
  Q 584.86 791.58 587.90 789.71
  C 594.58 785.62 602.12 783.48 608.53 778.90
  Q 613.28 775.52 618.02 772.34
  C 626.32 766.78 636.18 764.40 644.43 759.29
  Q 646.32 758.13 647.66 756.42
  C 651.26 751.85 655.75 746.91 661.28 744.26
  Q 671.61 739.32 681.62 734.42
  Q 683.04 733.72 684.47 732.86
  Q 687.53 730.99 691.02 731.02
  Q 699.38 731.08 708.33 731.00
  Q 711.12 730.98 713.57 732.27
  Q 722.04 736.74 727.58 742.69
  Q 730.12 745.42 732.85 747.88
  C 738.23 752.75 740.91 760.33 743.45 767.35
  Q 745.85 773.98 746.38 778.61
  Q 747.49 788.29 745.94 796.99
  Q 745.16 801.34 742.71 805.90
  Q 739.55 811.82 737.02 816.78
  C 734.76 821.23 731.35 825.46 728.39 829.80
  Q 726.79 832.16 724.18 834.65
  Q 717.40 841.13 709.97 846.16
  Z"
/>
<path fill="#f8e34b" d="
  M 795.51 763.95
  Q 796.34 762.60 797.50 761.71
  Q 803.22 757.33 808.36 752.11
  C 809.93 750.51 810.30 748.67 810.62 746.56
  A 1.31 1.29 -4.9 0 1 811.51 745.52
  Q 813.98 744.74 816.44 745.35
  Q 817.01 745.49 817.33 745.99
  Q 817.95 746.97 818.19 748.04
  C 819.44 753.76 819.40 760.24 816.89 765.47
  Q 816.04 767.23 815.24 769.15
  Q 811.39 778.40 804.16 786.08
  C 801.63 788.76 796.33 788.13 793.01 787.40
  A 1.47 1.46 -4.0 0 1 791.95 786.49
  C 791.15 784.41 789.62 783.41 789.34 781.02
  C 788.63 775.14 787.77 766.83 794.67 764.61
  A 1.59 1.57 6.6 0 0 795.51 763.95
  Z"
/>
<path fill="#fb5204" d="
  M 875.15 819.35
  L 870.83 816.80
  Q 870.30 816.49 870.11 815.91
  Q 869.45 813.80 869.67 811.67
  Q 869.84 809.98 871.54 810.18
  Q 878.94 811.05 887.70 812.42
  Q 896.64 813.83 901.97 816.57
  Q 910.96 821.21 916.66 827.50
  Q 919.88 831.04 923.04 837.84
  Q 927.12 846.61 926.17 855.59
  C 925.63 860.68 924.68 865.66 922.77 870.38
  Q 918.02 882.13 911.74 891.20
  Q 909.69 894.16 906.02 895.43
  C 900.50 897.34 893.69 898.29 890.59 891.89
  Q 889.74 890.14 888.22 888.69
  C 884.81 885.44 886.86 877.04 888.71 873.41
  Q 891.55 867.85 893.82 862.19
  Q 894.79 859.76 895.23 855.75
  Q 896.29 846.20 890.79 839.48
  Q 885.96 833.58 881.14 827.91
  Q 877.83 824.02 875.79 820.02
  A 1.63 1.62 1.4 0 0 875.15 819.35
  Z"
/>
<path fill="#f8e34b" d="
  M 709.97 846.16
  Q 709.42 855.56 704.21 862.04
  Q 701.81 865.03 701.20 866.71
  C 699.25 872.05 699.82 878.86 699.81 884.59
  Q 699.81 885.37 699.04 885.26
  Q 696.84 884.97 694.88 885.74
  C 692.22 886.79 689.44 886.67 686.65 886.57
  Q 685.54 886.54 685.75 885.44
  C 687.16 878.30 678.98 878.69 676.12 874.19
  Q 674.21 871.19 673.19 868.29
  Q 672.19 860.33 673.39 856.43
  Q 674.90 851.56 681.31 847.92
  Q 685.25 845.68 689.07 843.92
  Q 691.93 842.59 693.83 839.94
  Q 696.15 836.71 697.52 833.42
  Q 697.74 832.89 698.30 832.89
  L 705.94 832.85
  A 1.09 1.07 -20.9 0 1 706.74 833.20
  C 708.53 835.17 709.92 835.33 709.87 838.50
  Q 709.77 843.38 709.97 846.16
  Z"
/>
<path fill="#f8e34b" d="
  M 739.38 969.76
  Q 734.75 972.04 728.76 972.81
  Q 726.30 973.12 723.61 972.78
  Q 723.07 972.71 722.87 972.21
  L 716.92 957.11
  Q 714.65 948.02 715.58 938.44
  Q 715.70 937.27 716.85 935.31
  Q 721.77 926.98 730.70 922.90
  C 734.82 921.02 739.31 919.34 743.17 916.91
  C 752.87 910.80 763.06 900.78 766.68 889.49
  C 767.71 886.28 767.73 883.01 767.23 879.69
  Q 766.10 872.29 766.71 864.78
  A 0.65 0.64 86.5 0 1 767.21 864.20
  Q 773.00 862.88 777.51 866.58
  Q 780.70 869.21 782.13 871.76
  C 784.02 875.15 785.24 879.02 786.09 882.84
  Q 787.99 891.29 789.57 900.16
  Q 790.21 903.75 790.67 913.23
  C 790.97 919.32 789.12 924.69 785.38 929.77
  Q 783.15 932.80 781.05 935.88
  Q 776.28 942.88 768.05 949.71
  Q 764.96 952.27 761.79 953.32
  Q 755.43 955.42 748.96 956.02
  Q 748.41 956.07 748.33 956.62
  Q 747.67 960.79 746.18 962.43
  Q 743.00 965.93 739.38 969.76
  Z"
/>
<path fill="#ff991d" d="
  M 716.92 957.11
  L 722.87 972.21
  Q 723.07 972.71 723.61 972.78
  Q 726.30 973.12 728.76 972.81
  Q 734.75 972.04 739.38 969.76
  Q 739.55 970.23 739.28 970.32
  Q 739.03 970.40 739.10 970.65
  Q 739.20 971.01 739.57 971.05
  Q 740.09 971.11 740.43 971.51
  C 740.98 972.16 741.35 972.81 742.07 973.32
  Q 749.57 978.54 752.89 982.88
  Q 756.10 987.06 757.77 988.98
  C 758.92 990.29 760.18 992.32 760.43 994.06
  Q 761.35 1000.39 760.84 1007.29
  Q 760.70 1009.17 759.41 1010.49
  Q 757.88 1012.05 756.10 1013.29
  C 751.11 1016.78 745.33 1020.83 739.01 1020.94
  C 731.03 1021.07 722.58 1020.38 714.72 1021.67
  Q 713.11 1021.94 709.00 1021.98
  Q 704.99 1022.02 702.39 1023.91
  Q 698.53 1024.94 693.72 1025.21
  C 691.64 1025.33 690.74 1026.09 689.55 1027.63
  C 688.12 1029.49 688.99 1032.38 688.78 1034.62
  Q 688.74 1035.04 688.36 1035.20
  A 0.80 0.79 -18.7 0 1 687.28 1034.67
  C 686.81 1032.86 686.25 1030.74 684.99 1029.31
  Q 682.52 1026.52 679.58 1023.98
  A 1.17 1.16 62.6 0 0 678.70 1023.70
  Q 674.95 1024.12 672.03 1023.22
  Q 669.76 1022.52 667.11 1022.46
  Q 662.80 1022.36 658.23 1022.26
  C 656.34 1022.22 654.21 1021.52 652.75 1020.51
  Q 647.88 1017.12 643.07 1013.65
  Q 638.23 1010.15 635.01 1005.65
  Q 635.88 1005.84 636.69 1005.73
  Q 637.18 1005.67 637.32 1005.19
  Q 639.23 998.42 645.56 995.22
  Q 652.66 991.63 659.13 987.44
  C 660.53 986.54 661.72 985.19 661.80 983.41
  Q 662.16 976.10 660.05 970.66
  Q 657.84 964.99 655.96 959.74
  C 652.63 950.43 650.16 938.05 653.23 928.53
  Q 655.84 920.42 659.57 913.88
  Q 661.72 910.11 663.48 906.24
  C 666.60 899.38 672.58 894.83 678.62 890.55
  Q 680.23 889.41 681.93 888.64
  C 684.37 887.53 687.37 888.11 690.03 888.07
  Q 691.77 888.04 693.33 888.87
  Q 696.66 890.62 699.90 891.99
  A 5.05 5.04 -0.6 0 1 702.52 894.55
  Q 704.28 898.45 705.22 902.26
  C 707.13 910.01 703.72 915.62 700.73 922.39
  C 698.94 926.43 696.84 931.38 697.95 935.93
  Q 699.12 940.67 700.81 942.81
  Q 706.99 950.67 713.50 955.73
  Q 714.74 956.68 716.92 957.11
  Z"
/>
<path fill="#f8e34b" d="
  M 635.01 1005.65
  Q 638.23 1010.15 643.07 1013.65
  Q 647.88 1017.12 652.75 1020.51
  C 654.21 1021.52 656.34 1022.22 658.23 1022.26
  Q 662.80 1022.36 667.11 1022.46
  Q 669.76 1022.52 672.03 1023.22
  Q 674.95 1024.12 678.70 1023.70
  A 1.17 1.16 62.6 0 1 679.58 1023.98
  Q 682.52 1026.52 684.99 1029.31
  C 686.25 1030.74 686.81 1032.86 687.28 1034.67
  A 0.80 0.79 -18.7 0 0 688.36 1035.20
  Q 688.74 1035.04 688.78 1034.62
  C 688.99 1032.38 688.12 1029.49 689.55 1027.63
  C 690.74 1026.09 691.64 1025.33 693.72 1025.21
  Q 698.53 1024.94 702.39 1023.91
  Q 709.35 1023.93 715.59 1024.15
  Q 716.27 1024.17 716.86 1024.47
  C 718.92 1025.50 723.79 1025.38 726.24 1025.54
  Q 726.65 1025.57 726.92 1025.88
  L 727.11 1026.11
  Q 727.13 1026.14 727.16 1026.14
  C 734.65 1026.96 743.26 1026.08 750.53 1022.74
  Q 755.13 1020.62 762.25 1019.41
  Q 765.28 1018.90 768.26 1017.63
  Q 770.75 1016.57 772.71 1014.23
  Q 780.68 1004.71 783.77 999.11
  C 786.33 994.46 786.64 988.10 786.35 982.69
  Q 785.74 971.32 788.69 960.08
  C 789.20 958.13 790.08 956.44 792.18 955.79
  Q 798.35 953.86 803.74 954.63
  Q 806.25 954.99 807.73 957.67
  Q 808.06 958.28 808.66 958.64
  Q 813.50 961.53 818.65 967.09
  Q 823.66 972.51 825.56 977.16
  Q 827.75 982.49 829.78 987.84
  C 831.26 991.71 833.44 995.36 835.52 998.92
  A 1.66 1.66 0.0 0 0 838.02 999.35
  C 840.75 997.05 843.87 994.96 846.07 992.24
  Q 849.81 987.61 852.78 982.69
  C 857.57 974.77 866.97 976.25 873.89 979.81
  Q 875.97 980.88 876.32 983.25
  C 877.73 992.81 877.46 1003.26 873.33 1012.46
  Q 869.56 1020.87 866.08 1025.21
  Q 862.65 1029.49 858.29 1033.89
  C 854.84 1037.37 850.98 1039.82 846.53 1042.01
  C 835.94 1047.23 825.79 1052.45 814.64 1056.12
  C 808.20 1058.24 802.06 1062.32 796.56 1066.52
  Q 788.18 1072.92 780.43 1075.48
  Q 762.98 1081.24 742.73 1079.25
  Q 732.86 1078.27 726.30 1074.99
  C 718.39 1071.03 712.77 1064.34 706.95 1057.52
  C 704.71 1054.88 702.03 1052.92 699.80 1050.36
  C 697.67 1047.92 694.67 1046.59 692.05 1044.68
  C 691.53 1044.30 691.35 1043.91 691.27 1043.27
  Q 691.22 1042.81 690.83 1042.56
  Q 689.33 1041.62 688.41 1043.12
  Q 683.17 1051.60 677.02 1056.54
  C 675.55 1057.72 673.97 1058.13 672.56 1059.39
  Q 669.68 1061.97 666.91 1064.30
  A 1.62 1.58 -64.6 0 1 665.88 1064.68
  Q 660.17 1064.67 654.77 1064.88
  C 642.14 1065.37 627.02 1068.32 616.01 1060.62
  Q 605.17 1053.04 597.77 1042.41
  C 596.54 1040.63 594.75 1039.44 593.39 1037.92
  Q 586.03 1029.68 578.24 1020.62
  Q 573.97 1015.65 572.45 1012.08
  Q 569.26 1004.59 569.74 995.94
  C 569.95 992.11 573.38 988.41 577.31 988.38
  Q 585.30 988.33 591.19 989.30
  C 597.81 990.39 603.72 970.31 604.75 965.65
  Q 606.30 958.63 611.26 954.86
  Q 611.74 954.49 612.35 954.49
  L 622.46 954.49
  Q 622.95 954.49 623.31 954.84
  Q 624.49 955.97 625.57 957.22
  C 626.48 958.28 626.43 959.48 627.28 960.33
  Q 627.70 960.75 627.71 961.34
  C 627.80 973.65 627.24 986.31 630.87 997.64
  Q 631.93 1000.94 635.01 1005.65
  Z"
/>
</svg>
