<?xml version="1.0" encoding="UTF-8" standalone="no"?>
<!DOCTYPE svg PUBLIC "-//W3C//DTD SVG 1.1//EN" "http://www.w3.org/Graphics/SVG/1.1/DTD/svg11.dtd">
<svg xmlns="http://www.w3.org/2000/svg" version="1.1" viewBox="0.00 0.00 1105.00 722.00">
<g stroke-width="2.00" fill="none" stroke-linecap="butt">
<path stroke="#674839" vector-effect="non-scaling-stroke" d="
  M 1099.50 12.90
  C 1098.78 13.16 1098.34 13.63 1097.52 13.70
  Q 1094.27 13.97 1091.00 13.97
  Q 908.11 13.98 713.75 14.13
  Q 713.31 14.13 713.00 14.25"
/>
<path stroke="#653f2e" vector-effect="non-scaling-stroke" d="
  M 713.00 14.25
  C 712.32 14.10 711.65 13.78 710.95 13.79
  C 704.42 13.88 697.94 13.53 691.39 13.53
  Q 390.38 13.49 95.90 13.58
  C 74.83 13.58 52.72 14.13 30.99 13.91
  Q 19.79 13.80 8.18 14.00"
/>
<path stroke="#99877d" vector-effect="non-scaling-stroke" d="
  M 1100.63 14.03
  L 1105.00 23.16"
/>
<path stroke="#847066" vector-effect="non-scaling-stroke" d="
  M 1093.76 709.39
  L 1088.93 710.94"
/>
<path stroke="#674839" vector-effect="non-scaling-stroke" d="
  M 1075.94 713.47
  Q 1076.66 711.56 1073.99 711.55
  Q 1053.64 711.49 1033.50 711.46
  Q 942.12 711.34 850.75 711.42
  Q 693.22 711.56 547.11 711.24
  Q 522.83 711.19 498.21 711.49"
/>
<path stroke="#754a36" vector-effect="non-scaling-stroke" d="
  M 498.21 711.49
  Q 500.29 707.78 501.22 704.27
  Q 502.61 699.03 502.65 698.92
  Q 505.72 689.47 507.52 681.85
  Q 507.61 681.46 507.93 681.22
  Q 508.11 681.08 508.16 680.86
  Q 508.26 680.44 507.85 680.29
  L 507.26 680.08"
/>
<path stroke="#847066" vector-effect="non-scaling-stroke" d="
  M 507.26 680.08
  Q 674.75 680.12 842.25 680.12
  Q 851.51 680.12 854.44 679.67
  C 867.26 677.72 877.69 668.75 881.09 656.18
  Q 882.37 651.47 882.36 639.25
  Q 882.15 353.73 882.31 69.10
  Q 882.31 60.61 881.45 56.70
  C 878.96 45.46 870.61 36.61 859.51 33.03
  C 854.49 31.41 848.37 31.45 843.00 31.45
  Q 775.85 31.40 708.65 31.47"
/>
<path stroke="#754a36" vector-effect="non-scaling-stroke" d="
  M 708.65 31.47
  Q 709.08 30.51 709.10 29.32
  Q 709.11 27.90 709.30 27.19
  Q 710.97 20.69 713.00 14.25"
/>
<path stroke="#8c7a70" vector-effect="non-scaling-stroke" d="
  M 894.45 679.52
  A 0.55 0.55 0.0 0 0 895.00 680.07
  L 1086.19 680.02
  A 0.55 0.55 0.0 0 0 1086.74 679.47
  L 1086.74 32.09
  A 0.55 0.55 0.0 0 0 1086.19 31.54
  L 895.00 31.48
  A 0.55 0.55 0.0 0 0 894.45 32.03
  L 894.45 679.52"
/>
<path stroke="#82675c" vector-effect="non-scaling-stroke" d="
  M 708.65 31.47
  Q 707.52 31.31 706.50 31.31
  Q 371.68 31.51 84.20 31.50
  Q 75.66 31.50 71.87 32.40
  C 60.45 35.11 51.69 43.74 48.19 54.99
  Q 46.96 58.93 46.97 66.75
  Q 47.10 377.66 46.98 647.12
  C 46.98 661.88 56.19 674.42 70.18 678.72
  Q 74.58 680.07 85.34 680.06
  Q 296.30 679.99 507.26 680.08"
/>
<path stroke="#653f2e" vector-effect="non-scaling-stroke" d="
  M 498.21 711.49
  Q 493.62 711.57 488.25 711.55
  Q 476.89 711.51 465.75 711.51
  Q 292.24 711.63 119.25 711.54
  C 99.44 711.53 79.09 711.21 59.02 711.57
  Q 47.84 711.76 35.98 711.46
  C 33.96 711.41 32.18 711.82 30.25 712.34
  A 0.86 0.84 -82.4 0 0 29.71 712.76
  Q 29.37 713.34 29.75 713.37
  Q 29.99 713.38 29.86 713.59
  Q 29.76 713.75 29.48 713.77"
/>
<path stroke="#82675c" vector-effect="non-scaling-stroke" d="
  M 29.06 713.63
  Q 29.06 711.35 27.12 711.36
  Q 22.03 711.39 16.30 710.99"
/>
<path stroke="#989796" vector-effect="non-scaling-stroke" d="
  M 62.40 51.30
  Q 56.76 58.22 56.72 67.25
  Q 56.49 133.36 56.70 200.00
  Q 56.73 209.87 56.69 220.00
  Q 56.50 261.67 56.56 308.00
  Q 56.56 308.19 56.65 403.00
  Q 56.77 518.75 56.62 638.41
  Q 56.62 646.15 57.42 649.51
  Q 58.76 655.17 62.22 659.78
  Q 62.47 660.11 62.91 660.00"
/>
<path stroke="#848382" vector-effect="non-scaling-stroke" d="
  M 62.91 660.00
  Q 62.72 660.99 63.17 661.51
  Q 69.17 668.41 77.34 671.02
  Q 82.05 672.53 93.79 672.55
  Q 105.21 672.58 116.50 672.59
  Q 437.55 672.84 809.25 672.56
  Q 827.12 672.54 842.75 672.58
  Q 858.31 672.61 867.47 659.17"
/>
<path stroke="#989796" vector-effect="non-scaling-stroke" d="
  M 867.47 659.17
  Q 872.77 651.44 872.66 642.25
  Q 872.52 630.27 872.53 617.26
  Q 872.74 342.88 872.52 68.57
  Q 872.52 60.79 868.17 52.80
  Q 867.95 52.40 867.36 52.02"
/>
<path stroke="#848382" vector-effect="non-scaling-stroke" d="
  M 867.36 52.02
  Q 867.02 50.99 866.81 50.75
  C 860.99 43.96 852.64 38.98 843.50 38.97
  C 589.57 38.87 339.82 38.95 94.96 38.85
  C 90.46 38.84 86.26 38.67 81.77 39.37
  Q 73.54 40.64 67.19 45.98
  Q 64.33 48.38 62.40 51.30"
/>
<path stroke="#8c8d8c" vector-effect="non-scaling-stroke" d="
  M 867.36 52.02
  L 816.90 102.84"
/>
<path stroke="#8c8d8c" vector-effect="non-scaling-stroke" d="
  M 113.58 102.45
  L 62.40 51.30"
/>
<path stroke="#8c8d8c" vector-effect="non-scaling-stroke" d="
  M 867.47 659.17
  L 818.67 610.53"
/>
<path stroke="#8c8d8c" vector-effect="non-scaling-stroke" d="
  M 112.05 610.32
  L 62.91 660.00"
/>
<path stroke="#6d6d6d" vector-effect="non-scaling-stroke" d="
  M 1075.48 55.94
  A 0.44 0.44 0.0 0 0 1075.04 55.50
  L 906.18 55.50
  A 0.44 0.44 0.0 0 0 905.74 55.94
  L 905.74 349.82
  A 0.44 0.44 0.0 0 0 906.18 350.26
  L 1075.04 350.26
  A 0.44 0.44 0.0 0 0 1075.48 349.82
  L 1075.48 55.94"
/>
<path stroke="#8c8d8c" vector-effect="non-scaling-stroke" d="
  M 1050.34 430.89
  A 59.69 59.69 0.0 0 0 990.65 371.20
  A 59.69 59.69 0.0 0 0 930.96 430.89
  A 59.69 59.69 0.0 0 0 990.65 490.58
  A 59.69 59.69 0.0 0 0 1050.34 430.89"
/>
<path stroke="#8c8d8c" vector-effect="non-scaling-stroke" d="
  M 1050.30 571.03
  A 59.69 59.69 0.0 0 0 990.61 511.34
  A 59.69 59.69 0.0 0 0 930.92 571.03
  A 59.69 59.69 0.0 0 0 990.61 630.72
  A 59.69 59.69 0.0 0 0 1050.30 571.03"
/>
<path stroke="#8c8d8c" vector-effect="non-scaling-stroke" d="
  M 1064.59 664.50
  L 1064.59 645.70
  A 9.19 9.19 0.0 0 0 1055.40 636.51
  L 927.72 636.51
  A 11.05 9.12 -0.0 0 0 916.67 645.63
  L 916.67 664.57
  A 11.05 9.12 0.0 0 0 927.72 673.69
  L 1055.40 673.69
  A 9.19 9.19 0.0 0 0 1064.59 664.50"
/>
<path stroke="#303030" vector-effect="non-scaling-stroke" d="
  M 944.12 82.00
  Q 940.50 85.79 936.86 88.37
  C 934.75 89.87 934.05 92.23 932.17 94.00
  Q 930.35 95.71 928.71 97.89
  Q 917.84 112.36 914.69 130.14
  Q 913.83 134.98 913.68 141.91
  Q 913.51 150.08 914.00 153.74
  Q 916.14 169.68 924.04 183.38
  Q 925.78 186.40 927.86 188.98
  Q 930.32 192.03 932.72 195.01
  Q 935.48 198.42 938.97 201.32
  Q 942.93 204.61 946.31 207.05
  Q 952.63 211.61 960.12 214.68
  Q 965.85 217.03 974.77 219.09
  Q 980.49 220.41 985.44 220.30
  Q 990.57 220.19 995.49 220.31
  Q 1000.00 220.43 1004.62 219.22
  Q 1009.95 217.82 1015.72 216.34
  C 1020.52 215.11 1024.72 212.70 1028.81 210.15
  C 1030.83 208.88 1033.09 208.32 1034.94 206.73
  Q 1038.51 203.65 1042.29 201.08
  C 1045.43 198.95 1046.54 195.37 1049.39 193.16
  Q 1050.72 192.14 1051.33 190.66
  C 1051.99 189.04 1053.13 187.77 1054.24 186.44
  Q 1055.42 185.02 1056.47 183.03
  Q 1060.79 174.80 1062.58 169.41
  Q 1063.91 165.38 1064.80 161.15
  Q 1065.21 159.22 1065.52 157.32
  C 1065.86 155.25 1067.05 152.95 1066.58 150.83
  Q 1066.22 149.21 1066.49 147.63
  Q 1067.00 144.74 1066.50 141.78
  C 1066.03 139.05 1067.48 136.79 1066.32 134.01
  Q 1065.48 132.01 1065.63 129.94
  Q 1065.73 128.52 1065.16 127.20
  Q 1064.06 124.60 1063.61 121.78
  C 1063.24 119.42 1061.77 117.46 1061.21 115.08
  Q 1060.66 112.68 1059.31 110.73
  C 1057.75 108.47 1057.26 105.79 1055.59 103.56
  C 1053.51 100.76 1051.83 96.92 1049.15 94.70
  Q 1047.59 93.41 1046.54 91.68
  C 1044.32 88.06 1040.05 85.62 1036.89 82.83
  Q 1034.51 80.72 1031.46 79.23
  Q 1027.09 77.09 1023.24 74.47
  Q 1020.83 72.82 1017.55 71.94
  Q 1005.68 68.78 998.00 67.68
  Q 985.28 65.86 969.71 70.03
  Q 966.11 71.00 962.75 71.97
  Q 959.14 73.02 956.42 74.75
  Q 953.88 76.37 951.30 77.91
  C 949.10 79.22 945.74 80.31 944.12 82.00"
/>
<path stroke="#303030" vector-effect="non-scaling-stroke" d="
  M 992.26 333.15
  Q 995.30 333.14 997.99 332.81
  Q 1007.66 331.59 1015.90 326.83
  Q 1035.17 315.70 1041.63 293.95
  Q 1042.96 289.45 1043.22 283.27
  Q 1043.55 275.34 1043.11 271.49
  Q 1042.06 262.43 1034.86 249.85
  C 1033.24 247.02 1030.45 245.43 1028.78 242.41
  Q 1027.63 240.33 1025.50 239.65
  A 1.96 1.94 -11.7 0 1 1024.68 239.12
  Q 1020.99 235.02 1016.67 232.73
  C 1009.64 228.99 1001.88 225.86 993.79 225.70
  C 985.80 225.54 978.58 225.73 971.15 228.68
  Q 966.62 230.49 962.29 232.71
  Q 958.51 234.65 955.22 238.22
  C 953.64 239.93 951.59 240.12 950.31 242.35
  C 948.66 245.22 946.08 246.97 944.29 249.77
  Q 938.61 258.67 936.22 269.37
  C 935.36 273.21 935.97 277.05 935.81 280.94
  Q 935.64 285.28 936.41 289.48
  Q 938.68 301.89 946.01 311.77
  Q 950.84 318.27 958.27 323.67
  Q 967.09 330.08 976.91 331.95
  Q 978.53 332.26 980.01 332.92
  A 2.90 2.83 56.6 0 0 981.20 333.18
  Q 986.43 333.16 992.26 333.15"
/>
<path stroke="#646564" vector-effect="non-scaling-stroke" d="
  M 1046.61 430.85
  A 55.99 55.99 0.0 0 0 990.62 374.86
  A 55.99 55.99 0.0 0 0 934.63 430.85
  A 55.99 55.99 0.0 0 0 990.62 486.84
  A 55.99 55.99 0.0 0 0 1046.61 430.85"
/>
<path stroke="#858685" vector-effect="non-scaling-stroke" d="
  M 992.2345 378.5586
  A 0.86 0.86 0.0 0 0 991.3686 377.7046
  L 989.7886 377.7156
  A 0.86 0.86 0.0 0 0 988.9346 378.5816
  L 988.9855 385.8614
  A 0.86 0.86 0.0 0 0 989.8514 386.7154
  L 991.4314 386.7044
  A 0.86 0.86 0.0 0 0 992.2854 385.8384
  L 992.2345 378.5586"
/>
<path stroke="#858685" vector-effect="non-scaling-stroke" d="
  M 965.8801 384.8976
  A 0.93 0.93 0.0 0 0 964.6103 384.5549
  L 963.4833 385.2030
  A 0.93 0.93 0.0 0 0 963.1407 386.4728
  L 966.6999 392.6624
  A 0.93 0.93 0.0 0 0 967.9697 393.0051
  L 969.0967 392.3570
  A 0.93 0.93 0.0 0 0 969.4393 391.0872
  L 965.8801 384.8976"
/>
<path stroke="#858685" vector-effect="non-scaling-stroke" d="
  M 1018.0110 385.8503
  A 1.58 0.87 14.3 0 0 1016.6949 384.6170
  A 1.58 0.87 14.3 0 0 1014.9490 385.0697
  A 1.58 0.87 14.3 0 0 1016.2651 386.3030
  A 1.58 0.87 14.3 0 0 1018.0110 385.8503"
/>
<path stroke="#858685" vector-effect="non-scaling-stroke" d="
  M 976.45 467.92
  Q 992.15 473.28 1005.74 467.47
  C 1028.39 457.78 1037.10 431.25 1024.05 409.64"
/>
<path stroke="#646564" vector-effect="non-scaling-stroke" d="
  M 1024.05 409.64
  Q 1024.06 408.71 1024.49 408.25
  Q 1026.97 405.59 1029.43 402.93
  Q 1031.14 401.10 1030.55 399.08
  Q 1029.48 395.44 1026.15 391.45
  Q 1025.73 390.94 1025.86 391.59
  Q 1026.44 394.39 1024.62 396.61
  Q 1021.68 400.19 1018.72 403.72
  Q 1011.64 412.17 1002.64 423.43
  C 995.53 432.32 986.88 442.13 979.46 451.72
  Q 975.09 457.37 970.24 462.70
  C 966.96 466.30 964.19 470.40 960.96 474.28
  Q 959.48 476.05 961.03 477.53
  Q 965.02 481.35 968.26 477.01
  Q 972.23 471.69 976.45 467.92"
/>
<path stroke="#999a99" vector-effect="non-scaling-stroke" d="
  M 1024.05 409.64
  L 1018.34 416.21"
/>
<path stroke="#8c8d8c" vector-effect="non-scaling-stroke" d="
  M 1018.34 416.21
  L 982.04 460.43"
/>
<path stroke="#999a99" vector-effect="non-scaling-stroke" d="
  M 982.04 460.43
  L 976.45 467.92"
/>
<path stroke="#adadad" vector-effect="non-scaling-stroke" d="
  M 982.04 460.43
  Q 984.27 461.80 986.00 461.98
  Q 988.44 462.24 991.80 462.14
  C 1003.67 461.81 1014.57 453.78 1019.18 443.95
  Q 1025.48 430.49 1018.34 416.21"
/>
<path stroke="#787978" vector-effect="non-scaling-stroke" d="
  M 962.94 445.53
  L 999.43 401.09"
/>
<path stroke="#858685" vector-effect="non-scaling-stroke" d="
  M 999.43 401.09
  L 1004.75 394.69
  A 0.58 0.58 0.0 0 0 1004.49 393.77
  C 988.57 388.25 971.47 392.31 960.55 405.15
  C 949.26 418.42 948.02 436.68 956.86 451.67
  A 0.60 0.59 49.6 0 0 957.83 451.75
  L 962.94 445.53"
/>
<path stroke="#adadad" vector-effect="non-scaling-stroke" d="
  M 999.43 401.09
  Q 987.14 397.22 975.72 403.52
  Q 966.29 408.73 962.27 417.26
  Q 955.86 430.89 962.94 445.53"
/>
<path stroke="#858685" vector-effect="non-scaling-stroke" d="
  M 952.6722 408.5353
  A 1.16 1.16 0.0 0 0 952.2532 406.9493
  L 946.3761 403.5287
  A 1.16 1.16 0.0 0 0 944.7901 403.9478
  L 944.4078 404.6047
  A 1.16 1.16 0.0 0 0 944.8268 406.1907
  L 950.7039 409.6113
  A 1.16 1.16 0.0 0 0 952.2899 409.1922
  L 952.6722 408.5353"
/>
<path stroke="#858685" vector-effect="non-scaling-stroke" d="
  M 1036.4696 403.8250
  A 1.11 1.11 0.0 0 0 1034.9492 403.4346
  L 1028.9928 406.9571
  A 1.11 1.11 0.0 0 0 1028.6024 408.4776
  L 1029.0504 409.2350
  A 1.11 1.11 0.0 0 0 1030.5708 409.6254
  L 1036.5272 406.1029
  A 1.11 1.11 0.0 0 0 1036.9176 404.5824
  L 1036.4696 403.8250"
/>
<path stroke="#858685" vector-effect="non-scaling-stroke" d="
  M 946.4949 430.2608
  A 1.04 1.04 0.0 0 0 945.4459 429.2299
  L 938.5262 429.2903
  A 1.04 1.04 0.0 0 0 937.4953 430.3393
  L 937.5051 431.4592
  A 1.04 1.04 0.0 0 0 938.5541 432.4901
  L 945.4738 432.4297
  A 1.04 1.04 0.0 0 0 946.5047 431.3807
  L 946.4949 430.2608"
/>
<path stroke="#858685" vector-effect="non-scaling-stroke" d="
  M 1043.6714 430.0678
  A 0.72 0.72 0.0 0 0 1042.9527 429.3465
  L 1035.5127 429.3335
  A 0.72 0.72 0.0 0 0 1034.7914 430.0523
  L 1034.7886 431.6722
  A 0.72 0.72 0.0 0 0 1035.5073 432.3935
  L 1042.9473 432.4065
  A 0.72 0.72 0.0 0 0 1043.6686 431.6877
  L 1043.6714 430.0678"
/>
<path stroke="#858685" vector-effect="non-scaling-stroke" d="
  M 952.3442 452.6852
  A 1.26 1.26 0.0 0 0 950.6279 452.2060
  L 944.8605 455.4558
  A 1.26 1.26 0.0 0 0 944.3813 457.1721
  L 944.6758 457.6948
  A 1.26 1.26 0.0 0 0 946.3921 458.1740
  L 952.1595 454.9242
  A 1.26 1.26 0.0 0 0 952.6387 453.2079
  L 952.3442 452.6852"
/>
<path stroke="#858685" vector-effect="non-scaling-stroke" d="
  M 1036.9054 457.1088
  A 1.12 1.12 0.0 0 0 1036.5115 455.5746
  L 1030.6068 452.0826
  A 1.12 1.12 0.0 0 0 1029.0727 452.4765
  L 1028.6146 453.2512
  A 1.12 1.12 0.0 0 0 1029.0085 454.7854
  L 1034.9132 458.2774
  A 1.12 1.12 0.0 0 0 1036.4473 457.8835
  L 1036.9054 457.1088"
/>
<path stroke="#858685" vector-effect="non-scaling-stroke" d="
  M 1014.4747 469.0538
  A 0.95 0.95 0.0 0 0 1013.1758 468.7106
  L 1012.0868 469.3445
  A 0.95 0.95 0.0 0 0 1011.7436 470.6434
  L 1015.3653 476.8662
  A 0.95 0.95 0.0 0 0 1016.6642 477.2094
  L 1017.7532 476.5755
  A 0.95 0.95 0.0 0 0 1018.0964 475.2766
  L 1014.4747 469.0538"
/>
<path stroke="#858685" vector-effect="non-scaling-stroke" d="
  M 992.2259 476.0487
  A 1.09 1.09 0.0 0 0 991.1284 474.9663
  L 990.0484 474.9739
  A 1.09 1.09 0.0 0 0 988.9660 476.0715
  L 989.0141 482.9513
  A 1.09 1.09 0.0 0 0 990.1116 484.0337
  L 991.1916 484.0261
  A 1.09 1.09 0.0 0 0 992.2740 482.9285
  L 992.2259 476.0487"
/>
<path stroke="#646564" vector-effect="non-scaling-stroke" d="
  M 1046.14 577.80
  Q 1047.34 567.17 1045.38 557.33
  C 1044.95 555.14 1043.77 553.54 1043.19 551.47
  Q 1042.56 549.22 1041.43 547.18
  Q 1040.14 544.83 1038.80 542.48
  Q 1032.30 531.11 1021.29 524.22
  Q 995.98 508.37 967.78 519.77
  C 965.61 520.64 963.60 522.17 961.46 523.27
  Q 959.02 524.53 956.72 526.37
  C 946.38 534.67 938.72 545.80 935.96 558.77
  Q 932.18 576.55 938.95 592.57
  Q 942.87 601.86 949.45 608.82
  Q 958.49 618.38 969.47 622.83
  C 987.57 630.16 1008.38 627.59 1024.11 615.70
  C 1036.12 606.61 1044.44 592.95 1046.14 577.80"
/>
<path stroke="#858685" vector-effect="non-scaling-stroke" d="
  M 992.3126 518.7259
  A 0.84 0.84 0.0 0 0 991.4756 517.8829
  L 989.8156 517.8771
  A 0.84 0.84 0.0 0 0 988.9726 518.7142
  L 988.9474 525.9541
  A 0.84 0.84 0.0 0 0 989.7844 526.7971
  L 991.4444 526.8029
  A 0.84 0.84 0.0 0 0 992.2874 525.9658
  L 992.3126 518.7259"
/>
<path stroke="#858685" vector-effect="non-scaling-stroke" d="
  M 965.7805 524.8295
  A 0.67 0.67 0.0 0 0 964.8657 524.5827
  L 963.2879 525.4899
  A 0.67 0.67 0.0 0 0 963.0411 526.4047
  L 966.8395 533.0105
  A 0.67 0.67 0.0 0 0 967.7543 533.2573
  L 969.3321 532.3501
  A 0.67 0.67 0.0 0 0 969.5789 531.4353
  L 965.7805 524.8295"
/>
<path stroke="#858685" vector-effect="non-scaling-stroke" d="
  M 1018.1215 526.5582
  A 0.88 0.88 0.0 0 0 1017.8057 525.3544
  L 1016.5451 524.6178
  A 0.88 0.88 0.0 0 0 1015.3414 524.9336
  L 1011.6785 531.2018
  A 0.88 0.88 0.0 0 0 1011.9943 532.4056
  L 1013.2549 533.1422
  A 0.88 0.88 0.0 0 0 1014.4586 532.8264
  L 1018.1215 526.5582"
/>
<path stroke="#646564" vector-effect="non-scaling-stroke" d="
  M 951.19 567.71
  L 942.83 569.52"
/>
<path stroke="#858685" vector-effect="non-scaling-stroke" d="
  M 942.83 569.52
  L 939.07 569.49
  Q 937.72 569.48 937.58 570.82
  Q 937.42 572.40 938.73 572.44"
/>
<path stroke="#646564" vector-effect="non-scaling-stroke" d="
  M 938.73 572.44
  Q 937.90 571.92 938.81 573.48
  Q 939.05 573.89 938.99 574.36
  L 938.50 577.96
  A 0.67 0.67 0.0 0 0 939.44 578.66
  Q 941.56 577.69 943.81 577.25
  Q 949.89 576.06 955.19 574.75
  Q 972.94 570.37 991.75 566.18
  Q 1000.98 564.12 1025.90 557.92
  C 1030.89 556.68 1036.24 555.89 1041.30 554.24
  Q 1041.92 554.04 1041.94 553.39
  Q 1042.10 548.14 1038.09 547.24
  Q 1037.51 547.11 1037.39 546.53
  L 1037.17 545.45"
/>
<path stroke="#858685" vector-effect="non-scaling-stroke" d="
  M 1037.17 545.45
  Q 1036.78 544.23 1036.12 543.74
  Q 1035.50 543.29 1034.41 543.83
  Q 1030.48 545.78 1028.19 548.22"
/>
<path stroke="#646564" vector-effect="non-scaling-stroke" d="
  M 1028.19 548.22
  Q 1029.36 550.88 1024.47 550.33"
/>
<path stroke="#858685" vector-effect="non-scaling-stroke" d="
  M 1024.47 550.33
  Q 1013.86 534.65 996.98 531.98
  C 974.35 528.39 953.04 544.45 951.19 567.71"
/>
<path stroke="#999a99" vector-effect="non-scaling-stroke" d="
  M 1024.47 550.33
  L 1016.14 552.55"
/>
<path stroke="#adadad" vector-effect="non-scaling-stroke" d="
  M 1016.14 552.55
  Q 1011.18 546.86 1005.58 543.68
  Q 993.94 537.05 980.88 541.36
  Q 969.85 545.00 963.87 554.88
  Q 960.80 559.96 959.76 565.79"
/>
<path stroke="#999a99" vector-effect="non-scaling-stroke" d="
  M 959.76 565.79
  L 951.19 567.71"
/>
<path stroke="#999a99" vector-effect="non-scaling-stroke" d="
  M 938.73 572.44
  L 940.58 570.56
  Q 940.93 570.20 941.43 570.21
  Q 942.59 570.23 942.83 569.52"
/>
<path stroke="#8c8d8c" vector-effect="non-scaling-stroke" d="
  M 1016.14 552.55
  L 959.76 565.79"
/>
<path stroke="#999a99" vector-effect="non-scaling-stroke" d="
  M 1037.17 545.45
  Q 1035.25 547.00 1031.71 548.94
  Q 1029.68 550.04 1028.19 548.22"
/>
<path stroke="#858685" vector-effect="non-scaling-stroke" d="
  M 952.6823 548.5807
  A 1.10 1.10 0.0 0 0 952.2954 547.0739
  L 946.3735 543.5717
  A 1.10 1.10 0.0 0 0 944.8668 543.9586
  L 944.3577 544.8193
  A 1.10 1.10 0.0 0 0 944.7446 546.3261
  L 950.6665 549.8283
  A 1.10 1.10 0.0 0 0 952.1732 549.4414
  L 952.6823 548.5807"
/>
<path stroke="#787978" vector-effect="non-scaling-stroke" d="
  M 1042.99 570.96
  Q 1040.52 571.23 1038.43 571.93
  Q 1037.58 572.22 1038.43 572.50
  Q 1040.73 573.24 1043.09 572.73
  Q 1043.60 572.62 1043.81 572.14
  Q 1043.97 571.78 1043.81 571.43
  A 0.79 0.78 -14.8 0 0 1042.99 570.96"
/>
<path stroke="#787978" vector-effect="non-scaling-stroke" d="
  M 1021.91 576.01
  L 965.24 589.30"
/>
<path stroke="#858685" vector-effect="non-scaling-stroke" d="
  M 965.24 589.30
  L 957.26 591.06
  A 0.53 0.53 0.0 0 0 956.93 591.87
  Q 965.50 604.93 979.68 609.03
  C 990.69 612.21 1002.87 610.42 1012.45 603.97
  Q 1027.30 593.96 1030.00 575.49
  Q 1030.21 574.00 1028.75 574.35
  L 1021.91 576.01"
/>
<path stroke="#adadad" vector-effect="non-scaling-stroke" d="
  M 965.24 589.30
  Q 972.60 599.17 984.89 601.85
  Q 989.18 602.78 992.28 602.38
  Q 1015.88 599.31 1021.91 576.01"
/>
<path stroke="#858685" vector-effect="non-scaling-stroke" d="
  M 1036.9631 597.0084
  A 0.95 0.95 0.0 0 0 1036.6108 595.7119
  L 1030.4497 592.1834
  A 0.95 0.95 0.0 0 0 1029.1532 592.5356
  L 1028.5369 593.6116
  A 0.95 0.95 0.0 0 0 1028.8892 594.9081
  L 1035.0503 598.4366
  A 0.95 0.95 0.0 0 0 1036.3468 598.0844
  L 1036.9631 597.0084"
/>
<path stroke="#858685" vector-effect="non-scaling-stroke" d="
  M 952.4527 593.0356
  A 1.53 1.53 0.0 0 0 950.3666 592.4610
  L 945.0627 595.4740
  A 1.53 1.53 0.0 0 0 944.4881 597.5601
  L 944.5473 597.6644
  A 1.53 1.53 0.0 0 0 946.6334 598.2390
  L 951.9373 595.2260
  A 1.53 1.53 0.0 0 0 952.5119 593.1399
  L 952.4527 593.0356"
/>
<path stroke="#858685" vector-effect="non-scaling-stroke" d="
  M 969.3544 611.0181
  A 1.31 1.31 0.0 0 0 968.8718 609.2295
  L 968.3343 608.9204
  A 1.31 1.31 0.0 0 0 966.5456 609.4030
  L 963.2456 615.1419
  A 1.31 1.31 0.0 0 0 963.7282 616.9305
  L 964.2657 617.2396
  A 1.31 1.31 0.0 0 0 966.0544 616.7570
  L 969.3544 611.0181"
/>
<path stroke="#858685" vector-effect="non-scaling-stroke" d="
  M 1014.6100 609.3424
  A 1.18 1.18 0.0 0 0 1012.9974 608.9133
  L 1012.2187 609.3646
  A 1.18 1.18 0.0 0 0 1011.7897 610.9773
  L 1015.2100 616.8776
  A 1.18 1.18 0.0 0 0 1016.8226 617.3067
  L 1017.6013 616.8554
  A 1.18 1.18 0.0 0 0 1018.0303 615.2427
  L 1014.6100 609.3424"
/>
<path stroke="#858685" vector-effect="non-scaling-stroke" d="
  M 992.2538 616.0971
  A 0.86 0.86 0.0 0 0 991.3923 615.2386
  L 989.8323 615.2414
  A 0.86 0.86 0.0 0 0 988.9738 616.1029
  L 988.9862 623.2429
  A 0.86 0.86 0.0 0 0 989.8477 624.1014
  L 991.4077 624.0986
  A 0.86 0.86 0.0 0 0 992.2662 623.2371
  L 992.2538 616.0971"
/>
<path stroke="#999a99" vector-effect="non-scaling-stroke" d="
  M 1000.03 665.52
  Q 1002.45 662.97 1003.73 659.81"
/>
<path stroke="#848382" vector-effect="non-scaling-stroke" d="
  M 1003.73 659.81
  L 1018.32 639.54
  A 0.90 0.90 0.0 0 0 1017.66 638.12
  Q 1015.64 637.97 1013.73 637.96
  Q 973.39 637.61 929.48 637.87
  C 925.57 637.90 921.69 638.12 919.46 641.77
  Q 918.20 643.83 918.23 646.56
  Q 918.30 655.12 918.26 663.18
  C 918.20 674.46 930.44 672.06 937.61 672.26
  Q 941.08 672.36 944.37 672.15
  C 949.55 671.83 954.68 672.23 959.85 672.23
  Q 974.72 672.23 990.75 672.04
  Q 993.05 672.02 995.26 671.55
  Q 996.27 671.33 996.31 670.29
  Q 996.33 669.73 996.70 669.31
  L 1000.03 665.52"
/>
<path stroke="#a5a4a3" vector-effect="non-scaling-stroke" d="
  M 1003.73 659.81
  Q 1006.20 649.68 999.13 644.27
  Q 995.74 641.68 991.97 641.36
  C 978.16 640.18 971.60 656.59 981.77 665.54
  Q 986.77 669.94 994.50 668.36
  Q 995.72 668.11 997.25 667.02
  Q 998.58 666.08 1000.03 665.52"
/>
<path stroke="#999a99" vector-effect="non-scaling-stroke" d="
  M 1047.74 655.06
  A 13.75 13.75 0.0 0 0 1033.99 641.31
  A 13.75 13.75 0.0 0 0 1020.24 655.06
  A 13.75 13.75 0.0 0 0 1033.99 668.81
  A 13.75 13.75 0.0 0 0 1047.74 655.06"
/>
<path stroke="#a5a4a3" vector-effect="non-scaling-stroke" d="
  M 961.02 655.02
  A 13.80 13.80 0.0 0 0 947.22 641.22
  A 13.80 13.80 0.0 0 0 933.42 655.02
  A 13.80 13.80 0.0 0 0 947.22 668.82
  A 13.80 13.80 0.0 0 0 961.02 655.02"
/>
<path stroke="#999a99" vector-effect="non-scaling-stroke" d="
  M 958.25 655.07
  A 10.99 10.99 0.0 0 0 947.26 644.08
  A 10.99 10.99 0.0 0 0 936.27 655.07
  A 10.99 10.99 0.0 0 0 947.26 666.06
  A 10.99 10.99 0.0 0 0 958.25 655.07"
/>
<path stroke="#999a99" vector-effect="non-scaling-stroke" d="
  M 1001.58 655.04
  A 10.99 10.99 0.0 0 0 990.59 644.05
  A 10.99 10.99 0.0 0 0 979.60 655.04
  A 10.99 10.99 0.0 0 0 990.59 666.03
  A 10.99 10.99 0.0 0 0 1001.58 655.04"
/>
<path stroke="#999a99" vector-effect="non-scaling-stroke" d="
  M 1045.02 655.05
  A 11.02 11.02 0.0 0 0 1034.00 644.03
  A 11.02 11.02 0.0 0 0 1022.98 655.05
  A 11.02 11.02 0.0 0 0 1034.00 666.07
  A 11.02 11.02 0.0 0 0 1045.02 655.05"
/>
<path stroke="#999a99" vector-effect="non-scaling-stroke" d="
  M 997.51 655.03
  A 7.01 7.01 0.0 0 0 990.50 648.02
  A 7.01 7.01 0.0 0 0 983.49 655.03
  A 7.01 7.01 0.0 0 0 990.50 662.04
  A 7.01 7.01 0.0 0 0 997.51 655.03"
/>
<path stroke="#999a99" vector-effect="non-scaling-stroke" d="
  M 1040.89 655.02
  A 7.03 7.03 0.0 0 0 1033.86 647.99
  A 7.03 7.03 0.0 0 0 1026.83 655.02
  A 7.03 7.03 0.0 0 0 1033.86 662.05
  A 7.03 7.03 0.0 0 0 1040.89 655.02"
/>
<path stroke="#999a99" vector-effect="non-scaling-stroke" d="
  M 954.18 655.03
  A 7.01 7.01 0.0 0 0 947.17 648.02
  A 7.01 7.01 0.0 0 0 940.16 655.03
  A 7.01 7.01 0.0 0 0 947.17 662.04
  A 7.01 7.01 0.0 0 0 954.18 655.03"
/>
<path stroke="#adadad" vector-effect="non-scaling-stroke" d="
  M 952.95 655.03
  A 5.63 5.63 0.0 0 0 947.32 649.40
  A 5.63 5.63 0.0 0 0 941.69 655.03
  A 5.63 5.63 0.0 0 0 947.32 660.66
  A 5.63 5.63 0.0 0 0 952.95 655.03"
/>
<path stroke="#adadad" vector-effect="non-scaling-stroke" d="
  M 996.28 655.08
  A 5.61 5.61 0.0 0 0 990.67 649.47
  A 5.61 5.61 0.0 0 0 985.06 655.08
  A 5.61 5.61 0.0 0 0 990.67 660.69
  A 5.61 5.61 0.0 0 0 996.28 655.08"
/>
<path stroke="#adadad" vector-effect="non-scaling-stroke" d="
  M 1039.47 655.00
  A 5.49 5.49 0.0 0 0 1033.98 649.51
  A 5.49 5.49 0.0 0 0 1028.49 655.00
  A 5.49 5.49 0.0 0 0 1033.98 660.49
  A 5.49 5.49 0.0 0 0 1039.47 655.00"
/>
<path stroke="#73655f" vector-effect="non-scaling-stroke" d="
  M 1075.94 713.47
  Q 1074.28 714.48 1073.65 716.04"
/>
<path stroke="#73655f" vector-effect="non-scaling-stroke" d="
  M 1072.15 717.29
  Q 1069.53 718.88 1068.37 721.25"
/>
</g>
<path fill="#563c31" d="
  M 66.61 0.00
  L 1068.27 0.00
  Q 1073.84 0.21 1079.26 1.31
  Q 1083.98 2.27 1088.35 4.79
  C 1092.12 6.96 1096.65 9.57 1099.50 12.90
  C 1098.78 13.16 1098.34 13.63 1097.52 13.70
  Q 1094.27 13.97 1091.00 13.97
  Q 908.11 13.98 713.75 14.13
  Q 713.31 14.13 713.00 14.25
  C 712.32 14.10 711.65 13.78 710.95 13.79
  C 704.42 13.88 697.94 13.53 691.39 13.53
  Q 390.38 13.49 95.90 13.58
  C 74.83 13.58 52.72 14.13 30.99 13.91
  Q 19.79 13.80 8.18 14.00
  Q 10.95 10.15 14.60 7.87
  Q 22.30 3.08 26.98 1.72
  Q 28.37 1.31 32.98 0.59
  Q 35.86 0.15 39.05 0.19
  Q 52.84 0.40 66.61 0.00
  Z"
/>
<path fill="#775340" d="
  M 1099.50 12.90
  Q 1100.34 13.42 1100.63 14.03
  L 1105.00 23.16
  L 1105.00 697.78
  Q 1100.90 705.19 1093.76 709.39
  L 1088.93 710.94
  L 1079.11 711.29
  Q 1078.61 711.30 1078.31 711.70
  Q 1077.37 712.95 1075.94 713.47
  Q 1076.66 711.56 1073.99 711.55
  Q 1053.64 711.49 1033.50 711.46
  Q 942.12 711.34 850.75 711.42
  Q 693.22 711.56 547.11 711.24
  Q 522.83 711.19 498.21 711.49
  Q 500.29 707.78 501.22 704.27
  Q 502.61 699.03 502.65 698.92
  Q 505.72 689.47 507.52 681.85
  Q 507.61 681.46 507.93 681.22
  Q 508.11 681.08 508.16 680.86
  Q 508.26 680.44 507.85 680.29
  L 507.26 680.08
  Q 674.75 680.12 842.25 680.12
  Q 851.51 680.12 854.44 679.67
  C 867.26 677.72 877.69 668.75 881.09 656.18
  Q 882.37 651.47 882.36 639.25
  Q 882.15 353.73 882.31 69.10
  Q 882.31 60.61 881.45 56.70
  C 878.96 45.46 870.61 36.61 859.51 33.03
  C 854.49 31.41 848.37 31.45 843.00 31.45
  Q 775.85 31.40 708.65 31.47
  Q 709.08 30.51 709.10 29.32
  Q 709.11 27.90 709.30 27.19
  Q 710.97 20.69 713.00 14.25
  Q 713.31 14.13 713.75 14.13
  Q 908.11 13.98 1091.00 13.97
  Q 1094.27 13.97 1097.52 13.70
  C 1098.34 13.63 1098.78 13.16 1099.50 12.90
  Z
  M 894.45 679.52
  A 0.55 0.55 0.0 0 0 895.00 680.07
  L 1086.19 680.02
  A 0.55 0.55 0.0 0 0 1086.74 679.47
  L 1086.74 32.09
  A 0.55 0.55 0.0 0 0 1086.19 31.54
  L 895.00 31.48
  A 0.55 0.55 0.0 0 0 894.45 32.03
  L 894.45 679.52
  Z"
/>
<path fill="#73412b" d="
  M 8.18 14.00
  Q 19.79 13.80 30.99 13.91
  C 52.72 14.13 74.83 13.58 95.90 13.58
  Q 390.38 13.49 691.39 13.53
  C 697.94 13.53 704.42 13.88 710.95 13.79
  C 711.65 13.78 712.32 14.10 713.00 14.25
  Q 710.97 20.69 709.30 27.19
  Q 709.11 27.90 709.10 29.32
  Q 709.08 30.51 708.65 31.47
  Q 707.52 31.31 706.50 31.31
  Q 371.68 31.51 84.20 31.50
  Q 75.66 31.50 71.87 32.40
  C 60.45 35.11 51.69 43.74 48.19 54.99
  Q 46.96 58.93 46.97 66.75
  Q 47.10 377.66 46.98 647.12
  C 46.98 661.88 56.19 674.42 70.18 678.72
  Q 74.58 680.07 85.34 680.06
  Q 296.30 679.99 507.26 680.08
  L 507.85 680.29
  Q 508.26 680.44 508.16 680.86
  Q 508.11 681.08 507.93 681.22
  Q 507.61 681.46 507.52 681.85
  Q 505.72 689.47 502.65 698.92
  Q 502.61 699.03 501.22 704.27
  Q 500.29 707.78 498.21 711.49
  Q 493.62 711.57 488.25 711.55
  Q 476.89 711.51 465.75 711.51
  Q 292.24 711.63 119.25 711.54
  C 99.44 711.53 79.09 711.21 59.02 711.57
  Q 47.84 711.76 35.98 711.46
  C 33.96 711.41 32.18 711.82 30.25 712.34
  A 0.86 0.84 -82.4 0 0 29.71 712.76
  Q 29.37 713.34 29.75 713.37
  Q 29.99 713.38 29.86 713.59
  Q 29.76 713.75 29.48 713.77
  Q 29.00 713.74 29.06 713.63
  Q 29.06 711.35 27.12 711.36
  Q 22.03 711.39 16.30 710.99
  Q 5.30 707.86 1.72 696.78
  Q 1.01 694.59 0.64 691.07
  Q 0.17 686.72 0.19 685.25
  Q 0.63 646.81 0.00 608.38
  L 0.00 551.24
  L 0.00 271.38
  L 0.00 109.24
  Q 0.44 76.09 0.22 42.93
  C 0.20 39.31 0.66 35.82 1.08 32.27
  Q 2.35 21.39 8.18 14.00
  Z"
/>
<path fill="#bababa" d="
  M 1100.63 14.03
  Q 1104.09 16.91 1105.00 21.12
  L 1105.00 23.16
  L 1100.63 14.03
  Z"
/>
<path fill="#908d8c" d="
  M 708.65 31.47
  Q 775.85 31.40 843.00 31.45
  C 848.37 31.45 854.49 31.41 859.51 33.03
  C 870.61 36.61 878.96 45.46 881.45 56.70
  Q 882.31 60.61 882.31 69.10
  Q 882.15 353.73 882.36 639.25
  Q 882.37 651.47 881.09 656.18
  C 877.69 668.75 867.26 677.72 854.44 679.67
  Q 851.51 680.12 842.25 680.12
  Q 674.75 680.12 507.26 680.08
  Q 296.30 679.99 85.34 680.06
  Q 74.58 680.07 70.18 678.72
  C 56.19 674.42 46.98 661.88 46.98 647.12
  Q 47.10 377.66 46.97 66.75
  Q 46.96 58.93 48.19 54.99
  C 51.69 43.74 60.45 35.11 71.87 32.40
  Q 75.66 31.50 84.20 31.50
  Q 371.68 31.51 706.50 31.31
  Q 707.52 31.31 708.65 31.47
  Z
  M 62.40 51.30
  Q 56.76 58.22 56.72 67.25
  Q 56.49 133.36 56.70 200.00
  Q 56.73 209.87 56.69 220.00
  Q 56.50 261.67 56.56 308.00
  Q 56.56 308.19 56.65 403.00
  Q 56.77 518.75 56.62 638.41
  Q 56.62 646.15 57.42 649.51
  Q 58.76 655.17 62.22 659.78
  Q 62.47 660.11 62.91 660.00
  Q 62.72 660.99 63.17 661.51
  Q 69.17 668.41 77.34 671.02
  Q 82.05 672.53 93.79 672.55
  Q 105.21 672.58 116.50 672.59
  Q 437.55 672.84 809.25 672.56
  Q 827.12 672.54 842.75 672.58
  Q 858.31 672.61 867.47 659.17
  Q 872.77 651.44 872.66 642.25
  Q 872.52 630.27 872.53 617.26
  Q 872.74 342.88 872.52 68.57
  Q 872.52 60.79 868.17 52.80
  Q 867.95 52.40 867.36 52.02
  Q 867.02 50.99 866.81 50.75
  C 860.99 43.96 852.64 38.98 843.50 38.97
  C 589.57 38.87 339.82 38.95 94.96 38.85
  C 90.46 38.84 86.26 38.67 81.77 39.37
  Q 73.54 40.64 67.19 45.98
  Q 64.33 48.38 62.40 51.30
  Z"
/>
<path fill="#a0a0a0" d="
  M 894.45 679.52
  L 894.45 32.03
  A 0.55 0.55 0.0 0 1 895.00 31.48
  L 1086.19 31.54
  A 0.55 0.55 0.0 0 1 1086.74 32.09
  L 1086.74 679.47
  A 0.55 0.55 0.0 0 1 1086.19 680.02
  L 895.00 680.07
  A 0.55 0.55 0.0 0 1 894.45 679.52
  Z
  M 1075.48 55.94
  A 0.44 0.44 0.0 0 0 1075.04 55.50
  L 906.18 55.50
  A 0.44 0.44 0.0 0 0 905.74 55.94
  L 905.74 349.82
  A 0.44 0.44 0.0 0 0 906.18 350.26
  L 1075.04 350.26
  A 0.44 0.44 0.0 0 0 1075.48 349.82
  L 1075.48 55.94
  Z
  M 1050.34 430.89
  A 59.69 59.69 0.0 0 0 990.65 371.20
  A 59.69 59.69 0.0 0 0 930.96 430.89
  A 59.69 59.69 0.0 0 0 990.65 490.58
  A 59.69 59.69 0.0 0 0 1050.34 430.89
  Z
  M 1050.30 571.03
  A 59.69 59.69 0.0 0 0 990.61 511.34
  A 59.69 59.69 0.0 0 0 930.92 571.03
  A 59.69 59.69 0.0 0 0 990.61 630.72
  A 59.69 59.69 0.0 0 0 1050.30 571.03
  Z
  M 1064.59 664.50
  L 1064.59 645.70
  A 9.19 9.19 0.0 0 0 1055.40 636.51
  L 927.72 636.51
  A 11.05 9.12 -0.0 0 0 916.67 645.63
  L 916.67 664.57
  A 11.05 9.12 0.0 0 0 927.72 673.69
  L 1055.40 673.69
  A 9.19 9.19 0.0 0 0 1064.59 664.50
  Z"
/>
<path fill="#777978" d="
  M 867.36 52.02
  L 816.90 102.84
  Q 811.24 99.00 804.65 96.55
  Q 801.48 95.37 800.51 95.25
  C 789.52 93.83 778.49 92.19 767.78 91.01
  Q 750.22 89.07 732.74 86.96
  C 724.50 85.96 716.35 85.75 708.08 84.69
  Q 691.77 82.58 677.50 81.71
  Q 637.98 79.30 601.55 77.11
  C 585.28 76.13 568.60 76.12 552.14 75.46
  Q 541.31 75.03 532.24 75.02
  Q 484.04 74.98 434.35 74.99
  Q 424.34 74.99 414.26 75.35
  C 398.35 75.92 382.31 76.26 366.52 77.03
  Q 327.80 78.90 287.31 81.24
  C 269.07 82.30 250.51 84.07 232.50 85.39
  Q 211.63 86.93 205.22 87.70
  Q 179.41 90.80 152.54 92.51
  Q 148.83 92.75 136.47 94.03
  C 131.32 94.57 126.61 96.07 121.83 97.89
  Q 118.96 98.99 116.88 100.52
  Q 115.81 101.31 113.58 102.45
  L 62.40 51.30
  Q 64.33 48.38 67.19 45.98
  Q 73.54 40.64 81.77 39.37
  C 86.26 38.67 90.46 38.84 94.96 38.85
  C 339.82 38.95 589.57 38.87 843.50 38.97
  C 852.64 38.98 860.99 43.96 866.81 50.75
  Q 867.02 50.99 867.36 52.02
  Z"
/>
<path fill="#a0a0a0" d="
  M 62.40 51.30
  L 113.58 102.45
  Q 103.38 109.01 98.93 121.07
  Q 98.25 122.93 97.93 124.99
  C 97.41 128.33 96.84 131.64 96.53 135.03
  Q 93.76 164.81 92.74 183.03
  Q 91.83 199.00 90.67 215.33
  C 89.70 229.07 89.97 242.76 90.02 256.67
  Q 90.02 256.82 90.07 256.97
  Q 90.16 257.24 90.36 257.27
  Q 91.33 257.39 90.40 257.72
  Q 90.23 257.78 90.12 257.94
  Q 90.02 258.08 90.02 258.26
  C 89.97 264.52 88.91 270.73 88.91 277.20
  Q 88.91 321.25 88.98 366.20
  Q 89.00 374.03 89.42 380.90
  C 90.12 392.36 89.94 404.04 90.38 415.26
  Q 91.23 436.84 92.11 459.00
  Q 94.50 519.12 98.77 583.76
  Q 99.08 588.40 100.09 591.52
  Q 101.51 595.90 104.14 600.84
  Q 105.49 603.35 107.71 605.76
  Q 109.83 608.04 112.05 610.32
  L 62.91 660.00
  Q 62.47 660.11 62.22 659.78
  Q 58.76 655.17 57.42 649.51
  Q 56.62 646.15 56.62 638.41
  Q 56.77 518.75 56.65 403.00
  Q 56.56 308.19 56.56 308.00
  Q 56.50 261.67 56.69 220.00
  Q 56.73 209.87 56.70 200.00
  Q 56.49 133.36 56.72 67.25
  Q 56.76 58.22 62.40 51.30
  Z"
/>
<path fill="#a0a0a0" d="
  M 867.36 52.02
  Q 867.95 52.40 868.17 52.80
  Q 872.52 60.79 872.52 68.57
  Q 872.74 342.88 872.53 617.26
  Q 872.52 630.27 872.66 642.25
  Q 872.77 651.44 867.47 659.17
  L 818.67 610.53
  Q 826.68 603.27 829.21 595.50
  Q 830.75 590.78 832.40 582.09
  Q 833.43 576.64 833.37 571.37
  Q 833.24 559.50 834.80 548.50
  Q 835.56 543.11 835.54 536.70
  Q 835.53 530.15 836.29 523.45
  C 836.85 518.47 836.81 513.32 837.24 508.29
  Q 837.71 502.66 837.77 497.09
  Q 837.89 485.07 838.85 473.18
  Q 839.74 462.09 840.02 453.24
  Q 840.59 435.44 841.47 418.48
  Q 842.01 407.92 841.99 398.35
  Q 841.86 348.10 841.91 294.57
  Q 841.93 280.61 840.50 259.91
  Q 839.94 251.69 839.70 242.69
  Q 839.47 234.11 838.55 225.52
  Q 837.63 216.85 837.19 198.60
  Q 837.17 198.17 836.87 197.87
  L 836.64 197.64
  Q 836.33 197.33 836.33 196.90
  Q 836.15 180.45 834.82 163.63
  Q 834.25 156.30 834.15 150.13
  Q 834.05 143.44 834.02 136.73
  Q 834.01 133.46 833.46 130.46
  Q 832.77 126.68 831.69 124.05
  Q 826.88 112.36 816.90 102.84
  L 867.36 52.02
  Z"
/>
<path fill="#393939" d="
  M 1075.48 349.82
  A 0.44 0.44 0.0 0 1 1075.04 350.26
  L 906.18 350.26
  A 0.44 0.44 0.0 0 1 905.74 349.82
  L 905.74 55.94
  A 0.44 0.44 0.0 0 1 906.18 55.50
  L 1075.04 55.50
  A 0.44 0.44 0.0 0 1 1075.48 55.94
  L 1075.48 349.82
  Z
  M 944.12 82.00
  Q 940.50 85.79 936.86 88.37
  C 934.75 89.87 934.05 92.23 932.17 94.00
  Q 930.35 95.71 928.71 97.89
  Q 917.84 112.36 914.69 130.14
  Q 913.83 134.98 913.68 141.91
  Q 913.51 150.08 914.00 153.74
  Q 916.14 169.68 924.04 183.38
  Q 925.78 186.40 927.86 188.98
  Q 930.32 192.03 932.72 195.01
  Q 935.48 198.42 938.97 201.32
  Q 942.93 204.61 946.31 207.05
  Q 952.63 211.61 960.12 214.68
  Q 965.85 217.03 974.77 219.09
  Q 980.49 220.41 985.44 220.30
  Q 990.57 220.19 995.49 220.31
  Q 1000.00 220.43 1004.62 219.22
  Q 1009.95 217.82 1015.72 216.34
  C 1020.52 215.11 1024.72 212.70 1028.81 210.15
  C 1030.83 208.88 1033.09 208.32 1034.94 206.73
  Q 1038.51 203.65 1042.29 201.08
  C 1045.43 198.95 1046.54 195.37 1049.39 193.16
  Q 1050.72 192.14 1051.33 190.66
  C 1051.99 189.04 1053.13 187.77 1054.24 186.44
  Q 1055.42 185.02 1056.47 183.03
  Q 1060.79 174.80 1062.58 169.41
  Q 1063.91 165.38 1064.80 161.15
  Q 1065.21 159.22 1065.52 157.32
  C 1065.86 155.25 1067.05 152.95 1066.58 150.83
  Q 1066.22 149.21 1066.49 147.63
  Q 1067.00 144.74 1066.50 141.78
  C 1066.03 139.05 1067.48 136.79 1066.32 134.01
  Q 1065.48 132.01 1065.63 129.94
  Q 1065.73 128.52 1065.16 127.20
  Q 1064.06 124.60 1063.61 121.78
  C 1063.24 119.42 1061.77 117.46 1061.21 115.08
  Q 1060.66 112.68 1059.31 110.73
  C 1057.75 108.47 1057.26 105.79 1055.59 103.56
  C 1053.51 100.76 1051.83 96.92 1049.15 94.70
  Q 1047.59 93.41 1046.54 91.68
  C 1044.32 88.06 1040.05 85.62 1036.89 82.83
  Q 1034.51 80.72 1031.46 79.23
  Q 1027.09 77.09 1023.24 74.47
  Q 1020.83 72.82 1017.55 71.94
  Q 1005.68 68.78 998.00 67.68
  Q 985.28 65.86 969.71 70.03
  Q 966.11 71.00 962.75 71.97
  Q 959.14 73.02 956.42 74.75
  Q 953.88 76.37 951.30 77.91
  C 949.10 79.22 945.74 80.31 944.12 82.00
  Z
  M 992.26 333.15
  Q 995.30 333.14 997.99 332.81
  Q 1007.66 331.59 1015.90 326.83
  Q 1035.17 315.70 1041.63 293.95
  Q 1042.96 289.45 1043.22 283.27
  Q 1043.55 275.34 1043.11 271.49
  Q 1042.06 262.43 1034.86 249.85
  C 1033.24 247.02 1030.45 245.43 1028.78 242.41
  Q 1027.63 240.33 1025.50 239.65
  A 1.96 1.94 -11.7 0 1 1024.68 239.12
  Q 1020.99 235.02 1016.67 232.73
  C 1009.64 228.99 1001.88 225.86 993.79 225.70
  C 985.80 225.54 978.58 225.73 971.15 228.68
  Q 966.62 230.49 962.29 232.71
  Q 958.51 234.65 955.22 238.22
  C 953.64 239.93 951.59 240.12 950.31 242.35
  C 948.66 245.22 946.08 246.97 944.29 249.77
  Q 938.61 258.67 936.22 269.37
  C 935.36 273.21 935.97 277.05 935.81 280.94
  Q 935.64 285.28 936.41 289.48
  Q 938.68 301.89 946.01 311.77
  Q 950.84 318.27 958.27 323.67
  Q 967.09 330.08 976.91 331.95
  Q 978.53 332.26 980.01 332.92
  A 2.90 2.83 56.6 0 0 981.20 333.18
  Q 986.43 333.16 992.26 333.15
  Z"
/>
<path fill="#262626" d="
  M 944.12 82.00
  C 945.74 80.31 949.10 79.22 951.30 77.91
  Q 953.88 76.37 956.42 74.75
  Q 959.14 73.02 962.75 71.97
  Q 966.11 71.00 969.71 70.03
  Q 985.28 65.86 998.00 67.68
  Q 1005.68 68.78 1017.55 71.94
  Q 1020.83 72.82 1023.24 74.47
  Q 1027.09 77.09 1031.46 79.23
  Q 1034.51 80.72 1036.89 82.83
  C 1040.05 85.62 1044.32 88.06 1046.54 91.68
  Q 1047.59 93.41 1049.15 94.70
  C 1051.83 96.92 1053.51 100.76 1055.59 103.56
  C 1057.26 105.79 1057.75 108.47 1059.31 110.73
  Q 1060.66 112.68 1061.21 115.08
  C 1061.77 117.46 1063.24 119.42 1063.61 121.78
  Q 1064.06 124.60 1065.16 127.20
  Q 1065.73 128.52 1065.63 129.94
  Q 1065.48 132.01 1066.32 134.01
  C 1067.48 136.79 1066.03 139.05 1066.50 141.78
  Q 1067.00 144.74 1066.49 147.63
  Q 1066.22 149.21 1066.58 150.83
  C 1067.05 152.95 1065.86 155.25 1065.52 157.32
  Q 1065.21 159.22 1064.80 161.15
  Q 1063.91 165.38 1062.58 169.41
  Q 1060.79 174.80 1056.47 183.03
  Q 1055.42 185.02 1054.24 186.44
  C 1053.13 187.77 1051.99 189.04 1051.33 190.66
  Q 1050.72 192.14 1049.39 193.16
  C 1046.54 195.37 1045.43 198.95 1042.29 201.08
  Q 1038.51 203.65 1034.94 206.73
  C 1033.09 208.32 1030.83 208.88 1028.81 210.15
  C 1024.72 212.70 1020.52 215.11 1015.72 216.34
  Q 1009.95 217.82 1004.62 219.22
  Q 1000.00 220.43 995.49 220.31
  Q 990.57 220.19 985.44 220.30
  Q 980.49 220.41 974.77 219.09
  Q 965.85 217.03 960.12 214.68
  Q 952.63 211.61 946.31 207.05
  Q 942.93 204.61 938.97 201.32
  Q 935.48 198.42 932.72 195.01
  Q 930.32 192.03 927.86 188.98
  Q 925.78 186.40 924.04 183.38
  Q 916.14 169.68 914.00 153.74
  Q 913.51 150.08 913.68 141.91
  Q 913.83 134.98 914.69 130.14
  Q 917.84 112.36 928.71 97.89
  Q 930.35 95.71 932.17 94.00
  C 934.05 92.23 934.75 89.87 936.86 88.37
  Q 940.50 85.79 944.12 82.00
  Z"
/>
<path fill="#262626" d="
  M 992.26 333.15
  Q 986.43 333.16 981.20 333.18
  A 2.90 2.83 56.6 0 1 980.01 332.92
  Q 978.53 332.26 976.91 331.95
  Q 967.09 330.08 958.27 323.67
  Q 950.84 318.27 946.01 311.77
  Q 938.68 301.89 936.41 289.48
  Q 935.64 285.28 935.81 280.94
  C 935.97 277.05 935.36 273.21 936.22 269.37
  Q 938.61 258.67 944.29 249.77
  C 946.08 246.97 948.66 245.22 950.31 242.35
  C 951.59 240.12 953.64 239.93 955.22 238.22
  Q 958.51 234.65 962.29 232.71
  Q 966.62 230.49 971.15 228.68
  C 978.58 225.73 985.80 225.54 993.79 225.70
  C 1001.88 225.86 1009.64 228.99 1016.67 232.73
  Q 1020.99 235.02 1024.68 239.12
  A 1.96 1.94 -11.7 0 0 1025.50 239.65
  Q 1027.63 240.33 1028.78 242.41
  C 1030.45 245.43 1033.24 247.02 1034.86 249.85
  Q 1042.06 262.43 1043.11 271.49
  Q 1043.55 275.34 1043.22 283.27
  Q 1042.96 289.45 1041.63 293.95
  Q 1035.17 315.70 1015.90 326.83
  Q 1007.66 331.59 997.99 332.81
  Q 995.30 333.14 992.26 333.15
  Z"
/>
<path fill="#777978" d="
  M 1050.34 430.89
  A 59.69 59.69 0.0 0 1 990.65 490.58
  A 59.69 59.69 0.0 0 1 930.96 430.89
  A 59.69 59.69 0.0 0 1 990.65 371.20
  A 59.69 59.69 0.0 0 1 1050.34 430.89
  Z
  M 1046.61 430.85
  A 55.99 55.99 0.0 0 0 990.62 374.86
  A 55.99 55.99 0.0 0 0 934.63 430.85
  A 55.99 55.99 0.0 0 0 990.62 486.84
  A 55.99 55.99 0.0 0 0 1046.61 430.85
  Z"
/>
<path fill="#505150" d="
  M 1046.61 430.85
  A 55.99 55.99 0.0 0 1 990.62 486.84
  A 55.99 55.99 0.0 0 1 934.63 430.85
  A 55.99 55.99 0.0 0 1 990.62 374.86
  A 55.99 55.99 0.0 0 1 1046.61 430.85
  Z
  M 992.2345 378.5586
  A 0.86 0.86 0.0 0 0 991.3686 377.7046
  L 989.7886 377.7156
  A 0.86 0.86 0.0 0 0 988.9346 378.5816
  L 988.9855 385.8614
  A 0.86 0.86 0.0 0 0 989.8514 386.7154
  L 991.4314 386.7044
  A 0.86 0.86 0.0 0 0 992.2854 385.8384
  L 992.2345 378.5586
  Z
  M 965.8801 384.8976
  A 0.93 0.93 0.0 0 0 964.6103 384.5549
  L 963.4833 385.2030
  A 0.93 0.93 0.0 0 0 963.1407 386.4728
  L 966.6999 392.6624
  A 0.93 0.93 0.0 0 0 967.9697 393.0051
  L 969.0967 392.3570
  A 0.93 0.93 0.0 0 0 969.4393 391.0872
  L 965.8801 384.8976
  Z
  M 1018.0110 385.8503
  A 1.58 0.87 14.3 0 0 1016.6949 384.6170
  A 1.58 0.87 14.3 0 0 1014.9490 385.0697
  A 1.58 0.87 14.3 0 0 1016.2651 386.3030
  A 1.58 0.87 14.3 0 0 1018.0110 385.8503
  Z
  M 976.45 467.92
  Q 992.15 473.28 1005.74 467.47
  C 1028.39 457.78 1037.10 431.25 1024.05 409.64
  Q 1024.06 408.71 1024.49 408.25
  Q 1026.97 405.59 1029.43 402.93
  Q 1031.14 401.10 1030.55 399.08
  Q 1029.48 395.44 1026.15 391.45
  Q 1025.73 390.94 1025.86 391.59
  Q 1026.44 394.39 1024.62 396.61
  Q 1021.68 400.19 1018.72 403.72
  Q 1011.64 412.17 1002.64 423.43
  C 995.53 432.32 986.88 442.13 979.46 451.72
  Q 975.09 457.37 970.24 462.70
  C 966.96 466.30 964.19 470.40 960.96 474.28
  Q 959.48 476.05 961.03 477.53
  Q 965.02 481.35 968.26 477.01
  Q 972.23 471.69 976.45 467.92
  Z
  M 962.94 445.53
  L 999.43 401.09
  L 1004.75 394.69
  A 0.58 0.58 0.0 0 0 1004.49 393.77
  C 988.57 388.25 971.47 392.31 960.55 405.15
  C 949.26 418.42 948.02 436.68 956.86 451.67
  A 0.60 0.59 49.6 0 0 957.83 451.75
  L 962.94 445.53
  Z
  M 952.6722 408.5353
  A 1.16 1.16 0.0 0 0 952.2532 406.9493
  L 946.3761 403.5287
  A 1.16 1.16 0.0 0 0 944.7901 403.9478
  L 944.4078 404.6047
  A 1.16 1.16 0.0 0 0 944.8268 406.1907
  L 950.7039 409.6113
  A 1.16 1.16 0.0 0 0 952.2899 409.1922
  L 952.6722 408.5353
  Z
  M 1036.4696 403.8250
  A 1.11 1.11 0.0 0 0 1034.9492 403.4346
  L 1028.9928 406.9571
  A 1.11 1.11 0.0 0 0 1028.6024 408.4776
  L 1029.0504 409.2350
  A 1.11 1.11 0.0 0 0 1030.5708 409.6254
  L 1036.5272 406.1029
  A 1.11 1.11 0.0 0 0 1036.9176 404.5824
  L 1036.4696 403.8250
  Z
  M 946.4949 430.2608
  A 1.04 1.04 0.0 0 0 945.4459 429.2299
  L 938.5262 429.2903
  A 1.04 1.04 0.0 0 0 937.4953 430.3393
  L 937.5051 431.4592
  A 1.04 1.04 0.0 0 0 938.5541 432.4901
  L 945.4738 432.4297
  A 1.04 1.04 0.0 0 0 946.5047 431.3807
  L 946.4949 430.2608
  Z
  M 1043.6714 430.0678
  A 0.72 0.72 0.0 0 0 1042.9527 429.3465
  L 1035.5127 429.3335
  A 0.72 0.72 0.0 0 0 1034.7914 430.0523
  L 1034.7886 431.6722
  A 0.72 0.72 0.0 0 0 1035.5073 432.3935
  L 1042.9473 432.4065
  A 0.72 0.72 0.0 0 0 1043.6686 431.6877
  L 1043.6714 430.0678
  Z
  M 952.3442 452.6852
  A 1.26 1.26 0.0 0 0 950.6279 452.2060
  L 944.8605 455.4558
  A 1.26 1.26 0.0 0 0 944.3813 457.1721
  L 944.6758 457.6948
  A 1.26 1.26 0.0 0 0 946.3921 458.1740
  L 952.1595 454.9242
  A 1.26 1.26 0.0 0 0 952.6387 453.2079
  L 952.3442 452.6852
  Z
  M 1036.9054 457.1088
  A 1.12 1.12 0.0 0 0 1036.5115 455.5746
  L 1030.6068 452.0826
  A 1.12 1.12 0.0 0 0 1029.0727 452.4765
  L 1028.6146 453.2512
  A 1.12 1.12 0.0 0 0 1029.0085 454.7854
  L 1034.9132 458.2774
  A 1.12 1.12 0.0 0 0 1036.4473 457.8835
  L 1036.9054 457.1088
  Z
  M 1014.4747 469.0538
  A 0.95 0.95 0.0 0 0 1013.1758 468.7106
  L 1012.0868 469.3445
  A 0.95 0.95 0.0 0 0 1011.7436 470.6434
  L 1015.3653 476.8662
  A 0.95 0.95 0.0 0 0 1016.6642 477.2094
  L 1017.7532 476.5755
  A 0.95 0.95 0.0 0 0 1018.0964 475.2766
  L 1014.4747 469.0538
  Z
  M 992.2259 476.0487
  A 1.09 1.09 0.0 0 0 991.1284 474.9663
  L 990.0484 474.9739
  A 1.09 1.09 0.0 0 0 988.9660 476.0715
  L 989.0141 482.9513
  A 1.09 1.09 0.0 0 0 990.1116 484.0337
  L 991.1916 484.0261
  A 1.09 1.09 0.0 0 0 992.2740 482.9285
  L 992.2259 476.0487
  Z"
/>
<rect fill="#bababa" x="-1.65" y="-4.50" transform="translate(990.61,382.21) rotate(-0.4)" width="3.30" height="9.00" rx="0.86"/>
<rect fill="#bababa" x="-1.58" y="-4.50" transform="translate(966.29,388.78) rotate(-29.9)" width="3.16" height="9.00" rx="0.93"/>
<ellipse fill="#bababa" cx="0.00" cy="0.00" transform="translate(1016.48,385.46) rotate(14.3)" rx="1.58" ry="0.87"/>
<path fill="#777978" d="
  M 1024.05 409.64
  L 1018.34 416.21
  L 982.04 460.43
  L 976.45 467.92
  Q 972.23 471.69 968.26 477.01
  Q 965.02 481.35 961.03 477.53
  Q 959.48 476.05 960.96 474.28
  C 964.19 470.40 966.96 466.30 970.24 462.70
  Q 975.09 457.37 979.46 451.72
  C 986.88 442.13 995.53 432.32 1002.64 423.43
  Q 1011.64 412.17 1018.72 403.72
  Q 1021.68 400.19 1024.62 396.61
  Q 1026.44 394.39 1025.86 391.59
  Q 1025.73 390.94 1026.15 391.45
  Q 1029.48 395.44 1030.55 399.08
  Q 1031.14 401.10 1029.43 402.93
  Q 1026.97 405.59 1024.49 408.25
  Q 1024.06 408.71 1024.05 409.64
  Z"
/>
<path fill="#bababa" d="
  M 999.43 401.09
  Q 987.14 397.22 975.72 403.52
  Q 966.29 408.73 962.27 417.26
  Q 955.86 430.89 962.94 445.53
  L 957.83 451.75
  A 0.60 0.59 49.6 0 1 956.86 451.67
  C 948.02 436.68 949.26 418.42 960.55 405.15
  C 971.47 392.31 988.57 388.25 1004.49 393.77
  A 0.58 0.58 0.0 0 1 1004.75 394.69
  L 999.43 401.09
  Z"
/>
<path fill="#a0a0a0" d="
  M 999.43 401.09
  L 962.94 445.53
  Q 955.86 430.89 962.27 417.26
  Q 966.29 408.73 975.72 403.52
  Q 987.14 397.22 999.43 401.09
  Z"
/>
<rect fill="#bababa" x="-4.56" y="-1.54" transform="translate(948.54,406.57) rotate(30.2)" width="9.12" height="3.08" rx="1.16"/>
<rect fill="#bababa" x="-4.57" y="-1.55" transform="translate(1032.76,406.53) rotate(-30.6)" width="9.14" height="3.10" rx="1.11"/>
<path fill="#bababa" d="
  M 1024.05 409.64
  C 1037.10 431.25 1028.39 457.78 1005.74 467.47
  Q 992.15 473.28 976.45 467.92
  L 982.04 460.43
  Q 984.27 461.80 986.00 461.98
  Q 988.44 462.24 991.80 462.14
  C 1003.67 461.81 1014.57 453.78 1019.18 443.95
  Q 1025.48 430.49 1018.34 416.21
  L 1024.05 409.64
  Z"
/>
<path fill="#a0a0a0" d="
  M 1018.34 416.21
  Q 1025.48 430.49 1019.18 443.95
  C 1014.57 453.78 1003.67 461.81 991.80 462.14
  Q 988.44 462.24 986.00 461.98
  Q 984.27 461.80 982.04 460.43
  L 1018.34 416.21
  Z"
/>
<rect fill="#bababa" x="-4.50" y="-1.60" transform="translate(942.00,430.86) rotate(-0.5)" width="9.00" height="3.20" rx="1.04"/>
<rect fill="#bababa" x="-4.44" y="-1.53" transform="translate(1039.23,430.87) rotate(0.1)" width="8.88" height="3.06" rx="0.72"/>
<rect fill="#bababa" x="-4.57" y="-1.56" transform="translate(948.51,455.19) rotate(-29.4)" width="9.14" height="3.12" rx="1.26"/>
<rect fill="#bababa" x="-4.55" y="-1.57" transform="translate(1032.76,455.18) rotate(30.6)" width="9.10" height="3.14" rx="1.12"/>
<rect fill="#bababa" x="-1.58" y="-4.55" transform="translate(1014.92,472.96) rotate(-30.2)" width="3.16" height="9.10" rx="0.95"/>
<rect fill="#bababa" x="-1.63" y="-4.53" transform="translate(990.62,479.50) rotate(-0.4)" width="3.26" height="9.06" rx="1.09"/>
<path fill="#777978" d="
  M 1050.30 571.03
  A 59.69 59.69 0.0 0 1 990.61 630.72
  A 59.69 59.69 0.0 0 1 930.92 571.03
  A 59.69 59.69 0.0 0 1 990.61 511.34
  A 59.69 59.69 0.0 0 1 1050.30 571.03
  Z
  M 1046.14 577.80
  Q 1047.34 567.17 1045.38 557.33
  C 1044.95 555.14 1043.77 553.54 1043.19 551.47
  Q 1042.56 549.22 1041.43 547.18
  Q 1040.14 544.83 1038.80 542.48
  Q 1032.30 531.11 1021.29 524.22
  Q 995.98 508.37 967.78 519.77
  C 965.61 520.64 963.60 522.17 961.46 523.27
  Q 959.02 524.53 956.72 526.37
  C 946.38 534.67 938.72 545.80 935.96 558.77
  Q 932.18 576.55 938.95 592.57
  Q 942.87 601.86 949.45 608.82
  Q 958.49 618.38 969.47 622.83
  C 987.57 630.16 1008.38 627.59 1024.11 615.70
  C 1036.12 606.61 1044.44 592.95 1046.14 577.80
  Z"
/>
<path fill="#505150" d="
  M 1046.14 577.80
  C 1044.44 592.95 1036.12 606.61 1024.11 615.70
  C 1008.38 627.59 987.57 630.16 969.47 622.83
  Q 958.49 618.38 949.45 608.82
  Q 942.87 601.86 938.95 592.57
  Q 932.18 576.55 935.96 558.77
  C 938.72 545.80 946.38 534.67 956.72 526.37
  Q 959.02 524.53 961.46 523.27
  C 963.60 522.17 965.61 520.64 967.78 519.77
  Q 995.98 508.37 1021.29 524.22
  Q 1032.30 531.11 1038.80 542.48
  Q 1040.14 544.83 1041.43 547.18
  Q 1042.56 549.22 1043.19 551.47
  C 1043.77 553.54 1044.95 555.14 1045.38 557.33
  Q 1047.34 567.17 1046.14 577.80
  Z
  M 992.3126 518.7259
  A 0.84 0.84 0.0 0 0 991.4756 517.8829
  L 989.8156 517.8771
  A 0.84 0.84 0.0 0 0 988.9726 518.7142
  L 988.9474 525.9541
  A 0.84 0.84 0.0 0 0 989.7844 526.7971
  L 991.4444 526.8029
  A 0.84 0.84 0.0 0 0 992.2874 525.9658
  L 992.3126 518.7259
  Z
  M 965.7805 524.8295
  A 0.67 0.67 0.0 0 0 964.8657 524.5827
  L 963.2879 525.4899
  A 0.67 0.67 0.0 0 0 963.0411 526.4047
  L 966.8395 533.0105
  A 0.67 0.67 0.0 0 0 967.7543 533.2573
  L 969.3321 532.3501
  A 0.67 0.67 0.0 0 0 969.5789 531.4353
  L 965.7805 524.8295
  Z
  M 1018.1215 526.5582
  A 0.88 0.88 0.0 0 0 1017.8057 525.3544
  L 1016.5451 524.6178
  A 0.88 0.88 0.0 0 0 1015.3414 524.9336
  L 1011.6785 531.2018
  A 0.88 0.88 0.0 0 0 1011.9943 532.4056
  L 1013.2549 533.1422
  A 0.88 0.88 0.0 0 0 1014.4586 532.8264
  L 1018.1215 526.5582
  Z
  M 951.19 567.71
  L 942.83 569.52
  L 939.07 569.49
  Q 937.72 569.48 937.58 570.82
  Q 937.42 572.40 938.73 572.44
  Q 937.90 571.92 938.81 573.48
  Q 939.05 573.89 938.99 574.36
  L 938.50 577.96
  A 0.67 0.67 0.0 0 0 939.44 578.66
  Q 941.56 577.69 943.81 577.25
  Q 949.89 576.06 955.19 574.75
  Q 972.94 570.37 991.75 566.18
  Q 1000.98 564.12 1025.90 557.92
  C 1030.89 556.68 1036.24 555.89 1041.30 554.24
  Q 1041.92 554.04 1041.94 553.39
  Q 1042.10 548.14 1038.09 547.24
  Q 1037.51 547.11 1037.39 546.53
  L 1037.17 545.45
  Q 1036.78 544.23 1036.12 543.74
  Q 1035.50 543.29 1034.41 543.83
  Q 1030.48 545.78 1028.19 548.22
  Q 1029.36 550.88 1024.47 550.33
  Q 1013.86 534.65 996.98 531.98
  C 974.35 528.39 953.04 544.45 951.19 567.71
  Z
  M 952.6823 548.5807
  A 1.10 1.10 0.0 0 0 952.2954 547.0739
  L 946.3735 543.5717
  A 1.10 1.10 0.0 0 0 944.8668 543.9586
  L 944.3577 544.8193
  A 1.10 1.10 0.0 0 0 944.7446 546.3261
  L 950.6665 549.8283
  A 1.10 1.10 0.0 0 0 952.1732 549.4414
  L 952.6823 548.5807
  Z
  M 1042.99 570.96
  Q 1040.52 571.23 1038.43 571.93
  Q 1037.58 572.22 1038.43 572.50
  Q 1040.73 573.24 1043.09 572.73
  Q 1043.60 572.62 1043.81 572.14
  Q 1043.97 571.78 1043.81 571.43
  A 0.79 0.78 -14.8 0 0 1042.99 570.96
  Z
  M 1021.91 576.01
  L 965.24 589.30
  L 957.26 591.06
  A 0.53 0.53 0.0 0 0 956.93 591.87
  Q 965.50 604.93 979.68 609.03
  C 990.69 612.21 1002.87 610.42 1012.45 603.97
  Q 1027.30 593.96 1030.00 575.49
  Q 1030.21 574.00 1028.75 574.35
  L 1021.91 576.01
  Z
  M 1036.9631 597.0084
  A 0.95 0.95 0.0 0 0 1036.6108 595.7119
  L 1030.4497 592.1834
  A 0.95 0.95 0.0 0 0 1029.1532 592.5356
  L 1028.5369 593.6116
  A 0.95 0.95 0.0 0 0 1028.8892 594.9081
  L 1035.0503 598.4366
  A 0.95 0.95 0.0 0 0 1036.3468 598.0844
  L 1036.9631 597.0084
  Z
  M 952.4527 593.0356
  A 1.53 1.53 0.0 0 0 950.3666 592.4610
  L 945.0627 595.4740
  A 1.53 1.53 0.0 0 0 944.4881 597.5601
  L 944.5473 597.6644
  A 1.53 1.53 0.0 0 0 946.6334 598.2390
  L 951.9373 595.2260
  A 1.53 1.53 0.0 0 0 952.5119 593.1399
  L 952.4527 593.0356
  Z
  M 969.3544 611.0181
  A 1.31 1.31 0.0 0 0 968.8718 609.2295
  L 968.3343 608.9204
  A 1.31 1.31 0.0 0 0 966.5456 609.4030
  L 963.2456 615.1419
  A 1.31 1.31 0.0 0 0 963.7282 616.9305
  L 964.2657 617.2396
  A 1.31 1.31 0.0 0 0 966.0544 616.7570
  L 969.3544 611.0181
  Z
  M 1014.6100 609.3424
  A 1.18 1.18 0.0 0 0 1012.9974 608.9133
  L 1012.2187 609.3646
  A 1.18 1.18 0.0 0 0 1011.7897 610.9773
  L 1015.2100 616.8776
  A 1.18 1.18 0.0 0 0 1016.8226 617.3067
  L 1017.6013 616.8554
  A 1.18 1.18 0.0 0 0 1018.0303 615.2427
  L 1014.6100 609.3424
  Z
  M 992.2538 616.0971
  A 0.86 0.86 0.0 0 0 991.3923 615.2386
  L 989.8323 615.2414
  A 0.86 0.86 0.0 0 0 988.9738 616.1029
  L 988.9862 623.2429
  A 0.86 0.86 0.0 0 0 989.8477 624.1014
  L 991.4077 624.0986
  A 0.86 0.86 0.0 0 0 992.2662 623.2371
  L 992.2538 616.0971
  Z"
/>
<rect fill="#bababa" x="-1.67" y="-4.46" transform="translate(990.63,522.34) rotate(0.2)" width="3.34" height="8.92" rx="0.84"/>
<rect fill="#bababa" x="-1.58" y="-4.48" transform="translate(966.31,528.92) rotate(-29.9)" width="3.16" height="8.96" rx="0.67"/>
<rect fill="#bababa" x="-1.61" y="-4.51" transform="translate(1014.90,528.88) rotate(30.3)" width="3.22" height="9.02" rx="0.88"/>
<path fill="#bababa" d="
  M 1024.47 550.33
  L 1016.14 552.55
  Q 1011.18 546.86 1005.58 543.68
  Q 993.94 537.05 980.88 541.36
  Q 969.85 545.00 963.87 554.88
  Q 960.80 559.96 959.76 565.79
  L 951.19 567.71
  C 953.04 544.45 974.35 528.39 996.98 531.98
  Q 1013.86 534.65 1024.47 550.33
  Z"
/>
<path fill="#a0a0a0" d="
  M 1016.14 552.55
  L 959.76 565.79
  Q 960.80 559.96 963.87 554.88
  Q 969.85 545.00 980.88 541.36
  Q 993.94 537.05 1005.58 543.68
  Q 1011.18 546.86 1016.14 552.55
  Z"
/>
<rect fill="#bababa" x="-4.54" y="-1.60" transform="translate(948.52,546.70) rotate(30.6)" width="9.08" height="3.20" rx="1.10"/>
<path fill="#bababa" d="
  M 1037.17 545.45
  Q 1035.25 547.00 1031.71 548.94
  Q 1029.68 550.04 1028.19 548.22
  Q 1030.48 545.78 1034.41 543.83
  Q 1035.50 543.29 1036.12 543.74
  Q 1036.78 544.23 1037.17 545.45
  Z"
/>
<path fill="#777978" d="
  M 1037.17 545.45
  L 1037.39 546.53
  Q 1037.51 547.11 1038.09 547.24
  Q 1042.10 548.14 1041.94 553.39
  Q 1041.92 554.04 1041.30 554.24
  C 1036.24 555.89 1030.89 556.68 1025.90 557.92
  Q 1000.98 564.12 991.75 566.18
  Q 972.94 570.37 955.19 574.75
  Q 949.89 576.06 943.81 577.25
  Q 941.56 577.69 939.44 578.66
  A 0.67 0.67 0.0 0 1 938.50 577.96
  L 938.99 574.36
  Q 939.05 573.89 938.81 573.48
  Q 937.90 571.92 938.73 572.44
  L 940.58 570.56
  Q 940.93 570.20 941.43 570.21
  Q 942.59 570.23 942.83 569.52
  L 951.19 567.71
  L 959.76 565.79
  L 1016.14 552.55
  L 1024.47 550.33
  Q 1029.36 550.88 1028.19 548.22
  Q 1029.68 550.04 1031.71 548.94
  Q 1035.25 547.00 1037.17 545.45
  Z"
/>
<path fill="#bababa" d="
  M 942.83 569.52
  Q 942.59 570.23 941.43 570.21
  Q 940.93 570.20 940.58 570.56
  L 938.73 572.44
  Q 937.42 572.40 937.58 570.82
  Q 937.72 569.48 939.07 569.49
  L 942.83 569.52
  Z"
/>
<path fill="#a0a0a0" d="
  M 1042.99 570.96
  A 0.79 0.78 -14.8 0 1 1043.81 571.43
  Q 1043.97 571.78 1043.81 572.14
  Q 1043.60 572.62 1043.09 572.73
  Q 1040.73 573.24 1038.43 572.50
  Q 1037.58 572.22 1038.43 571.93
  Q 1040.52 571.23 1042.99 570.96
  Z"
/>
<path fill="#bababa" d="
  M 965.24 589.30
  Q 972.60 599.17 984.89 601.85
  Q 989.18 602.78 992.28 602.38
  Q 1015.88 599.31 1021.91 576.01
  L 1028.75 574.35
  Q 1030.21 574.00 1030.00 575.49
  Q 1027.30 593.96 1012.45 603.97
  C 1002.87 610.42 990.69 612.21 979.68 609.03
  Q 965.50 604.93 956.93 591.87
  A 0.53 0.53 0.0 0 1 957.26 591.06
  L 965.24 589.30
  Z"
/>
<path fill="#a0a0a0" d="
  M 1021.91 576.01
  Q 1015.88 599.31 992.28 602.38
  Q 989.18 602.78 984.89 601.85
  Q 972.60 599.17 965.24 589.30
  L 1021.91 576.01
  Z"
/>
<rect fill="#bababa" x="-4.50" y="-1.57" transform="translate(1032.75,595.31) rotate(29.8)" width="9.00" height="3.14" rx="0.95"/>
<rect fill="#bababa" x="-4.58" y="-1.59" transform="translate(948.50,595.35) rotate(-29.6)" width="9.16" height="3.18" rx="1.53"/>
<rect fill="#bababa" x="-1.62" y="-4.62" transform="translate(966.30,613.08) rotate(29.9)" width="3.24" height="9.24" rx="1.31"/>
<rect fill="#bababa" x="-1.63" y="-4.59" transform="translate(1014.91,613.11) rotate(-30.1)" width="3.26" height="9.18" rx="1.18"/>
<path fill="#777978" d="
  M 112.05 610.32
  Q 116.61 615.31 123.26 617.42
  Q 135.93 621.46 148.68 622.05
  Q 157.71 622.47 160.79 622.82
  C 167.60 623.60 174.05 624.39 180.65 624.76
  C 185.32 625.03 189.97 626.15 194.58 626.16
  Q 197.82 626.16 200.88 626.45
  Q 219.36 628.17 237.23 629.78
  Q 244.36 630.42 250.72 630.53
  C 256.78 630.63 262.51 631.82 268.64 631.73
  Q 275.61 631.63 282.57 632.59
  C 289.58 633.57 297.00 633.18 304.10 633.76
  Q 311.71 634.39 319.12 634.70
  C 325.75 634.97 332.45 635.96 339.25 635.99
  Q 353.85 636.05 368.94 636.87
  Q 379.55 637.44 388.86 637.45
  Q 418.64 637.46 451.97 638.12
  C 467.46 638.42 483.44 638.16 499.24 637.84
  Q 524.00 637.34 547.82 637.46
  Q 556.93 637.50 564.69 636.93
  Q 577.27 635.99 581.57 636.05
  Q 595.07 636.23 607.76 635.16
  Q 613.61 634.66 616.25 634.61
  C 620.12 634.54 623.82 634.65 627.57 634.12
  Q 632.81 633.37 637.93 633.29
  C 645.42 633.16 652.92 631.64 660.38 631.75
  Q 669.17 631.88 678.33 630.92
  C 686.34 630.08 694.30 630.82 702.29 629.59
  C 706.64 628.93 710.96 629.00 715.25 628.23
  Q 719.26 627.51 723.22 627.53
  C 728.41 627.57 733.45 626.37 738.71 626.24
  Q 743.54 626.13 747.97 625.50
  Q 752.35 624.88 757.38 624.59
  Q 770.16 623.85 790.34 621.10
  Q 792.72 620.78 795.19 620.51
  Q 799.40 620.04 804.27 618.53
  Q 813.21 615.75 818.67 610.53
  L 867.47 659.17
  Q 858.31 672.61 842.75 672.58
  Q 827.12 672.54 809.25 672.56
  Q 437.55 672.84 116.50 672.59
  Q 105.21 672.58 93.79 672.55
  Q 82.05 672.53 77.34 671.02
  Q 69.17 668.41 63.17 661.51
  Q 62.72 660.99 62.91 660.00
  L 112.05 610.32
  Z"
/>
<rect fill="#bababa" x="-1.64" y="-4.43" transform="translate(990.62,619.67) rotate(-0.1)" width="3.28" height="8.86" rx="0.86"/>
<path fill="#777978" d="
  M 1064.59 664.50
  A 9.19 9.19 0.0 0 1 1055.40 673.69
  L 927.72 673.69
  A 11.05 9.12 0.0 0 1 916.67 664.57
  L 916.67 645.63
  A 11.05 9.12 -0.0 0 1 927.72 636.51
  L 1055.40 636.51
  A 9.19 9.19 0.0 0 1 1064.59 645.70
  L 1064.59 664.50
  Z
  M 1000.03 665.52
  Q 1002.45 662.97 1003.73 659.81
  L 1018.32 639.54
  A 0.90 0.90 0.0 0 0 1017.66 638.12
  Q 1015.64 637.97 1013.73 637.96
  Q 973.39 637.61 929.48 637.87
  C 925.57 637.90 921.69 638.12 919.46 641.77
  Q 918.20 643.83 918.23 646.56
  Q 918.30 655.12 918.26 663.18
  C 918.20 674.46 930.44 672.06 937.61 672.26
  Q 941.08 672.36 944.37 672.15
  C 949.55 671.83 954.68 672.23 959.85 672.23
  Q 974.72 672.23 990.75 672.04
  Q 993.05 672.02 995.26 671.55
  Q 996.27 671.33 996.31 670.29
  Q 996.33 669.73 996.70 669.31
  L 1000.03 665.52
  Z
  M 1047.74 655.06
  A 13.75 13.75 0.0 0 0 1033.99 641.31
  A 13.75 13.75 0.0 0 0 1020.24 655.06
  A 13.75 13.75 0.0 0 0 1033.99 668.81
  A 13.75 13.75 0.0 0 0 1047.74 655.06
  Z"
/>
<path fill="#908d8c" d="
  M 1003.73 659.81
  Q 1006.20 649.68 999.13 644.27
  Q 995.74 641.68 991.97 641.36
  C 978.16 640.18 971.60 656.59 981.77 665.54
  Q 986.77 669.94 994.50 668.36
  Q 995.72 668.11 997.25 667.02
  Q 998.58 666.08 1000.03 665.52
  L 996.70 669.31
  Q 996.33 669.73 996.31 670.29
  Q 996.27 671.33 995.26 671.55
  Q 993.05 672.02 990.75 672.04
  Q 974.72 672.23 959.85 672.23
  C 954.68 672.23 949.55 671.83 944.37 672.15
  Q 941.08 672.36 937.61 672.26
  C 930.44 672.06 918.20 674.46 918.26 663.18
  Q 918.30 655.12 918.23 646.56
  Q 918.20 643.83 919.46 641.77
  C 921.69 638.12 925.57 637.90 929.48 637.87
  Q 973.39 637.61 1013.73 637.96
  Q 1015.64 637.97 1017.66 638.12
  A 0.90 0.90 0.0 0 1 1018.32 639.54
  L 1003.73 659.81
  Z
  M 961.02 655.02
  A 13.80 13.80 0.0 0 0 947.22 641.22
  A 13.80 13.80 0.0 0 0 933.42 655.02
  A 13.80 13.80 0.0 0 0 947.22 668.82
  A 13.80 13.80 0.0 0 0 961.02 655.02
  Z"
/>
<path fill="#bababa" d="
  M 961.02 655.02
  A 13.80 13.80 0.0 0 1 947.22 668.82
  A 13.80 13.80 0.0 0 1 933.42 655.02
  A 13.80 13.80 0.0 0 1 947.22 641.22
  A 13.80 13.80 0.0 0 1 961.02 655.02
  Z
  M 958.25 655.07
  A 10.99 10.99 0.0 0 0 947.26 644.08
  A 10.99 10.99 0.0 0 0 936.27 655.07
  A 10.99 10.99 0.0 0 0 947.26 666.06
  A 10.99 10.99 0.0 0 0 958.25 655.07
  Z"
/>
<path fill="#bababa" d="
  M 1003.73 659.81
  Q 1002.45 662.97 1000.03 665.52
  Q 998.58 666.08 997.25 667.02
  Q 995.72 668.11 994.50 668.36
  Q 986.77 669.94 981.77 665.54
  C 971.60 656.59 978.16 640.18 991.97 641.36
  Q 995.74 641.68 999.13 644.27
  Q 1006.20 649.68 1003.73 659.81
  Z
  M 1001.58 655.04
  A 10.99 10.99 0.0 0 0 990.59 644.05
  A 10.99 10.99 0.0 0 0 979.60 655.04
  A 10.99 10.99 0.0 0 0 990.59 666.03
  A 10.99 10.99 0.0 0 0 1001.58 655.04
  Z"
/>
<path fill="#bababa" d="
  M 1047.74 655.06
  A 13.75 13.75 0.0 0 1 1033.99 668.81
  A 13.75 13.75 0.0 0 1 1020.24 655.06
  A 13.75 13.75 0.0 0 1 1033.99 641.31
  A 13.75 13.75 0.0 0 1 1047.74 655.06
  Z
  M 1045.02 655.05
  A 11.02 11.02 0.0 0 0 1034.00 644.03
  A 11.02 11.02 0.0 0 0 1022.98 655.05
  A 11.02 11.02 0.0 0 0 1034.00 666.07
  A 11.02 11.02 0.0 0 0 1045.02 655.05
  Z"
/>
<path fill="#777978" d="
  M 1001.58 655.04
  A 10.99 10.99 0.0 0 1 990.59 666.03
  A 10.99 10.99 0.0 0 1 979.60 655.04
  A 10.99 10.99 0.0 0 1 990.59 644.05
  A 10.99 10.99 0.0 0 1 1001.58 655.04
  Z
  M 997.51 655.03
  A 7.01 7.01 0.0 0 0 990.50 648.02
  A 7.01 7.01 0.0 0 0 983.49 655.03
  A 7.01 7.01 0.0 0 0 990.50 662.04
  A 7.01 7.01 0.0 0 0 997.51 655.03
  Z"
/>
<path fill="#777978" d="
  M 1045.02 655.05
  A 11.02 11.02 0.0 0 1 1034.00 666.07
  A 11.02 11.02 0.0 0 1 1022.98 655.05
  A 11.02 11.02 0.0 0 1 1034.00 644.03
  A 11.02 11.02 0.0 0 1 1045.02 655.05
  Z
  M 1040.89 655.02
  A 7.03 7.03 0.0 0 0 1033.86 647.99
  A 7.03 7.03 0.0 0 0 1026.83 655.02
  A 7.03 7.03 0.0 0 0 1033.86 662.05
  A 7.03 7.03 0.0 0 0 1040.89 655.02
  Z"
/>
<path fill="#777978" d="
  M 958.25 655.07
  A 10.99 10.99 0.0 0 1 947.26 666.06
  A 10.99 10.99 0.0 0 1 936.27 655.07
  A 10.99 10.99 0.0 0 1 947.26 644.08
  A 10.99 10.99 0.0 0 1 958.25 655.07
  Z
  M 954.18 655.03
  A 7.01 7.01 0.0 0 0 947.17 648.02
  A 7.01 7.01 0.0 0 0 940.16 655.03
  A 7.01 7.01 0.0 0 0 947.17 662.04
  A 7.01 7.01 0.0 0 0 954.18 655.03
  Z"
/>
<path fill="#bababa" d="
  M 954.18 655.03
  A 7.01 7.01 0.0 0 1 947.17 662.04
  A 7.01 7.01 0.0 0 1 940.16 655.03
  A 7.01 7.01 0.0 0 1 947.17 648.02
  A 7.01 7.01 0.0 0 1 954.18 655.03
  Z
  M 952.95 655.03
  A 5.63 5.63 0.0 0 0 947.32 649.40
  A 5.63 5.63 0.0 0 0 941.69 655.03
  A 5.63 5.63 0.0 0 0 947.32 660.66
  A 5.63 5.63 0.0 0 0 952.95 655.03
  Z"
/>
<path fill="#bababa" d="
  M 997.51 655.03
  A 7.01 7.01 0.0 0 1 990.50 662.04
  A 7.01 7.01 0.0 0 1 983.49 655.03
  A 7.01 7.01 0.0 0 1 990.50 648.02
  A 7.01 7.01 0.0 0 1 997.51 655.03
  Z
  M 996.28 655.08
  A 5.61 5.61 0.0 0 0 990.67 649.47
  A 5.61 5.61 0.0 0 0 985.06 655.08
  A 5.61 5.61 0.0 0 0 990.67 660.69
  A 5.61 5.61 0.0 0 0 996.28 655.08
  Z"
/>
<path fill="#bababa" d="
  M 1040.89 655.02
  A 7.03 7.03 0.0 0 1 1033.86 662.05
  A 7.03 7.03 0.0 0 1 1026.83 655.02
  A 7.03 7.03 0.0 0 1 1033.86 647.99
  A 7.03 7.03 0.0 0 1 1040.89 655.02
  Z
  M 1039.47 655.00
  A 5.49 5.49 0.0 0 0 1033.98 649.51
  A 5.49 5.49 0.0 0 0 1028.49 655.00
  A 5.49 5.49 0.0 0 0 1033.98 660.49
  A 5.49 5.49 0.0 0 0 1039.47 655.00
  Z"
/>
<circle fill="#a0a0a0" cx="947.32" cy="655.03" r="5.63"/>
<circle fill="#a0a0a0" cx="990.67" cy="655.08" r="5.61"/>
<circle fill="#a0a0a0" cx="1033.98" cy="655.00" r="5.49"/>
<path fill="#908d8c" d="
  M 1093.76 709.39
  Q 1093.20 711.23 1088.93 710.94
  L 1093.76 709.39
  Z"
/>
<path fill="#908d8c" d="
  M 29.06 713.63
  L 27.66 712.54
  A 1.36 1.32 66.1 0 0 26.99 712.27
  L 16.30 710.99
  Q 22.03 711.39 27.12 711.36
  Q 29.06 711.35 29.06 713.63
  Z"
/>
<path fill="#563c31" d="
  M 498.21 711.49
  Q 522.83 711.19 547.11 711.24
  Q 693.22 711.56 850.75 711.42
  Q 942.12 711.34 1033.50 711.46
  Q 1053.64 711.49 1073.99 711.55
  Q 1076.66 711.56 1075.94 713.47
  Q 1074.28 714.48 1073.65 716.04
  Q 1072.17 716.04 1072.15 717.29
  Q 1069.53 718.88 1068.37 721.25
  L 1066.68 722.00
  L 39.94 722.00
  Q 37.63 721.41 36.74 720.29
  Q 33.59 716.38 29.48 713.77
  Q 29.76 713.75 29.86 713.59
  Q 29.99 713.38 29.75 713.37
  Q 29.37 713.34 29.71 712.76
  A 0.86 0.84 -82.4 0 1 30.25 712.34
  C 32.18 711.82 33.96 711.41 35.98 711.46
  Q 47.84 711.76 59.02 711.57
  C 79.09 711.21 99.44 711.53 119.25 711.54
  Q 292.24 711.63 465.75 711.51
  Q 476.89 711.51 488.25 711.55
  Q 493.62 711.57 498.21 711.49
  Z"
/>
<path fill="#908d8c" d="
  M 1075.94 713.47
  Q 1075.90 716.30 1073.65 716.04
  Q 1074.28 714.48 1075.94 713.47
  Z"
/>
<path fill="#908d8c" d="
  M 1072.15 717.29
  Q 1070.91 719.82 1068.37 721.25
  Q 1069.53 718.88 1072.15 717.29
  Z"
/>
</svg>
