<?xml version="1.0" encoding="UTF-8" standalone="no"?>
<!DOCTYPE svg PUBLIC "-//W3C//DTD SVG 1.1//EN" "http://www.w3.org/Graphics/SVG/1.1/DTD/svg11.dtd">
<svg xmlns="http://www.w3.org/2000/svg" version="1.1" viewBox="0.00 0.00 1105.00 726.00">
<g stroke-width="2.00" fill="none" stroke-linecap="butt">
<path stroke="#66493a" vector-effect="non-scaling-stroke" d="
  M 1099.97 13.96
  L 713.01 14.01"
/>
<path stroke="#64402f" vector-effect="non-scaling-stroke" d="
  M 713.01 14.01
  Q 712.06 14.06 711.06 13.82
  Q 710.01 13.57 709.04 13.57
  Q 392.70 13.48 76.26 13.55
  Q 66.29 13.55 56.24 13.66
  Q 32.20 13.94 7.93 14.12"
/>
<path stroke="#754a36" vector-effect="non-scaling-stroke" d="
  M 713.01 14.01
  Q 709.96 22.52 708.83 31.49"
/>
<path stroke="#81665b" vector-effect="non-scaling-stroke" d="
  M 708.83 31.49
  Q 707.32 31.31 705.25 31.31
  Q 383.74 31.49 86.33 31.50
  Q 74.60 31.50 70.15 32.87
  C 56.42 37.09 47.02 49.36 47.02 63.90
  Q 47.00 360.64 47.01 647.92
  C 47.02 662.41 56.90 674.77 70.51 678.86
  Q 74.56 680.07 88.23 680.07
  Q 297.60 680.01 506.97 680.10"
/>
<path stroke="#754a36" vector-effect="non-scaling-stroke" d="
  M 506.97 680.10
  Q 508.13 680.26 507.84 680.98
  C 506.99 683.06 506.87 685.41 506.25 687.31
  Q 503.57 695.52 501.32 703.86
  Q 501.08 704.76 500.15 707.58
  Q 499.51 709.50 499.20 711.35"
/>
<path stroke="#64402f" vector-effect="non-scaling-stroke" d="
  M 499.20 711.35
  Q 473.93 711.23 448.00 711.22
  Q 298.61 711.15 149.22 711.13
  Q 92.73 711.12 36.25 711.49
  Q 34.81 711.50 32.26 712.39
  Q 30.11 713.15 29.50 713.74"
/>
<path stroke="#967d72" vector-effect="non-scaling-stroke" d="
  M 29.57 713.76
  Q 28.24 711.49 24.74 712.04"
/>
<path stroke="#81665b" vector-effect="non-scaling-stroke" d="
  M 24.74 712.04
  L 17.34 711.50"
/>
<path stroke="#967d72" vector-effect="non-scaling-stroke" d="
  M 17.34 711.50
  L 8.87 707.90"
/>
<path stroke="#98867d" vector-effect="non-scaling-stroke" d="
  M 1105.00 697.78
  Q 1098.69 710.53 1084.97 711.37
  C 1081.64 711.57 1079.10 710.94 1076.02 713.30"
/>
<path stroke="#66493a" vector-effect="non-scaling-stroke" d="
  M 1076.02 713.30
  Q 1075.75 711.30 1071.50 711.44
  C 1064.10 711.69 1054.34 711.28 1045.83 711.28
  Q 781.39 711.29 516.96 711.30
  Q 512.65 711.30 508.07 711.40
  Q 503.76 711.48 499.20 711.35"
/>
<path stroke="#836f66" vector-effect="non-scaling-stroke" d="
  M 506.97 680.10
  Q 674.86 680.18 842.75 680.18
  Q 850.96 680.18 856.11 679.33
  C 867.65 677.43 877.91 668.09 881.05 656.60
  Q 882.35 651.86 882.35 640.30
  Q 882.19 352.36 882.35 68.98
  C 882.36 59.49 881.56 51.95 875.79 44.45
  Q 865.98 31.69 849.25 31.60
  Q 779.06 31.24 708.83 31.49"
/>
<path stroke="#8b7970" vector-effect="non-scaling-stroke" d="
  M 1086.76 31.77
  A 0.27 0.27 0.0 0 0 1086.49 31.50
  L 894.73 31.50
  A 0.27 0.27 0.0 0 0 894.46 31.77
  L 894.46 679.77
  A 0.27 0.27 0.0 0 0 894.73 680.04
  L 1086.49 680.04
  A 0.27 0.27 0.0 0 0 1086.76 679.77
  L 1086.76 31.77"
/>
<path stroke="#969594" vector-effect="non-scaling-stroke" d="
  M 62.61 51.59
  Q 61.17 52.12 60.25 54.02
  Q 57.02 60.70 56.96 66.75
  Q 56.44 119.62 56.48 172.50
  Q 56.63 400.12 56.72 627.74
  C 56.72 639.14 55.01 649.50 61.96 659.53
  Q 62.34 660.09 62.89 659.99"
/>
<path stroke="#838281" vector-effect="non-scaling-stroke" d="
  M 62.89 659.99
  Q 62.72 661.14 63.64 662.11
  C 69.14 667.97 75.69 671.49 83.53 672.32
  Q 87.90 672.78 91.63 672.78
  Q 459.37 672.94 827.24 672.67
  Q 835.25 672.66 844.25 672.45
  Q 848.99 672.33 853.36 670.58
  Q 862.34 666.98 867.50 659.20"
/>
<path stroke="#969594" vector-effect="non-scaling-stroke" d="
  M 867.50 659.20
  Q 872.62 651.56 872.62 643.00
  Q 872.58 357.94 872.58 72.87
  Q 872.58 66.13 871.82 62.68
  Q 870.72 57.64 868.24 53.01
  Q 867.94 52.43 867.29 52.20"
/>
<path stroke="#838281" vector-effect="non-scaling-stroke" d="
  M 867.29 52.20
  Q 867.29 51.00 866.67 50.33
  Q 863.64 47.05 858.90 43.88
  Q 851.27 38.80 842.00 38.79
  Q 707.82 38.73 569.50 38.76
  Q 324.15 38.81 87.25 38.88
  Q 74.07 38.89 64.97 47.97
  Q 63.42 49.52 62.61 51.59"
/>
<path stroke="#8b8c8b" vector-effect="non-scaling-stroke" d="
  M 867.29 52.20
  Q 865.99 53.82 864.54 55.28
  Q 845.74 74.20 826.80 92.98
  Q 826.78 93.00 822.61 97.44
  Q 819.50 100.75 815.96 103.09"
/>
<path stroke="#989998" vector-effect="non-scaling-stroke" d="
  M 810.84 99.84
  Q 803.68 95.70 795.30 94.71
  Q 789.52 94.02 783.58 93.12
  Q 776.67 92.06 771.87 91.53
  Q 760.16 90.22 748.83 88.84
  Q 746.80 88.59 744.68 88.24
  Q 743.00 87.97 741.03 87.81
  Q 731.21 87.04 721.41 85.87
  Q 718.31 85.50 715.03 85.38
  C 711.79 85.27 708.24 85.53 705.14 84.72
  Q 703.59 84.31 701.72 83.77"
/>
<path stroke="#989998" vector-effect="non-scaling-stroke" d="
  M 677.21 81.96
  Q 670.00 81.26 662.76 80.79
  Q 660.51 80.64 658.25 80.47
  Q 634.11 78.66 609.25 77.62
  C 598.09 77.15 587.25 76.25 576.25 76.01
  C 573.13 75.95 570.18 76.18 566.93 75.94
  Q 560.37 75.44 553.47 75.34
  Q 543.32 75.19 539.99 75.06
  Q 528.31 74.60 516.43 74.59
  Q 515.21 74.59 514.10 74.32
  C 512.22 73.87 510.17 74.47 508.25 74.43
  Q 488.15 74.01 459.75 74.45
  Q 456.58 74.50 454.77 75.00"
/>
<path stroke="#989998" vector-effect="non-scaling-stroke" d="
  M 420.36 75.57
  Q 408.43 75.45 381.00 76.41
  Q 373.22 76.69 367.59 76.96
  Q 360.86 77.28 354.16 77.55
  Q 338.61 78.18 319.37 79.26
  Q 314.37 79.53 307.83 79.57
  C 305.35 79.58 302.93 80.45 300.39 80.58
  Q 283.72 81.43 266.26 82.69
  Q 264.75 82.79 263.24 82.92
  Q 251.78 83.90 240.29 84.37"
/>
<path stroke="#8b8c8b" vector-effect="non-scaling-stroke" d="
  M 240.29 84.37
  Q 232.97 83.91 225.80 85.20
  Q 224.33 85.46 220.12 85.86
  Q 219.59 85.91 217.54 86.50"
/>
<path stroke="#989998" vector-effect="non-scaling-stroke" d="
  M 217.54 86.50
  Q 180.67 89.62 143.93 94.02
  Q 130.50 95.63 129.81 95.76
  Q 122.76 97.16 116.30 100.56
  Q 116.07 100.67 116.04 100.94"
/>
<path stroke="#8b8c8b" vector-effect="non-scaling-stroke" d="
  M 114.17 101.84
  Q 112.91 102.02 111.82 100.93
  Q 87.27 76.27 62.61 51.59"
/>
<path stroke="#ababab" vector-effect="non-scaling-stroke" d="
  M 111.33 104.28
  Q 106.39 108.41 104.61 110.95
  Q 102.99 113.28 98.68 122.22"
/>
<path stroke="#ababab" vector-effect="non-scaling-stroke" d="
  M 97.98 125.19
  Q 97.04 125.69 96.90 127.13
  Q 96.07 136.08 95.38 145.74
  Q 95.34 146.28 95.18 146.80
  Q 95.07 147.13 95.38 147.28
  Q 95.52 147.34 95.68 147.30"
/>
<path stroke="#ababab" vector-effect="non-scaling-stroke" d="
  M 95.34 148.97
  Q 95.30 148.12 95.26 148.07
  Q 94.41 146.82 94.40 148.34
  Q 94.38 153.38 94.55 157.61
  Q 94.60 159.11 93.69 160.35
  Q 93.37 160.77 93.40 161.31
  Q 93.82 168.07 92.99 174.31
  Q 92.48 178.14 92.44 182.57
  Q 92.40 186.32 91.91 190.14
  Q 91.55 192.91 91.48 197.31
  Q 91.43 200.43 90.99 204.48
  Q 90.18 211.71 91.06 219.20"
/>
<path stroke="#ababab" vector-effect="non-scaling-stroke" d="
  M 90.29 225.65
  Q 89.48 228.09 90.00 231.03
  Q 90.55 234.14 90.30 235.82
  C 89.80 239.22 89.28 242.71 89.39 246.17
  Q 89.66 254.78 89.26 267.74
  Q 88.78 283.51 89.05 312.71
  Q 89.05 313.59 88.59 317.74
  Q 88.29 320.48 89.05 322.86"
/>
<path stroke="#ababab" vector-effect="non-scaling-stroke" d="
  M 89.99 385.27
  Q 89.45 388.87 89.73 392.50
  Q 90.27 399.46 90.27 399.53
  Q 90.60 413.90 90.82 428.75
  Q 90.97 438.61 91.56 448.74
  Q 92.40 463.40 92.90 477.37
  C 93.21 486.18 92.91 495.49 93.07 504.84
  Q 93.10 507.03 93.88 509.37
  Q 94.67 511.78 94.79 514.28
  Q 95.19 522.92 95.03 531.38
  Q 94.98 533.91 95.51 537.38
  Q 96.00 540.57 95.98 544.46
  C 95.95 550.61 96.35 556.48 96.59 562.50
  Q 96.63 563.39 97.06 565.51
  Q 97.36 567.01 97.39 568.52
  Q 97.51 575.29 98.64 582.24"
/>
<path stroke="#ababab" vector-effect="non-scaling-stroke" d="
  M 99.16 583.98
  Q 99.12 583.97 99.00 584.18
  Q 98.94 584.28 98.99 584.39
  Q 99.61 585.50 100.37 589.09
  Q 102.84 600.74 112.69 608.99"
/>
<path stroke="#8b8c8b" vector-effect="non-scaling-stroke" d="
  M 112.69 608.99
  Q 108.26 614.29 105.78 616.78
  Q 84.96 637.59 64.26 658.52
  Q 63.57 659.22 62.89 659.99"
/>
<path stroke="#ababab" vector-effect="non-scaling-stroke" d="
  M 241.21 85.21
  Q 238.21 84.90 240.29 84.37"
/>
<path stroke="#ababab" vector-effect="non-scaling-stroke" d="
  M 218.29 86.80
  Q 218.42 86.35 217.54 86.50"
/>
<path stroke="#8b8c8b" vector-effect="non-scaling-stroke" d="
  M 867.50 659.20
  L 818.65 610.50"
/>
<path stroke="#989998" vector-effect="non-scaling-stroke" d="
  M 125.80 616.29
  Q 118.83 614.11 112.69 608.99"
/>
<path stroke="#989998" vector-effect="non-scaling-stroke" d="
  M 306.63 632.34
  Q 309.77 632.77 312.94 632.86
  Q 313.81 632.88 318.53 633.28
  Q 321.30 633.52 324.17 633.09"
/>
<path stroke="#6c6c6b" vector-effect="non-scaling-stroke" d="
  M 905.77 349.69
  A 0.55 0.55 0.0 0 0 906.32 350.24
  L 1074.94 350.21
  A 0.55 0.55 0.0 0 0 1075.49 349.66
  L 1075.50 56.05
  A 0.55 0.55 0.0 0 0 1074.95 55.50
  L 906.30 55.52
  A 0.55 0.55 0.0 0 0 905.75 56.07
  L 905.77 349.69"
/>
<path stroke="#8b8c8b" vector-effect="non-scaling-stroke" d="
  M 1050.38 430.88
  A 59.71 59.71 0.0 0 0 990.67 371.17
  A 59.71 59.71 0.0 0 0 930.96 430.88
  A 59.71 59.71 0.0 0 0 990.67 490.59
  A 59.71 59.71 0.0 0 0 1050.38 430.88"
/>
<path stroke="#8b8c8b" vector-effect="non-scaling-stroke" d="
  M 1050.36 571.04
  A 59.72 59.72 0.0 0 0 990.64 511.32
  A 59.72 59.72 0.0 0 0 930.92 571.04
  A 59.72 59.72 0.0 0 0 990.64 630.76
  A 59.72 59.72 0.0 0 0 1050.36 571.04"
/>
<path stroke="#8b8c8b" vector-effect="non-scaling-stroke" d="
  M 1064.74 646.15
  A 9.70 9.70 0.0 0 0 1055.04 636.45
  L 926.48 636.45
  A 9.70 9.70 0.0 0 0 916.78 646.15
  L 916.78 664.03
  A 9.70 9.70 0.0 0 0 926.48 673.73
  L 1055.04 673.73
  A 9.70 9.70 0.0 0 0 1064.74 664.03
  L 1064.74 646.15"
/>
<path stroke="#323231" vector-effect="non-scaling-stroke" d="
  M 943.40 82.72
  Q 940.12 85.69 936.63 88.11
  C 935.44 88.94 935.02 90.12 934.23 91.26
  C 932.40 93.92 929.66 95.56 928.22 98.51
  Q 927.02 100.97 925.25 103.05
  C 923.25 105.40 922.55 108.39 920.97 111.00
  C 919.67 113.17 919.32 115.73 918.24 118.02
  C 916.81 121.02 916.57 123.94 915.54 127.00
  C 914.57 129.88 914.83 132.85 914.14 135.78
  Q 913.64 137.93 913.57 140.40
  Q 913.33 149.23 914.82 157.90
  Q 915.01 159.03 916.05 162.52
  Q 916.74 164.83 916.97 167.25
  Q 917.10 168.64 918.79 171.34
  C 919.80 172.96 919.72 175.00 920.79 176.63
  Q 922.35 178.99 923.30 181.65
  C 924.57 185.20 927.19 188.02 929.32 191.07
  Q 930.45 192.68 932.64 194.94
  Q 934.25 196.60 936.12 198.69
  Q 938.81 201.71 947.27 207.94
  Q 950.53 210.34 956.57 213.36
  Q 961.63 215.88 966.60 217.32
  Q 973.72 219.39 978.09 220.20
  Q 988.35 222.11 1000.87 220.72
  C 1006.32 220.12 1012.08 218.18 1017.57 216.67
  C 1019.87 216.04 1021.71 214.89 1023.88 214.07
  Q 1026.27 213.17 1028.46 211.83
  Q 1032.54 209.32 1036.50 206.65
  Q 1041.06 203.58 1043.88 200.58
  Q 1047.12 197.13 1050.52 193.63
  C 1051.76 192.35 1052.21 190.83 1053.47 189.64
  Q 1054.72 188.47 1055.46 186.87
  C 1056.65 184.31 1058.37 182.20 1059.56 179.64
  Q 1061.21 176.12 1062.78 172.68
  Q 1064.87 168.11 1066.27 160.03
  Q 1066.44 159.08 1067.03 158.24
  Q 1067.35 157.79 1067.31 157.25
  Q 1067.12 154.51 1067.85 151.87
  C 1068.70 148.80 1067.89 145.63 1068.23 142.41
  Q 1068.62 138.67 1067.47 134.52
  C 1066.94 132.61 1067.65 130.97 1066.67 129.11
  C 1066.07 127.98 1066.36 126.88 1066.05 125.70
  C 1061.35 107.59 1052.28 93.14 1036.93 81.44
  C 1033.48 78.81 1029.68 77.27 1026.10 75.08
  C 1019.37 70.95 1010.88 68.93 1003.00 67.71
  Q 999.91 67.23 996.97 66.71
  Q 992.57 65.94 986.59 66.41
  C 983.91 66.62 981.35 67.34 978.67 67.71
  Q 975.82 68.09 972.86 68.85
  Q 967.16 70.31 961.11 72.08
  Q 958.48 72.86 956.31 74.40
  Q 951.00 78.19 944.79 81.15
  Q 944.19 81.44 943.90 82.04
  Q 943.72 82.43 943.40 82.72"
/>
<path stroke="#323231" vector-effect="non-scaling-stroke" d="
  M 1002.71 330.51
  C 1007.34 329.34 1011.74 327.30 1016.13 326.19
  Q 1016.59 326.07 1016.90 325.71
  Q 1018.10 324.28 1019.48 323.54
  Q 1021.03 322.71 1022.07 321.64
  Q 1023.54 320.13 1025.28 319.11
  C 1027.98 317.54 1029.75 314.35 1031.84 312.03
  Q 1033.82 309.84 1035.00 307.77
  C 1037.77 302.91 1040.07 298.20 1040.95 292.84
  Q 1041.50 289.52 1042.21 286.23
  C 1042.99 282.63 1042.75 278.98 1042.76 275.38
  C 1042.76 273.96 1042.06 272.75 1042.02 271.32
  Q 1041.98 269.69 1041.51 268.26
  C 1040.29 264.57 1039.50 261.09 1037.69 257.50
  Q 1034.57 251.31 1029.88 245.65
  C 1028.98 244.56 1027.92 244.08 1026.79 243.29
  Q 1025.83 242.61 1024.62 241.28
  Q 1022.27 238.67 1019.14 236.89
  Q 1013.33 233.56 1006.44 230.72
  Q 1002.87 229.25 999.03 229.00
  Q 989.82 228.42 980.24 229.37
  C 975.58 229.83 971.47 232.29 967.49 234.54
  C 965.16 235.86 962.71 236.55 960.31 237.60
  Q 959.83 237.81 959.59 238.26
  C 957.59 241.94 955.07 243.73 951.82 245.94
  Q 951.34 246.27 951.13 246.80
  Q 949.62 250.43 946.51 252.88
  Q 946.08 253.23 945.89 253.75
  Q 944.56 257.45 942.28 260.71
  Q 941.95 261.18 941.89 261.74
  Q 941.49 265.56 939.93 269.03
  Q 939.71 269.51 939.81 270.03
  C 940.41 273.10 939.65 274.18 938.54 276.90
  Q 938.30 277.49 938.51 278.09
  Q 939.62 281.24 938.61 284.96
  Q 938.47 285.47 938.70 285.95
  Q 940.27 289.22 940.10 292.59
  Q 940.07 293.15 940.35 293.64
  C 941.34 295.35 942.33 297.25 942.78 299.15
  Q 943.67 302.97 946.34 306.29
  Q 946.76 306.82 946.75 307.49
  Q 946.73 309.52 948.57 310.83
  Q 952.33 313.53 953.80 317.04
  Q 954.07 317.70 954.70 318.04
  Q 959.19 320.48 963.31 324.58
  Q 964.19 325.46 965.36 325.86
  C 969.91 327.40 974.50 329.09 979.22 330.39
  Q 990.67 333.57 1002.71 330.51"
/>
<path stroke="#646665" vector-effect="non-scaling-stroke" d="
  M 1046.66 430.86
  A 56.00 56.00 0.0 0 0 990.66 374.86
  A 56.00 56.00 0.0 0 0 934.66 430.86
  A 56.00 56.00 0.0 0 0 990.66 486.86
  A 56.00 56.00 0.0 0 0 1046.66 430.86"
/>
<path stroke="#848585" vector-effect="non-scaling-stroke" d="
  M 992.2608 378.5314
  A 0.82 0.82 0.0 0 0 991.4365 377.7157
  L 989.7765 377.7244
  A 0.82 0.82 0.0 0 0 988.9608 378.5487
  L 988.9992 385.8886
  A 0.82 0.82 0.0 0 0 989.8235 386.7043
  L 991.4835 386.6956
  A 0.82 0.82 0.0 0 0 992.2992 385.8713
  L 992.2608 378.5314"
/>
<path stroke="#848585" vector-effect="non-scaling-stroke" d="
  M 965.9299 384.9098
  A 0.93 0.93 0.0 0 0 964.6613 384.5628
  L 963.5495 385.1969
  A 0.93 0.93 0.0 0 0 963.2024 386.4655
  L 966.7301 392.6502
  A 0.93 0.93 0.0 0 0 967.9987 392.9972
  L 969.1105 392.3631
  A 0.93 0.93 0.0 0 0 969.4576 391.0945
  L 965.9299 384.9098"
/>
<path stroke="#848585" vector-effect="non-scaling-stroke" d="
  M 1018.1156 385.8477
  A 1.63 0.86 13.4 0 0 1016.7293 384.6334
  A 1.63 0.86 13.4 0 0 1014.9444 385.0923
  A 1.63 0.86 13.4 0 0 1016.3307 386.3066
  A 1.63 0.86 13.4 0 0 1018.1156 385.8477"
/>
<path stroke="#848585" vector-effect="non-scaling-stroke" d="
  M 976.29 467.81
  C 1012.37 480.76 1043.53 443.12 1024.30 410.01"
/>
<path stroke="#646665" vector-effect="non-scaling-stroke" d="
  M 1024.30 410.01
  Q 1025.50 406.47 1030.05 401.97
  Q 1030.41 401.61 1030.52 401.11
  C 1031.21 397.85 1028.02 393.96 1026.23 391.25
  Q 1025.88 390.70 1025.95 391.35
  Q 1026.28 394.30 1024.93 396.20
  C 1022.32 399.88 1019.07 403.07 1016.29 406.54
  Q 1008.65 416.07 1001.57 424.79
  Q 993.91 434.23 985.85 443.82
  C 980.87 449.77 977.08 454.97 971.18 461.62
  C 967.65 465.60 964.62 469.78 961.21 473.92
  Q 960.35 474.95 960.31 476.28
  Q 960.30 476.80 960.69 477.15
  Q 963.06 479.31 964.28 479.37
  Q 966.13 479.46 966.96 478.44
  Q 971.64 472.73 976.29 467.81"
/>
<path stroke="#989998" vector-effect="non-scaling-stroke" d="
  M 1024.30 410.01
  Q 1021.18 411.84 1018.48 416.10"
/>
<path stroke="#8b8c8b" vector-effect="non-scaling-stroke" d="
  M 1018.48 416.10
  L 982.13 460.36"
/>
<path stroke="#989998" vector-effect="non-scaling-stroke" d="
  M 982.13 460.36
  L 976.29 467.81"
/>
<path stroke="#ababab" vector-effect="non-scaling-stroke" d="
  M 982.13 460.36
  Q 983.75 461.72 986.02 461.92
  Q 1001.48 463.26 1011.64 453.88
  Q 1018.15 447.87 1020.19 441.28
  C 1023.05 432.03 1022.31 424.85 1018.48 416.10"
/>
<path stroke="#777878" vector-effect="non-scaling-stroke" d="
  M 963.02 445.47
  L 999.36 401.20"
/>
<path stroke="#848585" vector-effect="non-scaling-stroke" d="
  M 999.36 401.20
  L 1004.89 394.57
  A 0.49 0.49 0.0 0 0 1004.67 393.80
  Q 989.64 388.61 975.71 394.23
  C 953.00 403.39 944.27 430.81 956.90 451.59
  Q 957.36 452.33 957.92 451.66
  L 963.02 445.47"
/>
<path stroke="#ababab" vector-effect="non-scaling-stroke" d="
  M 999.36 401.20
  Q 989.45 397.71 979.76 401.53
  C 967.30 406.44 959.13 417.83 959.40 431.18
  Q 959.55 438.63 963.02 445.47"
/>
<path stroke="#848585" vector-effect="non-scaling-stroke" d="
  M 952.7173 408.4994
  A 1.14 1.14 0.0 0 0 952.3055 406.9407
  L 946.3939 403.5000
  A 1.14 1.14 0.0 0 0 944.8351 403.9119
  L 944.4227 404.6206
  A 1.14 1.14 0.0 0 0 944.8345 406.1793
  L 950.7461 409.6200
  A 1.14 1.14 0.0 0 0 952.3049 409.2081
  L 952.7173 408.4994"
/>
<path stroke="#848585" vector-effect="non-scaling-stroke" d="
  M 1036.5141 403.8465
  A 1.13 1.13 0.0 0 0 1034.9676 403.4437
  L 1029.0335 406.9252
  A 1.13 1.13 0.0 0 0 1028.6307 408.4717
  L 1029.0659 409.2135
  A 1.13 1.13 0.0 0 0 1030.6124 409.6163
  L 1036.5465 406.1348
  A 1.13 1.13 0.0 0 0 1036.9493 404.5883
  L 1036.5141 403.8465"
/>
<path stroke="#848585" vector-effect="non-scaling-stroke" d="
  M 946.5191 430.3221
  A 1.06 1.06 0.0 0 0 945.4573 429.2640
  L 938.5773 429.2760
  A 1.06 1.06 0.0 0 0 937.5191 430.3379
  L 937.5209 431.3379
  A 1.06 1.06 0.0 0 0 938.5827 432.3960
  L 945.4627 432.3840
  A 1.06 1.06 0.0 0 0 946.5209 431.3221
  L 946.5191 430.3221"
/>
<path stroke="#848585" vector-effect="non-scaling-stroke" d="
  M 1043.7262 430.1066
  A 0.83 0.83 0.0 0 0 1042.8918 429.2810
  L 1035.6119 429.3191
  A 0.83 0.83 0.0 0 0 1034.7863 430.1534
  L 1034.7938 431.5934
  A 0.83 0.83 0.0 0 0 1035.6282 432.4190
  L 1042.9081 432.3809
  A 0.83 0.83 0.0 0 0 1043.7337 431.5466
  L 1043.7262 430.1066"
/>
<path stroke="#848585" vector-effect="non-scaling-stroke" d="
  M 1036.9608 457.0994
  A 1.12 1.12 0.0 0 0 1036.5615 455.5666
  L 1030.6274 452.0851
  A 1.12 1.12 0.0 0 0 1029.0947 452.4844
  L 1028.6392 453.2606
  A 1.12 1.12 0.0 0 0 1029.0385 454.7934
  L 1034.9726 458.2749
  A 1.12 1.12 0.0 0 0 1036.5053 457.8756
  L 1036.9608 457.0994"
/>
<path stroke="#848585" vector-effect="non-scaling-stroke" d="
  M 952.4263 452.6915
  A 1.28 1.28 0.0 0 0 950.6828 452.2047
  L 944.9154 455.4545
  A 1.28 1.28 0.0 0 0 944.4286 457.1980
  L 944.6937 457.6685
  A 1.28 1.28 0.0 0 0 946.4372 458.1553
  L 952.2046 454.9055
  A 1.28 1.28 0.0 0 0 952.6914 453.1620
  L 952.4263 452.6915"
/>
<path stroke="#848585" vector-effect="non-scaling-stroke" d="
  M 1014.5169 469.0351
  A 0.94 0.94 0.0 0 0 1013.2317 468.6956
  L 1012.0908 469.3595
  A 0.94 0.94 0.0 0 0 1011.7513 470.6448
  L 1015.3831 476.8849
  A 0.94 0.94 0.0 0 0 1016.6683 477.2244
  L 1017.8092 476.5605
  A 0.94 0.94 0.0 0 0 1018.1487 475.2752
  L 1014.5169 469.0351"
/>
<path stroke="#848585" vector-effect="non-scaling-stroke" d="
  M 992.2453 475.9487
  A 1.01 1.01 0.0 0 0 991.2283 474.9458
  L 989.9883 474.9544
  A 1.01 1.01 0.0 0 0 988.9854 475.9715
  L 989.0347 483.0313
  A 1.01 1.01 0.0 0 0 990.0517 484.0342
  L 991.2917 484.0256
  A 1.01 1.01 0.0 0 0 992.2946 483.0085
  L 992.2453 475.9487"
/>
<path stroke="#646665" vector-effect="non-scaling-stroke" d="
  M 1041.9946 548.5324
  A 56.02 55.96 -23.6 0 0 968.2565 519.6803
  A 56.02 55.96 -23.6 0 0 939.3254 593.3876
  A 56.02 55.96 -23.6 0 0 1013.0635 622.2397
  A 56.02 55.96 -23.6 0 0 1041.9946 548.5324"
/>
<path stroke="#848585" vector-effect="non-scaling-stroke" d="
  M 992.3711 518.7647
  A 0.91 0.91 0.0 0 0 991.4691 517.8468
  L 989.9491 517.8335
  A 0.91 0.91 0.0 0 0 989.0312 518.7356
  L 988.9689 525.8753
  A 0.91 0.91 0.0 0 0 989.8709 526.7932
  L 991.3909 526.8065
  A 0.91 0.91 0.0 0 0 992.3088 525.9044
  L 992.3711 518.7647"
/>
<path stroke="#848585" vector-effect="non-scaling-stroke" d="
  M 965.7934 524.7967
  A 0.65 0.65 0.0 0 0 964.9051 524.5604
  L 963.2613 525.5133
  A 0.65 0.65 0.0 0 0 963.0249 526.4016
  L 966.8866 533.0633
  A 0.65 0.65 0.0 0 0 967.7749 533.2996
  L 969.4187 532.3467
  A 0.65 0.65 0.0 0 0 969.6551 531.4584
  L 965.7934 524.7967"
/>
<path stroke="#848585" vector-effect="non-scaling-stroke" d="
  M 1018.1261 526.5469
  A 0.88 0.88 0.0 0 0 1017.8061 525.3442
  L 1016.5776 524.6321
  A 0.88 0.88 0.0 0 0 1015.3749 524.9521
  L 1011.7339 531.2331
  A 0.88 0.88 0.0 0 0 1012.0539 532.4358
  L 1013.2824 533.1479
  A 0.88 0.88 0.0 0 0 1014.4851 532.8279
  L 1018.1261 526.5469"
/>
<path stroke="#646665" vector-effect="non-scaling-stroke" d="
  M 951.19 567.70
  Q 949.20 568.24 947.01 569.01
  C 945.64 569.49 944.24 569.24 942.82 569.57"
/>
<path stroke="#848585" vector-effect="non-scaling-stroke" d="
  M 942.82 569.57
  L 938.61 569.60
  Q 938.07 569.60 937.78 570.05
  Q 937.25 570.89 937.81 572.37"
/>
<path stroke="#646665" vector-effect="non-scaling-stroke" d="
  M 937.81 572.37
  Q 938.44 572.67 938.83 573.18
  Q 939.17 573.62 939.09 574.17
  L 938.58 577.68
  A 0.79 0.78 82.5 0 0 939.67 578.52
  Q 940.87 577.98 942.51 577.60
  Q 963.32 572.70 983.31 568.16
  Q 985.96 567.55 988.50 566.95
  Q 1007.63 562.42 1026.02 557.90
  C 1030.98 556.68 1036.07 555.88 1040.99 554.39
  Q 1042.03 554.08 1041.97 552.99
  Q 1041.63 546.41 1035.00 547.30"
/>
<path stroke="#848585" vector-effect="non-scaling-stroke" d="
  M 1035.00 547.30
  L 1036.76 545.89
  Q 1037.18 545.55 1037.04 545.03
  Q 1036.75 544.01 1035.86 543.62
  Q 1035.34 543.40 1034.83 543.65
  Q 1030.67 545.65 1028.20 548.21"
/>
<path stroke="#646665" vector-effect="non-scaling-stroke" d="
  M 1028.20 548.21
  Q 1029.35 550.64 1024.61 550.51"
/>
<path stroke="#848585" vector-effect="non-scaling-stroke" d="
  M 1024.61 550.51
  Q 1014.11 534.68 996.97 531.99
  C 974.09 528.40 953.38 544.43 951.19 567.70"
/>
<path stroke="#989998" vector-effect="non-scaling-stroke" d="
  M 1024.61 550.51
  L 1016.64 552.46"
/>
<path stroke="#ababab" vector-effect="non-scaling-stroke" d="
  M 1016.64 552.46
  Q 1009.95 546.38 1007.14 544.60
  Q 997.28 538.35 986.68 540.02
  Q 966.74 543.16 960.26 563.11
  Q 960.05 563.75 960.24 564.39
  L 960.58 565.59"
/>
<path stroke="#989998" vector-effect="non-scaling-stroke" d="
  M 960.58 565.59
  L 951.19 567.70"
/>
<path stroke="#8b8c8b" vector-effect="non-scaling-stroke" d="
  M 1016.64 552.46
  L 960.58 565.59"
/>
<path stroke="#989998" vector-effect="non-scaling-stroke" d="
  M 937.81 572.37
  Q 939.29 572.30 940.44 570.69
  Q 940.72 570.30 941.21 570.28
  Q 942.45 570.23 942.82 569.57"
/>
<path stroke="#989998" vector-effect="non-scaling-stroke" d="
  M 1035.00 547.30
  Q 1033.36 547.97 1030.96 549.11
  Q 1029.47 549.83 1028.20 548.21"
/>
<path stroke="#848585" vector-effect="non-scaling-stroke" d="
  M 952.7271 548.5611
  A 1.08 1.08 0.0 0 0 952.3447 547.0824
  L 946.3994 543.5804
  A 1.08 1.08 0.0 0 0 944.9207 543.9628
  L 944.3929 544.8589
  A 1.08 1.08 0.0 0 0 944.7753 546.3376
  L 950.7206 549.8396
  A 1.08 1.08 0.0 0 0 952.1993 549.4572
  L 952.7271 548.5611"
/>
<path stroke="#777878" vector-effect="non-scaling-stroke" d="
  M 1043.39 571.07
  Q 1040.95 571.23 1038.68 571.84
  Q 1037.24 572.22 1038.69 572.55
  Q 1040.72 573.01 1043.01 572.71
  A 0.95 0.94 84.9 0 0 1043.82 571.74
  L 1043.81 571.45
  A 0.39 0.39 0.0 0 0 1043.39 571.07"
/>
<path stroke="#777878" vector-effect="non-scaling-stroke" d="
  M 1021.71 576.10
  L 965.20 589.34"
/>
<path stroke="#848585" vector-effect="non-scaling-stroke" d="
  M 965.20 589.34
  L 957.36 591.06
  A 0.59 0.59 0.0 0 0 956.99 591.96
  C 978.11 623.49 1025.10 612.82 1030.01 575.21
  A 0.83 0.83 0.0 0 0 1028.99 574.29
  L 1021.71 576.10"
/>
<path stroke="#ababab" vector-effect="non-scaling-stroke" d="
  M 965.20 589.34
  Q 970.66 596.46 978.58 599.88
  Q 986.20 603.18 994.79 601.94
  C 1007.99 600.03 1019.15 589.90 1021.71 576.10"
/>
<path stroke="#848585" vector-effect="non-scaling-stroke" d="
  M 1037.0158 597.0281
  A 0.94 0.94 0.0 0 0 1036.6717 595.7440
  L 1030.4883 592.1740
  A 0.94 0.94 0.0 0 0 1029.2042 592.5181
  L 1028.5842 593.5919
  A 0.94 0.94 0.0 0 0 1028.9283 594.8760
  L 1035.1117 598.4460
  A 0.94 0.94 0.0 0 0 1036.3958 598.1019
  L 1037.0158 597.0281"
/>
<path stroke="#848585" vector-effect="non-scaling-stroke" d="
  M 952.4715 593.0012
  A 1.44 1.44 0.0 0 0 950.5129 592.4433
  L 945.0606 595.4781
  A 1.44 1.44 0.0 0 0 944.5026 597.4366
  L 944.6485 597.6988
  A 1.44 1.44 0.0 0 0 946.6071 598.2567
  L 952.0594 595.2219
  A 1.44 1.44 0.0 0 0 952.6174 593.2634
  L 952.4715 593.0012"
/>
<path stroke="#848585" vector-effect="non-scaling-stroke" d="
  M 969.3757 611.0205
  A 1.30 1.30 0.0 0 0 968.8968 609.2455
  L 968.3593 608.9364
  A 1.30 1.30 0.0 0 0 966.5843 609.4153
  L 963.3043 615.1195
  A 1.30 1.30 0.0 0 0 963.7832 616.8945
  L 964.3207 617.2036
  A 1.30 1.30 0.0 0 0 966.0957 616.7247
  L 969.3757 611.0205"
/>
<path stroke="#848585" vector-effect="non-scaling-stroke" d="
  M 1014.6466 609.3419
  A 1.16 1.16 0.0 0 0 1013.0620 608.9173
  L 1012.2480 609.3873
  A 1.16 1.16 0.0 0 0 1011.8234 610.9719
  L 1015.2334 616.8781
  A 1.16 1.16 0.0 0 0 1016.8180 617.3027
  L 1017.6320 616.8327
  A 1.16 1.16 0.0 0 0 1018.0566 615.2481
  L 1014.6466 609.3419"
/>
<path stroke="#848585" vector-effect="non-scaling-stroke" d="
  M 992.2849 616.0685
  A 0.83 0.83 0.0 0 0 991.4491 615.2443
  L 989.7892 615.2559
  A 0.83 0.83 0.0 0 0 988.9650 616.0917
  L 989.0151 623.2715
  A 0.83 0.83 0.0 0 0 989.8509 624.0957
  L 991.5108 624.0841
  A 0.83 0.83 0.0 0 0 992.3350 623.2483
  L 992.2849 616.0685"
/>
<path stroke="#989998" vector-effect="non-scaling-stroke" d="
  M 998.03 667.28
  Q 1002.19 664.01 1003.90 659.43"
/>
<path stroke="#838281" vector-effect="non-scaling-stroke" d="
  M 1003.90 659.43
  Q 1005.96 657.47 1007.37 655.37
  Q 1013.02 647.03 1018.21 639.70
  A 1.07 1.07 0.0 0 0 1017.35 638.01
  C 988.18 637.54 958.75 637.82 930.47 637.76
  C 925.98 637.75 921.07 637.92 919.04 642.70
  Q 918.12 644.86 918.20 648.84
  Q 918.34 656.27 918.30 662.76
  Q 918.24 671.22 926.02 672.01
  Q 931.90 672.62 941.33 672.28
  Q 948.79 672.02 956.82 672.10
  Q 973.75 672.29 989.49 672.20
  Q 992.56 672.18 995.12 671.50
  Q 996.30 671.19 996.06 669.98
  A 1.49 1.47 64.1 0 1 996.54 668.57
  L 998.03 667.28"
/>
<path stroke="#a3a2a1" vector-effect="non-scaling-stroke" d="
  M 1003.90 659.43
  Q 1006.43 648.69 998.37 643.62
  C 990.85 638.90 981.12 641.61 977.78 649.94
  C 975.60 655.37 977.17 661.46 981.64 665.38
  Q 988.19 671.12 998.03 667.28"
/>
<path stroke="#989998" vector-effect="non-scaling-stroke" d="
  M 1047.74 655.04
  A 13.72 13.72 0.0 0 0 1034.02 641.32
  A 13.72 13.72 0.0 0 0 1020.30 655.04
  A 13.72 13.72 0.0 0 0 1034.02 668.76
  A 13.72 13.72 0.0 0 0 1047.74 655.04"
/>
<path stroke="#a3a2a1" vector-effect="non-scaling-stroke" d="
  M 961.07 655.03
  A 13.80 13.80 0.0 0 0 947.27 641.23
  A 13.80 13.80 0.0 0 0 933.47 655.03
  A 13.80 13.80 0.0 0 0 947.27 668.83
  A 13.80 13.80 0.0 0 0 961.07 655.03"
/>
<path stroke="#989998" vector-effect="non-scaling-stroke" d="
  M 958.26 655.08
  A 10.99 10.99 0.0 0 0 947.27 644.09
  A 10.99 10.99 0.0 0 0 936.28 655.08
  A 10.99 10.99 0.0 0 0 947.27 666.07
  A 10.99 10.99 0.0 0 0 958.26 655.08"
/>
<path stroke="#989998" vector-effect="non-scaling-stroke" d="
  M 1001.63 655.04
  A 11.00 11.00 0.0 0 0 990.63 644.04
  A 11.00 11.00 0.0 0 0 979.63 655.04
  A 11.00 11.00 0.0 0 0 990.63 666.04
  A 11.00 11.00 0.0 0 0 1001.63 655.04"
/>
<path stroke="#989998" vector-effect="non-scaling-stroke" d="
  M 1045.08 655.05
  A 11.04 11.04 0.0 0 0 1034.04 644.01
  A 11.04 11.04 0.0 0 0 1023.00 655.05
  A 11.04 11.04 0.0 0 0 1034.04 666.09
  A 11.04 11.04 0.0 0 0 1045.08 655.05"
/>
<path stroke="#989998" vector-effect="non-scaling-stroke" d="
  M 997.52 655.04
  A 7.01 7.01 0.0 0 0 990.51 648.03
  A 7.01 7.01 0.0 0 0 983.50 655.04
  A 7.01 7.01 0.0 0 0 990.51 662.05
  A 7.01 7.01 0.0 0 0 997.52 655.04"
/>
<path stroke="#989998" vector-effect="non-scaling-stroke" d="
  M 1040.93 655.02
  A 7.04 7.04 0.0 0 0 1033.89 647.98
  A 7.04 7.04 0.0 0 0 1026.85 655.02
  A 7.04 7.04 0.0 0 0 1033.89 662.06
  A 7.04 7.04 0.0 0 0 1040.93 655.02"
/>
<path stroke="#989998" vector-effect="non-scaling-stroke" d="
  M 954.24 655.03
  A 7.04 7.04 0.0 0 0 947.20 647.99
  A 7.04 7.04 0.0 0 0 940.16 655.03
  A 7.04 7.04 0.0 0 0 947.20 662.07
  A 7.04 7.04 0.0 0 0 954.24 655.03"
/>
<path stroke="#ababab" vector-effect="non-scaling-stroke" d="
  M 952.93 655.01
  A 5.57 5.57 0.0 0 0 947.36 649.44
  A 5.57 5.57 0.0 0 0 941.79 655.01
  A 5.57 5.57 0.0 0 0 947.36 660.58
  A 5.57 5.57 0.0 0 0 952.93 655.01"
/>
<path stroke="#ababab" vector-effect="non-scaling-stroke" d="
  M 996.30 655.05
  A 5.59 5.59 0.0 0 0 990.71 649.46
  A 5.59 5.59 0.0 0 0 985.12 655.05
  A 5.59 5.59 0.0 0 0 990.71 660.64
  A 5.59 5.59 0.0 0 0 996.30 655.05"
/>
<path stroke="#ababab" vector-effect="non-scaling-stroke" d="
  M 1034.2400 660.5339
  A 5.52 5.35 87.3 0 0 1039.3241 654.7680
  A 5.52 5.35 87.3 0 0 1033.7200 649.5061
  A 5.52 5.35 87.3 0 0 1028.6359 655.2720
  A 5.52 5.35 87.3 0 0 1034.2400 660.5339"
/>
<path stroke="#877b76" vector-effect="non-scaling-stroke" d="
  M 1062.94 726.00
  Q 1069.88 720.27 1076.02 713.30"
/>
<path stroke="#a3a2a1" vector-effect="non-scaling-stroke" d="
  M 17.34 711.50
  Q 17.60 711.32 17.30 711.77"
/>
<path stroke="#a3a2a1" vector-effect="non-scaling-stroke" d="
  M 24.74 712.04
  Q 23.88 712.03 23.03 712.50"
/>
</g>
<path fill="#553e33" d="
  M 1099.97 13.96
  L 713.01 14.01
  Q 712.06 14.06 711.06 13.82
  Q 710.01 13.57 709.04 13.57
  Q 392.70 13.48 76.26 13.55
  Q 66.29 13.55 56.24 13.66
  Q 32.20 13.94 7.93 14.12
  C 16.31 3.68 28.34 1.01 41.25 1.02
  Q 440.17 1.41 586.00 1.16
  C 747.33 0.90 909.99 1.34 1071.00 1.10
  C 1082.32 1.08 1093.02 5.10 1099.97 13.96
  Z"
/>
<path fill="#73412b" d="
  M 713.01 14.01
  Q 709.96 22.52 708.83 31.49
  Q 707.32 31.31 705.25 31.31
  Q 383.74 31.49 86.33 31.50
  Q 74.60 31.50 70.15 32.87
  C 56.42 37.09 47.02 49.36 47.02 63.90
  Q 47.00 360.64 47.01 647.92
  C 47.02 662.41 56.90 674.77 70.51 678.86
  Q 74.56 680.07 88.23 680.07
  Q 297.60 680.01 506.97 680.10
  Q 508.13 680.26 507.84 680.98
  C 506.99 683.06 506.87 685.41 506.25 687.31
  Q 503.57 695.52 501.32 703.86
  Q 501.08 704.76 500.15 707.58
  Q 499.51 709.50 499.20 711.35
  Q 473.93 711.23 448.00 711.22
  Q 298.61 711.15 149.22 711.13
  Q 92.73 711.12 36.25 711.49
  Q 34.81 711.50 32.26 712.39
  Q 30.11 713.15 29.50 713.74
  Q 29.54 713.75 29.57 713.76
  Q 28.24 711.49 24.74 712.04
  L 17.34 711.50
  L 8.87 707.90
  Q 2.66 702.87 1.16 694.86
  Q 0.25 690.03 0.28 683.00
  Q 0.42 654.26 0.43 626.50
  C 0.43 610.23 0.74 593.10 0.73 576.74
  Q 0.56 324.75 0.43 72.75
  Q 0.42 57.62 0.23 42.50
  Q 0.16 36.75 1.36 29.37
  Q 2.77 20.68 7.93 14.12
  Q 32.20 13.94 56.24 13.66
  Q 66.29 13.55 76.26 13.55
  Q 392.70 13.48 709.04 13.57
  Q 710.01 13.57 711.06 13.82
  Q 712.06 14.06 713.01 14.01
  Z"
/>
<path fill="#775341" d="
  M 1099.97 13.96
  Q 1104.27 18.13 1105.00 23.37
  L 1105.00 697.78
  Q 1098.69 710.53 1084.97 711.37
  C 1081.64 711.57 1079.10 710.94 1076.02 713.30
  Q 1075.75 711.30 1071.50 711.44
  C 1064.10 711.69 1054.34 711.28 1045.83 711.28
  Q 781.39 711.29 516.96 711.30
  Q 512.65 711.30 508.07 711.40
  Q 503.76 711.48 499.20 711.35
  Q 499.51 709.50 500.15 707.58
  Q 501.08 704.76 501.32 703.86
  Q 503.57 695.52 506.25 687.31
  C 506.87 685.41 506.99 683.06 507.84 680.98
  Q 508.13 680.26 506.97 680.10
  Q 674.86 680.18 842.75 680.18
  Q 850.96 680.18 856.11 679.33
  C 867.65 677.43 877.91 668.09 881.05 656.60
  Q 882.35 651.86 882.35 640.30
  Q 882.19 352.36 882.35 68.98
  C 882.36 59.49 881.56 51.95 875.79 44.45
  Q 865.98 31.69 849.25 31.60
  Q 779.06 31.24 708.83 31.49
  Q 709.96 22.52 713.01 14.01
  L 1099.97 13.96
  Z
  M 1086.76 31.77
  A 0.27 0.27 0.0 0 0 1086.49 31.50
  L 894.73 31.50
  A 0.27 0.27 0.0 0 0 894.46 31.77
  L 894.46 679.77
  A 0.27 0.27 0.0 0 0 894.73 680.04
  L 1086.49 680.04
  A 0.27 0.27 0.0 0 0 1086.76 679.77
  L 1086.76 31.77
  Z"
/>
<path fill="#8e8b8a" d="
  M 708.83 31.49
  Q 779.06 31.24 849.25 31.60
  Q 865.98 31.69 875.79 44.45
  C 881.56 51.95 882.36 59.49 882.35 68.98
  Q 882.19 352.36 882.35 640.30
  Q 882.35 651.86 881.05 656.60
  C 877.91 668.09 867.65 677.43 856.11 679.33
  Q 850.96 680.18 842.75 680.18
  Q 674.86 680.18 506.97 680.10
  Q 297.60 680.01 88.23 680.07
  Q 74.56 680.07 70.51 678.86
  C 56.90 674.77 47.02 662.41 47.01 647.92
  Q 47.00 360.64 47.02 63.90
  C 47.02 49.36 56.42 37.09 70.15 32.87
  Q 74.60 31.50 86.33 31.50
  Q 383.74 31.49 705.25 31.31
  Q 707.32 31.31 708.83 31.49
  Z
  M 62.61 51.59
  Q 61.17 52.12 60.25 54.02
  Q 57.02 60.70 56.96 66.75
  Q 56.44 119.62 56.48 172.50
  Q 56.63 400.12 56.72 627.74
  C 56.72 639.14 55.01 649.50 61.96 659.53
  Q 62.34 660.09 62.89 659.99
  Q 62.72 661.14 63.64 662.11
  C 69.14 667.97 75.69 671.49 83.53 672.32
  Q 87.90 672.78 91.63 672.78
  Q 459.37 672.94 827.24 672.67
  Q 835.25 672.66 844.25 672.45
  Q 848.99 672.33 853.36 670.58
  Q 862.34 666.98 867.50 659.20
  Q 872.62 651.56 872.62 643.00
  Q 872.58 357.94 872.58 72.87
  Q 872.58 66.13 871.82 62.68
  Q 870.72 57.64 868.24 53.01
  Q 867.94 52.43 867.29 52.20
  Q 867.29 51.00 866.67 50.33
  Q 863.64 47.05 858.90 43.88
  Q 851.27 38.80 842.00 38.79
  Q 707.82 38.73 569.50 38.76
  Q 324.15 38.81 87.25 38.88
  Q 74.07 38.89 64.97 47.97
  Q 63.42 49.52 62.61 51.59
  Z"
/>
<path fill="#9e9e9e" d="
  M 1086.76 679.77
  A 0.27 0.27 0.0 0 1 1086.49 680.04
  L 894.73 680.04
  A 0.27 0.27 0.0 0 1 894.46 679.77
  L 894.46 31.77
  A 0.27 0.27 0.0 0 1 894.73 31.50
  L 1086.49 31.50
  A 0.27 0.27 0.0 0 1 1086.76 31.77
  L 1086.76 679.77
  Z
  M 905.77 349.69
  A 0.55 0.55 0.0 0 0 906.32 350.24
  L 1074.94 350.21
  A 0.55 0.55 0.0 0 0 1075.49 349.66
  L 1075.50 56.05
  A 0.55 0.55 0.0 0 0 1074.95 55.50
  L 906.30 55.52
  A 0.55 0.55 0.0 0 0 905.75 56.07
  L 905.77 349.69
  Z
  M 1050.38 430.88
  A 59.71 59.71 0.0 0 0 990.67 371.17
  A 59.71 59.71 0.0 0 0 930.96 430.88
  A 59.71 59.71 0.0 0 0 990.67 490.59
  A 59.71 59.71 0.0 0 0 1050.38 430.88
  Z
  M 1050.36 571.04
  A 59.72 59.72 0.0 0 0 990.64 511.32
  A 59.72 59.72 0.0 0 0 930.92 571.04
  A 59.72 59.72 0.0 0 0 990.64 630.76
  A 59.72 59.72 0.0 0 0 1050.36 571.04
  Z
  M 1064.74 646.15
  A 9.70 9.70 0.0 0 0 1055.04 636.45
  L 926.48 636.45
  A 9.70 9.70 0.0 0 0 916.78 646.15
  L 916.78 664.03
  A 9.70 9.70 0.0 0 0 926.48 673.73
  L 1055.04 673.73
  A 9.70 9.70 0.0 0 0 1064.74 664.03
  L 1064.74 646.15
  Z"
/>
<path fill="#777978" d="
  M 867.29 52.20
  Q 865.99 53.82 864.54 55.28
  Q 845.74 74.20 826.80 92.98
  Q 826.78 93.00 822.61 97.44
  Q 819.50 100.75 815.96 103.09
  L 810.84 99.84
  Q 803.68 95.70 795.30 94.71
  Q 789.52 94.02 783.58 93.12
  Q 776.67 92.06 771.87 91.53
  Q 760.16 90.22 748.83 88.84
  Q 746.80 88.59 744.68 88.24
  Q 743.00 87.97 741.03 87.81
  Q 731.21 87.04 721.41 85.87
  Q 718.31 85.50 715.03 85.38
  C 711.79 85.27 708.24 85.53 705.14 84.72
  Q 703.59 84.31 701.72 83.77
  L 677.21 81.96
  Q 670.00 81.26 662.76 80.79
  Q 660.51 80.64 658.25 80.47
  Q 634.11 78.66 609.25 77.62
  C 598.09 77.15 587.25 76.25 576.25 76.01
  C 573.13 75.95 570.18 76.18 566.93 75.94
  Q 560.37 75.44 553.47 75.34
  Q 543.32 75.19 539.99 75.06
  Q 528.31 74.60 516.43 74.59
  Q 515.21 74.59 514.10 74.32
  C 512.22 73.87 510.17 74.47 508.25 74.43
  Q 488.15 74.01 459.75 74.45
  Q 456.58 74.50 454.77 75.00
  L 420.36 75.57
  Q 408.43 75.45 381.00 76.41
  Q 373.22 76.69 367.59 76.96
  Q 360.86 77.28 354.16 77.55
  Q 338.61 78.18 319.37 79.26
  Q 314.37 79.53 307.83 79.57
  C 305.35 79.58 302.93 80.45 300.39 80.58
  Q 283.72 81.43 266.26 82.69
  Q 264.75 82.79 263.24 82.92
  Q 251.78 83.90 240.29 84.37
  Q 232.97 83.91 225.80 85.20
  Q 224.33 85.46 220.12 85.86
  Q 219.59 85.91 217.54 86.50
  Q 180.67 89.62 143.93 94.02
  Q 130.50 95.63 129.81 95.76
  Q 122.76 97.16 116.30 100.56
  Q 116.07 100.67 116.04 100.94
  L 114.17 101.84
  Q 112.91 102.02 111.82 100.93
  Q 87.27 76.27 62.61 51.59
  Q 63.42 49.52 64.97 47.97
  Q 74.07 38.89 87.25 38.88
  Q 324.15 38.81 569.50 38.76
  Q 707.82 38.73 842.00 38.79
  Q 851.27 38.80 858.90 43.88
  Q 863.64 47.05 866.67 50.33
  Q 867.29 51.00 867.29 52.20
  Z"
/>
<path fill="#9e9e9e" d="
  M 62.61 51.59
  Q 87.27 76.27 111.82 100.93
  Q 112.91 102.02 114.17 101.84
  Q 112.47 102.85 111.33 104.28
  Q 106.39 108.41 104.61 110.95
  Q 102.99 113.28 98.68 122.22
  L 97.98 125.19
  Q 97.04 125.69 96.90 127.13
  Q 96.07 136.08 95.38 145.74
  Q 95.34 146.28 95.18 146.80
  Q 95.07 147.13 95.38 147.28
  Q 95.52 147.34 95.68 147.30
  L 95.34 148.97
  Q 95.30 148.12 95.26 148.07
  Q 94.41 146.82 94.40 148.34
  Q 94.38 153.38 94.55 157.61
  Q 94.60 159.11 93.69 160.35
  Q 93.37 160.77 93.40 161.31
  Q 93.82 168.07 92.99 174.31
  Q 92.48 178.14 92.44 182.57
  Q 92.40 186.32 91.91 190.14
  Q 91.55 192.91 91.48 197.31
  Q 91.43 200.43 90.99 204.48
  Q 90.18 211.71 91.06 219.20
  Q 89.73 220.94 90.29 225.65
  Q 89.48 228.09 90.00 231.03
  Q 90.55 234.14 90.30 235.82
  C 89.80 239.22 89.28 242.71 89.39 246.17
  Q 89.66 254.78 89.26 267.74
  Q 88.78 283.51 89.05 312.71
  Q 89.05 313.59 88.59 317.74
  Q 88.29 320.48 89.05 322.86
  Q 88.96 347.33 89.00 372.00
  Q 89.01 376.79 89.99 385.27
  Q 89.45 388.87 89.73 392.50
  Q 90.27 399.46 90.27 399.53
  Q 90.60 413.90 90.82 428.75
  Q 90.97 438.61 91.56 448.74
  Q 92.40 463.40 92.90 477.37
  C 93.21 486.18 92.91 495.49 93.07 504.84
  Q 93.10 507.03 93.88 509.37
  Q 94.67 511.78 94.79 514.28
  Q 95.19 522.92 95.03 531.38
  Q 94.98 533.91 95.51 537.38
  Q 96.00 540.57 95.98 544.46
  C 95.95 550.61 96.35 556.48 96.59 562.50
  Q 96.63 563.39 97.06 565.51
  Q 97.36 567.01 97.39 568.52
  Q 97.51 575.29 98.64 582.24
  Q 99.04 581.92 99.16 583.98
  Q 99.12 583.97 99.00 584.18
  Q 98.94 584.28 98.99 584.39
  Q 99.61 585.50 100.37 589.09
  Q 102.84 600.74 112.69 608.99
  Q 108.26 614.29 105.78 616.78
  Q 84.96 637.59 64.26 658.52
  Q 63.57 659.22 62.89 659.99
  Q 62.34 660.09 61.96 659.53
  C 55.01 649.50 56.72 639.14 56.72 627.74
  Q 56.63 400.12 56.48 172.50
  Q 56.44 119.62 56.96 66.75
  Q 57.02 60.70 60.25 54.02
  Q 61.17 52.12 62.61 51.59
  Z"
/>
<path fill="#9e9e9e" d="
  M 867.29 52.20
  Q 867.94 52.43 868.24 53.01
  Q 870.72 57.64 871.82 62.68
  Q 872.58 66.13 872.58 72.87
  Q 872.58 357.94 872.62 643.00
  Q 872.62 651.56 867.50 659.20
  L 818.65 610.50
  Q 829.32 601.50 831.21 589.50
  C 832.25 582.90 833.62 576.14 833.54 569.59
  Q 833.41 559.43 834.88 551.41
  Q 835.81 546.33 835.92 540.67
  Q 836.15 528.73 837.21 516.95
  Q 838.03 507.81 838.08 498.89
  Q 838.20 480.50 839.52 465.08
  Q 840.33 455.64 840.34 445.87
  Q 840.35 431.15 840.81 415.87
  Q 841.80 383.53 841.73 341.76
  Q 841.71 332.22 841.38 321.73
  Q 840.28 285.92 840.25 251.66
  Q 840.25 248.54 839.95 245.48
  C 838.73 232.79 838.76 219.95 838.10 207.25
  C 837.88 203.12 838.19 199.19 837.61 195.11
  Q 836.08 184.37 835.88 174.11
  Q 835.78 169.25 834.94 164.39
  C 833.78 157.70 833.47 151.01 833.57 144.17
  C 833.66 137.95 831.95 132.78 831.44 126.78
  Q 831.15 123.39 829.64 119.77
  Q 825.24 109.23 815.96 103.09
  Q 819.50 100.75 822.61 97.44
  Q 826.78 93.00 826.80 92.98
  Q 845.74 74.20 864.54 55.28
  Q 865.99 53.82 867.29 52.20
  Z"
/>
<path fill="#393938" d="
  M 905.77 349.69
  L 905.75 56.07
  A 0.55 0.55 0.0 0 1 906.30 55.52
  L 1074.95 55.50
  A 0.55 0.55 0.0 0 1 1075.50 56.05
  L 1075.49 349.66
  A 0.55 0.55 0.0 0 1 1074.94 350.21
  L 906.32 350.24
  A 0.55 0.55 0.0 0 1 905.77 349.69
  Z
  M 943.40 82.72
  Q 940.12 85.69 936.63 88.11
  C 935.44 88.94 935.02 90.12 934.23 91.26
  C 932.40 93.92 929.66 95.56 928.22 98.51
  Q 927.02 100.97 925.25 103.05
  C 923.25 105.40 922.55 108.39 920.97 111.00
  C 919.67 113.17 919.32 115.73 918.24 118.02
  C 916.81 121.02 916.57 123.94 915.54 127.00
  C 914.57 129.88 914.83 132.85 914.14 135.78
  Q 913.64 137.93 913.57 140.40
  Q 913.33 149.23 914.82 157.90
  Q 915.01 159.03 916.05 162.52
  Q 916.74 164.83 916.97 167.25
  Q 917.10 168.64 918.79 171.34
  C 919.80 172.96 919.72 175.00 920.79 176.63
  Q 922.35 178.99 923.30 181.65
  C 924.57 185.20 927.19 188.02 929.32 191.07
  Q 930.45 192.68 932.64 194.94
  Q 934.25 196.60 936.12 198.69
  Q 938.81 201.71 947.27 207.94
  Q 950.53 210.34 956.57 213.36
  Q 961.63 215.88 966.60 217.32
  Q 973.72 219.39 978.09 220.20
  Q 988.35 222.11 1000.87 220.72
  C 1006.32 220.12 1012.08 218.18 1017.57 216.67
  C 1019.87 216.04 1021.71 214.89 1023.88 214.07
  Q 1026.27 213.17 1028.46 211.83
  Q 1032.54 209.32 1036.50 206.65
  Q 1041.06 203.58 1043.88 200.58
  Q 1047.12 197.13 1050.52 193.63
  C 1051.76 192.35 1052.21 190.83 1053.47 189.64
  Q 1054.72 188.47 1055.46 186.87
  C 1056.65 184.31 1058.37 182.20 1059.56 179.64
  Q 1061.21 176.12 1062.78 172.68
  Q 1064.87 168.11 1066.27 160.03
  Q 1066.44 159.08 1067.03 158.24
  Q 1067.35 157.79 1067.31 157.25
  Q 1067.12 154.51 1067.85 151.87
  C 1068.70 148.80 1067.89 145.63 1068.23 142.41
  Q 1068.62 138.67 1067.47 134.52
  C 1066.94 132.61 1067.65 130.97 1066.67 129.11
  C 1066.07 127.98 1066.36 126.88 1066.05 125.70
  C 1061.35 107.59 1052.28 93.14 1036.93 81.44
  C 1033.48 78.81 1029.68 77.27 1026.10 75.08
  C 1019.37 70.95 1010.88 68.93 1003.00 67.71
  Q 999.91 67.23 996.97 66.71
  Q 992.57 65.94 986.59 66.41
  C 983.91 66.62 981.35 67.34 978.67 67.71
  Q 975.82 68.09 972.86 68.85
  Q 967.16 70.31 961.11 72.08
  Q 958.48 72.86 956.31 74.40
  Q 951.00 78.19 944.79 81.15
  Q 944.19 81.44 943.90 82.04
  Q 943.72 82.43 943.40 82.72
  Z
  M 1002.71 330.51
  C 1007.34 329.34 1011.74 327.30 1016.13 326.19
  Q 1016.59 326.07 1016.90 325.71
  Q 1018.10 324.28 1019.48 323.54
  Q 1021.03 322.71 1022.07 321.64
  Q 1023.54 320.13 1025.28 319.11
  C 1027.98 317.54 1029.75 314.35 1031.84 312.03
  Q 1033.82 309.84 1035.00 307.77
  C 1037.77 302.91 1040.07 298.20 1040.95 292.84
  Q 1041.50 289.52 1042.21 286.23
  C 1042.99 282.63 1042.75 278.98 1042.76 275.38
  C 1042.76 273.96 1042.06 272.75 1042.02 271.32
  Q 1041.98 269.69 1041.51 268.26
  C 1040.29 264.57 1039.50 261.09 1037.69 257.50
  Q 1034.57 251.31 1029.88 245.65
  C 1028.98 244.56 1027.92 244.08 1026.79 243.29
  Q 1025.83 242.61 1024.62 241.28
  Q 1022.27 238.67 1019.14 236.89
  Q 1013.33 233.56 1006.44 230.72
  Q 1002.87 229.25 999.03 229.00
  Q 989.82 228.42 980.24 229.37
  C 975.58 229.83 971.47 232.29 967.49 234.54
  C 965.16 235.86 962.71 236.55 960.31 237.60
  Q 959.83 237.81 959.59 238.26
  C 957.59 241.94 955.07 243.73 951.82 245.94
  Q 951.34 246.27 951.13 246.80
  Q 949.62 250.43 946.51 252.88
  Q 946.08 253.23 945.89 253.75
  Q 944.56 257.45 942.28 260.71
  Q 941.95 261.18 941.89 261.74
  Q 941.49 265.56 939.93 269.03
  Q 939.71 269.51 939.81 270.03
  C 940.41 273.10 939.65 274.18 938.54 276.90
  Q 938.30 277.49 938.51 278.09
  Q 939.62 281.24 938.61 284.96
  Q 938.47 285.47 938.70 285.95
  Q 940.27 289.22 940.10 292.59
  Q 940.07 293.15 940.35 293.64
  C 941.34 295.35 942.33 297.25 942.78 299.15
  Q 943.67 302.97 946.34 306.29
  Q 946.76 306.82 946.75 307.49
  Q 946.73 309.52 948.57 310.83
  Q 952.33 313.53 953.80 317.04
  Q 954.07 317.70 954.70 318.04
  Q 959.19 320.48 963.31 324.58
  Q 964.19 325.46 965.36 325.86
  C 969.91 327.40 974.50 329.09 979.22 330.39
  Q 990.67 333.57 1002.71 330.51
  Z"
/>
<path fill="#2a2a2a" d="
  M 943.40 82.72
  Q 943.72 82.43 943.90 82.04
  Q 944.19 81.44 944.79 81.15
  Q 951.00 78.19 956.31 74.40
  Q 958.48 72.86 961.11 72.08
  Q 967.16 70.31 972.86 68.85
  Q 975.82 68.09 978.67 67.71
  C 981.35 67.34 983.91 66.62 986.59 66.41
  Q 992.57 65.94 996.97 66.71
  Q 999.91 67.23 1003.00 67.71
  C 1010.88 68.93 1019.37 70.95 1026.10 75.08
  C 1029.68 77.27 1033.48 78.81 1036.93 81.44
  C 1052.28 93.14 1061.35 107.59 1066.05 125.70
  C 1066.36 126.88 1066.07 127.98 1066.67 129.11
  C 1067.65 130.97 1066.94 132.61 1067.47 134.52
  Q 1068.62 138.67 1068.23 142.41
  C 1067.89 145.63 1068.70 148.80 1067.85 151.87
  Q 1067.12 154.51 1067.31 157.25
  Q 1067.35 157.79 1067.03 158.24
  Q 1066.44 159.08 1066.27 160.03
  Q 1064.87 168.11 1062.78 172.68
  Q 1061.21 176.12 1059.56 179.64
  C 1058.37 182.20 1056.65 184.31 1055.46 186.87
  Q 1054.72 188.47 1053.47 189.64
  C 1052.21 190.83 1051.76 192.35 1050.52 193.63
  Q 1047.12 197.13 1043.88 200.58
  Q 1041.06 203.58 1036.50 206.65
  Q 1032.54 209.32 1028.46 211.83
  Q 1026.27 213.17 1023.88 214.07
  C 1021.71 214.89 1019.87 216.04 1017.57 216.67
  C 1012.08 218.18 1006.32 220.12 1000.87 220.72
  Q 988.35 222.11 978.09 220.20
  Q 973.72 219.39 966.60 217.32
  Q 961.63 215.88 956.57 213.36
  Q 950.53 210.34 947.27 207.94
  Q 938.81 201.71 936.12 198.69
  Q 934.25 196.60 932.64 194.94
  Q 930.45 192.68 929.32 191.07
  C 927.19 188.02 924.57 185.20 923.30 181.65
  Q 922.35 178.99 920.79 176.63
  C 919.72 175.00 919.80 172.96 918.79 171.34
  Q 917.10 168.64 916.97 167.25
  Q 916.74 164.83 916.05 162.52
  Q 915.01 159.03 914.82 157.90
  Q 913.33 149.23 913.57 140.40
  Q 913.64 137.93 914.14 135.78
  C 914.83 132.85 914.57 129.88 915.54 127.00
  C 916.57 123.94 916.81 121.02 918.24 118.02
  C 919.32 115.73 919.67 113.17 920.97 111.00
  C 922.55 108.39 923.25 105.40 925.25 103.05
  Q 927.02 100.97 928.22 98.51
  C 929.66 95.56 932.40 93.92 934.23 91.26
  C 935.02 90.12 935.44 88.94 936.63 88.11
  Q 940.12 85.69 943.40 82.72
  Z"
/>
<path fill="#b8b8b8" d="
  M 677.21 81.96
  Q 673.73 82.02 670.24 82.08
  Q 666.67 82.13 663.32 81.91
  Q 645.42 80.71 627.61 80.38
  Q 627.15 80.37 627.11 79.91
  Q 627.10 79.75 627.04 79.61
  Q 626.77 79.03 626.13 79.02
  Q 619.43 78.92 613.10 79.01
  Q 606.76 79.10 600.36 78.81
  C 587.01 78.23 573.68 77.97 560.10 77.02
  Q 550.80 76.36 541.24 75.82
  Q 528.22 75.07 513.16 75.00
  A 0.41 0.41 0.0 0 0 512.75 75.45
  Q 512.83 76.26 512.60 77.02
  Q 512.35 77.84 512.24 76.99
  L 512.10 75.88
  Q 512.01 75.21 511.34 75.21
  L 454.77 75.00
  Q 456.58 74.50 459.75 74.45
  Q 488.15 74.01 508.25 74.43
  C 510.17 74.47 512.22 73.87 514.10 74.32
  Q 515.21 74.59 516.43 74.59
  Q 528.31 74.60 539.99 75.06
  Q 543.32 75.19 553.47 75.34
  Q 560.37 75.44 566.93 75.94
  C 570.18 76.18 573.13 75.95 576.25 76.01
  C 587.25 76.25 598.09 77.15 609.25 77.62
  Q 634.11 78.66 658.25 80.47
  Q 660.51 80.64 662.76 80.79
  Q 670.00 81.26 677.21 81.96
  Z"
/>
<path fill="#b8b8b8" d="
  M 420.36 75.57
  Q 411.33 77.10 405.25 77.01
  Q 381.84 76.66 369.71 77.64
  Q 356.03 78.76 350.27 78.84
  Q 348.84 78.87 347.47 79.28
  Q 345.53 79.86 343.57 79.36
  Q 341.45 78.81 339.11 79.01
  Q 330.52 79.75 321.68 80.52
  C 319.76 80.69 318.10 79.94 316.17 80.03
  Q 311.55 80.22 306.67 80.03
  Q 305.22 79.98 304.70 81.27
  Q 304.49 81.78 303.94 81.86
  Q 291.43 83.46 278.37 83.00
  Q 271.95 82.78 261.50 84.29
  Q 256.98 84.95 241.21 85.21
  Q 238.21 84.90 240.29 84.37
  Q 251.78 83.90 263.24 82.92
  Q 264.75 82.79 266.26 82.69
  Q 283.72 81.43 300.39 80.58
  C 302.93 80.45 305.35 79.58 307.83 79.57
  Q 314.37 79.53 319.37 79.26
  Q 338.61 78.18 354.16 77.55
  Q 360.86 77.28 367.59 76.96
  Q 373.22 76.69 381.00 76.41
  Q 408.43 75.45 420.36 75.57
  Z"
/>
<path fill="#9e9e9e" d="
  M 240.29 84.37
  Q 238.21 84.90 241.21 85.21
  Q 229.72 85.09 218.29 86.80
  Q 218.42 86.35 217.54 86.50
  Q 219.59 85.91 220.12 85.86
  Q 224.33 85.46 225.80 85.20
  Q 232.97 83.91 240.29 84.37
  Z"
/>
<path fill="#b8b8b8" d="
  M 701.72 83.77
  Q 703.59 84.31 705.14 84.72
  C 708.24 85.53 711.79 85.27 715.03 85.38
  Q 718.31 85.50 721.41 85.87
  Q 731.21 87.04 741.03 87.81
  Q 743.00 87.97 744.68 88.24
  Q 746.80 88.59 748.83 88.84
  Q 760.16 90.22 771.87 91.53
  Q 776.67 92.06 783.58 93.12
  Q 789.52 94.02 795.30 94.71
  Q 803.68 95.70 810.84 99.84
  Q 807.92 98.80 805.20 97.87
  Q 802.37 96.90 799.69 96.34
  Q 788.14 93.91 777.50 93.78
  Q 772.35 93.72 767.16 92.95
  Q 761.81 92.15 756.50 91.20
  C 753.09 90.59 749.47 90.85 745.93 90.00
  C 742.63 89.20 739.06 89.45 735.65 88.94
  Q 728.16 87.82 720.97 87.42
  Q 720.43 87.39 720.07 86.98
  L 719.83 86.70
  A 1.03 0.99 -15.9 0 0 719.19 86.36
  Q 716.02 85.96 711.01 86.84
  Q 705.97 87.74 701.72 83.77
  Z"
/>
<path fill="#b8b8b8" d="
  M 217.54 86.50
  Q 218.42 86.35 218.29 86.80
  Q 206.81 88.70 195.24 90.02
  Q 191.57 90.43 188.57 90.24
  Q 185.06 90.02 181.70 90.74
  Q 175.48 92.09 170.47 92.53
  Q 141.55 95.07 132.00 97.22
  Q 123.99 99.03 116.04 100.94
  Q 116.07 100.67 116.30 100.56
  Q 122.76 97.16 129.81 95.76
  Q 130.50 95.63 143.93 94.02
  Q 180.67 89.62 217.54 86.50
  Z"
/>
<path fill="#b8b8b8" d="
  M 111.33 104.28
  L 98.68 122.22
  Q 102.99 113.28 104.61 110.95
  Q 106.39 108.41 111.33 104.28
  Z"
/>
<path fill="#b8b8b8" d="
  M 97.98 125.19
  C 97.57 128.59 97.03 131.84 96.97 135.28
  Q 96.86 141.77 96.40 146.63
  Q 96.34 147.25 95.68 147.30
  Q 95.52 147.34 95.38 147.28
  Q 95.07 147.13 95.18 146.80
  Q 95.34 146.28 95.38 145.74
  Q 96.07 136.08 96.90 127.13
  Q 97.04 125.69 97.98 125.19
  Z"
/>
<path fill="#b8b8b8" d="
  M 95.34 148.97
  Q 95.06 152.19 95.75 156.49
  Q 96.10 158.67 94.79 160.61
  Q 94.51 161.03 94.49 161.52
  Q 93.58 184.94 91.30 208.25
  Q 91.14 209.86 91.29 213.26
  Q 91.31 213.77 91.62 214.14
  Q 91.70 214.24 91.84 214.25
  Q 92.54 214.32 92.23 214.97
  Q 91.78 215.94 91.79 216.48
  Q 91.86 219.12 91.06 219.20
  Q 90.18 211.71 90.99 204.48
  Q 91.43 200.43 91.48 197.31
  Q 91.55 192.91 91.91 190.14
  Q 92.40 186.32 92.44 182.57
  Q 92.48 178.14 92.99 174.31
  Q 93.82 168.07 93.40 161.31
  Q 93.37 160.77 93.69 160.35
  Q 94.60 159.11 94.55 157.61
  Q 94.38 153.38 94.40 148.34
  Q 94.41 146.82 95.26 148.07
  Q 95.30 148.12 95.34 148.97
  Z"
/>
<path fill="#b8b8b8" d="
  M 90.29 225.65
  Q 91.48 233.05 91.21 235.00
  Q 89.56 247.01 90.43 259.07
  C 90.60 261.45 90.00 263.43 90.00 265.71
  Q 90.03 288.58 89.96 312.75
  Q 89.95 315.65 89.05 322.86
  Q 88.29 320.48 88.59 317.74
  Q 89.05 313.59 89.05 312.71
  Q 88.78 283.51 89.26 267.74
  Q 89.66 254.78 89.39 246.17
  C 89.28 242.71 89.80 239.22 90.30 235.82
  Q 90.55 234.14 90.00 231.03
  Q 89.48 228.09 90.29 225.65
  Z"
/>
<path fill="#2a2a2a" d="
  M 1002.71 330.51
  Q 990.67 333.57 979.22 330.39
  C 974.50 329.09 969.91 327.40 965.36 325.86
  Q 964.19 325.46 963.31 324.58
  Q 959.19 320.48 954.70 318.04
  Q 954.07 317.70 953.80 317.04
  Q 952.33 313.53 948.57 310.83
  Q 946.73 309.52 946.75 307.49
  Q 946.76 306.82 946.34 306.29
  Q 943.67 302.97 942.78 299.15
  C 942.33 297.25 941.34 295.35 940.35 293.64
  Q 940.07 293.15 940.10 292.59
  Q 940.27 289.22 938.70 285.95
  Q 938.47 285.47 938.61 284.96
  Q 939.62 281.24 938.51 278.09
  Q 938.30 277.49 938.54 276.90
  C 939.65 274.18 940.41 273.10 939.81 270.03
  Q 939.71 269.51 939.93 269.03
  Q 941.49 265.56 941.89 261.74
  Q 941.95 261.18 942.28 260.71
  Q 944.56 257.45 945.89 253.75
  Q 946.08 253.23 946.51 252.88
  Q 949.62 250.43 951.13 246.80
  Q 951.34 246.27 951.82 245.94
  C 955.07 243.73 957.59 241.94 959.59 238.26
  Q 959.83 237.81 960.31 237.60
  C 962.71 236.55 965.16 235.86 967.49 234.54
  C 971.47 232.29 975.58 229.83 980.24 229.37
  Q 989.82 228.42 999.03 229.00
  Q 1002.87 229.25 1006.44 230.72
  Q 1013.33 233.56 1019.14 236.89
  Q 1022.27 238.67 1024.62 241.28
  Q 1025.83 242.61 1026.79 243.29
  C 1027.92 244.08 1028.98 244.56 1029.88 245.65
  Q 1034.57 251.31 1037.69 257.50
  C 1039.50 261.09 1040.29 264.57 1041.51 268.26
  Q 1041.98 269.69 1042.02 271.32
  C 1042.06 272.75 1042.76 273.96 1042.76 275.38
  C 1042.75 278.98 1042.99 282.63 1042.21 286.23
  Q 1041.50 289.52 1040.95 292.84
  C 1040.07 298.20 1037.77 302.91 1035.00 307.77
  Q 1033.82 309.84 1031.84 312.03
  C 1029.75 314.35 1027.98 317.54 1025.28 319.11
  Q 1023.54 320.13 1022.07 321.64
  Q 1021.03 322.71 1019.48 323.54
  Q 1018.10 324.28 1016.90 325.71
  Q 1016.59 326.07 1016.13 326.19
  C 1011.74 327.30 1007.34 329.34 1002.71 330.51
  Z"
/>
<path fill="#777978" d="
  M 1050.38 430.88
  A 59.71 59.71 0.0 0 1 990.67 490.59
  A 59.71 59.71 0.0 0 1 930.96 430.88
  A 59.71 59.71 0.0 0 1 990.67 371.17
  A 59.71 59.71 0.0 0 1 1050.38 430.88
  Z
  M 1046.66 430.86
  A 56.00 56.00 0.0 0 0 990.66 374.86
  A 56.00 56.00 0.0 0 0 934.66 430.86
  A 56.00 56.00 0.0 0 0 990.66 486.86
  A 56.00 56.00 0.0 0 0 1046.66 430.86
  Z"
/>
<path fill="#505251" d="
  M 1046.66 430.86
  A 56.00 56.00 0.0 0 1 990.66 486.86
  A 56.00 56.00 0.0 0 1 934.66 430.86
  A 56.00 56.00 0.0 0 1 990.66 374.86
  A 56.00 56.00 0.0 0 1 1046.66 430.86
  Z
  M 992.2608 378.5314
  A 0.82 0.82 0.0 0 0 991.4365 377.7157
  L 989.7765 377.7244
  A 0.82 0.82 0.0 0 0 988.9608 378.5487
  L 988.9992 385.8886
  A 0.82 0.82 0.0 0 0 989.8235 386.7043
  L 991.4835 386.6956
  A 0.82 0.82 0.0 0 0 992.2992 385.8713
  L 992.2608 378.5314
  Z
  M 965.9299 384.9098
  A 0.93 0.93 0.0 0 0 964.6613 384.5628
  L 963.5495 385.1969
  A 0.93 0.93 0.0 0 0 963.2024 386.4655
  L 966.7301 392.6502
  A 0.93 0.93 0.0 0 0 967.9987 392.9972
  L 969.1105 392.3631
  A 0.93 0.93 0.0 0 0 969.4576 391.0945
  L 965.9299 384.9098
  Z
  M 1018.1156 385.8477
  A 1.63 0.86 13.4 0 0 1016.7293 384.6334
  A 1.63 0.86 13.4 0 0 1014.9444 385.0923
  A 1.63 0.86 13.4 0 0 1016.3307 386.3066
  A 1.63 0.86 13.4 0 0 1018.1156 385.8477
  Z
  M 976.29 467.81
  C 1012.37 480.76 1043.53 443.12 1024.30 410.01
  Q 1025.50 406.47 1030.05 401.97
  Q 1030.41 401.61 1030.52 401.11
  C 1031.21 397.85 1028.02 393.96 1026.23 391.25
  Q 1025.88 390.70 1025.95 391.35
  Q 1026.28 394.30 1024.93 396.20
  C 1022.32 399.88 1019.07 403.07 1016.29 406.54
  Q 1008.65 416.07 1001.57 424.79
  Q 993.91 434.23 985.85 443.82
  C 980.87 449.77 977.08 454.97 971.18 461.62
  C 967.65 465.60 964.62 469.78 961.21 473.92
  Q 960.35 474.95 960.31 476.28
  Q 960.30 476.80 960.69 477.15
  Q 963.06 479.31 964.28 479.37
  Q 966.13 479.46 966.96 478.44
  Q 971.64 472.73 976.29 467.81
  Z
  M 963.02 445.47
  L 999.36 401.20
  L 1004.89 394.57
  A 0.49 0.49 0.0 0 0 1004.67 393.80
  Q 989.64 388.61 975.71 394.23
  C 953.00 403.39 944.27 430.81 956.90 451.59
  Q 957.36 452.33 957.92 451.66
  L 963.02 445.47
  Z
  M 952.7173 408.4994
  A 1.14 1.14 0.0 0 0 952.3055 406.9407
  L 946.3939 403.5000
  A 1.14 1.14 0.0 0 0 944.8351 403.9119
  L 944.4227 404.6206
  A 1.14 1.14 0.0 0 0 944.8345 406.1793
  L 950.7461 409.6200
  A 1.14 1.14 0.0 0 0 952.3049 409.2081
  L 952.7173 408.4994
  Z
  M 1036.5141 403.8465
  A 1.13 1.13 0.0 0 0 1034.9676 403.4437
  L 1029.0335 406.9252
  A 1.13 1.13 0.0 0 0 1028.6307 408.4717
  L 1029.0659 409.2135
  A 1.13 1.13 0.0 0 0 1030.6124 409.6163
  L 1036.5465 406.1348
  A 1.13 1.13 0.0 0 0 1036.9493 404.5883
  L 1036.5141 403.8465
  Z
  M 946.5191 430.3221
  A 1.06 1.06 0.0 0 0 945.4573 429.2640
  L 938.5773 429.2760
  A 1.06 1.06 0.0 0 0 937.5191 430.3379
  L 937.5209 431.3379
  A 1.06 1.06 0.0 0 0 938.5827 432.3960
  L 945.4627 432.3840
  A 1.06 1.06 0.0 0 0 946.5209 431.3221
  L 946.5191 430.3221
  Z
  M 1043.7262 430.1066
  A 0.83 0.83 0.0 0 0 1042.8918 429.2810
  L 1035.6119 429.3191
  A 0.83 0.83 0.0 0 0 1034.7863 430.1534
  L 1034.7938 431.5934
  A 0.83 0.83 0.0 0 0 1035.6282 432.4190
  L 1042.9081 432.3809
  A 0.83 0.83 0.0 0 0 1043.7337 431.5466
  L 1043.7262 430.1066
  Z
  M 1036.9608 457.0994
  A 1.12 1.12 0.0 0 0 1036.5615 455.5666
  L 1030.6274 452.0851
  A 1.12 1.12 0.0 0 0 1029.0947 452.4844
  L 1028.6392 453.2606
  A 1.12 1.12 0.0 0 0 1029.0385 454.7934
  L 1034.9726 458.2749
  A 1.12 1.12 0.0 0 0 1036.5053 457.8756
  L 1036.9608 457.0994
  Z
  M 952.4263 452.6915
  A 1.28 1.28 0.0 0 0 950.6828 452.2047
  L 944.9154 455.4545
  A 1.28 1.28 0.0 0 0 944.4286 457.1980
  L 944.6937 457.6685
  A 1.28 1.28 0.0 0 0 946.4372 458.1553
  L 952.2046 454.9055
  A 1.28 1.28 0.0 0 0 952.6914 453.1620
  L 952.4263 452.6915
  Z
  M 1014.5169 469.0351
  A 0.94 0.94 0.0 0 0 1013.2317 468.6956
  L 1012.0908 469.3595
  A 0.94 0.94 0.0 0 0 1011.7513 470.6448
  L 1015.3831 476.8849
  A 0.94 0.94 0.0 0 0 1016.6683 477.2244
  L 1017.8092 476.5605
  A 0.94 0.94 0.0 0 0 1018.1487 475.2752
  L 1014.5169 469.0351
  Z
  M 992.2453 475.9487
  A 1.01 1.01 0.0 0 0 991.2283 474.9458
  L 989.9883 474.9544
  A 1.01 1.01 0.0 0 0 988.9854 475.9715
  L 989.0347 483.0313
  A 1.01 1.01 0.0 0 0 990.0517 484.0342
  L 991.2917 484.0256
  A 1.01 1.01 0.0 0 0 992.2946 483.0085
  L 992.2453 475.9487
  Z"
/>
<rect fill="#b8b8b8" x="-1.65" y="-4.49" transform="translate(990.63,382.21) rotate(-0.3)" width="3.30" height="8.98" rx="0.82"/>
<rect fill="#b8b8b8" x="-1.57" y="-4.49" transform="translate(966.33,388.78) rotate(-29.7)" width="3.14" height="8.98" rx="0.93"/>
<ellipse fill="#b8b8b8" cx="0.00" cy="0.00" transform="translate(1016.53,385.47) rotate(13.4)" rx="1.63" ry="0.86"/>
<path fill="#b8b8b8" d="
  M 89.99 385.27
  Q 91.75 398.66 91.92 404.50
  C 92.29 417.53 91.43 435.67 92.65 450.98
  Q 93.44 460.90 93.92 471.76
  Q 94.12 476.15 93.93 480.55
  Q 93.91 481.15 94.51 481.21
  Q 94.77 481.24 95.01 481.28
  Q 95.40 481.35 95.73 481.52
  Q 95.83 481.57 95.93 481.58
  Q 96.36 481.62 95.93 481.69
  Q 95.28 481.79 94.63 481.82
  Q 94.04 481.84 94.03 482.42
  Q 93.73 494.83 94.49 506.88
  Q 94.52 507.36 94.89 507.68
  Q 95.67 508.36 95.71 509.40
  Q 96.20 522.58 95.94 535.51
  Q 95.93 536.06 96.47 536.22
  Q 96.80 536.31 97.13 536.28
  Q 97.99 536.19 97.31 536.72
  Q 96.69 537.19 96.71 538.00
  Q 97.16 557.96 99.06 577.99
  Q 99.26 580.06 98.64 582.24
  Q 97.51 575.29 97.39 568.52
  Q 97.36 567.01 97.06 565.51
  Q 96.63 563.39 96.59 562.50
  C 96.35 556.48 95.95 550.61 95.98 544.46
  Q 96.00 540.57 95.51 537.38
  Q 94.98 533.91 95.03 531.38
  Q 95.19 522.92 94.79 514.28
  Q 94.67 511.78 93.88 509.37
  Q 93.10 507.03 93.07 504.84
  C 92.91 495.49 93.21 486.18 92.90 477.37
  Q 92.40 463.40 91.56 448.74
  Q 90.97 438.61 90.82 428.75
  Q 90.60 413.90 90.27 399.53
  Q 90.27 399.46 89.73 392.50
  Q 89.45 388.87 89.99 385.27
  Z"
/>
<path fill="#777978" d="
  M 1024.30 410.01
  Q 1021.18 411.84 1018.48 416.10
  L 982.13 460.36
  L 976.29 467.81
  Q 971.64 472.73 966.96 478.44
  Q 966.13 479.46 964.28 479.37
  Q 963.06 479.31 960.69 477.15
  Q 960.30 476.80 960.31 476.28
  Q 960.35 474.95 961.21 473.92
  C 964.62 469.78 967.65 465.60 971.18 461.62
  C 977.08 454.97 980.87 449.77 985.85 443.82
  Q 993.91 434.23 1001.57 424.79
  Q 1008.65 416.07 1016.29 406.54
  C 1019.07 403.07 1022.32 399.88 1024.93 396.20
  Q 1026.28 394.30 1025.95 391.35
  Q 1025.88 390.70 1026.23 391.25
  C 1028.02 393.96 1031.21 397.85 1030.52 401.11
  Q 1030.41 401.61 1030.05 401.97
  Q 1025.50 406.47 1024.30 410.01
  Z"
/>
<path fill="#b8b8b8" d="
  M 999.36 401.20
  Q 989.45 397.71 979.76 401.53
  C 967.30 406.44 959.13 417.83 959.40 431.18
  Q 959.55 438.63 963.02 445.47
  L 957.92 451.66
  Q 957.36 452.33 956.90 451.59
  C 944.27 430.81 953.00 403.39 975.71 394.23
  Q 989.64 388.61 1004.67 393.80
  A 0.49 0.49 0.0 0 1 1004.89 394.57
  L 999.36 401.20
  Z"
/>
<path fill="#9e9e9e" d="
  M 999.36 401.20
  L 963.02 445.47
  Q 959.55 438.63 959.40 431.18
  C 959.13 417.83 967.30 406.44 979.76 401.53
  Q 989.45 397.71 999.36 401.20
  Z"
/>
<rect fill="#b8b8b8" x="-4.56" y="-1.55" transform="translate(948.57,406.56) rotate(30.2)" width="9.12" height="3.10" rx="1.14"/>
<rect fill="#b8b8b8" x="-4.57" y="-1.56" transform="translate(1032.79,406.53) rotate(-30.4)" width="9.14" height="3.12" rx="1.13"/>
<path fill="#b8b8b8" d="
  M 1024.30 410.01
  C 1043.53 443.12 1012.37 480.76 976.29 467.81
  L 982.13 460.36
  Q 983.75 461.72 986.02 461.92
  Q 1001.48 463.26 1011.64 453.88
  Q 1018.15 447.87 1020.19 441.28
  C 1023.05 432.03 1022.31 424.85 1018.48 416.10
  Q 1021.18 411.84 1024.30 410.01
  Z"
/>
<path fill="#9e9e9e" d="
  M 1018.48 416.10
  C 1022.31 424.85 1023.05 432.03 1020.19 441.28
  Q 1018.15 447.87 1011.64 453.88
  Q 1001.48 463.26 986.02 461.92
  Q 983.75 461.72 982.13 460.36
  L 1018.48 416.10
  Z"
/>
<rect fill="#b8b8b8" x="-4.50" y="-1.56" transform="translate(942.02,430.83) rotate(-0.1)" width="9.00" height="3.12" rx="1.06"/>
<rect fill="#b8b8b8" x="-4.47" y="-1.55" transform="translate(1039.26,430.85) rotate(-0.3)" width="8.94" height="3.10" rx="0.83"/>
<rect fill="#b8b8b8" x="-4.56" y="-1.57" transform="translate(1032.80,455.18) rotate(30.4)" width="9.12" height="3.14" rx="1.12"/>
<rect fill="#b8b8b8" x="-4.59" y="-1.55" transform="translate(948.56,455.18) rotate(-29.4)" width="9.18" height="3.10" rx="1.28"/>
<rect fill="#b8b8b8" x="-1.60" y="-4.55" transform="translate(1014.95,472.96) rotate(-30.2)" width="3.20" height="9.10" rx="0.94"/>
<rect fill="#b8b8b8" x="-1.63" y="-4.54" transform="translate(990.64,479.49) rotate(-0.4)" width="3.26" height="9.08" rx="1.01"/>
<path fill="#777978" d="
  M 1050.36 571.04
  A 59.72 59.72 0.0 0 1 990.64 630.76
  A 59.72 59.72 0.0 0 1 930.92 571.04
  A 59.72 59.72 0.0 0 1 990.64 511.32
  A 59.72 59.72 0.0 0 1 1050.36 571.04
  Z
  M 1041.9946 548.5324
  A 56.02 55.96 -23.6 0 0 968.2565 519.6803
  A 56.02 55.96 -23.6 0 0 939.3254 593.3876
  A 56.02 55.96 -23.6 0 0 1013.0635 622.2397
  A 56.02 55.96 -23.6 0 0 1041.9946 548.5324
  Z"
/>
<path fill="#505251" d="
  M 1041.9946 548.5324
  A 56.02 55.96 -23.6 0 1 1013.0635 622.2397
  A 56.02 55.96 -23.6 0 1 939.3254 593.3876
  A 56.02 55.96 -23.6 0 1 968.2565 519.6803
  A 56.02 55.96 -23.6 0 1 1041.9946 548.5324
  Z
  M 992.3711 518.7647
  A 0.91 0.91 0.0 0 0 991.4691 517.8468
  L 989.9491 517.8335
  A 0.91 0.91 0.0 0 0 989.0312 518.7356
  L 988.9689 525.8753
  A 0.91 0.91 0.0 0 0 989.8709 526.7932
  L 991.3909 526.8065
  A 0.91 0.91 0.0 0 0 992.3088 525.9044
  L 992.3711 518.7647
  Z
  M 965.7934 524.7967
  A 0.65 0.65 0.0 0 0 964.9051 524.5604
  L 963.2613 525.5133
  A 0.65 0.65 0.0 0 0 963.0249 526.4016
  L 966.8866 533.0633
  A 0.65 0.65 0.0 0 0 967.7749 533.2996
  L 969.4187 532.3467
  A 0.65 0.65 0.0 0 0 969.6551 531.4584
  L 965.7934 524.7967
  Z
  M 1018.1261 526.5469
  A 0.88 0.88 0.0 0 0 1017.8061 525.3442
  L 1016.5776 524.6321
  A 0.88 0.88 0.0 0 0 1015.3749 524.9521
  L 1011.7339 531.2331
  A 0.88 0.88 0.0 0 0 1012.0539 532.4358
  L 1013.2824 533.1479
  A 0.88 0.88 0.0 0 0 1014.4851 532.8279
  L 1018.1261 526.5469
  Z
  M 951.19 567.70
  Q 949.20 568.24 947.01 569.01
  C 945.64 569.49 944.24 569.24 942.82 569.57
  L 938.61 569.60
  Q 938.07 569.60 937.78 570.05
  Q 937.25 570.89 937.81 572.37
  Q 938.44 572.67 938.83 573.18
  Q 939.17 573.62 939.09 574.17
  L 938.58 577.68
  A 0.79 0.78 82.5 0 0 939.67 578.52
  Q 940.87 577.98 942.51 577.60
  Q 963.32 572.70 983.31 568.16
  Q 985.96 567.55 988.50 566.95
  Q 1007.63 562.42 1026.02 557.90
  C 1030.98 556.68 1036.07 555.88 1040.99 554.39
  Q 1042.03 554.08 1041.97 552.99
  Q 1041.63 546.41 1035.00 547.30
  L 1036.76 545.89
  Q 1037.18 545.55 1037.04 545.03
  Q 1036.75 544.01 1035.86 543.62
  Q 1035.34 543.40 1034.83 543.65
  Q 1030.67 545.65 1028.20 548.21
  Q 1029.35 550.64 1024.61 550.51
  Q 1014.11 534.68 996.97 531.99
  C 974.09 528.40 953.38 544.43 951.19 567.70
  Z
  M 952.7271 548.5611
  A 1.08 1.08 0.0 0 0 952.3447 547.0824
  L 946.3994 543.5804
  A 1.08 1.08 0.0 0 0 944.9207 543.9628
  L 944.3929 544.8589
  A 1.08 1.08 0.0 0 0 944.7753 546.3376
  L 950.7206 549.8396
  A 1.08 1.08 0.0 0 0 952.1993 549.4572
  L 952.7271 548.5611
  Z
  M 1043.39 571.07
  Q 1040.95 571.23 1038.68 571.84
  Q 1037.24 572.22 1038.69 572.55
  Q 1040.72 573.01 1043.01 572.71
  A 0.95 0.94 84.9 0 0 1043.82 571.74
  L 1043.81 571.45
  A 0.39 0.39 0.0 0 0 1043.39 571.07
  Z
  M 1021.71 576.10
  L 965.20 589.34
  L 957.36 591.06
  A 0.59 0.59 0.0 0 0 956.99 591.96
  C 978.11 623.49 1025.10 612.82 1030.01 575.21
  A 0.83 0.83 0.0 0 0 1028.99 574.29
  L 1021.71 576.10
  Z
  M 1037.0158 597.0281
  A 0.94 0.94 0.0 0 0 1036.6717 595.7440
  L 1030.4883 592.1740
  A 0.94 0.94 0.0 0 0 1029.2042 592.5181
  L 1028.5842 593.5919
  A 0.94 0.94 0.0 0 0 1028.9283 594.8760
  L 1035.1117 598.4460
  A 0.94 0.94 0.0 0 0 1036.3958 598.1019
  L 1037.0158 597.0281
  Z
  M 952.4715 593.0012
  A 1.44 1.44 0.0 0 0 950.5129 592.4433
  L 945.0606 595.4781
  A 1.44 1.44 0.0 0 0 944.5026 597.4366
  L 944.6485 597.6988
  A 1.44 1.44 0.0 0 0 946.6071 598.2567
  L 952.0594 595.2219
  A 1.44 1.44 0.0 0 0 952.6174 593.2634
  L 952.4715 593.0012
  Z
  M 969.3757 611.0205
  A 1.30 1.30 0.0 0 0 968.8968 609.2455
  L 968.3593 608.9364
  A 1.30 1.30 0.0 0 0 966.5843 609.4153
  L 963.3043 615.1195
  A 1.30 1.30 0.0 0 0 963.7832 616.8945
  L 964.3207 617.2036
  A 1.30 1.30 0.0 0 0 966.0957 616.7247
  L 969.3757 611.0205
  Z
  M 1014.6466 609.3419
  A 1.16 1.16 0.0 0 0 1013.0620 608.9173
  L 1012.2480 609.3873
  A 1.16 1.16 0.0 0 0 1011.8234 610.9719
  L 1015.2334 616.8781
  A 1.16 1.16 0.0 0 0 1016.8180 617.3027
  L 1017.6320 616.8327
  A 1.16 1.16 0.0 0 0 1018.0566 615.2481
  L 1014.6466 609.3419
  Z
  M 992.2849 616.0685
  A 0.83 0.83 0.0 0 0 991.4491 615.2443
  L 989.7892 615.2559
  A 0.83 0.83 0.0 0 0 988.9650 616.0917
  L 989.0151 623.2715
  A 0.83 0.83 0.0 0 0 989.8509 624.0957
  L 991.5108 624.0841
  A 0.83 0.83 0.0 0 0 992.3350 623.2483
  L 992.2849 616.0685
  Z"
/>
<rect fill="#b8b8b8" x="-1.67" y="-4.48" transform="translate(990.67,522.32) rotate(0.5)" width="3.34" height="8.96" rx="0.91"/>
<rect fill="#b8b8b8" x="-1.60" y="-4.50" transform="translate(966.34,528.93) rotate(-30.1)" width="3.20" height="9.00" rx="0.65"/>
<rect fill="#b8b8b8" x="-1.59" y="-4.51" transform="translate(1014.93,528.89) rotate(30.1)" width="3.18" height="9.02" rx="0.88"/>
<path fill="#b8b8b8" d="
  M 1024.61 550.51
  L 1016.64 552.46
  Q 1009.95 546.38 1007.14 544.60
  Q 997.28 538.35 986.68 540.02
  Q 966.74 543.16 960.26 563.11
  Q 960.05 563.75 960.24 564.39
  L 960.58 565.59
  L 951.19 567.70
  C 953.38 544.43 974.09 528.40 996.97 531.99
  Q 1014.11 534.68 1024.61 550.51
  Z"
/>
<path fill="#9e9e9e" d="
  M 1016.64 552.46
  L 960.58 565.59
  L 960.24 564.39
  Q 960.05 563.75 960.26 563.11
  Q 966.74 543.16 986.68 540.02
  Q 997.28 538.35 1007.14 544.60
  Q 1009.95 546.38 1016.64 552.46
  Z"
/>
<rect fill="#b8b8b8" x="-4.53" y="-1.60" transform="translate(948.56,546.71) rotate(30.5)" width="9.06" height="3.20" rx="1.08"/>
<path fill="#b8b8b8" d="
  M 1035.00 547.30
  Q 1033.36 547.97 1030.96 549.11
  Q 1029.47 549.83 1028.20 548.21
  Q 1030.67 545.65 1034.83 543.65
  Q 1035.34 543.40 1035.86 543.62
  Q 1036.75 544.01 1037.04 545.03
  Q 1037.18 545.55 1036.76 545.89
  L 1035.00 547.30
  Z"
/>
<path fill="#777978" d="
  M 1035.00 547.30
  Q 1041.63 546.41 1041.97 552.99
  Q 1042.03 554.08 1040.99 554.39
  C 1036.07 555.88 1030.98 556.68 1026.02 557.90
  Q 1007.63 562.42 988.50 566.95
  Q 985.96 567.55 983.31 568.16
  Q 963.32 572.70 942.51 577.60
  Q 940.87 577.98 939.67 578.52
  A 0.79 0.78 82.5 0 1 938.58 577.68
  L 939.09 574.17
  Q 939.17 573.62 938.83 573.18
  Q 938.44 572.67 937.81 572.37
  Q 939.29 572.30 940.44 570.69
  Q 940.72 570.30 941.21 570.28
  Q 942.45 570.23 942.82 569.57
  C 944.24 569.24 945.64 569.49 947.01 569.01
  Q 949.20 568.24 951.19 567.70
  L 960.58 565.59
  L 1016.64 552.46
  L 1024.61 550.51
  Q 1029.35 550.64 1028.20 548.21
  Q 1029.47 549.83 1030.96 549.11
  Q 1033.36 547.97 1035.00 547.30
  Z"
/>
<path fill="#b8b8b8" d="
  M 942.82 569.57
  Q 942.45 570.23 941.21 570.28
  Q 940.72 570.30 940.44 570.69
  Q 939.29 572.30 937.81 572.37
  Q 937.25 570.89 937.78 570.05
  Q 938.07 569.60 938.61 569.60
  L 942.82 569.57
  Z"
/>
<path fill="#9e9e9e" d="
  M 1043.39 571.07
  A 0.39 0.39 0.0 0 1 1043.81 571.45
  L 1043.82 571.74
  A 0.95 0.94 84.9 0 1 1043.01 572.71
  Q 1040.72 573.01 1038.69 572.55
  Q 1037.24 572.22 1038.68 571.84
  Q 1040.95 571.23 1043.39 571.07
  Z"
/>
<path fill="#b8b8b8" d="
  M 965.20 589.34
  Q 970.66 596.46 978.58 599.88
  Q 986.20 603.18 994.79 601.94
  C 1007.99 600.03 1019.15 589.90 1021.71 576.10
  L 1028.99 574.29
  A 0.83 0.83 0.0 0 1 1030.01 575.21
  C 1025.10 612.82 978.11 623.49 956.99 591.96
  A 0.59 0.59 0.0 0 1 957.36 591.06
  L 965.20 589.34
  Z"
/>
<path fill="#9e9e9e" d="
  M 1021.71 576.10
  C 1019.15 589.90 1007.99 600.03 994.79 601.94
  Q 986.20 603.18 978.58 599.88
  Q 970.66 596.46 965.20 589.34
  L 1021.71 576.10
  Z"
/>
<path fill="#b8b8b8" d="
  M 99.16 583.98
  L 100.85 584.51
  Q 101.34 584.66 101.38 585.17
  Q 102.04 594.28 106.04 599.93
  Q 112.33 608.82 118.76 612.22
  Q 124.03 615.00 125.80 616.29
  Q 118.83 614.11 112.69 608.99
  Q 102.84 600.74 100.37 589.09
  Q 99.61 585.50 98.99 584.39
  Q 98.94 584.28 99.00 584.18
  Q 99.12 583.97 99.16 583.98
  Z"
/>
<rect fill="#b8b8b8" x="-4.51" y="-1.56" transform="translate(1032.80,595.31) rotate(30.0)" width="9.02" height="3.12" rx="0.94"/>
<rect fill="#b8b8b8" x="-4.56" y="-1.59" transform="translate(948.56,595.35) rotate(-29.1)" width="9.12" height="3.18" rx="1.44"/>
<rect fill="#b8b8b8" x="-1.61" y="-4.59" transform="translate(966.34,613.07) rotate(29.9)" width="3.22" height="9.18" rx="1.30"/>
<rect fill="#b8b8b8" x="-1.63" y="-4.57" transform="translate(1014.94,613.11) rotate(-30.0)" width="3.26" height="9.14" rx="1.16"/>
<path fill="#777978" d="
  M 112.69 608.99
  Q 118.83 614.11 125.80 616.29
  Q 131.34 619.00 134.28 619.42
  C 139.96 620.23 145.68 621.07 151.44 621.43
  C 155.49 621.67 159.46 622.44 163.49 622.59
  Q 173.73 622.96 184.36 624.50
  Q 196.78 626.29 208.01 627.13
  Q 212.63 627.47 216.02 627.95
  C 223.35 628.97 230.45 628.31 237.70 629.13
  Q 249.50 630.46 260.82 630.27
  Q 261.37 630.26 261.78 630.65
  Q 262.20 631.06 262.75 631.06
  Q 270.13 631.19 278.08 631.39
  C 279.28 631.43 280.28 631.72 281.50 631.73
  Q 294.18 631.90 306.63 632.34
  Q 309.77 632.77 312.94 632.86
  Q 313.81 632.88 318.53 633.28
  Q 321.30 633.52 324.17 633.09
  Q 326.77 633.63 329.71 634.15
  Q 345.13 636.84 358.95 636.26
  Q 359.43 636.24 360.07 636.72
  Q 360.48 637.03 360.99 637.03
  Q 377.14 636.89 386.25 637.04
  Q 459.29 638.27 499.84 637.44
  Q 528.73 636.84 554.57 636.34
  C 564.74 636.15 574.68 636.43 584.79 635.78
  C 593.07 635.25 601.34 634.91 609.58 633.87
  C 614.16 633.29 618.33 632.64 623.18 632.61
  Q 630.62 632.57 638.51 631.36
  C 643.84 630.54 652.67 633.36 660.32 632.20
  C 666.29 631.30 672.19 631.98 678.15 631.13
  Q 686.00 630.00 694.51 630.17
  Q 698.53 630.26 703.23 629.39
  C 709.74 628.19 716.40 629.26 722.88 627.99
  C 727.66 627.05 732.35 627.52 737.06 626.66
  Q 741.77 625.80 746.45 625.67
  Q 749.92 625.57 753.49 624.88
  C 757.83 624.02 762.24 624.52 766.67 623.74
  C 769.30 623.28 771.80 622.80 774.48 622.72
  C 780.72 622.54 786.57 621.62 792.79 621.13
  Q 803.36 620.28 811.04 616.10
  Q 813.03 615.02 818.65 610.50
  L 867.50 659.20
  Q 862.34 666.98 853.36 670.58
  Q 848.99 672.33 844.25 672.45
  Q 835.25 672.66 827.24 672.67
  Q 459.37 672.94 91.63 672.78
  Q 87.90 672.78 83.53 672.32
  C 75.69 671.49 69.14 667.97 63.64 662.11
  Q 62.72 661.14 62.89 659.99
  Q 63.57 659.22 64.26 658.52
  Q 84.96 637.59 105.78 616.78
  Q 108.26 614.29 112.69 608.99
  Z"
/>
<rect fill="#b8b8b8" x="-1.66" y="-4.42" transform="translate(990.65,619.67) rotate(-0.4)" width="3.32" height="8.84" rx="0.83"/>
<path fill="#b8b8b8" d="
  M 306.63 632.34
  C 312.18 632.13 318.83 631.67 324.17 633.09
  Q 321.30 633.52 318.53 633.28
  Q 313.81 632.88 312.94 632.86
  Q 309.77 632.77 306.63 632.34
  Z"
/>
<path fill="#777978" d="
  M 1064.74 664.03
  A 9.70 9.70 0.0 0 1 1055.04 673.73
  L 926.48 673.73
  A 9.70 9.70 0.0 0 1 916.78 664.03
  L 916.78 646.15
  A 9.70 9.70 0.0 0 1 926.48 636.45
  L 1055.04 636.45
  A 9.70 9.70 0.0 0 1 1064.74 646.15
  L 1064.74 664.03
  Z
  M 998.03 667.28
  Q 1002.19 664.01 1003.90 659.43
  Q 1005.96 657.47 1007.37 655.37
  Q 1013.02 647.03 1018.21 639.70
  A 1.07 1.07 0.0 0 0 1017.35 638.01
  C 988.18 637.54 958.75 637.82 930.47 637.76
  C 925.98 637.75 921.07 637.92 919.04 642.70
  Q 918.12 644.86 918.20 648.84
  Q 918.34 656.27 918.30 662.76
  Q 918.24 671.22 926.02 672.01
  Q 931.90 672.62 941.33 672.28
  Q 948.79 672.02 956.82 672.10
  Q 973.75 672.29 989.49 672.20
  Q 992.56 672.18 995.12 671.50
  Q 996.30 671.19 996.06 669.98
  A 1.49 1.47 64.1 0 1 996.54 668.57
  L 998.03 667.28
  Z
  M 1047.74 655.04
  A 13.72 13.72 0.0 0 0 1034.02 641.32
  A 13.72 13.72 0.0 0 0 1020.30 655.04
  A 13.72 13.72 0.0 0 0 1034.02 668.76
  A 13.72 13.72 0.0 0 0 1047.74 655.04
  Z"
/>
<path fill="#8e8b8a" d="
  M 1003.90 659.43
  Q 1006.43 648.69 998.37 643.62
  C 990.85 638.90 981.12 641.61 977.78 649.94
  C 975.60 655.37 977.17 661.46 981.64 665.38
  Q 988.19 671.12 998.03 667.28
  L 996.54 668.57
  A 1.49 1.47 64.1 0 0 996.06 669.98
  Q 996.30 671.19 995.12 671.50
  Q 992.56 672.18 989.49 672.20
  Q 973.75 672.29 956.82 672.10
  Q 948.79 672.02 941.33 672.28
  Q 931.90 672.62 926.02 672.01
  Q 918.24 671.22 918.30 662.76
  Q 918.34 656.27 918.20 648.84
  Q 918.12 644.86 919.04 642.70
  C 921.07 637.92 925.98 637.75 930.47 637.76
  C 958.75 637.82 988.18 637.54 1017.35 638.01
  A 1.07 1.07 0.0 0 1 1018.21 639.70
  Q 1013.02 647.03 1007.37 655.37
  Q 1005.96 657.47 1003.90 659.43
  Z
  M 961.07 655.03
  A 13.80 13.80 0.0 0 0 947.27 641.23
  A 13.80 13.80 0.0 0 0 933.47 655.03
  A 13.80 13.80 0.0 0 0 947.27 668.83
  A 13.80 13.80 0.0 0 0 961.07 655.03
  Z"
/>
<path fill="#b8b8b8" d="
  M 961.07 655.03
  A 13.80 13.80 0.0 0 1 947.27 668.83
  A 13.80 13.80 0.0 0 1 933.47 655.03
  A 13.80 13.80 0.0 0 1 947.27 641.23
  A 13.80 13.80 0.0 0 1 961.07 655.03
  Z
  M 958.26 655.08
  A 10.99 10.99 0.0 0 0 947.27 644.09
  A 10.99 10.99 0.0 0 0 936.28 655.08
  A 10.99 10.99 0.0 0 0 947.27 666.07
  A 10.99 10.99 0.0 0 0 958.26 655.08
  Z"
/>
<path fill="#b8b8b8" d="
  M 1003.90 659.43
  Q 1002.19 664.01 998.03 667.28
  Q 988.19 671.12 981.64 665.38
  C 977.17 661.46 975.60 655.37 977.78 649.94
  C 981.12 641.61 990.85 638.90 998.37 643.62
  Q 1006.43 648.69 1003.90 659.43
  Z
  M 1001.63 655.04
  A 11.00 11.00 0.0 0 0 990.63 644.04
  A 11.00 11.00 0.0 0 0 979.63 655.04
  A 11.00 11.00 0.0 0 0 990.63 666.04
  A 11.00 11.00 0.0 0 0 1001.63 655.04
  Z"
/>
<path fill="#b8b8b8" d="
  M 1047.74 655.04
  A 13.72 13.72 0.0 0 1 1034.02 668.76
  A 13.72 13.72 0.0 0 1 1020.30 655.04
  A 13.72 13.72 0.0 0 1 1034.02 641.32
  A 13.72 13.72 0.0 0 1 1047.74 655.04
  Z
  M 1045.08 655.05
  A 11.04 11.04 0.0 0 0 1034.04 644.01
  A 11.04 11.04 0.0 0 0 1023.00 655.05
  A 11.04 11.04 0.0 0 0 1034.04 666.09
  A 11.04 11.04 0.0 0 0 1045.08 655.05
  Z"
/>
<path fill="#777978" d="
  M 1001.63 655.04
  A 11.00 11.00 0.0 0 1 990.63 666.04
  A 11.00 11.00 0.0 0 1 979.63 655.04
  A 11.00 11.00 0.0 0 1 990.63 644.04
  A 11.00 11.00 0.0 0 1 1001.63 655.04
  Z
  M 997.52 655.04
  A 7.01 7.01 0.0 0 0 990.51 648.03
  A 7.01 7.01 0.0 0 0 983.50 655.04
  A 7.01 7.01 0.0 0 0 990.51 662.05
  A 7.01 7.01 0.0 0 0 997.52 655.04
  Z"
/>
<path fill="#777978" d="
  M 1045.08 655.05
  A 11.04 11.04 0.0 0 1 1034.04 666.09
  A 11.04 11.04 0.0 0 1 1023.00 655.05
  A 11.04 11.04 0.0 0 1 1034.04 644.01
  A 11.04 11.04 0.0 0 1 1045.08 655.05
  Z
  M 1040.93 655.02
  A 7.04 7.04 0.0 0 0 1033.89 647.98
  A 7.04 7.04 0.0 0 0 1026.85 655.02
  A 7.04 7.04 0.0 0 0 1033.89 662.06
  A 7.04 7.04 0.0 0 0 1040.93 655.02
  Z"
/>
<path fill="#777978" d="
  M 958.26 655.08
  A 10.99 10.99 0.0 0 1 947.27 666.07
  A 10.99 10.99 0.0 0 1 936.28 655.08
  A 10.99 10.99 0.0 0 1 947.27 644.09
  A 10.99 10.99 0.0 0 1 958.26 655.08
  Z
  M 954.24 655.03
  A 7.04 7.04 0.0 0 0 947.20 647.99
  A 7.04 7.04 0.0 0 0 940.16 655.03
  A 7.04 7.04 0.0 0 0 947.20 662.07
  A 7.04 7.04 0.0 0 0 954.24 655.03
  Z"
/>
<path fill="#b8b8b8" d="
  M 954.24 655.03
  A 7.04 7.04 0.0 0 1 947.20 662.07
  A 7.04 7.04 0.0 0 1 940.16 655.03
  A 7.04 7.04 0.0 0 1 947.20 647.99
  A 7.04 7.04 0.0 0 1 954.24 655.03
  Z
  M 952.93 655.01
  A 5.57 5.57 0.0 0 0 947.36 649.44
  A 5.57 5.57 0.0 0 0 941.79 655.01
  A 5.57 5.57 0.0 0 0 947.36 660.58
  A 5.57 5.57 0.0 0 0 952.93 655.01
  Z"
/>
<path fill="#b8b8b8" d="
  M 997.52 655.04
  A 7.01 7.01 0.0 0 1 990.51 662.05
  A 7.01 7.01 0.0 0 1 983.50 655.04
  A 7.01 7.01 0.0 0 1 990.51 648.03
  A 7.01 7.01 0.0 0 1 997.52 655.04
  Z
  M 996.30 655.05
  A 5.59 5.59 0.0 0 0 990.71 649.46
  A 5.59 5.59 0.0 0 0 985.12 655.05
  A 5.59 5.59 0.0 0 0 990.71 660.64
  A 5.59 5.59 0.0 0 0 996.30 655.05
  Z"
/>
<path fill="#b8b8b8" d="
  M 1040.93 655.02
  A 7.04 7.04 0.0 0 1 1033.89 662.06
  A 7.04 7.04 0.0 0 1 1026.85 655.02
  A 7.04 7.04 0.0 0 1 1033.89 647.98
  A 7.04 7.04 0.0 0 1 1040.93 655.02
  Z
  M 1034.2400 660.5339
  A 5.52 5.35 87.3 0 0 1039.3241 654.7680
  A 5.52 5.35 87.3 0 0 1033.7200 649.5061
  A 5.52 5.35 87.3 0 0 1028.6359 655.2720
  A 5.52 5.35 87.3 0 0 1034.2400 660.5339
  Z"
/>
<circle fill="#9e9e9e" cx="990.71" cy="655.05" r="5.59"/>
<circle fill="#9e9e9e" cx="947.36" cy="655.01" r="5.57"/>
<ellipse fill="#9e9e9e" cx="0.00" cy="0.00" transform="translate(1033.98,655.02) rotate(87.3)" rx="5.52" ry="5.35"/>
<path fill="#b8b8b8" d="
  M 1105.00 697.78
  L 1105.00 700.03
  Q 1103.89 704.68 1100.01 707.57
  Q 1093.55 712.37 1084.90 712.47
  C 1080.17 712.52 1077.23 713.98 1074.01 717.69
  Q 1071.29 720.82 1068.37 723.87
  Q 1066.55 725.78 1063.91 726.00
  L 1062.94 726.00
  Q 1069.88 720.27 1076.02 713.30
  C 1079.10 710.94 1081.64 711.57 1084.97 711.37
  Q 1098.69 710.53 1105.00 697.78
  Z"
/>
<path fill="#b8b8b8" d="
  M 8.87 707.90
  L 17.34 711.50
  Q 17.60 711.32 17.30 711.77
  Q 12.68 710.92 8.87 707.90
  Z"
/>
<path fill="#553e33" d="
  M 499.20 711.35
  Q 503.76 711.48 508.07 711.40
  Q 512.65 711.30 516.96 711.30
  Q 781.39 711.29 1045.83 711.28
  C 1054.34 711.28 1064.10 711.69 1071.50 711.44
  Q 1075.75 711.30 1076.02 713.30
  Q 1069.88 720.27 1062.94 726.00
  L 44.50 726.00
  Q 39.76 724.42 36.72 720.33
  Q 35.08 718.11 33.44 715.79
  Q 32.86 714.97 29.50 713.74
  Q 30.11 713.15 32.26 712.39
  Q 34.81 711.50 36.25 711.49
  Q 92.73 711.12 149.22 711.13
  Q 298.61 711.15 448.00 711.22
  Q 473.93 711.23 499.20 711.35
  Z"
/>
<path fill="#8e8b8a" d="
  M 17.34 711.50
  L 24.74 712.04
  Q 23.88 712.03 23.03 712.50
  Q 20.05 712.60 17.30 711.77
  Q 17.60 711.32 17.34 711.50
  Z"
/>
<path fill="#b8b8b8" d="
  M 24.74 712.04
  Q 28.24 711.49 29.57 713.76
  L 23.03 712.50
  Q 23.88 712.03 24.74 712.04
  Z"
/>
</svg>
