<?xml version="1.0" encoding="UTF-8" standalone="no"?>
<!DOCTYPE svg PUBLIC "-//W3C//DTD SVG 1.1//EN" "http://www.w3.org/Graphics/SVG/1.1/DTD/svg11.dtd">
<svg xmlns="http://www.w3.org/2000/svg" version="1.1" viewBox="0.00 0.00 1105.00 726.00">
<g stroke-width="2.00" fill="none" stroke-linecap="butt">
<path stroke="#66493a" vector-effect="non-scaling-stroke" d="
  M 1099.96 13.96
  L 712.96 14.01"
/>
<path stroke="#64402f" vector-effect="non-scaling-stroke" d="
  M 712.96 14.01
  Q 712.07 14.06 711.05 13.81
  Q 710.07 13.58 709.12 13.58
  Q 390.22 13.45 71.26 13.56
  Q 61.47 13.57 51.25 13.71
  Q 29.84 14.02 8.01 14.02"
/>
<path stroke="#754a36" vector-effect="non-scaling-stroke" d="
  M 712.96 14.01
  L 708.87 29.00
  A 1.24 1.22 34.3 0 0 709.08 30.05
  L 709.35 30.40
  Q 709.87 31.08 709.02 31.25
  L 707.79 31.50"
/>
<path stroke="#81675c" vector-effect="non-scaling-stroke" d="
  M 707.79 31.50
  Q 393.77 31.52 79.75 31.60
  C 60.96 31.61 47.01 46.01 47.01 64.75
  Q 47.02 331.05 47.01 647.31
  C 47.01 661.99 56.39 674.60 70.31 678.74
  Q 74.73 680.06 85.34 680.06
  Q 296.11 680.01 507.01 680.09"
/>
<path stroke="#754a36" vector-effect="non-scaling-stroke" d="
  M 507.01 680.09
  Q 508.09 680.92 506.90 684.74
  Q 503.98 694.17 501.36 703.69
  Q 501.30 703.92 500.17 707.48
  Q 499.54 709.48 499.28 711.37"
/>
<path stroke="#64402f" vector-effect="non-scaling-stroke" d="
  M 499.28 711.37
  Q 457.62 711.07 415.50 711.08
  Q 245.04 711.14 88.25 711.28
  Q 60.97 711.30 35.75 711.56
  Q 33.56 711.58 32.15 712.59
  Q 31.75 712.87 31.27 712.85
  Q 29.77 712.79 29.70 713.85"
/>
<path stroke="#977e73" vector-effect="non-scaling-stroke" d="
  M 29.55 713.75
  Q 28.18 711.46 24.77 712.07"
/>
<path stroke="#81675c" vector-effect="non-scaling-stroke" d="
  M 24.77 712.07
  L 17.14 711.67"
/>
<path stroke="#977e73" vector-effect="non-scaling-stroke" d="
  M 14.77 711.04
  Q 14.89 711.13 14.97 710.94
  Q 15.03 710.80 14.89 710.74
  L 9.11 708.10"
/>
<path stroke="#b7a59d" vector-effect="non-scaling-stroke" d="
  M 1105.00 697.79
  Q 1100.58 706.88 1092.02 710.00
  Q 1089.99 710.74 1084.34 711.23
  Q 1080.20 711.58 1076.61 712.64"
/>
<path stroke="#66493a" vector-effect="non-scaling-stroke" d="
  M 1076.61 712.64
  Q 1074.96 711.42 1071.75 711.46
  C 1064.40 711.56 1056.11 711.26 1049.74 711.26
  Q 780.49 711.34 511.24 711.25
  Q 510.45 711.25 505.27 711.45
  Q 502.37 711.56 499.28 711.37"
/>
<path stroke="#837067" vector-effect="non-scaling-stroke" d="
  M 507.01 680.09
  Q 675.69 680.15 844.50 679.99
  Q 849.96 679.99 853.82 679.66
  C 866.19 678.60 877.34 669.09 880.90 656.97
  Q 882.34 652.06 882.33 640.74
  Q 882.20 356.12 882.32 66.47
  C 882.33 58.24 880.88 51.61 876.20 45.02
  C 870.75 37.36 861.67 32.18 851.92 31.68
  Q 848.41 31.50 845.25 31.49
  Q 776.52 31.35 707.79 31.50"
/>
<path stroke="#8c7a71" vector-effect="non-scaling-stroke" d="
  M 1086.76 31.82
  A 0.31 0.31 0.0 0 0 1086.45 31.51
  L 894.79 31.51
  A 0.31 0.31 0.0 0 0 894.48 31.82
  L 894.48 679.74
  A 0.31 0.31 0.0 0 0 894.79 680.05
  L 1086.45 680.05
  A 0.31 0.31 0.0 0 0 1086.76 679.74
  L 1086.76 31.82"
/>
<path stroke="#989796" vector-effect="non-scaling-stroke" d="
  M 62.32 51.30
  Q 57.62 57.41 56.77 65.09
  Q 56.63 66.32 56.70 77.42
  C 56.89 108.08 56.54 139.00 56.56 170.50
  Q 56.74 399.29 56.67 628.08
  C 56.67 633.29 56.44 638.53 56.65 643.75
  Q 57.03 653.19 62.60 660.02"
/>
<path stroke="#838382" vector-effect="non-scaling-stroke" d="
  M 62.60 660.02
  Q 63.07 661.44 63.55 661.97
  Q 69.24 668.23 77.03 670.95
  C 81.72 672.59 87.16 672.61 92.25 672.57
  Q 99.13 672.52 106.75 672.53
  Q 336.27 672.84 667.75 672.78
  Q 770.52 672.76 842.00 672.53
  Q 858.39 672.48 867.48 659.16"
/>
<path stroke="#989796" vector-effect="non-scaling-stroke" d="
  M 867.48 659.16
  Q 872.62 651.59 872.62 641.25
  Q 872.58 359.72 872.54 78.20
  Q 872.54 78.07 872.71 72.81
  Q 873.05 62.46 868.35 53.15
  Q 867.84 52.14 867.08 52.47"
/>
<path stroke="#838382" vector-effect="non-scaling-stroke" d="
  M 867.08 52.47
  Q 867.38 51.33 866.32 50.18
  C 860.07 43.41 852.60 39.07 843.50 38.99
  Q 823.67 38.81 801.00 38.81
  Q 448.67 38.84 96.34 38.84
  C 91.42 38.84 86.46 38.60 81.74 39.32
  Q 72.77 40.70 66.08 47.09
  Q 63.93 49.14 62.32 51.30"
/>
<path stroke="#8c8d8c" vector-effect="non-scaling-stroke" d="
  M 867.08 52.47
  L 816.35 103.39"
/>
<path stroke="#b7b8b8" vector-effect="non-scaling-stroke" d="
  M 811.52 100.38
  Q 806.80 97.09 800.75 95.78
  Q 793.94 94.30 787.02 93.65
  C 783.95 93.37 781.03 92.63 777.99 92.28
  Q 759.91 90.21 742.26 88.06
  Q 711.30 84.31 663.25 80.87
  Q 578.83 74.83 482.25 74.88
  Q 389.06 74.92 308.75 80.07
  Q 252.01 83.71 237.24 84.98
  Q 167.86 90.94 130.24 95.73
  Q 122.18 96.76 113.52 102.59"
/>
<path stroke="#8c8d8c" vector-effect="non-scaling-stroke" d="
  M 113.52 102.59
  L 62.32 51.30"
/>
<path stroke="#b7b8b8" vector-effect="non-scaling-stroke" d="
  M 126.26 616.44
  Q 121.73 615.32 117.72 612.59
  Q 115.23 610.90 112.84 609.22"
/>
<path stroke="#d9d8d9" vector-effect="non-scaling-stroke" d="
  M 89.37 294.27
  Q 90.19 276.53 90.21 269.25
  Q 90.21 267.34 89.63 259.78"
/>
<path stroke="#cccbcc" vector-effect="non-scaling-stroke" d="
  M 113.52 102.59
  Q 104.44 109.48 100.21 119.59
  Q 97.93 125.06 97.01 133.68
  Q 95.95 143.55 95.24 151.53
  Q 92.40 183.52 91.59 217.00
  Q 91.43 223.50 90.74 230.85
  C 89.85 240.43 89.72 250.13 89.63 259.78"
/>
<path stroke="#adadad" vector-effect="non-scaling-stroke" d="
  M 89.63 259.78
  L 89.37 294.27"
/>
<path stroke="#cccbcc" vector-effect="non-scaling-stroke" d="
  M 89.37 294.27
  Q 88.81 304.51 89.30 314.73
  Q 89.77 324.42 89.58 330.32
  Q 89.21 342.48 89.68 354.08
  Q 90.12 364.82 90.16 374.27
  C 90.23 389.53 90.86 405.02 91.17 420.24
  C 91.25 424.24 91.56 428.24 91.58 432.34
  Q 91.60 436.63 91.81 441.24
  Q 93.51 479.39 95.00 516.12
  Q 95.37 525.19 96.07 534.32
  C 96.97 545.95 97.72 556.94 98.26 568.25
  Q 98.82 580.22 100.29 588.25
  C 101.90 597.14 106.45 603.16 112.84 609.22"
/>
<path stroke="#8c8d8c" vector-effect="non-scaling-stroke" d="
  M 112.84 609.22
  L 62.60 660.02"
/>
<path stroke="#8c8d8c" vector-effect="non-scaling-stroke" d="
  M 867.48 659.16
  L 818.68 610.49"
/>
<path stroke="#b7b8b8" vector-effect="non-scaling-stroke" d="
  M 296.22 631.81
  Q 303.75 632.67 311.14 631.67
  Q 311.37 631.64 311.55 631.46
  Q 311.60 631.42 311.65 631.38
  Q 312.35 630.97 311.53 630.98
  Q 310.64 630.98 309.69 631.05"
/>
<path stroke="#b7b8b8" vector-effect="non-scaling-stroke" d="
  M 314.03 629.47
  Q 313.83 630.22 315.04 630.26"
/>
<path stroke="#585959" vector-effect="non-scaling-stroke" d="
  M 315.04 630.26
  Q 314.88 631.80 318.17 631.65"
/>
<path stroke="#c3c2c2" vector-effect="non-scaling-stroke" d="
  M 324.54 630.03
  Q 322.36 629.45 322.37 630.53"
/>
<path stroke="#989899" vector-effect="non-scaling-stroke" d="
  M 322.37 630.53
  L 315.04 630.26"
/>
<path stroke="#646363" vector-effect="non-scaling-stroke" d="
  M 322.57 630.86
  Q 322.47 630.70 322.37 630.53"
/>
<path stroke="#6d6d6d" vector-effect="non-scaling-stroke" d="
  M 1075.50 55.98
  A 0.48 0.48 0.0 0 0 1075.02 55.50
  L 906.24 55.50
  A 0.48 0.48 0.0 0 0 905.76 55.98
  L 905.76 349.76
  A 0.48 0.48 0.0 0 0 906.24 350.24
  L 1075.02 350.24
  A 0.48 0.48 0.0 0 0 1075.50 349.76
  L 1075.50 55.98"
/>
<path stroke="#8c8d8c" vector-effect="non-scaling-stroke" d="
  M 1050.36 430.88
  A 59.69 59.69 0.0 0 0 990.67 371.19
  A 59.69 59.69 0.0 0 0 930.98 430.88
  A 59.69 59.69 0.0 0 0 990.67 490.57
  A 59.69 59.69 0.0 0 0 1050.36 430.88"
/>
<path stroke="#8c8d8c" vector-effect="non-scaling-stroke" d="
  M 1050.33 571.04
  A 59.69 59.69 0.0 0 0 990.64 511.35
  A 59.69 59.69 0.0 0 0 930.95 571.04
  A 59.69 59.69 0.0 0 0 990.64 630.73
  A 59.69 59.69 0.0 0 0 1050.33 571.04"
/>
<path stroke="#8c8d8c" vector-effect="non-scaling-stroke" d="
  M 1064.75 646.11
  A 9.63 9.63 0.0 0 0 1055.12 636.48
  L 926.42 636.48
  A 9.63 9.63 0.0 0 0 916.79 646.11
  L 916.79 664.05
  A 9.63 9.63 0.0 0 0 926.42 673.68
  L 1055.12 673.68
  A 9.63 9.63 0.0 0 0 1064.75 664.05
  L 1064.75 646.11"
/>
<path stroke="#454645" vector-effect="non-scaling-stroke" d="
  M 997.65 65.91
  Q 1000.77 66.53 1003.62 66.54
  Q 1015.68 66.57 1028.01 66.77
  Q 1047.55 67.10 1072.79 66.65
  Q 1073.13 66.65 1073.13 66.31
  L 1073.13 65.53
  A 0.35 0.35 0.0 0 0 1072.78 65.18
  L 909.25 65.25
  Q 908.70 65.25 908.70 65.80
  L 908.69 66.09
  Q 908.69 66.40 909.01 66.41
  Q 936.32 67.14 963.46 66.84
  C 964.52 66.82 965.46 66.56 966.53 66.59
  Q 973.09 66.79 979.30 66.44
  C 981.04 66.34 982.46 65.51 984.28 65.59
  Q 988.05 65.75 991.78 65.54
  Q 994.90 65.35 997.65 65.91"
/>
<path stroke="#454645" vector-effect="non-scaling-stroke" d="
  M 977.42 221.78
  Q 975.02 221.78 972.72 221.90
  Q 969.23 222.09 965.76 221.94
  Q 958.31 221.61 950.41 221.84
  C 936.80 222.24 923.33 222.16 909.81 222.11
  Q 909.26 222.11 909.37 222.64
  L 909.45 223.01
  Q 909.49 223.19 909.67 223.19
  Q 938.03 223.46 965.22 223.39
  C 968.38 223.38 971.36 223.89 974.50 223.73
  Q 982.05 223.36 990.37 223.88
  C 997.27 224.31 1004.49 224.42 1011.40 223.76
  Q 1015.51 223.37 1019.27 223.90
  C 1020.34 224.05 1021.24 223.56 1022.25 223.58
  Q 1031.44 223.78 1040.90 223.44
  C 1042.74 223.38 1044.51 223.82 1046.31 223.61
  Q 1048.26 223.38 1050.25 223.38
  Q 1061.56 223.37 1072.59 223.39
  Q 1073.13 223.39 1073.13 222.85
  L 1073.13 222.31
  A 0.60 0.60 0.0 0 0 1072.48 221.71
  Q 1063.68 222.38 1054.74 222.05
  Q 1046.37 221.74 1037.50 221.77
  Q 1036.64 221.78 1035.75 221.78
  Q 1019.44 221.74 1005.75 221.43
  Q 994.57 221.17 982.10 221.68
  Q 979.77 221.78 977.42 221.78"
/>
<path stroke="#454645" vector-effect="non-scaling-stroke" d="
  M 1004.94 229.74
  L 1010.01 231.49
  Q 1010.55 231.68 1011.12 231.62
  Q 1014.82 231.27 1018.96 231.38
  Q 1019.48 231.39 1019.95 231.57
  Q 1020.50 231.78 1021.02 231.52
  Q 1021.49 231.28 1022.02 231.31
  Q 1025.49 231.51 1029.01 231.36
  C 1040.40 230.86 1051.86 231.13 1063.26 230.96
  Q 1067.93 230.89 1072.76 231.19
  A 0.38 0.38 0.0 0 0 1073.15 230.73
  L 1073.06 230.27
  A 0.55 0.55 0.0 0 0 1072.50 229.84
  Q 1069.17 229.96 1065.99 229.98
  Q 1043.36 230.14 1019.38 229.83
  Q 1018.40 229.82 1017.50 229.56
  Q 1016.55 229.29 1015.55 229.33
  Q 1010.44 229.55 1005.42 228.95
  Q 1005.03 228.91 1004.91 229.28
  L 1004.83 229.53
  Q 1004.78 229.69 1004.94 229.74"
/>
<path stroke="#999a99" vector-effect="non-scaling-stroke" d="
  M 1024.47 410.19
  Q 1021.70 410.93 1018.44 416.18"
/>
<path stroke="#8c8d8c" vector-effect="non-scaling-stroke" d="
  M 1018.44 416.18
  L 981.80 460.94"
/>
<path stroke="#999a99" vector-effect="non-scaling-stroke" d="
  M 981.80 460.94
  L 976.28 467.89"
/>
<path stroke="#646665" vector-effect="non-scaling-stroke" d="
  M 976.28 467.89
  Q 971.80 472.44 967.16 477.92
  Q 966.21 479.05 964.89 479.41
  Q 963.40 479.81 964.78 480.49
  C 982.41 489.23 1001.92 489.00 1018.72 479.24
  C 1032.82 471.04 1042.89 456.76 1045.89 440.43
  Q 1048.34 427.10 1043.87 413.46
  Q 1037.90 395.25 1021.72 384.28
  C 1006.24 373.79 985.04 371.71 967.81 379.77
  Q 952.15 387.10 943.68 400.52
  Q 929.17 423.50 937.98 449.86
  C 938.99 452.87 940.58 455.43 941.90 458.32
  Q 943.14 461.02 945.38 463.85
  C 950.51 470.33 955.11 475.44 962.64 479.63
  A 0.19 0.19 0.0 0 0 962.90 479.55
  L 963.05 479.27
  A 0.34 0.34 0.0 0 0 962.91 478.82
  Q 961.51 478.03 960.54 476.95
  A 1.11 1.11 0.0 0 1 960.27 476.02
  Q 960.51 474.63 961.50 473.50
  C 964.52 470.04 966.98 466.30 970.02 462.96
  Q 975.21 457.24 979.62 451.58
  C 985.59 443.92 992.02 436.37 998.31 428.82
  Q 1001.72 424.73 1007.43 417.50
  Q 1015.59 407.17 1024.23 397.23
  Q 1026.56 394.55 1026.01 391.85
  Q 1025.70 390.33 1026.52 391.65
  C 1028.00 394.01 1030.57 397.13 1030.64 399.96
  Q 1030.68 401.45 1029.38 402.94
  Q 1027.18 405.46 1024.80 407.89
  Q 1024.44 408.25 1024.41 408.76
  Q 1024.34 409.88 1024.47 410.19"
/>
<path stroke="#858686" vector-effect="non-scaling-stroke" d="
  M 976.28 467.89
  Q 997.52 474.96 1014.64 462.08
  Q 1023.81 455.18 1027.67 444.95
  Q 1034.25 427.53 1024.47 410.19"
/>
<path stroke="#adadad" vector-effect="non-scaling-stroke" d="
  M 981.80 460.94
  Q 1001.92 465.65 1014.93 450.18
  Q 1021.94 441.85 1021.97 430.98
  Q 1021.99 423.32 1018.44 416.18"
/>
<path stroke="#a4a4a5" vector-effect="non-scaling-stroke" d="
  M 992.2136 378.5472
  A 0.76 0.76 0.0 0 0 991.4523 377.7886
  L 989.8123 377.7914
  A 0.76 0.76 0.0 0 0 989.0536 378.5528
  L 989.0664 385.8928
  A 0.76 0.76 0.0 0 0 989.8277 386.6514
  L 991.4677 386.6486
  A 0.76 0.76 0.0 0 0 992.2264 385.8872
  L 992.2136 378.5472"
/>
<path stroke="#a4a4a5" vector-effect="non-scaling-stroke" d="
  M 965.8667 384.8998
  A 0.83 0.83 0.0 0 0 964.7345 384.5901
  L 963.5358 385.2738
  A 0.83 0.83 0.0 0 0 963.2260 386.4060
  L 966.7933 392.6602
  A 0.83 0.83 0.0 0 0 967.9255 392.9699
  L 969.1242 392.2862
  A 0.83 0.83 0.0 0 0 969.4340 391.1540
  L 965.8667 384.8998"
/>
<path stroke="#a4a4a5" vector-effect="non-scaling-stroke" d="
  M 1017.9554 385.8229
  A 1.50 0.78 14.0 0 0 1016.6887 384.7032
  A 1.50 0.78 14.0 0 0 1015.0446 385.0971
  A 1.50 0.78 14.0 0 0 1016.3113 386.2168
  A 1.50 0.78 14.0 0 0 1017.9554 385.8229"
/>
<path stroke="#787979" vector-effect="non-scaling-stroke" d="
  M 962.81 445.68
  L 999.41 401.13"
/>
<path stroke="#858686" vector-effect="non-scaling-stroke" d="
  M 999.41 401.13
  L 1004.85 394.59
  A 0.51 0.51 0.0 0 0 1004.63 393.78
  Q 988.35 388.21 973.63 395.14
  C 959.45 401.81 950.75 416.24 951.10 432.01
  C 951.26 439.25 953.34 445.50 956.92 451.69
  A 0.56 0.55 -40.4 0 0 957.83 451.76
  L 962.81 445.68"
/>
<path stroke="#adadad" vector-effect="non-scaling-stroke" d="
  M 999.41 401.13
  Q 991.00 398.45 982.91 400.51
  Q 975.50 402.40 969.15 408.31
  Q 953.77 422.62 962.81 445.68"
/>
<path stroke="#a4a4a5" vector-effect="non-scaling-stroke" d="
  M 952.6908 408.4526
  A 1.08 1.08 0.0 0 0 952.2955 406.9773
  L 946.3545 403.5473
  A 1.08 1.08 0.0 0 0 944.8792 403.9426
  L 944.4492 404.6874
  A 1.08 1.08 0.0 0 0 944.8445 406.1627
  L 950.7855 409.5927
  A 1.08 1.08 0.0 0 0 952.2608 409.1974
  L 952.6908 408.4526"
/>
<path stroke="#a4a4a5" vector-effect="non-scaling-stroke" d="
  M 1036.4276 403.8211
  A 1.03 1.03 0.0 0 0 1035.0167 403.4588
  L 1029.0260 407.0017
  A 1.03 1.03 0.0 0 0 1028.6637 408.4126
  L 1029.1524 409.2389
  A 1.03 1.03 0.0 0 0 1030.5633 409.6012
  L 1036.5540 406.0583
  A 1.03 1.03 0.0 0 0 1036.9163 404.6474
  L 1036.4276 403.8211"
/>
<path stroke="#a4a4a5" vector-effect="non-scaling-stroke" d="
  M 946.4865 430.3389
  A 1.04 1.04 0.0 0 0 945.4393 429.3062
  L 938.5995 429.3539
  A 1.04 1.04 0.0 0 0 937.5668 430.4011
  L 937.5735 431.3611
  A 1.04 1.04 0.0 0 0 938.6207 432.3938
  L 945.4605 432.3461
  A 1.04 1.04 0.0 0 0 946.4932 431.2989
  L 946.4865 430.3389"
/>
<path stroke="#a4a4a5" vector-effect="non-scaling-stroke" d="
  M 1043.68 430.04
  A 0.68 0.68 0.0 0 0 1043.00 429.36
  L 1035.52 429.36
  A 0.68 0.68 0.0 0 0 1034.84 430.04
  L 1034.84 431.68
  A 0.68 0.68 0.0 0 0 1035.52 432.36
  L 1043.00 432.36
  A 0.68 0.68 0.0 0 0 1043.68 431.68
  L 1043.68 430.04"
/>
<path stroke="#a4a4a5" vector-effect="non-scaling-stroke" d="
  M 1036.9040 457.0876
  A 1.07 1.07 0.0 0 0 1036.5225 455.6233
  L 1030.6057 452.1519
  A 1.07 1.07 0.0 0 0 1029.1413 452.5333
  L 1028.6960 453.2924
  A 1.07 1.07 0.0 0 0 1029.0775 454.7567
  L 1034.9943 458.2281
  A 1.07 1.07 0.0 0 0 1036.4587 457.8467
  L 1036.9040 457.0876"
/>
<path stroke="#a4a4a5" vector-effect="non-scaling-stroke" d="
  M 952.3547 452.7230
  A 1.24 1.24 0.0 0 0 950.6648 452.2544
  L 944.9379 455.4945
  A 1.24 1.24 0.0 0 0 944.4693 457.1844
  L 944.7253 457.6370
  A 1.24 1.24 0.0 0 0 946.4152 458.1056
  L 952.1421 454.8655
  A 1.24 1.24 0.0 0 0 952.6107 453.1756
  L 952.3547 452.7230"
/>
<path stroke="#a4a4a5" vector-effect="non-scaling-stroke" d="
  M 1014.4769 469.0731
  A 0.89 0.89 0.0 0 0 1013.2606 468.7495
  L 1012.1359 469.4015
  A 0.89 0.89 0.0 0 0 1011.8122 470.6178
  L 1015.4231 476.8469
  A 0.89 0.89 0.0 0 0 1016.6394 477.1705
  L 1017.7641 476.5185
  A 0.89 0.89 0.0 0 0 1018.0878 475.3022
  L 1014.4769 469.0731"
/>
<path stroke="#a4a4a5" vector-effect="non-scaling-stroke" d="
  M 992.2038 475.9473
  A 0.93 0.93 0.0 0 0 991.2722 475.0189
  L 990.0122 475.0211
  A 0.93 0.93 0.0 0 0 989.0838 475.9527
  L 989.0962 483.0327
  A 0.93 0.93 0.0 0 0 990.0278 483.9611
  L 991.2878 483.9589
  A 0.93 0.93 0.0 0 0 992.2162 483.0273
  L 992.2038 475.9473"
/>
<path stroke="#646665" vector-effect="non-scaling-stroke" d="
  M 1046.64 570.96
  A 55.98 55.98 0.0 0 0 990.66 514.98
  A 55.98 55.98 0.0 0 0 934.68 570.96
  A 55.98 55.98 0.0 0 0 990.66 626.94
  A 55.98 55.98 0.0 0 0 1046.64 570.96"
/>
<path stroke="#a4a4a5" vector-effect="non-scaling-stroke" d="
  M 992.3178 518.7071
  A 0.80 0.80 0.0 0 0 991.5262 517.8987
  L 989.9063 517.8818
  A 0.80 0.80 0.0 0 0 989.0980 518.6733
  L 989.0222 525.9129
  A 0.80 0.80 0.0 0 0 989.8138 526.7213
  L 991.4337 526.7382
  A 0.80 0.80 0.0 0 0 992.2420 525.9467
  L 992.3178 518.7071"
/>
<path stroke="#a4a4a5" vector-effect="non-scaling-stroke" d="
  M 965.7452 524.8132
  A 0.59 0.59 0.0 0 0 964.9388 524.5986
  L 963.2777 525.5615
  A 0.59 0.59 0.0 0 0 963.0632 526.3679
  L 966.9348 533.0468
  A 0.59 0.59 0.0 0 0 967.7412 533.2614
  L 969.4023 532.2985
  A 0.59 0.59 0.0 0 0 969.6168 531.4921
  L 965.7452 524.8132"
/>
<path stroke="#a4a4a5" vector-effect="non-scaling-stroke" d="
  M 1018.0962 526.5069
  A 0.79 0.79 0.0 0 0 1017.8127 525.4263
  L 1016.5176 524.6695
  A 0.79 0.79 0.0 0 0 1015.4369 524.9530
  L 1011.7438 531.2731
  A 0.79 0.79 0.0 0 0 1012.0273 532.3537
  L 1013.3224 533.1105
  A 0.79 0.79 0.0 0 0 1014.4031 532.8270
  L 1018.0962 526.5069"
/>
<path stroke="#646665" vector-effect="non-scaling-stroke" d="
  M 951.19 567.68
  L 942.82 569.76"
/>
<path stroke="#a4a4a5" vector-effect="non-scaling-stroke" d="
  M 942.82 569.76
  Q 940.82 569.39 939.04 569.58
  Q 938.01 569.68 937.73 570.28
  Q 937.41 570.96 937.74 572.04"
/>
<path stroke="#646665" vector-effect="non-scaling-stroke" d="
  M 937.74 572.04
  L 938.85 573.35
  A 1.01 1.01 0.0 0 1 939.07 574.15
  L 938.51 577.95
  A 0.64 0.64 0.0 0 0 939.39 578.63
  Q 940.53 578.15 941.79 577.85
  Q 963.13 572.71 980.52 568.74
  Q 1003.35 563.51 1021.98 558.88
  Q 1026.83 557.68 1031.59 556.69
  Q 1036.56 555.66 1041.19 554.35
  Q 1041.95 554.14 1041.96 553.35
  Q 1042.05 548.49 1038.34 547.31
  Q 1037.86 547.16 1037.59 546.74
  Q 1037.16 546.07 1037.13 545.44"
/>
<path stroke="#a4a4a5" vector-effect="non-scaling-stroke" d="
  M 1037.13 545.44
  Q 1036.40 543.08 1035.11 543.57
  Q 1030.67 545.26 1028.35 548.40"
/>
<path stroke="#646665" vector-effect="non-scaling-stroke" d="
  M 1028.35 548.40
  Q 1029.29 550.84 1024.49 550.35"
/>
<path stroke="#858686" vector-effect="non-scaling-stroke" d="
  M 1024.49 550.35
  Q 1016.20 537.83 1003.27 533.50
  C 978.93 525.34 953.61 541.92 951.19 567.68"
/>
<path stroke="#999a99" vector-effect="non-scaling-stroke" d="
  M 1024.49 550.35
  L 1016.14 552.53"
/>
<path stroke="#adadad" vector-effect="non-scaling-stroke" d="
  M 1016.14 552.53
  Q 1010.98 546.62 1005.09 543.38
  Q 999.40 540.24 992.89 539.75
  Q 986.82 539.28 980.57 541.47
  Q 963.99 547.26 959.63 565.80"
/>
<path stroke="#999a99" vector-effect="non-scaling-stroke" d="
  M 959.63 565.80
  L 951.19 567.68"
/>
<path stroke="#8c8d8c" vector-effect="non-scaling-stroke" d="
  M 1016.14 552.53
  L 959.63 565.80"
/>
<path stroke="#b7b8b8" vector-effect="non-scaling-stroke" d="
  M 937.74 572.04
  Q 938.66 572.42 939.39 571.86
  Q 939.41 571.84 939.96 571.00
  Q 940.57 570.06 942.82 569.76"
/>
<path stroke="#b7b8b8" vector-effect="non-scaling-stroke" d="
  M 1037.13 545.44
  Q 1035.94 546.41 1031.77 548.80
  Q 1030.03 549.80 1028.35 548.40"
/>
<path stroke="#a4a4a5" vector-effect="non-scaling-stroke" d="
  M 952.6789 548.5343
  A 1.04 1.04 0.0 0 0 952.3107 547.1104
  L 946.3827 543.6185
  A 1.04 1.04 0.0 0 0 944.9587 543.9868
  L 944.4411 544.8657
  A 1.04 1.04 0.0 0 0 944.8093 546.2896
  L 950.7373 549.7815
  A 1.04 1.04 0.0 0 0 952.1613 549.4132
  L 952.6789 548.5343"
/>
<path stroke="#858686" vector-effect="non-scaling-stroke" d="
  M 1038.73 572.54
  Q 1040.72 572.95 1042.95 572.69
  Q 1043.71 572.60 1043.81 571.85
  L 1043.85 571.55
  A 0.39 0.38 3.0 0 0 1043.45 571.11
  Q 1041.12 571.21 1038.71 571.90
  Q 1037.41 572.27 1038.73 572.54"
/>
<path stroke="#787979" vector-effect="non-scaling-stroke" d="
  M 1021.71 576.10
  L 965.19 589.34"
/>
<path stroke="#858686" vector-effect="non-scaling-stroke" d="
  M 965.19 589.34
  L 957.36 591.06
  A 0.61 0.60 66.8 0 0 956.99 591.99
  Q 966.93 606.71 983.13 609.84
  C 1006.44 614.35 1026.99 598.16 1030.04 575.15
  A 0.74 0.74 0.0 0 0 1029.13 574.33
  L 1021.71 576.10"
/>
<path stroke="#adadad" vector-effect="non-scaling-stroke" d="
  M 965.19 589.34
  Q 970.65 596.45 978.57 599.88
  Q 986.20 603.18 994.79 601.94
  C 1007.93 600.05 1019.21 589.89 1021.71 576.10"
/>
<path stroke="#a4a4a5" vector-effect="non-scaling-stroke" d="
  M 1036.9576 596.9849
  A 0.90 0.90 0.0 0 0 1036.6218 595.7572
  L 1030.4545 592.2395
  A 0.90 0.90 0.0 0 0 1029.2268 592.5753
  L 1028.6224 593.6351
  A 0.90 0.90 0.0 0 0 1028.9582 594.8628
  L 1035.1255 598.3805
  A 0.90 0.90 0.0 0 0 1036.3532 598.0447
  L 1036.9576 596.9849"
/>
<path stroke="#a4a4a5" vector-effect="non-scaling-stroke" d="
  M 952.4531 593.0292
  A 1.44 1.44 0.0 0 0 950.4897 592.4885
  L 945.0988 595.5509
  A 1.44 1.44 0.0 0 0 944.5580 597.5142
  L 944.6469 597.6708
  A 1.44 1.44 0.0 0 0 946.6103 598.2115
  L 952.0012 595.1491
  A 1.44 1.44 0.0 0 0 952.5420 593.1858
  L 952.4531 593.0292"
/>
<path stroke="#a4a4a5" vector-effect="non-scaling-stroke" d="
  M 969.3238 611.0064
  A 1.25 1.25 0.0 0 0 968.8604 609.3004
  L 968.3223 608.9923
  A 1.25 1.25 0.0 0 0 966.6164 609.4558
  L 963.3762 615.1136
  A 1.25 1.25 0.0 0 0 963.8396 616.8196
  L 964.3777 617.1277
  A 1.25 1.25 0.0 0 0 966.0836 616.6642
  L 969.3238 611.0064"
/>
<path stroke="#a4a4a5" vector-effect="non-scaling-stroke" d="
  M 1014.6182 609.4344
  A 1.15 1.15 0.0 0 0 1013.0466 609.0162
  L 1012.3198 609.4375
  A 1.15 1.15 0.0 0 0 1011.9017 611.0091
  L 1015.2618 616.8056
  A 1.15 1.15 0.0 0 0 1016.8334 617.2238
  L 1017.5602 616.8025
  A 1.15 1.15 0.0 0 0 1017.9783 615.2309
  L 1014.6182 609.4344"
/>
<path stroke="#a4a4a5" vector-effect="non-scaling-stroke" d="
  M 992.1948 616.0191
  A 0.74 0.74 0.0 0 0 991.4496 615.2842
  L 989.7697 615.2960
  A 0.74 0.74 0.0 0 0 989.0348 616.0411
  L 989.0852 623.2609
  A 0.74 0.74 0.0 0 0 989.8304 623.9958
  L 991.5103 623.9840
  A 0.74 0.74 0.0 0 0 992.2452 623.2389
  L 992.1948 616.0191"
/>
<path stroke="#999a99" vector-effect="non-scaling-stroke" d="
  M 998.09 667.36
  Q 1001.69 664.43 1003.81 660.01"
/>
<path stroke="#838382" vector-effect="non-scaling-stroke" d="
  M 1003.81 660.01
  L 1018.19 639.85
  A 1.21 1.21 0.0 0 0 1017.22 637.94
  Q 972.76 637.60 927.07 637.89
  C 920.64 637.93 918.06 642.27 918.22 648.19
  Q 918.41 655.58 918.24 662.53
  C 918.10 667.76 920.83 671.72 926.34 672.07
  Q 933.16 672.51 940.68 672.25
  Q 947.65 672.01 955.32 672.11
  Q 973.04 672.32 991.58 672.12
  Q 993.76 672.10 995.74 671.23
  Q 996.19 671.03 996.29 670.55
  Q 996.63 668.85 998.09 667.36"
/>
<path stroke="#a5a4a3" vector-effect="non-scaling-stroke" d="
  M 1003.81 660.01
  Q 1003.88 658.39 1004.19 656.81
  C 1005.86 648.09 998.25 640.95 989.75 641.34
  C 978.72 641.84 973.38 654.18 979.32 662.83
  Q 982.26 667.12 987.41 668.36
  Q 992.43 669.57 998.09 667.36"
/>
<path stroke="#999a99" vector-effect="non-scaling-stroke" d="
  M 1047.76 655.05
  A 13.74 13.74 0.0 0 0 1034.02 641.31
  A 13.74 13.74 0.0 0 0 1020.28 655.05
  A 13.74 13.74 0.0 0 0 1034.02 668.79
  A 13.74 13.74 0.0 0 0 1047.76 655.05"
/>
<path stroke="#a5a4a3" vector-effect="non-scaling-stroke" d="
  M 961.08 655.02
  A 13.81 13.81 0.0 0 0 947.27 641.21
  A 13.81 13.81 0.0 0 0 933.46 655.02
  A 13.81 13.81 0.0 0 0 947.27 668.83
  A 13.81 13.81 0.0 0 0 961.08 655.02"
/>
<path stroke="#999a99" vector-effect="non-scaling-stroke" d="
  M 958.25 655.08
  A 10.98 10.98 0.0 0 0 947.27 644.10
  A 10.98 10.98 0.0 0 0 936.29 655.08
  A 10.98 10.98 0.0 0 0 947.27 666.06
  A 10.98 10.98 0.0 0 0 958.25 655.08"
/>
<path stroke="#999a99" vector-effect="non-scaling-stroke" d="
  M 1001.62 655.03
  A 10.99 10.99 0.0 0 0 990.63 644.04
  A 10.99 10.99 0.0 0 0 979.64 655.03
  A 10.99 10.99 0.0 0 0 990.63 666.02
  A 10.99 10.99 0.0 0 0 1001.62 655.03"
/>
<path stroke="#999a99" vector-effect="non-scaling-stroke" d="
  M 1045.07 655.05
  A 11.03 11.03 0.0 0 0 1034.04 644.02
  A 11.03 11.03 0.0 0 0 1023.01 655.05
  A 11.03 11.03 0.0 0 0 1034.04 666.08
  A 11.03 11.03 0.0 0 0 1045.07 655.05"
/>
<path stroke="#b7b8b8" vector-effect="non-scaling-stroke" d="
  M 997.44 655.05
  A 6.94 6.94 0.0 0 0 990.50 648.11
  A 6.94 6.94 0.0 0 0 983.56 655.05
  A 6.94 6.94 0.0 0 0 990.50 661.99
  A 6.94 6.94 0.0 0 0 997.44 655.05"
/>
<path stroke="#999a99" vector-effect="non-scaling-stroke" d="
  M 1040.94 655.03
  A 7.04 7.04 0.0 0 0 1033.90 647.99
  A 7.04 7.04 0.0 0 0 1026.86 655.03
  A 7.04 7.04 0.0 0 0 1033.90 662.07
  A 7.04 7.04 0.0 0 0 1040.94 655.03"
/>
<path stroke="#b7b8b8" vector-effect="non-scaling-stroke" d="
  M 954.16 655.02
  A 6.97 6.97 0.0 0 0 947.19 648.05
  A 6.97 6.97 0.0 0 0 940.22 655.02
  A 6.97 6.97 0.0 0 0 947.19 661.99
  A 6.97 6.97 0.0 0 0 954.16 655.02"
/>
<path stroke="#cccbcc" vector-effect="non-scaling-stroke" d="
  M 953.03 654.99
  A 5.68 5.68 0.0 0 0 947.35 649.31
  A 5.68 5.68 0.0 0 0 941.67 654.99
  A 5.68 5.68 0.0 0 0 947.35 660.67
  A 5.68 5.68 0.0 0 0 953.03 654.99"
/>
<path stroke="#cccbcc" vector-effect="non-scaling-stroke" d="
  M 996.41 655.05
  A 5.70 5.70 0.0 0 0 990.71 649.35
  A 5.70 5.70 0.0 0 0 985.01 655.05
  A 5.70 5.70 0.0 0 0 990.71 660.75
  A 5.70 5.70 0.0 0 0 996.41 655.05"
/>
<path stroke="#adadad" vector-effect="non-scaling-stroke" d="
  M 1039.42 655.01
  A 5.45 5.45 0.0 0 0 1033.97 649.56
  A 5.45 5.45 0.0 0 0 1028.52 655.01
  A 5.45 5.45 0.0 0 0 1033.97 660.46
  A 5.45 5.45 0.0 0 0 1039.42 655.01"
/>
<path stroke="#a69a96" vector-effect="non-scaling-stroke" d="
  M 1062.99 726.00
  Q 1070.04 720.20 1076.61 712.64"
/>
<path stroke="#a5a4a3" vector-effect="non-scaling-stroke" d="
  M 24.77 712.07
  Q 23.67 711.85 23.83 712.59"
/>
</g>
<path fill="#553e33" d="
  M 1099.96 13.96
  L 712.96 14.01
  Q 712.07 14.06 711.05 13.81
  Q 710.07 13.58 709.12 13.58
  Q 390.22 13.45 71.26 13.56
  Q 61.47 13.57 51.25 13.71
  Q 29.84 14.02 8.01 14.02
  C 16.16 4.08 27.79 1.01 40.00 1.02
  Q 365.75 1.46 691.51 1.04
  Q 701.24 1.03 711.51 1.05
  Q 891.13 1.39 1070.75 1.09
  C 1082.19 1.07 1092.97 5.02 1099.96 13.96
  Z"
/>
<path fill="#73412b" d="
  M 712.96 14.01
  L 708.87 29.00
  A 1.24 1.22 34.3 0 0 709.08 30.05
  L 709.35 30.40
  Q 709.87 31.08 709.02 31.25
  L 707.79 31.50
  Q 393.77 31.52 79.75 31.60
  C 60.96 31.61 47.01 46.01 47.01 64.75
  Q 47.02 331.05 47.01 647.31
  C 47.01 661.99 56.39 674.60 70.31 678.74
  Q 74.73 680.06 85.34 680.06
  Q 296.11 680.01 507.01 680.09
  Q 508.09 680.92 506.90 684.74
  Q 503.98 694.17 501.36 703.69
  Q 501.30 703.92 500.17 707.48
  Q 499.54 709.48 499.28 711.37
  Q 457.62 711.07 415.50 711.08
  Q 245.04 711.14 88.25 711.28
  Q 60.97 711.30 35.75 711.56
  Q 33.56 711.58 32.15 712.59
  Q 31.75 712.87 31.27 712.85
  Q 29.77 712.79 29.70 713.85
  Q 29.63 713.80 29.55 713.75
  Q 28.18 711.46 24.77 712.07
  L 17.14 711.67
  Q 16.16 711.70 14.77 711.04
  Q 14.89 711.13 14.97 710.94
  Q 15.03 710.80 14.89 710.74
  L 9.11 708.10
  Q 2.26 702.65 0.96 693.23
  Q 0.43 689.34 0.41 685.75
  C 0.26 650.58 0.71 615.44 0.69 580.31
  Q 0.58 306.42 0.30 43.87
  C 0.30 36.47 0.81 29.41 2.97 22.99
  Q 4.54 18.31 8.01 14.02
  Q 29.84 14.02 51.25 13.71
  Q 61.47 13.57 71.26 13.56
  Q 390.22 13.45 709.12 13.58
  Q 710.07 13.58 711.05 13.81
  Q 712.07 14.06 712.96 14.01
  Z"
/>
<path fill="#775341" d="
  M 1099.96 13.96
  Q 1104.28 18.14 1105.00 23.37
  L 1105.00 697.79
  Q 1100.58 706.88 1092.02 710.00
  Q 1089.99 710.74 1084.34 711.23
  Q 1080.20 711.58 1076.61 712.64
  Q 1074.96 711.42 1071.75 711.46
  C 1064.40 711.56 1056.11 711.26 1049.74 711.26
  Q 780.49 711.34 511.24 711.25
  Q 510.45 711.25 505.27 711.45
  Q 502.37 711.56 499.28 711.37
  Q 499.54 709.48 500.17 707.48
  Q 501.30 703.92 501.36 703.69
  Q 503.98 694.17 506.90 684.74
  Q 508.09 680.92 507.01 680.09
  Q 675.69 680.15 844.50 679.99
  Q 849.96 679.99 853.82 679.66
  C 866.19 678.60 877.34 669.09 880.90 656.97
  Q 882.34 652.06 882.33 640.74
  Q 882.20 356.12 882.32 66.47
  C 882.33 58.24 880.88 51.61 876.20 45.02
  C 870.75 37.36 861.67 32.18 851.92 31.68
  Q 848.41 31.50 845.25 31.49
  Q 776.52 31.35 707.79 31.50
  L 709.02 31.25
  Q 709.87 31.08 709.35 30.40
  L 709.08 30.05
  A 1.24 1.22 34.3 0 1 708.87 29.00
  L 712.96 14.01
  L 1099.96 13.96
  Z
  M 1086.76 31.82
  A 0.31 0.31 0.0 0 0 1086.45 31.51
  L 894.79 31.51
  A 0.31 0.31 0.0 0 0 894.48 31.82
  L 894.48 679.74
  A 0.31 0.31 0.0 0 0 894.79 680.05
  L 1086.45 680.05
  A 0.31 0.31 0.0 0 0 1086.76 679.74
  L 1086.76 31.82
  Z"
/>
<path fill="#8f8d8c" d="
  M 507.01 680.09
  Q 296.11 680.01 85.34 680.06
  Q 74.73 680.06 70.31 678.74
  C 56.39 674.60 47.01 661.99 47.01 647.31
  Q 47.02 331.05 47.01 64.75
  C 47.01 46.01 60.96 31.61 79.75 31.60
  Q 393.77 31.52 707.79 31.50
  Q 776.52 31.35 845.25 31.49
  Q 848.41 31.50 851.92 31.68
  C 861.67 32.18 870.75 37.36 876.20 45.02
  C 880.88 51.61 882.33 58.24 882.32 66.47
  Q 882.20 356.12 882.33 640.74
  Q 882.34 652.06 880.90 656.97
  C 877.34 669.09 866.19 678.60 853.82 679.66
  Q 849.96 679.99 844.50 679.99
  Q 675.69 680.15 507.01 680.09
  Z
  M 62.32 51.30
  Q 57.62 57.41 56.77 65.09
  Q 56.63 66.32 56.70 77.42
  C 56.89 108.08 56.54 139.00 56.56 170.50
  Q 56.74 399.29 56.67 628.08
  C 56.67 633.29 56.44 638.53 56.65 643.75
  Q 57.03 653.19 62.60 660.02
  Q 63.07 661.44 63.55 661.97
  Q 69.24 668.23 77.03 670.95
  C 81.72 672.59 87.16 672.61 92.25 672.57
  Q 99.13 672.52 106.75 672.53
  Q 336.27 672.84 667.75 672.78
  Q 770.52 672.76 842.00 672.53
  Q 858.39 672.48 867.48 659.16
  Q 872.62 651.59 872.62 641.25
  Q 872.58 359.72 872.54 78.20
  Q 872.54 78.07 872.71 72.81
  Q 873.05 62.46 868.35 53.15
  Q 867.84 52.14 867.08 52.47
  Q 867.38 51.33 866.32 50.18
  C 860.07 43.41 852.60 39.07 843.50 38.99
  Q 823.67 38.81 801.00 38.81
  Q 448.67 38.84 96.34 38.84
  C 91.42 38.84 86.46 38.60 81.74 39.32
  Q 72.77 40.70 66.08 47.09
  Q 63.93 49.14 62.32 51.30
  Z"
/>
<path fill="#a0a0a0" d="
  M 1086.76 679.74
  A 0.31 0.31 0.0 0 1 1086.45 680.05
  L 894.79 680.05
  A 0.31 0.31 0.0 0 1 894.48 679.74
  L 894.48 31.82
  A 0.31 0.31 0.0 0 1 894.79 31.51
  L 1086.45 31.51
  A 0.31 0.31 0.0 0 1 1086.76 31.82
  L 1086.76 679.74
  Z
  M 1075.50 55.98
  A 0.48 0.48 0.0 0 0 1075.02 55.50
  L 906.24 55.50
  A 0.48 0.48 0.0 0 0 905.76 55.98
  L 905.76 349.76
  A 0.48 0.48 0.0 0 0 906.24 350.24
  L 1075.02 350.24
  A 0.48 0.48 0.0 0 0 1075.50 349.76
  L 1075.50 55.98
  Z
  M 1050.36 430.88
  A 59.69 59.69 0.0 0 0 990.67 371.19
  A 59.69 59.69 0.0 0 0 930.98 430.88
  A 59.69 59.69 0.0 0 0 990.67 490.57
  A 59.69 59.69 0.0 0 0 1050.36 430.88
  Z
  M 1050.33 571.04
  A 59.69 59.69 0.0 0 0 990.64 511.35
  A 59.69 59.69 0.0 0 0 930.95 571.04
  A 59.69 59.69 0.0 0 0 990.64 630.73
  A 59.69 59.69 0.0 0 0 1050.33 571.04
  Z
  M 1064.75 646.11
  A 9.63 9.63 0.0 0 0 1055.12 636.48
  L 926.42 636.48
  A 9.63 9.63 0.0 0 0 916.79 646.11
  L 916.79 664.05
  A 9.63 9.63 0.0 0 0 926.42 673.68
  L 1055.12 673.68
  A 9.63 9.63 0.0 0 0 1064.75 664.05
  L 1064.75 646.11
  Z"
/>
<path fill="#777978" d="
  M 867.08 52.47
  L 816.35 103.39
  L 811.52 100.38
  Q 806.80 97.09 800.75 95.78
  Q 793.94 94.30 787.02 93.65
  C 783.95 93.37 781.03 92.63 777.99 92.28
  Q 759.91 90.21 742.26 88.06
  Q 711.30 84.31 663.25 80.87
  Q 578.83 74.83 482.25 74.88
  Q 389.06 74.92 308.75 80.07
  Q 252.01 83.71 237.24 84.98
  Q 167.86 90.94 130.24 95.73
  Q 122.18 96.76 113.52 102.59
  L 62.32 51.30
  Q 63.93 49.14 66.08 47.09
  Q 72.77 40.70 81.74 39.32
  C 86.46 38.60 91.42 38.84 96.34 38.84
  Q 448.67 38.84 801.00 38.81
  Q 823.67 38.81 843.50 38.99
  C 852.60 39.07 860.07 43.41 866.32 50.18
  Q 867.38 51.33 867.08 52.47
  Z"
/>
<path fill="#a0a0a0" d="
  M 62.32 51.30
  L 113.52 102.59
  Q 104.44 109.48 100.21 119.59
  Q 97.93 125.06 97.01 133.68
  Q 95.95 143.55 95.24 151.53
  Q 92.40 183.52 91.59 217.00
  Q 91.43 223.50 90.74 230.85
  C 89.85 240.43 89.72 250.13 89.63 259.78
  L 89.37 294.27
  Q 88.81 304.51 89.30 314.73
  Q 89.77 324.42 89.58 330.32
  Q 89.21 342.48 89.68 354.08
  Q 90.12 364.82 90.16 374.27
  C 90.23 389.53 90.86 405.02 91.17 420.24
  C 91.25 424.24 91.56 428.24 91.58 432.34
  Q 91.60 436.63 91.81 441.24
  Q 93.51 479.39 95.00 516.12
  Q 95.37 525.19 96.07 534.32
  C 96.97 545.95 97.72 556.94 98.26 568.25
  Q 98.82 580.22 100.29 588.25
  C 101.90 597.14 106.45 603.16 112.84 609.22
  L 62.60 660.02
  Q 57.03 653.19 56.65 643.75
  C 56.44 638.53 56.67 633.29 56.67 628.08
  Q 56.74 399.29 56.56 170.50
  C 56.54 139.00 56.89 108.08 56.70 77.42
  Q 56.63 66.32 56.77 65.09
  Q 57.62 57.41 62.32 51.30
  Z"
/>
<path fill="#a0a0a0" d="
  M 867.08 52.47
  Q 867.84 52.14 868.35 53.15
  Q 873.05 62.46 872.71 72.81
  Q 872.54 78.07 872.54 78.20
  Q 872.58 359.72 872.62 641.25
  Q 872.62 651.59 867.48 659.16
  L 818.68 610.49
  Q 828.71 601.87 831.02 589.46
  Q 831.94 584.50 832.81 579.31
  Q 833.68 574.15 833.56 569.29
  Q 833.33 559.78 834.94 551.03
  Q 835.87 545.97 835.92 540.76
  Q 836.03 530.21 837.10 518.36
  Q 838.07 507.68 838.11 498.49
  Q 838.19 484.89 838.97 472.06
  C 839.40 465.03 840.37 458.38 840.29 451.33
  Q 840.14 438.11 840.66 421.77
  Q 841.84 384.35 841.72 341.20
  Q 841.69 330.71 841.36 320.49
  Q 840.27 285.84 840.27 251.81
  C 840.27 245.80 839.20 239.68 839.04 233.74
  Q 838.69 220.36 838.16 207.50
  C 837.99 203.55 838.20 199.38 837.63 195.36
  Q 836.07 184.25 835.87 173.93
  Q 835.78 168.98 834.86 163.80
  C 833.66 157.00 833.51 150.07 833.56 142.99
  C 833.60 137.34 831.92 132.39 831.46 126.88
  Q 831.15 123.22 829.40 119.22
  Q 825.00 109.14 816.35 103.39
  L 867.08 52.47
  Z"
/>
<path fill="#393939" d="
  M 1075.50 349.76
  A 0.48 0.48 0.0 0 1 1075.02 350.24
  L 906.24 350.24
  A 0.48 0.48 0.0 0 1 905.76 349.76
  L 905.76 55.98
  A 0.48 0.48 0.0 0 1 906.24 55.50
  L 1075.02 55.50
  A 0.48 0.48 0.0 0 1 1075.50 55.98
  L 1075.50 349.76
  Z
  M 997.65 65.91
  Q 1000.77 66.53 1003.62 66.54
  Q 1015.68 66.57 1028.01 66.77
  Q 1047.55 67.10 1072.79 66.65
  Q 1073.13 66.65 1073.13 66.31
  L 1073.13 65.53
  A 0.35 0.35 0.0 0 0 1072.78 65.18
  L 909.25 65.25
  Q 908.70 65.25 908.70 65.80
  L 908.69 66.09
  Q 908.69 66.40 909.01 66.41
  Q 936.32 67.14 963.46 66.84
  C 964.52 66.82 965.46 66.56 966.53 66.59
  Q 973.09 66.79 979.30 66.44
  C 981.04 66.34 982.46 65.51 984.28 65.59
  Q 988.05 65.75 991.78 65.54
  Q 994.90 65.35 997.65 65.91
  Z
  M 977.42 221.78
  Q 975.02 221.78 972.72 221.90
  Q 969.23 222.09 965.76 221.94
  Q 958.31 221.61 950.41 221.84
  C 936.80 222.24 923.33 222.16 909.81 222.11
  Q 909.26 222.11 909.37 222.64
  L 909.45 223.01
  Q 909.49 223.19 909.67 223.19
  Q 938.03 223.46 965.22 223.39
  C 968.38 223.38 971.36 223.89 974.50 223.73
  Q 982.05 223.36 990.37 223.88
  C 997.27 224.31 1004.49 224.42 1011.40 223.76
  Q 1015.51 223.37 1019.27 223.90
  C 1020.34 224.05 1021.24 223.56 1022.25 223.58
  Q 1031.44 223.78 1040.90 223.44
  C 1042.74 223.38 1044.51 223.82 1046.31 223.61
  Q 1048.26 223.38 1050.25 223.38
  Q 1061.56 223.37 1072.59 223.39
  Q 1073.13 223.39 1073.13 222.85
  L 1073.13 222.31
  A 0.60 0.60 0.0 0 0 1072.48 221.71
  Q 1063.68 222.38 1054.74 222.05
  Q 1046.37 221.74 1037.50 221.77
  Q 1036.64 221.78 1035.75 221.78
  Q 1019.44 221.74 1005.75 221.43
  Q 994.57 221.17 982.10 221.68
  Q 979.77 221.78 977.42 221.78
  Z
  M 1004.94 229.74
  L 1010.01 231.49
  Q 1010.55 231.68 1011.12 231.62
  Q 1014.82 231.27 1018.96 231.38
  Q 1019.48 231.39 1019.95 231.57
  Q 1020.50 231.78 1021.02 231.52
  Q 1021.49 231.28 1022.02 231.31
  Q 1025.49 231.51 1029.01 231.36
  C 1040.40 230.86 1051.86 231.13 1063.26 230.96
  Q 1067.93 230.89 1072.76 231.19
  A 0.38 0.38 0.0 0 0 1073.15 230.73
  L 1073.06 230.27
  A 0.55 0.55 0.0 0 0 1072.50 229.84
  Q 1069.17 229.96 1065.99 229.98
  Q 1043.36 230.14 1019.38 229.83
  Q 1018.40 229.82 1017.50 229.56
  Q 1016.55 229.29 1015.55 229.33
  Q 1010.44 229.55 1005.42 228.95
  Q 1005.03 228.91 1004.91 229.28
  L 1004.83 229.53
  Q 1004.78 229.69 1004.94 229.74
  Z"
/>
<path fill="#505251" d="
  M 991.78 65.54
  Q 988.05 65.75 984.28 65.59
  C 982.46 65.51 981.04 66.34 979.30 66.44
  Q 973.09 66.79 966.53 66.59
  C 965.46 66.56 964.52 66.82 963.46 66.84
  Q 936.32 67.14 909.01 66.41
  Q 908.69 66.40 908.69 66.09
  L 908.70 65.80
  Q 908.70 65.25 909.25 65.25
  L 1072.78 65.18
  A 0.35 0.35 0.0 0 1 1073.13 65.53
  L 1073.13 66.31
  Q 1073.13 66.65 1072.79 66.65
  Q 1047.55 67.10 1028.01 66.77
  Q 1015.68 66.57 1003.62 66.54
  Q 1000.77 66.53 997.65 65.91
  Q 994.90 65.35 991.78 65.54
  Z"
/>
<path fill="#f7f6f8" d="
  M 811.52 100.38
  Q 804.55 97.01 796.99 95.84
  Q 791.53 95.00 786.01 94.17
  C 780.15 93.30 774.20 94.13 768.37 93.11
  C 764.84 92.49 761.19 92.17 757.63 91.39
  Q 755.55 90.94 753.25 90.82
  C 748.35 90.57 743.95 89.44 739.15 89.25
  C 734.52 89.06 730.08 87.76 725.43 87.80
  Q 713.94 87.90 702.79 87.22
  C 696.10 86.81 689.51 88.63 682.77 89.15
  Q 677.49 89.55 672.44 90.03
  Q 664.80 90.76 655.00 88.18
  Q 654.36 88.01 654.22 87.36
  Q 654.02 86.41 654.82 85.69
  Q 655.91 84.70 654.56 84.13
  C 651.84 82.97 648.82 81.92 645.83 81.81
  C 640.53 81.62 635.32 80.49 629.95 80.41
  Q 614.88 80.17 600.37 79.51
  C 591.21 79.09 582.14 79.61 572.76 79.78
  Q 564.27 79.94 552.76 79.13
  Q 542.76 78.43 532.75 77.87
  C 525.66 77.48 518.77 78.15 511.84 77.98
  Q 504.74 77.81 499.18 78.73
  Q 493.14 79.72 489.88 79.18
  Q 481.32 77.77 474.38 78.88
  C 465.62 80.29 455.87 79.71 447.46 79.00
  C 441.79 78.52 436.02 79.16 430.31 79.08
  Q 396.14 78.60 362.14 78.84
  Q 354.23 78.90 343.27 79.96
  C 335.61 80.70 328.07 80.04 320.35 81.08
  C 312.84 82.10 305.51 81.41 297.87 82.56
  Q 286.63 84.27 277.57 84.60
  Q 270.13 84.88 261.89 85.71
  Q 253.56 86.56 245.37 86.34
  Q 240.98 86.22 236.34 87.09
  C 230.09 88.26 223.79 87.43 217.46 88.22
  Q 210.93 89.04 204.78 89.58
  C 202.22 89.80 199.92 90.81 197.28 90.76
  Q 191.94 90.65 189.33 91.17
  C 184.15 92.21 178.90 92.38 173.70 93.23
  C 167.95 94.16 162.33 93.44 156.50 94.41
  Q 149.89 95.50 143.93 95.39
  C 140.30 95.32 136.97 96.49 133.39 96.82
  C 131.00 97.04 128.74 98.41 126.34 99.06
  C 120.35 100.66 114.74 103.57 110.70 108.32
  C 108.11 111.39 104.77 114.16 103.13 117.95
  Q 101.99 120.59 101.44 122.91
  C 100.42 127.28 98.87 131.90 98.93 136.45
  Q 98.99 141.67 97.86 146.55
  Q 96.92 150.62 96.74 155.17
  Q 96.12 170.16 95.38 185.16
  C 95.13 190.22 95.37 195.27 95.22 200.34
  Q 95.05 205.95 95.26 211.66
  Q 95.54 219.15 95.61 227.00
  C 95.66 231.56 94.35 235.93 93.10 240.17
  C 91.82 244.53 91.81 250.10 92.93 254.21
  C 93.80 257.40 95.66 260.11 95.40 263.62
  Q 95.14 267.15 95.50 270.99
  C 95.75 273.65 94.40 276.62 94.25 279.39
  Q 93.83 287.08 93.40 294.47
  Q 93.15 298.79 92.28 303.05
  Q 91.25 308.04 91.91 312.08
  C 92.76 317.38 92.56 322.67 93.49 327.92
  Q 94.40 332.99 93.58 337.11
  C 91.96 345.27 92.44 353.53 94.20 361.51
  Q 95.23 366.19 95.36 370.83
  Q 95.67 381.87 95.76 393.53
  C 95.79 398.38 95.04 402.86 95.94 407.80
  C 96.19 409.17 95.88 411.15 95.45 412.48
  Q 94.53 415.35 94.83 418.39
  Q 95.68 427.08 95.09 437.11
  C 94.81 441.89 96.13 446.34 95.65 451.17
  C 95.12 456.65 95.28 461.99 95.12 467.58
  Q 95.00 471.91 95.22 476.38
  Q 95.72 486.23 96.30 496.17
  C 96.44 498.62 97.12 501.12 96.85 503.52
  Q 96.58 505.88 96.59 508.93
  Q 96.63 515.47 96.70 522.27
  Q 96.77 528.66 97.57 535.54
  Q 98.47 543.23 98.94 550.86
  C 99.13 554.11 100.00 557.26 99.70 560.49
  C 99.27 565.05 100.06 569.30 101.33 573.61
  Q 102.07 576.11 101.81 578.74
  C 100.88 587.93 102.35 596.24 108.38 603.15
  Q 114.18 609.80 117.36 611.40
  Q 121.83 613.66 126.26 616.44
  Q 121.73 615.32 117.72 612.59
  Q 115.23 610.90 112.84 609.22
  C 106.45 603.16 101.90 597.14 100.29 588.25
  Q 98.82 580.22 98.26 568.25
  C 97.72 556.94 96.97 545.95 96.07 534.32
  Q 95.37 525.19 95.00 516.12
  Q 93.51 479.39 91.81 441.24
  Q 91.60 436.63 91.58 432.34
  C 91.56 428.24 91.25 424.24 91.17 420.24
  C 90.86 405.02 90.23 389.53 90.16 374.27
  Q 90.12 364.82 89.68 354.08
  Q 89.21 342.48 89.58 330.32
  Q 89.77 324.42 89.30 314.73
  Q 88.81 304.51 89.37 294.27
  Q 90.19 276.53 90.21 269.25
  Q 90.21 267.34 89.63 259.78
  C 89.72 250.13 89.85 240.43 90.74 230.85
  Q 91.43 223.50 91.59 217.00
  Q 92.40 183.52 95.24 151.53
  Q 95.95 143.55 97.01 133.68
  Q 97.93 125.06 100.21 119.59
  Q 104.44 109.48 113.52 102.59
  Q 122.18 96.76 130.24 95.73
  Q 167.86 90.94 237.24 84.98
  Q 252.01 83.71 308.75 80.07
  Q 389.06 74.92 482.25 74.88
  Q 578.83 74.83 663.25 80.87
  Q 711.30 84.31 742.26 88.06
  Q 759.91 90.21 777.99 92.28
  C 781.03 92.63 783.95 93.37 787.02 93.65
  Q 793.94 94.30 800.75 95.78
  Q 806.80 97.09 811.52 100.38
  Z"
/>
<path fill="#505251" d="
  M 982.10 221.68
  Q 994.57 221.17 1005.75 221.43
  Q 1019.44 221.74 1035.75 221.78
  Q 1036.64 221.78 1037.50 221.77
  Q 1046.37 221.74 1054.74 222.05
  Q 1063.68 222.38 1072.48 221.71
  A 0.60 0.60 0.0 0 1 1073.13 222.31
  L 1073.13 222.85
  Q 1073.13 223.39 1072.59 223.39
  Q 1061.56 223.37 1050.25 223.38
  Q 1048.26 223.38 1046.31 223.61
  C 1044.51 223.82 1042.74 223.38 1040.90 223.44
  Q 1031.44 223.78 1022.25 223.58
  C 1021.24 223.56 1020.34 224.05 1019.27 223.90
  Q 1015.51 223.37 1011.40 223.76
  C 1004.49 224.42 997.27 224.31 990.37 223.88
  Q 982.05 223.36 974.50 223.73
  C 971.36 223.89 968.38 223.38 965.22 223.39
  Q 938.03 223.46 909.67 223.19
  Q 909.49 223.19 909.45 223.01
  L 909.37 222.64
  Q 909.26 222.11 909.81 222.11
  C 923.33 222.16 936.80 222.24 950.41 221.84
  Q 958.31 221.61 965.76 221.94
  Q 969.23 222.09 972.72 221.90
  Q 975.02 221.78 977.42 221.78
  Q 979.77 221.78 982.10 221.68
  Z"
/>
<path fill="#505251" d="
  M 1004.94 229.74
  Q 1004.78 229.69 1004.83 229.53
  L 1004.91 229.28
  Q 1005.03 228.91 1005.42 228.95
  Q 1010.44 229.55 1015.55 229.33
  Q 1016.55 229.29 1017.50 229.56
  Q 1018.40 229.82 1019.38 229.83
  Q 1043.36 230.14 1065.99 229.98
  Q 1069.17 229.96 1072.50 229.84
  A 0.55 0.55 0.0 0 1 1073.06 230.27
  L 1073.15 230.73
  A 0.38 0.38 0.0 0 1 1072.76 231.19
  Q 1067.93 230.89 1063.26 230.96
  C 1051.86 231.13 1040.40 230.86 1029.01 231.36
  Q 1025.49 231.51 1022.02 231.31
  Q 1021.49 231.28 1021.02 231.52
  Q 1020.50 231.78 1019.95 231.57
  Q 1019.48 231.39 1018.96 231.38
  Q 1014.82 231.27 1011.12 231.62
  Q 1010.55 231.68 1010.01 231.49
  L 1004.94 229.74
  Z"
/>
<path fill="#bababa" d="
  M 89.63 259.78
  Q 90.21 267.34 90.21 269.25
  Q 90.19 276.53 89.37 294.27
  L 89.63 259.78
  Z"
/>
<path fill="#777978" d="
  M 1050.36 430.88
  A 59.69 59.69 0.0 0 1 990.67 490.57
  A 59.69 59.69 0.0 0 1 930.98 430.88
  A 59.69 59.69 0.0 0 1 990.67 371.19
  A 59.69 59.69 0.0 0 1 1050.36 430.88
  Z
  M 1024.47 410.19
  Q 1021.70 410.93 1018.44 416.18
  L 981.80 460.94
  L 976.28 467.89
  Q 971.80 472.44 967.16 477.92
  Q 966.21 479.05 964.89 479.41
  Q 963.40 479.81 964.78 480.49
  C 982.41 489.23 1001.92 489.00 1018.72 479.24
  C 1032.82 471.04 1042.89 456.76 1045.89 440.43
  Q 1048.34 427.10 1043.87 413.46
  Q 1037.90 395.25 1021.72 384.28
  C 1006.24 373.79 985.04 371.71 967.81 379.77
  Q 952.15 387.10 943.68 400.52
  Q 929.17 423.50 937.98 449.86
  C 938.99 452.87 940.58 455.43 941.90 458.32
  Q 943.14 461.02 945.38 463.85
  C 950.51 470.33 955.11 475.44 962.64 479.63
  A 0.19 0.19 0.0 0 0 962.90 479.55
  L 963.05 479.27
  A 0.34 0.34 0.0 0 0 962.91 478.82
  Q 961.51 478.03 960.54 476.95
  A 1.11 1.11 0.0 0 1 960.27 476.02
  Q 960.51 474.63 961.50 473.50
  C 964.52 470.04 966.98 466.30 970.02 462.96
  Q 975.21 457.24 979.62 451.58
  C 985.59 443.92 992.02 436.37 998.31 428.82
  Q 1001.72 424.73 1007.43 417.50
  Q 1015.59 407.17 1024.23 397.23
  Q 1026.56 394.55 1026.01 391.85
  Q 1025.70 390.33 1026.52 391.65
  C 1028.00 394.01 1030.57 397.13 1030.64 399.96
  Q 1030.68 401.45 1029.38 402.94
  Q 1027.18 405.46 1024.80 407.89
  Q 1024.44 408.25 1024.41 408.76
  Q 1024.34 409.88 1024.47 410.19
  Z"
/>
<path fill="#505251" d="
  M 976.28 467.89
  Q 997.52 474.96 1014.64 462.08
  Q 1023.81 455.18 1027.67 444.95
  Q 1034.25 427.53 1024.47 410.19
  Q 1024.34 409.88 1024.41 408.76
  Q 1024.44 408.25 1024.80 407.89
  Q 1027.18 405.46 1029.38 402.94
  Q 1030.68 401.45 1030.64 399.96
  C 1030.57 397.13 1028.00 394.01 1026.52 391.65
  Q 1025.70 390.33 1026.01 391.85
  Q 1026.56 394.55 1024.23 397.23
  Q 1015.59 407.17 1007.43 417.50
  Q 1001.72 424.73 998.31 428.82
  C 992.02 436.37 985.59 443.92 979.62 451.58
  Q 975.21 457.24 970.02 462.96
  C 966.98 466.30 964.52 470.04 961.50 473.50
  Q 960.51 474.63 960.27 476.02
  A 1.11 1.11 0.0 0 0 960.54 476.95
  Q 961.51 478.03 962.91 478.82
  A 0.34 0.34 0.0 0 1 963.05 479.27
  L 962.90 479.55
  A 0.19 0.19 0.0 0 1 962.64 479.63
  C 955.11 475.44 950.51 470.33 945.38 463.85
  Q 943.14 461.02 941.90 458.32
  C 940.58 455.43 938.99 452.87 937.98 449.86
  Q 929.17 423.50 943.68 400.52
  Q 952.15 387.10 967.81 379.77
  C 985.04 371.71 1006.24 373.79 1021.72 384.28
  Q 1037.90 395.25 1043.87 413.46
  Q 1048.34 427.10 1045.89 440.43
  C 1042.89 456.76 1032.82 471.04 1018.72 479.24
  C 1001.92 489.00 982.41 489.23 964.78 480.49
  Q 963.40 479.81 964.89 479.41
  Q 966.21 479.05 967.16 477.92
  Q 971.80 472.44 976.28 467.89
  Z
  M 992.2136 378.5472
  A 0.76 0.76 0.0 0 0 991.4523 377.7886
  L 989.8123 377.7914
  A 0.76 0.76 0.0 0 0 989.0536 378.5528
  L 989.0664 385.8928
  A 0.76 0.76 0.0 0 0 989.8277 386.6514
  L 991.4677 386.6486
  A 0.76 0.76 0.0 0 0 992.2264 385.8872
  L 992.2136 378.5472
  Z
  M 965.8667 384.8998
  A 0.83 0.83 0.0 0 0 964.7345 384.5901
  L 963.5358 385.2738
  A 0.83 0.83 0.0 0 0 963.2260 386.4060
  L 966.7933 392.6602
  A 0.83 0.83 0.0 0 0 967.9255 392.9699
  L 969.1242 392.2862
  A 0.83 0.83 0.0 0 0 969.4340 391.1540
  L 965.8667 384.8998
  Z
  M 1017.9554 385.8229
  A 1.50 0.78 14.0 0 0 1016.6887 384.7032
  A 1.50 0.78 14.0 0 0 1015.0446 385.0971
  A 1.50 0.78 14.0 0 0 1016.3113 386.2168
  A 1.50 0.78 14.0 0 0 1017.9554 385.8229
  Z
  M 962.81 445.68
  L 999.41 401.13
  L 1004.85 394.59
  A 0.51 0.51 0.0 0 0 1004.63 393.78
  Q 988.35 388.21 973.63 395.14
  C 959.45 401.81 950.75 416.24 951.10 432.01
  C 951.26 439.25 953.34 445.50 956.92 451.69
  A 0.56 0.55 -40.4 0 0 957.83 451.76
  L 962.81 445.68
  Z
  M 952.6908 408.4526
  A 1.08 1.08 0.0 0 0 952.2955 406.9773
  L 946.3545 403.5473
  A 1.08 1.08 0.0 0 0 944.8792 403.9426
  L 944.4492 404.6874
  A 1.08 1.08 0.0 0 0 944.8445 406.1627
  L 950.7855 409.5927
  A 1.08 1.08 0.0 0 0 952.2608 409.1974
  L 952.6908 408.4526
  Z
  M 1036.4276 403.8211
  A 1.03 1.03 0.0 0 0 1035.0167 403.4588
  L 1029.0260 407.0017
  A 1.03 1.03 0.0 0 0 1028.6637 408.4126
  L 1029.1524 409.2389
  A 1.03 1.03 0.0 0 0 1030.5633 409.6012
  L 1036.5540 406.0583
  A 1.03 1.03 0.0 0 0 1036.9163 404.6474
  L 1036.4276 403.8211
  Z
  M 946.4865 430.3389
  A 1.04 1.04 0.0 0 0 945.4393 429.3062
  L 938.5995 429.3539
  A 1.04 1.04 0.0 0 0 937.5668 430.4011
  L 937.5735 431.3611
  A 1.04 1.04 0.0 0 0 938.6207 432.3938
  L 945.4605 432.3461
  A 1.04 1.04 0.0 0 0 946.4932 431.2989
  L 946.4865 430.3389
  Z
  M 1043.68 430.04
  A 0.68 0.68 0.0 0 0 1043.00 429.36
  L 1035.52 429.36
  A 0.68 0.68 0.0 0 0 1034.84 430.04
  L 1034.84 431.68
  A 0.68 0.68 0.0 0 0 1035.52 432.36
  L 1043.00 432.36
  A 0.68 0.68 0.0 0 0 1043.68 431.68
  L 1043.68 430.04
  Z
  M 1036.9040 457.0876
  A 1.07 1.07 0.0 0 0 1036.5225 455.6233
  L 1030.6057 452.1519
  A 1.07 1.07 0.0 0 0 1029.1413 452.5333
  L 1028.6960 453.2924
  A 1.07 1.07 0.0 0 0 1029.0775 454.7567
  L 1034.9943 458.2281
  A 1.07 1.07 0.0 0 0 1036.4587 457.8467
  L 1036.9040 457.0876
  Z
  M 952.3547 452.7230
  A 1.24 1.24 0.0 0 0 950.6648 452.2544
  L 944.9379 455.4945
  A 1.24 1.24 0.0 0 0 944.4693 457.1844
  L 944.7253 457.6370
  A 1.24 1.24 0.0 0 0 946.4152 458.1056
  L 952.1421 454.8655
  A 1.24 1.24 0.0 0 0 952.6107 453.1756
  L 952.3547 452.7230
  Z
  M 1014.4769 469.0731
  A 0.89 0.89 0.0 0 0 1013.2606 468.7495
  L 1012.1359 469.4015
  A 0.89 0.89 0.0 0 0 1011.8122 470.6178
  L 1015.4231 476.8469
  A 0.89 0.89 0.0 0 0 1016.6394 477.1705
  L 1017.7641 476.5185
  A 0.89 0.89 0.0 0 0 1018.0878 475.3022
  L 1014.4769 469.0731
  Z
  M 992.2038 475.9473
  A 0.93 0.93 0.0 0 0 991.2722 475.0189
  L 990.0122 475.0211
  A 0.93 0.93 0.0 0 0 989.0838 475.9527
  L 989.0962 483.0327
  A 0.93 0.93 0.0 0 0 990.0278 483.9611
  L 991.2878 483.9589
  A 0.93 0.93 0.0 0 0 992.2162 483.0273
  L 992.2038 475.9473
  Z"
/>
<rect fill="#f7f6f8" x="-1.58" y="-4.43" transform="translate(990.64,382.22) rotate(-0.1)" width="3.16" height="8.86" rx="0.76"/>
<rect fill="#f7f6f8" x="-1.52" y="-4.43" transform="translate(966.33,388.78) rotate(-29.7)" width="3.04" height="8.86" rx="0.83"/>
<ellipse fill="#f7f6f8" cx="0.00" cy="0.00" transform="translate(1016.50,385.46) rotate(14.0)" rx="1.50" ry="0.78"/>
<path fill="#bababa" d="
  M 999.41 401.13
  Q 991.00 398.45 982.91 400.51
  Q 975.50 402.40 969.15 408.31
  Q 953.77 422.62 962.81 445.68
  L 957.83 451.76
  A 0.56 0.55 -40.4 0 1 956.92 451.69
  C 953.34 445.50 951.26 439.25 951.10 432.01
  C 950.75 416.24 959.45 401.81 973.63 395.14
  Q 988.35 388.21 1004.63 393.78
  A 0.51 0.51 0.0 0 1 1004.85 394.59
  L 999.41 401.13
  Z"
/>
<path fill="#a0a0a0" d="
  M 999.41 401.13
  L 962.81 445.68
  Q 953.77 422.62 969.15 408.31
  Q 975.50 402.40 982.91 400.51
  Q 991.00 398.45 999.41 401.13
  Z"
/>
<rect fill="#f7f6f8" x="-4.51" y="-1.51" transform="translate(948.57,406.57) rotate(30.0)" width="9.02" height="3.02" rx="1.08"/>
<rect fill="#f7f6f8" x="-4.51" y="-1.51" transform="translate(1032.79,406.53) rotate(-30.6)" width="9.02" height="3.02" rx="1.03"/>
<path fill="#bababa" d="
  M 1024.47 410.19
  Q 1034.25 427.53 1027.67 444.95
  Q 1023.81 455.18 1014.64 462.08
  Q 997.52 474.96 976.28 467.89
  L 981.80 460.94
  Q 1001.92 465.65 1014.93 450.18
  Q 1021.94 441.85 1021.97 430.98
  Q 1021.99 423.32 1018.44 416.18
  Q 1021.70 410.93 1024.47 410.19
  Z"
/>
<path fill="#a0a0a0" d="
  M 1018.44 416.18
  Q 1021.99 423.32 1021.97 430.98
  Q 1021.94 441.85 1014.93 450.18
  Q 1001.92 465.65 981.80 460.94
  L 1018.44 416.18
  Z"
/>
<rect fill="#f7f6f8" x="-4.46" y="-1.52" transform="translate(942.03,430.85) rotate(-0.4)" width="8.92" height="3.04" rx="1.04"/>
<rect fill="#f7f6f8" x="1034.84" y="429.36" width="8.84" height="3.00" rx="0.68"/>
<rect fill="#f7f6f8" x="-4.50" y="-1.51" transform="translate(1032.80,455.19) rotate(30.4)" width="9.00" height="3.02" rx="1.07"/>
<rect fill="#f7f6f8" x="-4.53" y="-1.50" transform="translate(948.54,455.18) rotate(-29.5)" width="9.06" height="3.00" rx="1.24"/>
<rect fill="#f7f6f8" x="-1.54" y="-4.49" transform="translate(1014.95,472.96) rotate(-30.1)" width="3.08" height="8.98" rx="0.89"/>
<rect fill="#f7f6f8" x="-1.56" y="-4.47" transform="translate(990.65,479.49) rotate(-0.1)" width="3.12" height="8.94" rx="0.93"/>
<path fill="#777978" d="
  M 1050.33 571.04
  A 59.69 59.69 0.0 0 1 990.64 630.73
  A 59.69 59.69 0.0 0 1 930.95 571.04
  A 59.69 59.69 0.0 0 1 990.64 511.35
  A 59.69 59.69 0.0 0 1 1050.33 571.04
  Z
  M 1046.64 570.96
  A 55.98 55.98 0.0 0 0 990.66 514.98
  A 55.98 55.98 0.0 0 0 934.68 570.96
  A 55.98 55.98 0.0 0 0 990.66 626.94
  A 55.98 55.98 0.0 0 0 1046.64 570.96
  Z"
/>
<path fill="#505251" d="
  M 1046.64 570.96
  A 55.98 55.98 0.0 0 1 990.66 626.94
  A 55.98 55.98 0.0 0 1 934.68 570.96
  A 55.98 55.98 0.0 0 1 990.66 514.98
  A 55.98 55.98 0.0 0 1 1046.64 570.96
  Z
  M 992.3178 518.7071
  A 0.80 0.80 0.0 0 0 991.5262 517.8987
  L 989.9063 517.8818
  A 0.80 0.80 0.0 0 0 989.0980 518.6733
  L 989.0222 525.9129
  A 0.80 0.80 0.0 0 0 989.8138 526.7213
  L 991.4337 526.7382
  A 0.80 0.80 0.0 0 0 992.2420 525.9467
  L 992.3178 518.7071
  Z
  M 965.7452 524.8132
  A 0.59 0.59 0.0 0 0 964.9388 524.5986
  L 963.2777 525.5615
  A 0.59 0.59 0.0 0 0 963.0632 526.3679
  L 966.9348 533.0468
  A 0.59 0.59 0.0 0 0 967.7412 533.2614
  L 969.4023 532.2985
  A 0.59 0.59 0.0 0 0 969.6168 531.4921
  L 965.7452 524.8132
  Z
  M 1018.0962 526.5069
  A 0.79 0.79 0.0 0 0 1017.8127 525.4263
  L 1016.5176 524.6695
  A 0.79 0.79 0.0 0 0 1015.4369 524.9530
  L 1011.7438 531.2731
  A 0.79 0.79 0.0 0 0 1012.0273 532.3537
  L 1013.3224 533.1105
  A 0.79 0.79 0.0 0 0 1014.4031 532.8270
  L 1018.0962 526.5069
  Z
  M 951.19 567.68
  L 942.82 569.76
  Q 940.82 569.39 939.04 569.58
  Q 938.01 569.68 937.73 570.28
  Q 937.41 570.96 937.74 572.04
  L 938.85 573.35
  A 1.01 1.01 0.0 0 1 939.07 574.15
  L 938.51 577.95
  A 0.64 0.64 0.0 0 0 939.39 578.63
  Q 940.53 578.15 941.79 577.85
  Q 963.13 572.71 980.52 568.74
  Q 1003.35 563.51 1021.98 558.88
  Q 1026.83 557.68 1031.59 556.69
  Q 1036.56 555.66 1041.19 554.35
  Q 1041.95 554.14 1041.96 553.35
  Q 1042.05 548.49 1038.34 547.31
  Q 1037.86 547.16 1037.59 546.74
  Q 1037.16 546.07 1037.13 545.44
  Q 1036.40 543.08 1035.11 543.57
  Q 1030.67 545.26 1028.35 548.40
  Q 1029.29 550.84 1024.49 550.35
  Q 1016.20 537.83 1003.27 533.50
  C 978.93 525.34 953.61 541.92 951.19 567.68
  Z
  M 952.6789 548.5343
  A 1.04 1.04 0.0 0 0 952.3107 547.1104
  L 946.3827 543.6185
  A 1.04 1.04 0.0 0 0 944.9587 543.9868
  L 944.4411 544.8657
  A 1.04 1.04 0.0 0 0 944.8093 546.2896
  L 950.7373 549.7815
  A 1.04 1.04 0.0 0 0 952.1613 549.4132
  L 952.6789 548.5343
  Z
  M 1038.73 572.54
  Q 1040.72 572.95 1042.95 572.69
  Q 1043.71 572.60 1043.81 571.85
  L 1043.85 571.55
  A 0.39 0.38 3.0 0 0 1043.45 571.11
  Q 1041.12 571.21 1038.71 571.90
  Q 1037.41 572.27 1038.73 572.54
  Z
  M 1021.71 576.10
  L 965.19 589.34
  L 957.36 591.06
  A 0.61 0.60 66.8 0 0 956.99 591.99
  Q 966.93 606.71 983.13 609.84
  C 1006.44 614.35 1026.99 598.16 1030.04 575.15
  A 0.74 0.74 0.0 0 0 1029.13 574.33
  L 1021.71 576.10
  Z
  M 1036.9576 596.9849
  A 0.90 0.90 0.0 0 0 1036.6218 595.7572
  L 1030.4545 592.2395
  A 0.90 0.90 0.0 0 0 1029.2268 592.5753
  L 1028.6224 593.6351
  A 0.90 0.90 0.0 0 0 1028.9582 594.8628
  L 1035.1255 598.3805
  A 0.90 0.90 0.0 0 0 1036.3532 598.0447
  L 1036.9576 596.9849
  Z
  M 952.4531 593.0292
  A 1.44 1.44 0.0 0 0 950.4897 592.4885
  L 945.0988 595.5509
  A 1.44 1.44 0.0 0 0 944.5580 597.5142
  L 944.6469 597.6708
  A 1.44 1.44 0.0 0 0 946.6103 598.2115
  L 952.0012 595.1491
  A 1.44 1.44 0.0 0 0 952.5420 593.1858
  L 952.4531 593.0292
  Z
  M 969.3238 611.0064
  A 1.25 1.25 0.0 0 0 968.8604 609.3004
  L 968.3223 608.9923
  A 1.25 1.25 0.0 0 0 966.6164 609.4558
  L 963.3762 615.1136
  A 1.25 1.25 0.0 0 0 963.8396 616.8196
  L 964.3777 617.1277
  A 1.25 1.25 0.0 0 0 966.0836 616.6642
  L 969.3238 611.0064
  Z
  M 1014.6182 609.4344
  A 1.15 1.15 0.0 0 0 1013.0466 609.0162
  L 1012.3198 609.4375
  A 1.15 1.15 0.0 0 0 1011.9017 611.0091
  L 1015.2618 616.8056
  A 1.15 1.15 0.0 0 0 1016.8334 617.2238
  L 1017.5602 616.8025
  A 1.15 1.15 0.0 0 0 1017.9783 615.2309
  L 1014.6182 609.4344
  Z
  M 992.1948 616.0191
  A 0.74 0.74 0.0 0 0 991.4496 615.2842
  L 989.7697 615.2960
  A 0.74 0.74 0.0 0 0 989.0348 616.0411
  L 989.0852 623.2609
  A 0.74 0.74 0.0 0 0 989.8304 623.9958
  L 991.5103 623.9840
  A 0.74 0.74 0.0 0 0 992.2452 623.2389
  L 992.1948 616.0191
  Z"
/>
<rect fill="#f7f6f8" x="-1.61" y="-4.42" transform="translate(990.67,522.31) rotate(0.6)" width="3.22" height="8.84" rx="0.80"/>
<rect fill="#f7f6f8" x="-1.55" y="-4.45" transform="translate(966.34,528.93) rotate(-30.1)" width="3.10" height="8.90" rx="0.59"/>
<rect fill="#f7f6f8" x="-1.54" y="-4.45" transform="translate(1014.92,528.89) rotate(30.3)" width="3.08" height="8.90" rx="0.79"/>
<path fill="#bababa" d="
  M 1024.49 550.35
  L 1016.14 552.53
  Q 1010.98 546.62 1005.09 543.38
  Q 999.40 540.24 992.89 539.75
  Q 986.82 539.28 980.57 541.47
  Q 963.99 547.26 959.63 565.80
  L 951.19 567.68
  C 953.61 541.92 978.93 525.34 1003.27 533.50
  Q 1016.20 537.83 1024.49 550.35
  Z"
/>
<path fill="#a0a0a0" d="
  M 1016.14 552.53
  L 959.63 565.80
  Q 963.99 547.26 980.57 541.47
  Q 986.82 539.28 992.89 539.75
  Q 999.40 540.24 1005.09 543.38
  Q 1010.98 546.62 1016.14 552.53
  Z"
/>
<rect fill="#f7f6f8" x="-4.48" y="-1.55" transform="translate(948.56,546.70) rotate(30.5)" width="8.96" height="3.10" rx="1.04"/>
<path fill="#f7f6f8" d="
  M 1037.13 545.44
  Q 1035.94 546.41 1031.77 548.80
  Q 1030.03 549.80 1028.35 548.40
  Q 1030.67 545.26 1035.11 543.57
  Q 1036.40 543.08 1037.13 545.44
  Z"
/>
<path fill="#777978" d="
  M 1037.13 545.44
  Q 1037.16 546.07 1037.59 546.74
  Q 1037.86 547.16 1038.34 547.31
  Q 1042.05 548.49 1041.96 553.35
  Q 1041.95 554.14 1041.19 554.35
  Q 1036.56 555.66 1031.59 556.69
  Q 1026.83 557.68 1021.98 558.88
  Q 1003.35 563.51 980.52 568.74
  Q 963.13 572.71 941.79 577.85
  Q 940.53 578.15 939.39 578.63
  A 0.64 0.64 0.0 0 1 938.51 577.95
  L 939.07 574.15
  A 1.01 1.01 0.0 0 0 938.85 573.35
  L 937.74 572.04
  Q 938.66 572.42 939.39 571.86
  Q 939.41 571.84 939.96 571.00
  Q 940.57 570.06 942.82 569.76
  L 951.19 567.68
  L 959.63 565.80
  L 1016.14 552.53
  L 1024.49 550.35
  Q 1029.29 550.84 1028.35 548.40
  Q 1030.03 549.80 1031.77 548.80
  Q 1035.94 546.41 1037.13 545.44
  Z"
/>
<path fill="#f7f6f8" d="
  M 942.82 569.76
  Q 940.57 570.06 939.96 571.00
  Q 939.41 571.84 939.39 571.86
  Q 938.66 572.42 937.74 572.04
  Q 937.41 570.96 937.73 570.28
  Q 938.01 569.68 939.04 569.58
  Q 940.82 569.39 942.82 569.76
  Z"
/>
<path fill="#bababa" d="
  M 1038.73 572.54
  Q 1037.41 572.27 1038.71 571.90
  Q 1041.12 571.21 1043.45 571.11
  A 0.39 0.38 3.0 0 1 1043.85 571.55
  L 1043.81 571.85
  Q 1043.71 572.60 1042.95 572.69
  Q 1040.72 572.95 1038.73 572.54
  Z"
/>
<path fill="#bababa" d="
  M 965.19 589.34
  Q 970.65 596.45 978.57 599.88
  Q 986.20 603.18 994.79 601.94
  C 1007.93 600.05 1019.21 589.89 1021.71 576.10
  L 1029.13 574.33
  A 0.74 0.74 0.0 0 1 1030.04 575.15
  C 1026.99 598.16 1006.44 614.35 983.13 609.84
  Q 966.93 606.71 956.99 591.99
  A 0.61 0.60 66.8 0 1 957.36 591.06
  L 965.19 589.34
  Z"
/>
<path fill="#a0a0a0" d="
  M 1021.71 576.10
  C 1019.21 589.89 1007.93 600.05 994.79 601.94
  Q 986.20 603.18 978.57 599.88
  Q 970.65 596.45 965.19 589.34
  L 1021.71 576.10
  Z"
/>
<rect fill="#f7f6f8" x="-4.45" y="-1.51" transform="translate(1032.79,595.31) rotate(29.7)" width="8.90" height="3.02" rx="0.90"/>
<rect fill="#f7f6f8" x="-4.54" y="-1.53" transform="translate(948.55,595.35) rotate(-29.6)" width="9.08" height="3.06" rx="1.44"/>
<rect fill="#f7f6f8" x="-1.56" y="-4.51" transform="translate(966.35,613.06) rotate(29.8)" width="3.12" height="9.02" rx="1.25"/>
<rect fill="#f7f6f8" x="-1.57" y="-4.50" transform="translate(1014.94,613.12) rotate(-30.1)" width="3.14" height="9.00" rx="1.15"/>
<path fill="#777978" d="
  M 112.84 609.22
  Q 115.23 610.90 117.72 612.59
  Q 121.73 615.32 126.26 616.44
  C 133.13 620.00 140.58 620.39 147.53 621.07
  C 153.38 621.63 159.22 622.31 165.02 622.64
  Q 176.85 623.30 190.10 625.25
  Q 198.89 626.54 207.21 627.05
  Q 210.30 627.24 217.11 628.06
  Q 221.87 628.64 227.07 628.66
  C 236.14 628.71 243.90 629.86 252.37 630.08
  Q 269.83 630.53 277.75 630.99
  Q 290.07 631.71 296.22 631.81
  Q 303.75 632.67 311.14 631.67
  Q 311.37 631.64 311.55 631.46
  Q 311.60 631.42 311.65 631.38
  Q 312.35 630.97 311.53 630.98
  Q 310.64 630.98 309.69 631.05
  L 314.03 629.47
  Q 313.83 630.22 315.04 630.26
  Q 314.88 631.80 318.17 631.65
  Q 321.78 632.18 325.28 633.16
  Q 329.56 634.36 332.34 634.71
  C 338.23 635.44 344.00 636.26 349.91 636.24
  C 365.92 636.19 382.14 636.03 398.49 636.76
  C 424.78 637.92 450.65 637.69 483.25 637.64
  Q 492.65 637.62 503.24 637.35
  Q 537.34 636.49 570.15 636.21
  Q 579.01 636.14 586.86 635.67
  C 596.87 635.07 606.67 634.49 616.27 633.01
  C 621.64 632.18 626.91 632.95 632.26 632.09
  Q 642.17 630.48 652.86 632.32
  Q 656.07 632.87 659.64 632.28
  C 665.96 631.22 672.30 631.98 678.68 631.07
  Q 686.05 630.02 694.71 630.16
  C 700.14 630.25 705.78 628.64 711.30 628.67
  C 715.19 628.69 719.05 628.73 722.86 627.99
  C 727.64 627.06 732.32 627.53 736.96 626.68
  Q 741.50 625.83 746.24 625.68
  C 751.24 625.53 755.82 624.19 760.93 624.22
  C 765.39 624.25 769.56 622.95 774.00 622.78
  C 780.27 622.54 785.36 621.85 793.22 621.15
  Q 802.57 620.33 811.04 616.09
  Q 812.91 615.15 818.68 610.49
  L 867.48 659.16
  Q 858.39 672.48 842.00 672.53
  Q 770.52 672.76 667.75 672.78
  Q 336.27 672.84 106.75 672.53
  Q 99.13 672.52 92.25 672.57
  C 87.16 672.61 81.72 672.59 77.03 670.95
  Q 69.24 668.23 63.55 661.97
  Q 63.07 661.44 62.60 660.02
  L 112.84 609.22
  Z"
/>
<rect fill="#f7f6f8" x="-1.58" y="-4.35" transform="translate(990.64,619.64) rotate(-0.4)" width="3.16" height="8.70" rx="0.74"/>
<path fill="#393939" d="
  M 654.26 619.59
  Q 654.63 618.68 654.06 617.83
  A 0.59 0.58 70.4 0 1 654.49 616.92
  L 657.21 616.67
  Q 657.60 616.63 657.69 617.03
  Q 657.72 617.18 657.68 617.33
  Q 657.61 617.56 657.38 617.59
  Q 655.12 617.90 654.85 620.01
  Q 654.71 621.09 653.57 620.87
  A 0.30 0.30 0.0 0 1 653.35 620.48
  Q 653.45 620.17 653.78 620.05
  Q 654.12 619.93 654.26 619.59
  Z"
/>
<path fill="#f7f6f8" d="
  M 324.54 630.03
  Q 322.36 629.45 322.37 630.53
  L 315.04 630.26
  Q 313.83 630.22 314.03 629.47
  Q 319.15 627.95 324.30 628.36
  A 0.95 0.86 -24.7 0 1 324.65 628.47
  Q 325.78 629.12 324.54 630.03
  Z"
/>
<path fill="#8f8d8c" d="
  M 324.54 630.03
  Q 323.80 630.67 322.57 630.86
  Q 322.47 630.70 322.37 630.53
  Q 322.36 629.45 324.54 630.03
  Z"
/>
<path fill="#393939" d="
  M 315.04 630.26
  L 322.37 630.53
  Q 322.47 630.70 322.57 630.86
  Q 320.27 630.89 318.17 631.65
  Q 314.88 631.80 315.04 630.26
  Z"
/>
<path fill="#f7f6f8" d="
  M 309.69 631.05
  Q 310.64 630.98 311.53 630.98
  Q 312.35 630.97 311.65 631.38
  Q 311.60 631.42 311.55 631.46
  Q 311.37 631.64 311.14 631.67
  Q 303.75 632.67 296.22 631.81
  L 309.69 631.05
  Z"
/>
<path fill="#777978" d="
  M 1064.75 664.05
  A 9.63 9.63 0.0 0 1 1055.12 673.68
  L 926.42 673.68
  A 9.63 9.63 0.0 0 1 916.79 664.05
  L 916.79 646.11
  A 9.63 9.63 0.0 0 1 926.42 636.48
  L 1055.12 636.48
  A 9.63 9.63 0.0 0 1 1064.75 646.11
  L 1064.75 664.05
  Z
  M 998.09 667.36
  Q 1001.69 664.43 1003.81 660.01
  L 1018.19 639.85
  A 1.21 1.21 0.0 0 0 1017.22 637.94
  Q 972.76 637.60 927.07 637.89
  C 920.64 637.93 918.06 642.27 918.22 648.19
  Q 918.41 655.58 918.24 662.53
  C 918.10 667.76 920.83 671.72 926.34 672.07
  Q 933.16 672.51 940.68 672.25
  Q 947.65 672.01 955.32 672.11
  Q 973.04 672.32 991.58 672.12
  Q 993.76 672.10 995.74 671.23
  Q 996.19 671.03 996.29 670.55
  Q 996.63 668.85 998.09 667.36
  Z
  M 1047.76 655.05
  A 13.74 13.74 0.0 0 0 1034.02 641.31
  A 13.74 13.74 0.0 0 0 1020.28 655.05
  A 13.74 13.74 0.0 0 0 1034.02 668.79
  A 13.74 13.74 0.0 0 0 1047.76 655.05
  Z"
/>
<path fill="#8f8d8c" d="
  M 1003.81 660.01
  Q 1003.88 658.39 1004.19 656.81
  C 1005.86 648.09 998.25 640.95 989.75 641.34
  C 978.72 641.84 973.38 654.18 979.32 662.83
  Q 982.26 667.12 987.41 668.36
  Q 992.43 669.57 998.09 667.36
  Q 996.63 668.85 996.29 670.55
  Q 996.19 671.03 995.74 671.23
  Q 993.76 672.10 991.58 672.12
  Q 973.04 672.32 955.32 672.11
  Q 947.65 672.01 940.68 672.25
  Q 933.16 672.51 926.34 672.07
  C 920.83 671.72 918.10 667.76 918.24 662.53
  Q 918.41 655.58 918.22 648.19
  C 918.06 642.27 920.64 637.93 927.07 637.89
  Q 972.76 637.60 1017.22 637.94
  A 1.21 1.21 0.0 0 1 1018.19 639.85
  L 1003.81 660.01
  Z
  M 961.08 655.02
  A 13.81 13.81 0.0 0 0 947.27 641.21
  A 13.81 13.81 0.0 0 0 933.46 655.02
  A 13.81 13.81 0.0 0 0 947.27 668.83
  A 13.81 13.81 0.0 0 0 961.08 655.02
  Z"
/>
<path fill="#bababa" d="
  M 961.08 655.02
  A 13.81 13.81 0.0 0 1 947.27 668.83
  A 13.81 13.81 0.0 0 1 933.46 655.02
  A 13.81 13.81 0.0 0 1 947.27 641.21
  A 13.81 13.81 0.0 0 1 961.08 655.02
  Z
  M 958.25 655.08
  A 10.98 10.98 0.0 0 0 947.27 644.10
  A 10.98 10.98 0.0 0 0 936.29 655.08
  A 10.98 10.98 0.0 0 0 947.27 666.06
  A 10.98 10.98 0.0 0 0 958.25 655.08
  Z"
/>
<path fill="#bababa" d="
  M 1003.81 660.01
  Q 1001.69 664.43 998.09 667.36
  Q 992.43 669.57 987.41 668.36
  Q 982.26 667.12 979.32 662.83
  C 973.38 654.18 978.72 641.84 989.75 641.34
  C 998.25 640.95 1005.86 648.09 1004.19 656.81
  Q 1003.88 658.39 1003.81 660.01
  Z
  M 1001.62 655.03
  A 10.99 10.99 0.0 0 0 990.63 644.04
  A 10.99 10.99 0.0 0 0 979.64 655.03
  A 10.99 10.99 0.0 0 0 990.63 666.02
  A 10.99 10.99 0.0 0 0 1001.62 655.03
  Z"
/>
<path fill="#bababa" d="
  M 1047.76 655.05
  A 13.74 13.74 0.0 0 1 1034.02 668.79
  A 13.74 13.74 0.0 0 1 1020.28 655.05
  A 13.74 13.74 0.0 0 1 1034.02 641.31
  A 13.74 13.74 0.0 0 1 1047.76 655.05
  Z
  M 1045.07 655.05
  A 11.03 11.03 0.0 0 0 1034.04 644.02
  A 11.03 11.03 0.0 0 0 1023.01 655.05
  A 11.03 11.03 0.0 0 0 1034.04 666.08
  A 11.03 11.03 0.0 0 0 1045.07 655.05
  Z"
/>
<path fill="#777978" d="
  M 1001.62 655.03
  A 10.99 10.99 0.0 0 1 990.63 666.02
  A 10.99 10.99 0.0 0 1 979.64 655.03
  A 10.99 10.99 0.0 0 1 990.63 644.04
  A 10.99 10.99 0.0 0 1 1001.62 655.03
  Z
  M 997.44 655.05
  A 6.94 6.94 0.0 0 0 990.50 648.11
  A 6.94 6.94 0.0 0 0 983.56 655.05
  A 6.94 6.94 0.0 0 0 990.50 661.99
  A 6.94 6.94 0.0 0 0 997.44 655.05
  Z"
/>
<path fill="#777978" d="
  M 1045.07 655.05
  A 11.03 11.03 0.0 0 1 1034.04 666.08
  A 11.03 11.03 0.0 0 1 1023.01 655.05
  A 11.03 11.03 0.0 0 1 1034.04 644.02
  A 11.03 11.03 0.0 0 1 1045.07 655.05
  Z
  M 1040.94 655.03
  A 7.04 7.04 0.0 0 0 1033.90 647.99
  A 7.04 7.04 0.0 0 0 1026.86 655.03
  A 7.04 7.04 0.0 0 0 1033.90 662.07
  A 7.04 7.04 0.0 0 0 1040.94 655.03
  Z"
/>
<path fill="#777978" d="
  M 958.25 655.08
  A 10.98 10.98 0.0 0 1 947.27 666.06
  A 10.98 10.98 0.0 0 1 936.29 655.08
  A 10.98 10.98 0.0 0 1 947.27 644.10
  A 10.98 10.98 0.0 0 1 958.25 655.08
  Z
  M 954.16 655.02
  A 6.97 6.97 0.0 0 0 947.19 648.05
  A 6.97 6.97 0.0 0 0 940.22 655.02
  A 6.97 6.97 0.0 0 0 947.19 661.99
  A 6.97 6.97 0.0 0 0 954.16 655.02
  Z"
/>
<path fill="#f7f6f8" d="
  M 954.16 655.02
  A 6.97 6.97 0.0 0 1 947.19 661.99
  A 6.97 6.97 0.0 0 1 940.22 655.02
  A 6.97 6.97 0.0 0 1 947.19 648.05
  A 6.97 6.97 0.0 0 1 954.16 655.02
  Z
  M 953.03 654.99
  A 5.68 5.68 0.0 0 0 947.35 649.31
  A 5.68 5.68 0.0 0 0 941.67 654.99
  A 5.68 5.68 0.0 0 0 947.35 660.67
  A 5.68 5.68 0.0 0 0 953.03 654.99
  Z"
/>
<path fill="#f7f6f8" d="
  M 997.44 655.05
  A 6.94 6.94 0.0 0 1 990.50 661.99
  A 6.94 6.94 0.0 0 1 983.56 655.05
  A 6.94 6.94 0.0 0 1 990.50 648.11
  A 6.94 6.94 0.0 0 1 997.44 655.05
  Z
  M 996.41 655.05
  A 5.70 5.70 0.0 0 0 990.71 649.35
  A 5.70 5.70 0.0 0 0 985.01 655.05
  A 5.70 5.70 0.0 0 0 990.71 660.75
  A 5.70 5.70 0.0 0 0 996.41 655.05
  Z"
/>
<path fill="#bababa" d="
  M 1040.94 655.03
  A 7.04 7.04 0.0 0 1 1033.90 662.07
  A 7.04 7.04 0.0 0 1 1026.86 655.03
  A 7.04 7.04 0.0 0 1 1033.90 647.99
  A 7.04 7.04 0.0 0 1 1040.94 655.03
  Z
  M 1039.42 655.01
  A 5.45 5.45 0.0 0 0 1033.97 649.56
  A 5.45 5.45 0.0 0 0 1028.52 655.01
  A 5.45 5.45 0.0 0 0 1033.97 660.46
  A 5.45 5.45 0.0 0 0 1039.42 655.01
  Z"
/>
<circle fill="#a0a0a0" cx="990.71" cy="655.05" r="5.70"/>
<circle fill="#a0a0a0" cx="947.35" cy="654.99" r="5.68"/>
<circle fill="#a0a0a0" cx="1033.97" cy="655.01" r="5.45"/>
<path fill="#f7f6f8" d="
  M 1105.00 697.79
  L 1105.00 700.06
  Q 1103.45 705.75 1097.95 708.89
  Q 1091.82 712.40 1085.43 712.45
  C 1081.95 712.48 1077.81 713.32 1075.53 716.04
  Q 1071.77 720.56 1067.87 724.37
  Q 1066.45 725.76 1063.86 726.00
  L 1062.99 726.00
  Q 1070.04 720.20 1076.61 712.64
  Q 1080.20 711.58 1084.34 711.23
  Q 1089.99 710.74 1092.02 710.00
  Q 1100.58 706.88 1105.00 697.79
  Z"
/>
<path fill="#bababa" d="
  M 14.77 711.04
  Q 11.83 710.24 9.11 708.10
  L 14.89 710.74
  Q 15.03 710.80 14.97 710.94
  Q 14.89 711.13 14.77 711.04
  Z"
/>
<path fill="#553e33" d="
  M 499.28 711.37
  Q 502.37 711.56 505.27 711.45
  Q 510.45 711.25 511.24 711.25
  Q 780.49 711.34 1049.74 711.26
  C 1056.11 711.26 1064.40 711.56 1071.75 711.46
  Q 1074.96 711.42 1076.61 712.64
  Q 1070.04 720.20 1062.99 726.00
  L 44.70 726.00
  Q 39.83 724.57 36.70 720.33
  Q 35.07 718.12 33.44 715.79
  Q 32.80 714.88 29.70 713.85
  Q 29.77 712.79 31.27 712.85
  Q 31.75 712.87 32.15 712.59
  Q 33.56 711.58 35.75 711.56
  Q 60.97 711.30 88.25 711.28
  Q 245.04 711.14 415.50 711.08
  Q 457.62 711.07 499.28 711.37
  Z"
/>
<path fill="#8f8d8c" d="
  M 24.77 712.07
  Q 23.67 711.85 23.83 712.59
  Q 20.36 712.68 17.14 711.67
  L 24.77 712.07
  Z"
/>
<path fill="#bababa" d="
  M 24.77 712.07
  Q 28.18 711.46 29.55 713.75
  L 23.83 712.59
  Q 23.67 711.85 24.77 712.07
  Z"
/>
</svg>
