<?xml version="1.0" encoding="UTF-8" standalone="no"?>
<!DOCTYPE svg PUBLIC "-//W3C//DTD SVG 1.1//EN" "http://www.w3.org/Graphics/SVG/1.1/DTD/svg11.dtd">
<svg xmlns="http://www.w3.org/2000/svg" version="1.1" viewBox="0.00 0.00 1200.00 1747.00">
<g stroke-width="2.00" fill="none" stroke-linecap="butt">
<path stroke="#92ad87" vector-effect="non-scaling-stroke" d="
  M 709.20 165.43
  Q 691.98 179.21 673.75 182.95
  Q 662.31 185.29 651.08 182.53
  A 0.33 0.33 0.0 0 0 650.71 183.01
  L 653.87 189.06"
/>
<path stroke="#92ad87" vector-effect="non-scaling-stroke" d="
  M 671.83 225.78
  L 678.99 238.49"
/>
<path stroke="#92ad87" vector-effect="non-scaling-stroke" d="
  M 809.29 407.41
  Q 795.53 414.95 781.99 413.71
  Q 775.81 413.15 768.56 409.77
  Q 768.15 409.58 767.69 409.58
  L 767.36 409.58
  A 1.12 1.11 75.6 0 1 766.36 408.98
  Q 765.41 407.16 764.03 407.84
  Q 763.33 408.18 762.76 408.76
  C 755.12 416.59 746.14 423.74 734.97 424.04
  Q 732.43 424.11 729.86 424.47"
/>
<path stroke="#92ad87" vector-effect="non-scaling-stroke" d="
  M 722.09 421.70
  L 715.03 416.62
  Q 714.62 416.32 714.82 416.79
  Q 716.53 420.90 719.66 424.58"
/>
<path stroke="#92ad87" vector-effect="non-scaling-stroke" d="
  M 906.90 640.73
  Q 883.89 662.63 852.32 664.52
  C 850.42 664.63 848.12 664.97 846.42 665.58
  Q 836.74 669.07 829.33 670.63
  Q 825.00 671.55 808.76 673.14
  Q 806.45 673.37 804.59 674.58
  Q 798.71 678.43 792.75 680.61"
/>
<path stroke="#92ad87" vector-effect="non-scaling-stroke" d="
  M 781.32 679.32
  L 775.21 675.14
  Q 773.88 674.22 774.72 675.60
  Q 776.81 679.05 780.20 683.10"
/>
<path stroke="#92ad87" vector-effect="non-scaling-stroke" d="
  M 1066.39 931.28
  Q 1064.51 933.17 1061.34 937.33
  Q 1055.12 945.50 1045.40 954.98
  C 1033.67 966.42 1016.58 978.27 999.97 974.20
  C 998.36 973.81 996.99 973.91 995.83 975.20
  Q 990.04 981.66 985.03 986.52
  C 977.51 993.82 966.68 1000.69 956.22 1002.17
  C 953.33 1002.58 950.18 1003.71 948.04 1005.62
  Q 938.82 1013.84 925.70 1013.50
  C 922.93 1013.43 920.89 1012.68 918.36 1011.96
  Q 917.35 1011.67 918.02 1012.48
  L 923.68 1019.28"
/>
<path stroke="#92ad87" vector-effect="non-scaling-stroke" d="
  M 1195.07 1229.45
  Q 1186.87 1237.28 1180.60 1242.34
  Q 1166.88 1253.41 1149.14 1256.87
  Q 1143.42 1257.99 1132.03 1257.16
  C 1129.68 1256.99 1127.16 1257.49 1125.36 1258.95
  Q 1117.23 1265.53 1110.24 1270.02
  Q 1091.52 1282.04 1068.34 1288.54
  C 1065.14 1289.44 1061.79 1289.55 1058.48 1290.15
  C 1047.05 1292.24 1034.45 1291.52 1023.10 1289.15
  C 1020.29 1288.56 1017.73 1287.48 1014.99 1286.56
  A 0.92 0.92 0.0 0 0 1013.82 1287.17
  Q 1008.24 1306.03 992.30 1318.96
  C 981.23 1327.94 967.75 1333.13 953.93 1335.90
  Q 947.37 1337.21 939.52 1337.57
  C 931.68 1337.92 924.28 1338.06 916.67 1337.40
  Q 912.36 1337.03 908.76 1340.01
  Q 889.98 1355.50 868.20 1365.18
  Q 849.29 1373.58 834.47 1377.04
  Q 815.28 1381.52 806.52 1382.45
  Q 771.85 1386.15 735.51 1381.67
  Q 731.88 1381.23 726.07 1379.97"
/>
<path stroke="#423d10" vector-effect="non-scaling-stroke" d="
  M 726.07 1379.97
  Q 701.24 1375.92 675.27 1367.68
  Q 672.86 1366.91 671.22 1367.65
  Q 668.92 1368.69 667.37 1371.11"
/>
<path stroke="#275311" vector-effect="non-scaling-stroke" d="
  M 667.37 1371.11
  L 665.32 1370.00
  Q 664.78 1369.70 664.21 1369.94
  Q 652.74 1374.65 642.75 1377.94
  Q 633.48 1380.99 618.33 1384.28
  Q 597.36 1388.83 573.26 1386.76
  Q 550.78 1384.84 529.09 1372.97
  Q 521.37 1368.74 513.71 1362.09
  Q 503.07 1352.86 495.90 1343.06
  C 494.77 1341.51 492.71 1341.37 490.99 1341.74
  Q 478.62 1344.39 470.17 1344.89
  Q 461.21 1345.43 450.05 1345.99
  Q 422.87 1347.35 398.77 1340.79
  Q 382.11 1336.26 363.68 1326.14
  C 353.16 1320.37 343.12 1311.98 335.22 1303.99
  Q 324.10 1292.76 313.95 1275.02
  Q 312.98 1273.32 311.14 1273.95
  C 288.94 1281.53 264.24 1278.53 243.44 1268.06
  Q 222.15 1257.34 210.16 1245.94
  C 209.00 1244.83 207.27 1244.11 205.66 1244.58
  Q 195.74 1247.54 185.83 1249.64
  Q 174.03 1252.14 160.90 1251.68
  Q 150.80 1251.32 140.99 1248.66
  Q 112.59 1240.95 94.58 1216.61
  A 1.58 1.58 0.0 0 1 95.25 1214.21
  Q 96.27 1213.79 97.31 1213.60
  Q 114.93 1210.50 131.74 1204.20
  Q 146.88 1198.53 156.87 1193.15
  Q 172.55 1184.70 189.88 1173.21
  Q 195.20 1169.69 219.69 1149.96
  C 226.95 1144.12 234.20 1137.53 240.99 1130.82
  Q 262.50 1109.59 269.51 1101.89
  Q 284.38 1085.56 301.26 1065.04
  Q 306.77 1058.34 312.60 1050.74
  Q 325.93 1033.37 341.22 1011.89
  Q 352.46 996.10 363.08 978.46
  Q 363.37 977.97 362.82 977.80
  Q 362.31 977.65 361.74 977.94
  Q 346.17 985.83 330.22 983.25
  Q 320.33 981.65 311.70 976.63
  C 299.74 969.67 291.52 960.20 284.09 948.92
  A 2.43 2.42 -23.0 0 0 281.53 947.89
  C 269.26 950.69 254.75 950.75 243.24 945.51
  C 228.01 938.59 217.56 927.77 212.15 911.61
  Q 211.77 910.47 212.55 909.64
  Q 213.47 908.66 215.08 908.43
  C 219.24 907.84 223.24 907.47 227.32 906.30
  Q 243.57 901.65 248.26 899.88
  Q 270.54 891.48 293.20 878.71
  Q 300.92 874.36 309.20 868.82
  Q 325.01 858.25 334.72 850.72
  Q 356.52 833.83 379.69 811.05
  Q 386.70 804.16 393.78 796.37
  Q 401.96 787.38 408.63 779.65
  Q 418.85 767.83 430.16 753.72
  Q 436.79 745.45 442.41 737.91
  Q 469.94 701.01 494.77 658.26
  Q 498.37 652.05 502.18 646.00
  Q 502.74 645.10 502.54 644.16
  A 0.89 0.88 65.9 0 0 501.16 643.63
  C 496.22 647.24 490.52 649.70 484.53 651.99
  Q 479.22 654.02 472.90 655.43
  Q 465.99 656.96 460.77 657.70
  Q 451.55 659.00 439.41 656.79
  Q 428.72 654.84 418.27 650.56
  Q 406.21 645.62 395.34 635.90
  Q 393.80 634.52 392.17 635.71
  C 386.31 639.97 379.80 642.97 372.64 643.34
  Q 368.61 643.55 363.70 641.75
  Q 355.04 638.57 349.07 633.44
  Q 344.26 629.30 338.49 622.64"
/>
<path stroke="#275311" vector-effect="non-scaling-stroke" d="
  M 373.29 591.01
  Q 380.52 587.22 386.52 581.76
  Q 388.52 579.94 390.25 578.24
  Q 399.35 569.33 407.56 561.05
  Q 417.16 551.37 422.26 544.99
  Q 426.95 539.13 431.80 533.38
  Q 436.86 527.39 441.13 521.60
  Q 450.13 509.41 458.02 497.88
  Q 462.02 492.03 473.65 472.81
  Q 479.42 463.27 483.59 455.36
  Q 499.84 424.53 511.23 391.45
  A 1.14 1.14 0.0 0 0 509.81 389.99
  Q 494.29 394.85 478.56 393.43
  Q 470.40 392.70 460.68 389.52
  Q 451.46 386.50 442.96 382.28
  Q 439.30 380.46 435.03 377.51
  C 433.43 376.40 432.54 374.95 431.24 373.52"
/>
<path stroke="#275311" vector-effect="non-scaling-stroke" d="
  M 525.25 240.32
  Q 530.45 235.43 534.47 229.72
  Q 542.24 218.66 550.72 206.42
  Q 551.84 204.80 553.03 203.05
  Q 562.95 188.40 573.97 171.22
  Q 574.40 170.54 574.39 169.73
  A 0.89 0.89 0.0 0 0 573.33 168.87
  Q 564.14 170.69 555.03 167.29
  Q 542.05 162.46 534.12 156.15
  Q 529.54 152.50 524.80 148.57
  Q 522.92 147.01 521.41 144.97
  C 519.86 142.89 520.86 140.27 521.87 138.22
  C 522.19 137.57 522.22 136.69 522.37 135.97
  A 2.11 2.09 71.3 0 1 522.79 135.11
  Q 524.57 132.94 524.44 130.14"
/>
<path stroke="#275311" vector-effect="non-scaling-stroke" d="
  M 687.38 699.45
  C 692.86 698.79 698.22 697.74 703.75 697.60
  Q 707.00 697.52 709.89 697.07
  Q 739.58 692.49 754.34 666.17
  Q 758.17 659.34 760.43 651.68
  Q 761.75 647.18 758.93 650.93
  C 747.46 666.13 727.21 672.09 708.50 670.75
  Q 703.36 670.38 697.75 669.50
  Q 693.59 668.85 690.40 670.78
  Q 670.66 682.72 647.76 680.39
  Q 642.52 679.86 634.82 677.36
  C 632.53 676.61 630.49 675.01 628.08 674.34
  Q 626.08 673.78 627.28 675.48
  C 629.54 678.69 631.33 682.17 634.13 685.00
  Q 637.96 688.89 641.48 691.10
  Q 647.92 695.14 655.95 697.48
  Q 669.95 701.56 687.38 699.45"
/>
<path stroke="#275311" vector-effect="non-scaling-stroke" d="
  M 865.54 940.68
  Q 861.72 952.04 850.97 957.63
  Q 843.40 961.56 835.82 962.47
  Q 827.07 963.52 818.57 962.74
  Q 807.32 961.71 789.77 957.23
  C 788.26 956.84 786.63 956.72 785.46 957.94
  Q 768.99 975.18 744.37 973.43
  Q 728.14 972.27 712.71 965.40
  Q 712.27 965.21 711.87 965.48
  A 0.57 0.57 0.0 0 0 711.73 966.28
  C 714.12 969.63 716.04 972.94 718.92 976.09
  Q 734.40 993.00 756.60 994.19
  Q 765.13 994.64 776.00 992.07
  Q 784.94 989.95 793.76 984.89
  C 796.39 983.38 798.72 980.95 801.98 983.12
  Q 810.99 989.13 821.89 992.86
  Q 832.49 996.49 841.09 996.56
  C 862.19 996.75 876.36 984.97 886.82 967.65
  Q 888.66 964.61 891.97 964.27
  C 903.12 963.12 913.58 959.61 922.18 952.74
  C 928.55 947.66 933.35 939.70 934.72 931.35
  Q 935.31 927.75 935.92 924.26
  Q 936.74 919.55 935.16 912.75
  Q 934.98 911.98 934.11 912.31
  A 0.87 0.86 86.8 0 0 933.58 912.91
  Q 932.35 917.61 930.09 921.72
  C 924.43 932.00 910.58 937.12 899.16 937.82
  Q 884.85 938.70 870.32 935.65
  C 866.13 934.77 866.44 937.98 865.54 940.68"
/>
<path stroke="#275311" vector-effect="non-scaling-stroke" d="
  M 387.45 1015.40
  Q 387.65 1016.02 387.87 1016.63
  Q 391.64 1027.08 396.65 1034.33
  Q 413.05 1058.04 442.36 1061.88
  Q 448.48 1062.68 461.47 1062.84
  C 463.24 1062.87 465.23 1062.75 466.39 1064.14
  Q 473.83 1073.05 479.83 1078.68
  Q 484.23 1082.81 492.37 1087.75
  C 500.74 1092.83 512.53 1094.56 521.64 1094.34
  Q 533.37 1094.05 546.32 1088.40
  Q 562.41 1081.37 573.49 1072.06
  Q 575.14 1070.67 577.23 1070.89
  Q 585.38 1071.73 593.04 1072.55
  C 601.00 1073.41 609.10 1073.52 616.82 1073.25
  Q 637.10 1072.53 654.57 1063.01
  Q 663.80 1057.99 669.91 1051.13
  Q 676.53 1043.71 680.50 1034.52
  Q 680.65 1034.18 680.60 1033.96
  Q 680.52 1033.63 680.17 1033.47
  Q 679.73 1033.28 679.38 1033.59
  C 671.52 1040.42 662.88 1046.38 653.46 1050.48
  C 647.11 1053.24 639.90 1054.61 633.07 1055.47
  Q 624.22 1056.59 617.04 1055.30
  C 611.72 1054.35 605.89 1053.19 601.00 1051.32
  Q 589.34 1046.85 577.82 1038.17
  Q 575.63 1036.52 572.77 1037.86
  C 561.40 1043.23 551.40 1047.12 540.21 1048.80
  Q 511.21 1053.16 489.99 1035.11
  C 485.63 1031.40 482.15 1026.14 478.95 1021.36
  A 2.03 2.03 0.0 0 0 476.22 1020.74
  C 464.36 1027.83 452.42 1033.27 438.57 1035.11
  C 419.63 1037.64 402.05 1028.64 389.80 1013.92
  Q 388.79 1012.71 387.91 1011.30
  Q 385.55 1007.55 386.49 1011.88
  Q 386.85 1013.53 387.45 1015.40"
/>
<path stroke="#92a387" vector-effect="non-scaling-stroke" d="
  M 549.06 184.37
  Q 549.23 182.59 548.27 182.82
  Q 537.68 185.35 526.99 183.23
  Q 511.62 180.19 495.77 169.58"
/>
<path stroke="#92a387" vector-effect="non-scaling-stroke" d="
  M 482.58 422.03
  Q 483.32 419.83 484.05 418.57
  Q 486.15 414.98 483.14 417.86
  Q 478.36 422.43 469.53 424.15
  C 461.39 425.73 451.73 421.56 445.60 415.99
  C 442.57 413.24 439.21 410.93 436.38 407.94
  A 1.49 1.49 0.0 0 0 434.48 407.71
  C 428.44 411.66 422.61 413.68 415.21 413.78
  Q 403.59 413.94 392.53 408.65"
/>
<path stroke="#42320f" vector-effect="non-scaling-stroke" d="
  M 667.37 1371.11
  Q 657.52 1380.03 645.87 1386.93
  C 638.85 1391.09 629.84 1394.84 623.37 1397.22
  Q 615.72 1400.02 606.25 1401.44
  Q 597.58 1402.73 593.24 1402.92
  Q 569.99 1403.93 547.25 1397.89"
/>
<path stroke="#92a387" vector-effect="non-scaling-stroke" d="
  M 547.25 1397.89
  Q 543.84 1396.80 540.27 1395.79
  Q 536.70 1394.76 533.32 1393.49
  Q 523.70 1389.87 520.80 1388.59
  Q 505.68 1381.89 491.80 1373.41
  Q 489.83 1372.21 485.62 1369.05
  Q 482.57 1366.77 479.28 1364.89"
/>
<path stroke="#92a387" vector-effect="non-scaling-stroke" d="
  M 472.95 1360.08
  Q 470.01 1357.98 467.09 1355.68
  C 465.73 1354.62 464.65 1354.34 462.99 1355.00
  Q 445.18 1362.19 427.40 1366.38
  C 423.76 1367.24 420.07 1367.61 416.52 1368.55
  Q 412.79 1369.55 408.59 1369.86
  Q 389.59 1371.30 373.13 1370.41
  Q 365.56 1370.00 354.58 1368.08
  Q 347.52 1366.85 341.76 1364.87
  C 340.64 1364.48 339.49 1364.41 338.32 1364.05
  Q 322.18 1359.18 307.63 1351.09
  C 303.67 1348.89 300.09 1346.13 296.24 1343.79
  C 291.69 1341.02 289.54 1337.12 283.50 1337.45
  Q 273.97 1337.97 264.55 1337.85
  C 261.66 1337.82 259.12 1336.69 256.16 1336.72
  Q 250.13 1336.78 243.64 1335.55
  Q 234.10 1333.74 231.24 1332.48
  Q 227.27 1330.75 223.29 1329.11
  Q 210.93 1324.01 201.25 1314.47"
/>
<path stroke="#92a387" vector-effect="non-scaling-stroke" d="
  M 186.75 1289.74
  Q 186.76 1287.91 185.64 1286.99
  Q 185.28 1286.70 184.83 1286.84
  Q 166.82 1292.74 148.51 1291.03
  C 142.00 1290.42 134.80 1289.59 128.42 1287.64
  C 124.86 1286.56 120.86 1285.72 117.56 1284.08
  C 114.65 1282.64 111.64 1281.89 108.64 1280.48
  C 99.99 1276.42 92.84 1272.70 85.45 1266.93
  Q 83.33 1265.27 81.37 1263.95
  Q 79.24 1262.52 77.12 1261.12
  C 74.56 1259.44 73.02 1257.03 69.54 1257.35
  Q 62.24 1258.02 55.99 1257.61
  Q 41.67 1256.66 29.76 1249.18
  Q 25.34 1246.41 20.66 1243.38
  C 16.02 1240.38 12.11 1236.62 7.74 1233.00"
/>
<path stroke="#92a387" vector-effect="non-scaling-stroke" d="
  M 278.81 1016.46
  Q 280.83 1014.70 281.47 1012.60
  Q 281.62 1012.11 281.13 1012.26
  Q 268.73 1016.03 257.70 1009.99
  C 253.47 1007.67 251.24 1003.52 246.00 1002.71
  Q 231.44 1000.47 219.21 990.81"
/>
<path stroke="#92a387" vector-effect="non-scaling-stroke" d="
  M 207.23 979.14
  L 203.52 974.38
  A 1.34 1.33 -27.9 0 0 202.07 973.94
  Q 193.59 976.67 184.67 974.16
  Q 173.55 971.03 163.24 962.85
  Q 159.83 960.14 156.50 957.01
  Q 155.09 955.68 153.66 953.89
  Q 152.22 952.10 150.48 950.99"
/>
<path stroke="#92a387" vector-effect="non-scaling-stroke" d="
  M 141.49 941.69
  Q 140.59 939.66 138.64 938.80"
/>
<path stroke="#92a387" vector-effect="non-scaling-stroke" d="
  M 421.19 681.44
  L 424.89 675.53
  Q 425.49 674.58 424.59 675.25
  C 423.01 676.41 421.56 677.76 419.73 678.50
  Q 413.24 681.12 407.55 680.32
  C 405.39 680.02 403.37 678.91 401.28 678.21
  C 397.42 676.94 395.40 673.48 390.82 673.14
  Q 378.31 672.21 369.99 670.60
  Q 363.18 669.28 355.25 666.26
  Q 352.14 665.07 348.76 664.80
  Q 338.77 664.00 328.83 661.59
  C 324.61 660.56 320.66 658.75 316.50 657.27
  Q 313.14 656.07 302.31 648.65
  Q 299.43 646.67 296.13 644.54"
/>
<path stroke="#df9790" vector-effect="non-scaling-stroke" d="
  M 739.08 1467.93
  Q 738.64 1468.14 737.72 1467.99"
/>
<path stroke="#b69487" vector-effect="non-scaling-stroke" d="
  M 737.72 1467.99
  Q 736.28 1466.14 735.73 1463.78"
/>
<path stroke="#ad8d86" vector-effect="non-scaling-stroke" d="
  M 735.73 1463.78
  Q 729.03 1435.49 726.26 1406.75
  Q 724.96 1393.33 726.07 1379.97"
/>
<path stroke="#ad8d86" vector-effect="non-scaling-stroke" d="
  M 547.25 1397.89
  Q 547.40 1399.41 547.66 1399.13"
/>
<path stroke="#66240f" vector-effect="non-scaling-stroke" d="
  M 735.73 1463.78
  Q 734.86 1462.37 733.79 1461.21
  Q 732.66 1459.98 731.17 1459.72
  Q 725.64 1458.76 718.73 1457.85
  Q 710.16 1456.73 701.08 1454.84
  C 694.24 1453.42 687.00 1451.35 679.99 1449.51
  C 677.80 1448.93 675.28 1448.83 673.08 1449.22
  Q 652.53 1452.89 631.76 1450.78
  Q 604.81 1448.05 579.25 1438.83
  Q 573.10 1436.62 550.30 1427.28"
/>
<path stroke="#972e19" vector-effect="non-scaling-stroke" d="
  M 737.72 1467.99
  Q 737.84 1475.00 740.20 1481.76
  Q 741.29 1484.89 744.59 1496.89
  Q 746.20 1502.78 748.35 1508.46
  A 0.95 0.95 0.0 0 1 747.53 1509.74
  Q 738.67 1510.35 730.34 1510.90
  Q 722.59 1511.40 713.48 1511.74
  Q 657.30 1513.78 601.01 1511.64
  Q 584.95 1511.03 565.26 1510.36
  Q 550.14 1509.86 533.48 1508.49
  A 1.01 1.00 -67.0 0 1 532.81 1506.82
  Q 538.49 1500.36 540.41 1491.89"
/>
<path stroke="#df9790" vector-effect="non-scaling-stroke" d="
  M 838.52 1485.01
  Q 838.04 1486.10 838.27 1487.86
  Q 838.48 1489.47 838.18 1491.02
  Q 829.80 1534.73 818.92 1574.81
  C 808.92 1611.69 796.72 1648.90 780.25 1682.72
  Q 771.33 1701.05 759.94 1716.30
  C 752.94 1725.66 744.59 1734.20 733.68 1739.58
  C 728.26 1742.24 720.44 1744.04 714.75 1744.51
  Q 699.39 1745.80 683.97 1747.00"
/>
<path stroke="#df9790" vector-effect="non-scaling-stroke" d="
  M 650.92 1747.00
  Q 623.02 1745.75 595.28 1743.28
  Q 588.30 1742.66 581.13 1741.58
  Q 574.08 1740.51 566.94 1739.68
  C 559.62 1738.82 552.14 1737.32 544.67 1736.26
  Q 541.46 1735.81 538.85 1734.93
  Q 535.06 1733.65 533.39 1732.35
  Q 529.06 1728.97 524.28 1726.10"
/>
</g>
<path fill="#275d11" d="
  M 709.20 165.43
  Q 691.98 179.21 673.75 182.95
  Q 662.31 185.29 651.08 182.53
  A 0.33 0.33 0.0 0 0 650.71 183.01
  L 653.87 189.06
  Q 653.46 191.39 654.62 193.71
  C 658.29 201.05 662.69 208.07 666.72 215.07
  C 668.66 218.44 670.00 222.21 671.83 225.78
  L 678.99 238.49
  C 680.48 242.01 683.00 245.23 684.48 248.28
  C 686.29 252.00 687.97 255.78 690.22 259.18
  Q 693.08 263.48 695.72 267.58
  C 700.77 275.40 705.56 284.70 710.02 291.48
  Q 718.70 304.72 726.97 316.47
  C 734.36 326.96 743.01 336.49 750.24 346.78
  C 754.01 352.15 758.71 356.59 762.70 361.72
  C 765.19 364.91 768.52 367.12 770.87 370.27
  Q 775.69 376.71 782.39 382.53
  C 786.79 386.36 790.46 390.89 794.90 394.91
  Q 796.40 396.26 801.14 399.39
  Q 806.25 402.76 809.29 407.41
  Q 795.53 414.95 781.99 413.71
  Q 775.81 413.15 768.56 409.77
  Q 768.15 409.58 767.69 409.58
  L 767.36 409.58
  A 1.12 1.11 75.6 0 1 766.36 408.98
  Q 765.41 407.16 764.03 407.84
  Q 763.33 408.18 762.76 408.76
  C 755.12 416.59 746.14 423.74 734.97 424.04
  Q 732.43 424.11 729.86 424.47
  L 722.09 421.70
  L 715.03 416.62
  Q 714.62 416.32 714.82 416.79
  Q 716.53 420.90 719.66 424.58
  Q 719.85 429.20 722.51 433.02
  C 725.72 437.65 729.48 442.28 731.93 447.28
  C 733.27 450.01 734.32 452.84 735.95 455.45
  Q 739.43 461.01 743.60 467.00
  Q 745.49 469.73 750.14 477.97
  Q 753.35 483.66 756.65 488.84
  Q 766.45 504.22 775.48 518.64
  C 782.80 530.31 791.80 540.93 799.65 552.13
  C 805.62 560.65 812.69 568.11 818.88 576.36
  Q 822.33 580.95 825.76 584.63
  C 829.10 588.23 832.19 591.83 835.67 595.20
  Q 849.03 608.13 862.11 619.48
  Q 869.15 625.60 878.53 631.35
  Q 890.88 638.94 904.74 639.38
  Q 905.89 639.42 906.90 640.73
  Q 883.89 662.63 852.32 664.52
  C 850.42 664.63 848.12 664.97 846.42 665.58
  Q 836.74 669.07 829.33 670.63
  Q 825.00 671.55 808.76 673.14
  Q 806.45 673.37 804.59 674.58
  Q 798.71 678.43 792.75 680.61
  Q 790.64 680.49 786.00 679.20
  Q 783.92 678.62 781.32 679.32
  L 775.21 675.14
  Q 773.88 674.22 774.72 675.60
  Q 776.81 679.05 780.20 683.10
  Q 780.41 685.83 782.67 688.60
  C 785.55 692.16 788.43 695.70 790.99 699.52
  Q 801.40 715.01 810.03 727.10
  C 814.37 733.19 819.71 738.54 824.10 744.64
  Q 828.92 751.34 834.84 758.08
  C 840.34 764.33 844.59 771.30 850.17 777.31
  Q 854.01 781.45 857.50 786.13
  C 859.76 789.16 862.80 791.35 865.13 794.30
  Q 872.52 803.68 883.50 814.83
  Q 890.31 821.74 896.82 828.82
  Q 897.95 830.05 899.17 831.29
  Q 911.43 843.77 921.95 852.65
  C 926.25 856.29 930.55 860.45 934.79 864.48
  Q 937.27 866.84 939.89 868.88
  Q 948.97 875.99 957.90 882.89
  C 962.24 886.25 966.78 889.30 971.25 892.62
  C 976.70 896.66 983.00 900.44 989.12 903.84
  Q 1000.54 910.19 1019.25 919.22
  C 1023.28 921.17 1030.08 923.74 1035.45 925.07
  C 1039.09 925.98 1042.12 927.83 1045.97 928.00
  Q 1054.47 928.39 1063.62 929.89
  Q 1065.18 930.15 1066.39 931.28
  Q 1064.51 933.17 1061.34 937.33
  Q 1055.12 945.50 1045.40 954.98
  C 1033.67 966.42 1016.58 978.27 999.97 974.20
  C 998.36 973.81 996.99 973.91 995.83 975.20
  Q 990.04 981.66 985.03 986.52
  C 977.51 993.82 966.68 1000.69 956.22 1002.17
  C 953.33 1002.58 950.18 1003.71 948.04 1005.62
  Q 938.82 1013.84 925.70 1013.50
  C 922.93 1013.43 920.89 1012.68 918.36 1011.96
  Q 917.35 1011.67 918.02 1012.48
  L 923.68 1019.28
  Q 923.90 1023.12 926.75 1026.03
  Q 938.02 1037.56 945.29 1047.07
  C 948.71 1051.56 952.86 1055.05 956.24 1059.66
  C 959.26 1063.79 963.11 1066.91 966.19 1070.95
  Q 968.95 1074.58 972.31 1077.68
  C 975.39 1080.52 977.56 1083.86 980.62 1086.88
  C 985.92 1092.12 990.97 1098.19 996.63 1103.73
  C 1001.38 1108.37 1005.67 1113.71 1010.83 1118.16
  C 1015.69 1122.35 1019.74 1127.14 1024.43 1131.29
  Q 1034.45 1140.19 1044.07 1148.88
  C 1050.37 1154.57 1056.91 1159.93 1063.58 1165.38
  Q 1093.27 1189.67 1124.74 1206.75
  Q 1138.08 1213.99 1153.97 1219.89
  Q 1157.73 1221.28 1161.59 1222.15
  C 1165.10 1222.94 1168.22 1224.54 1171.84 1224.93
  Q 1175.25 1225.29 1178.76 1226.18
  C 1182.09 1227.02 1185.56 1226.84 1189.00 1226.93
  Q 1191.61 1227.00 1195.07 1229.45
  Q 1186.87 1237.28 1180.60 1242.34
  Q 1166.88 1253.41 1149.14 1256.87
  Q 1143.42 1257.99 1132.03 1257.16
  C 1129.68 1256.99 1127.16 1257.49 1125.36 1258.95
  Q 1117.23 1265.53 1110.24 1270.02
  Q 1091.52 1282.04 1068.34 1288.54
  C 1065.14 1289.44 1061.79 1289.55 1058.48 1290.15
  C 1047.05 1292.24 1034.45 1291.52 1023.10 1289.15
  C 1020.29 1288.56 1017.73 1287.48 1014.99 1286.56
  A 0.92 0.92 0.0 0 0 1013.82 1287.17
  Q 1008.24 1306.03 992.30 1318.96
  C 981.23 1327.94 967.75 1333.13 953.93 1335.90
  Q 947.37 1337.21 939.52 1337.57
  C 931.68 1337.92 924.28 1338.06 916.67 1337.40
  Q 912.36 1337.03 908.76 1340.01
  Q 889.98 1355.50 868.20 1365.18
  Q 849.29 1373.58 834.47 1377.04
  Q 815.28 1381.52 806.52 1382.45
  Q 771.85 1386.15 735.51 1381.67
  Q 731.88 1381.23 726.07 1379.97
  Q 701.24 1375.92 675.27 1367.68
  Q 672.86 1366.91 671.22 1367.65
  Q 668.92 1368.69 667.37 1371.11
  L 665.32 1370.00
  Q 664.78 1369.70 664.21 1369.94
  Q 652.74 1374.65 642.75 1377.94
  Q 633.48 1380.99 618.33 1384.28
  Q 597.36 1388.83 573.26 1386.76
  Q 550.78 1384.84 529.09 1372.97
  Q 521.37 1368.74 513.71 1362.09
  Q 503.07 1352.86 495.90 1343.06
  C 494.77 1341.51 492.71 1341.37 490.99 1341.74
  Q 478.62 1344.39 470.17 1344.89
  Q 461.21 1345.43 450.05 1345.99
  Q 422.87 1347.35 398.77 1340.79
  Q 382.11 1336.26 363.68 1326.14
  C 353.16 1320.37 343.12 1311.98 335.22 1303.99
  Q 324.10 1292.76 313.95 1275.02
  Q 312.98 1273.32 311.14 1273.95
  C 288.94 1281.53 264.24 1278.53 243.44 1268.06
  Q 222.15 1257.34 210.16 1245.94
  C 209.00 1244.83 207.27 1244.11 205.66 1244.58
  Q 195.74 1247.54 185.83 1249.64
  Q 174.03 1252.14 160.90 1251.68
  Q 150.80 1251.32 140.99 1248.66
  Q 112.59 1240.95 94.58 1216.61
  A 1.58 1.58 0.0 0 1 95.25 1214.21
  Q 96.27 1213.79 97.31 1213.60
  Q 114.93 1210.50 131.74 1204.20
  Q 146.88 1198.53 156.87 1193.15
  Q 172.55 1184.70 189.88 1173.21
  Q 195.20 1169.69 219.69 1149.96
  C 226.95 1144.12 234.20 1137.53 240.99 1130.82
  Q 262.50 1109.59 269.51 1101.89
  Q 284.38 1085.56 301.26 1065.04
  Q 306.77 1058.34 312.60 1050.74
  Q 325.93 1033.37 341.22 1011.89
  Q 352.46 996.10 363.08 978.46
  Q 363.37 977.97 362.82 977.80
  Q 362.31 977.65 361.74 977.94
  Q 346.17 985.83 330.22 983.25
  Q 320.33 981.65 311.70 976.63
  C 299.74 969.67 291.52 960.20 284.09 948.92
  A 2.43 2.42 -23.0 0 0 281.53 947.89
  C 269.26 950.69 254.75 950.75 243.24 945.51
  C 228.01 938.59 217.56 927.77 212.15 911.61
  Q 211.77 910.47 212.55 909.64
  Q 213.47 908.66 215.08 908.43
  C 219.24 907.84 223.24 907.47 227.32 906.30
  Q 243.57 901.65 248.26 899.88
  Q 270.54 891.48 293.20 878.71
  Q 300.92 874.36 309.20 868.82
  Q 325.01 858.25 334.72 850.72
  Q 356.52 833.83 379.69 811.05
  Q 386.70 804.16 393.78 796.37
  Q 401.96 787.38 408.63 779.65
  Q 418.85 767.83 430.16 753.72
  Q 436.79 745.45 442.41 737.91
  Q 469.94 701.01 494.77 658.26
  Q 498.37 652.05 502.18 646.00
  Q 502.74 645.10 502.54 644.16
  A 0.89 0.88 65.9 0 0 501.16 643.63
  C 496.22 647.24 490.52 649.70 484.53 651.99
  Q 479.22 654.02 472.90 655.43
  Q 465.99 656.96 460.77 657.70
  Q 451.55 659.00 439.41 656.79
  Q 428.72 654.84 418.27 650.56
  Q 406.21 645.62 395.34 635.90
  Q 393.80 634.52 392.17 635.71
  C 386.31 639.97 379.80 642.97 372.64 643.34
  Q 368.61 643.55 363.70 641.75
  Q 355.04 638.57 349.07 633.44
  Q 344.26 629.30 338.49 622.64
  Q 346.93 616.19 349.44 613.93
  Q 362.02 602.61 373.29 591.01
  Q 380.52 587.22 386.52 581.76
  Q 388.52 579.94 390.25 578.24
  Q 399.35 569.33 407.56 561.05
  Q 417.16 551.37 422.26 544.99
  Q 426.95 539.13 431.80 533.38
  Q 436.86 527.39 441.13 521.60
  Q 450.13 509.41 458.02 497.88
  Q 462.02 492.03 473.65 472.81
  Q 479.42 463.27 483.59 455.36
  Q 499.84 424.53 511.23 391.45
  A 1.14 1.14 0.0 0 0 509.81 389.99
  Q 494.29 394.85 478.56 393.43
  Q 470.40 392.70 460.68 389.52
  Q 451.46 386.50 442.96 382.28
  Q 439.30 380.46 435.03 377.51
  C 433.43 376.40 432.54 374.95 431.24 373.52
  Q 438.71 365.79 442.10 361.59
  C 448.94 353.10 456.08 344.71 462.56 336.05
  C 467.87 328.96 473.25 322.40 478.42 315.27
  Q 492.16 296.36 504.24 275.76
  C 508.61 268.32 513.72 261.34 517.60 253.68
  Q 521.15 246.67 525.25 240.32
  Q 530.45 235.43 534.47 229.72
  Q 542.24 218.66 550.72 206.42
  Q 551.84 204.80 553.03 203.05
  Q 562.95 188.40 573.97 171.22
  Q 574.40 170.54 574.39 169.73
  A 0.89 0.89 0.0 0 0 573.33 168.87
  Q 564.14 170.69 555.03 167.29
  Q 542.05 162.46 534.12 156.15
  Q 529.54 152.50 524.80 148.57
  Q 522.92 147.01 521.41 144.97
  C 519.86 142.89 520.86 140.27 521.87 138.22
  C 522.19 137.57 522.22 136.69 522.37 135.97
  A 2.11 2.09 71.3 0 1 522.79 135.11
  Q 524.57 132.94 524.44 130.14
  C 528.30 124.63 533.17 118.89 536.63 114.10
  Q 546.55 100.42 555.80 86.51
  Q 558.37 82.65 560.90 77.59
  C 564.33 70.75 568.77 64.51 573.03 58.08
  C 577.27 51.69 580.90 44.67 584.87 37.90
  C 588.83 31.15 591.62 23.08 595.28 16.40
  Q 597.08 13.12 601.04 10.69
  A 1.95 1.93 49.7 0 1 603.33 10.89
  Q 604.99 12.35 606.31 14.12
  Q 611.97 21.75 615.17 28.47
  Q 618.15 34.74 621.24 40.31
  Q 626.72 50.17 631.23 57.33
  Q 638.45 68.80 665.40 108.89
  Q 670.89 117.05 675.93 123.75
  Q 682.69 132.74 689.33 142.09
  Q 692.87 147.09 698.02 152.68
  Q 703.81 158.97 709.20 165.43
  Z
  M 687.38 699.45
  C 692.86 698.79 698.22 697.74 703.75 697.60
  Q 707.00 697.52 709.89 697.07
  Q 739.58 692.49 754.34 666.17
  Q 758.17 659.34 760.43 651.68
  Q 761.75 647.18 758.93 650.93
  C 747.46 666.13 727.21 672.09 708.50 670.75
  Q 703.36 670.38 697.75 669.50
  Q 693.59 668.85 690.40 670.78
  Q 670.66 682.72 647.76 680.39
  Q 642.52 679.86 634.82 677.36
  C 632.53 676.61 630.49 675.01 628.08 674.34
  Q 626.08 673.78 627.28 675.48
  C 629.54 678.69 631.33 682.17 634.13 685.00
  Q 637.96 688.89 641.48 691.10
  Q 647.92 695.14 655.95 697.48
  Q 669.95 701.56 687.38 699.45
  Z
  M 865.54 940.68
  Q 861.72 952.04 850.97 957.63
  Q 843.40 961.56 835.82 962.47
  Q 827.07 963.52 818.57 962.74
  Q 807.32 961.71 789.77 957.23
  C 788.26 956.84 786.63 956.72 785.46 957.94
  Q 768.99 975.18 744.37 973.43
  Q 728.14 972.27 712.71 965.40
  Q 712.27 965.21 711.87 965.48
  A 0.57 0.57 0.0 0 0 711.73 966.28
  C 714.12 969.63 716.04 972.94 718.92 976.09
  Q 734.40 993.00 756.60 994.19
  Q 765.13 994.64 776.00 992.07
  Q 784.94 989.95 793.76 984.89
  C 796.39 983.38 798.72 980.95 801.98 983.12
  Q 810.99 989.13 821.89 992.86
  Q 832.49 996.49 841.09 996.56
  C 862.19 996.75 876.36 984.97 886.82 967.65
  Q 888.66 964.61 891.97 964.27
  C 903.12 963.12 913.58 959.61 922.18 952.74
  C 928.55 947.66 933.35 939.70 934.72 931.35
  Q 935.31 927.75 935.92 924.26
  Q 936.74 919.55 935.16 912.75
  Q 934.98 911.98 934.11 912.31
  A 0.87 0.86 86.8 0 0 933.58 912.91
  Q 932.35 917.61 930.09 921.72
  C 924.43 932.00 910.58 937.12 899.16 937.82
  Q 884.85 938.70 870.32 935.65
  C 866.13 934.77 866.44 937.98 865.54 940.68
  Z
  M 387.45 1015.40
  Q 387.65 1016.02 387.87 1016.63
  Q 391.64 1027.08 396.65 1034.33
  Q 413.05 1058.04 442.36 1061.88
  Q 448.48 1062.68 461.47 1062.84
  C 463.24 1062.87 465.23 1062.75 466.39 1064.14
  Q 473.83 1073.05 479.83 1078.68
  Q 484.23 1082.81 492.37 1087.75
  C 500.74 1092.83 512.53 1094.56 521.64 1094.34
  Q 533.37 1094.05 546.32 1088.40
  Q 562.41 1081.37 573.49 1072.06
  Q 575.14 1070.67 577.23 1070.89
  Q 585.38 1071.73 593.04 1072.55
  C 601.00 1073.41 609.10 1073.52 616.82 1073.25
  Q 637.10 1072.53 654.57 1063.01
  Q 663.80 1057.99 669.91 1051.13
  Q 676.53 1043.71 680.50 1034.52
  Q 680.65 1034.18 680.60 1033.96
  Q 680.52 1033.63 680.17 1033.47
  Q 679.73 1033.28 679.38 1033.59
  C 671.52 1040.42 662.88 1046.38 653.46 1050.48
  C 647.11 1053.24 639.90 1054.61 633.07 1055.47
  Q 624.22 1056.59 617.04 1055.30
  C 611.72 1054.35 605.89 1053.19 601.00 1051.32
  Q 589.34 1046.85 577.82 1038.17
  Q 575.63 1036.52 572.77 1037.86
  C 561.40 1043.23 551.40 1047.12 540.21 1048.80
  Q 511.21 1053.16 489.99 1035.11
  C 485.63 1031.40 482.15 1026.14 478.95 1021.36
  A 2.03 2.03 0.0 0 0 476.22 1020.74
  C 464.36 1027.83 452.42 1033.27 438.57 1035.11
  C 419.63 1037.64 402.05 1028.64 389.80 1013.92
  Q 388.79 1012.71 387.91 1011.30
  Q 385.55 1007.55 386.49 1011.88
  Q 386.85 1013.53 387.45 1015.40
  Z"
/>
<path fill="#274810" d="
  M 524.44 130.14
  Q 524.57 132.94 522.79 135.11
  A 2.11 2.09 71.3 0 0 522.37 135.97
  C 522.22 136.69 522.19 137.57 521.87 138.22
  C 520.86 140.27 519.86 142.89 521.41 144.97
  Q 522.92 147.01 524.80 148.57
  Q 529.54 152.50 534.12 156.15
  Q 542.05 162.46 555.03 167.29
  Q 564.14 170.69 573.33 168.87
  A 0.89 0.89 0.0 0 1 574.39 169.73
  Q 574.40 170.54 573.97 171.22
  Q 562.95 188.40 553.03 203.05
  Q 551.84 204.80 550.72 206.42
  Q 542.24 218.66 534.47 229.72
  Q 530.45 235.43 525.25 240.32
  Q 527.85 234.18 531.03 228.60
  Q 533.71 223.89 535.21 220.71
  C 538.02 214.80 540.84 208.86 544.47 203.26
  Q 547.42 198.73 550.42 194.17
  Q 553.85 188.98 549.06 184.37
  Q 549.23 182.59 548.27 182.82
  Q 537.68 185.35 526.99 183.23
  Q 511.62 180.19 495.77 169.58
  Q 495.22 169.24 495.33 167.32
  Q 495.38 166.47 496.80 164.32
  Q 497.58 163.13 498.90 161.77
  Q 513.11 147.10 524.44 130.14
  Z"
/>
<path fill="#fefefe" fill-opacity="0.996" d="
  M 709.20 165.43
  Q 709.99 168.60 708.97 170.02
  Q 707.79 171.66 705.76 172.72
  Q 694.11 178.79 685.57 182.03
  Q 680.38 184.00 673.39 184.75
  C 670.78 185.03 668.29 186.01 665.68 185.88
  Q 665.17 185.86 664.73 185.60
  Q 661.21 183.50 657.20 184.50
  Q 656.70 184.62 656.43 185.05
  L 653.87 189.06
  L 650.71 183.01
  A 0.33 0.33 0.0 0 1 651.08 182.53
  Q 662.31 185.29 673.75 182.95
  Q 691.98 179.21 709.20 165.43
  Z"
/>
<path fill="#fefefe" fill-opacity="0.996" d="
  M 495.77 169.58
  Q 511.62 180.19 526.99 183.23
  Q 537.68 185.35 548.27 182.82
  Q 549.23 182.59 549.06 184.37
  Q 546.17 184.08 543.78 185.22
  Q 543.33 185.43 543.02 185.82
  C 541.70 187.44 537.06 187.08 535.41 186.66
  Q 530.52 185.42 525.42 184.58
  C 516.43 183.10 507.79 178.44 499.82 174.21
  Q 496.85 172.64 495.77 169.58
  Z"
/>
<path fill="#fefefe" fill-opacity="0.996" d="
  M 671.83 225.78
  C 674.54 229.62 677.73 233.91 678.99 238.49
  L 671.83 225.78
  Z"
/>
<path fill="#274810" d="
  M 431.24 373.52
  C 432.54 374.95 433.43 376.40 435.03 377.51
  Q 439.30 380.46 442.96 382.28
  Q 451.46 386.50 460.68 389.52
  Q 470.40 392.70 478.56 393.43
  Q 494.29 394.85 509.81 389.99
  A 1.14 1.14 0.0 0 1 511.23 391.45
  Q 499.84 424.53 483.59 455.36
  Q 479.42 463.27 473.65 472.81
  Q 462.02 492.03 458.02 497.88
  Q 450.13 509.41 441.13 521.60
  Q 436.86 527.39 431.80 533.38
  Q 426.95 539.13 422.26 544.99
  Q 417.16 551.37 407.56 561.05
  Q 399.35 569.33 390.25 578.24
  Q 388.52 579.94 386.52 581.76
  Q 380.52 587.22 373.29 591.01
  C 377.02 586.28 381.39 581.99 384.83 577.63
  C 388.34 573.19 391.81 568.69 395.55 564.52
  Q 399.08 560.58 401.83 556.77
  Q 412.10 542.58 422.31 528.90
  C 431.63 516.42 439.32 503.15 447.74 490.19
  C 456.16 477.21 463.86 463.79 471.17 450.24
  Q 474.43 444.20 478.48 439.56
  C 481.58 436.00 483.36 431.87 484.24 427.25
  Q 485.06 422.90 482.58 422.03
  Q 483.32 419.83 484.05 418.57
  Q 486.15 414.98 483.14 417.86
  Q 478.36 422.43 469.53 424.15
  C 461.39 425.73 451.73 421.56 445.60 415.99
  C 442.57 413.24 439.21 410.93 436.38 407.94
  A 1.49 1.49 0.0 0 0 434.48 407.71
  C 428.44 411.66 422.61 413.68 415.21 413.78
  Q 403.59 413.94 392.53 408.65
  Q 392.33 406.96 393.83 405.28
  Q 394.71 404.29 396.73 403.44
  Q 405.22 399.87 412.71 392.46
  Q 422.13 383.14 431.24 373.52
  Z"
/>
<path fill="#fefefe" fill-opacity="0.996" d="
  M 482.58 422.03
  Q 480.23 422.78 477.56 423.46
  Q 476.09 423.84 475.07 424.70
  Q 474.01 425.59 472.77 425.87
  Q 463.82 427.89 456.84 424.21
  Q 447.30 419.17 440.84 412.78
  Q 439.06 411.02 436.70 409.96
  Q 436.24 409.76 435.78 409.94
  Q 432.58 411.26 429.59 413.10
  C 422.56 417.42 411.55 416.48 403.69 415.44
  Q 398.60 414.77 394.28 412.46
  Q 392.69 411.60 392.53 408.65
  Q 403.59 413.94 415.21 413.78
  C 422.61 413.68 428.44 411.66 434.48 407.71
  A 1.49 1.49 0.0 0 1 436.38 407.94
  C 439.21 410.93 442.57 413.24 445.60 415.99
  C 451.73 421.56 461.39 425.73 469.53 424.15
  Q 478.36 422.43 483.14 417.86
  Q 486.15 414.98 484.05 418.57
  Q 483.32 419.83 482.58 422.03
  Z"
/>
<path fill="#fefefe" fill-opacity="0.996" d="
  M 809.29 407.41
  L 807.97 412.17
  Q 807.83 412.69 807.33 412.86
  Q 796.69 416.44 784.78 416.27
  C 778.70 416.18 772.52 412.82 767.39 409.69
  A 0.67 0.66 -45.4 0 0 766.69 409.70
  C 765.19 410.65 763.71 411.15 762.37 412.43
  C 756.97 417.63 749.96 422.62 742.97 425.35
  C 740.32 426.38 732.05 427.70 729.86 424.47
  Q 732.43 424.11 734.97 424.04
  C 746.14 423.74 755.12 416.59 762.76 408.76
  Q 763.33 408.18 764.03 407.84
  Q 765.41 407.16 766.36 408.98
  A 1.12 1.11 75.6 0 0 767.36 409.58
  L 767.69 409.58
  Q 768.15 409.58 768.56 409.77
  Q 775.81 413.15 781.99 413.71
  Q 795.53 414.95 809.29 407.41
  Z"
/>
<path fill="#fefefe" fill-opacity="0.996" d="
  M 722.09 421.70
  Q 719.88 421.32 719.66 424.58
  Q 716.53 420.90 714.82 416.79
  Q 714.62 416.32 715.03 416.62
  L 722.09 421.70
  Z"
/>
<path fill="#274810" d="
  M 338.49 622.64
  Q 344.26 629.30 349.07 633.44
  Q 355.04 638.57 363.70 641.75
  Q 368.61 643.55 372.64 643.34
  C 379.80 642.97 386.31 639.97 392.17 635.71
  Q 393.80 634.52 395.34 635.90
  Q 406.21 645.62 418.27 650.56
  Q 428.72 654.84 439.41 656.79
  Q 451.55 659.00 460.77 657.70
  Q 465.99 656.96 472.90 655.43
  Q 479.22 654.02 484.53 651.99
  C 490.52 649.70 496.22 647.24 501.16 643.63
  A 0.89 0.88 65.9 0 1 502.54 644.16
  Q 502.74 645.10 502.18 646.00
  Q 498.37 652.05 494.77 658.26
  Q 469.94 701.01 442.41 737.91
  Q 436.79 745.45 430.16 753.72
  Q 418.85 767.83 408.63 779.65
  Q 401.96 787.38 393.78 796.37
  Q 386.70 804.16 379.69 811.05
  Q 356.52 833.83 334.72 850.72
  Q 325.01 858.25 309.20 868.82
  Q 300.92 874.36 293.20 878.71
  Q 270.54 891.48 248.26 899.88
  Q 243.57 901.65 227.32 906.30
  C 223.24 907.47 219.24 907.84 215.08 908.43
  Q 213.47 908.66 212.55 909.64
  Q 211.77 910.47 212.15 911.61
  C 217.56 927.77 228.01 938.59 243.24 945.51
  C 254.75 950.75 269.26 950.69 281.53 947.89
  A 2.43 2.42 -23.0 0 1 284.09 948.92
  C 291.52 960.20 299.74 969.67 311.70 976.63
  Q 320.33 981.65 330.22 983.25
  Q 346.17 985.83 361.74 977.94
  Q 362.31 977.65 362.82 977.80
  Q 363.37 977.97 363.08 978.46
  Q 352.46 996.10 341.22 1011.89
  Q 325.93 1033.37 312.60 1050.74
  Q 306.77 1058.34 301.26 1065.04
  Q 284.38 1085.56 269.51 1101.89
  Q 262.50 1109.59 240.99 1130.82
  C 234.20 1137.53 226.95 1144.12 219.69 1149.96
  Q 195.20 1169.69 189.88 1173.21
  Q 172.55 1184.70 156.87 1193.15
  Q 146.88 1198.53 131.74 1204.20
  Q 114.93 1210.50 97.31 1213.60
  Q 96.27 1213.79 95.25 1214.21
  A 1.58 1.58 0.0 0 0 94.58 1216.61
  Q 112.59 1240.95 140.99 1248.66
  Q 150.80 1251.32 160.90 1251.68
  Q 174.03 1252.14 185.83 1249.64
  Q 195.74 1247.54 205.66 1244.58
  C 207.27 1244.11 209.00 1244.83 210.16 1245.94
  Q 222.15 1257.34 243.44 1268.06
  C 264.24 1278.53 288.94 1281.53 311.14 1273.95
  Q 312.98 1273.32 313.95 1275.02
  Q 324.10 1292.76 335.22 1303.99
  C 343.12 1311.98 353.16 1320.37 363.68 1326.14
  Q 382.11 1336.26 398.77 1340.79
  Q 422.87 1347.35 450.05 1345.99
  Q 461.21 1345.43 470.17 1344.89
  Q 478.62 1344.39 490.99 1341.74
  C 492.71 1341.37 494.77 1341.51 495.90 1343.06
  Q 503.07 1352.86 513.71 1362.09
  Q 521.37 1368.74 529.09 1372.97
  Q 550.78 1384.84 573.26 1386.76
  Q 597.36 1388.83 618.33 1384.28
  Q 633.48 1380.99 642.75 1377.94
  Q 652.74 1374.65 664.21 1369.94
  Q 664.78 1369.70 665.32 1370.00
  L 667.37 1371.11
  Q 657.52 1380.03 645.87 1386.93
  C 638.85 1391.09 629.84 1394.84 623.37 1397.22
  Q 615.72 1400.02 606.25 1401.44
  Q 597.58 1402.73 593.24 1402.92
  Q 569.99 1403.93 547.25 1397.89
  Q 543.84 1396.80 540.27 1395.79
  Q 536.70 1394.76 533.32 1393.49
  Q 523.70 1389.87 520.80 1388.59
  Q 505.68 1381.89 491.80 1373.41
  Q 489.83 1372.21 485.62 1369.05
  Q 482.57 1366.77 479.28 1364.89
  L 472.95 1360.08
  Q 470.01 1357.98 467.09 1355.68
  C 465.73 1354.62 464.65 1354.34 462.99 1355.00
  Q 445.18 1362.19 427.40 1366.38
  C 423.76 1367.24 420.07 1367.61 416.52 1368.55
  Q 412.79 1369.55 408.59 1369.86
  Q 389.59 1371.30 373.13 1370.41
  Q 365.56 1370.00 354.58 1368.08
  Q 347.52 1366.85 341.76 1364.87
  C 340.64 1364.48 339.49 1364.41 338.32 1364.05
  Q 322.18 1359.18 307.63 1351.09
  C 303.67 1348.89 300.09 1346.13 296.24 1343.79
  C 291.69 1341.02 289.54 1337.12 283.50 1337.45
  Q 273.97 1337.97 264.55 1337.85
  C 261.66 1337.82 259.12 1336.69 256.16 1336.72
  Q 250.13 1336.78 243.64 1335.55
  Q 234.10 1333.74 231.24 1332.48
  Q 227.27 1330.75 223.29 1329.11
  Q 210.93 1324.01 201.25 1314.47
  Q 196.45 1308.87 195.10 1305.38
  Q 190.77 1294.21 188.99 1290.52
  Q 188.42 1289.33 186.75 1289.74
  Q 186.76 1287.91 185.64 1286.99
  Q 185.28 1286.70 184.83 1286.84
  Q 166.82 1292.74 148.51 1291.03
  C 142.00 1290.42 134.80 1289.59 128.42 1287.64
  C 124.86 1286.56 120.86 1285.72 117.56 1284.08
  C 114.65 1282.64 111.64 1281.89 108.64 1280.48
  C 99.99 1276.42 92.84 1272.70 85.45 1266.93
  Q 83.33 1265.27 81.37 1263.95
  Q 79.24 1262.52 77.12 1261.12
  C 74.56 1259.44 73.02 1257.03 69.54 1257.35
  Q 62.24 1258.02 55.99 1257.61
  Q 41.67 1256.66 29.76 1249.18
  Q 25.34 1246.41 20.66 1243.38
  C 16.02 1240.38 12.11 1236.62 7.74 1233.00
  Q 6.90 1228.14 11.55 1226.78
  C 15.54 1225.61 19.50 1227.39 23.57 1226.85
  C 40.14 1224.66 55.09 1219.08 70.79 1211.61
  Q 98.57 1198.38 121.88 1181.10
  C 129.73 1175.28 137.54 1169.37 145.03 1162.90
  Q 156.20 1153.26 166.81 1144.05
  C 180.83 1131.87 193.98 1118.69 206.85 1105.53
  Q 220.09 1091.99 236.98 1073.15
  Q 244.02 1065.29 249.91 1057.98
  C 257.20 1048.93 264.76 1040.57 273.27 1032.65
  Q 276.60 1029.56 279.29 1025.68
  C 280.82 1023.48 283.14 1017.28 278.81 1016.46
  Q 280.83 1014.70 281.47 1012.60
  Q 281.62 1012.11 281.13 1012.26
  Q 268.73 1016.03 257.70 1009.99
  C 253.47 1007.67 251.24 1003.52 246.00 1002.71
  Q 231.44 1000.47 219.21 990.81
  Q 216.11 988.09 212.18 983.06
  Q 210.20 980.54 207.23 979.14
  L 203.52 974.38
  A 1.34 1.33 -27.9 0 0 202.07 973.94
  Q 193.59 976.67 184.67 974.16
  Q 173.55 971.03 163.24 962.85
  Q 159.83 960.14 156.50 957.01
  Q 155.09 955.68 153.66 953.89
  Q 152.22 952.10 150.48 950.99
  L 141.49 941.69
  Q 140.59 939.66 138.64 938.80
  C 136.89 937.01 135.27 933.51 137.32 931.37
  C 138.75 929.90 140.14 929.06 142.23 928.93
  C 150.17 928.43 158.30 927.81 165.87 925.79
  C 183.85 920.99 200.73 912.55 218.06 902.69
  Q 235.10 893.01 249.63 881.53
  C 278.66 858.61 305.03 833.19 330.90 804.67
  C 336.66 798.33 342.48 791.90 348.00 785.24
  C 351.65 780.84 355.68 776.61 359.21 772.11
  Q 370.66 757.52 382.23 742.49
  C 387.40 735.76 392.73 727.70 398.50 720.65
  Q 402.02 716.35 405.08 712.01
  Q 410.84 703.82 419.84 691.57
  Q 423.47 686.63 421.19 681.44
  L 424.89 675.53
  Q 425.49 674.58 424.59 675.25
  C 423.01 676.41 421.56 677.76 419.73 678.50
  Q 413.24 681.12 407.55 680.32
  C 405.39 680.02 403.37 678.91 401.28 678.21
  C 397.42 676.94 395.40 673.48 390.82 673.14
  Q 378.31 672.21 369.99 670.60
  Q 363.18 669.28 355.25 666.26
  Q 352.14 665.07 348.76 664.80
  Q 338.77 664.00 328.83 661.59
  C 324.61 660.56 320.66 658.75 316.50 657.27
  Q 313.14 656.07 302.31 648.65
  Q 299.43 646.67 296.13 644.54
  Q 294.99 641.18 299.05 640.02
  C 302.16 639.14 307.04 639.06 310.61 638.03
  C 320.77 635.08 330.02 628.84 338.49 622.64
  Z"
/>
<path fill="#fefefe" fill-opacity="0.996" d="
  M 906.90 640.73
  C 908.76 644.05 906.38 646.72 903.68 648.40
  C 891.82 655.81 880.13 662.37 866.85 664.77
  C 860.13 665.99 853.41 666.70 846.78 668.46
  Q 837.15 671.00 827.43 673.27
  C 822.63 674.39 817.85 675.02 813.05 676.26
  C 810.01 677.04 807.16 677.11 804.06 678.20
  Q 798.72 680.08 792.75 680.61
  Q 798.71 678.43 804.59 674.58
  Q 806.45 673.37 808.76 673.14
  Q 825.00 671.55 829.33 670.63
  Q 836.74 669.07 846.42 665.58
  C 848.12 664.97 850.42 664.63 852.32 664.52
  Q 883.89 662.63 906.90 640.73
  Z"
/>
<path fill="#fefefe" fill-opacity="0.996" d="
  M 421.19 681.44
  Q 416.51 681.75 411.75 682.38
  C 407.14 682.98 401.71 679.34 397.44 677.98
  Q 390.69 675.85 381.41 675.10
  C 376.16 674.68 372.08 672.97 367.19 671.97
  Q 364.47 671.41 361.98 670.07
  C 359.14 668.55 355.78 668.91 352.72 667.74
  Q 346.22 665.24 338.68 665.30
  C 334.39 665.34 330.48 663.58 326.34 662.27
  Q 312.21 657.77 299.63 648.85
  Q 297.44 647.30 296.13 644.54
  Q 299.43 646.67 302.31 648.65
  Q 313.14 656.07 316.50 657.27
  C 320.66 658.75 324.61 660.56 328.83 661.59
  Q 338.77 664.00 348.76 664.80
  Q 352.14 665.07 355.25 666.26
  Q 363.18 669.28 369.99 670.60
  Q 378.31 672.21 390.82 673.14
  C 395.40 673.48 397.42 676.94 401.28 678.21
  C 403.37 678.91 405.39 680.02 407.55 680.32
  Q 413.24 681.12 419.73 678.50
  C 421.56 677.76 423.01 676.41 424.59 675.25
  Q 425.49 674.58 424.89 675.53
  L 421.19 681.44
  Z"
/>
<path fill="#274810" d="
  M 687.38 699.45
  Q 669.95 701.56 655.95 697.48
  Q 647.92 695.14 641.48 691.10
  Q 637.96 688.89 634.13 685.00
  C 631.33 682.17 629.54 678.69 627.28 675.48
  Q 626.08 673.78 628.08 674.34
  C 630.49 675.01 632.53 676.61 634.82 677.36
  Q 642.52 679.86 647.76 680.39
  Q 670.66 682.72 690.40 670.78
  Q 693.59 668.85 697.75 669.50
  Q 703.36 670.38 708.50 670.75
  C 727.21 672.09 747.46 666.13 758.93 650.93
  Q 761.75 647.18 760.43 651.68
  Q 758.17 659.34 754.34 666.17
  Q 739.58 692.49 709.89 697.07
  Q 707.00 697.52 703.75 697.60
  C 698.22 697.74 692.86 698.79 687.38 699.45
  Z"
/>
<path fill="#fefefe" fill-opacity="0.996" d="
  M 781.32 679.32
  Q 780.55 680.71 780.20 683.10
  Q 776.81 679.05 774.72 675.60
  Q 773.88 674.22 775.21 675.14
  L 781.32 679.32
  Z"
/>
<path fill="#274810" d="
  M 865.54 940.68
  C 866.44 937.98 866.13 934.77 870.32 935.65
  Q 884.85 938.70 899.16 937.82
  C 910.58 937.12 924.43 932.00 930.09 921.72
  Q 932.35 917.61 933.58 912.91
  A 0.87 0.86 86.8 0 1 934.11 912.31
  Q 934.98 911.98 935.16 912.75
  Q 936.74 919.55 935.92 924.26
  Q 935.31 927.75 934.72 931.35
  C 933.35 939.70 928.55 947.66 922.18 952.74
  C 913.58 959.61 903.12 963.12 891.97 964.27
  Q 888.66 964.61 886.82 967.65
  C 876.36 984.97 862.19 996.75 841.09 996.56
  Q 832.49 996.49 821.89 992.86
  Q 810.99 989.13 801.98 983.12
  C 798.72 980.95 796.39 983.38 793.76 984.89
  Q 784.94 989.95 776.00 992.07
  Q 765.13 994.64 756.60 994.19
  Q 734.40 993.00 718.92 976.09
  C 716.04 972.94 714.12 969.63 711.73 966.28
  A 0.57 0.57 0.0 0 1 711.87 965.48
  Q 712.27 965.21 712.71 965.40
  Q 728.14 972.27 744.37 973.43
  Q 768.99 975.18 785.46 957.94
  C 786.63 956.72 788.26 956.84 789.77 957.23
  Q 807.32 961.71 818.57 962.74
  Q 827.07 963.52 835.82 962.47
  Q 843.40 961.56 850.97 957.63
  Q 861.72 952.04 865.54 940.68
  Z"
/>
<path fill="#fefefe" fill-opacity="0.996" d="
  M 1066.39 931.28
  Q 1068.09 931.98 1067.56 933.55
  C 1065.72 938.89 1060.54 942.17 1057.48 945.38
  C 1049.72 953.53 1042.69 962.06 1033.29 968.43
  Q 1027.69 972.22 1023.02 973.85
  C 1016.18 976.25 1008.59 975.79 1001.41 976.79
  Q 998.63 977.18 996.54 978.73
  C 990.71 983.05 986.06 988.57 980.49 993.19
  Q 971.94 1000.29 961.03 1003.37
  Q 952.21 1005.86 944.11 1011.38
  Q 936.53 1016.55 926.35 1016.72
  C 924.90 1016.74 924.07 1017.99 923.68 1019.28
  L 918.02 1012.48
  Q 917.35 1011.67 918.36 1011.96
  C 920.89 1012.68 922.93 1013.43 925.70 1013.50
  Q 938.82 1013.84 948.04 1005.62
  C 950.18 1003.71 953.33 1002.58 956.22 1002.17
  C 966.68 1000.69 977.51 993.82 985.03 986.52
  Q 990.04 981.66 995.83 975.20
  C 996.99 973.91 998.36 973.81 999.97 974.20
  C 1016.58 978.27 1033.67 966.42 1045.40 954.98
  Q 1055.12 945.50 1061.34 937.33
  Q 1064.51 933.17 1066.39 931.28
  Z"
/>
<path fill="#fefefe" fill-opacity="0.996" d="
  M 138.64 938.80
  Q 140.59 939.66 141.49 941.69
  L 138.64 938.80
  Z"
/>
<path fill="#fefefe" fill-opacity="0.996" d="
  M 150.48 950.99
  Q 152.22 952.10 153.66 953.89
  Q 155.09 955.68 156.50 957.01
  Q 159.83 960.14 163.24 962.85
  Q 173.55 971.03 184.67 974.16
  Q 193.59 976.67 202.07 973.94
  A 1.34 1.33 -27.9 0 1 203.52 974.38
  L 207.23 979.14
  Q 202.38 976.41 200.51 976.45
  Q 195.42 976.56 190.49 976.42
  C 181.64 976.18 173.99 972.07 167.10 966.73
  Q 159.85 961.10 154.42 955.83
  Q 152.97 954.41 150.48 950.99
  Z"
/>
<path fill="#fefefe" fill-opacity="0.996" d="
  M 219.21 990.81
  Q 231.44 1000.47 246.00 1002.71
  C 251.24 1003.52 253.47 1007.67 257.70 1009.99
  Q 268.73 1016.03 281.13 1012.26
  Q 281.62 1012.11 281.47 1012.60
  Q 280.83 1014.70 278.81 1016.46
  Q 270.61 1016.18 265.33 1014.41
  Q 260.17 1012.66 249.81 1007.35
  Q 246.82 1005.81 242.44 1004.46
  Q 229.35 1000.44 219.21 990.81
  Z"
/>
<path fill="#274810" d="
  M 387.45 1015.40
  Q 386.85 1013.53 386.49 1011.88
  Q 385.55 1007.55 387.91 1011.30
  Q 388.79 1012.71 389.80 1013.92
  C 402.05 1028.64 419.63 1037.64 438.57 1035.11
  C 452.42 1033.27 464.36 1027.83 476.22 1020.74
  A 2.03 2.03 0.0 0 1 478.95 1021.36
  C 482.15 1026.14 485.63 1031.40 489.99 1035.11
  Q 511.21 1053.16 540.21 1048.80
  C 551.40 1047.12 561.40 1043.23 572.77 1037.86
  Q 575.63 1036.52 577.82 1038.17
  Q 589.34 1046.85 601.00 1051.32
  C 605.89 1053.19 611.72 1054.35 617.04 1055.30
  Q 624.22 1056.59 633.07 1055.47
  C 639.90 1054.61 647.11 1053.24 653.46 1050.48
  C 662.88 1046.38 671.52 1040.42 679.38 1033.59
  Q 679.73 1033.28 680.17 1033.47
  Q 680.52 1033.63 680.60 1033.96
  Q 680.65 1034.18 680.50 1034.52
  Q 676.53 1043.71 669.91 1051.13
  Q 663.80 1057.99 654.57 1063.01
  Q 637.10 1072.53 616.82 1073.25
  C 609.10 1073.52 601.00 1073.41 593.04 1072.55
  Q 585.38 1071.73 577.23 1070.89
  Q 575.14 1070.67 573.49 1072.06
  Q 562.41 1081.37 546.32 1088.40
  Q 533.37 1094.05 521.64 1094.34
  C 512.53 1094.56 500.74 1092.83 492.37 1087.75
  Q 484.23 1082.81 479.83 1078.68
  Q 473.83 1073.05 466.39 1064.14
  C 465.23 1062.75 463.24 1062.87 461.47 1062.84
  Q 448.48 1062.68 442.36 1061.88
  Q 413.05 1058.04 396.65 1034.33
  Q 391.64 1027.08 387.87 1016.63
  Q 387.65 1016.02 387.45 1015.40
  Z"
/>
<path fill="#fefefe" fill-opacity="0.996" d="
  M 1195.07 1229.45
  Q 1195.91 1232.60 1192.41 1236.14
  C 1178.61 1250.07 1162.16 1258.05 1143.43 1259.11
  Q 1138.73 1259.38 1134.37 1259.95
  C 1131.14 1260.38 1127.79 1260.99 1125.02 1262.83
  Q 1117.64 1267.72 1109.02 1273.44
  Q 1092.19 1284.59 1071.53 1289.58
  Q 1069.03 1290.18 1060.68 1291.79
  Q 1054.38 1293.01 1049.66 1293.11
  Q 1041.31 1293.29 1033.50 1292.84
  C 1031.13 1292.71 1028.62 1292.24 1026.51 1291.17
  Q 1022.61 1289.20 1016.36 1289.79
  Q 1015.68 1289.86 1015.34 1290.45
  C 1013.73 1293.18 1011.98 1295.32 1010.80 1298.43
  C 1005.76 1311.65 995.32 1321.21 982.88 1328.42
  Q 977.59 1331.49 971.09 1333.61
  Q 960.40 1337.09 950.23 1337.84
  Q 946.01 1338.15 941.86 1339.00
  Q 933.75 1340.65 926.15 1339.56
  Q 922.10 1338.97 918.44 1339.72
  Q 912.16 1340.99 907.73 1344.12
  Q 897.24 1351.54 887.79 1357.58
  Q 881.39 1361.68 872.63 1365.76
  Q 862.56 1370.45 856.67 1372.56
  Q 845.53 1376.55 833.41 1379.46
  Q 828.01 1380.76 822.64 1382.08
  Q 817.30 1383.39 811.76 1384.04
  C 806.26 1384.69 800.84 1385.29 795.26 1385.30
  Q 772.52 1385.33 749.12 1385.17
  Q 742.94 1385.13 737.39 1384.85
  A 0.88 0.88 0.0 0 1 736.58 1384.19
  C 735.88 1381.39 731.83 1381.99 729.82 1382.54
  A 0.93 0.93 0.0 0 0 729.15 1383.36
  L 729.12 1383.71
  Q 729.08 1384.23 728.61 1384.45
  Q 726.64 1385.39 726.62 1387.68
  C 726.59 1392.80 726.23 1397.72 727.27 1402.87
  Q 728.63 1409.59 728.79 1416.70
  C 728.91 1422.20 730.71 1427.45 731.20 1432.79
  Q 731.57 1436.83 732.52 1440.64
  C 733.40 1444.15 733.49 1447.64 734.25 1451.17
  Q 735.42 1456.58 736.29 1462.00
  Q 736.65 1464.25 739.08 1467.93
  Q 738.64 1468.14 737.72 1467.99
  Q 736.28 1466.14 735.73 1463.78
  Q 729.03 1435.49 726.26 1406.75
  Q 724.96 1393.33 726.07 1379.97
  Q 731.88 1381.23 735.51 1381.67
  Q 771.85 1386.15 806.52 1382.45
  Q 815.28 1381.52 834.47 1377.04
  Q 849.29 1373.58 868.20 1365.18
  Q 889.98 1355.50 908.76 1340.01
  Q 912.36 1337.03 916.67 1337.40
  C 924.28 1338.06 931.68 1337.92 939.52 1337.57
  Q 947.37 1337.21 953.93 1335.90
  C 967.75 1333.13 981.23 1327.94 992.30 1318.96
  Q 1008.24 1306.03 1013.82 1287.17
  A 0.92 0.92 0.0 0 1 1014.99 1286.56
  C 1017.73 1287.48 1020.29 1288.56 1023.10 1289.15
  C 1034.45 1291.52 1047.05 1292.24 1058.48 1290.15
  C 1061.79 1289.55 1065.14 1289.44 1068.34 1288.54
  Q 1091.52 1282.04 1110.24 1270.02
  Q 1117.23 1265.53 1125.36 1258.95
  C 1127.16 1257.49 1129.68 1256.99 1132.03 1257.16
  Q 1143.42 1257.99 1149.14 1256.87
  Q 1166.88 1253.41 1180.60 1242.34
  Q 1186.87 1237.28 1195.07 1229.45
  Z"
/>
<path fill="#fefefe" fill-opacity="0.996" d="
  M 7.74 1233.00
  C 12.11 1236.62 16.02 1240.38 20.66 1243.38
  Q 25.34 1246.41 29.76 1249.18
  Q 41.67 1256.66 55.99 1257.61
  Q 62.24 1258.02 69.54 1257.35
  C 73.02 1257.03 74.56 1259.44 77.12 1261.12
  Q 79.24 1262.52 81.37 1263.95
  Q 83.33 1265.27 85.45 1266.93
  C 92.84 1272.70 99.99 1276.42 108.64 1280.48
  C 111.64 1281.89 114.65 1282.64 117.56 1284.08
  C 120.86 1285.72 124.86 1286.56 128.42 1287.64
  C 134.80 1289.59 142.00 1290.42 148.51 1291.03
  Q 166.82 1292.74 184.83 1286.84
  Q 185.28 1286.70 185.64 1286.99
  Q 186.76 1287.91 186.75 1289.74
  Q 180.86 1289.49 177.24 1290.01
  Q 175.56 1290.26 174.11 1291.88
  Q 173.77 1292.25 173.29 1292.38
  Q 171.43 1292.89 169.50 1292.96
  Q 161.82 1293.24 153.74 1293.17
  Q 145.53 1293.11 139.92 1291.32
  C 134.56 1289.62 129.10 1290.29 123.81 1288.22
  Q 109.67 1282.70 100.24 1277.38
  Q 92.11 1272.78 83.47 1266.23
  C 81.23 1264.53 78.62 1262.94 76.10 1261.54
  Q 72.81 1259.71 68.12 1259.40
  C 61.57 1258.95 54.82 1259.29 48.39 1257.81
  Q 41.68 1256.25 35.84 1253.28
  Q 22.24 1246.36 9.70 1236.31
  Q 8.70 1235.51 7.74 1233.00
  Z"
/>
<path fill="#fefefe" fill-opacity="0.996" d="
  M 201.25 1314.47
  Q 210.93 1324.01 223.29 1329.11
  Q 227.27 1330.75 231.24 1332.48
  Q 234.10 1333.74 243.64 1335.55
  Q 250.13 1336.78 256.16 1336.72
  C 259.12 1336.69 261.66 1337.82 264.55 1337.85
  Q 273.97 1337.97 283.50 1337.45
  C 289.54 1337.12 291.69 1341.02 296.24 1343.79
  C 300.09 1346.13 303.67 1348.89 307.63 1351.09
  Q 322.18 1359.18 338.32 1364.05
  C 339.49 1364.41 340.64 1364.48 341.76 1364.87
  Q 347.52 1366.85 354.58 1368.08
  Q 365.56 1370.00 373.13 1370.41
  Q 389.59 1371.30 408.59 1369.86
  Q 412.79 1369.55 416.52 1368.55
  C 420.07 1367.61 423.76 1367.24 427.40 1366.38
  Q 445.18 1362.19 462.99 1355.00
  C 464.65 1354.34 465.73 1354.62 467.09 1355.68
  Q 470.01 1357.98 472.95 1360.08
  C 464.07 1354.88 456.47 1360.77 447.33 1363.18
  C 443.39 1364.22 439.59 1365.77 435.57 1366.53
  C 429.83 1367.60 424.32 1369.44 418.50 1370.08
  C 412.98 1370.69 407.77 1371.72 402.14 1371.73
  Q 384.93 1371.74 363.76 1371.52
  Q 359.44 1371.47 355.48 1370.25
  Q 353.00 1369.49 350.41 1368.86
  Q 334.30 1364.94 320.07 1358.78
  Q 311.75 1355.18 302.46 1348.84
  Q 299.78 1347.01 297.19 1345.45
  C 292.92 1342.89 289.16 1340.43 283.90 1340.33
  C 275.96 1340.19 267.89 1340.29 260.05 1338.54
  C 254.86 1337.38 249.99 1337.68 244.83 1337.34
  Q 242.34 1337.17 239.79 1336.19
  Q 237.73 1335.40 235.04 1334.81
  Q 214.90 1330.42 201.25 1314.47
  Z"
/>
<path fill="#fefefe" fill-opacity="0.996" d="
  M 479.28 1364.89
  Q 482.57 1366.77 485.62 1369.05
  Q 489.83 1372.21 491.80 1373.41
  Q 505.68 1381.89 520.80 1388.59
  Q 523.70 1389.87 533.32 1393.49
  Q 536.70 1394.76 540.27 1395.79
  Q 543.84 1396.80 547.25 1397.89
  Q 547.40 1399.41 547.66 1399.13
  C 543.90 1399.15 542.47 1397.95 539.63 1396.53
  C 537.02 1395.24 534.03 1395.88 531.52 1394.40
  C 529.28 1393.07 527.16 1392.52 524.84 1391.56
  Q 505.98 1383.79 489.03 1372.42
  Q 483.97 1369.03 479.28 1364.89
  Z"
/>
<path fill="#5d1c0e" d="
  M 726.07 1379.97
  Q 724.96 1393.33 726.26 1406.75
  Q 729.03 1435.49 735.73 1463.78
  Q 734.86 1462.37 733.79 1461.21
  Q 732.66 1459.98 731.17 1459.72
  Q 725.64 1458.76 718.73 1457.85
  Q 710.16 1456.73 701.08 1454.84
  C 694.24 1453.42 687.00 1451.35 679.99 1449.51
  C 677.80 1448.93 675.28 1448.83 673.08 1449.22
  Q 652.53 1452.89 631.76 1450.78
  Q 604.81 1448.05 579.25 1438.83
  Q 573.10 1436.62 550.30 1427.28
  Q 550.02 1425.10 550.21 1423.00
  Q 551.05 1413.71 550.65 1405.88
  Q 550.56 1403.97 549.64 1402.34
  Q 548.68 1400.63 547.66 1399.13
  Q 547.40 1399.41 547.25 1397.89
  Q 569.99 1403.93 593.24 1402.92
  Q 597.58 1402.73 606.25 1401.44
  Q 615.72 1400.02 623.37 1397.22
  C 629.84 1394.84 638.85 1391.09 645.87 1386.93
  Q 657.52 1380.03 667.37 1371.11
  Q 668.92 1368.69 671.22 1367.65
  Q 672.86 1366.91 675.27 1367.68
  Q 701.24 1375.92 726.07 1379.97
  Z"
/>
<path fill="#6e2b10" d="
  M 735.73 1463.78
  Q 736.28 1466.14 737.72 1467.99
  Q 737.84 1475.00 740.20 1481.76
  Q 741.29 1484.89 744.59 1496.89
  Q 746.20 1502.78 748.35 1508.46
  A 0.95 0.95 0.0 0 1 747.53 1509.74
  Q 738.67 1510.35 730.34 1510.90
  Q 722.59 1511.40 713.48 1511.74
  Q 657.30 1513.78 601.01 1511.64
  Q 584.95 1511.03 565.26 1510.36
  Q 550.14 1509.86 533.48 1508.49
  A 1.01 1.00 -67.0 0 1 532.81 1506.82
  Q 538.49 1500.36 540.41 1491.89
  L 543.28 1490.82
  Q 543.75 1490.64 543.99 1490.20
  Q 547.84 1483.01 548.27 1476.24
  Q 548.85 1467.11 549.47 1458.00
  Q 550.47 1443.28 550.30 1427.28
  Q 573.10 1436.62 579.25 1438.83
  Q 604.81 1448.05 631.76 1450.78
  Q 652.53 1452.89 673.08 1449.22
  C 675.28 1448.83 677.80 1448.93 679.99 1449.51
  C 687.00 1451.35 694.24 1453.42 701.08 1454.84
  Q 710.16 1456.73 718.73 1457.85
  Q 725.64 1458.76 731.17 1459.72
  Q 732.66 1459.98 733.79 1461.21
  Q 734.86 1462.37 735.73 1463.78
  Z"
/>
<path fill="#c03122" d="
  M 737.72 1467.99
  Q 738.64 1468.14 739.08 1467.93
  L 740.24 1469.99
  Q 740.49 1470.43 740.99 1470.56
  Q 745.42 1471.69 749.09 1471.43
  Q 762.40 1470.47 775.71 1472.17
  Q 782.47 1473.03 789.45 1473.18
  Q 799.60 1473.41 810.74 1474.40
  C 814.52 1474.74 817.93 1476.22 821.66 1476.98
  Q 823.89 1477.43 826.15 1477.68
  C 829.30 1478.02 831.35 1479.92 834.18 1481.00
  Q 835.55 1481.53 836.67 1482.82
  Q 837.55 1483.83 838.52 1485.01
  Q 838.04 1486.10 838.27 1487.86
  Q 838.48 1489.47 838.18 1491.02
  Q 829.80 1534.73 818.92 1574.81
  C 808.92 1611.69 796.72 1648.90 780.25 1682.72
  Q 771.33 1701.05 759.94 1716.30
  C 752.94 1725.66 744.59 1734.20 733.68 1739.58
  C 728.26 1742.24 720.44 1744.04 714.75 1744.51
  Q 699.39 1745.80 683.97 1747.00
  L 650.92 1747.00
  Q 623.02 1745.75 595.28 1743.28
  Q 588.30 1742.66 581.13 1741.58
  Q 574.08 1740.51 566.94 1739.68
  C 559.62 1738.82 552.14 1737.32 544.67 1736.26
  Q 541.46 1735.81 538.85 1734.93
  Q 535.06 1733.65 533.39 1732.35
  Q 529.06 1728.97 524.28 1726.10
  Q 522.19 1724.18 520.00 1722.13
  Q 517.78 1720.05 516.03 1717.93
  C 510.59 1711.33 504.30 1705.35 500.34 1697.60
  Q 496.81 1690.67 493.45 1685.79
  Q 488.18 1678.12 484.72 1669.08
  C 482.31 1662.79 479.53 1657.24 477.21 1650.78
  Q 473.35 1640.05 470.18 1630.33
  Q 467.72 1622.83 464.98 1611.03
  Q 461.52 1596.13 457.53 1581.01
  Q 456.53 1577.20 454.54 1564.86
  Q 453.91 1560.90 453.15 1557.23
  C 452.44 1553.76 452.42 1550.20 451.62 1546.84
  Q 450.64 1542.73 450.12 1538.63
  Q 449.60 1534.58 448.77 1530.27
  Q 447.19 1522.09 445.56 1513.54
  C 444.86 1509.89 448.29 1504.58 451.44 1502.93
  Q 453.47 1501.87 456.64 1501.82
  C 465.84 1501.67 476.35 1501.58 484.79 1499.57
  Q 489.60 1498.42 493.31 1498.06
  Q 497.24 1497.68 500.62 1496.84
  C 503.85 1496.05 507.00 1495.04 510.34 1494.86
  Q 515.55 1494.58 520.62 1493.97
  C 524.20 1493.53 527.66 1493.85 531.25 1494.16
  Q 533.59 1494.36 540.41 1491.89
  Q 538.49 1500.36 532.81 1506.82
  A 1.01 1.00 -67.0 0 0 533.48 1508.49
  Q 550.14 1509.86 565.26 1510.36
  Q 584.95 1511.03 601.01 1511.64
  Q 657.30 1513.78 713.48 1511.74
  Q 722.59 1511.40 730.34 1510.90
  Q 738.67 1510.35 747.53 1509.74
  A 0.95 0.95 0.0 0 0 748.35 1508.46
  Q 746.20 1502.78 744.59 1496.89
  Q 741.29 1484.89 740.20 1481.76
  Q 737.84 1475.00 737.72 1467.99
  Z"
/>
<path fill="#fefefe" fill-opacity="0.996" d="
  M 838.52 1485.01
  Q 840.82 1494.60 837.65 1504.41
  Q 836.80 1507.03 836.57 1509.26
  Q 836.30 1511.93 835.40 1514.05
  C 834.07 1517.19 834.41 1520.44 833.26 1523.66
  C 832.03 1527.10 831.95 1530.55 831.12 1534.11
  Q 827.97 1547.57 824.19 1561.98
  Q 822.95 1566.70 821.74 1572.59
  C 820.76 1577.42 818.77 1582.27 817.44 1587.17
  Q 814.77 1597.05 812.10 1605.54
  C 810.19 1611.60 808.71 1617.79 806.52 1623.65
  C 804.94 1627.88 803.82 1632.24 802.23 1636.27
  Q 794.13 1656.82 784.72 1678.74
  C 782.33 1684.29 779.11 1689.29 776.48 1694.70
  C 773.77 1700.29 770.27 1705.43 767.03 1710.62
  C 764.20 1715.13 760.71 1719.61 757.30 1723.79
  Q 747.68 1735.58 735.21 1741.96
  Q 728.41 1745.44 719.87 1747.00
  L 683.97 1747.00
  Q 699.39 1745.80 714.75 1744.51
  C 720.44 1744.04 728.26 1742.24 733.68 1739.58
  C 744.59 1734.20 752.94 1725.66 759.94 1716.30
  Q 771.33 1701.05 780.25 1682.72
  C 796.72 1648.90 808.92 1611.69 818.92 1574.81
  Q 829.80 1534.73 838.18 1491.02
  Q 838.48 1489.47 838.27 1487.86
  Q 838.04 1486.10 838.52 1485.01
  Z"
/>
<path fill="#fefefe" fill-opacity="0.996" d="
  M 524.28 1726.10
  Q 529.06 1728.97 533.39 1732.35
  Q 535.06 1733.65 538.85 1734.93
  Q 541.46 1735.81 544.67 1736.26
  C 552.14 1737.32 559.62 1738.82 566.94 1739.68
  Q 574.08 1740.51 581.13 1741.58
  Q 588.30 1742.66 595.28 1743.28
  Q 623.02 1745.75 650.92 1747.00
  L 604.24 1747.00
  Q 599.39 1745.72 594.51 1744.58
  Q 590.49 1743.64 586.70 1743.67
  C 581.26 1743.71 574.72 1743.59 569.41 1742.00
  C 567.10 1741.30 565.00 1740.45 562.53 1740.36
  C 557.01 1740.15 550.75 1740.57 545.60 1739.11
  C 536.73 1736.60 531.21 1732.53 524.28 1726.10
  Z"
/>
</svg>
