<?xml version="1.0" encoding="UTF-8" standalone="no"?>
<!DOCTYPE svg PUBLIC "-//W3C//DTD SVG 1.1//EN" "http://www.w3.org/Graphics/SVG/1.1/DTD/svg11.dtd">
<svg xmlns="http://www.w3.org/2000/svg" version="1.1" viewBox="0.00 0.00 1200.00 1747.00">
<g stroke-width="2.00" fill="none" stroke-linecap="butt">
<path stroke="#443e11" d="
  M 725.51 1380.05
  Q 701.48 1375.98 677.84 1368.38
  C 675.86 1367.74 673.34 1366.09 671.38 1367.39
  Q 669.47 1368.67 668.05 1369.56"
/>
<path stroke="#285412" d="
  M 668.05 1369.56
  Q 661.88 1370.40 656.23 1373.01
  C 651.01 1375.43 645.30 1377.57 639.72 1379.04
  Q 630.47 1381.48 621.12 1383.76
  Q 606.92 1387.22 586.88 1387.54
  C 583.74 1387.59 580.73 1387.06 577.58 1387.02
  Q 574.38 1386.98 570.80 1386.51
  Q 548.69 1383.65 529.64 1373.32
  Q 522.23 1369.31 515.53 1363.61
  Q 503.39 1353.31 495.67 1342.49
  A 2.65 2.64 66.0 0 0 492.94 1341.44
  Q 473.75 1345.64 451.23 1346.31
  Q 429.86 1346.94 412.22 1343.85
  Q 387.12 1339.46 363.07 1325.83
  Q 354.36 1320.90 347.18 1314.89
  Q 339.06 1308.09 333.37 1302.08
  Q 322.95 1291.07 314.24 1275.43
  Q 313.16 1273.49 310.96 1274.15
  C 303.31 1276.47 295.16 1278.29 287.08 1278.33
  Q 281.50 1278.36 277.35 1278.02
  C 269.61 1277.39 261.09 1275.33 253.51 1272.45
  Q 236.91 1266.15 223.36 1256.62
  Q 216.89 1252.07 208.94 1245.13
  C 207.93 1244.26 206.76 1244.21 205.54 1244.57
  Q 192.01 1248.62 181.80 1250.45
  Q 172.49 1252.12 159.91 1251.70
  Q 150.36 1251.37 140.56 1248.61
  Q 111.63 1240.45 93.87 1215.52
  A 1.06 1.06 0.0 0 1 94.57 1213.86
  Q 107.42 1211.81 118.20 1208.80
  Q 135.73 1203.89 154.43 1194.38
  Q 166.67 1188.15 183.12 1177.64
  Q 191.80 1172.09 199.87 1165.78
  Q 214.09 1154.68 224.17 1146.07
  C 238.01 1134.26 250.68 1121.37 263.77 1107.95
  Q 270.64 1100.90 277.17 1093.32
  Q 287.24 1081.63 296.94 1070.40
  Q 300.63 1066.13 304.39 1061.08
  Q 307.61 1056.77 311.43 1051.98
  Q 322.95 1037.55 341.55 1011.28
  Q 346.46 1004.36 350.66 997.97
  Q 354.02 992.85 357.12 988.20
  Q 360.36 983.33 363.23 978.19
  A 0.37 0.37 0.0 0 0 362.91 977.64
  Q 362.45 977.63 362.05 977.84
  Q 346.47 985.97 329.77 983.29
  C 316.89 981.22 303.67 973.04 295.04 963.30
  Q 288.88 956.35 284.37 949.26
  Q 283.29 947.55 281.45 947.98
  Q 270.63 950.48 258.51 949.42
  C 245.81 948.31 235.56 942.48 226.10 934.22
  Q 223.43 931.90 220.94 928.52
  Q 217.37 923.68 216.57 921.93
  Q 213.98 916.30 211.08 910.78"
/>
<path stroke="#285412" d="
  M 217.53 906.98
  Q 223.35 907.54 227.50 906.44
  C 250.70 900.31 274.00 889.69 295.46 877.52
  C 304.31 872.50 312.69 866.41 321.11 860.67
  Q 333.18 852.46 348.07 839.87
  Q 361.78 828.29 372.43 818.02
  Q 378.02 812.63 384.89 805.73
  C 389.89 800.71 394.44 795.20 399.46 790.11
  C 401.73 787.80 403.52 785.18 405.72 782.82
  Q 407.79 780.58 409.81 778.24
  Q 444.70 737.67 473.81 692.57
  C 479.53 683.70 484.54 675.20 489.87 666.54
  Q 493.32 660.93 496.29 655.43
  C 498.11 652.03 500.20 648.85 502.17 645.61
  Q 503.70 643.08 500.98 644.22
  C 498.75 645.15 496.89 646.86 494.58 647.83
  Q 488.66 650.31 483.20 652.50
  C 478.65 654.32 474.44 654.94 469.91 656.09
  C 459.67 658.68 448.82 658.89 438.64 656.73
  Q 424.47 653.72 414.10 648.68
  Q 403.59 643.57 395.23 635.79
  A 2.42 2.41 -41.3 0 0 392.16 635.60
  C 384.19 641.35 374.86 645.52 364.85 642.21
  Q 358.13 639.99 354.25 637.47
  Q 347.96 633.38 341.36 625.68"
/>
<path stroke="#285412" d="
  M 395.74 570.41
  Q 398.35 569.88 400.00 567.96
  Q 402.19 565.42 404.22 563.66
  Q 406.92 561.30 408.58 559.67
  Q 419.93 548.54 424.49 542.48
  Q 429.69 535.56 434.82 529.90
  Q 437.35 527.11 439.12 524.25
  C 441.33 520.69 443.95 517.65 446.54 514.43
  Q 447.73 512.96 448.65 511.30
  C 450.11 508.69 452.13 506.45 453.88 504.04
  Q 456.98 499.77 459.52 495.74
  Q 467.35 483.29 476.51 468.07
  Q 482.13 458.74 485.56 451.52
  C 487.67 447.06 490.20 443.10 492.19 438.76
  Q 499.03 423.84 506.28 405.26
  Q 507.50 402.16 510.99 391.58
  Q 511.10 391.23 511.05 390.81
  Q 511.01 390.56 510.94 390.32
  Q 510.79 389.89 510.35 390.02
  Q 496.09 394.35 481.55 393.85
  C 474.73 393.62 467.95 391.66 461.24 389.68
  C 454.99 387.84 449.17 385.09 443.18 382.57
  Q 439.99 381.23 434.35 376.75"
/>
<path stroke="#285412" d="
  M 543.05 212.73
  Q 545.80 212.54 548.26 209.25
  Q 556.55 198.15 561.78 190.02
  C 567.22 181.55 570.38 176.87 574.37 170.47
  A 0.89 0.89 0.0 0 0 573.53 169.11
  C 570.34 169.40 567.23 169.86 564.07 169.42
  C 553.56 167.95 542.08 162.35 533.66 155.85
  Q 526.24 150.13 519.16 143.73"
/>
<path stroke="#285412" d="
  M 697.82 669.41
  Q 693.91 668.69 691.01 670.47
  Q 679.29 677.63 665.88 679.92
  Q 655.33 681.72 645.39 680.08
  Q 640.94 679.35 635.32 677.51
  C 632.55 676.60 630.47 674.98 627.80 674.21
  Q 625.97 673.69 627.06 675.26
  Q 628.89 677.90 630.65 680.60
  C 634.35 686.31 640.27 690.98 646.21 693.61
  C 649.49 695.07 652.80 696.68 656.26 697.56
  Q 669.72 700.99 683.99 699.84
  Q 689.20 699.42 698.75 697.76
  Q 700.07 697.52 703.59 697.48
  C 713.86 697.36 723.76 694.25 732.86 688.80
  C 746.52 680.61 756.16 666.20 760.59 650.90
  Q 760.70 650.52 760.68 650.13
  Q 760.62 648.91 759.90 649.89
  C 749.28 664.44 730.55 671.37 713.18 670.93
  Q 704.92 670.72 697.82 669.41"
/>
<path stroke="#285412" d="
  M 789.82 957.45
  C 787.99 957.22 786.79 956.57 785.24 958.18
  Q 771.86 972.11 753.12 973.44
  C 738.78 974.46 726.23 970.39 712.78 965.61
  Q 710.61 964.84 712.00 966.67
  C 714.25 969.64 715.91 973.02 718.40 975.70
  C 730.77 989.00 747.00 995.95 765.46 993.83
  Q 783.48 991.76 796.50 983.18
  C 798.37 981.94 800.23 981.83 802.09 983.06
  Q 813.88 990.92 828.14 994.75
  Q 837.53 997.27 848.10 996.06
  C 866.08 993.99 878.00 982.05 886.88 967.46
  C 887.87 965.83 889.09 964.47 891.07 964.23
  Q 895.57 963.68 900.21 962.82
  Q 907.93 961.40 916.23 956.78
  Q 928.21 950.11 933.09 937.29
  C 934.61 933.31 935.26 928.43 935.84 924.09
  Q 936.40 919.85 935.18 913.07
  Q 935.13 912.79 934.91 912.62
  A 0.56 0.56 0.0 0 0 934.04 912.91
  Q 928.46 931.26 909.15 936.29
  C 896.50 939.58 881.88 938.08 868.74 935.50
  A 2.01 2.01 0.0 0 0 866.39 937.09
  Q 863.74 950.86 851.33 957.50
  Q 843.46 961.72 835.89 962.54
  Q 830.78 963.10 823.47 963.05
  Q 817.49 963.01 811.77 961.93
  Q 804.75 960.61 797.89 959.38
  C 795.17 958.89 792.58 957.81 789.82 957.45"
/>
<path stroke="#285412" d="
  M 529.34 1093.48
  Q 533.98 1092.72 537.70 1091.51
  Q 557.72 1084.98 573.82 1071.68
  C 574.48 1071.13 575.39 1070.64 576.28 1070.73
  Q 585.25 1071.62 594.17 1072.62
  C 602.45 1073.54 610.69 1073.60 618.81 1073.11
  Q 642.76 1071.69 661.84 1058.39
  C 664.60 1056.47 666.74 1054.12 669.15 1051.83
  Q 671.65 1049.44 673.69 1046.41
  Q 678.02 1039.97 680.46 1034.64
  Q 680.73 1034.05 680.67 1033.40
  A 0.41 0.40 -23.5 0 0 680.00 1033.14
  Q 672.99 1039.13 665.39 1044.07
  Q 657.25 1049.35 649.96 1051.77
  Q 635.55 1056.57 620.73 1055.79
  C 616.73 1055.57 612.83 1054.38 608.82 1053.63
  Q 604.39 1052.80 600.73 1051.34
  Q 587.81 1046.19 578.14 1038.25
  C 576.81 1037.15 575.03 1036.63 573.42 1037.42
  C 562.95 1042.55 552.66 1046.63 541.57 1048.62
  C 529.54 1050.78 514.91 1049.83 503.67 1044.18
  C 496.81 1040.73 489.28 1035.74 484.54 1029.43
  Q 481.57 1025.48 478.82 1021.31
  A 2.03 2.02 -33.4 0 0 476.02 1020.74
  Q 462.54 1029.60 447.62 1033.53
  Q 425.59 1039.33 406.98 1028.59
  Q 397.02 1022.84 389.43 1013.61
  Q 388.11 1012.01 387.07 1010.13
  Q 386.74 1009.53 386.64 1009.55
  A 0.86 0.86 0.0 0 0 385.94 1010.64
  C 393.28 1036.62 410.86 1056.16 438.18 1061.23
  Q 450.26 1063.47 463.27 1062.34
  C 464.43 1062.24 465.28 1062.52 466.06 1063.39
  C 470.52 1068.35 474.69 1074.03 479.53 1078.32
  Q 487.57 1085.46 495.96 1089.61
  Q 505.64 1094.39 521.62 1094.43
  Q 523.59 1094.43 529.34 1093.48"
/>
<path stroke="#285412" d="
  M 423.94 676.55
  Q 425.26 676.39 425.45 675.25
  Q 425.54 674.69 424.98 674.80
  Q 423.75 675.04 423.94 676.55"
/>
<path stroke="#443311" d="
  M 668.05 1369.56
  Q 666.46 1372.49 664.39 1374.14
  Q 652.86 1383.31 641.19 1389.48
  Q 635.12 1392.69 624.15 1397.16
  C 620.95 1398.46 617.55 1399.10 614.20 1400.01
  Q 610.88 1400.91 606.72 1401.46
  Q 597.13 1402.74 594.25 1402.92
  Q 573.29 1404.25 549.79 1398.75"
/>
<path stroke="#285412" d="
  M 143.92 930.92
  Q 146.79 931.61 150.75 931.14
  Q 162.60 929.74 171.48 927.79
  Q 173.31 927.39 173.60 925.89"
/>
<path stroke="#672510" d="
  M 733.55 1459.51
  Q 717.51 1458.06 710.00 1456.70
  Q 698.51 1454.62 678.91 1449.26
  C 675.38 1448.29 669.54 1449.66 665.79 1450.31
  Q 661.85 1450.99 656.71 1451.25
  Q 643.57 1451.90 632.94 1450.98
  Q 605.98 1448.65 579.03 1438.70
  Q 567.08 1434.29 555.43 1429.12
  Q 554.97 1428.91 554.67 1428.51
  Q 553.13 1426.46 551.75 1426.81"
/>
<path stroke="#982f1b" d="
  M 746.79 1509.95
  C 735.16 1510.43 722.77 1511.51 712.07 1511.82
  Q 650.65 1513.60 589.25 1511.26
  Q 562.97 1510.26 536.40 1508.80"
/>
</g>
<path fill="#285e12" d="
  M 725.51 1380.05
  Q 701.48 1375.98 677.84 1368.38
  C 675.86 1367.74 673.34 1366.09 671.38 1367.39
  Q 669.47 1368.67 668.05 1369.56
  Q 661.88 1370.40 656.23 1373.01
  C 651.01 1375.43 645.30 1377.57 639.72 1379.04
  Q 630.47 1381.48 621.12 1383.76
  Q 606.92 1387.22 586.88 1387.54
  C 583.74 1387.59 580.73 1387.06 577.58 1387.02
  Q 574.38 1386.98 570.80 1386.51
  Q 548.69 1383.65 529.64 1373.32
  Q 522.23 1369.31 515.53 1363.61
  Q 503.39 1353.31 495.67 1342.49
  A 2.65 2.64 66.0 0 0 492.94 1341.44
  Q 473.75 1345.64 451.23 1346.31
  Q 429.86 1346.94 412.22 1343.85
  Q 387.12 1339.46 363.07 1325.83
  Q 354.36 1320.90 347.18 1314.89
  Q 339.06 1308.09 333.37 1302.08
  Q 322.95 1291.07 314.24 1275.43
  Q 313.16 1273.49 310.96 1274.15
  C 303.31 1276.47 295.16 1278.29 287.08 1278.33
  Q 281.50 1278.36 277.35 1278.02
  C 269.61 1277.39 261.09 1275.33 253.51 1272.45
  Q 236.91 1266.15 223.36 1256.62
  Q 216.89 1252.07 208.94 1245.13
  C 207.93 1244.26 206.76 1244.21 205.54 1244.57
  Q 192.01 1248.62 181.80 1250.45
  Q 172.49 1252.12 159.91 1251.70
  Q 150.36 1251.37 140.56 1248.61
  Q 111.63 1240.45 93.87 1215.52
  A 1.06 1.06 0.0 0 1 94.57 1213.86
  Q 107.42 1211.81 118.20 1208.80
  Q 135.73 1203.89 154.43 1194.38
  Q 166.67 1188.15 183.12 1177.64
  Q 191.80 1172.09 199.87 1165.78
  Q 214.09 1154.68 224.17 1146.07
  C 238.01 1134.26 250.68 1121.37 263.77 1107.95
  Q 270.64 1100.90 277.17 1093.32
  Q 287.24 1081.63 296.94 1070.40
  Q 300.63 1066.13 304.39 1061.08
  Q 307.61 1056.77 311.43 1051.98
  Q 322.95 1037.55 341.55 1011.28
  Q 346.46 1004.36 350.66 997.97
  Q 354.02 992.85 357.12 988.20
  Q 360.36 983.33 363.23 978.19
  A 0.37 0.37 0.0 0 0 362.91 977.64
  Q 362.45 977.63 362.05 977.84
  Q 346.47 985.97 329.77 983.29
  C 316.89 981.22 303.67 973.04 295.04 963.30
  Q 288.88 956.35 284.37 949.26
  Q 283.29 947.55 281.45 947.98
  Q 270.63 950.48 258.51 949.42
  C 245.81 948.31 235.56 942.48 226.10 934.22
  Q 223.43 931.90 220.94 928.52
  Q 217.37 923.68 216.57 921.93
  Q 213.98 916.30 211.08 910.78
  L 217.53 906.98
  Q 223.35 907.54 227.50 906.44
  C 250.70 900.31 274.00 889.69 295.46 877.52
  C 304.31 872.50 312.69 866.41 321.11 860.67
  Q 333.18 852.46 348.07 839.87
  Q 361.78 828.29 372.43 818.02
  Q 378.02 812.63 384.89 805.73
  C 389.89 800.71 394.44 795.20 399.46 790.11
  C 401.73 787.80 403.52 785.18 405.72 782.82
  Q 407.79 780.58 409.81 778.24
  Q 444.70 737.67 473.81 692.57
  C 479.53 683.70 484.54 675.20 489.87 666.54
  Q 493.32 660.93 496.29 655.43
  C 498.11 652.03 500.20 648.85 502.17 645.61
  Q 503.70 643.08 500.98 644.22
  C 498.75 645.15 496.89 646.86 494.58 647.83
  Q 488.66 650.31 483.20 652.50
  C 478.65 654.32 474.44 654.94 469.91 656.09
  C 459.67 658.68 448.82 658.89 438.64 656.73
  Q 424.47 653.72 414.10 648.68
  Q 403.59 643.57 395.23 635.79
  A 2.42 2.41 -41.3 0 0 392.16 635.60
  C 384.19 641.35 374.86 645.52 364.85 642.21
  Q 358.13 639.99 354.25 637.47
  Q 347.96 633.38 341.36 625.68
  Q 365.37 605.02 381.72 587.25
  Q 384.74 583.97 395.74 570.41
  Q 398.35 569.88 400.00 567.96
  Q 402.19 565.42 404.22 563.66
  Q 406.92 561.30 408.58 559.67
  Q 419.93 548.54 424.49 542.48
  Q 429.69 535.56 434.82 529.90
  Q 437.35 527.11 439.12 524.25
  C 441.33 520.69 443.95 517.65 446.54 514.43
  Q 447.73 512.96 448.65 511.30
  C 450.11 508.69 452.13 506.45 453.88 504.04
  Q 456.98 499.77 459.52 495.74
  Q 467.35 483.29 476.51 468.07
  Q 482.13 458.74 485.56 451.52
  C 487.67 447.06 490.20 443.10 492.19 438.76
  Q 499.03 423.84 506.28 405.26
  Q 507.50 402.16 510.99 391.58
  Q 511.10 391.23 511.05 390.81
  Q 511.01 390.56 510.94 390.32
  Q 510.79 389.89 510.35 390.02
  Q 496.09 394.35 481.55 393.85
  C 474.73 393.62 467.95 391.66 461.24 389.68
  C 454.99 387.84 449.17 385.09 443.18 382.57
  Q 439.99 381.23 434.35 376.75
  Q 448.20 359.47 462.05 342.55
  Q 475.34 326.32 490.85 303.16
  Q 517.19 263.84 538.12 221.39
  Q 539.59 218.40 543.05 212.73
  Q 545.80 212.54 548.26 209.25
  Q 556.55 198.15 561.78 190.02
  C 567.22 181.55 570.38 176.87 574.37 170.47
  A 0.89 0.89 0.0 0 0 573.53 169.11
  C 570.34 169.40 567.23 169.86 564.07 169.42
  C 553.56 167.95 542.08 162.35 533.66 155.85
  Q 526.24 150.13 519.16 143.73
  Q 525.60 133.97 534.62 122.13
  Q 553.87 96.90 570.85 67.60
  C 574.81 60.77 579.42 54.43 583.27 47.77
  Q 589.46 37.08 593.00 26.50
  C 594.62 21.62 597.06 15.90 602.39 14.89
  A 1.78 1.75 53.8 0 1 603.55 15.08
  C 607.94 17.45 611.12 23.29 613.18 27.65
  Q 615.01 31.54 616.98 35.16
  C 623.15 46.44 629.04 57.63 635.98 68.24
  C 647.01 85.10 657.74 102.46 669.80 118.97
  Q 675.07 126.18 680.25 133.41
  Q 691.05 148.49 703.47 162.50
  Q 706.08 165.43 702.71 167.72
  C 693.96 173.66 684.80 178.80 674.38 180.42
  C 666.82 181.60 658.71 183.05 651.08 181.98
  A 0.73 0.73 0.0 0 0 650.26 182.85
  C 651.36 188.47 652.10 193.80 654.70 199.13
  Q 656.03 201.84 657.75 204.35
  Q 664.52 214.26 668.92 223.79
  Q 672.97 232.58 677.42 240.76
  C 687.49 259.32 698.89 279.34 709.38 294.61
  C 717.35 306.19 725.16 317.86 733.65 329.01
  C 739.79 337.06 745.16 345.57 752.05 352.74
  Q 758.11 359.05 764.30 366.75
  C 772.17 376.52 780.87 384.82 790.00 393.00
  C 794.50 397.04 799.56 400.45 804.37 404.09
  Q 805.68 405.09 806.36 406.68
  Q 806.93 408.03 805.60 408.65
  C 797.87 412.25 789.60 412.91 781.14 412.25
  Q 776.14 411.85 772.39 410.07
  Q 768.55 408.24 764.75 406.66
  Q 764.23 406.45 763.84 406.86
  Q 760.19 410.73 756.75 412.52
  Q 750.54 415.74 742.45 419.86
  C 737.69 422.29 732.93 422.79 728.02 420.75
  Q 724.15 419.15 719.82 418.71
  C 718.33 418.56 717.60 417.78 716.36 417.20
  Q 714.40 416.30 715.31 418.25
  Q 717.05 421.94 717.99 425.81
  Q 718.87 429.43 720.64 433.27
  Q 723.99 440.55 728.25 447.22
  Q 731.42 452.17 734.36 457.50
  C 740.68 468.95 748.33 479.80 754.60 490.89
  Q 758.01 496.91 761.74 501.77
  C 768.42 510.45 773.62 520.57 779.99 529.65
  Q 789.52 543.22 798.84 554.86
  Q 803.18 560.28 807.68 566.27
  C 811.61 571.49 815.50 576.88 819.98 581.64
  C 825.46 587.45 831.03 593.41 836.89 599.04
  Q 850.89 612.48 860.55 620.90
  Q 869.51 628.72 880.14 634.75
  Q 888.96 639.75 901.16 640.25
  Q 902.79 640.32 903.73 641.59
  Q 904.15 642.16 903.63 642.63
  Q 891.03 653.91 877.85 657.52
  Q 867.95 660.23 859.50 661.79
  Q 849.11 663.70 841.91 665.48
  Q 829.14 668.63 814.23 671.73
  Q 812.13 672.17 809.74 672.17
  C 803.43 672.19 797.95 677.10 791.39 677.04
  Q 785.69 676.99 780.25 677.11
  C 779.10 677.13 778.49 676.87 777.50 676.38
  Q 774.48 674.88 776.14 677.80
  C 777.36 679.94 778.15 682.15 778.55 684.58
  Q 779.10 687.94 780.72 690.43
  Q 784.76 696.65 789.71 702.78
  C 795.81 710.32 800.98 718.30 806.43 726.23
  C 807.88 728.35 809.72 730.23 811.31 732.33
  Q 825.44 750.94 839.68 768.89
  C 843.49 773.69 847.93 777.77 851.77 782.52
  Q 862.74 796.04 874.43 808.56
  C 878.20 812.60 881.36 816.88 885.53 820.80
  Q 891.54 826.45 898.89 833.99
  Q 906.57 841.86 915.40 850.33
  Q 922.65 857.29 929.96 863.27
  C 942.76 873.73 956.26 885.18 969.03 893.95
  C 978.55 900.48 989.55 907.13 1000.17 912.58
  Q 1008.76 916.98 1017.24 921.18
  C 1019.23 922.17 1021.49 922.46 1023.45 923.53
  C 1026.03 924.94 1028.72 925.08 1031.41 925.95
  C 1034.28 926.88 1036.90 927.92 1039.96 928.28
  Q 1044.01 928.76 1047.41 929.96
  C 1052.30 931.70 1057.07 931.68 1062.00 932.66
  A 1.11 1.11 0.0 0 1 1062.67 934.42
  C 1052.62 947.52 1041.03 960.26 1026.24 968.38
  Q 1023.05 970.13 1019.77 971.17
  C 1015.76 972.46 1011.65 972.49 1007.59 973.52
  C 1004.40 974.33 1001.17 974.03 997.98 973.21
  A 1.81 1.80 -64.0 0 0 996.09 973.87
  Q 994.34 976.17 992.20 978.18
  Q 984.37 985.55 975.79 992.16
  Q 963.99 1001.24 951.50 1002.49
  Q 950.62 1002.57 949.94 1003.12
  C 946.46 1005.92 944.52 1008.21 940.52 1009.42
  C 933.67 1011.51 927.33 1013.78 920.49 1012.38
  Q 916.74 1011.62 919.26 1014.50
  Q 921.84 1017.44 922.30 1020.66
  C 922.84 1024.31 925.71 1027.73 928.11 1030.41
  Q 944.46 1048.64 962.84 1070.05
  Q 969.66 1078.00 976.14 1085.01
  Q 1008.85 1120.45 1040.38 1148.64
  Q 1063.17 1169.01 1078.39 1179.98
  Q 1093.36 1190.76 1109.29 1201.15
  Q 1116.39 1205.79 1125.97 1209.87
  C 1134.19 1213.37 1141.80 1217.07 1149.77 1220.96
  C 1153.41 1222.75 1156.89 1223.04 1160.42 1224.60
  C 1162.56 1225.54 1164.94 1225.72 1167.25 1225.88
  C 1169.63 1226.06 1171.80 1226.72 1174.04 1227.49
  C 1179.43 1229.33 1186.31 1226.73 1191.32 1229.38
  A 1.32 1.31 -57.9 0 1 1191.76 1231.33
  Q 1188.62 1235.52 1184.50 1238.81
  Q 1168.15 1251.93 1149.40 1255.65
  Q 1138.93 1257.72 1129.10 1256.31
  A 2.51 2.51 0.0 0 0 1127.25 1256.77
  Q 1118.03 1263.44 1109.05 1269.38
  Q 1091.63 1280.92 1070.99 1286.73
  C 1066.12 1288.10 1061.08 1288.62 1056.03 1289.53
  C 1047.74 1291.02 1038.48 1291.02 1029.94 1289.28
  C 1024.80 1288.22 1019.53 1287.90 1014.41 1286.13
  A 0.74 0.74 0.0 0 0 1013.46 1286.62
  C 1010.58 1296.40 1003.33 1306.04 996.71 1313.62
  Q 991.53 1319.55 983.90 1323.81
  Q 969.54 1331.84 954.90 1334.70
  C 946.06 1336.44 935.74 1337.27 926.10 1336.74
  Q 920.55 1336.44 915.18 1336.66
  Q 912.20 1336.79 910.56 1338.01
  C 908.61 1339.48 906.70 1341.20 904.66 1342.49
  Q 886.53 1353.92 873.55 1361.04
  C 867.93 1364.13 861.66 1367.04 855.58 1369.25
  Q 845.18 1373.05 839.88 1374.52
  Q 809.81 1382.82 778.75 1383.31
  Q 756.26 1383.67 733.99 1380.53
  Q 729.99 1379.97 725.51 1380.05
  Z
  M 697.82 669.41
  Q 693.91 668.69 691.01 670.47
  Q 679.29 677.63 665.88 679.92
  Q 655.33 681.72 645.39 680.08
  Q 640.94 679.35 635.32 677.51
  C 632.55 676.60 630.47 674.98 627.80 674.21
  Q 625.97 673.69 627.06 675.26
  Q 628.89 677.90 630.65 680.60
  C 634.35 686.31 640.27 690.98 646.21 693.61
  C 649.49 695.07 652.80 696.68 656.26 697.56
  Q 669.72 700.99 683.99 699.84
  Q 689.20 699.42 698.75 697.76
  Q 700.07 697.52 703.59 697.48
  C 713.86 697.36 723.76 694.25 732.86 688.80
  C 746.52 680.61 756.16 666.20 760.59 650.90
  Q 760.70 650.52 760.68 650.13
  Q 760.62 648.91 759.90 649.89
  C 749.28 664.44 730.55 671.37 713.18 670.93
  Q 704.92 670.72 697.82 669.41
  Z
  M 789.82 957.45
  C 787.99 957.22 786.79 956.57 785.24 958.18
  Q 771.86 972.11 753.12 973.44
  C 738.78 974.46 726.23 970.39 712.78 965.61
  Q 710.61 964.84 712.00 966.67
  C 714.25 969.64 715.91 973.02 718.40 975.70
  C 730.77 989.00 747.00 995.95 765.46 993.83
  Q 783.48 991.76 796.50 983.18
  C 798.37 981.94 800.23 981.83 802.09 983.06
  Q 813.88 990.92 828.14 994.75
  Q 837.53 997.27 848.10 996.06
  C 866.08 993.99 878.00 982.05 886.88 967.46
  C 887.87 965.83 889.09 964.47 891.07 964.23
  Q 895.57 963.68 900.21 962.82
  Q 907.93 961.40 916.23 956.78
  Q 928.21 950.11 933.09 937.29
  C 934.61 933.31 935.26 928.43 935.84 924.09
  Q 936.40 919.85 935.18 913.07
  Q 935.13 912.79 934.91 912.62
  A 0.56 0.56 0.0 0 0 934.04 912.91
  Q 928.46 931.26 909.15 936.29
  C 896.50 939.58 881.88 938.08 868.74 935.50
  A 2.01 2.01 0.0 0 0 866.39 937.09
  Q 863.74 950.86 851.33 957.50
  Q 843.46 961.72 835.89 962.54
  Q 830.78 963.10 823.47 963.05
  Q 817.49 963.01 811.77 961.93
  Q 804.75 960.61 797.89 959.38
  C 795.17 958.89 792.58 957.81 789.82 957.45
  Z
  M 529.34 1093.48
  Q 533.98 1092.72 537.70 1091.51
  Q 557.72 1084.98 573.82 1071.68
  C 574.48 1071.13 575.39 1070.64 576.28 1070.73
  Q 585.25 1071.62 594.17 1072.62
  C 602.45 1073.54 610.69 1073.60 618.81 1073.11
  Q 642.76 1071.69 661.84 1058.39
  C 664.60 1056.47 666.74 1054.12 669.15 1051.83
  Q 671.65 1049.44 673.69 1046.41
  Q 678.02 1039.97 680.46 1034.64
  Q 680.73 1034.05 680.67 1033.40
  A 0.41 0.40 -23.5 0 0 680.00 1033.14
  Q 672.99 1039.13 665.39 1044.07
  Q 657.25 1049.35 649.96 1051.77
  Q 635.55 1056.57 620.73 1055.79
  C 616.73 1055.57 612.83 1054.38 608.82 1053.63
  Q 604.39 1052.80 600.73 1051.34
  Q 587.81 1046.19 578.14 1038.25
  C 576.81 1037.15 575.03 1036.63 573.42 1037.42
  C 562.95 1042.55 552.66 1046.63 541.57 1048.62
  C 529.54 1050.78 514.91 1049.83 503.67 1044.18
  C 496.81 1040.73 489.28 1035.74 484.54 1029.43
  Q 481.57 1025.48 478.82 1021.31
  A 2.03 2.02 -33.4 0 0 476.02 1020.74
  Q 462.54 1029.60 447.62 1033.53
  Q 425.59 1039.33 406.98 1028.59
  Q 397.02 1022.84 389.43 1013.61
  Q 388.11 1012.01 387.07 1010.13
  Q 386.74 1009.53 386.64 1009.55
  A 0.86 0.86 0.0 0 0 385.94 1010.64
  C 393.28 1036.62 410.86 1056.16 438.18 1061.23
  Q 450.26 1063.47 463.27 1062.34
  C 464.43 1062.24 465.28 1062.52 466.06 1063.39
  C 470.52 1068.35 474.69 1074.03 479.53 1078.32
  Q 487.57 1085.46 495.96 1089.61
  Q 505.64 1094.39 521.62 1094.43
  Q 523.59 1094.43 529.34 1093.48
  Z"
/>
<path fill="#284912" d="
  M 519.16 143.73
  Q 526.24 150.13 533.66 155.85
  C 542.08 162.35 553.56 167.95 564.07 169.42
  C 567.23 169.86 570.34 169.40 573.53 169.11
  A 0.89 0.89 0.0 0 1 574.37 170.47
  C 570.38 176.87 567.22 181.55 561.78 190.02
  Q 556.55 198.15 548.26 209.25
  Q 545.80 212.54 543.05 212.73
  Q 547.60 205.10 552.02 198.11
  Q 556.99 190.24 551.16 183.63
  C 548.81 180.97 546.15 182.52 543.23 182.37
  C 528.89 181.62 516.47 178.79 504.41 172.09
  Q 501.62 170.54 499.54 168.71
  A 1.16 1.16 0.0 0 1 499.24 167.36
  Q 500.48 164.60 502.76 162.51
  Q 512.09 153.99 519.16 143.73
  Z"
/>
<path fill="#284912" d="
  M 434.35 376.75
  Q 439.99 381.23 443.18 382.57
  C 449.17 385.09 454.99 387.84 461.24 389.68
  C 467.95 391.66 474.73 393.62 481.55 393.85
  Q 496.09 394.35 510.35 390.02
  Q 510.79 389.89 510.94 390.32
  Q 511.01 390.56 511.05 390.81
  Q 511.10 391.23 510.99 391.58
  Q 507.50 402.16 506.28 405.26
  Q 499.03 423.84 492.19 438.76
  C 490.20 443.10 487.67 447.06 485.56 451.52
  Q 482.13 458.74 476.51 468.07
  Q 467.35 483.29 459.52 495.74
  Q 456.98 499.77 453.88 504.04
  C 452.13 506.45 450.11 508.69 448.65 511.30
  Q 447.73 512.96 446.54 514.43
  C 443.95 517.65 441.33 520.69 439.12 524.25
  Q 437.35 527.11 434.82 529.90
  Q 429.69 535.56 424.49 542.48
  Q 419.93 548.54 408.58 559.67
  Q 406.92 561.30 404.22 563.66
  Q 402.19 565.42 400.00 567.96
  Q 398.35 569.88 395.74 570.41
  Q 417.18 542.77 429.72 524.74
  C 438.45 512.19 447.16 496.85 455.76 483.16
  Q 465.32 467.93 474.77 451.46
  Q 478.32 445.27 483.78 439.02
  C 487.29 435.00 489.95 425.50 485.02 421.41
  Q 483.83 420.42 484.24 418.85
  Q 484.93 416.26 482.75 417.81
  Q 473.67 424.23 464.09 421.36
  Q 458.81 419.77 449.76 415.18
  Q 442.58 411.54 436.28 406.62
  A 1.65 1.65 0.0 0 0 434.54 406.43
  C 430.53 408.35 426.38 410.95 422.08 411.75
  C 415.98 412.89 402.79 413.72 398.33 407.69
  A 0.92 0.92 0.0 0 1 398.48 406.43
  Q 400.70 404.59 403.91 402.71
  Q 407.09 400.85 413.99 395.38
  Q 417.68 392.45 421.36 389.48
  Q 428.52 383.70 434.35 376.75
  Z"
/>
<path fill="#284912" d="
  M 341.36 625.68
  Q 347.96 633.38 354.25 637.47
  Q 358.13 639.99 364.85 642.21
  C 374.86 645.52 384.19 641.35 392.16 635.60
  A 2.42 2.41 -41.3 0 1 395.23 635.79
  Q 403.59 643.57 414.10 648.68
  Q 424.47 653.72 438.64 656.73
  C 448.82 658.89 459.67 658.68 469.91 656.09
  C 474.44 654.94 478.65 654.32 483.20 652.50
  Q 488.66 650.31 494.58 647.83
  C 496.89 646.86 498.75 645.15 500.98 644.22
  Q 503.70 643.08 502.17 645.61
  C 500.20 648.85 498.11 652.03 496.29 655.43
  Q 493.32 660.93 489.87 666.54
  C 484.54 675.20 479.53 683.70 473.81 692.57
  Q 444.70 737.67 409.81 778.24
  Q 407.79 780.58 405.72 782.82
  C 403.52 785.18 401.73 787.80 399.46 790.11
  C 394.44 795.20 389.89 800.71 384.89 805.73
  Q 378.02 812.63 372.43 818.02
  Q 361.78 828.29 348.07 839.87
  Q 333.18 852.46 321.11 860.67
  C 312.69 866.41 304.31 872.50 295.46 877.52
  C 274.00 889.69 250.70 900.31 227.50 906.44
  Q 223.35 907.54 217.53 906.98
  Q 225.69 901.75 233.58 897.32
  Q 238.99 894.28 248.25 887.06
  C 259.81 878.06 276.03 864.96 288.90 852.86
  Q 312.35 830.82 329.60 811.94
  C 351.70 787.76 371.20 763.77 391.60 735.92
  Q 405.17 717.39 418.20 700.20
  C 419.75 698.15 421.85 696.22 422.75 693.82
  Q 425.26 687.18 422.64 681.35
  Q 422.39 680.81 422.63 680.26
  L 424.11 676.88
  Q 424.14 676.82 424.11 676.76
  Q 424.03 676.60 423.94 676.55
  Q 425.26 676.39 425.45 675.25
  Q 425.54 674.69 424.98 674.80
  Q 423.75 675.04 423.94 676.55
  Q 423.41 676.15 422.76 676.48
  C 417.95 678.89 412.36 678.67 407.19 677.52
  C 403.11 676.61 399.20 674.51 395.11 673.13
  C 391.60 671.94 388.10 672.50 384.60 671.75
  Q 373.79 669.43 362.80 667.03
  Q 358.34 666.06 353.82 664.63
  C 349.94 663.41 345.88 663.05 341.88 662.12
  Q 335.15 660.55 328.46 659.29
  Q 322.34 658.13 317.82 656.25
  C 312.01 653.84 306.65 649.47 301.61 645.41
  Q 300.77 644.73 300.34 643.72
  A 0.98 0.97 -24.8 0 1 300.81 642.46
  Q 303.21 641.32 305.67 641.07
  C 309.96 640.64 314.13 639.16 318.39 638.35
  Q 320.60 637.93 322.53 636.89
  C 324.39 635.89 326.29 635.44 328.12 634.31
  Q 335.04 630.02 341.36 625.68
  Z"
/>
<path fill="#284912" d="
  M 697.82 669.41
  Q 704.92 670.72 713.18 670.93
  C 730.55 671.37 749.28 664.44 759.90 649.89
  Q 760.62 648.91 760.68 650.13
  Q 760.70 650.52 760.59 650.90
  C 756.16 666.20 746.52 680.61 732.86 688.80
  C 723.76 694.25 713.86 697.36 703.59 697.48
  Q 700.07 697.52 698.75 697.76
  Q 689.20 699.42 683.99 699.84
  Q 669.72 700.99 656.26 697.56
  C 652.80 696.68 649.49 695.07 646.21 693.61
  C 640.27 690.98 634.35 686.31 630.65 680.60
  Q 628.89 677.90 627.06 675.26
  Q 625.97 673.69 627.80 674.21
  C 630.47 674.98 632.55 676.60 635.32 677.51
  Q 640.94 679.35 645.39 680.08
  Q 655.33 681.72 665.88 679.92
  Q 679.29 677.63 691.01 670.47
  Q 693.91 668.69 697.82 669.41
  Z"
/>
<path fill="#285e12" d="
  M 423.94 676.55
  Q 423.75 675.04 424.98 674.80
  Q 425.54 674.69 425.45 675.25
  Q 425.26 676.39 423.94 676.55
  Z"
/>
<path fill="#284912" d="
  M 211.08 910.78
  Q 213.98 916.30 216.57 921.93
  Q 217.37 923.68 220.94 928.52
  Q 223.43 931.90 226.10 934.22
  C 235.56 942.48 245.81 948.31 258.51 949.42
  Q 270.63 950.48 281.45 947.98
  Q 283.29 947.55 284.37 949.26
  Q 288.88 956.35 295.04 963.30
  C 303.67 973.04 316.89 981.22 329.77 983.29
  Q 346.47 985.97 362.05 977.84
  Q 362.45 977.63 362.91 977.64
  A 0.37 0.37 0.0 0 1 363.23 978.19
  Q 360.36 983.33 357.12 988.20
  Q 354.02 992.85 350.66 997.97
  Q 346.46 1004.36 341.55 1011.28
  Q 322.95 1037.55 311.43 1051.98
  Q 307.61 1056.77 304.39 1061.08
  Q 300.63 1066.13 296.94 1070.40
  Q 287.24 1081.63 277.17 1093.32
  Q 270.64 1100.90 263.77 1107.95
  C 250.68 1121.37 238.01 1134.26 224.17 1146.07
  Q 214.09 1154.68 199.87 1165.78
  Q 191.80 1172.09 183.12 1177.64
  Q 166.67 1188.15 154.43 1194.38
  Q 135.73 1203.89 118.20 1208.80
  Q 107.42 1211.81 94.57 1213.86
  A 1.06 1.06 0.0 0 0 93.87 1215.52
  Q 111.63 1240.45 140.56 1248.61
  Q 150.36 1251.37 159.91 1251.70
  Q 172.49 1252.12 181.80 1250.45
  Q 192.01 1248.62 205.54 1244.57
  C 206.76 1244.21 207.93 1244.26 208.94 1245.13
  Q 216.89 1252.07 223.36 1256.62
  Q 236.91 1266.15 253.51 1272.45
  C 261.09 1275.33 269.61 1277.39 277.35 1278.02
  Q 281.50 1278.36 287.08 1278.33
  C 295.16 1278.29 303.31 1276.47 310.96 1274.15
  Q 313.16 1273.49 314.24 1275.43
  Q 322.95 1291.07 333.37 1302.08
  Q 339.06 1308.09 347.18 1314.89
  Q 354.36 1320.90 363.07 1325.83
  Q 387.12 1339.46 412.22 1343.85
  Q 429.86 1346.94 451.23 1346.31
  Q 473.75 1345.64 492.94 1341.44
  A 2.65 2.64 66.0 0 1 495.67 1342.49
  Q 503.39 1353.31 515.53 1363.61
  Q 522.23 1369.31 529.64 1373.32
  Q 548.69 1383.65 570.80 1386.51
  Q 574.38 1386.98 577.58 1387.02
  C 580.73 1387.06 583.74 1387.59 586.88 1387.54
  Q 606.92 1387.22 621.12 1383.76
  Q 630.47 1381.48 639.72 1379.04
  C 645.30 1377.57 651.01 1375.43 656.23 1373.01
  Q 661.88 1370.40 668.05 1369.56
  Q 666.46 1372.49 664.39 1374.14
  Q 652.86 1383.31 641.19 1389.48
  Q 635.12 1392.69 624.15 1397.16
  C 620.95 1398.46 617.55 1399.10 614.20 1400.01
  Q 610.88 1400.91 606.72 1401.46
  Q 597.13 1402.74 594.25 1402.92
  Q 573.29 1404.25 549.79 1398.75
  Q 547.76 1396.88 544.76 1395.74
  Q 531.89 1390.82 519.73 1386.04
  Q 512.24 1383.10 504.90 1379.01
  Q 499.81 1376.17 491.18 1369.87
  Q 481.99 1363.18 472.72 1356.99
  C 470.17 1355.29 465.81 1352.99 462.65 1354.24
  C 459.17 1355.61 455.77 1357.04 452.20 1358.06
  Q 442.25 1360.90 433.20 1363.58
  Q 423.50 1366.44 414.97 1367.63
  Q 402.44 1369.39 389.99 1369.88
  Q 352.84 1371.34 320.32 1354.93
  Q 319.22 1354.37 304.62 1346.66
  Q 296.45 1342.35 289.13 1337.88
  C 287.12 1336.65 284.99 1336.59 282.75 1336.79
  C 272.76 1337.72 263.44 1336.92 252.73 1336.06
  Q 245.89 1335.51 241.37 1334.00
  C 238.05 1332.89 234.63 1332.81 231.39 1331.55
  Q 226.71 1329.73 222.47 1328.01
  C 216.27 1325.51 209.73 1321.33 205.47 1315.32
  Q 201.53 1309.76 198.13 1304.73
  C 194.85 1299.87 193.01 1294.67 189.89 1289.80
  Q 189.44 1289.09 188.66 1288.79
  Q 187.10 1288.18 185.90 1286.82
  Q 185.43 1286.28 184.74 1286.47
  Q 169.69 1290.59 153.86 1290.70
  Q 148.93 1290.73 144.18 1289.60
  C 139.06 1288.38 134.00 1288.40 128.95 1286.85
  Q 117.89 1283.47 111.03 1280.26
  Q 96.93 1273.66 82.02 1263.00
  Q 80.24 1261.73 78.33 1260.74
  C 75.13 1259.07 73.58 1256.09 69.35 1256.76
  Q 64.80 1257.47 61.07 1257.03
  Q 53.09 1256.10 43.39 1253.98
  Q 40.84 1253.43 38.76 1252.33
  C 36.73 1251.27 34.65 1250.75 32.60 1249.59
  Q 24.70 1245.17 17.35 1239.89
  Q 14.64 1237.95 12.35 1235.47
  C 9.97 1232.88 10.19 1228.39 14.77 1228.64
  Q 24.12 1229.14 31.77 1228.38
  C 35.48 1228.01 38.80 1226.13 42.62 1225.69
  C 44.79 1225.44 47.04 1225.13 48.98 1224.03
  C 52.10 1222.26 55.48 1222.10 58.73 1220.51
  Q 68.60 1215.67 77.14 1211.89
  Q 84.59 1208.59 92.96 1203.73
  C 100.03 1199.62 107.09 1195.82 113.87 1191.22
  Q 131.32 1179.39 141.94 1170.51
  Q 160.91 1154.64 176.26 1140.56
  Q 185.30 1132.27 201.03 1116.67
  Q 208.28 1109.48 215.02 1102.36
  Q 237.09 1079.08 243.41 1071.35
  Q 251.54 1061.39 260.50 1051.17
  C 266.19 1044.69 272.22 1039.13 278.04 1032.86
  C 280.71 1029.99 282.99 1025.99 283.14 1022.33
  Q 283.27 1019.44 280.64 1015.80
  Q 280.34 1015.38 280.53 1014.90
  L 281.30 1012.96
  A 0.59 0.59 0.0 0 0 280.60 1012.18
  C 273.23 1014.17 267.89 1011.90 261.15 1009.31
  Q 255.70 1007.22 251.32 1004.18
  Q 249.26 1002.75 246.80 1002.43
  C 240.43 1001.61 235.07 999.52 229.69 995.55
  Q 220.07 988.46 211.83 980.34
  Q 210.07 978.61 208.16 977.40
  C 206.04 976.06 204.10 972.67 201.28 973.10
  Q 198.60 973.50 196.07 973.17
  Q 186.95 971.99 178.21 969.88
  Q 172.84 968.59 166.35 963.72
  Q 156.92 956.64 150.86 949.03
  C 147.15 944.38 142.34 941.32 139.49 935.94
  A 2.22 2.22 0.0 0 1 140.34 932.97
  L 143.92 930.92
  Q 146.79 931.61 150.75 931.14
  Q 162.60 929.74 171.48 927.79
  Q 173.31 927.39 173.60 925.89
  Q 178.07 925.22 182.32 923.37
  Q 184.91 922.24 187.05 921.80
  C 189.39 921.32 191.13 920.10 193.27 919.28
  Q 202.66 915.68 211.08 910.78
  Z"
/>
<path fill="#284912" d="
  M 789.82 957.45
  C 792.58 957.81 795.17 958.89 797.89 959.38
  Q 804.75 960.61 811.77 961.93
  Q 817.49 963.01 823.47 963.05
  Q 830.78 963.10 835.89 962.54
  Q 843.46 961.72 851.33 957.50
  Q 863.74 950.86 866.39 937.09
  A 2.01 2.01 0.0 0 1 868.74 935.50
  C 881.88 938.08 896.50 939.58 909.15 936.29
  Q 928.46 931.26 934.04 912.91
  A 0.56 0.56 0.0 0 1 934.91 912.62
  Q 935.13 912.79 935.18 913.07
  Q 936.40 919.85 935.84 924.09
  C 935.26 928.43 934.61 933.31 933.09 937.29
  Q 928.21 950.11 916.23 956.78
  Q 907.93 961.40 900.21 962.82
  Q 895.57 963.68 891.07 964.23
  C 889.09 964.47 887.87 965.83 886.88 967.46
  C 878.00 982.05 866.08 993.99 848.10 996.06
  Q 837.53 997.27 828.14 994.75
  Q 813.88 990.92 802.09 983.06
  C 800.23 981.83 798.37 981.94 796.50 983.18
  Q 783.48 991.76 765.46 993.83
  C 747.00 995.95 730.77 989.00 718.40 975.70
  C 715.91 973.02 714.25 969.64 712.00 966.67
  Q 710.61 964.84 712.78 965.61
  C 726.23 970.39 738.78 974.46 753.12 973.44
  Q 771.86 972.11 785.24 958.18
  C 786.79 956.57 787.99 957.22 789.82 957.45
  Z"
/>
<path fill="#285e12" d="
  M 173.60 925.89
  Q 173.31 927.39 171.48 927.79
  Q 162.60 929.74 150.75 931.14
  Q 146.79 931.61 143.92 930.92
  Q 153.25 929.01 164.25 928.40
  Q 168.66 928.16 173.60 925.89
  Z"
/>
<path fill="#284912" d="
  M 529.34 1093.48
  Q 523.59 1094.43 521.62 1094.43
  Q 505.64 1094.39 495.96 1089.61
  Q 487.57 1085.46 479.53 1078.32
  C 474.69 1074.03 470.52 1068.35 466.06 1063.39
  C 465.28 1062.52 464.43 1062.24 463.27 1062.34
  Q 450.26 1063.47 438.18 1061.23
  C 410.86 1056.16 393.28 1036.62 385.94 1010.64
  A 0.86 0.86 0.0 0 1 386.64 1009.55
  Q 386.74 1009.53 387.07 1010.13
  Q 388.11 1012.01 389.43 1013.61
  Q 397.02 1022.84 406.98 1028.59
  Q 425.59 1039.33 447.62 1033.53
  Q 462.54 1029.60 476.02 1020.74
  A 2.03 2.02 -33.4 0 1 478.82 1021.31
  Q 481.57 1025.48 484.54 1029.43
  C 489.28 1035.74 496.81 1040.73 503.67 1044.18
  C 514.91 1049.83 529.54 1050.78 541.57 1048.62
  C 552.66 1046.63 562.95 1042.55 573.42 1037.42
  C 575.03 1036.63 576.81 1037.15 578.14 1038.25
  Q 587.81 1046.19 600.73 1051.34
  Q 604.39 1052.80 608.82 1053.63
  C 612.83 1054.38 616.73 1055.57 620.73 1055.79
  Q 635.55 1056.57 649.96 1051.77
  Q 657.25 1049.35 665.39 1044.07
  Q 672.99 1039.13 680.00 1033.14
  A 0.41 0.40 -23.5 0 1 680.67 1033.40
  Q 680.73 1034.05 680.46 1034.64
  Q 678.02 1039.97 673.69 1046.41
  Q 671.65 1049.44 669.15 1051.83
  C 666.74 1054.12 664.60 1056.47 661.84 1058.39
  Q 642.76 1071.69 618.81 1073.11
  C 610.69 1073.60 602.45 1073.54 594.17 1072.62
  Q 585.25 1071.62 576.28 1070.73
  C 575.39 1070.64 574.48 1071.13 573.82 1071.68
  Q 557.72 1084.98 537.70 1091.51
  Q 533.98 1092.72 529.34 1093.48
  Z"
/>
<path fill="#5f1d0f" d="
  M 725.51 1380.05
  Q 724.61 1390.49 725.09 1398.75
  Q 726.84 1428.34 733.55 1459.51
  Q 717.51 1458.06 710.00 1456.70
  Q 698.51 1454.62 678.91 1449.26
  C 675.38 1448.29 669.54 1449.66 665.79 1450.31
  Q 661.85 1450.99 656.71 1451.25
  Q 643.57 1451.90 632.94 1450.98
  Q 605.98 1448.65 579.03 1438.70
  Q 567.08 1434.29 555.43 1429.12
  Q 554.97 1428.91 554.67 1428.51
  Q 553.13 1426.46 551.75 1426.81
  Q 551.70 1419.03 553.49 1411.01
  C 554.25 1407.58 551.53 1402.32 549.79 1398.75
  Q 573.29 1404.25 594.25 1402.92
  Q 597.13 1402.74 606.72 1401.46
  Q 610.88 1400.91 614.20 1400.01
  C 617.55 1399.10 620.95 1398.46 624.15 1397.16
  Q 635.12 1392.69 641.19 1389.48
  Q 652.86 1383.31 664.39 1374.14
  Q 666.46 1372.49 668.05 1369.56
  Q 669.47 1368.67 671.38 1367.39
  C 673.34 1366.09 675.86 1367.74 677.84 1368.38
  Q 701.48 1375.98 725.51 1380.05
  Z"
/>
<path fill="#6f2c11" d="
  M 733.55 1459.51
  C 735.11 1467.20 736.49 1474.74 738.89 1482.41
  C 740.17 1486.51 740.82 1490.57 742.29 1494.74
  Q 744.92 1502.21 746.79 1509.95
  C 735.16 1510.43 722.77 1511.51 712.07 1511.82
  Q 650.65 1513.60 589.25 1511.26
  Q 562.97 1510.26 536.40 1508.80
  Q 540.35 1499.50 545.26 1491.48
  Q 547.81 1487.31 548.82 1483.01
  C 550.65 1475.30 551.31 1468.20 551.37 1459.94
  Q 551.50 1443.51 551.75 1426.81
  Q 553.13 1426.46 554.67 1428.51
  Q 554.97 1428.91 555.43 1429.12
  Q 567.08 1434.29 579.03 1438.70
  Q 605.98 1448.65 632.94 1450.98
  Q 643.57 1451.90 656.71 1451.25
  Q 661.85 1450.99 665.79 1450.31
  C 669.54 1449.66 675.38 1448.29 678.91 1449.26
  Q 698.51 1454.62 710.00 1456.70
  Q 717.51 1458.06 733.55 1459.51
  Z"
/>
<path fill="#c03224" d="
  M 536.40 1508.80
  Q 562.97 1510.26 589.25 1511.26
  Q 650.65 1513.60 712.07 1511.82
  C 722.77 1511.51 735.16 1510.43 746.79 1509.95
  Q 748.78 1517.33 750.79 1524.76
  C 751.91 1528.89 751.63 1533.63 752.53 1538.12
  Q 753.23 1541.67 752.52 1544.86
  C 751.66 1548.70 752.54 1553.02 751.44 1556.38
  C 750.08 1560.57 749.19 1565.46 748.01 1569.24
  Q 744.14 1581.63 740.64 1594.13
  Q 739.01 1599.94 738.47 1604.49
  Q 738.03 1608.14 737.35 1611.44
  Q 736.65 1614.85 736.45 1618.52
  Q 736.00 1627.01 733.97 1634.76
  Q 732.65 1639.79 731.47 1644.76
  Q 728.55 1657.05 724.68 1668.31
  Q 723.44 1671.91 722.14 1677.36
  Q 721.10 1681.70 719.29 1686.48
  C 718.49 1688.61 718.53 1690.85 717.70 1692.91
  Q 716.27 1696.51 714.82 1700.18
  Q 713.42 1703.74 712.54 1707.48
  C 711.56 1711.67 709.83 1715.68 708.56 1719.84
  Q 704.57 1732.86 701.90 1740.89
  Q 701.54 1741.97 700.67 1743.46
  Q 700.41 1743.90 699.94 1744.07
  Q 696.53 1745.33 693.75 1745.71
  Q 688.95 1746.37 680.63 1747.00
  L 655.25 1747.00
  Q 631.01 1745.69 616.87 1744.37
  Q 605.91 1743.35 583.53 1740.69
  C 576.41 1739.84 569.31 1738.74 562.66 1736.91
  C 560.77 1736.38 559.31 1735.03 558.26 1733.41
  Q 544.74 1712.52 538.96 1688.33
  C 537.66 1682.86 537.79 1677.51 536.76 1672.09
  C 535.45 1665.19 534.80 1658.54 532.81 1651.62
  C 530.94 1645.12 529.40 1638.39 527.84 1631.72
  Q 526.37 1625.50 525.85 1619.07
  C 525.33 1612.65 524.10 1606.54 524.00 1600.12
  Q 523.61 1573.06 524.13 1553.33
  Q 524.36 1544.23 526.83 1533.57
  Q 528.05 1528.30 531.15 1521.09
  Q 533.86 1514.79 536.40 1508.80
  Z"
/>
</svg>
