<?xml version="1.0" encoding="UTF-8" standalone="no"?>
<!DOCTYPE svg PUBLIC "-//W3C//DTD SVG 1.1//EN" "http://www.w3.org/Graphics/SVG/1.1/DTD/svg11.dtd">
<svg xmlns="http://www.w3.org/2000/svg" version="1.1" viewBox="0.00 0.00 223.00 171.00">
<g stroke-width="2.00" fill="none" stroke-linecap="butt">
<path stroke="#b37032" vector-effect="non-scaling-stroke" d="
  M 130.60 2.27
  Q 129.64 8.23 127.08 13.54"
/>
<path stroke="#d39246" vector-effect="non-scaling-stroke" d="
  M 132.75 3.28
  Q 130.95 12.11 127.70 20.47
  C 126.67 23.13 126.13 25.81 125.02 28.47
  Q 123.57 31.94 122.58 35.69
  C 122.03 37.79 120.99 39.64 120.54 41.73
  Q 120.06 43.98 119.39 46.29
  Q 117.68 52.20 117.15 58.12
  A 0.44 0.44 0.0 0 0 117.48 58.58
  Q 117.74 58.65 117.84 58.41
  C 119.54 54.32 120.27 50.19 121.65 46.04
  C 122.88 42.35 123.94 38.51 125.27 34.97
  Q 129.13 24.69 132.55 14.25
  Q 133.24 12.14 135.25 3.78"
/>
<path stroke="#d39246" vector-effect="non-scaling-stroke" d="
  M 138.21 4.52
  Q 138.17 8.82 137.84 10.11
  Q 134.92 21.28 130.53 31.55
  Q 127.24 39.24 124.02 46.70
  Q 121.84 51.77 119.77 58.30
  Q 119.44 59.34 119.59 59.97
  Q 119.97 61.65 120.56 60.03
  Q 122.07 55.85 123.76 52.00
  Q 128.16 41.98 132.35 32.77
  Q 137.17 22.19 139.90 11.69
  Q 140.71 8.58 140.98 5.21"
/>
<path stroke="#d39246" vector-effect="non-scaling-stroke" d="
  M 145.03 6.32
  Q 145.13 9.39 144.81 10.54
  Q 141.16 23.82 136.00 34.61
  Q 129.33 48.57 125.09 58.36
  Q 122.84 63.57 120.80 69.74
  Q 118.55 76.58 117.59 81.73
  Q 116.07 89.85 114.75 98.41
  Q 113.76 104.85 111.60 110.46
  Q 108.57 118.30 105.19 127.16
  C 104.28 129.53 103.87 132.18 103.14 134.66
  C 101.91 138.83 102.10 143.64 101.55 147.98
  C 101.38 149.32 100.73 150.26 100.14 151.43
  Q 99.81 152.09 100.54 152.20
  Q 102.26 152.48 103.78 152.06
  A 0.91 0.91 0.0 0 0 104.38 150.86
  Q 104.25 150.51 104.42 150.19
  Q 105.82 147.64 105.79 150.56
  Q 105.78 151.36 105.98 152.02
  Q 106.10 152.43 106.46 152.67
  Q 107.22 153.17 108.18 152.99
  Q 108.94 152.84 108.50 152.20
  Q 108.37 152.01 108.31 151.79
  Q 108.16 151.22 108.16 150.62
  Q 108.23 138.65 112.38 127.32
  C 115.53 118.70 118.67 109.81 120.19 100.83
  Q 121.44 93.51 122.52 86.17
  C 123.79 77.62 126.18 70.23 129.78 62.95
  C 134.59 53.21 139.15 43.97 142.50 33.96
  Q 145.10 26.17 145.75 23.00
  Q 147.36 15.21 148.84 7.19"
/>
<path stroke="#d39246" vector-effect="non-scaling-stroke" d="
  M 151.41 7.74
  Q 149.30 20.48 146.07 32.83
  Q 145.56 34.77 144.83 36.62
  C 143.59 39.74 142.59 42.74 141.02 45.79
  Q 137.22 53.16 133.37 61.01
  Q 129.24 69.46 125.51 83.27
  Q 124.03 88.73 122.69 97.76
  Q 121.55 105.41 120.12 112.11
  Q 118.94 117.61 116.28 124.76
  C 113.03 133.51 110.27 143.15 110.63 152.46
  Q 110.69 153.86 112.04 154.76
  Q 112.25 154.90 112.49 154.95
  Q 114.04 155.28 113.96 153.69
  Q 113.60 145.94 114.77 140.19
  C 115.99 134.21 118.42 127.75 120.15 121.51
  Q 121.67 116.08 122.23 112.99
  Q 124.19 102.24 126.00 91.48
  C 126.76 86.88 128.05 82.39 129.33 77.93
  Q 131.21 71.43 134.28 64.63
  Q 137.06 58.46 140.54 52.45
  C 144.45 45.71 147.46 38.47 149.09 30.83
  Q 151.11 21.36 154.24 10.58
  A 1.36 1.35 6.7 0 1 155.47 9.61
  Q 155.60 9.61 155.72 9.60
  A 0.66 0.66 0.0 0 1 156.41 10.33
  Q 154.47 28.68 147.20 45.62
  Q 142.86 55.73 137.17 66.40
  C 133.70 72.92 131.78 79.69 130.01 86.80
  Q 129.21 90.03 128.77 93.22
  Q 126.86 107.07 122.08 122.60
  Q 120.93 126.33 120.23 130.02
  Q 118.94 136.81 117.35 143.42
  C 116.54 146.81 116.11 150.36 115.42 153.78
  A 1.59 1.59 0.0 0 0 115.54 154.76
  Q 116.37 156.50 118.37 157.76
  Q 118.94 158.12 119.01 157.45
  Q 119.03 157.24 118.90 157.05
  Q 118.55 156.53 119.03 156.11
  Q 119.99 155.26 120.00 153.90
  Q 120.09 139.89 124.08 125.30
  C 125.17 121.31 125.86 117.42 126.79 113.47
  C 129.01 103.90 130.46 94.13 132.43 84.51
  C 132.91 82.17 133.75 79.91 134.42 77.61
  Q 135.16 75.08 136.30 72.54
  C 138.44 67.73 140.59 63.04 143.05 58.27
  Q 148.36 47.99 151.86 37.52
  Q 156.47 23.77 158.52 9.71"
/>
<path stroke="#b37032" vector-effect="non-scaling-stroke" d="
  M 161.59 10.54
  Q 159.29 24.85 155.00 38.63
  Q 153.64 43.02 152.19 46.19
  Q 149.43 52.20 146.19 58.79
  Q 140.54 70.29 136.02 82.74
  Q 133.01 91.05 131.22 107.03"
/>
<path stroke="#ae6a2c" vector-effect="non-scaling-stroke" d="
  M 131.22 107.03
  L 123.08 155.30
  A 2.02 2.00 19.9 0 0 124.06 157.37
  Q 127.94 159.61 126.39 164.92"
/>
<path stroke="#e7c095" stroke-opacity="0.996" vector-effect="non-scaling-stroke" d="
  M 126.39 164.92
  Q 126.45 165.68 124.20 166.42
  Q 121.11 167.45 117.93 169.47"
/>
<path stroke="#b37032" vector-effect="non-scaling-stroke" d="
  M 89.63 159.99
  Q 86.05 154.18 88.84 149.31"
/>
<path stroke="#d39246" vector-effect="non-scaling-stroke" d="
  M 88.84 149.31
  Q 90.17 149.00 91.45 149.68
  Q 91.80 149.87 92.20 149.83
  Q 92.88 149.75 93.14 150.33
  Q 93.40 150.91 94.02 150.92
  Q 97.11 150.95 97.67 148.64
  Q 99.89 139.53 102.12 130.79
  Q 103.38 125.84 105.02 121.50
  Q 110.00 108.31 113.36 94.92
  Q 114.80 89.18 115.05 82.16
  Q 115.05 82.10 114.99 82.09
  L 114.73 82.06
  Q 114.40 82.03 114.35 82.36
  Q 112.97 91.06 110.34 99.57
  Q 108.98 103.96 106.81 108.70
  Q 104.52 113.69 103.09 118.59
  Q 102.39 120.97 101.27 123.21
  Q 100.04 125.64 99.40 128.50
  Q 97.16 138.58 94.61 147.81
  A 0.86 0.85 -71.3 0 1 93.47 148.38
  Q 92.65 148.06 92.83 147.44
  Q 94.10 142.94 95.30 138.74
  Q 95.62 137.64 95.35 136.55
  Q 94.94 134.87 94.39 136.52
  L 92.33 142.79
  Q 92.18 143.25 91.71 143.14
  Q 91.07 142.99 90.91 142.11"
/>
<path stroke="#b37032" vector-effect="non-scaling-stroke" d="
  M 90.91 142.11
  L 94.33 131.53"
/>
<path stroke="#ae6a2c" vector-effect="non-scaling-stroke" d="
  M 94.33 131.53
  Q 98.85 118.51 103.78 105.61
  C 105.80 100.33 108.45 95.15 109.93 90.05
  C 111.95 83.08 112.85 74.92 113.74 67.33
  Q 115.55 51.87 117.48 45.76
  Q 120.42 36.49 122.76 26.94"
/>
<path stroke="#d39246" vector-effect="non-scaling-stroke" d="
  M 122.68 76.89
  C 123.01 75.91 122.91 75.03 123.45 74.03
  C 125.30 70.68 125.98 67.06 127.45 63.65
  Q 132.05 53.00 137.69 42.47
  C 139.68 38.78 141.12 34.37 141.61 30.32
  Q 142.33 24.43 140.20 29.97
  C 138.89 33.35 137.65 36.71 135.97 39.92
  Q 130.72 49.97 126.60 60.18
  C 125.56 62.73 124.96 65.33 123.90 67.84
  C 122.68 70.71 122.00 73.87 121.35 76.92
  A 0.57 0.56 9.8 0 0 121.83 77.60
  Q 122.55 77.68 122.62 77.13
  Q 122.64 77.00 122.68 76.89"
/>
<path stroke="#bc9073" vector-effect="non-scaling-stroke" d="
  M 166.59 13.17
  Q 168.39 16.77 167.71 18.51
  Q 164.96 25.62 162.22 32.83
  A 0.89 0.88 -60.0 0 0 162.48 33.82
  Q 162.72 34.02 162.91 33.76"
/>
<path stroke="#bc9073" vector-effect="non-scaling-stroke" d="
  M 164.21 35.34
  Q 167.75 39.27 168.64 40.37
  Q 171.70 44.15 172.47 48.91"
/>
<path stroke="#a96325" vector-effect="non-scaling-stroke" d="
  M 172.47 48.91
  C 171.69 49.00 171.20 48.99 170.57 49.48
  Q 165.14 53.72 159.89 58.16
  Q 159.42 58.55 158.94 58.93"
/>
<path stroke="#b37032" vector-effect="non-scaling-stroke" d="
  M 158.94 58.93
  Q 154.21 63.71 152.50 69.75
  Q 151.60 72.92 151.30 77.59"
/>
<path stroke="#843b0b" vector-effect="non-scaling-stroke" d="
  M 151.30 77.59
  Q 147.89 76.03 149.81 80.70
  Q 150.00 81.18 150.52 81.17
  Q 157.45 81.01 164.64 80.47
  Q 167.74 80.24 170.02 78.50
  Q 171.75 77.19 173.58 77.06
  C 176.94 76.83 180.24 77.59 183.51 76.50
  Q 188.54 74.83 193.56 75.55
  Q 194.68 75.71 194.86 76.84
  Q 194.93 77.31 193.77 77.65
  Q 193.01 77.87 192.23 77.86
  Q 189.57 77.81 186.91 78.08
  Q 184.15 78.35 181.88 79.35
  Q 180.71 79.85 181.99 79.83
  Q 195.70 79.59 200.95 78.74
  Q 208.13 77.59 215.49 76.07
  Q 215.92 75.98 215.89 75.54
  L 215.86 75.21
  Q 215.84 74.97 215.61 74.97
  L 209.74 74.82
  Q 209.15 74.80 209.59 74.40
  Q 210.64 73.44 211.12 73.35
  Q 216.15 72.44 220.52 70.65
  A 0.06 0.06 0.0 0 1 220.60 70.72
  Q 220.50 71.01 220.76 71.20
  Q 221.21 71.52 221.43 71.03
  L 221.70 70.46"
/>
<path stroke="#bc9073" vector-effect="non-scaling-stroke" d="
  M 221.70 70.46
  L 223.00 76.05"
/>
<path stroke="#bc9073" vector-effect="non-scaling-stroke" d="
  M 223.00 83.33
  Q 222.62 90.65 219.21 96.83
  C 218.02 99.00 215.84 99.44 213.55 99.34
  Q 195.70 98.58 176.89 99.61
  A 0.60 0.60 0.0 0 0 176.32 100.24
  Q 176.34 100.79 177.25 100.73"
/>
<path stroke="#bc9073" vector-effect="non-scaling-stroke" d="
  M 208.52 122.22
  L 207.53 129.85"
/>
<path stroke="#b37032" vector-effect="non-scaling-stroke" d="
  M 207.53 129.85
  Q 207.44 127.49 207.28 125.30
  Q 207.08 122.57 205.81 121.13
  C 201.98 116.78 195.41 119.91 191.27 122.94"
/>
<path stroke="#a96325" vector-effect="non-scaling-stroke" d="
  M 191.27 122.94
  L 175.67 114.22
  Q 172.85 112.64 175.06 115.01
  L 186.31 127.05"
/>
<path stroke="#b37032" vector-effect="non-scaling-stroke" d="
  M 186.31 127.05
  Q 179.57 133.59 175.71 142.10"
/>
<path stroke="#843b0b" vector-effect="non-scaling-stroke" d="
  M 175.71 142.10
  Q 176.20 139.70 175.27 139.60
  Q 168.41 133.41 160.91 128.27
  Q 153.44 123.14 151.75 121.84
  Q 147.47 118.54 143.00 114.98
  Q 140.72 113.17 137.76 111.62
  Q 137.20 111.33 137.33 110.72
  L 138.07 107.09
  A 0.90 0.90 0.0 0 1 139.61 106.65
  Q 141.59 108.72 144.39 110.12
  Q 149.64 112.76 154.36 116.38
  Q 155.53 117.28 155.08 115.87
  Q 154.63 114.45 153.19 113.42
  Q 147.25 109.18 140.80 105.93
  Q 140.49 105.77 140.15 105.82
  Q 139.67 105.88 139.32 106.21
  Q 139.02 106.47 138.71 106.22
  Q 138.19 105.80 138.36 105.16
  Q 139.91 99.42 139.03 94.87
  Q 138.72 93.27 139.30 91.64
  Q 140.60 87.96 141.61 84.67
  A 1.51 1.51 0.0 0 1 142.42 83.75
  C 143.61 83.21 144.21 83.26 144.80 81.85
  Q 146.54 77.70 147.27 73.58
  Q 147.48 72.43 146.55 73.14
  Q 143.17 75.74 141.45 80.14
  Q 137.03 91.41 135.72 102.29
  Q 135.66 102.83 135.14 103.00
  Q 132.55 103.88 131.22 107.03"
/>
<path stroke="#843b0b" vector-effect="non-scaling-stroke" d="
  M 145.53 88.37
  Q 148.22 89.91 150.79 91.64
  Q 152.39 92.71 154.15 93.37
  Q 155.79 94.00 157.25 95.57
  A 1.06 1.06 0.0 0 0 158.18 95.90
  Q 158.80 95.80 159.07 96.34
  Q 159.61 97.43 160.71 96.85
  A 0.38 0.38 0.0 0 0 160.71 96.17
  Q 158.36 94.99 156.07 93.27
  C 152.81 90.82 149.36 88.68 146.06 86.32
  Q 145.35 85.80 144.94 86.59
  Q 144.67 87.09 145.05 87.86
  A 1.17 1.17 0.0 0 0 145.53 88.37"
/>
<path stroke="#843b0b" vector-effect="non-scaling-stroke" d="
  M 84.10 27.20
  Q 84.31 29.29 85.86 31.01
  Q 87.84 33.22 88.38 34.17
  Q 89.59 36.28 90.88 38.44
  Q 92.07 40.46 94.10 42.13
  Q 100.28 47.21 105.61 53.69
  A 1.62 1.56 -67.8 0 1 105.96 54.57
  Q 105.98 54.85 106.03 55.12
  Q 106.49 57.50 104.88 55.68
  C 101.06 51.37 97.47 47.18 92.93 43.43
  Q 89.98 40.99 86.90 38.09
  Q 85.53 36.81 84.00 35.81
  Q 82.90 35.10 84.19 34.85
  Q 85.05 34.68 85.67 35.63
  A 0.41 0.41 0.0 0 0 86.24 35.74
  L 86.46 35.58
  Q 86.97 35.23 86.54 34.78
  L 79.15 27.04"
/>
<path stroke="#843b0b" vector-effect="non-scaling-stroke" d="
  M 94.33 131.53
  Q 93.78 131.85 93.28 132.53"
/>
<path stroke="#b78a6c" vector-effect="non-scaling-stroke" d="
  M 92.72 131.16
  Q 93.28 130.45 91.97 130.66
  A 0.66 0.60 -68.2 0 0 91.68 130.80
  L 87.06 134.66"
/>
<path stroke="#ae6a2c" vector-effect="non-scaling-stroke" d="
  M 87.27 132.84
  Q 87.86 132.53 88.07 132.07
  Q 90.06 127.83 91.36 122.12"
/>
<path stroke="#b78a6c" vector-effect="non-scaling-stroke" d="
  M 91.83 119.98
  Q 93.05 117.73 93.69 114.52
  Q 93.75 114.21 93.56 114.03
  Q 93.18 113.67 93.05 114.18
  Q 92.50 116.30 91.42 116.99"
/>
<path stroke="#843b0b" vector-effect="non-scaling-stroke" d="
  M 91.42 116.99
  Q 89.34 119.38 87.68 120.35
  Q 86.38 121.12 87.20 119.85
  Q 91.18 113.68 95.37 108.04
  Q 97.03 105.80 100.38 103.06
  Q 100.77 102.74 101.26 102.70
  Q 102.24 102.60 102.76 101.69
  C 103.25 100.81 104.26 99.86 104.41 98.86
  Q 104.67 97.16 103.27 98.15
  Q 100.21 100.33 97.33 102.81
  C 93.45 106.14 90.79 109.93 87.55 113.70
  Q 86.90 114.46 86.77 115.38
  Q 86.68 115.98 86.13 116.21
  Q 85.53 116.46 84.98 116.29
  Q 84.46 116.13 84.76 115.67
  Q 87.20 111.93 89.61 108.14
  Q 91.17 105.70 93.36 103.44
  C 96.94 99.74 100.34 97.05 105.22 94.95
  Q 105.74 94.73 106.01 94.24
  Q 107.62 91.45 108.11 88.41
  Q 108.21 87.77 107.56 87.77
  L 106.74 87.76
  Q 103.78 87.74 106.21 86.05
  C 109.25 83.95 108.95 81.53 109.15 78.32
  Q 109.19 77.71 109.49 77.18
  Q 109.72 76.78 109.60 76.34
  Q 109.36 75.50 108.83 76.19
  C 104.91 81.30 100.85 85.85 95.42 89.70
  A 0.34 0.33 58.4 0 1 94.93 89.58
  L 94.80 89.35
  Q 94.50 88.78 94.96 88.32
  C 97.64 85.64 100.52 83.59 102.84 80.44
  Q 105.20 77.23 108.40 74.64
  Q 108.97 74.18 109.29 73.36
  Q 109.50 72.81 109.29 72.25
  A 0.20 0.19 -31.7 0 0 108.97 72.18
  Q 105.29 75.45 102.14 78.78
  C 100.97 80.01 100.77 81.24 99.22 82.37
  Q 95.77 84.88 91.99 86.88
  C 90.31 87.78 88.87 88.83 87.34 89.93
  Q 85.76 91.07 83.88 91.94
  Q 80.42 93.53 76.53 96.55
  Q 67.83 103.31 62.35 109.42
  Q 62.20 109.58 61.99 109.66
  Q 61.77 109.75 61.55 109.85
  Q 61.24 110.00 61.02 110.29
  Q 58.30 113.91 55.07 116.32
  C 53.47 117.51 52.53 118.82 51.10 120.01
  Q 47.16 123.32 43.02 126.62"
/>
<path stroke="#ae6a2c" vector-effect="non-scaling-stroke" d="
  M 43.02 126.62
  L 41.74 125.39"
/>
<path stroke="#a45d1e" vector-effect="non-scaling-stroke" d="
  M 41.74 125.39
  L 48.88 116.68
  Q 48.96 116.57 48.91 116.44
  Q 48.83 116.26 48.66 116.22
  Q 48.42 116.16 48.21 116.28
  L 37.81 122.54"
/>
<path stroke="#ae6a2c" vector-effect="non-scaling-stroke" d="
  M 37.81 122.54
  Q 33.78 120.00 30.75 120.02
  Q 28.78 120.03 25.68 121.98"
/>
<path stroke="#b78a6c" vector-effect="non-scaling-stroke" d="
  M 41.75 110.96
  Q 41.87 110.94 41.98 110.92"
/>
<path stroke="#843b0b" vector-effect="non-scaling-stroke" d="
  M 41.98 110.92
  Q 42.60 111.07 42.67 111.01
  Q 44.02 109.99 42.33 109.93
  Q 37.88 109.79 32.89 110.18
  Q 32.55 110.20 32.38 110.56
  A 0.67 0.67 0.0 0 1 31.33 110.77
  L 30.75 110.25
  Q 30.10 109.67 30.93 109.42
  Q 36.28 107.85 39.66 107.58
  Q 42.74 107.33 46.04 107.26
  Q 48.01 107.21 49.67 106.03
  Q 51.32 104.86 53.27 103.95
  C 55.02 103.13 56.31 102.02 57.80 100.77
  Q 59.18 99.62 60.95 98.80
  Q 62.60 98.04 64.32 97.49
  Q 64.85 97.32 64.94 96.76
  Q 65.01 96.29 65.45 96.10
  Q 66.92 95.48 68.33 94.33
  Q 69.15 93.66 69.47 92.68
  Q 70.23 90.39 72.11 88.99
  Q 73.42 88.00 71.80 87.74
  Q 71.53 87.70 71.25 87.69
  Q 70.96 87.69 70.71 87.79
  Q 68.10 88.77 66.50 88.77
  Q 62.46 88.76 57.38 89.21
  C 55.27 89.40 52.63 88.15 50.22 88.09
  Q 43.89 87.94 38.73 89.07
  Q 29.90 91.00 21.07 91.31
  C 19.06 91.38 16.90 92.87 14.72 91.87
  Q 13.94 91.50 13.10 91.67
  Q 12.98 91.69 12.95 91.81
  Q 12.93 91.94 12.92 92.07
  Q 12.89 92.72 12.30 92.29
  Q 11.95 92.03 11.63 92.31"
/>
<path stroke="#ae6a2c" vector-effect="non-scaling-stroke" d="
  M 11.63 92.31
  Q 11.05 90.19 9.76 87.75
  Q 8.47 85.33 4.84 85.20"
/>
<path stroke="#843b0b" vector-effect="non-scaling-stroke" d="
  M 73.03 79.52
  Q 74.13 78.88 75.53 78.87
  Q 75.86 78.87 76.15 78.72
  Q 76.28 78.66 76.35 78.53
  Q 76.68 77.96 77.32 78.10
  Q 79.00 78.47 80.54 78.41
  Q 83.15 78.30 81.11 76.66
  C 80.12 75.87 78.95 75.52 77.95 74.74
  Q 71.36 69.64 64.99 65.51
  Q 63.21 64.36 59.76 63.11
  Q 58.54 62.67 57.43 61.42"
/>
<path stroke="#a45d1e" vector-effect="non-scaling-stroke" d="
  M 56.98 44.07
  L 78.75 58.00"
/>
<path stroke="#843b0b" vector-effect="non-scaling-stroke" d="
  M 78.75 58.00
  Q 83.26 60.45 87.90 63.85
  Q 88.39 64.20 88.39 64.76
  A 0.38 0.37 15.5 0 1 87.82 65.08
  L 79.83 60.32
  Q 79.57 60.17 79.40 59.92
  Q 79.29 59.75 79.11 59.65
  Q 73.65 56.64 67.68 52.92
  Q 64.69 51.06 61.68 49.22
  Q 59.82 48.07 57.77 47.36
  Q 57.26 47.18 56.94 47.61
  Q 56.33 48.42 57.10 49.01
  Q 67.50 57.07 78.80 65.03
  C 79.73 65.68 80.47 66.48 81.28 67.26
  C 82.79 68.70 84.73 69.36 86.26 70.82
  A 1.05 1.05 0.0 0 0 87.67 70.85
  Q 88.44 70.17 88.20 69.56
  Q 88.05 69.18 87.66 69.04
  Q 85.12 68.11 83.11 66.33
  Q 82.02 65.36 80.64 64.74
  Q 79.04 64.02 77.96 63.08
  Q 76.84 62.10 75.63 61.23
  Q 74.10 60.13 72.74 58.67
  A 0.45 0.44 45.5 0 1 72.74 58.06
  Q 73.08 57.70 73.40 57.90
  Q 81.02 62.77 88.45 67.76
  Q 89.84 68.70 91.83 68.34
  Q 92.08 68.30 92.28 68.15
  Q 93.68 67.13 92.41 65.94
  Q 87.77 61.61 83.24 57.68
  C 82.01 56.61 81.20 55.37 80.11 54.20
  Q 78.91 52.91 80.64 53.25
  Q 81.36 53.40 81.97 53.88
  Q 88.34 58.93 93.51 64.85
  A 1.73 1.72 68.2 0 0 94.90 65.45
  Q 95.72 65.42 96.36 64.89
  Q 97.01 64.34 96.36 63.79
  Q 87.91 56.73 80.90 50.07
  Q 78.56 47.85 76.42 45.19
  Q 75.71 44.30 76.81 44.58
  Q 77.47 44.75 78.01 45.18
  Q 83.92 49.96 88.45 54.28
  Q 90.24 55.99 92.20 57.58
  C 94.73 59.65 96.67 62.49 99.81 63.95
  Q 101.02 64.51 102.04 63.65
  Q 102.55 63.23 102.11 62.73
  L 97.94 57.96
  Q 97.80 57.80 97.90 57.62
  L 98.33 56.89
  A 0.19 0.18 -48.6 0 1 98.64 56.87
  Q 100.10 58.85 101.86 60.27
  Q 102.27 60.60 102.57 61.03
  L 103.30 62.08
  Q 103.57 62.46 104.04 62.40
  Q 104.94 62.29 105.39 61.45
  Q 105.62 61.01 105.33 60.60
  Q 104.73 59.73 103.88 59.06
  Q 103.00 58.36 104.13 58.34
  Q 104.48 58.34 104.77 58.52
  Q 105.03 58.70 105.21 58.95
  Q 106.85 61.33 109.14 59.25
  Q 111.10 57.46 113.11 56.25
  Q 113.54 55.99 113.71 55.51
  Q 114.33 53.79 114.34 52.08"
/>
<path stroke="#ae6a2c" vector-effect="non-scaling-stroke" d="
  M 100.17 74.96
  Q 102.47 73.33 104.01 69.98
  Q 104.97 67.91 103.77 66.51
  Q 103.40 66.08 102.84 66.07
  Q 100.69 66.04 98.98 66.57
  C 92.92 68.42 87.56 71.56 84.33 77.23
  Q 83.08 79.42 83.44 82.20
  Q 83.51 82.80 84.10 82.92
  C 88.13 83.74 94.01 80.03 96.84 77.59
  Q 98.50 76.15 100.17 74.96"
/>
<path stroke="#a96325" vector-effect="non-scaling-stroke" d="
  M 78.75 58.00
  Q 77.22 55.79 75.24 54.26
  Q 71.52 51.37 71.27 51.14
  Q 65.45 45.76 59.31 40.94"
/>
<path stroke="#843b0b" vector-effect="non-scaling-stroke" d="
  M 77.25 36.52
  Q 75.35 34.04 73.32 31.95
  Q 72.75 31.36 71.96 31.58
  L 71.62 31.68
  A 0.50 0.50 0.0 0 0 71.37 32.48
  Q 77.37 39.62 83.12 45.60
  Q 84.22 46.75 85.64 47.63
  Q 85.91 47.79 86.23 47.77
  Q 87.07 47.72 86.48 47.11
  C 83.20 43.78 80.09 40.22 77.25 36.52"
/>
<path stroke="#b78a6c" vector-effect="non-scaling-stroke" d="
  M 162.15 67.32
  Q 161.56 67.80 161.17 67.67
  A 0.49 0.49 0.0 0 1 161.06 66.80
  Q 166.37 63.34 171.55 59.92
  C 173.55 58.59 174.64 55.79 173.09 53.67"
/>
<path stroke="#dcb286" vector-effect="non-scaling-stroke" d="
  M 173.09 53.67
  L 172.47 48.91"
/>
<path stroke="#a45d1e" vector-effect="non-scaling-stroke" d="
  M 173.09 53.67
  L 160.28 60.23"
/>
<path stroke="#d39246" vector-effect="non-scaling-stroke" d="
  M 160.28 60.23
  Q 160.03 59.28 158.94 58.93"
/>
<path stroke="#b78a6c" vector-effect="non-scaling-stroke" d="
  M 219.38 64.45
  L 221.70 70.46"
/>
<path stroke="#ae6a2c" vector-effect="non-scaling-stroke" d="
  M 151.30 77.59
  L 151.52 78.88
  A 0.93 0.92 -31.3 0 0 153.17 79.28
  Q 158.69 71.95 159.87 62.94
  C 159.99 62.05 159.87 61.00 160.28 60.23"
/>
<path stroke="#b37032" vector-effect="non-scaling-stroke" d="
  M 72.46 79.01
  Q 72.38 78.54 72.03 78.46
  Q 71.85 78.41 71.68 78.33
  Q 58.21 71.64 45.25 67.07
  Q 43.70 66.52 45.19 65.82
  Q 45.78 65.54 46.18 64.97
  Q 48.22 62.09 48.18 59.09"
/>
<path stroke="#d39246" vector-effect="non-scaling-stroke" d="
  M 92.30 71.30
  Q 89.20 73.40 87.36 76.10
  Q 84.70 80.00 88.21 76.85
  Q 93.66 71.96 100.34 69.13
  Q 101.90 68.47 100.23 68.21
  C 97.95 67.85 94.23 70.00 92.30 71.30"
/>
<path stroke="#bc9073" vector-effect="non-scaling-stroke" d="
  M 91.42 116.99
  Q 91.33 119.44 89.90 120.56
  Q 88.71 121.50 88.66 121.55
  Q 72.79 137.36 57.20 153.44
  Q 56.60 154.06 54.70 154.74"
/>
<path stroke="#b37032" vector-effect="non-scaling-stroke" d="
  M 54.70 154.74
  Q 54.27 154.98 53.80 154.82
  Q 53.13 154.59 53.74 154.23
  C 54.63 153.70 55.69 153.29 56.41 152.56
  C 58.89 150.08 57.36 145.40 55.70 142.72"
/>
<path stroke="#a96325" vector-effect="non-scaling-stroke" d="
  M 55.70 142.72
  Q 59.83 138.31 63.76 133.64
  Q 65.76 131.27 73.80 123.40
  Q 73.92 123.28 73.80 123.15
  L 73.62 122.95
  A 0.45 0.44 47.3 0 0 73.00 122.92
  Q 67.41 127.79 63.75 130.50
  Q 60.78 132.68 53.03 137.86"
/>
<path stroke="#b37032" vector-effect="non-scaling-stroke" d="
  M 53.03 137.86
  Q 48.44 130.97 43.02 126.62"
/>
<path stroke="#843b0b" vector-effect="non-scaling-stroke" d="
  M 105.98 90.02
  L 105.95 89.70
  A 0.48 0.47 78.6 0 0 105.35 89.29
  Q 98.20 91.20 93.30 94.04
  Q 90.48 95.67 93.70 95.21
  C 94.71 95.06 95.63 94.12 96.68 93.83
  Q 100.34 92.81 105.14 91.31
  Q 106.09 91.01 105.98 90.02"
/>
<path stroke="#843b0b" vector-effect="non-scaling-stroke" d="
  M 59.27 121.22
  Q 62.21 118.55 64.93 115.35
  Q 67.56 112.27 70.39 109.78
  Q 75.60 105.19 80.52 101.11
  C 82.85 99.17 85.55 97.83 87.61 95.71
  A 0.47 0.47 0.0 0 0 87.51 94.98
  L 87.22 94.82
  Q 86.63 94.47 86.06 94.84
  Q 80.24 98.55 75.64 102.63
  C 69.50 108.06 63.72 113.47 58.62 120.06
  A 0.71 0.71 0.0 0 0 58.66 120.98
  L 58.87 121.20
  A 0.28 0.28 0.0 0 0 59.27 121.22"
/>
<path stroke="#843b0b" vector-effect="non-scaling-stroke" d="
  M 72.8035 102.5464
  A 0.75 0.75 0.0 0 0 72.7628 101.4865
  L 72.7481 101.4729
  A 0.75 0.75 0.0 0 0 71.6882 101.5137
  L 55.8165 118.6536
  A 0.75 0.75 0.0 0 0 55.8572 119.7135
  L 55.8719 119.7271
  A 0.75 0.75 0.0 0 0 56.9318 119.6863
  L 72.8035 102.5464"
/>
<path stroke="#843b0b" vector-effect="non-scaling-stroke" d="
  M 66.66 125.48
  Q 67.00 125.33 67.25 125.06
  C 70.30 121.70 73.92 119.00 76.66 115.55
  C 80.34 110.93 84.31 106.81 89.17 103.44
  A 0.70 0.70 0.0 0 0 88.72 102.16
  C 87.62 102.24 86.16 102.86 85.36 103.62
  C 82.67 106.22 79.71 108.36 77.27 111.32
  Q 72.46 117.16 67.56 122.12
  Q 66.99 122.70 66.30 123.14
  Q 65.62 123.57 64.97 124.00
  Q 64.00 124.64 63.21 125.45
  Q 61.23 127.47 59.05 129.35
  C 58.47 129.86 58.35 130.59 58.37 131.32
  Q 58.39 131.90 58.73 131.43
  Q 59.14 130.86 59.74 131.21
  Q 60.16 131.46 60.48 131.09
  Q 62.12 129.24 64.12 128.08
  Q 65.33 127.39 66.13 125.96
  A 1.10 1.08 2.2 0 1 66.66 125.48"
/>
<path stroke="#843b0b" vector-effect="non-scaling-stroke" d="
  M 82.5001 102.9578
  A 0.81 0.81 0.0 0 0 81.3559 102.9038
  L 70.1135 113.1336
  A 0.81 0.81 0.0 0 0 70.0595 114.2778
  L 70.0999 114.3222
  A 0.81 0.81 0.0 0 0 71.2441 114.3762
  L 82.4865 104.1464
  A 0.81 0.81 0.0 0 0 82.5405 103.0022
  L 82.5001 102.9578"
/>
<path stroke="#ae6a2c" vector-effect="non-scaling-stroke" d="
  M 175.71 142.10
  Q 174.74 144.65 174.89 147.55
  Q 175.05 150.60 177.08 152.28
  Q 180.99 155.52 187.61 153.08"
/>
<path stroke="#b78a6c" vector-effect="non-scaling-stroke" d="
  M 187.61 153.08
  Q 184.23 155.37 178.74 155.23"
/>
<path stroke="#b78a6c" vector-effect="non-scaling-stroke" d="
  M 138.10 118.69
  Q 137.67 117.24 136.74 118.50
  Q 136.43 118.91 136.29 119.55
  Q 131.69 140.58 128.37 161.87
  Q 128.08 163.72 126.39 164.92"
/>
<path stroke="#a96325" vector-effect="non-scaling-stroke" d="
  M 88.84 149.31
  L 90.91 142.11"
/>
<path stroke="#b37032" vector-effect="non-scaling-stroke" d="
  M 11.63 92.31
  Q 13.80 100.72 12.53 109.50
  Q 11.77 114.79 6.61 114.51"
/>
<path stroke="#bc9073" vector-effect="non-scaling-stroke" d="
  M 41.98 110.92
  L 41.93 110.59
  Q 41.88 110.24 41.52 110.27
  Q 24.65 112.09 8.74 115.25
  Q 8.27 115.34 7.81 115.21
  L 7.25 115.06"
/>
<path stroke="#d39246" vector-effect="non-scaling-stroke" d="
  M 191.27 122.94
  L 186.31 127.05"
/>
<path stroke="#e7c095" stroke-opacity="0.996" vector-effect="non-scaling-stroke" d="
  M 54.49 155.74
  L 54.70 154.74"
/>
<path stroke="#d39246" vector-effect="non-scaling-stroke" d="
  M 41.74 125.39
  L 37.81 122.54"
/>
<path stroke="#e7c095" stroke-opacity="0.996" vector-effect="non-scaling-stroke" d="
  M 207.53 129.85
  Q 206.65 133.60 204.42 137.16
  Q 201.43 141.91 197.67 146.06
  Q 196.57 147.26 194.36 148.91
  Q 192.97 149.94 190.88 151.62
  Q 189.36 152.85 187.61 153.08"
/>
<path stroke="#d39246" vector-effect="non-scaling-stroke" d="
  M 53.03 137.86
  L 55.70 142.72"
/>
</g>
<path fill="#894111" d="
  M 130.60 2.27
  Q 129.64 8.23 127.08 13.54
  Q 128.09 7.31 130.60 2.27
  Z"
/>
<path fill="#dea054" fill-opacity="0.996" d="
  M 130.60 2.27
  Q 132.13 3.22 132.75 3.28
  Q 130.95 12.11 127.70 20.47
  C 126.67 23.13 126.13 25.81 125.02 28.47
  Q 123.57 31.94 122.58 35.69
  C 122.03 37.79 120.99 39.64 120.54 41.73
  Q 120.06 43.98 119.39 46.29
  Q 117.68 52.20 117.15 58.12
  A 0.44 0.44 0.0 0 0 117.48 58.58
  Q 117.74 58.65 117.84 58.41
  C 119.54 54.32 120.27 50.19 121.65 46.04
  C 122.88 42.35 123.94 38.51 125.27 34.97
  Q 129.13 24.69 132.55 14.25
  Q 133.24 12.14 135.25 3.78
  L 138.21 4.52
  Q 138.17 8.82 137.84 10.11
  Q 134.92 21.28 130.53 31.55
  Q 127.24 39.24 124.02 46.70
  Q 121.84 51.77 119.77 58.30
  Q 119.44 59.34 119.59 59.97
  Q 119.97 61.65 120.56 60.03
  Q 122.07 55.85 123.76 52.00
  Q 128.16 41.98 132.35 32.77
  Q 137.17 22.19 139.90 11.69
  Q 140.71 8.58 140.98 5.21
  L 145.03 6.32
  Q 145.13 9.39 144.81 10.54
  Q 141.16 23.82 136.00 34.61
  Q 129.33 48.57 125.09 58.36
  Q 122.84 63.57 120.80 69.74
  Q 118.55 76.58 117.59 81.73
  Q 116.07 89.85 114.75 98.41
  Q 113.76 104.85 111.60 110.46
  Q 108.57 118.30 105.19 127.16
  C 104.28 129.53 103.87 132.18 103.14 134.66
  C 101.91 138.83 102.10 143.64 101.55 147.98
  C 101.38 149.32 100.73 150.26 100.14 151.43
  Q 99.81 152.09 100.54 152.20
  Q 102.26 152.48 103.78 152.06
  A 0.91 0.91 0.0 0 0 104.38 150.86
  Q 104.25 150.51 104.42 150.19
  Q 105.82 147.64 105.79 150.56
  Q 105.78 151.36 105.98 152.02
  Q 106.10 152.43 106.46 152.67
  Q 107.22 153.17 108.18 152.99
  Q 108.94 152.84 108.50 152.20
  Q 108.37 152.01 108.31 151.79
  Q 108.16 151.22 108.16 150.62
  Q 108.23 138.65 112.38 127.32
  C 115.53 118.70 118.67 109.81 120.19 100.83
  Q 121.44 93.51 122.52 86.17
  C 123.79 77.62 126.18 70.23 129.78 62.95
  C 134.59 53.21 139.15 43.97 142.50 33.96
  Q 145.10 26.17 145.75 23.00
  Q 147.36 15.21 148.84 7.19
  L 151.41 7.74
  Q 149.30 20.48 146.07 32.83
  Q 145.56 34.77 144.83 36.62
  C 143.59 39.74 142.59 42.74 141.02 45.79
  Q 137.22 53.16 133.37 61.01
  Q 129.24 69.46 125.51 83.27
  Q 124.03 88.73 122.69 97.76
  Q 121.55 105.41 120.12 112.11
  Q 118.94 117.61 116.28 124.76
  C 113.03 133.51 110.27 143.15 110.63 152.46
  Q 110.69 153.86 112.04 154.76
  Q 112.25 154.90 112.49 154.95
  Q 114.04 155.28 113.96 153.69
  Q 113.60 145.94 114.77 140.19
  C 115.99 134.21 118.42 127.75 120.15 121.51
  Q 121.67 116.08 122.23 112.99
  Q 124.19 102.24 126.00 91.48
  C 126.76 86.88 128.05 82.39 129.33 77.93
  Q 131.21 71.43 134.28 64.63
  Q 137.06 58.46 140.54 52.45
  C 144.45 45.71 147.46 38.47 149.09 30.83
  Q 151.11 21.36 154.24 10.58
  A 1.36 1.35 6.7 0 1 155.47 9.61
  Q 155.60 9.61 155.72 9.60
  A 0.66 0.66 0.0 0 1 156.41 10.33
  Q 154.47 28.68 147.20 45.62
  Q 142.86 55.73 137.17 66.40
  C 133.70 72.92 131.78 79.69 130.01 86.80
  Q 129.21 90.03 128.77 93.22
  Q 126.86 107.07 122.08 122.60
  Q 120.93 126.33 120.23 130.02
  Q 118.94 136.81 117.35 143.42
  C 116.54 146.81 116.11 150.36 115.42 153.78
  A 1.59 1.59 0.0 0 0 115.54 154.76
  Q 116.37 156.50 118.37 157.76
  Q 118.94 158.12 119.01 157.45
  Q 119.03 157.24 118.90 157.05
  Q 118.55 156.53 119.03 156.11
  Q 119.99 155.26 120.00 153.90
  Q 120.09 139.89 124.08 125.30
  C 125.17 121.31 125.86 117.42 126.79 113.47
  C 129.01 103.90 130.46 94.13 132.43 84.51
  C 132.91 82.17 133.75 79.91 134.42 77.61
  Q 135.16 75.08 136.30 72.54
  C 138.44 67.73 140.59 63.04 143.05 58.27
  Q 148.36 47.99 151.86 37.52
  Q 156.47 23.77 158.52 9.71
  L 161.59 10.54
  Q 159.29 24.85 155.00 38.63
  Q 153.64 43.02 152.19 46.19
  Q 149.43 52.20 146.19 58.79
  Q 140.54 70.29 136.02 82.74
  Q 133.01 91.05 131.22 107.03
  L 123.08 155.30
  A 2.02 2.00 19.9 0 0 124.06 157.37
  Q 127.94 159.61 126.39 164.92
  Q 126.45 165.68 124.20 166.42
  Q 121.11 167.45 117.93 169.47
  Q 111.22 169.72 106.50 168.67
  Q 100.87 167.41 94.68 164.08
  Q 91.26 162.24 89.63 159.99
  Q 86.05 154.18 88.84 149.31
  Q 90.17 149.00 91.45 149.68
  Q 91.80 149.87 92.20 149.83
  Q 92.88 149.75 93.14 150.33
  Q 93.40 150.91 94.02 150.92
  Q 97.11 150.95 97.67 148.64
  Q 99.89 139.53 102.12 130.79
  Q 103.38 125.84 105.02 121.50
  Q 110.00 108.31 113.36 94.92
  Q 114.80 89.18 115.05 82.16
  Q 115.05 82.10 114.99 82.09
  L 114.73 82.06
  Q 114.40 82.03 114.35 82.36
  Q 112.97 91.06 110.34 99.57
  Q 108.98 103.96 106.81 108.70
  Q 104.52 113.69 103.09 118.59
  Q 102.39 120.97 101.27 123.21
  Q 100.04 125.64 99.40 128.50
  Q 97.16 138.58 94.61 147.81
  A 0.86 0.85 -71.3 0 1 93.47 148.38
  Q 92.65 148.06 92.83 147.44
  Q 94.10 142.94 95.30 138.74
  Q 95.62 137.64 95.35 136.55
  Q 94.94 134.87 94.39 136.52
  L 92.33 142.79
  Q 92.18 143.25 91.71 143.14
  Q 91.07 142.99 90.91 142.11
  L 94.33 131.53
  Q 98.85 118.51 103.78 105.61
  C 105.80 100.33 108.45 95.15 109.93 90.05
  C 111.95 83.08 112.85 74.92 113.74 67.33
  Q 115.55 51.87 117.48 45.76
  Q 120.42 36.49 122.76 26.94
  L 127.08 13.54
  Q 129.64 8.23 130.60 2.27
  Z"
/>
<path fill="#c98538" d="
  M 132.75 3.28
  Q 133.98 3.23 135.25 3.78
  Q 133.24 12.14 132.55 14.25
  Q 129.13 24.69 125.27 34.97
  C 123.94 38.51 122.88 42.35 121.65 46.04
  C 120.27 50.19 119.54 54.32 117.84 58.41
  Q 117.74 58.65 117.48 58.58
  A 0.44 0.44 0.0 0 1 117.15 58.12
  Q 117.68 52.20 119.39 46.29
  Q 120.06 43.98 120.54 41.73
  C 120.99 39.64 122.03 37.79 122.58 35.69
  Q 123.57 31.94 125.02 28.47
  C 126.13 25.81 126.67 23.13 127.70 20.47
  Q 130.95 12.11 132.75 3.28
  Z"
/>
<path fill="#c98538" d="
  M 138.21 4.52
  Q 139.77 4.62 140.98 5.21
  Q 140.71 8.58 139.90 11.69
  Q 137.17 22.19 132.35 32.77
  Q 128.16 41.98 123.76 52.00
  Q 122.07 55.85 120.56 60.03
  Q 119.97 61.65 119.59 59.97
  Q 119.44 59.34 119.77 58.30
  Q 121.84 51.77 124.02 46.70
  Q 127.24 39.24 130.53 31.55
  Q 134.92 21.28 137.84 10.11
  Q 138.17 8.82 138.21 4.52
  Z"
/>
<path fill="#c98538" d="
  M 145.03 6.32
  L 148.84 7.19
  Q 147.36 15.21 145.75 23.00
  Q 145.10 26.17 142.50 33.96
  C 139.15 43.97 134.59 53.21 129.78 62.95
  C 126.18 70.23 123.79 77.62 122.52 86.17
  Q 121.44 93.51 120.19 100.83
  C 118.67 109.81 115.53 118.70 112.38 127.32
  Q 108.23 138.65 108.16 150.62
  Q 108.16 151.22 108.31 151.79
  Q 108.37 152.01 108.50 152.20
  Q 108.94 152.84 108.18 152.99
  Q 107.22 153.17 106.46 152.67
  Q 106.10 152.43 105.98 152.02
  Q 105.78 151.36 105.79 150.56
  Q 105.82 147.64 104.42 150.19
  Q 104.25 150.51 104.38 150.86
  A 0.91 0.91 0.0 0 1 103.78 152.06
  Q 102.26 152.48 100.54 152.20
  Q 99.81 152.09 100.14 151.43
  C 100.73 150.26 101.38 149.32 101.55 147.98
  C 102.10 143.64 101.91 138.83 103.14 134.66
  C 103.87 132.18 104.28 129.53 105.19 127.16
  Q 108.57 118.30 111.60 110.46
  Q 113.76 104.85 114.75 98.41
  Q 116.07 89.85 117.59 81.73
  Q 118.55 76.58 120.80 69.74
  Q 122.84 63.57 125.09 58.36
  Q 129.33 48.57 136.00 34.61
  Q 141.16 23.82 144.81 10.54
  Q 145.13 9.39 145.03 6.32
  Z
  M 122.68 76.89
  C 123.01 75.91 122.91 75.03 123.45 74.03
  C 125.30 70.68 125.98 67.06 127.45 63.65
  Q 132.05 53.00 137.69 42.47
  C 139.68 38.78 141.12 34.37 141.61 30.32
  Q 142.33 24.43 140.20 29.97
  C 138.89 33.35 137.65 36.71 135.97 39.92
  Q 130.72 49.97 126.60 60.18
  C 125.56 62.73 124.96 65.33 123.90 67.84
  C 122.68 70.71 122.00 73.87 121.35 76.92
  A 0.57 0.56 9.8 0 0 121.83 77.60
  Q 122.55 77.68 122.62 77.13
  Q 122.64 77.00 122.68 76.89
  Z"
/>
<path fill="#c98538" d="
  M 151.41 7.74
  L 158.52 9.71
  Q 156.47 23.77 151.86 37.52
  Q 148.36 47.99 143.05 58.27
  C 140.59 63.04 138.44 67.73 136.30 72.54
  Q 135.16 75.08 134.42 77.61
  C 133.75 79.91 132.91 82.17 132.43 84.51
  C 130.46 94.13 129.01 103.90 126.79 113.47
  C 125.86 117.42 125.17 121.31 124.08 125.30
  Q 120.09 139.89 120.00 153.90
  Q 119.99 155.26 119.03 156.11
  Q 118.55 156.53 118.90 157.05
  Q 119.03 157.24 119.01 157.45
  Q 118.94 158.12 118.37 157.76
  Q 116.37 156.50 115.54 154.76
  A 1.59 1.59 0.0 0 1 115.42 153.78
  C 116.11 150.36 116.54 146.81 117.35 143.42
  Q 118.94 136.81 120.23 130.02
  Q 120.93 126.33 122.08 122.60
  Q 126.86 107.07 128.77 93.22
  Q 129.21 90.03 130.01 86.80
  C 131.78 79.69 133.70 72.92 137.17 66.40
  Q 142.86 55.73 147.20 45.62
  Q 154.47 28.68 156.41 10.33
  A 0.66 0.66 0.0 0 0 155.72 9.60
  Q 155.60 9.61 155.47 9.61
  A 1.36 1.35 6.7 0 0 154.24 10.58
  Q 151.11 21.36 149.09 30.83
  C 147.46 38.47 144.45 45.71 140.54 52.45
  Q 137.06 58.46 134.28 64.63
  Q 131.21 71.43 129.33 77.93
  C 128.05 82.39 126.76 86.88 126.00 91.48
  Q 124.19 102.24 122.23 112.99
  Q 121.67 116.08 120.15 121.51
  C 118.42 127.75 115.99 134.21 114.77 140.19
  Q 113.60 145.94 113.96 153.69
  Q 114.04 155.28 112.49 154.95
  Q 112.25 154.90 112.04 154.76
  Q 110.69 153.86 110.63 152.46
  C 110.27 143.15 113.03 133.51 116.28 124.76
  Q 118.94 117.61 120.12 112.11
  Q 121.55 105.41 122.69 97.76
  Q 124.03 88.73 125.51 83.27
  Q 129.24 69.46 133.37 61.01
  Q 137.22 53.16 141.02 45.79
  C 142.59 42.74 143.59 39.74 144.83 36.62
  Q 145.56 34.77 146.07 32.83
  Q 149.30 20.48 151.41 7.74
  Z"
/>
<path fill="#894111" d="
  M 161.59 10.54
  Q 164.89 10.87 166.59 13.17
  Q 168.39 16.77 167.71 18.51
  Q 164.96 25.62 162.22 32.83
  A 0.89 0.88 -60.0 0 0 162.48 33.82
  Q 162.72 34.02 162.91 33.76
  Q 163.34 34.60 164.21 35.34
  Q 167.75 39.27 168.64 40.37
  Q 171.70 44.15 172.47 48.91
  C 171.69 49.00 171.20 48.99 170.57 49.48
  Q 165.14 53.72 159.89 58.16
  Q 159.42 58.55 158.94 58.93
  Q 154.21 63.71 152.50 69.75
  Q 151.60 72.92 151.30 77.59
  Q 147.89 76.03 149.81 80.70
  Q 150.00 81.18 150.52 81.17
  Q 157.45 81.01 164.64 80.47
  Q 167.74 80.24 170.02 78.50
  Q 171.75 77.19 173.58 77.06
  C 176.94 76.83 180.24 77.59 183.51 76.50
  Q 188.54 74.83 193.56 75.55
  Q 194.68 75.71 194.86 76.84
  Q 194.93 77.31 193.77 77.65
  Q 193.01 77.87 192.23 77.86
  Q 189.57 77.81 186.91 78.08
  Q 184.15 78.35 181.88 79.35
  Q 180.71 79.85 181.99 79.83
  Q 195.70 79.59 200.95 78.74
  Q 208.13 77.59 215.49 76.07
  Q 215.92 75.98 215.89 75.54
  L 215.86 75.21
  Q 215.84 74.97 215.61 74.97
  L 209.74 74.82
  Q 209.15 74.80 209.59 74.40
  Q 210.64 73.44 211.12 73.35
  Q 216.15 72.44 220.52 70.65
  A 0.06 0.06 0.0 0 1 220.60 70.72
  Q 220.50 71.01 220.76 71.20
  Q 221.21 71.52 221.43 71.03
  L 221.70 70.46
  L 223.00 76.05
  L 223.00 83.33
  Q 222.62 90.65 219.21 96.83
  C 218.02 99.00 215.84 99.44 213.55 99.34
  Q 195.70 98.58 176.89 99.61
  A 0.60 0.60 0.0 0 0 176.32 100.24
  Q 176.34 100.79 177.25 100.73
  Q 177.33 100.92 177.43 101.08
  Q 177.52 101.23 177.70 101.35
  Q 191.58 110.35 205.57 119.19
  Q 207.26 120.26 208.52 122.22
  L 207.53 129.85
  Q 207.44 127.49 207.28 125.30
  Q 207.08 122.57 205.81 121.13
  C 201.98 116.78 195.41 119.91 191.27 122.94
  L 175.67 114.22
  Q 172.85 112.64 175.06 115.01
  L 186.31 127.05
  Q 179.57 133.59 175.71 142.10
  Q 176.20 139.70 175.27 139.60
  Q 168.41 133.41 160.91 128.27
  Q 153.44 123.14 151.75 121.84
  Q 147.47 118.54 143.00 114.98
  Q 140.72 113.17 137.76 111.62
  Q 137.20 111.33 137.33 110.72
  L 138.07 107.09
  A 0.90 0.90 0.0 0 1 139.61 106.65
  Q 141.59 108.72 144.39 110.12
  Q 149.64 112.76 154.36 116.38
  Q 155.53 117.28 155.08 115.87
  Q 154.63 114.45 153.19 113.42
  Q 147.25 109.18 140.80 105.93
  Q 140.49 105.77 140.15 105.82
  Q 139.67 105.88 139.32 106.21
  Q 139.02 106.47 138.71 106.22
  Q 138.19 105.80 138.36 105.16
  Q 139.91 99.42 139.03 94.87
  Q 138.72 93.27 139.30 91.64
  Q 140.60 87.96 141.61 84.67
  A 1.51 1.51 0.0 0 1 142.42 83.75
  C 143.61 83.21 144.21 83.26 144.80 81.85
  Q 146.54 77.70 147.27 73.58
  Q 147.48 72.43 146.55 73.14
  Q 143.17 75.74 141.45 80.14
  Q 137.03 91.41 135.72 102.29
  Q 135.66 102.83 135.14 103.00
  Q 132.55 103.88 131.22 107.03
  Q 133.01 91.05 136.02 82.74
  Q 140.54 70.29 146.19 58.79
  Q 149.43 52.20 152.19 46.19
  Q 153.64 43.02 155.00 38.63
  Q 159.29 24.85 161.59 10.54
  Z
  M 145.53 88.37
  Q 148.22 89.91 150.79 91.64
  Q 152.39 92.71 154.15 93.37
  Q 155.79 94.00 157.25 95.57
  A 1.06 1.06 0.0 0 0 158.18 95.90
  Q 158.80 95.80 159.07 96.34
  Q 159.61 97.43 160.71 96.85
  A 0.38 0.38 0.0 0 0 160.71 96.17
  Q 158.36 94.99 156.07 93.27
  C 152.81 90.82 149.36 88.68 146.06 86.32
  Q 145.35 85.80 144.94 86.59
  Q 144.67 87.09 145.05 87.86
  A 1.17 1.17 0.0 0 0 145.53 88.37
  Z"
/>
<path fill="#f0e0d5" fill-opacity="0.996" d="
  M 166.59 13.17
  Q 169.90 16.82 167.69 21.75
  Q 166.33 24.78 162.91 33.76
  Q 162.72 34.02 162.48 33.82
  A 0.89 0.88 -60.0 0 1 162.22 32.83
  Q 164.96 25.62 167.71 18.51
  Q 168.39 16.77 166.59 13.17
  Z"
/>
<path fill="#7e3404" d="
  M 84.10 27.20
  Q 84.31 29.29 85.86 31.01
  Q 87.84 33.22 88.38 34.17
  Q 89.59 36.28 90.88 38.44
  Q 92.07 40.46 94.10 42.13
  Q 100.28 47.21 105.61 53.69
  A 1.62 1.56 -67.8 0 1 105.96 54.57
  Q 105.98 54.85 106.03 55.12
  Q 106.49 57.50 104.88 55.68
  C 101.06 51.37 97.47 47.18 92.93 43.43
  Q 89.98 40.99 86.90 38.09
  Q 85.53 36.81 84.00 35.81
  Q 82.90 35.10 84.19 34.85
  Q 85.05 34.68 85.67 35.63
  A 0.41 0.41 0.0 0 0 86.24 35.74
  L 86.46 35.58
  Q 86.97 35.23 86.54 34.78
  L 79.15 27.04
  L 84.10 27.20
  Z"
/>
<path fill="#7e3404" d="
  M 122.76 26.94
  Q 120.42 36.49 117.48 45.76
  Q 115.55 51.87 113.74 67.33
  C 112.85 74.92 111.95 83.08 109.93 90.05
  C 108.45 95.15 105.80 100.33 103.78 105.61
  Q 98.85 118.51 94.33 131.53
  Q 93.78 131.85 93.28 132.53
  Q 93.42 131.30 92.72 131.16
  Q 93.28 130.45 91.97 130.66
  A 0.66 0.60 -68.2 0 0 91.68 130.80
  L 87.06 134.66
  Q 87.00 133.71 87.27 132.84
  Q 87.86 132.53 88.07 132.07
  Q 90.06 127.83 91.36 122.12
  Q 92.89 120.54 91.83 119.98
  Q 93.05 117.73 93.69 114.52
  Q 93.75 114.21 93.56 114.03
  Q 93.18 113.67 93.05 114.18
  Q 92.50 116.30 91.42 116.99
  Q 89.34 119.38 87.68 120.35
  Q 86.38 121.12 87.20 119.85
  Q 91.18 113.68 95.37 108.04
  Q 97.03 105.80 100.38 103.06
  Q 100.77 102.74 101.26 102.70
  Q 102.24 102.60 102.76 101.69
  C 103.25 100.81 104.26 99.86 104.41 98.86
  Q 104.67 97.16 103.27 98.15
  Q 100.21 100.33 97.33 102.81
  C 93.45 106.14 90.79 109.93 87.55 113.70
  Q 86.90 114.46 86.77 115.38
  Q 86.68 115.98 86.13 116.21
  Q 85.53 116.46 84.98 116.29
  Q 84.46 116.13 84.76 115.67
  Q 87.20 111.93 89.61 108.14
  Q 91.17 105.70 93.36 103.44
  C 96.94 99.74 100.34 97.05 105.22 94.95
  Q 105.74 94.73 106.01 94.24
  Q 107.62 91.45 108.11 88.41
  Q 108.21 87.77 107.56 87.77
  L 106.74 87.76
  Q 103.78 87.74 106.21 86.05
  C 109.25 83.95 108.95 81.53 109.15 78.32
  Q 109.19 77.71 109.49 77.18
  Q 109.72 76.78 109.60 76.34
  Q 109.36 75.50 108.83 76.19
  C 104.91 81.30 100.85 85.85 95.42 89.70
  A 0.34 0.33 58.4 0 1 94.93 89.58
  L 94.80 89.35
  Q 94.50 88.78 94.96 88.32
  C 97.64 85.64 100.52 83.59 102.84 80.44
  Q 105.20 77.23 108.40 74.64
  Q 108.97 74.18 109.29 73.36
  Q 109.50 72.81 109.29 72.25
  A 0.20 0.19 -31.7 0 0 108.97 72.18
  Q 105.29 75.45 102.14 78.78
  C 100.97 80.01 100.77 81.24 99.22 82.37
  Q 95.77 84.88 91.99 86.88
  C 90.31 87.78 88.87 88.83 87.34 89.93
  Q 85.76 91.07 83.88 91.94
  Q 80.42 93.53 76.53 96.55
  Q 67.83 103.31 62.35 109.42
  Q 62.20 109.58 61.99 109.66
  Q 61.77 109.75 61.55 109.85
  Q 61.24 110.00 61.02 110.29
  Q 58.30 113.91 55.07 116.32
  C 53.47 117.51 52.53 118.82 51.10 120.01
  Q 47.16 123.32 43.02 126.62
  L 41.74 125.39
  L 48.88 116.68
  Q 48.96 116.57 48.91 116.44
  Q 48.83 116.26 48.66 116.22
  Q 48.42 116.16 48.21 116.28
  L 37.81 122.54
  Q 33.78 120.00 30.75 120.02
  Q 28.78 120.03 25.68 121.98
  Q 33.05 116.71 41.18 112.59
  A 2.38 2.35 -88.5 0 0 42.21 111.60
  Q 42.36 111.33 41.75 110.96
  Q 41.87 110.94 41.98 110.92
  Q 42.60 111.07 42.67 111.01
  Q 44.02 109.99 42.33 109.93
  Q 37.88 109.79 32.89 110.18
  Q 32.55 110.20 32.38 110.56
  A 0.67 0.67 0.0 0 1 31.33 110.77
  L 30.75 110.25
  Q 30.10 109.67 30.93 109.42
  Q 36.28 107.85 39.66 107.58
  Q 42.74 107.33 46.04 107.26
  Q 48.01 107.21 49.67 106.03
  Q 51.32 104.86 53.27 103.95
  C 55.02 103.13 56.31 102.02 57.80 100.77
  Q 59.18 99.62 60.95 98.80
  Q 62.60 98.04 64.32 97.49
  Q 64.85 97.32 64.94 96.76
  Q 65.01 96.29 65.45 96.10
  Q 66.92 95.48 68.33 94.33
  Q 69.15 93.66 69.47 92.68
  Q 70.23 90.39 72.11 88.99
  Q 73.42 88.00 71.80 87.74
  Q 71.53 87.70 71.25 87.69
  Q 70.96 87.69 70.71 87.79
  Q 68.10 88.77 66.50 88.77
  Q 62.46 88.76 57.38 89.21
  C 55.27 89.40 52.63 88.15 50.22 88.09
  Q 43.89 87.94 38.73 89.07
  Q 29.90 91.00 21.07 91.31
  C 19.06 91.38 16.90 92.87 14.72 91.87
  Q 13.94 91.50 13.10 91.67
  Q 12.98 91.69 12.95 91.81
  Q 12.93 91.94 12.92 92.07
  Q 12.89 92.72 12.30 92.29
  Q 11.95 92.03 11.63 92.31
  Q 11.05 90.19 9.76 87.75
  Q 8.47 85.33 4.84 85.20
  Q 13.16 84.49 19.76 84.26
  Q 30.83 83.88 41.73 83.72
  Q 45.08 83.68 48.24 83.25
  C 51.15 82.86 54.04 82.80 56.91 82.33
  Q 64.00 81.18 71.24 80.61
  Q 72.78 80.49 73.03 79.52
  Q 74.13 78.88 75.53 78.87
  Q 75.86 78.87 76.15 78.72
  Q 76.28 78.66 76.35 78.53
  Q 76.68 77.96 77.32 78.10
  Q 79.00 78.47 80.54 78.41
  Q 83.15 78.30 81.11 76.66
  C 80.12 75.87 78.95 75.52 77.95 74.74
  Q 71.36 69.64 64.99 65.51
  Q 63.21 64.36 59.76 63.11
  Q 58.54 62.67 57.43 61.42
  L 58.39 61.15
  Q 58.78 61.03 58.62 60.66
  Q 58.53 60.47 58.32 60.37
  C 56.43 59.53 55.05 58.64 54.62 56.38
  Q 53.38 49.87 56.98 44.07
  L 78.75 58.00
  Q 83.26 60.45 87.90 63.85
  Q 88.39 64.20 88.39 64.76
  A 0.38 0.37 15.5 0 1 87.82 65.08
  L 79.83 60.32
  Q 79.57 60.17 79.40 59.92
  Q 79.29 59.75 79.11 59.65
  Q 73.65 56.64 67.68 52.92
  Q 64.69 51.06 61.68 49.22
  Q 59.82 48.07 57.77 47.36
  Q 57.26 47.18 56.94 47.61
  Q 56.33 48.42 57.10 49.01
  Q 67.50 57.07 78.80 65.03
  C 79.73 65.68 80.47 66.48 81.28 67.26
  C 82.79 68.70 84.73 69.36 86.26 70.82
  A 1.05 1.05 0.0 0 0 87.67 70.85
  Q 88.44 70.17 88.20 69.56
  Q 88.05 69.18 87.66 69.04
  Q 85.12 68.11 83.11 66.33
  Q 82.02 65.36 80.64 64.74
  Q 79.04 64.02 77.96 63.08
  Q 76.84 62.10 75.63 61.23
  Q 74.10 60.13 72.74 58.67
  A 0.45 0.44 45.5 0 1 72.74 58.06
  Q 73.08 57.70 73.40 57.90
  Q 81.02 62.77 88.45 67.76
  Q 89.84 68.70 91.83 68.34
  Q 92.08 68.30 92.28 68.15
  Q 93.68 67.13 92.41 65.94
  Q 87.77 61.61 83.24 57.68
  C 82.01 56.61 81.20 55.37 80.11 54.20
  Q 78.91 52.91 80.64 53.25
  Q 81.36 53.40 81.97 53.88
  Q 88.34 58.93 93.51 64.85
  A 1.73 1.72 68.2 0 0 94.90 65.45
  Q 95.72 65.42 96.36 64.89
  Q 97.01 64.34 96.36 63.79
  Q 87.91 56.73 80.90 50.07
  Q 78.56 47.85 76.42 45.19
  Q 75.71 44.30 76.81 44.58
  Q 77.47 44.75 78.01 45.18
  Q 83.92 49.96 88.45 54.28
  Q 90.24 55.99 92.20 57.58
  C 94.73 59.65 96.67 62.49 99.81 63.95
  Q 101.02 64.51 102.04 63.65
  Q 102.55 63.23 102.11 62.73
  L 97.94 57.96
  Q 97.80 57.80 97.90 57.62
  L 98.33 56.89
  A 0.19 0.18 -48.6 0 1 98.64 56.87
  Q 100.10 58.85 101.86 60.27
  Q 102.27 60.60 102.57 61.03
  L 103.30 62.08
  Q 103.57 62.46 104.04 62.40
  Q 104.94 62.29 105.39 61.45
  Q 105.62 61.01 105.33 60.60
  Q 104.73 59.73 103.88 59.06
  Q 103.00 58.36 104.13 58.34
  Q 104.48 58.34 104.77 58.52
  Q 105.03 58.70 105.21 58.95
  Q 106.85 61.33 109.14 59.25
  Q 111.10 57.46 113.11 56.25
  Q 113.54 55.99 113.71 55.51
  Q 114.33 53.79 114.34 52.08
  Q 117.84 38.95 122.76 26.94
  Z
  M 100.17 74.96
  Q 102.47 73.33 104.01 69.98
  Q 104.97 67.91 103.77 66.51
  Q 103.40 66.08 102.84 66.07
  Q 100.69 66.04 98.98 66.57
  C 92.92 68.42 87.56 71.56 84.33 77.23
  Q 83.08 79.42 83.44 82.20
  Q 83.51 82.80 84.10 82.92
  C 88.13 83.74 94.01 80.03 96.84 77.59
  Q 98.50 76.15 100.17 74.96
  Z"
/>
<path fill="#894111" d="
  M 79.15 27.04
  L 86.54 34.78
  Q 86.97 35.23 86.46 35.58
  L 86.24 35.74
  A 0.41 0.41 0.0 0 1 85.67 35.63
  Q 85.05 34.68 84.19 34.85
  Q 82.90 35.10 84.00 35.81
  Q 85.53 36.81 86.90 38.09
  Q 89.98 40.99 92.93 43.43
  C 97.47 47.18 101.06 51.37 104.88 55.68
  Q 106.49 57.50 106.03 55.12
  Q 105.98 54.85 105.96 54.57
  A 1.62 1.56 -67.8 0 0 105.61 53.69
  Q 100.28 47.21 94.10 42.13
  Q 92.07 40.46 90.88 38.44
  Q 89.59 36.28 88.38 34.17
  Q 87.84 33.22 85.86 31.01
  Q 84.31 29.29 84.10 27.20
  C 87.56 27.32 91.67 29.57 94.02 31.91
  Q 103.75 41.63 114.34 52.08
  Q 114.33 53.79 113.71 55.51
  Q 113.54 55.99 113.11 56.25
  Q 111.10 57.46 109.14 59.25
  Q 106.85 61.33 105.21 58.95
  Q 105.03 58.70 104.77 58.52
  Q 104.48 58.34 104.13 58.34
  Q 103.00 58.36 103.88 59.06
  Q 104.73 59.73 105.33 60.60
  Q 105.62 61.01 105.39 61.45
  Q 104.94 62.29 104.04 62.40
  Q 103.57 62.46 103.30 62.08
  L 102.57 61.03
  Q 102.27 60.60 101.86 60.27
  Q 100.10 58.85 98.64 56.87
  A 0.19 0.18 -48.6 0 0 98.33 56.89
  L 97.90 57.62
  Q 97.80 57.80 97.94 57.96
  L 102.11 62.73
  Q 102.55 63.23 102.04 63.65
  Q 101.02 64.51 99.81 63.95
  C 96.67 62.49 94.73 59.65 92.20 57.58
  Q 90.24 55.99 88.45 54.28
  Q 83.92 49.96 78.01 45.18
  Q 77.47 44.75 76.81 44.58
  Q 75.71 44.30 76.42 45.19
  Q 78.56 47.85 80.90 50.07
  Q 87.91 56.73 96.36 63.79
  Q 97.01 64.34 96.36 64.89
  Q 95.72 65.42 94.90 65.45
  A 1.73 1.72 68.2 0 1 93.51 64.85
  Q 88.34 58.93 81.97 53.88
  Q 81.36 53.40 80.64 53.25
  Q 78.91 52.91 80.11 54.20
  C 81.20 55.37 82.01 56.61 83.24 57.68
  Q 87.77 61.61 92.41 65.94
  Q 93.68 67.13 92.28 68.15
  Q 92.08 68.30 91.83 68.34
  Q 89.84 68.70 88.45 67.76
  Q 81.02 62.77 73.40 57.90
  Q 73.08 57.70 72.74 58.06
  A 0.45 0.44 45.5 0 0 72.74 58.67
  Q 74.10 60.13 75.63 61.23
  Q 76.84 62.10 77.96 63.08
  Q 79.04 64.02 80.64 64.74
  Q 82.02 65.36 83.11 66.33
  Q 85.12 68.11 87.66 69.04
  Q 88.05 69.18 88.20 69.56
  Q 88.44 70.17 87.67 70.85
  A 1.05 1.05 0.0 0 1 86.26 70.82
  C 84.73 69.36 82.79 68.70 81.28 67.26
  C 80.47 66.48 79.73 65.68 78.80 65.03
  Q 67.50 57.07 57.10 49.01
  Q 56.33 48.42 56.94 47.61
  Q 57.26 47.18 57.77 47.36
  Q 59.82 48.07 61.68 49.22
  Q 64.69 51.06 67.68 52.92
  Q 73.65 56.64 79.11 59.65
  Q 79.29 59.75 79.40 59.92
  Q 79.57 60.17 79.83 60.32
  L 87.82 65.08
  A 0.38 0.37 15.5 0 0 88.39 64.76
  Q 88.39 64.20 87.90 63.85
  Q 83.26 60.45 78.75 58.00
  Q 77.22 55.79 75.24 54.26
  Q 71.52 51.37 71.27 51.14
  Q 65.45 45.76 59.31 40.94
  Q 67.65 29.87 79.15 27.04
  Z
  M 77.25 36.52
  Q 75.35 34.04 73.32 31.95
  Q 72.75 31.36 71.96 31.58
  L 71.62 31.68
  A 0.50 0.50 0.0 0 0 71.37 32.48
  Q 77.37 39.62 83.12 45.60
  Q 84.22 46.75 85.64 47.63
  Q 85.91 47.79 86.23 47.77
  Q 87.07 47.72 86.48 47.11
  C 83.20 43.78 80.09 40.22 77.25 36.52
  Z"
/>
<path fill="#dea054" fill-opacity="0.996" d="
  M 122.62 77.13
  Q 122.55 77.68 121.83 77.60
  A 0.57 0.56 9.8 0 1 121.35 76.92
  C 122.00 73.87 122.68 70.71 123.90 67.84
  C 124.96 65.33 125.56 62.73 126.60 60.18
  Q 130.72 49.97 135.97 39.92
  C 137.65 36.71 138.89 33.35 140.20 29.97
  Q 142.33 24.43 141.61 30.32
  C 141.12 34.37 139.68 38.78 137.69 42.47
  Q 132.05 53.00 127.45 63.65
  C 125.98 67.06 125.30 70.68 123.45 74.03
  C 122.91 75.03 123.01 75.91 122.68 76.89
  Q 122.64 77.00 122.62 77.13
  Z"
/>
<path fill="#7e3404" d="
  M 77.25 36.52
  C 80.09 40.22 83.20 43.78 86.48 47.11
  Q 87.07 47.72 86.23 47.77
  Q 85.91 47.79 85.64 47.63
  Q 84.22 46.75 83.12 45.60
  Q 77.37 39.62 71.37 32.48
  A 0.50 0.50 0.0 0 1 71.62 31.68
  L 71.96 31.58
  Q 72.75 31.36 73.32 31.95
  Q 75.35 34.04 77.25 36.52
  Z"
/>
<path fill="#f0e0d5" fill-opacity="0.996" d="
  M 164.21 35.34
  Q 169.63 39.69 172.36 45.85
  C 173.68 48.83 173.64 52.50 174.48 55.77
  A 4.34 4.34 0.0 0 1 172.65 60.48
  L 162.15 67.32
  Q 161.56 67.80 161.17 67.67
  A 0.49 0.49 0.0 0 1 161.06 66.80
  Q 166.37 63.34 171.55 59.92
  C 173.55 58.59 174.64 55.79 173.09 53.67
  L 172.47 48.91
  Q 171.70 44.15 168.64 40.37
  Q 167.75 39.27 164.21 35.34
  Z"
/>
<path fill="#c98538" d="
  M 59.31 40.94
  Q 65.45 45.76 71.27 51.14
  Q 71.52 51.37 75.24 54.26
  Q 77.22 55.79 78.75 58.00
  L 56.98 44.07
  Q 57.97 41.89 59.31 40.94
  Z"
/>
<path fill="#c98538" d="
  M 172.47 48.91
  L 173.09 53.67
  L 160.28 60.23
  Q 160.03 59.28 158.94 58.93
  Q 159.42 58.55 159.89 58.16
  Q 165.14 53.72 170.57 49.48
  C 171.20 48.99 171.69 49.00 172.47 48.91
  Z"
/>
<path fill="#7e3404" d="
  M 173.09 53.67
  C 174.64 55.79 173.55 58.59 171.55 59.92
  Q 166.37 63.34 161.06 66.80
  A 0.49 0.49 0.0 0 0 161.17 67.67
  Q 161.56 67.80 162.15 67.32
  Q 163.36 67.98 164.74 67.69
  C 170.32 66.50 176.78 66.11 181.74 65.28
  Q 188.02 64.21 194.99 63.15
  C 199.59 62.44 205.52 60.85 211.01 60.35
  Q 216.45 59.85 219.38 64.45
  L 221.70 70.46
  L 221.43 71.03
  Q 221.21 71.52 220.76 71.20
  Q 220.50 71.01 220.60 70.72
  A 0.06 0.06 0.0 0 0 220.52 70.65
  Q 216.15 72.44 211.12 73.35
  Q 210.64 73.44 209.59 74.40
  Q 209.15 74.80 209.74 74.82
  L 215.61 74.97
  Q 215.84 74.97 215.86 75.21
  L 215.89 75.54
  Q 215.92 75.98 215.49 76.07
  Q 208.13 77.59 200.95 78.74
  Q 195.70 79.59 181.99 79.83
  Q 180.71 79.85 181.88 79.35
  Q 184.15 78.35 186.91 78.08
  Q 189.57 77.81 192.23 77.86
  Q 193.01 77.87 193.77 77.65
  Q 194.93 77.31 194.86 76.84
  Q 194.68 75.71 193.56 75.55
  Q 188.54 74.83 183.51 76.50
  C 180.24 77.59 176.94 76.83 173.58 77.06
  Q 171.75 77.19 170.02 78.50
  Q 167.74 80.24 164.64 80.47
  Q 157.45 81.01 150.52 81.17
  Q 150.00 81.18 149.81 80.70
  Q 147.89 76.03 151.30 77.59
  L 151.52 78.88
  A 0.93 0.92 -31.3 0 0 153.17 79.28
  Q 158.69 71.95 159.87 62.94
  C 159.99 62.05 159.87 61.00 160.28 60.23
  L 173.09 53.67
  Z"
/>
<path fill="#894111" d="
  M 57.43 61.42
  Q 58.54 62.67 59.76 63.11
  Q 63.21 64.36 64.99 65.51
  Q 71.36 69.64 77.95 74.74
  C 78.95 75.52 80.12 75.87 81.11 76.66
  Q 83.15 78.30 80.54 78.41
  Q 79.00 78.47 77.32 78.10
  Q 76.68 77.96 76.35 78.53
  Q 76.28 78.66 76.15 78.72
  Q 75.86 78.87 75.53 78.87
  Q 74.13 78.88 73.03 79.52
  Q 72.57 79.22 72.46 79.01
  Q 72.38 78.54 72.03 78.46
  Q 71.85 78.41 71.68 78.33
  Q 58.21 71.64 45.25 67.07
  Q 43.70 66.52 45.19 65.82
  Q 45.78 65.54 46.18 64.97
  Q 48.22 62.09 48.18 59.09
  Q 52.25 59.06 57.43 61.42
  Z"
/>
<path fill="#dea054" fill-opacity="0.996" d="
  M 158.94 58.93
  Q 160.03 59.28 160.28 60.23
  C 159.87 61.00 159.99 62.05 159.87 62.94
  Q 158.69 71.95 153.17 79.28
  A 0.93 0.92 -31.3 0 1 151.52 78.88
  L 151.30 77.59
  Q 151.60 72.92 152.50 69.75
  Q 154.21 63.71 158.94 58.93
  Z"
/>
<path fill="#dea054" fill-opacity="0.996" d="
  M 48.18 59.09
  Q 48.22 62.09 46.18 64.97
  Q 45.78 65.54 45.19 65.82
  Q 43.70 66.52 45.25 67.07
  Q 58.21 71.64 71.68 78.33
  Q 71.85 78.41 72.03 78.46
  Q 72.38 78.54 72.46 79.01
  Q 72.03 78.90 71.72 78.95
  A 0.74 0.72 52.5 0 1 71.24 78.88
  C 62.68 74.68 54.11 70.61 45.40 68.03
  A 2.24 2.24 0.0 0 1 43.87 65.33
  Q 44.77 61.73 48.18 59.09
  Z"
/>
<path fill="#f0e0d5" fill-opacity="0.996" d="
  M 219.38 64.45
  Q 221.83 68.17 223.00 72.65
  L 223.00 76.05
  L 221.70 70.46
  L 219.38 64.45
  Z"
/>
<path fill="#dea054" fill-opacity="0.996" d="
  M 96.84 77.59
  C 94.01 80.03 88.13 83.74 84.10 82.92
  Q 83.51 82.80 83.44 82.20
  Q 83.08 79.42 84.33 77.23
  C 87.56 71.56 92.92 68.42 98.98 66.57
  Q 100.69 66.04 102.84 66.07
  Q 103.40 66.08 103.77 66.51
  Q 104.97 67.91 104.01 69.98
  Q 102.47 73.33 100.17 74.96
  Q 98.50 76.15 96.84 77.59
  Z
  M 92.30 71.30
  Q 89.20 73.40 87.36 76.10
  Q 84.70 80.00 88.21 76.85
  Q 93.66 71.96 100.34 69.13
  Q 101.90 68.47 100.23 68.21
  C 97.95 67.85 94.23 70.00 92.30 71.30
  Z"
/>
<path fill="#c98538" d="
  M 92.30 71.30
  C 94.23 70.00 97.95 67.85 100.23 68.21
  Q 101.90 68.47 100.34 69.13
  Q 93.66 71.96 88.21 76.85
  Q 84.70 80.00 87.36 76.10
  Q 89.20 73.40 92.30 71.30
  Z"
/>
<path fill="#894111" d="
  M 91.42 116.99
  Q 91.33 119.44 89.90 120.56
  Q 88.71 121.50 88.66 121.55
  Q 72.79 137.36 57.20 153.44
  Q 56.60 154.06 54.70 154.74
  Q 54.27 154.98 53.80 154.82
  Q 53.13 154.59 53.74 154.23
  C 54.63 153.70 55.69 153.29 56.41 152.56
  C 58.89 150.08 57.36 145.40 55.70 142.72
  Q 59.83 138.31 63.76 133.64
  Q 65.76 131.27 73.80 123.40
  Q 73.92 123.28 73.80 123.15
  L 73.62 122.95
  A 0.45 0.44 47.3 0 0 73.00 122.92
  Q 67.41 127.79 63.75 130.50
  Q 60.78 132.68 53.03 137.86
  Q 48.44 130.97 43.02 126.62
  Q 47.16 123.32 51.10 120.01
  C 52.53 118.82 53.47 117.51 55.07 116.32
  Q 58.30 113.91 61.02 110.29
  Q 61.24 110.00 61.55 109.85
  Q 61.77 109.75 61.99 109.66
  Q 62.20 109.58 62.35 109.42
  Q 67.83 103.31 76.53 96.55
  Q 80.42 93.53 83.88 91.94
  Q 85.76 91.07 87.34 89.93
  C 88.87 88.83 90.31 87.78 91.99 86.88
  Q 95.77 84.88 99.22 82.37
  C 100.77 81.24 100.97 80.01 102.14 78.78
  Q 105.29 75.45 108.97 72.18
  A 0.20 0.19 -31.7 0 1 109.29 72.25
  Q 109.50 72.81 109.29 73.36
  Q 108.97 74.18 108.40 74.64
  Q 105.20 77.23 102.84 80.44
  C 100.52 83.59 97.64 85.64 94.96 88.32
  Q 94.50 88.78 94.80 89.35
  L 94.93 89.58
  A 0.34 0.33 58.4 0 0 95.42 89.70
  C 100.85 85.85 104.91 81.30 108.83 76.19
  Q 109.36 75.50 109.60 76.34
  Q 109.72 76.78 109.49 77.18
  Q 109.19 77.71 109.15 78.32
  C 108.95 81.53 109.25 83.95 106.21 86.05
  Q 103.78 87.74 106.74 87.76
  L 107.56 87.77
  Q 108.21 87.77 108.11 88.41
  Q 107.62 91.45 106.01 94.24
  Q 105.74 94.73 105.22 94.95
  C 100.34 97.05 96.94 99.74 93.36 103.44
  Q 91.17 105.70 89.61 108.14
  Q 87.20 111.93 84.76 115.67
  Q 84.46 116.13 84.98 116.29
  Q 85.53 116.46 86.13 116.21
  Q 86.68 115.98 86.77 115.38
  Q 86.90 114.46 87.55 113.70
  C 90.79 109.93 93.45 106.14 97.33 102.81
  Q 100.21 100.33 103.27 98.15
  Q 104.67 97.16 104.41 98.86
  C 104.26 99.86 103.25 100.81 102.76 101.69
  Q 102.24 102.60 101.26 102.70
  Q 100.77 102.74 100.38 103.06
  Q 97.03 105.80 95.37 108.04
  Q 91.18 113.68 87.20 119.85
  Q 86.38 121.12 87.68 120.35
  Q 89.34 119.38 91.42 116.99
  Z
  M 105.98 90.02
  L 105.95 89.70
  A 0.48 0.47 78.6 0 0 105.35 89.29
  Q 98.20 91.20 93.30 94.04
  Q 90.48 95.67 93.70 95.21
  C 94.71 95.06 95.63 94.12 96.68 93.83
  Q 100.34 92.81 105.14 91.31
  Q 106.09 91.01 105.98 90.02
  Z
  M 59.27 121.22
  Q 62.21 118.55 64.93 115.35
  Q 67.56 112.27 70.39 109.78
  Q 75.60 105.19 80.52 101.11
  C 82.85 99.17 85.55 97.83 87.61 95.71
  A 0.47 0.47 0.0 0 0 87.51 94.98
  L 87.22 94.82
  Q 86.63 94.47 86.06 94.84
  Q 80.24 98.55 75.64 102.63
  C 69.50 108.06 63.72 113.47 58.62 120.06
  A 0.71 0.71 0.0 0 0 58.66 120.98
  L 58.87 121.20
  A 0.28 0.28 0.0 0 0 59.27 121.22
  Z
  M 72.8035 102.5464
  A 0.75 0.75 0.0 0 0 72.7628 101.4865
  L 72.7481 101.4729
  A 0.75 0.75 0.0 0 0 71.6882 101.5137
  L 55.8165 118.6536
  A 0.75 0.75 0.0 0 0 55.8572 119.7135
  L 55.8719 119.7271
  A 0.75 0.75 0.0 0 0 56.9318 119.6863
  L 72.8035 102.5464
  Z
  M 66.66 125.48
  Q 67.00 125.33 67.25 125.06
  C 70.30 121.70 73.92 119.00 76.66 115.55
  C 80.34 110.93 84.31 106.81 89.17 103.44
  A 0.70 0.70 0.0 0 0 88.72 102.16
  C 87.62 102.24 86.16 102.86 85.36 103.62
  C 82.67 106.22 79.71 108.36 77.27 111.32
  Q 72.46 117.16 67.56 122.12
  Q 66.99 122.70 66.30 123.14
  Q 65.62 123.57 64.97 124.00
  Q 64.00 124.64 63.21 125.45
  Q 61.23 127.47 59.05 129.35
  C 58.47 129.86 58.35 130.59 58.37 131.32
  Q 58.39 131.90 58.73 131.43
  Q 59.14 130.86 59.74 131.21
  Q 60.16 131.46 60.48 131.09
  Q 62.12 129.24 64.12 128.08
  Q 65.33 127.39 66.13 125.96
  A 1.10 1.08 2.2 0 1 66.66 125.48
  Z
  M 82.5001 102.9578
  A 0.81 0.81 0.0 0 0 81.3559 102.9038
  L 70.1135 113.1336
  A 0.81 0.81 0.0 0 0 70.0595 114.2778
  L 70.0999 114.3222
  A 0.81 0.81 0.0 0 0 71.2441 114.3762
  L 82.4865 104.1464
  A 0.81 0.81 0.0 0 0 82.5405 103.0022
  L 82.5001 102.9578
  Z"
/>
<path fill="#7e3404" d="
  M 175.71 142.10
  Q 174.74 144.65 174.89 147.55
  Q 175.05 150.60 177.08 152.28
  Q 180.99 155.52 187.61 153.08
  Q 184.23 155.37 178.74 155.23
  Q 177.60 155.21 176.07 153.68
  Q 158.18 135.91 139.08 119.43
  Q 138.57 118.99 138.10 118.69
  Q 137.67 117.24 136.74 118.50
  Q 136.43 118.91 136.29 119.55
  Q 131.69 140.58 128.37 161.87
  Q 128.08 163.72 126.39 164.92
  Q 127.94 159.61 124.06 157.37
  A 2.02 2.00 19.9 0 1 123.08 155.30
  L 131.22 107.03
  Q 132.55 103.88 135.14 103.00
  Q 135.66 102.83 135.72 102.29
  Q 137.03 91.41 141.45 80.14
  Q 143.17 75.74 146.55 73.14
  Q 147.48 72.43 147.27 73.58
  Q 146.54 77.70 144.80 81.85
  C 144.21 83.26 143.61 83.21 142.42 83.75
  A 1.51 1.51 0.0 0 0 141.61 84.67
  Q 140.60 87.96 139.30 91.64
  Q 138.72 93.27 139.03 94.87
  Q 139.91 99.42 138.36 105.16
  Q 138.19 105.80 138.71 106.22
  Q 139.02 106.47 139.32 106.21
  Q 139.67 105.88 140.15 105.82
  Q 140.49 105.77 140.80 105.93
  Q 147.25 109.18 153.19 113.42
  Q 154.63 114.45 155.08 115.87
  Q 155.53 117.28 154.36 116.38
  Q 149.64 112.76 144.39 110.12
  Q 141.59 108.72 139.61 106.65
  A 0.90 0.90 0.0 0 0 138.07 107.09
  L 137.33 110.72
  Q 137.20 111.33 137.76 111.62
  Q 140.72 113.17 143.00 114.98
  Q 147.47 118.54 151.75 121.84
  Q 153.44 123.14 160.91 128.27
  Q 168.41 133.41 175.27 139.60
  Q 176.20 139.70 175.71 142.10
  Z"
/>
<path fill="#c98538" d="
  M 88.84 149.31
  L 90.91 142.11
  Q 91.07 142.99 91.71 143.14
  Q 92.18 143.25 92.33 142.79
  L 94.39 136.52
  Q 94.94 134.87 95.35 136.55
  Q 95.62 137.64 95.30 138.74
  Q 94.10 142.94 92.83 147.44
  Q 92.65 148.06 93.47 148.38
  A 0.86 0.85 -71.3 0 0 94.61 147.81
  Q 97.16 138.58 99.40 128.50
  Q 100.04 125.64 101.27 123.21
  Q 102.39 120.97 103.09 118.59
  Q 104.52 113.69 106.81 108.70
  Q 108.98 103.96 110.34 99.57
  Q 112.97 91.06 114.35 82.36
  Q 114.40 82.03 114.73 82.06
  L 114.99 82.09
  Q 115.05 82.10 115.05 82.16
  Q 114.80 89.18 113.36 94.92
  Q 110.00 108.31 105.02 121.50
  Q 103.38 125.84 102.12 130.79
  Q 99.89 139.53 97.67 148.64
  Q 97.11 150.95 94.02 150.92
  Q 93.40 150.91 93.14 150.33
  Q 92.88 149.75 92.20 149.83
  Q 91.80 149.87 91.45 149.68
  Q 90.17 149.00 88.84 149.31
  Z"
/>
<path fill="#f0e0d5" fill-opacity="0.996" d="
  M 223.00 83.33
  L 223.00 90.23
  Q 221.68 95.63 219.16 98.66
  C 218.36 99.61 216.27 99.99 214.85 99.98
  Q 197.05 99.88 179.25 100.04
  Q 177.96 100.05 177.25 100.73
  Q 176.34 100.79 176.32 100.24
  A 0.60 0.60 0.0 0 1 176.89 99.61
  Q 195.70 98.58 213.55 99.34
  C 215.84 99.44 218.02 99.00 219.21 96.83
  Q 222.62 90.65 223.00 83.33
  Z"
/>
<path fill="#dea054" fill-opacity="0.996" d="
  M 4.84 85.20
  Q 8.47 85.33 9.76 87.75
  Q 11.05 90.19 11.63 92.31
  Q 13.80 100.72 12.53 109.50
  Q 11.77 114.79 6.61 114.51
  Q -1.35 99.80 4.84 85.20
  Z"
/>
<path fill="#7e3404" d="
  M 145.53 88.37
  A 1.17 1.17 0.0 0 1 145.05 87.86
  Q 144.67 87.09 144.94 86.59
  Q 145.35 85.80 146.06 86.32
  C 149.36 88.68 152.81 90.82 156.07 93.27
  Q 158.36 94.99 160.71 96.17
  A 0.38 0.38 0.0 0 1 160.71 96.85
  Q 159.61 97.43 159.07 96.34
  Q 158.80 95.80 158.18 95.90
  A 1.06 1.06 0.0 0 1 157.25 95.57
  Q 155.79 94.00 154.15 93.37
  Q 152.39 92.71 150.79 91.64
  Q 148.22 89.91 145.53 88.37
  Z"
/>
<path fill="#894111" d="
  M 41.98 110.92
  L 41.93 110.59
  Q 41.88 110.24 41.52 110.27
  Q 24.65 112.09 8.74 115.25
  Q 8.27 115.34 7.81 115.21
  L 7.25 115.06
  L 6.61 114.51
  Q 11.77 114.79 12.53 109.50
  Q 13.80 100.72 11.63 92.31
  Q 11.95 92.03 12.30 92.29
  Q 12.89 92.72 12.92 92.07
  Q 12.93 91.94 12.95 91.81
  Q 12.98 91.69 13.10 91.67
  Q 13.94 91.50 14.72 91.87
  C 16.90 92.87 19.06 91.38 21.07 91.31
  Q 29.90 91.00 38.73 89.07
  Q 43.89 87.94 50.22 88.09
  C 52.63 88.15 55.27 89.40 57.38 89.21
  Q 62.46 88.76 66.50 88.77
  Q 68.10 88.77 70.71 87.79
  Q 70.96 87.69 71.25 87.69
  Q 71.53 87.70 71.80 87.74
  Q 73.42 88.00 72.11 88.99
  Q 70.23 90.39 69.47 92.68
  Q 69.15 93.66 68.33 94.33
  Q 66.92 95.48 65.45 96.10
  Q 65.01 96.29 64.94 96.76
  Q 64.85 97.32 64.32 97.49
  Q 62.60 98.04 60.95 98.80
  Q 59.18 99.62 57.80 100.77
  C 56.31 102.02 55.02 103.13 53.27 103.95
  Q 51.32 104.86 49.67 106.03
  Q 48.01 107.21 46.04 107.26
  Q 42.74 107.33 39.66 107.58
  Q 36.28 107.85 30.93 109.42
  Q 30.10 109.67 30.75 110.25
  L 31.33 110.77
  A 0.67 0.67 0.0 0 0 32.38 110.56
  Q 32.55 110.20 32.89 110.18
  Q 37.88 109.79 42.33 109.93
  Q 44.02 109.99 42.67 111.01
  Q 42.60 111.07 41.98 110.92
  Z"
/>
<path fill="#7e3404" d="
  M 105.14 91.31
  Q 100.34 92.81 96.68 93.83
  C 95.63 94.12 94.71 95.06 93.70 95.21
  Q 90.48 95.67 93.30 94.04
  Q 98.20 91.20 105.35 89.29
  A 0.48 0.47 78.6 0 1 105.95 89.70
  L 105.98 90.02
  Q 106.09 91.01 105.14 91.31
  Z"
/>
<path fill="#7e3404" d="
  M 59.27 121.22
  A 0.28 0.28 0.0 0 1 58.87 121.20
  L 58.66 120.98
  A 0.71 0.71 0.0 0 1 58.62 120.06
  C 63.72 113.47 69.50 108.06 75.64 102.63
  Q 80.24 98.55 86.06 94.84
  Q 86.63 94.47 87.22 94.82
  L 87.51 94.98
  A 0.47 0.47 0.0 0 1 87.61 95.71
  C 85.55 97.83 82.85 99.17 80.52 101.11
  Q 75.60 105.19 70.39 109.78
  Q 67.56 112.27 64.93 115.35
  Q 62.21 118.55 59.27 121.22
  Z"
/>
<rect fill="#7e3404" x="-0.76" y="-12.43" transform="translate(64.31,110.60) rotate(42.8)" width="1.52" height="24.86" rx="0.75"/>
<path fill="#7e3404" d="
  M 66.13 125.96
  Q 65.33 127.39 64.12 128.08
  Q 62.12 129.24 60.48 131.09
  Q 60.16 131.46 59.74 131.21
  Q 59.14 130.86 58.73 131.43
  Q 58.39 131.90 58.37 131.32
  C 58.35 130.59 58.47 129.86 59.05 129.35
  Q 61.23 127.47 63.21 125.45
  Q 64.00 124.64 64.97 124.00
  Q 65.62 123.57 66.30 123.14
  Q 66.99 122.70 67.56 122.12
  Q 72.46 117.16 77.27 111.32
  C 79.71 108.36 82.67 106.22 85.36 103.62
  C 86.16 102.86 87.62 102.24 88.72 102.16
  A 0.70 0.70 0.0 0 1 89.17 103.44
  C 84.31 106.81 80.34 110.93 76.66 115.55
  C 73.92 119.00 70.30 121.70 67.25 125.06
  Q 67.00 125.33 66.66 125.48
  A 1.10 1.08 2.2 0 0 66.13 125.96
  Z"
/>
<rect fill="#7e3404" x="-8.41" y="-0.84" transform="translate(76.30,108.64) rotate(-42.3)" width="16.82" height="1.68" rx="0.81"/>
<path fill="#f0e0d5" fill-opacity="0.996" d="
  M 41.98 110.92
  Q 41.87 110.94 41.75 110.96
  Q 27.68 112.80 13.63 115.22
  C 11.35 115.62 9.04 117.36 7.25 115.06
  L 7.81 115.21
  Q 8.27 115.34 8.74 115.25
  Q 24.65 112.09 41.52 110.27
  Q 41.88 110.24 41.93 110.59
  L 41.98 110.92
  Z"
/>
<path fill="#c98538" d="
  M 191.27 122.94
  L 186.31 127.05
  L 175.06 115.01
  Q 172.85 112.64 175.67 114.22
  L 191.27 122.94
  Z"
/>
<path fill="#f0e0d5" fill-opacity="0.996" d="
  M 91.83 119.98
  Q 74.81 136.85 58.13 153.89
  C 56.99 155.06 56.00 155.36 54.49 155.74
  L 54.70 154.74
  Q 56.60 154.06 57.20 153.44
  Q 72.79 137.36 88.66 121.55
  Q 88.71 121.50 89.90 120.56
  Q 91.33 119.44 91.42 116.99
  Q 92.50 116.30 93.05 114.18
  Q 93.18 113.67 93.56 114.03
  Q 93.75 114.21 93.69 114.52
  Q 93.05 117.73 91.83 119.98
  Z"
/>
<path fill="#c98538" d="
  M 41.74 125.39
  L 37.81 122.54
  L 48.21 116.28
  Q 48.42 116.16 48.66 116.22
  Q 48.83 116.26 48.91 116.44
  Q 48.96 116.57 48.88 116.68
  L 41.74 125.39
  Z"
/>
<path fill="#f0e0d5" fill-opacity="0.996" d="
  M 138.10 118.69
  Q 137.76 118.83 137.52 119.05
  Q 137.31 119.23 137.23 119.62
  Q 132.64 141.08 129.19 162.75
  C 128.58 166.59 121.36 168.84 117.93 169.47
  Q 121.11 167.45 124.20 166.42
  Q 126.45 165.68 126.39 164.92
  Q 128.08 163.72 128.37 161.87
  Q 131.69 140.58 136.29 119.55
  Q 136.43 118.91 136.74 118.50
  Q 137.67 117.24 138.10 118.69
  Z"
/>
<path fill="#dea054" fill-opacity="0.996" d="
  M 207.53 129.85
  Q 206.65 133.60 204.42 137.16
  Q 201.43 141.91 197.67 146.06
  Q 196.57 147.26 194.36 148.91
  Q 192.97 149.94 190.88 151.62
  Q 189.36 152.85 187.61 153.08
  Q 180.99 155.52 177.08 152.28
  Q 175.05 150.60 174.89 147.55
  Q 174.74 144.65 175.71 142.10
  Q 179.57 133.59 186.31 127.05
  L 191.27 122.94
  C 195.41 119.91 201.98 116.78 205.81 121.13
  Q 207.08 122.57 207.28 125.30
  Q 207.44 127.49 207.53 129.85
  Z"
/>
<path fill="#dea054" fill-opacity="0.996" d="
  M 37.81 122.54
  L 41.74 125.39
  L 43.02 126.62
  Q 48.44 130.97 53.03 137.86
  L 55.70 142.72
  C 57.36 145.40 58.89 150.08 56.41 152.56
  C 55.69 153.29 54.63 153.70 53.74 154.23
  Q 53.13 154.59 53.80 154.82
  Q 54.27 154.98 54.70 154.74
  L 54.49 155.74
  Q 46.57 154.12 40.74 148.76
  Q 37.96 146.21 34.75 143.03
  Q 32.57 140.87 31.00 138.28
  C 28.63 134.42 26.22 130.73 25.28 126.25
  Q 24.95 124.67 25.68 121.98
  Q 28.78 120.03 30.75 120.02
  Q 33.78 120.00 37.81 122.54
  Z"
/>
<path fill="#dea054" fill-opacity="0.996" d="
  M 91.36 122.12
  Q 90.06 127.83 88.07 132.07
  Q 87.86 132.53 87.27 132.84
  Q 88.25 127.05 91.36 122.12
  Z"
/>
<path fill="#f0e0d5" fill-opacity="0.996" d="
  M 208.52 122.22
  Q 209.89 130.30 204.52 138.54
  Q 199.82 145.76 195.25 149.25
  Q 191.81 151.87 188.68 153.82
  C 186.93 154.92 181.03 156.93 178.74 155.23
  Q 184.23 155.37 187.61 153.08
  Q 189.36 152.85 190.88 151.62
  Q 192.97 149.94 194.36 148.91
  Q 196.57 147.26 197.67 146.06
  Q 201.43 141.91 204.42 137.16
  Q 206.65 133.60 207.53 129.85
  L 208.52 122.22
  Z"
/>
<path fill="#c98538" d="
  M 55.70 142.72
  L 53.03 137.86
  Q 60.78 132.68 63.75 130.50
  Q 67.41 127.79 73.00 122.92
  A 0.45 0.44 47.3 0 1 73.62 122.95
  L 73.80 123.15
  Q 73.92 123.28 73.80 123.40
  Q 65.76 131.27 63.76 133.64
  Q 59.83 138.31 55.70 142.72
  Z"
/>
<path fill="#f0e0d5" fill-opacity="0.996" d="
  M 92.72 131.16
  Q 90.92 132.66 89.30 134.43
  Q 88.79 134.99 88.39 135.23
  Q 87.06 136.01 87.06 134.66
  L 91.68 130.80
  A 0.66 0.60 -68.2 0 1 91.97 130.66
  Q 93.28 130.45 92.72 131.16
  Z"
/>
<path fill="#894111" d="
  M 94.33 131.53
  L 90.91 142.11
  L 88.84 149.31
  Q 86.05 154.18 89.63 159.99
  Q 85.70 156.66 87.21 151.00
  Q 88.29 146.93 93.28 132.53
  Q 93.78 131.85 94.33 131.53
  Z"
/>
</svg>
